<?xml version='1.0' encoding='UTF-8' ?>
<!DOCTYPE svg PUBLIC "-//W3C//DTD SVG 1.1//EN" "http://www.w3.org/Graphics/SVG/1.1/DTD/svg11.dtd" [ 
 <!ATTLIST svg 
                                               xmlns:dsy CDATA #FIXED "http://www.3ds.com/print"  
                                               dsy:text-version CDATA #IMPLIED > 

                                               <!ATTLIST text 
                                               xmlns:dsy CDATA #FIXED "http://www.3ds.com/print" 
                                               dsy:text-version CDATA #IMPLIED > 
                                                ]>
<svg style = "background : rgb(255,255,255)" width = "300mm" xmlns = "http://www.w3.org/2000/svg" height = "300mm" version = "1.1" viewBox = "0 0 300 300" xmlns:dsy = "http://www.3ds.com/print" xmlns:xlink = "http://www.w3.org/1999/xlink" dsy:text-version = "21000"><g fill = "none" stroke = "rgb(255, 0, 0)" stroke-width = "0.13" stroke-linecap = "butt" stroke-linejoin = "miter"><circle r = "4" cx = "128.18596" cy = "149.99998"/><circle r = "4" cx = "164.18596" cy = "170.78459"/><circle r = "4" cx = "164.18596" cy = "129.21538"/><path d = "M 176.18596 145.99998 A 4 4 0 0 0 176.18596 153.99998"/><path d = "M 136.72186 131.21538 A 4 4 0 1 0 143.65005 127.21538"/><path d = "M 143.65005 172.78459 A 4 4 0 1 0 136.72186 168.78459"/><circle r = "2.5" cx = "189.68596" cy = "214.9519"/><circle r = "2.5" cx = "77.185959" cy = "149.99998"/><circle r = "2.5" cx = "189.68596" cy = "85.04808"/><path d = "M 120.222 197.363 L 136.722 168.785"/><path d = "M 113.39174 199.19357 A 5 5 0 0 0 120.22186 197.36343"/><path d = "M 127.15 201.363 L 143.65 172.785"/><path d = "M 127.15007 201.36343 A 5 5 0 0 0 128.98019 208.19357"/><path d = "M 120.222 102.637 L 136.722 131.215"/><path d = "M 120.22186 102.63652 A 5 5 0 0 0 113.39174 100.8064"/><path d = "M 143.65 127.215 L 127.15 98.6365"/><path d = "M 128.98019 91.806412 A 5 5 0 0 0 127.15007 98.636536"/><path d = "M 209.186 146 L 176.186 146"/><path d = "M 209.18596 145.99998 A 5 5 0 0 0 214.18596 140.99998"/><path d = "M 176.186 154 L 209.186 154"/><path d = "M 214.18596 158.99998 A 5 5 0 0 0 209.18596 153.99998"/><path d = "M 235.0491 121.89392 A 87.5 87.5 0 0 0 135.09496 64.185364"/><path d = "M 230.31407 128.49998 A 5 5 0 0 0 235.0491 121.89392"/><path d = "M 135.09496 64.185379 A 5 5 0 0 0 131.74146 71.589066"/><path d = "M 86.413818 92.291443 A 87.5 87.5 0 0 0 86.413834 207.70854"/><path d = "M 94.502365 93.089066 A 5 5 0 0 0 86.413834 92.291428"/><path d = "M 135.09497 235.81461 A 87.5 87.5 0 0 0 235.0491 178.10603"/><path d = "M 235.0491 178.10605 A 5 5 0 0 0 230.31407 171.49998"/><path d = "M 131.74146 228.4109 A 5 5 0 0 0 135.09496 235.81461"/><path d = "M 86.413834 207.70853 A 5 5 0 0 0 94.502365 206.9109"/><path d = "M 214.186 133.5 L 214.186 141"/><path d = "M 219.18596 128.49998 A 5 5 0 0 0 214.18596 133.49998"/><path d = "M 219.186 128.5 L 230.314 128.5"/><path d = "M 100.066 102.726 L 94.5024 93.0891"/><path d = "M 100.06642 102.72629 A 5 5 0 0 0 106.89655 104.55641"/><path d = "M 106.897 104.556 L 113.392 100.806"/><path d = "M 137.306 81.2263 L 131.741 71.5891"/><path d = "M 135.47537 88.056396 A 5 5 0 0 0 137.3055 81.226273"/><path d = "M 128.98 91.8064 L 135.475 88.0564"/><path d = "M 100.066 197.274 L 94.5024 206.911"/><path d = "M 106.89655 195.44356 A 5 5 0 0 0 100.06642 197.27368"/><path d = "M 113.392 199.194 L 106.897 195.444"/><path d = "M 146.967 202.239 L 153.895 206.239"/><path d = "M 145.86902 198.14122 A 3 3 0 0 0 146.9671 202.23929"/><path d = "M 153.89531 206.23929 A 3 3 0 0 0 157.99338 205.14122"/><path d = "M 145.869 198.141 L 154.169 183.765"/><path d = "M 158.26711 182.66711 A 3 3 0 0 0 154.16902 183.7652"/><path d = "M 157.993 205.141 L 166.293 190.765"/><path d = "M 166.2934 190.7652 A 3 3 0 0 0 165.19531 186.66711"/><path d = "M 165.195 186.667 L 158.267 182.667"/><path d = "M 180.436 117.4 L 197.036 117.4"/><path d = "M 180.43596 117.39998 A 3 3 0 0 0 177.43596 120.39998"/><path d = "M 200.03596 120.39998 A 3 3 0 0 0 197.03596 117.39998"/><path d = "M 177.436 128.4 L 177.436 120.4"/><path d = "M 177.43596 128.39998 A 3 3 0 0 0 180.43596 131.39998"/><path d = "M 200.036 128.4 L 200.036 120.4"/><path d = "M 197.03596 131.39998 A 3 3 0 0 0 200.03596 128.39998"/><path d = "M 197.036 131.4 L 180.436 131.4"/><path d = "M 109.555 119.361 L 102.627 123.361"/><path d = "M 113.65289 120.45874 A 3 3 0 0 0 109.55481 119.36066"/><path d = "M 102.6266 123.36066 A 3 3 0 0 0 101.52853 127.45874"/><path d = "M 121.953 134.835 L 113.653 120.459"/><path d = "M 120.85481 138.93285 A 3 3 0 0 0 121.95289 134.83476"/><path d = "M 101.529 127.459 L 109.829 141.835"/><path d = "M 109.82852 141.83476 A 3 3 0 0 0 113.9266 142.93285"/><path d = "M 113.927 142.933 L 120.855 138.933"/><path d = "M 230.314 171.5 L 219.186 171.5"/><path d = "M 214.18596 166.49998 A 5 5 0 0 0 219.18596 171.49998"/><path d = "M 214.186 159 L 214.186 166.5"/><path d = "M 137.306 218.774 L 131.741 228.411"/><path d = "M 137.3055 218.7737 A 5 5 0 0 0 135.47537 211.94357"/><path d = "M 135.475 211.944 L 128.98 208.194"/><circle r = "5" cx = "152.18596" cy = "149.99998"/><path d = "M 87.185959 148.99998 A 3 3 0 1 0 93.185959 148.99998"/><path d = "M 87.186 131 L 87.186 149"/><path d = "M 93.185959 130.99998 A 3 3 0 1 0 87.185959 130.99998"/><path d = "M 93.186 149 L 93.186 131"/></g></svg>
