<?xml version='1.0' encoding='UTF-8' ?>
<!DOCTYPE svg PUBLIC "-//W3C//DTD SVG 1.1//EN" "http://www.w3.org/Graphics/SVG/1.1/DTD/svg11.dtd" [ 
 <!ATTLIST svg 
                                               xmlns:dsy CDATA #FIXED "http://www.3ds.com/print"  
                                               dsy:text-version CDATA #IMPLIED > 

                                               <!ATTLIST text 
                                               xmlns:dsy CDATA #FIXED "http://www.3ds.com/print" 
                                               dsy:text-version CDATA #IMPLIED > 
                                                ]>
<svg style = "background : rgb(255,255,255)" width = "300mm" xmlns = "http://www.w3.org/2000/svg" height = "300mm" version = "1.1" viewBox = "0 0 300 300" xmlns:dsy = "http://www.3ds.com/print" xmlns:xlink = "http://www.w3.org/1999/xlink" dsy:text-version = "21000"><g fill = "none" stroke = "rgb(255, 0, 0)" stroke-width = "0.13" stroke-linecap = "butt" stroke-linejoin = "miter"><circle r = "4" cx = "164.18596" cy = "129.21538"/><circle r = "4" cx = "128.18596" cy = "149.99998"/><circle r = "4" cx = "164.18596" cy = "170.78459"/><path d = "M 189.93596 153.99998 A 1 1 0 0 0 188.93596 154.99998"/><path d = "M 185.93596 157.99998 A 3 3 0 0 0 188.93596 154.99998"/><path d = "M 185.936 158 L 180.436 158"/><path d = "M 177.43596 154.99998 A 3 3 0 0 0 180.43596 157.99998"/><path d = "M 177.43596 154.99998 A 1 1 0 0 0 176.43596 153.99998"/><path d = "M 171.436 154 L 176.436 154"/><path d = "M 171.43596 145.99998 A 4 4 0 0 0 171.43596 153.99998"/><path d = "M 176.436 146 L 171.436 146"/><path d = "M 176.43596 145.99998 A 1 1 0 0 0 177.43596 144.99998"/><path d = "M 177.436 138.2 L 177.436 145"/><path d = "M 177.43596 138.19998 A 0.5 0.5 0 0 0 176.93596 137.69998"/><path d = "M 176.936 137.7 L 172.936 137.7"/><path d = "M 172.43596 137.19998 A 0.5 0.5 0 0 0 172.93596 137.69998"/><path d = "M 172.436 136.1 L 172.436 137.2"/><path d = "M 172.93596 135.59999 A 0.5 0.5 0 0 0 172.43596 136.09999"/><path d = "M 172.936 135.6 L 176.936 135.6"/><path d = "M 176.93596 135.59999 A 0.5 0.5 0 0 0 177.43596 135.09999"/><path d = "M 200.536 135.6 L 204.536 135.6"/><path d = "M 205.03596 136.09999 A 0.5 0.5 0 0 0 204.53596 135.59999"/><path d = "M 200.03596 135.09999 A 0.5 0.5 0 0 0 200.53596 135.59999"/><path d = "M 205.036 136.1 L 205.036 137.2"/><path d = "M 204.53596 137.69998 A 0.5 0.5 0 0 0 205.03596 137.19998"/><path d = "M 204.536 137.7 L 200.536 137.7"/><path d = "M 200.53596 137.69998 A 0.5 0.5 0 0 0 200.03596 138.19998"/><path d = "M 200.036 138.2 L 200.036 139.3"/><path d = "M 199.53596 139.79999 A 0.5 0.5 0 0 0 200.03596 139.29999"/><path d = "M 199.536 139.8 L 192.636 139.8"/><path d = "M 192.63596 139.79999 A 1 1 0 0 0 191.63596 140.79999"/><path d = "M 191.636 140.8 L 191.636 145"/><path d = "M 191.63596 144.99998 A 1 1 0 0 0 192.63596 145.99998"/><path d = "M 136.77505 115.30753 A 1 1 0 0 0 138.14108 115.67355"/><path d = "M 142.23917 116.77161 A 3 3 0 0 0 138.14108 115.67352"/><path d = "M 142.239 116.772 L 144.989 121.535"/><path d = "M 143.89108 125.63286 A 3 3 0 0 0 144.98917 121.53477"/><path d = "M 143.89108 125.63284 A 1 1 0 0 0 143.52505 126.99887"/><path d = "M 143.525 126.999 L 146.025 131.329"/><path d = "M 139.09686 135.32899 A 4 4 0 1 0 146.02505 131.32899"/><path d = "M 139.097 135.329 L 136.597 130.999"/><path d = "M 136.59686 130.99887 A 1 1 0 0 0 135.23083 130.63284"/><path d = "M 135.231 130.633 L 129.342 134.033"/><path d = "M 129.34186 134.03284 A 0.5 0.5 0 0 0 129.15884 134.71585"/><path d = "M 129.159 134.716 L 131.159 138.18"/><path d = "M 130.97583 138.86298 A 0.5 0.5 0 0 0 131.15884 138.17996"/><path d = "M 130.976 138.863 L 130.023 139.413"/><path d = "M 129.34019 139.22997 A 0.5 0.5 0 0 0 130.02321 139.41298"/><path d = "M 129.34 139.23 L 127.34 135.766"/><path d = "M 127.34019 135.76585 A 0.5 0.5 0 0 0 126.65718 135.58284"/><path d = "M 113.54 111.864 L 115.54 115.328"/><path d = "M 113.72321 111.18054 A 0.5 0.5 0 0 0 113.54019 111.86356"/><path d = "M 115.35718 116.01067 A 0.5 0.5 0 0 0 115.54019 115.32765"/><path d = "M 114.676 110.631 L 113.723 111.181"/><path d = "M 115.35886 110.81355 A 0.5 0.5 0 0 0 114.67584 110.63054"/><path d = "M 117.359 114.278 L 115.359 110.814"/><path d = "M 117.35884 114.27766 A 0.5 0.5 0 0 0 118.04185 114.46068"/><path d = "M 118.042 114.461 L 118.994 113.911"/><path d = "M 119.67751 114.09367 A 0.5 0.5 0 0 0 118.99449 113.91066"/><path d = "M 119.678 114.094 L 123.128 120.069"/><path d = "M 123.12749 120.06926 A 1 1 0 0 0 124.49352 120.43529"/><path d = "M 124.494 120.435 L 128.131 118.335"/><path d = "M 128.13081 118.33528 A 1 1 0 0 0 128.49684 116.96925"/><path d = "M 129.84686 180.69244 A 1 1 0 0 0 129.48083 179.32642"/><path d = "M 128.38275 175.22835 A 3 3 0 0 0 129.48083 179.32642"/><path d = "M 128.383 175.228 L 131.133 170.465"/><path d = "M 135.23083 169.36711 A 3 3 0 0 0 131.13275 170.46519"/><path d = "M 135.23083 169.36713 A 1 1 0 0 0 136.59686 169.0011"/><path d = "M 139.097 164.671 L 136.597 169.001"/><path d = "M 146.02505 168.67097 A 4 4 0 1 0 139.09686 164.67097"/><path d = "M 143.525 173.001 L 146.025 168.671"/><path d = "M 143.52505 173.0011 A 1 1 0 0 0 143.89108 174.36713"/><path d = "M 147.788 176.617 L 143.891 174.367"/><path d = "M 147.788 176.617 L 149.78 177.767"/><path d = "M 149.78006 177.76714 A 0.5 0.5 0 0 0 150.46307 177.58412"/><path d = "M 152.463 174.12 L 150.463 177.584"/><path d = "M 153.14609 173.937 A 0.5 0.5 0 0 0 152.46307 174.12001"/><path d = "M 154.099 174.487 L 153.146 173.937"/><path d = "M 154.28172 175.17001 A 0.5 0.5 0 0 0 154.09871 174.487"/><path d = "M 152.282 178.634 L 154.282 175.17"/><path d = "M 152.28172 178.63411 A 0.5 0.5 0 0 0 152.46474 179.31712"/><path d = "M 138.482 202.536 L 140.482 199.072"/><path d = "M 137.79871 202.71942 A 0.5 0.5 0 0 0 138.48172 202.53641"/><path d = "M 141.16473 198.8893 A 0.5 0.5 0 0 0 140.48172 199.07231"/><path d = "M 136.846 202.169 L 137.799 202.719"/><path d = "M 136.66307 201.48642 A 0.5 0.5 0 0 0 136.84608 202.16943"/><path d = "M 138.663 198.022 L 136.663 201.486"/><path d = "M 138.66307 198.02231 A 0.5 0.5 0 0 0 138.48006 197.33929"/><path d = "M 138.48 197.339 L 137.527 196.789"/><path d = "M 137.34442 196.10629 A 0.5 0.5 0 0 0 137.52744 196.78931"/><path d = "M 137.344 196.106 L 140.794 190.131"/><path d = "M 140.79442 190.13071 A 1 1 0 0 0 140.42839 188.76468"/><path d = "M 140.428 188.765 L 136.791 186.665"/><path d = "M 136.79109 186.66469 A 1 1 0 0 0 135.42506 187.03072"/><circle r = "2.5" cx = "189.68596" cy = "214.9519"/><circle r = "2.5" cx = "77.185959" cy = "149.99998"/><circle r = "2.5" cx = "189.68596" cy = "85.04808"/><path d = "M 141.165 198.889 L 150.431 204.239"/><path d = "M 150.79724 205.60533 A 1 1 0 0 0 150.43121 204.2393"/><path d = "M 152.465 179.317 L 161.731 184.667"/><path d = "M 161.73122 184.66714 A 1 1 0 0 0 163.09724 184.30112"/><path d = "M 115.357 116.011 L 106.091 121.361"/><path d = "M 104.72469 120.99463 A 1 1 0 0 0 106.09071 121.36066"/><path d = "M 126.657 135.583 L 117.391 140.933"/><path d = "M 117.39071 140.93285 A 1 1 0 0 0 117.02468 142.29887"/><path d = "M 200.036 135.1 L 200.036 124.4"/><path d = "M 201.03596 123.39998 A 1 1 0 0 0 200.03596 124.39998"/><path d = "M 177.436 124.4 L 177.436 135.1"/><path d = "M 177.43596 124.39998 A 1 1 0 0 0 176.43596 123.39998"/><path d = "M 176.436 123.4 L 170.436 123.4"/><path d = "M 167.43596 120.39998 A 3 3 0 0 0 170.43596 123.39998"/><path d = "M 166.097 179.105 L 163.097 184.301"/><path d = "M 170.19531 178.00687 A 3 3 0 0 0 166.09723 179.10495"/><path d = "M 202.036 123.4 L 201.036 123.4"/><path d = "M 202.03596 123.39998 A 3 3 0 0 0 205.03596 120.39998"/><path d = "M 205.036 116.4 L 205.036 120.4"/><path d = "M 205.03596 116.39998 A 3 3 0 0 0 202.03596 113.39998"/><path d = "M 117.025 142.299 L 120.025 147.495"/><path d = "M 118.9266 151.59311 A 3 3 0 0 0 120.02467 147.49503"/><path d = "M 104.225 120.129 L 104.725 120.995"/><path d = "M 104.22468 120.12862 A 3 3 0 0 0 100.1266 119.03053"/><path d = "M 100.127 119.031 L 96.6625 121.031"/><path d = "M 96.662506 121.03053 A 3 3 0 0 0 95.56443 125.12862"/><path d = "M 151.395 210.569 L 154.859 212.569"/><path d = "M 150.29723 206.47134 A 3 3 0 0 0 151.39531 210.56943"/><path d = "M 154.85941 212.56943 A 3 3 0 0 0 158.95749 211.47134"/><path d = "M 150.797 205.605 L 150.297 206.471"/><path d = "M 127.15 201.363 L 135.425 187.031"/><path d = "M 127.15007 201.36343 A 5 5 0 0 0 128.98019 208.19357"/><path d = "M 120.222 197.363 L 129.847 180.692"/><path d = "M 113.39174 199.19357 A 5 5 0 0 0 120.22186 197.36343"/><path d = "M 120.222 102.637 L 128.497 116.969"/><path d = "M 120.22186 102.63652 A 5 5 0 0 0 113.39174 100.8064"/><path d = "M 136.775 115.308 L 127.15 98.6365"/><path d = "M 128.98019 91.806412 A 5 5 0 0 0 127.15007 98.636536"/><path d = "M 209.186 146 L 192.636 146"/><path d = "M 209.18596 145.99998 A 5 5 0 0 0 214.18596 140.99998"/><path d = "M 189.936 154 L 209.186 154"/><path d = "M 214.18596 158.99998 A 5 5 0 0 0 209.18596 153.99998"/><path d = "M 86.413818 92.291443 A 87.5 87.5 0 0 0 86.413834 207.70854"/><path d = "M 86.413834 207.70853 A 5 5 0 0 0 94.502365 206.9109"/><path d = "M 135.09497 235.81461 A 87.5 87.5 0 0 0 235.0491 178.10603"/><path d = "M 131.74146 228.4109 A 5 5 0 0 0 135.09496 235.81461"/><path d = "M 235.0491 178.10605 A 5 5 0 0 0 230.31407 171.49998"/><path d = "M 94.502365 93.089066 A 5 5 0 0 0 86.413834 92.291428"/><path d = "M 235.0491 121.89392 A 87.5 87.5 0 0 0 135.09496 64.185364"/><path d = "M 135.09496 64.185379 A 5 5 0 0 0 131.74146 71.589066"/><path d = "M 230.31407 128.49998 A 5 5 0 0 0 235.0491 121.89392"/><path d = "M 137.306 81.2263 L 131.741 71.5891"/><path d = "M 135.47537 88.056396 A 5 5 0 0 0 137.3055 81.226273"/><path d = "M 128.98 91.8064 L 135.475 88.0564"/><path d = "M 137.306 218.774 L 131.741 228.411"/><path d = "M 137.3055 218.7737 A 5 5 0 0 0 135.47537 211.94357"/><path d = "M 135.475 211.944 L 128.98 208.194"/><path d = "M 230.314 171.5 L 219.186 171.5"/><path d = "M 214.18596 166.49998 A 5 5 0 0 0 219.18596 171.49998"/><path d = "M 214.186 159 L 214.186 166.5"/><path d = "M 100.066 102.726 L 94.5024 93.0891"/><path d = "M 100.06642 102.72629 A 5 5 0 0 0 106.89655 104.55641"/><path d = "M 106.897 104.556 L 113.392 100.806"/><path d = "M 214.186 133.5 L 214.186 141"/><path d = "M 219.18596 128.49998 A 5 5 0 0 0 214.18596 133.49998"/><path d = "M 219.186 128.5 L 230.314 128.5"/><path d = "M 100.066 197.274 L 94.5024 206.911"/><path d = "M 106.89655 195.44356 A 5 5 0 0 0 100.06642 197.27368"/><path d = "M 113.392 199.194 L 106.897 195.444"/><circle r = "5" cx = "152.18596" cy = "149.99998"/><path d = "M 122.227 159.762 L 122.228 159.799"/><path d = "M 122.223 159.727 L 122.227 159.762"/><path d = "M 122.228 159.799 L 122.227 159.846"/><path d = "M 122.217 159.694 L 122.223 159.727"/><path d = "M 122.227 159.846 L 122.224 159.894"/><path d = "M 122.208 159.661 L 122.217 159.694"/><path d = "M 122.224 159.894 L 122.218 159.943"/><path d = "M 122.196 159.63 L 122.208 159.661"/><path d = "M 122.218 159.943 L 122.21 159.993"/><path d = "M 122.182 159.599 L 122.196 159.63"/><path d = "M 122.21 159.993 L 122.199 160.043"/><path d = "M 122.166 159.57 L 122.182 159.599"/><path d = "M 122.199 160.043 L 122.187 160.094"/><path d = "M 122.147 159.542 L 122.166 159.57"/><path d = "M 122.187 160.094 L 122.172 160.146"/><path d = "M 122.125 159.516 L 122.147 159.542"/><path d = "M 122.172 160.146 L 122.154 160.199"/><path d = "M 122.101 159.49 L 122.125 159.516"/><path d = "M 122.154 160.199 L 122.135 160.252"/><path d = "M 122.075 159.467 L 122.101 159.49"/><path d = "M 122.135 160.252 L 122.113 160.306"/><path d = "M 122.048 159.446 L 122.075 159.467"/><path d = "M 122.113 160.306 L 122.088 160.361"/><path d = "M 122.02 159.427 L 122.048 159.446"/><path d = "M 122.088 160.361 L 122.061 160.415"/><path d = "M 121.991 159.411 L 122.02 159.427"/><path d = "M 122.061 160.415 L 122.031 160.469"/><path d = "M 121.961 159.397 L 121.991 159.411"/><path d = "M 122.031 160.469 L 121.999 160.523"/><path d = "M 121.93 159.386 L 121.961 159.397"/><path d = "M 121.999 160.523 L 121.964 160.577"/><path d = "M 121.898 159.378 L 121.93 159.386"/><path d = "M 121.964 160.577 L 121.926 160.631"/><path d = "M 121.865 159.371 L 121.898 159.378"/><path d = "M 121.926 160.631 L 121.886 160.684"/><path d = "M 121.831 159.368 L 121.865 159.371"/><path d = "M 121.886 160.684 L 121.843 160.737"/><path d = "M 121.796 159.366 L 121.831 159.368"/><path d = "M 121.843 160.737 L 121.797 160.79"/><path d = "M 121.756 159.368 L 121.796 159.366"/><path d = "M 121.797 160.79 L 121.749 160.843"/><path d = "M 121.717 159.371 L 121.756 159.368"/><path d = "M 121.749 160.843 L 121.698 160.894"/><path d = "M 121.682 159.377 L 121.717 159.371"/><path d = "M 121.698 160.894 L 121.644 160.944"/><path d = "M 121.648 159.386 L 121.682 159.377"/><path d = "M 121.644 160.944 L 121.588 160.991"/><path d = "M 121.617 159.397 L 121.648 159.386"/><path d = "M 121.588 160.991 L 121.529 161.037"/><path d = "M 121.588 159.411 L 121.617 159.397"/><path d = "M 121.529 161.037 L 121.467 161.081"/><path d = "M 121.561 159.426 L 121.588 159.411"/><path d = "M 121.467 161.081 L 121.402 161.123"/><path d = "M 121.537 159.445 L 121.561 159.426"/><path d = "M 121.402 161.123 L 121.335 161.162"/><path d = "M 121.514 159.466 L 121.537 159.445"/><path d = "M 121.335 161.162 L 121.264 161.2"/><path d = "M 121.494 159.489 L 121.514 159.466"/><path d = "M 121.264 161.2 L 121.191 161.236"/><path d = "M 121.476 159.514 L 121.494 159.489"/><path d = "M 121.191 161.236 L 121.116 161.27"/><path d = "M 121.458 159.541 L 121.476 159.514"/><path d = "M 121.116 161.27 L 121.037 161.301"/><path d = "M 121.441 159.569 L 121.458 159.541"/><path d = "M 121.037 161.301 L 120.957 161.329"/><path d = "M 121.424 159.598 L 121.441 159.569"/><path d = "M 120.957 161.329 L 120.873 161.354"/><path d = "M 121.408 159.629 L 121.424 159.598"/><path d = "M 120.873 161.354 L 120.787 161.375"/><path d = "M 121.393 159.661 L 121.408 159.629"/><path d = "M 120.787 161.375 L 120.699 161.393"/><path d = "M 121.378 159.695 L 121.393 159.661"/><path d = "M 120.699 161.393 L 120.608 161.408"/><path d = "M 121.364 159.731 L 121.378 159.695"/><path d = "M 120.608 161.408 L 120.514 161.419"/><path d = "M 121.35 159.767 L 121.364 159.731"/><path d = "M 120.514 161.419 L 120.418 161.427"/><path d = "M 121.337 159.805 L 121.35 159.767"/><path d = "M 120.418 161.427 L 120.319 161.432"/><path d = "M 121.305 159.886 L 121.337 159.805"/><path d = "M 120.319 161.432 L 120.218 161.434"/><path d = "M 121.271 159.962 L 121.305 159.886"/><path d = "M 120.218 161.434 L 120.141 161.433"/><path d = "M 121.233 160.035 L 121.271 159.962"/><path d = "M 120.141 161.433 L 120.065 161.431"/><path d = "M 121.193 160.103 L 121.233 160.035"/><path d = "M 120.065 161.431 L 119.991 161.427"/><path d = "M 121.15 160.168 L 121.193 160.103"/><path d = "M 119.991 161.427 L 119.918 161.422"/><path d = "M 121.104 160.228 L 121.15 160.168"/><path d = "M 119.918 161.422 L 119.847 161.416"/><path d = "M 121.054 160.285 L 121.104 160.228"/><path d = "M 119.847 161.416 L 119.777 161.407"/><path d = "M 121.002 160.337 L 121.054 160.285"/><path d = "M 119.777 161.407 L 119.708 161.398"/><path d = "M 120.947 160.386 L 121.002 160.337"/><path d = "M 119.708 161.398 L 119.641 161.387"/><path d = "M 120.89 160.43 L 120.947 160.386"/><path d = "M 119.641 161.387 L 119.575 161.374"/><path d = "M 120.829 160.471 L 120.89 160.43"/><path d = "M 119.575 161.374 L 119.511 161.36"/><path d = "M 120.766 160.507 L 120.829 160.471"/><path d = "M 119.511 161.36 L 119.448 161.345"/><path d = "M 120.7 160.539 L 120.766 160.507"/><path d = "M 119.448 161.345 L 119.386 161.328"/><path d = "M 120.631 160.567 L 120.7 160.539"/><path d = "M 119.386 161.328 L 119.325 161.309"/><path d = "M 120.56 160.59 L 120.631 160.567"/><path d = "M 119.325 161.309 L 119.265 161.288"/><path d = "M 120.486 160.609 L 120.56 160.59"/><path d = "M 119.265 161.288 L 119.207 161.266"/><path d = "M 120.41 160.624 L 120.486 160.609"/><path d = "M 119.207 161.266 L 119.15 161.242"/><path d = "M 120.33 160.635 L 120.41 160.624"/><path d = "M 119.15 161.242 L 119.094 161.217"/><path d = "M 120.249 160.641 L 120.33 160.635"/><path d = "M 119.094 161.217 L 119.039 161.19"/><path d = "M 120.164 160.643 L 120.249 160.641"/><path d = "M 119.039 161.19 L 118.985 161.161"/><path d = "M 120.086 160.641 L 120.164 160.643"/><path d = "M 118.985 161.161 L 118.933 161.131"/><path d = "M 120.01 160.636 L 120.086 160.641"/><path d = "M 118.933 161.131 L 118.881 161.099"/><path d = "M 119.936 160.626 L 120.01 160.636"/><path d = "M 118.881 161.099 L 118.83 161.064"/><path d = "M 119.864 160.613 L 119.936 160.626"/><path d = "M 118.83 161.064 L 118.781 161.028"/><path d = "M 119.794 160.596 L 119.864 160.613"/><path d = "M 118.781 161.028 L 118.732 160.99"/><path d = "M 119.726 160.576 L 119.794 160.596"/><path d = "M 118.732 160.99 L 118.683 160.95"/><path d = "M 119.66 160.551 L 119.726 160.576"/><path d = "M 118.683 160.95 L 118.636 160.908"/><path d = "M 119.596 160.523 L 119.66 160.551"/><path d = "M 118.636 160.908 L 118.59 160.864"/><path d = "M 119.534 160.491 L 119.596 160.523"/><path d = "M 118.59 160.864 L 118.544 160.818"/><path d = "M 119.474 160.456 L 119.534 160.491"/><path d = "M 118.544 160.818 L 118.499 160.77"/><path d = "M 119.416 160.416 L 119.474 160.456"/><path d = "M 118.499 160.77 L 118.455 160.72"/><path d = "M 119.361 160.373 L 119.416 160.416"/><path d = "M 118.455 160.72 L 118.417 160.673"/><path d = "M 119.309 160.326 L 119.361 160.373"/><path d = "M 118.417 160.673 L 118.38 160.626"/><path d = "M 119.259 160.275 L 119.309 160.326"/><path d = "M 118.38 160.626 L 118.344 160.577"/><path d = "M 119.212 160.22 L 119.259 160.275"/><path d = "M 118.344 160.577 L 118.309 160.526"/><path d = "M 119.168 160.161 L 119.212 160.22"/><path d = "M 118.309 160.526 L 118.275 160.475"/><path d = "M 119.127 160.098 L 119.168 160.161"/><path d = "M 118.275 160.475 L 118.242 160.423"/><path d = "M 119.088 160.032 L 119.127 160.098"/><path d = "M 118.242 160.423 L 118.211 160.369"/><path d = "M 119.052 159.962 L 119.088 160.032"/><path d = "M 118.211 160.369 L 118.181 160.315"/><path d = "M 119.018 159.888 L 119.052 159.962"/><path d = "M 118.181 160.315 L 118.151 160.259"/><path d = "M 118.988 159.81 L 119.018 159.888"/><path d = "M 118.151 160.259 L 118.123 160.203"/><path d = "M 118.96 159.728 L 118.988 159.81"/><path d = "M 118.123 160.203 L 118.097 160.145"/><path d = "M 118.936 159.642 L 118.96 159.728"/><path d = "M 118.097 160.145 L 118.071 160.086"/><path d = "M 118.915 159.552 L 118.936 159.642"/><path d = "M 118.071 160.086 L 118.047 160.027"/><path d = "M 118.897 159.459 L 118.915 159.552"/><path d = "M 118.047 160.027 L 118.024 159.967"/><path d = "M 118.883 159.362 L 118.897 159.459"/><path d = "M 118.024 159.967 L 118.003 159.906"/><path d = "M 118.872 159.261 L 118.883 159.362"/><path d = "M 118.003 159.906 L 117.983 159.845"/><path d = "M 118.864 159.156 L 118.872 159.261"/><path d = "M 117.983 159.845 L 117.965 159.783"/><path d = "M 118.859 159.047 L 118.864 159.156"/><path d = "M 117.965 159.783 L 117.948 159.719"/><path d = "M 118.857 158.934 L 118.859 159.047"/><path d = "M 117.948 159.719 L 117.932 159.656"/><path d = "M 118.861 158.767 L 118.857 158.934"/><path d = "M 117.932 159.656 L 117.917 159.591"/><path d = "M 118.872 158.607 L 118.861 158.767"/><path d = "M 117.917 159.591 L 117.904 159.526"/><path d = "M 118.89 158.455 L 118.872 158.607"/><path d = "M 117.904 159.526 L 117.893 159.459"/><path d = "M 118.915 158.311 L 118.89 158.455"/><path d = "M 117.893 159.459 L 117.882 159.392"/><path d = "M 118.948 158.174 L 118.915 158.311"/><path d = "M 117.882 159.392 L 117.873 159.325"/><path d = "M 118.988 158.046 L 118.948 158.174"/><path d = "M 117.873 159.325 L 117.866 159.256"/><path d = "M 119.035 157.925 L 118.988 158.046"/><path d = "M 117.866 159.256 L 117.86 159.186"/><path d = "M 119.09 157.813 L 119.035 157.925"/><path d = "M 117.86 159.186 L 117.855 159.116"/><path d = "M 119.152 157.708 L 119.09 157.813"/><path d = "M 117.855 159.116 L 117.851 159.045"/><path d = "M 119.221 157.611 L 119.152 157.708"/><path d = "M 117.851 159.045 L 117.849 158.973"/><path d = "M 119.296 157.522 L 119.221 157.611"/><path d = "M 117.849 158.973 L 117.849 158.901"/><path d = "M 119.376 157.443 L 119.296 157.522"/><path d = "M 117.849 158.901 L 117.85 158.783"/><path d = "M 119.461 157.373 L 119.376 157.443"/><path d = "M 117.85 158.783 L 117.856 158.668"/><path d = "M 119.552 157.312 L 119.461 157.373"/><path d = "M 117.856 158.668 L 117.864 158.556"/><path d = "M 119.647 157.261 L 119.552 157.312"/><path d = "M 117.864 158.556 L 117.876 158.446"/><path d = "M 119.747 157.219 L 119.647 157.261"/><path d = "M 117.876 158.446 L 117.892 158.339"/><path d = "M 119.852 157.187 L 119.747 157.219"/><path d = "M 117.892 158.339 L 117.911 158.234"/><path d = "M 119.962 157.163 L 119.852 157.187"/><path d = "M 117.911 158.234 L 117.933 158.131"/><path d = "M 120.077 157.149 L 119.962 157.163"/><path d = "M 117.933 158.131 L 117.959 158.031"/><path d = "M 120.198 157.145 L 120.077 157.149"/><path d = "M 117.959 158.031 L 117.988 157.934"/><path d = "M 120.273 157.147 L 120.198 157.145"/><path d = "M 117.988 157.934 L 118.021 157.838"/><path d = "M 120.347 157.152 L 120.273 157.147"/><path d = "M 118.021 157.838 L 118.057 157.746"/><path d = "M 120.418 157.161 L 120.347 157.152"/><path d = "M 118.057 157.746 L 118.096 157.656"/><path d = "M 120.486 157.174 L 120.418 157.161"/><path d = "M 118.096 157.656 L 118.138 157.569"/><path d = "M 120.552 157.19 L 120.486 157.174"/><path d = "M 118.138 157.569 L 118.183 157.485"/><path d = "M 120.616 157.21 L 120.552 157.19"/><path d = "M 118.183 157.485 L 118.231 157.403"/><path d = "M 120.677 157.233 L 120.616 157.21"/><path d = "M 118.231 157.403 L 118.282 157.324"/><path d = "M 120.736 157.261 L 120.677 157.233"/><path d = "M 118.282 157.324 L 118.336 157.248"/><path d = "M 120.792 157.291 L 120.736 157.261"/><path d = "M 118.336 157.248 L 118.393 157.175"/><path d = "M 120.846 157.326 L 120.792 157.291"/><path d = "M 118.393 157.175 L 118.453 157.104"/><path d = "M 120.898 157.364 L 120.846 157.326"/><path d = "M 118.453 157.104 L 118.515 157.036"/><path d = "M 120.949 157.406 L 120.898 157.364"/><path d = "M 118.515 157.036 L 118.581 156.971"/><path d = "M 120.998 157.451 L 120.949 157.406"/><path d = "M 118.581 156.971 L 118.649 156.909"/><path d = "M 121.045 157.5 L 120.998 157.451"/><path d = "M 118.649 156.909 L 118.718 156.85"/><path d = "M 121.092 157.553 L 121.045 157.5"/><path d = "M 118.718 156.85 L 118.791 156.795"/><path d = "M 121.137 157.609 L 121.092 157.553"/><path d = "M 118.791 156.795 L 118.865 156.742"/><path d = "M 121.181 157.669 L 121.137 157.609"/><path d = "M 118.865 156.742 L 118.941 156.693"/><path d = "M 121.223 157.733 L 121.181 157.669"/><path d = "M 118.941 156.693 L 119.02 156.647"/><path d = "M 121.264 157.801 L 121.223 157.733"/><path d = "M 119.02 156.647 L 119.101 156.604"/><path d = "M 121.303 157.872 L 121.264 157.801"/><path d = "M 119.101 156.604 L 119.184 156.565"/><path d = "M 121.327 157.915 L 121.303 157.872"/><path d = "M 119.184 156.565 L 119.269 156.528"/><path d = "M 121.349 157.955 L 121.327 157.915"/><path d = "M 119.269 156.528 L 119.356 156.495"/><path d = "M 121.372 157.993 L 121.349 157.955"/><path d = "M 119.356 156.495 L 119.445 156.466"/><path d = "M 121.394 158.028 L 121.372 157.993"/><path d = "M 119.445 156.466 L 119.534 156.439"/><path d = "M 121.415 158.06 L 121.394 158.028"/><path d = "M 119.534 156.439 L 119.624 156.417"/><path d = "M 121.436 158.09 L 121.415 158.06"/><path d = "M 119.624 156.417 L 119.716 156.398"/><path d = "M 121.457 158.118 L 121.436 158.09"/><path d = "M 119.716 156.398 L 119.809 156.382"/><path d = "M 121.477 158.142 L 121.457 158.118"/><path d = "M 119.809 156.382 L 119.903 156.37"/><path d = "M 121.497 158.164 L 121.477 158.142"/><path d = "M 119.903 156.37 L 119.998 156.361"/><path d = "M 121.516 158.184 L 121.497 158.164"/><path d = "M 119.998 156.361 L 120.094 156.356"/><path d = "M 121.536 158.201 L 121.516 158.184"/><path d = "M 120.094 156.356 L 120.191 156.354"/><path d = "M 121.558 158.216 L 121.536 158.201"/><path d = "M 120.191 156.354 L 120.309 156.356"/><path d = "M 121.582 158.23 L 121.558 158.216"/><path d = "M 120.309 156.356 L 120.424 156.364"/><path d = "M 121.608 158.242 L 121.582 158.23"/><path d = "M 120.424 156.364 L 120.537 156.375"/><path d = "M 121.636 158.251 L 121.608 158.242"/><path d = "M 120.537 156.375 L 120.647 156.392"/><path d = "M 121.665 158.26 L 121.636 158.251"/><path d = "M 120.647 156.392 L 120.755 156.413"/><path d = "M 121.697 158.266 L 121.665 158.26"/><path d = "M 120.755 156.413 L 120.86 156.44"/><path d = "M 121.73 158.27 L 121.697 158.266"/><path d = "M 120.86 156.44 L 120.962 156.471"/><path d = "M 121.765 158.273 L 121.73 158.27"/><path d = "M 120.962 156.471 L 121.062 156.506"/><path d = "M 121.803 158.274 L 121.765 158.273"/><path d = "M 121.062 156.506 L 121.159 156.547"/><path d = "M 121.836 158.273 L 121.803 158.274"/><path d = "M 121.159 156.547 L 121.253 156.592"/><path d = "M 121.869 158.269 L 121.836 158.273"/><path d = "M 121.253 156.592 L 121.344 156.641"/><path d = "M 121.901 158.262 L 121.869 158.269"/><path d = "M 121.344 156.641 L 121.431 156.692"/><path d = "M 121.931 158.253 L 121.901 158.262"/><path d = "M 121.431 156.692 L 121.513 156.745"/><path d = "M 121.961 158.241 L 121.931 158.253"/><path d = "M 121.513 156.745 L 121.591 156.8"/><path d = "M 121.99 158.227 L 121.961 158.241"/><path d = "M 121.591 156.8 L 121.665 156.858"/><path d = "M 122.017 158.21 L 121.99 158.227"/><path d = "M 121.665 156.858 L 121.734 156.918"/><path d = "M 122.044 158.19 L 122.017 158.21"/><path d = "M 121.734 156.918 L 121.799 156.98"/><path d = "M 122.07 158.168 L 122.044 158.19"/><path d = "M 121.799 156.98 L 121.859 157.044"/><path d = "M 122.094 158.143 L 122.07 158.168"/><path d = "M 121.859 157.044 L 121.915 157.111"/><path d = "M 122.117 158.117 L 122.094 158.143"/><path d = "M 121.915 157.111 L 121.967 157.18"/><path d = "M 122.138 158.089 L 122.117 158.117"/><path d = "M 121.967 157.18 L 122.014 157.25"/><path d = "M 122.156 158.061 L 122.138 158.089"/><path d = "M 122.014 157.25 L 122.056 157.319"/><path d = "M 122.171 158.032 L 122.156 158.061"/><path d = "M 122.056 157.319 L 122.093 157.387"/><path d = "M 122.185 158.003 L 122.171 158.032"/><path d = "M 122.093 157.387 L 122.126 157.454"/><path d = "M 122.196 157.972 L 122.185 158.003"/><path d = "M 122.126 157.454 L 122.153 157.521"/><path d = "M 122.204 157.941 L 122.196 157.972"/><path d = "M 122.153 157.521 L 122.175 157.586"/><path d = "M 122.21 157.909 L 122.204 157.941"/><path d = "M 122.175 157.586 L 122.193 157.651"/><path d = "M 122.214 157.876 L 122.21 157.909"/><path d = "M 122.193 157.651 L 122.205 157.716"/><path d = "M 122.215 157.842 L 122.214 157.876"/><path d = "M 122.205 157.716 L 122.212 157.779"/><path d = "M 122.212 157.779 L 122.215 157.842"/><path d = "M 175.205 175.043 L 175.129 175.043"/><path d = "M 175.28 175.042 L 175.205 175.043"/><path d = "M 175.129 175.043 L 173.627 175.043"/><path d = "M 175.353 175.04 L 175.28 175.042"/><path d = "M 173.627 175.043 L 173.564 175.042"/><path d = "M 175.424 175.037 L 175.353 175.04"/><path d = "M 173.564 175.042 L 173.505 175.038"/><path d = "M 175.493 175.034 L 175.424 175.037"/><path d = "M 173.505 175.038 L 173.449 175.03"/><path d = "M 175.56 175.03 L 175.493 175.034"/><path d = "M 173.449 175.03 L 173.397 175.02"/><path d = "M 175.625 175.025 L 175.56 175.03"/><path d = "M 173.397 175.02 L 173.349 175.007"/><path d = "M 175.688 175.019 L 175.625 175.025"/><path d = "M 173.349 175.007 L 173.304 174.991"/><path d = "M 175.75 175.012 L 175.688 175.019"/><path d = "M 173.304 174.991 L 173.263 174.972"/><path d = "M 175.809 175.005 L 175.75 175.012"/><path d = "M 173.263 174.972 L 173.226 174.95"/><path d = "M 175.867 174.997 L 175.809 175.005"/><path d = "M 173.226 174.95 L 173.193 174.925"/><path d = "M 175.923 174.987 L 175.867 174.997"/><path d = "M 173.193 174.925 L 173.163 174.898"/><path d = "M 175.978 174.977 L 175.923 174.987"/><path d = "M 173.163 174.898 L 173.137 174.867"/><path d = "M 176.031 174.965 L 175.978 174.977"/><path d = "M 173.137 174.867 L 173.113 174.833"/><path d = "M 176.084 174.953 L 176.031 174.965"/><path d = "M 173.113 174.833 L 173.092 174.795"/><path d = "M 176.135 174.939 L 176.084 174.953"/><path d = "M 173.092 174.795 L 173.074 174.754"/><path d = "M 176.184 174.924 L 176.135 174.939"/><path d = "M 173.074 174.754 L 173.059 174.709"/><path d = "M 176.232 174.908 L 176.184 174.924"/><path d = "M 173.059 174.709 L 173.046 174.661"/><path d = "M 176.279 174.891 L 176.232 174.908"/><path d = "M 173.046 174.661 L 173.037 174.609"/><path d = "M 176.325 174.873 L 176.279 174.891"/><path d = "M 173.037 174.609 L 173.03 174.554"/><path d = "M 176.395 174.839 L 176.325 174.873"/><path d = "M 173.03 174.554 L 173.026 174.496"/><path d = "M 176.462 174.803 L 176.395 174.839"/><path d = "M 173.026 174.496 L 173.024 174.434"/><path d = "M 176.527 174.763 L 176.462 174.803"/><path d = "M 173.024 174.434 L 173.024 170.741"/><path d = "M 176.588 174.719 L 176.527 174.763"/><path d = "M 173.024 170.741 L 173.026 170.678"/><path d = "M 176.647 174.672 L 176.588 174.719"/><path d = "M 173.026 170.678 L 173.03 170.618"/><path d = "M 176.702 174.621 L 176.647 174.672"/><path d = "M 173.03 170.618 L 173.037 170.562"/><path d = "M 176.755 174.568 L 176.702 174.621"/><path d = "M 173.037 170.562 L 173.047 170.51"/><path d = "M 176.804 174.51 L 176.755 174.568"/><path d = "M 173.047 170.51 L 173.06 170.462"/><path d = "M 176.851 174.449 L 176.804 174.51"/><path d = "M 173.06 170.462 L 173.076 170.417"/><path d = "M 176.895 174.385 L 176.851 174.449"/><path d = "M 173.076 170.417 L 173.094 170.375"/><path d = "M 176.935 174.318 L 176.895 174.385"/><path d = "M 173.094 170.375 L 173.115 170.338"/><path d = "M 176.971 174.25 L 176.935 174.318"/><path d = "M 173.115 170.338 L 173.14 170.304"/><path d = "M 177.002 174.18 L 176.971 174.25"/><path d = "M 173.14 170.304 L 173.167 170.273"/><path d = "M 177.03 174.108 L 177.002 174.18"/><path d = "M 173.167 170.273 L 173.197 170.246"/><path d = "M 177.053 174.034 L 177.03 174.108"/><path d = "M 173.197 170.246 L 173.231 170.222"/><path d = "M 177.072 173.959 L 177.053 174.034"/><path d = "M 173.231 170.222 L 173.268 170.201"/><path d = "M 177.087 173.883 L 177.072 173.959"/><path d = "M 173.268 170.201 L 173.309 170.182"/><path d = "M 177.097 173.804 L 177.087 173.883"/><path d = "M 173.309 170.182 L 173.353 170.167"/><path d = "M 177.104 173.724 L 177.097 173.804"/><path d = "M 173.353 170.167 L 173.401 170.154"/><path d = "M 177.106 173.643 L 177.104 173.724"/><path d = "M 173.401 170.154 L 173.452 170.144"/><path d = "M 177.096 173.47 L 177.106 173.643"/><path d = "M 173.452 170.144 L 173.507 170.137"/><path d = "M 177.067 173.31 L 177.096 173.47"/><path d = "M 173.507 170.137 L 173.566 170.132"/><path d = "M 177.019 173.16 L 177.067 173.31"/><path d = "M 173.566 170.132 L 173.627 170.131"/><path d = "M 176.951 173.023 L 177.019 173.16"/><path d = "M 173.627 170.131 L 175.219 170.131"/><path d = "M 176.864 172.897 L 176.951 173.023"/><path d = "M 175.219 170.131 L 175.289 170.131"/><path d = "M 176.757 172.783 L 176.864 172.897"/><path d = "M 175.289 170.131 L 175.356 170.133"/><path d = "M 176.631 172.681 L 176.757 172.783"/><path d = "M 175.356 170.133 L 175.422 170.135"/><path d = "M 176.486 172.59 L 176.631 172.681"/><path d = "M 175.422 170.135 L 175.486 170.138"/><path d = "M 176.321 172.511 L 176.486 172.59"/><path d = "M 175.486 170.138 L 175.548 170.142"/><path d = "M 176.137 172.443 L 176.321 172.511"/><path d = "M 175.548 170.142 L 175.608 170.147"/><path d = "M 176.277 172.371 L 176.137 172.443"/><path d = "M 175.608 170.147 L 175.666 170.152"/><path d = "M 176.403 172.291 L 176.277 172.371"/><path d = "M 175.666 170.152 L 175.722 170.159"/><path d = "M 176.513 172.203 L 176.403 172.291"/><path d = "M 175.722 170.159 L 175.776 170.166"/><path d = "M 176.609 172.106 L 176.513 172.203"/><path d = "M 175.776 170.166 L 175.829 170.175"/><path d = "M 176.69 172.003 L 176.609 172.106"/><path d = "M 175.829 170.175 L 175.88 170.184"/><path d = "M 176.757 171.891 L 176.69 172.003"/><path d = "M 175.88 170.184 L 175.93 170.195"/><path d = "M 176.808 171.771 L 176.757 171.891"/><path d = "M 175.93 170.195 L 175.979 170.208"/><path d = "M 176.845 171.643 L 176.808 171.771"/><path d = "M 175.979 170.208 L 176.027 170.222"/><path d = "M 176.867 171.508 L 176.845 171.643"/><path d = "M 176.027 170.222 L 176.074 170.238"/><path d = "M 176.874 171.364 L 176.867 171.508"/><path d = "M 176.074 170.238 L 176.119 170.256"/><path d = "M 176.874 171.322 L 176.874 171.364"/><path d = "M 176.119 170.256 L 176.164 170.275"/><path d = "M 176.872 171.279 L 176.874 171.322"/><path d = "M 176.164 170.275 L 176.208 170.296"/><path d = "M 176.868 171.237 L 176.872 171.279"/><path d = "M 176.208 170.296 L 176.25 170.318"/><path d = "M 176.863 171.196 L 176.868 171.237"/><path d = "M 176.25 170.318 L 176.291 170.342"/><path d = "M 176.857 171.155 L 176.863 171.196"/><path d = "M 176.291 170.342 L 176.326 170.363"/><path d = "M 176.849 171.115 L 176.857 171.155"/><path d = "M 176.326 170.363 L 176.359 170.386"/><path d = "M 176.84 171.075 L 176.849 171.115"/><path d = "M 176.359 170.386 L 176.392 170.409"/><path d = "M 176.829 171.035 L 176.84 171.075"/><path d = "M 176.392 170.409 L 176.424 170.434"/><path d = "M 176.817 170.996 L 176.829 171.035"/><path d = "M 176.424 170.434 L 176.456 170.46"/><path d = "M 176.804 170.957 L 176.817 170.996"/><path d = "M 176.456 170.46 L 176.486 170.487"/><path d = "M 176.789 170.919 L 176.804 170.957"/><path d = "M 176.486 170.487 L 176.516 170.515"/><path d = "M 176.773 170.881 L 176.789 170.919"/><path d = "M 176.516 170.515 L 176.544 170.544"/><path d = "M 176.756 170.844 L 176.773 170.881"/><path d = "M 176.544 170.544 L 176.572 170.574"/><path d = "M 176.738 170.808 L 176.756 170.844"/><path d = "M 176.572 170.574 L 176.6 170.605"/><path d = "M 176.718 170.773 L 176.738 170.808"/><path d = "M 176.6 170.605 L 176.626 170.637"/><path d = "M 176.697 170.738 L 176.718 170.773"/><path d = "M 176.626 170.637 L 176.651 170.67"/><path d = "M 176.674 170.704 L 176.697 170.738"/><path d = "M 176.651 170.67 L 176.674 170.704"/><path d = "M 80.9791 138.872 L 80.976 138.741"/><path d = "M 80.9884 138.996 L 80.9791 138.872"/><path d = "M 80.976 138.741 L 80.976 131.118"/><path d = "M 81.0039 139.114 L 80.9884 138.996"/><path d = "M 80.976 131.118 L 80.5644 131.428"/><path d = "M 81.0256 139.225 L 81.0039 139.114"/><path d = "M 80.5644 131.428 L 80.1805 131.706"/><path d = "M 81.0535 139.33 L 81.0256 139.225"/><path d = "M 80.1805 131.706 L 79.8245 131.951"/><path d = "M 81.0876 139.428 L 81.0535 139.33"/><path d = "M 79.8245 131.951 L 79.4963 132.164"/><path d = "M 81.1279 139.52 L 81.0876 139.428"/><path d = "M 79.4963 132.164 L 79.1958 132.343"/><path d = "M 81.1744 139.605 L 81.1279 139.52"/><path d = "M 79.1958 132.343 L 78.9232 132.49"/><path d = "M 81.2271 139.683 L 81.1744 139.605"/><path d = "M 78.9232 132.49 L 78.6785 132.605"/><path d = "M 81.286 139.755 L 81.2271 139.683"/><path d = "M 78.6785 132.605 L 78.4615 132.686"/><path d = "M 81.35 139.82 L 81.286 139.755"/><path d = "M 78.4615 132.686 L 78.2723 132.735"/><path d = "M 81.418 139.879 L 81.35 139.82"/><path d = "M 78.2723 132.735 L 78.111 132.752"/><path d = "M 81.4901 139.93 L 81.418 139.879"/><path d = "M 78.111 132.752 L 78.0414 132.749"/><path d = "M 81.5661 139.975 L 81.4901 139.93"/><path d = "M 78.0414 132.749 L 77.9734 132.74"/><path d = "M 81.6462 140.013 L 81.5661 139.975"/><path d = "M 77.9734 132.74 L 77.907 132.726"/><path d = "M 81.7303 140.044 L 81.6462 140.013"/><path d = "M 77.907 132.726 L 77.8422 132.707"/><path d = "M 81.8184 140.068 L 81.7303 140.044"/><path d = "M 77.8422 132.707 L 77.779 132.681"/><path d = "M 81.9106 140.085 L 81.8184 140.068"/><path d = "M 77.779 132.681 L 77.7174 132.651"/><path d = "M 82.0068 140.095 L 81.9106 140.085"/><path d = "M 77.7174 132.651 L 77.6574 132.614"/><path d = "M 82.1069 140.099 L 82.0068 140.095"/><path d = "M 77.6574 132.614 L 77.5989 132.572"/><path d = "M 82.325 140.082 L 82.1069 140.099"/><path d = "M 77.5989 132.572 L 77.5421 132.524"/><path d = "M 82.5201 140.031 L 82.325 140.082"/><path d = "M 77.5421 132.524 L 77.4869 132.471"/><path d = "M 82.6923 139.947 L 82.5201 140.031"/><path d = "M 77.4869 132.471 L 77.4352 132.414"/><path d = "M 82.8415 139.829 L 82.6923 139.947"/><path d = "M 77.4352 132.414 L 77.3888 132.355"/><path d = "M 82.9677 139.678 L 82.8415 139.829"/><path d = "M 77.3888 132.355 L 77.348 132.295"/><path d = "M 83.071 139.492 L 82.9677 139.678"/><path d = "M 77.348 132.295 L 77.3126 132.232"/><path d = "M 83.1513 139.273 L 83.071 139.492"/><path d = "M 77.3126 132.232 L 77.2827 132.168"/><path d = "M 83.2087 139.021 L 83.1513 139.273"/><path d = "M 77.2827 132.168 L 77.2582 132.103"/><path d = "M 83.2432 138.735 L 83.2087 139.021"/><path d = "M 77.2582 132.103 L 77.2391 132.035"/><path d = "M 83.2546 138.415 L 83.2432 138.735"/><path d = "M 77.2391 132.035 L 77.2255 131.966"/><path d = "M 83.2546 128.823 L 83.2546 138.415"/><path d = "M 77.2255 131.966 L 77.2173 131.895"/><path d = "M 83.252 128.705 L 83.2546 128.823"/><path d = "M 77.2173 131.895 L 77.2146 131.822"/><path d = "M 83.2439 128.592 L 83.252 128.705"/><path d = "M 77.2146 131.822 L 77.2173 131.739"/><path d = "M 83.2305 128.484 L 83.2439 128.592"/><path d = "M 77.2173 131.739 L 77.2253 131.66"/><path d = "M 83.2117 128.382 L 83.2305 128.484"/><path d = "M 77.2253 131.66 L 77.2387 131.586"/><path d = "M 83.1876 128.284 L 83.2117 128.382"/><path d = "M 77.2387 131.586 L 77.2575 131.516"/><path d = "M 83.1581 128.192 L 83.1876 128.284"/><path d = "M 77.2575 131.516 L 77.2816 131.451"/><path d = "M 83.1233 128.105 L 83.1581 128.192"/><path d = "M 77.2816 131.451 L 77.3111 131.39"/><path d = "M 83.0831 128.024 L 83.1233 128.105"/><path d = "M 77.3111 131.39 L 77.346 131.334"/><path d = "M 83.0375 127.947 L 83.0831 128.024"/><path d = "M 77.346 131.334 L 77.3862 131.283"/><path d = "M 82.9866 127.876 L 83.0375 127.947"/><path d = "M 77.3862 131.283 L 77.4317 131.236"/><path d = "M 82.9312 127.811 L 82.9866 127.876"/><path d = "M 77.4317 131.236 L 77.4827 131.193"/><path d = "M 82.8723 127.752 L 82.9312 127.811"/><path d = "M 77.4827 131.193 L 77.5404 131.152"/><path d = "M 82.8099 127.701 L 82.8723 127.752"/><path d = "M 77.5404 131.152 L 77.6063 131.108"/><path d = "M 82.744 127.656 L 82.8099 127.701"/><path d = "M 77.6063 131.108 L 77.6805 131.062"/><path d = "M 82.6745 127.618 L 82.744 127.656"/><path d = "M 77.6805 131.062 L 77.7628 131.014"/><path d = "M 82.6016 127.587 L 82.6745 127.618"/><path d = "M 77.7628 131.014 L 77.8534 130.963"/><path d = "M 82.5251 127.563 L 82.6016 127.587"/><path d = "M 77.8534 130.963 L 77.9521 130.91"/><path d = "M 82.4451 127.546 L 82.5251 127.563"/><path d = "M 77.9521 130.91 L 78.0591 130.854"/><path d = "M 82.3615 127.536 L 82.4451 127.546"/><path d = "M 78.0591 130.854 L 78.1743 130.797"/><path d = "M 82.2745 127.533 L 82.3615 127.536"/><path d = "M 78.1743 130.797 L 78.2977 130.737"/><path d = "M 82.1982 127.534 L 82.2745 127.533"/><path d = "M 78.2977 130.737 L 78.4293 130.674"/><path d = "M 82.1271 127.539 L 82.1982 127.534"/><path d = "M 78.4293 130.674 L 78.628 130.578"/><path d = "M 82.0609 127.546 L 82.1271 127.539"/><path d = "M 78.628 130.578 L 78.8185 130.481"/><path d = "M 81.9997 127.557 L 82.0609 127.546"/><path d = "M 78.8185 130.481 L 79.0009 130.383"/><path d = "M 81.9436 127.57 L 81.9997 127.557"/><path d = "M 79.0009 130.383 L 79.1752 130.284"/><path d = "M 81.8925 127.587 L 81.9436 127.57"/><path d = "M 79.1752 130.284 L 79.3414 130.184"/><path d = "M 81.8464 127.606 L 81.8925 127.587"/><path d = "M 79.3414 130.184 L 79.4994 130.083"/><path d = "M 81.8054 127.629 L 81.8464 127.606"/><path d = "M 79.4994 130.083 L 79.6493 129.981"/><path d = "M 81.7693 127.655 L 81.8054 127.629"/><path d = "M 79.6493 129.981 L 79.7911 129.878"/><path d = "M 81.7383 127.683 L 81.7693 127.655"/><path d = "M 79.7911 129.878 L 79.9248 129.774"/><path d = "M 81.7066 127.719 L 81.7383 127.683"/><path d = "M 79.9248 129.774 L 80.0503 129.669"/><path d = "M 81.6683 127.764 L 81.7066 127.719"/><path d = "M 80.0503 129.669 L 80.1704 129.562"/><path d = "M 81.6235 127.819 L 81.6683 127.764"/><path d = "M 80.1704 129.562 L 80.2878 129.453"/><path d = "M 81.5721 127.884 L 81.6235 127.819"/><path d = "M 80.2878 129.453 L 80.4023 129.341"/><path d = "M 81.5143 127.96 L 81.5721 127.884"/><path d = "M 80.4023 129.341 L 80.5141 129.226"/><path d = "M 81.4499 128.045 L 81.5143 127.96"/><path d = "M 80.5141 129.226 L 80.6231 129.11"/><path d = "M 81.3789 128.141 L 81.4499 128.045"/><path d = "M 80.6231 129.11 L 80.7294 128.99"/><path d = "M 81.3014 128.246 L 81.3789 128.141"/><path d = "M 80.7294 128.99 L 80.8329 128.868"/><path d = "M 81.2174 128.362 L 81.3014 128.246"/><path d = "M 80.8329 128.868 L 80.9336 128.744"/><path d = "M 81.1268 128.488 L 81.2174 128.362"/><path d = "M 80.9336 128.744 L 81.0316 128.617"/><path d = "M 81.0316 128.617 L 81.1268 128.488"/><path d = "M 161.403 120.044 L 161.393 120.021"/><path d = "M 161.413 120.068 L 161.403 120.044"/><path d = "M 161.393 120.021 L 161.159 119.404"/><path d = "M 161.423 120.093 L 161.413 120.068"/><path d = "M 161.159 119.404 L 159.162 119.404"/><path d = "M 161.434 120.118 L 161.423 120.093"/><path d = "M 159.162 119.404 L 158.927 120.034"/><path d = "M 161.445 120.144 L 161.434 120.118"/><path d = "M 158.927 120.034 L 158.9 120.106"/><path d = "M 161.456 120.17 L 161.445 120.144"/><path d = "M 158.9 120.106 L 158.874 120.172"/><path d = "M 161.468 120.198 L 161.456 120.17"/><path d = "M 158.874 120.172 L 158.848 120.234"/><path d = "M 161.48 120.226 L 161.468 120.198"/><path d = "M 158.848 120.234 L 158.824 120.291"/><path d = "M 161.493 120.255 L 161.48 120.226"/><path d = "M 158.824 120.291 L 158.8 120.343"/><path d = "M 161.506 120.284 L 161.493 120.255"/><path d = "M 158.8 120.343 L 158.777 120.391"/><path d = "M 161.519 120.313 L 161.506 120.284"/><path d = "M 158.777 120.391 L 158.754 120.433"/><path d = "M 161.531 120.341 L 161.519 120.313"/><path d = "M 158.754 120.433 L 158.733 120.471"/><path d = "M 161.544 120.367 L 161.531 120.341"/><path d = "M 158.733 120.471 L 158.712 120.504"/><path d = "M 161.557 120.391 L 161.544 120.367"/><path d = "M 158.712 120.504 L 158.693 120.532"/><path d = "M 161.581 120.435 L 161.557 120.391"/><path d = "M 158.693 120.532 L 158.672 120.557"/><path d = "M 161.605 120.473 L 161.581 120.435"/><path d = "M 158.672 120.557 L 158.649 120.578"/><path d = "M 161.628 120.505 L 161.605 120.473"/><path d = "M 158.649 120.578 L 158.623 120.598"/><path d = "M 161.652 120.533 L 161.628 120.505"/><path d = "M 158.623 120.598 L 158.595 120.615"/><path d = "M 161.678 120.558 L 161.652 120.533"/><path d = "M 158.595 120.615 L 158.564 120.629"/><path d = "M 161.706 120.581 L 161.678 120.558"/><path d = "M 158.564 120.629 L 158.531 120.64"/><path d = "M 161.736 120.601 L 161.706 120.581"/><path d = "M 158.531 120.64 L 158.496 120.649"/><path d = "M 161.769 120.619 L 161.736 120.601"/><path d = "M 158.496 120.649 L 158.458 120.656"/><path d = "M 161.804 120.634 L 161.769 120.619"/><path d = "M 158.458 120.656 L 158.417 120.66"/><path d = "M 161.841 120.646 L 161.804 120.634"/><path d = "M 158.417 120.66 L 158.374 120.661"/><path d = "M 161.881 120.654 L 161.841 120.646"/><path d = "M 158.374 120.661 L 158.337 120.66"/><path d = "M 161.924 120.659 L 161.881 120.654"/><path d = "M 158.337 120.66 L 158.301 120.656"/><path d = "M 161.97 120.661 L 161.924 120.659"/><path d = "M 158.301 120.656 L 158.266 120.649"/><path d = "M 162.009 120.66 L 161.97 120.661"/><path d = "M 158.266 120.649 L 158.231 120.639"/><path d = "M 162.048 120.655 L 162.009 120.66"/><path d = "M 158.231 120.639 L 158.197 120.627"/><path d = "M 162.085 120.648 L 162.048 120.655"/><path d = "M 158.197 120.627 L 158.165 120.612"/><path d = "M 162.121 120.638 L 162.085 120.648"/><path d = "M 158.165 120.612 L 158.133 120.594"/><path d = "M 162.156 120.625 L 162.121 120.638"/><path d = "M 158.133 120.594 L 158.102 120.573"/><path d = "M 162.19 120.61 L 162.156 120.625"/><path d = "M 158.102 120.573 L 158.072 120.55"/><path d = "M 162.223 120.591 L 162.19 120.61"/><path d = "M 158.072 120.55 L 158.042 120.524"/><path d = "M 162.254 120.57 L 162.223 120.591"/><path d = "M 158.042 120.524 L 158.015 120.496"/><path d = "M 162.284 120.546 L 162.254 120.57"/><path d = "M 158.015 120.496 L 157.991 120.467"/><path d = "M 162.313 120.519 L 162.284 120.546"/><path d = "M 157.991 120.467 L 157.969 120.438"/><path d = "M 162.34 120.49 L 162.313 120.519"/><path d = "M 157.969 120.438 L 157.95 120.408"/><path d = "M 162.365 120.461 L 162.34 120.49"/><path d = "M 157.95 120.408 L 157.934 120.377"/><path d = "M 162.386 120.431 L 162.365 120.461"/><path d = "M 157.934 120.377 L 157.921 120.346"/><path d = "M 162.404 120.4 L 162.386 120.431"/><path d = "M 157.921 120.346 L 157.911 120.313"/><path d = "M 162.42 120.369 L 162.404 120.4"/><path d = "M 157.911 120.313 L 157.904 120.28"/><path d = "M 162.433 120.337 L 162.42 120.369"/><path d = "M 157.904 120.28 L 157.9 120.247"/><path d = "M 162.443 120.305 L 162.433 120.337"/><path d = "M 157.9 120.247 L 157.898 120.212"/><path d = "M 162.45 120.273 L 162.443 120.305"/><path d = "M 157.898 120.212 L 157.9 120.172"/><path d = "M 162.454 120.239 L 162.45 120.273"/><path d = "M 157.9 120.172 L 157.904 120.131"/><path d = "M 162.456 120.205 L 162.454 120.239"/><path d = "M 157.904 120.131 L 157.91 120.089"/><path d = "M 162.454 120.171 L 162.456 120.205"/><path d = "M 157.91 120.089 L 157.92 120.047"/><path d = "M 162.45 120.132 L 162.454 120.171"/><path d = "M 157.92 120.047 L 157.932 120.004"/><path d = "M 162.442 120.089 L 162.45 120.132"/><path d = "M 157.932 120.004 L 157.947 119.958"/><path d = "M 162.432 120.042 L 162.442 120.089"/><path d = "M 157.947 119.958 L 157.956 119.932"/><path d = "M 162.418 119.992 L 162.432 120.042"/><path d = "M 157.956 119.932 L 157.966 119.905"/><path d = "M 162.401 119.937 L 162.418 119.992"/><path d = "M 157.966 119.905 L 157.976 119.876"/><path d = "M 162.382 119.879 L 162.401 119.937"/><path d = "M 157.976 119.876 L 157.988 119.845"/><path d = "M 162.359 119.816 L 162.382 119.879"/><path d = "M 157.988 119.845 L 158 119.813"/><path d = "M 162.334 119.75 L 162.359 119.816"/><path d = "M 158 119.813 L 158.013 119.779"/><path d = "M 162.305 119.679 L 162.334 119.75"/><path d = "M 158.013 119.779 L 158.028 119.743"/><path d = "M 161.021 116.509 L 162.305 119.679"/><path d = "M 158.028 119.743 L 158.042 119.706"/><path d = "M 161.004 116.463 L 161.021 116.509"/><path d = "M 158.042 119.706 L 159.299 116.516"/><path d = "M 160.987 116.418 L 161.004 116.463"/><path d = "M 159.299 116.516 L 159.31 116.488"/><path d = "M 160.97 116.375 L 160.987 116.418"/><path d = "M 159.31 116.488 L 159.321 116.459"/><path d = "M 160.954 116.334 L 160.97 116.375"/><path d = "M 159.321 116.459 L 159.333 116.429"/><path d = "M 160.939 116.295 L 160.954 116.334"/><path d = "M 159.333 116.429 L 159.345 116.397"/><path d = "M 160.924 116.258 L 160.939 116.295"/><path d = "M 159.345 116.397 L 159.358 116.365"/><path d = "M 160.91 116.223 L 160.924 116.258"/><path d = "M 159.358 116.365 L 159.371 116.331"/><path d = "M 160.897 116.19 L 160.91 116.223"/><path d = "M 159.371 116.331 L 159.385 116.297"/><path d = "M 160.884 116.158 L 160.897 116.19"/><path d = "M 159.385 116.297 L 159.399 116.261"/><path d = "M 160.872 116.129 L 160.884 116.158"/><path d = "M 159.399 116.261 L 159.413 116.224"/><path d = "M 160.86 116.101 L 160.872 116.129"/><path d = "M 159.413 116.224 L 159.428 116.186"/><path d = "M 160.848 116.073 L 160.86 116.101"/><path d = "M 159.428 116.186 L 159.443 116.148"/><path d = "M 160.835 116.045 L 160.848 116.073"/><path d = "M 159.443 116.148 L 159.459 116.111"/><path d = "M 160.821 116.018 L 160.835 116.045"/><path d = "M 159.459 116.111 L 159.474 116.076"/><path d = "M 160.807 115.991 L 160.821 116.018"/><path d = "M 159.474 116.076 L 159.49 116.042"/><path d = "M 160.792 115.965 L 160.807 115.991"/><path d = "M 159.49 116.042 L 159.506 116.01"/><path d = "M 160.777 115.939 L 160.792 115.965"/><path d = "M 159.506 116.01 L 159.522 115.978"/><path d = "M 160.761 115.913 L 160.777 115.939"/><path d = "M 159.522 115.978 L 159.539 115.948"/><path d = "M 160.745 115.887 L 160.761 115.913"/><path d = "M 159.539 115.948 L 159.555 115.919"/><path d = "M 160.728 115.863 L 160.745 115.887"/><path d = "M 159.555 115.919 L 159.572 115.892"/><path d = "M 160.711 115.838 L 160.728 115.863"/><path d = "M 159.572 115.892 L 159.589 115.866"/><path d = "M 160.692 115.815 L 160.711 115.838"/><path d = "M 159.589 115.866 L 159.607 115.841"/><path d = "M 160.672 115.792 L 160.692 115.815"/><path d = "M 159.607 115.841 L 159.625 115.817"/><path d = "M 160.651 115.771 L 160.672 115.792"/><path d = "M 159.625 115.817 L 159.645 115.794"/><path d = "M 160.629 115.75 L 160.651 115.771"/><path d = "M 159.645 115.794 L 159.666 115.772"/><path d = "M 160.606 115.73 L 160.629 115.75"/><path d = "M 159.666 115.772 L 159.688 115.751"/><path d = "M 160.582 115.711 L 160.606 115.73"/><path d = "M 159.688 115.751 L 159.711 115.731"/><path d = "M 160.557 115.693 L 160.582 115.711"/><path d = "M 159.711 115.731 L 159.735 115.711"/><path d = "M 160.531 115.676 L 160.557 115.693"/><path d = "M 159.735 115.711 L 159.76 115.693"/><path d = "M 160.504 115.66 L 160.531 115.676"/><path d = "M 159.76 115.693 L 159.786 115.676"/><path d = "M 160.475 115.645 L 160.504 115.66"/><path d = "M 159.786 115.676 L 159.813 115.66"/><path d = "M 160.445 115.631 L 160.475 115.645"/><path d = "M 159.813 115.66 L 159.842 115.645"/><path d = "M 160.414 115.62 L 160.445 115.631"/><path d = "M 159.842 115.645 L 159.872 115.631"/><path d = "M 160.382 115.609 L 160.414 115.62"/><path d = "M 159.872 115.631 L 159.903 115.62"/><path d = "M 160.348 115.601 L 160.382 115.609"/><path d = "M 159.903 115.62 L 159.935 115.609"/><path d = "M 160.312 115.594 L 160.348 115.601"/><path d = "M 159.935 115.609 L 159.969 115.601"/><path d = "M 160.275 115.588 L 160.312 115.594"/><path d = "M 159.969 115.601 L 160.004 115.594"/><path d = "M 160.237 115.584 L 160.275 115.588"/><path d = "M 160.004 115.594 L 160.04 115.588"/><path d = "M 160.198 115.582 L 160.237 115.584"/><path d = "M 160.04 115.588 L 160.078 115.584"/><path d = "M 160.157 115.581 L 160.198 115.582"/><path d = "M 160.078 115.584 L 160.117 115.582"/><path d = "M 160.117 115.582 L 160.157 115.581"/><path d = "M 180.436 113.4 L 202.036 113.4"/><path d = "M 177.43596 110.39998 A 3 3 0 0 0 180.43596 113.39998"/><path d = "M 95.5644 125.129 L 106.364 143.835"/><path d = "M 105.26636 147.93285 A 3 3 0 0 0 106.36443 143.83476"/><path d = "M 158.957 211.471 L 169.757 192.765"/><path d = "M 173.85556 191.66711 A 3 3 0 0 0 169.75748 192.7652"/><path d = "M 170.436 93.4 L 174.436 93.4"/><path d = "M 177.43596 96.399979 A 3 3 0 0 0 174.43596 93.399979"/><path d = "M 170.43596 93.399979 A 3 3 0 0 0 167.43596 96.399979"/><path d = "M 177.436 110.4 L 177.436 96.4"/><path d = "M 105.266 147.933 L 93.142 154.933"/><path d = "M 93.141998 154.93283 A 3 3 0 0 0 92.043922 159.03091"/><path d = "M 92.0439 159.031 L 94.0439 162.495"/><path d = "M 94.043922 162.49503 A 3 3 0 0 0 98.141998 163.59311"/><path d = "M 173.856 191.667 L 185.98 198.667"/><path d = "M 185.97993 198.66711 A 3 3 0 0 0 190.078 197.56905"/><path d = "M 190.078 197.569 L 192.078 194.105"/><path d = "M 192.078 194.10495 A 3 3 0 0 0 190.97993 190.00687"/><path d = "M 98.142 163.593 L 118.927 151.593"/><path d = "M 170.195 178.007 L 190.98 190.007"/><path d = "M 167.436 96.4 L 167.436 120.4"/><path d = "M 87.185959 148.99998 A 3 3 0 1 0 93.185959 148.99998"/><path d = "M 87.186 131 L 87.186 149"/><path d = "M 93.185959 130.99998 A 3 3 0 1 0 87.185959 130.99998"/><path d = "M 93.186 149 L 93.186 131"/></g></svg>
