<?xml version='1.0' encoding='UTF-8' ?>
<!DOCTYPE svg PUBLIC "-//W3C//DTD SVG 1.1//EN" "http://www.w3.org/Graphics/SVG/1.1/DTD/svg11.dtd" [ 
 <!ATTLIST svg 
                                               xmlns:dsy CDATA #FIXED "http://www.3ds.com/print"  
                                               dsy:text-version CDATA #IMPLIED > 

                                               <!ATTLIST text 
                                               xmlns:dsy CDATA #FIXED "http://www.3ds.com/print" 
                                               dsy:text-version CDATA #IMPLIED > 
                                                ]>
<svg style = "background : rgb(255,255,255)" width = "300mm" xmlns = "http://www.w3.org/2000/svg" height = "300mm" version = "1.1" viewBox = "0 0 300 300" xmlns:dsy = "http://www.3ds.com/print" xmlns:xlink = "http://www.w3.org/1999/xlink" dsy:text-version = "21000"><g fill = "none" stroke = "rgb(255, 0, 0)" stroke-width = "0.13" stroke-linecap = "butt" stroke-linejoin = "miter"><path d = "M 200.036 116.4 L 200.036 114.4"/><path d = "M 199.03596 117.39998 A 1 1 0 0 0 200.03596 116.39998"/><path d = "M 201.03596 113.39998 A 1 1 0 0 0 200.03596 114.39998"/><path d = "M 199.036 117.4 L 178.436 117.4"/><path d = "M 177.43596 116.39998 A 1 1 0 0 0 178.43596 117.39998"/><path d = "M 177.436 114.4 L 177.436 116.4"/><path d = "M 177.43596 114.39998 A 1 1 0 0 0 176.43596 113.39998"/><path d = "M 168.659 188.667 L 170.391 189.667"/><path d = "M 168.65941 188.66713 A 1 1 0 0 0 167.29338 189.03316"/><path d = "M 170.39146 189.66713 A 1 1 0 0 0 171.75749 189.3011"/><path d = "M 156.993 206.873 L 167.293 189.033"/><path d = "M 156.99338 206.87328 A 1 1 0 0 0 157.35941 208.2393"/><path d = "M 159.091 209.239 L 157.359 208.239"/><path d = "M 159.45749 210.60533 A 1 1 0 0 0 159.09146 209.2393"/><path d = "M 108.73 145.933 L 110.463 144.933"/><path d = "M 110.46251 144.93285 A 1 1 0 0 0 110.82854 143.56682"/><path d = "M 108.73045 145.93285 A 1 1 0 0 0 108.36443 147.29887"/><path d = "M 110.829 143.567 L 100.529 125.727"/><path d = "M 100.52853 125.7267 A 1 1 0 0 0 99.162506 125.36067"/><path d = "M 99.1625 125.361 L 97.4305 126.361"/><path d = "M 96.064423 125.99464 A 1 1 0 0 0 97.43045 126.36067"/><path d = "M 200.036 124.4 L 200.036 130.4"/><path d = "M 199.03596 131.39998 A 1 1 0 0 0 200.03596 130.39998"/><path d = "M 199.036 131.4 L 178.436 131.4"/><path d = "M 177.43596 130.39998 A 1 1 0 0 0 178.43596 131.39998"/><path d = "M 177.436 130.4 L 177.436 124.4"/><path d = "M 177.43596 124.39998 A 1 1 0 0 0 176.43596 123.39998"/><path d = "M 176.436 123.4 L 170.436 123.4"/><path d = "M 167.43596 120.39998 A 3 3 0 0 0 170.43596 123.39998"/><path d = "M 167.436 116.4 L 167.436 120.4"/><path d = "M 170.43596 113.39998 A 3 3 0 0 0 167.43596 116.39998"/><path d = "M 170.436 113.4 L 176.436 113.4"/><path d = "M 201.036 113.4 L 202.036 113.4"/><path d = "M 205.03596 116.39998 A 3 3 0 0 0 202.03596 113.39998"/><path d = "M 205.036 120.4 L 205.036 116.4"/><path d = "M 202.03596 123.39998 A 3 3 0 0 0 205.03596 120.39998"/><path d = "M 202.036 123.4 L 201.036 123.4"/><path d = "M 201.03596 123.39998 A 1 1 0 0 0 200.03596 124.39998"/><path d = "M 144.86903 199.87328 A 1 1 0 0 0 145.23506 201.2393"/><path d = "M 144.869 199.873 L 155.169 182.033"/><path d = "M 156.53505 181.66713 A 1 1 0 0 0 155.16902 182.03316"/><path d = "M 156.535 181.667 L 161.731 184.667"/><path d = "M 161.73122 184.66714 A 1 1 0 0 0 163.09724 184.30112"/><path d = "M 163.097 184.301 L 166.097 179.105"/><path d = "M 170.19531 178.00687 A 3 3 0 0 0 166.09723 179.10495"/><path d = "M 173.659 180.007 L 170.195 178.007"/><path d = "M 174.75748 184.10495 A 3 3 0 0 0 173.65941 180.00688"/><path d = "M 171.757 189.301 L 174.757 184.105"/><path d = "M 158.957 211.471 L 159.457 210.605"/><path d = "M 154.85941 212.56943 A 3 3 0 0 0 158.95749 211.47134"/><path d = "M 151.395 210.569 L 154.859 212.569"/><path d = "M 150.29723 206.47134 A 3 3 0 0 0 151.39531 210.56943"/><path d = "M 150.297 206.471 L 150.797 205.605"/><path d = "M 150.79724 205.60533 A 1 1 0 0 0 150.43121 204.2393"/><path d = "M 150.431 204.239 L 145.235 201.239"/><path d = "M 122.58685 137.93285 A 1 1 0 0 0 122.95288 136.56682"/><path d = "M 117.391 140.933 L 122.587 137.933"/><path d = "M 117.39071 140.93285 A 1 1 0 0 0 117.02468 142.29887"/><path d = "M 120.025 147.495 L 117.025 142.299"/><path d = "M 118.9266 151.59311 A 3 3 0 0 0 120.02467 147.49503"/><path d = "M 118.927 151.593 L 115.463 153.593"/><path d = "M 111.36443 152.49503 A 3 3 0 0 0 115.46251 153.59311"/><path d = "M 108.364 147.299 L 111.364 152.495"/><path d = "M 95.5644 125.129 L 96.0644 125.995"/><path d = "M 96.662506 121.03053 A 3 3 0 0 0 95.56443 125.12862"/><path d = "M 100.127 119.031 L 96.6625 121.031"/><path d = "M 104.22468 120.12862 A 3 3 0 0 0 100.1266 119.03053"/><path d = "M 104.725 120.995 L 104.225 120.129"/><path d = "M 104.72469 120.99463 A 1 1 0 0 0 106.09071 121.36066"/><path d = "M 111.287 118.361 L 106.091 121.361"/><path d = "M 112.65289 118.72668 A 1 1 0 0 0 111.28687 118.36066"/><path d = "M 122.953 136.567 L 112.653 118.727"/><circle r = "4" cx = "164.18596" cy = "129.21538"/><circle r = "4" cx = "164.18596" cy = "170.78459"/><circle r = "4" cx = "128.18596" cy = "149.99998"/><circle r = "2.5" cx = "189.68596" cy = "85.04808"/><circle r = "2.5" cx = "77.185959" cy = "149.99998"/><circle r = "2.5" cx = "189.68596" cy = "214.9519"/><path d = "M 186.18596 145.99998 A 4 4 0 0 0 186.18596 153.99998"/><path d = "M 131.72186 122.55511 A 4 4 0 1 0 138.65005 118.55511"/><path d = "M 138.65005 181.44485 A 4 4 0 1 0 131.72186 177.44485"/><path d = "M 124.65 205.694 L 138.65 181.445"/><path d = "M 124.65007 205.69354 A 5 5 0 0 0 126.48019 212.52367"/><path d = "M 117.722 201.694 L 131.722 177.445"/><path d = "M 110.89174 203.52368 A 5 5 0 0 0 117.72186 201.69356"/><path d = "M 117.722 98.3064 L 131.722 122.555"/><path d = "M 117.72186 98.306412 A 5 5 0 0 0 110.89174 96.476288"/><path d = "M 138.65 118.555 L 124.65 94.3064"/><path d = "M 126.48019 87.476288 A 5 5 0 0 0 124.65007 94.306412"/><path d = "M 214.186 146 L 186.186 146"/><path d = "M 214.18596 145.99998 A 5 5 0 0 0 219.18596 140.99998"/><path d = "M 186.186 154 L 214.186 154"/><path d = "M 219.18596 158.99998 A 5 5 0 0 0 214.18596 153.99998"/><path d = "M 86.413818 92.291443 A 87.5 87.5 0 0 0 86.413834 207.70854"/><path d = "M 86.413834 207.70853 A 5 5 0 0 0 94.502365 206.9109"/><path d = "M 135.09497 235.81461 A 87.5 87.5 0 0 0 235.0491 178.10603"/><path d = "M 131.74146 228.4109 A 5 5 0 0 0 135.09496 235.81461"/><path d = "M 235.0491 178.10605 A 5 5 0 0 0 230.31407 171.49998"/><path d = "M 94.502365 93.089066 A 5 5 0 0 0 86.413834 92.291428"/><path d = "M 235.0491 121.89392 A 87.5 87.5 0 0 0 135.09496 64.185364"/><path d = "M 135.09496 64.185379 A 5 5 0 0 0 131.74146 71.589066"/><path d = "M 230.31407 128.49998 A 5 5 0 0 0 235.0491 121.89392"/><path d = "M 134.806 76.8962 L 131.741 71.5891"/><path d = "M 132.97537 83.726288 A 5 5 0 0 0 134.8055 76.896164"/><path d = "M 126.48 87.4763 L 132.975 83.7263"/><path d = "M 134.806 223.104 L 131.741 228.411"/><path d = "M 134.8055 223.10379 A 5 5 0 0 0 132.97537 216.27368"/><path d = "M 132.975 216.274 L 126.48 212.524"/><path d = "M 230.314 171.5 L 224.186 171.5"/><path d = "M 219.18596 166.49998 A 5 5 0 0 0 224.18596 171.49998"/><path d = "M 219.186 159 L 219.186 166.5"/><path d = "M 97.5664 98.3962 L 94.5024 93.0891"/><path d = "M 97.566422 98.396164 A 5 5 0 0 0 104.39655 100.22629"/><path d = "M 104.397 100.226 L 110.892 96.4763"/><path d = "M 219.186 133.5 L 219.186 141"/><path d = "M 224.18596 128.49998 A 5 5 0 0 0 219.18596 133.49998"/><path d = "M 224.186 128.5 L 230.314 128.5"/><path d = "M 97.5664 201.604 L 94.5024 206.911"/><path d = "M 104.39655 199.77368 A 5 5 0 0 0 97.566422 201.60381"/><path d = "M 110.892 203.524 L 104.397 199.774"/><circle r = "5" cx = "152.18596" cy = "149.99998"/><path d = "M 122.227 159.762 L 122.228 159.799"/><path d = "M 122.223 159.727 L 122.227 159.762"/><path d = "M 122.228 159.799 L 122.227 159.846"/><path d = "M 122.217 159.694 L 122.223 159.727"/><path d = "M 122.227 159.846 L 122.224 159.894"/><path d = "M 122.208 159.661 L 122.217 159.694"/><path d = "M 122.224 159.894 L 122.218 159.943"/><path d = "M 122.196 159.63 L 122.208 159.661"/><path d = "M 122.218 159.943 L 122.21 159.993"/><path d = "M 122.182 159.599 L 122.196 159.63"/><path d = "M 122.21 159.993 L 122.199 160.043"/><path d = "M 122.166 159.57 L 122.182 159.599"/><path d = "M 122.199 160.043 L 122.187 160.094"/><path d = "M 122.147 159.542 L 122.166 159.57"/><path d = "M 122.187 160.094 L 122.172 160.146"/><path d = "M 122.125 159.516 L 122.147 159.542"/><path d = "M 122.172 160.146 L 122.154 160.199"/><path d = "M 122.101 159.49 L 122.125 159.516"/><path d = "M 122.154 160.199 L 122.135 160.252"/><path d = "M 122.075 159.467 L 122.101 159.49"/><path d = "M 122.135 160.252 L 122.113 160.306"/><path d = "M 122.048 159.446 L 122.075 159.467"/><path d = "M 122.113 160.306 L 122.088 160.361"/><path d = "M 122.02 159.427 L 122.048 159.446"/><path d = "M 122.088 160.361 L 122.061 160.415"/><path d = "M 121.991 159.411 L 122.02 159.427"/><path d = "M 122.061 160.415 L 122.031 160.469"/><path d = "M 121.961 159.397 L 121.991 159.411"/><path d = "M 122.031 160.469 L 121.999 160.523"/><path d = "M 121.93 159.386 L 121.961 159.397"/><path d = "M 121.999 160.523 L 121.964 160.577"/><path d = "M 121.898 159.378 L 121.93 159.386"/><path d = "M 121.964 160.577 L 121.926 160.631"/><path d = "M 121.865 159.371 L 121.898 159.378"/><path d = "M 121.926 160.631 L 121.886 160.684"/><path d = "M 121.831 159.368 L 121.865 159.371"/><path d = "M 121.886 160.684 L 121.843 160.737"/><path d = "M 121.796 159.366 L 121.831 159.368"/><path d = "M 121.843 160.737 L 121.797 160.79"/><path d = "M 121.756 159.368 L 121.796 159.366"/><path d = "M 121.797 160.79 L 121.749 160.843"/><path d = "M 121.717 159.371 L 121.756 159.368"/><path d = "M 121.749 160.843 L 121.698 160.894"/><path d = "M 121.682 159.377 L 121.717 159.371"/><path d = "M 121.698 160.894 L 121.644 160.944"/><path d = "M 121.648 159.386 L 121.682 159.377"/><path d = "M 121.644 160.944 L 121.588 160.991"/><path d = "M 121.617 159.397 L 121.648 159.386"/><path d = "M 121.588 160.991 L 121.529 161.037"/><path d = "M 121.588 159.411 L 121.617 159.397"/><path d = "M 121.529 161.037 L 121.467 161.081"/><path d = "M 121.561 159.426 L 121.588 159.411"/><path d = "M 121.467 161.081 L 121.402 161.123"/><path d = "M 121.537 159.445 L 121.561 159.426"/><path d = "M 121.402 161.123 L 121.335 161.162"/><path d = "M 121.514 159.466 L 121.537 159.445"/><path d = "M 121.335 161.162 L 121.264 161.2"/><path d = "M 121.494 159.489 L 121.514 159.466"/><path d = "M 121.264 161.2 L 121.191 161.236"/><path d = "M 121.476 159.514 L 121.494 159.489"/><path d = "M 121.191 161.236 L 121.116 161.27"/><path d = "M 121.458 159.541 L 121.476 159.514"/><path d = "M 121.116 161.27 L 121.037 161.301"/><path d = "M 121.441 159.569 L 121.458 159.541"/><path d = "M 121.037 161.301 L 120.957 161.329"/><path d = "M 121.424 159.598 L 121.441 159.569"/><path d = "M 120.957 161.329 L 120.873 161.354"/><path d = "M 121.408 159.629 L 121.424 159.598"/><path d = "M 120.873 161.354 L 120.787 161.375"/><path d = "M 121.393 159.661 L 121.408 159.629"/><path d = "M 120.787 161.375 L 120.699 161.393"/><path d = "M 121.378 159.695 L 121.393 159.661"/><path d = "M 120.699 161.393 L 120.608 161.408"/><path d = "M 121.364 159.731 L 121.378 159.695"/><path d = "M 120.608 161.408 L 120.514 161.419"/><path d = "M 121.35 159.767 L 121.364 159.731"/><path d = "M 120.514 161.419 L 120.418 161.427"/><path d = "M 121.337 159.805 L 121.35 159.767"/><path d = "M 120.418 161.427 L 120.319 161.432"/><path d = "M 121.305 159.886 L 121.337 159.805"/><path d = "M 120.319 161.432 L 120.218 161.434"/><path d = "M 121.271 159.962 L 121.305 159.886"/><path d = "M 120.218 161.434 L 120.141 161.433"/><path d = "M 121.233 160.035 L 121.271 159.962"/><path d = "M 120.141 161.433 L 120.065 161.431"/><path d = "M 121.193 160.103 L 121.233 160.035"/><path d = "M 120.065 161.431 L 119.991 161.427"/><path d = "M 121.15 160.168 L 121.193 160.103"/><path d = "M 119.991 161.427 L 119.918 161.422"/><path d = "M 121.104 160.228 L 121.15 160.168"/><path d = "M 119.918 161.422 L 119.847 161.416"/><path d = "M 121.054 160.285 L 121.104 160.228"/><path d = "M 119.847 161.416 L 119.777 161.407"/><path d = "M 121.002 160.337 L 121.054 160.285"/><path d = "M 119.777 161.407 L 119.708 161.398"/><path d = "M 120.947 160.386 L 121.002 160.337"/><path d = "M 119.708 161.398 L 119.641 161.387"/><path d = "M 120.89 160.43 L 120.947 160.386"/><path d = "M 119.641 161.387 L 119.575 161.374"/><path d = "M 120.829 160.471 L 120.89 160.43"/><path d = "M 119.575 161.374 L 119.511 161.36"/><path d = "M 120.766 160.507 L 120.829 160.471"/><path d = "M 119.511 161.36 L 119.448 161.345"/><path d = "M 120.7 160.539 L 120.766 160.507"/><path d = "M 119.448 161.345 L 119.386 161.328"/><path d = "M 120.631 160.567 L 120.7 160.539"/><path d = "M 119.386 161.328 L 119.325 161.309"/><path d = "M 120.56 160.59 L 120.631 160.567"/><path d = "M 119.325 161.309 L 119.265 161.288"/><path d = "M 120.486 160.609 L 120.56 160.59"/><path d = "M 119.265 161.288 L 119.207 161.266"/><path d = "M 120.41 160.624 L 120.486 160.609"/><path d = "M 119.207 161.266 L 119.15 161.242"/><path d = "M 120.33 160.635 L 120.41 160.624"/><path d = "M 119.15 161.242 L 119.094 161.217"/><path d = "M 120.249 160.641 L 120.33 160.635"/><path d = "M 119.094 161.217 L 119.039 161.19"/><path d = "M 120.164 160.643 L 120.249 160.641"/><path d = "M 119.039 161.19 L 118.985 161.161"/><path d = "M 120.086 160.641 L 120.164 160.643"/><path d = "M 118.985 161.161 L 118.933 161.131"/><path d = "M 120.01 160.636 L 120.086 160.641"/><path d = "M 118.933 161.131 L 118.881 161.099"/><path d = "M 119.936 160.626 L 120.01 160.636"/><path d = "M 118.881 161.099 L 118.83 161.064"/><path d = "M 119.864 160.613 L 119.936 160.626"/><path d = "M 118.83 161.064 L 118.781 161.028"/><path d = "M 119.794 160.596 L 119.864 160.613"/><path d = "M 118.781 161.028 L 118.732 160.99"/><path d = "M 119.726 160.576 L 119.794 160.596"/><path d = "M 118.732 160.99 L 118.683 160.95"/><path d = "M 119.66 160.551 L 119.726 160.576"/><path d = "M 118.683 160.95 L 118.636 160.908"/><path d = "M 119.596 160.523 L 119.66 160.551"/><path d = "M 118.636 160.908 L 118.59 160.864"/><path d = "M 119.534 160.491 L 119.596 160.523"/><path d = "M 118.59 160.864 L 118.544 160.818"/><path d = "M 119.474 160.456 L 119.534 160.491"/><path d = "M 118.544 160.818 L 118.499 160.77"/><path d = "M 119.416 160.416 L 119.474 160.456"/><path d = "M 118.499 160.77 L 118.455 160.72"/><path d = "M 119.361 160.373 L 119.416 160.416"/><path d = "M 118.455 160.72 L 118.417 160.673"/><path d = "M 119.309 160.326 L 119.361 160.373"/><path d = "M 118.417 160.673 L 118.38 160.626"/><path d = "M 119.259 160.275 L 119.309 160.326"/><path d = "M 118.38 160.626 L 118.344 160.577"/><path d = "M 119.212 160.22 L 119.259 160.275"/><path d = "M 118.344 160.577 L 118.309 160.526"/><path d = "M 119.168 160.161 L 119.212 160.22"/><path d = "M 118.309 160.526 L 118.275 160.475"/><path d = "M 119.127 160.098 L 119.168 160.161"/><path d = "M 118.275 160.475 L 118.242 160.423"/><path d = "M 119.088 160.032 L 119.127 160.098"/><path d = "M 118.242 160.423 L 118.211 160.369"/><path d = "M 119.052 159.962 L 119.088 160.032"/><path d = "M 118.211 160.369 L 118.181 160.315"/><path d = "M 119.018 159.888 L 119.052 159.962"/><path d = "M 118.181 160.315 L 118.151 160.259"/><path d = "M 118.988 159.81 L 119.018 159.888"/><path d = "M 118.151 160.259 L 118.123 160.203"/><path d = "M 118.96 159.728 L 118.988 159.81"/><path d = "M 118.123 160.203 L 118.097 160.145"/><path d = "M 118.936 159.642 L 118.96 159.728"/><path d = "M 118.097 160.145 L 118.071 160.086"/><path d = "M 118.915 159.552 L 118.936 159.642"/><path d = "M 118.071 160.086 L 118.047 160.027"/><path d = "M 118.897 159.459 L 118.915 159.552"/><path d = "M 118.047 160.027 L 118.024 159.967"/><path d = "M 118.883 159.362 L 118.897 159.459"/><path d = "M 118.024 159.967 L 118.003 159.906"/><path d = "M 118.872 159.261 L 118.883 159.362"/><path d = "M 118.003 159.906 L 117.983 159.845"/><path d = "M 118.864 159.156 L 118.872 159.261"/><path d = "M 117.983 159.845 L 117.965 159.783"/><path d = "M 118.859 159.047 L 118.864 159.156"/><path d = "M 117.965 159.783 L 117.948 159.719"/><path d = "M 118.857 158.934 L 118.859 159.047"/><path d = "M 117.948 159.719 L 117.932 159.656"/><path d = "M 118.861 158.767 L 118.857 158.934"/><path d = "M 117.932 159.656 L 117.917 159.591"/><path d = "M 118.872 158.607 L 118.861 158.767"/><path d = "M 117.917 159.591 L 117.904 159.526"/><path d = "M 118.89 158.455 L 118.872 158.607"/><path d = "M 117.904 159.526 L 117.893 159.459"/><path d = "M 118.915 158.311 L 118.89 158.455"/><path d = "M 117.893 159.459 L 117.882 159.392"/><path d = "M 118.948 158.174 L 118.915 158.311"/><path d = "M 117.882 159.392 L 117.873 159.325"/><path d = "M 118.988 158.046 L 118.948 158.174"/><path d = "M 117.873 159.325 L 117.866 159.256"/><path d = "M 119.035 157.925 L 118.988 158.046"/><path d = "M 117.866 159.256 L 117.86 159.186"/><path d = "M 119.09 157.813 L 119.035 157.925"/><path d = "M 117.86 159.186 L 117.855 159.116"/><path d = "M 119.152 157.708 L 119.09 157.813"/><path d = "M 117.855 159.116 L 117.851 159.045"/><path d = "M 119.221 157.611 L 119.152 157.708"/><path d = "M 117.851 159.045 L 117.849 158.973"/><path d = "M 119.296 157.522 L 119.221 157.611"/><path d = "M 117.849 158.973 L 117.849 158.901"/><path d = "M 119.376 157.443 L 119.296 157.522"/><path d = "M 117.849 158.901 L 117.85 158.783"/><path d = "M 119.461 157.373 L 119.376 157.443"/><path d = "M 117.85 158.783 L 117.856 158.668"/><path d = "M 119.552 157.312 L 119.461 157.373"/><path d = "M 117.856 158.668 L 117.864 158.556"/><path d = "M 119.647 157.261 L 119.552 157.312"/><path d = "M 117.864 158.556 L 117.876 158.446"/><path d = "M 119.747 157.219 L 119.647 157.261"/><path d = "M 117.876 158.446 L 117.892 158.339"/><path d = "M 119.852 157.187 L 119.747 157.219"/><path d = "M 117.892 158.339 L 117.911 158.234"/><path d = "M 119.962 157.163 L 119.852 157.187"/><path d = "M 117.911 158.234 L 117.933 158.131"/><path d = "M 120.077 157.149 L 119.962 157.163"/><path d = "M 117.933 158.131 L 117.959 158.031"/><path d = "M 120.198 157.145 L 120.077 157.149"/><path d = "M 117.959 158.031 L 117.988 157.934"/><path d = "M 120.273 157.147 L 120.198 157.145"/><path d = "M 117.988 157.934 L 118.021 157.838"/><path d = "M 120.347 157.152 L 120.273 157.147"/><path d = "M 118.021 157.838 L 118.057 157.746"/><path d = "M 120.418 157.161 L 120.347 157.152"/><path d = "M 118.057 157.746 L 118.096 157.656"/><path d = "M 120.486 157.174 L 120.418 157.161"/><path d = "M 118.096 157.656 L 118.138 157.569"/><path d = "M 120.552 157.19 L 120.486 157.174"/><path d = "M 118.138 157.569 L 118.183 157.485"/><path d = "M 120.616 157.21 L 120.552 157.19"/><path d = "M 118.183 157.485 L 118.231 157.403"/><path d = "M 120.677 157.233 L 120.616 157.21"/><path d = "M 118.231 157.403 L 118.282 157.324"/><path d = "M 120.736 157.261 L 120.677 157.233"/><path d = "M 118.282 157.324 L 118.336 157.248"/><path d = "M 120.792 157.291 L 120.736 157.261"/><path d = "M 118.336 157.248 L 118.393 157.175"/><path d = "M 120.846 157.326 L 120.792 157.291"/><path d = "M 118.393 157.175 L 118.453 157.104"/><path d = "M 120.898 157.364 L 120.846 157.326"/><path d = "M 118.453 157.104 L 118.515 157.036"/><path d = "M 120.949 157.406 L 120.898 157.364"/><path d = "M 118.515 157.036 L 118.581 156.971"/><path d = "M 120.998 157.451 L 120.949 157.406"/><path d = "M 118.581 156.971 L 118.649 156.909"/><path d = "M 121.045 157.5 L 120.998 157.451"/><path d = "M 118.649 156.909 L 118.718 156.85"/><path d = "M 121.092 157.553 L 121.045 157.5"/><path d = "M 118.718 156.85 L 118.791 156.795"/><path d = "M 121.137 157.609 L 121.092 157.553"/><path d = "M 118.791 156.795 L 118.865 156.742"/><path d = "M 121.181 157.669 L 121.137 157.609"/><path d = "M 118.865 156.742 L 118.941 156.693"/><path d = "M 121.223 157.733 L 121.181 157.669"/><path d = "M 118.941 156.693 L 119.02 156.647"/><path d = "M 121.264 157.801 L 121.223 157.733"/><path d = "M 119.02 156.647 L 119.101 156.604"/><path d = "M 121.303 157.872 L 121.264 157.801"/><path d = "M 119.101 156.604 L 119.184 156.565"/><path d = "M 121.327 157.915 L 121.303 157.872"/><path d = "M 119.184 156.565 L 119.269 156.528"/><path d = "M 121.349 157.955 L 121.327 157.915"/><path d = "M 119.269 156.528 L 119.356 156.495"/><path d = "M 121.372 157.993 L 121.349 157.955"/><path d = "M 119.356 156.495 L 119.445 156.466"/><path d = "M 121.394 158.028 L 121.372 157.993"/><path d = "M 119.445 156.466 L 119.534 156.439"/><path d = "M 121.415 158.06 L 121.394 158.028"/><path d = "M 119.534 156.439 L 119.624 156.417"/><path d = "M 121.436 158.09 L 121.415 158.06"/><path d = "M 119.624 156.417 L 119.716 156.398"/><path d = "M 121.457 158.118 L 121.436 158.09"/><path d = "M 119.716 156.398 L 119.809 156.382"/><path d = "M 121.477 158.142 L 121.457 158.118"/><path d = "M 119.809 156.382 L 119.903 156.37"/><path d = "M 121.497 158.164 L 121.477 158.142"/><path d = "M 119.903 156.37 L 119.998 156.361"/><path d = "M 121.516 158.184 L 121.497 158.164"/><path d = "M 119.998 156.361 L 120.094 156.356"/><path d = "M 121.536 158.201 L 121.516 158.184"/><path d = "M 120.094 156.356 L 120.191 156.354"/><path d = "M 121.558 158.216 L 121.536 158.201"/><path d = "M 120.191 156.354 L 120.309 156.356"/><path d = "M 121.582 158.23 L 121.558 158.216"/><path d = "M 120.309 156.356 L 120.424 156.364"/><path d = "M 121.608 158.242 L 121.582 158.23"/><path d = "M 120.424 156.364 L 120.537 156.375"/><path d = "M 121.636 158.251 L 121.608 158.242"/><path d = "M 120.537 156.375 L 120.647 156.392"/><path d = "M 121.665 158.26 L 121.636 158.251"/><path d = "M 120.647 156.392 L 120.755 156.413"/><path d = "M 121.697 158.266 L 121.665 158.26"/><path d = "M 120.755 156.413 L 120.86 156.44"/><path d = "M 121.73 158.27 L 121.697 158.266"/><path d = "M 120.86 156.44 L 120.962 156.471"/><path d = "M 121.765 158.273 L 121.73 158.27"/><path d = "M 120.962 156.471 L 121.062 156.506"/><path d = "M 121.803 158.274 L 121.765 158.273"/><path d = "M 121.062 156.506 L 121.159 156.547"/><path d = "M 121.836 158.273 L 121.803 158.274"/><path d = "M 121.159 156.547 L 121.253 156.592"/><path d = "M 121.869 158.269 L 121.836 158.273"/><path d = "M 121.253 156.592 L 121.344 156.641"/><path d = "M 121.901 158.262 L 121.869 158.269"/><path d = "M 121.344 156.641 L 121.431 156.692"/><path d = "M 121.931 158.253 L 121.901 158.262"/><path d = "M 121.431 156.692 L 121.513 156.745"/><path d = "M 121.961 158.241 L 121.931 158.253"/><path d = "M 121.513 156.745 L 121.591 156.8"/><path d = "M 121.99 158.227 L 121.961 158.241"/><path d = "M 121.591 156.8 L 121.665 156.858"/><path d = "M 122.017 158.21 L 121.99 158.227"/><path d = "M 121.665 156.858 L 121.734 156.918"/><path d = "M 122.044 158.19 L 122.017 158.21"/><path d = "M 121.734 156.918 L 121.799 156.98"/><path d = "M 122.07 158.168 L 122.044 158.19"/><path d = "M 121.799 156.98 L 121.859 157.044"/><path d = "M 122.094 158.143 L 122.07 158.168"/><path d = "M 121.859 157.044 L 121.915 157.111"/><path d = "M 122.117 158.117 L 122.094 158.143"/><path d = "M 121.915 157.111 L 121.967 157.18"/><path d = "M 122.138 158.089 L 122.117 158.117"/><path d = "M 121.967 157.18 L 122.014 157.25"/><path d = "M 122.156 158.061 L 122.138 158.089"/><path d = "M 122.014 157.25 L 122.056 157.319"/><path d = "M 122.171 158.032 L 122.156 158.061"/><path d = "M 122.056 157.319 L 122.093 157.387"/><path d = "M 122.185 158.003 L 122.171 158.032"/><path d = "M 122.093 157.387 L 122.126 157.454"/><path d = "M 122.196 157.972 L 122.185 158.003"/><path d = "M 122.126 157.454 L 122.153 157.521"/><path d = "M 122.204 157.941 L 122.196 157.972"/><path d = "M 122.153 157.521 L 122.175 157.586"/><path d = "M 122.21 157.909 L 122.204 157.941"/><path d = "M 122.175 157.586 L 122.193 157.651"/><path d = "M 122.214 157.876 L 122.21 157.909"/><path d = "M 122.193 157.651 L 122.205 157.716"/><path d = "M 122.215 157.842 L 122.214 157.876"/><path d = "M 122.205 157.716 L 122.212 157.779"/><path d = "M 122.212 157.779 L 122.215 157.842"/><path d = "M 175.205 175.043 L 175.129 175.043"/><path d = "M 175.28 175.042 L 175.205 175.043"/><path d = "M 175.129 175.043 L 173.627 175.043"/><path d = "M 175.353 175.04 L 175.28 175.042"/><path d = "M 173.627 175.043 L 173.564 175.042"/><path d = "M 175.424 175.037 L 175.353 175.04"/><path d = "M 173.564 175.042 L 173.505 175.038"/><path d = "M 175.493 175.034 L 175.424 175.037"/><path d = "M 173.505 175.038 L 173.449 175.03"/><path d = "M 175.56 175.03 L 175.493 175.034"/><path d = "M 173.449 175.03 L 173.397 175.02"/><path d = "M 175.625 175.025 L 175.56 175.03"/><path d = "M 173.397 175.02 L 173.349 175.007"/><path d = "M 175.688 175.019 L 175.625 175.025"/><path d = "M 173.349 175.007 L 173.304 174.991"/><path d = "M 175.75 175.012 L 175.688 175.019"/><path d = "M 173.304 174.991 L 173.263 174.972"/><path d = "M 175.809 175.005 L 175.75 175.012"/><path d = "M 173.263 174.972 L 173.226 174.95"/><path d = "M 175.867 174.997 L 175.809 175.005"/><path d = "M 173.226 174.95 L 173.193 174.925"/><path d = "M 175.923 174.987 L 175.867 174.997"/><path d = "M 173.193 174.925 L 173.163 174.898"/><path d = "M 175.978 174.977 L 175.923 174.987"/><path d = "M 173.163 174.898 L 173.137 174.867"/><path d = "M 176.031 174.965 L 175.978 174.977"/><path d = "M 173.137 174.867 L 173.113 174.833"/><path d = "M 176.084 174.953 L 176.031 174.965"/><path d = "M 173.113 174.833 L 173.092 174.795"/><path d = "M 176.135 174.939 L 176.084 174.953"/><path d = "M 173.092 174.795 L 173.074 174.754"/><path d = "M 176.184 174.924 L 176.135 174.939"/><path d = "M 173.074 174.754 L 173.059 174.709"/><path d = "M 176.232 174.908 L 176.184 174.924"/><path d = "M 173.059 174.709 L 173.046 174.661"/><path d = "M 176.279 174.891 L 176.232 174.908"/><path d = "M 173.046 174.661 L 173.037 174.609"/><path d = "M 176.325 174.873 L 176.279 174.891"/><path d = "M 173.037 174.609 L 173.03 174.554"/><path d = "M 176.395 174.839 L 176.325 174.873"/><path d = "M 173.03 174.554 L 173.026 174.496"/><path d = "M 176.462 174.803 L 176.395 174.839"/><path d = "M 173.026 174.496 L 173.024 174.434"/><path d = "M 176.527 174.763 L 176.462 174.803"/><path d = "M 173.024 174.434 L 173.024 170.741"/><path d = "M 176.588 174.719 L 176.527 174.763"/><path d = "M 173.024 170.741 L 173.026 170.678"/><path d = "M 176.647 174.672 L 176.588 174.719"/><path d = "M 173.026 170.678 L 173.03 170.618"/><path d = "M 176.702 174.621 L 176.647 174.672"/><path d = "M 173.03 170.618 L 173.037 170.562"/><path d = "M 176.755 174.568 L 176.702 174.621"/><path d = "M 173.037 170.562 L 173.047 170.51"/><path d = "M 176.804 174.51 L 176.755 174.568"/><path d = "M 173.047 170.51 L 173.06 170.462"/><path d = "M 176.851 174.449 L 176.804 174.51"/><path d = "M 173.06 170.462 L 173.076 170.417"/><path d = "M 176.895 174.385 L 176.851 174.449"/><path d = "M 173.076 170.417 L 173.094 170.375"/><path d = "M 176.935 174.318 L 176.895 174.385"/><path d = "M 173.094 170.375 L 173.115 170.338"/><path d = "M 176.971 174.25 L 176.935 174.318"/><path d = "M 173.115 170.338 L 173.14 170.304"/><path d = "M 177.002 174.18 L 176.971 174.25"/><path d = "M 173.14 170.304 L 173.167 170.273"/><path d = "M 177.03 174.108 L 177.002 174.18"/><path d = "M 173.167 170.273 L 173.197 170.246"/><path d = "M 177.053 174.034 L 177.03 174.108"/><path d = "M 173.197 170.246 L 173.231 170.222"/><path d = "M 177.072 173.959 L 177.053 174.034"/><path d = "M 173.231 170.222 L 173.268 170.201"/><path d = "M 177.087 173.883 L 177.072 173.959"/><path d = "M 173.268 170.201 L 173.309 170.182"/><path d = "M 177.097 173.804 L 177.087 173.883"/><path d = "M 173.309 170.182 L 173.353 170.167"/><path d = "M 177.104 173.724 L 177.097 173.804"/><path d = "M 173.353 170.167 L 173.401 170.154"/><path d = "M 177.106 173.643 L 177.104 173.724"/><path d = "M 173.401 170.154 L 173.452 170.144"/><path d = "M 177.096 173.47 L 177.106 173.643"/><path d = "M 173.452 170.144 L 173.507 170.137"/><path d = "M 177.067 173.31 L 177.096 173.47"/><path d = "M 173.507 170.137 L 173.566 170.132"/><path d = "M 177.019 173.16 L 177.067 173.31"/><path d = "M 173.566 170.132 L 173.627 170.131"/><path d = "M 176.951 173.023 L 177.019 173.16"/><path d = "M 173.627 170.131 L 175.219 170.131"/><path d = "M 176.864 172.897 L 176.951 173.023"/><path d = "M 175.219 170.131 L 175.289 170.131"/><path d = "M 176.757 172.783 L 176.864 172.897"/><path d = "M 175.289 170.131 L 175.356 170.133"/><path d = "M 176.631 172.681 L 176.757 172.783"/><path d = "M 175.356 170.133 L 175.422 170.135"/><path d = "M 176.486 172.59 L 176.631 172.681"/><path d = "M 175.422 170.135 L 175.486 170.138"/><path d = "M 176.321 172.511 L 176.486 172.59"/><path d = "M 175.486 170.138 L 175.548 170.142"/><path d = "M 176.137 172.443 L 176.321 172.511"/><path d = "M 175.548 170.142 L 175.608 170.147"/><path d = "M 176.277 172.371 L 176.137 172.443"/><path d = "M 175.608 170.147 L 175.666 170.152"/><path d = "M 176.403 172.291 L 176.277 172.371"/><path d = "M 175.666 170.152 L 175.722 170.159"/><path d = "M 176.513 172.203 L 176.403 172.291"/><path d = "M 175.722 170.159 L 175.776 170.166"/><path d = "M 176.609 172.106 L 176.513 172.203"/><path d = "M 175.776 170.166 L 175.829 170.175"/><path d = "M 176.69 172.003 L 176.609 172.106"/><path d = "M 175.829 170.175 L 175.88 170.184"/><path d = "M 176.757 171.891 L 176.69 172.003"/><path d = "M 175.88 170.184 L 175.93 170.195"/><path d = "M 176.808 171.771 L 176.757 171.891"/><path d = "M 175.93 170.195 L 175.979 170.208"/><path d = "M 176.845 171.643 L 176.808 171.771"/><path d = "M 175.979 170.208 L 176.027 170.222"/><path d = "M 176.867 171.508 L 176.845 171.643"/><path d = "M 176.027 170.222 L 176.074 170.238"/><path d = "M 176.874 171.364 L 176.867 171.508"/><path d = "M 176.074 170.238 L 176.119 170.256"/><path d = "M 176.874 171.322 L 176.874 171.364"/><path d = "M 176.119 170.256 L 176.164 170.275"/><path d = "M 176.872 171.279 L 176.874 171.322"/><path d = "M 176.164 170.275 L 176.208 170.296"/><path d = "M 176.868 171.237 L 176.872 171.279"/><path d = "M 176.208 170.296 L 176.25 170.318"/><path d = "M 176.863 171.196 L 176.868 171.237"/><path d = "M 176.25 170.318 L 176.291 170.342"/><path d = "M 176.857 171.155 L 176.863 171.196"/><path d = "M 176.291 170.342 L 176.326 170.363"/><path d = "M 176.849 171.115 L 176.857 171.155"/><path d = "M 176.326 170.363 L 176.359 170.386"/><path d = "M 176.84 171.075 L 176.849 171.115"/><path d = "M 176.359 170.386 L 176.392 170.409"/><path d = "M 176.829 171.035 L 176.84 171.075"/><path d = "M 176.392 170.409 L 176.424 170.434"/><path d = "M 176.817 170.996 L 176.829 171.035"/><path d = "M 176.424 170.434 L 176.456 170.46"/><path d = "M 176.804 170.957 L 176.817 170.996"/><path d = "M 176.456 170.46 L 176.486 170.487"/><path d = "M 176.789 170.919 L 176.804 170.957"/><path d = "M 176.486 170.487 L 176.516 170.515"/><path d = "M 176.773 170.881 L 176.789 170.919"/><path d = "M 176.516 170.515 L 176.544 170.544"/><path d = "M 176.756 170.844 L 176.773 170.881"/><path d = "M 176.544 170.544 L 176.572 170.574"/><path d = "M 176.738 170.808 L 176.756 170.844"/><path d = "M 176.572 170.574 L 176.6 170.605"/><path d = "M 176.718 170.773 L 176.738 170.808"/><path d = "M 176.6 170.605 L 176.626 170.637"/><path d = "M 176.697 170.738 L 176.718 170.773"/><path d = "M 176.626 170.637 L 176.651 170.67"/><path d = "M 176.674 170.704 L 176.697 170.738"/><path d = "M 176.651 170.67 L 176.674 170.704"/><path d = "M 161.403 120.044 L 161.393 120.021"/><path d = "M 161.413 120.068 L 161.403 120.044"/><path d = "M 161.393 120.021 L 161.159 119.404"/><path d = "M 161.423 120.093 L 161.413 120.068"/><path d = "M 161.159 119.404 L 159.162 119.404"/><path d = "M 161.434 120.118 L 161.423 120.093"/><path d = "M 159.162 119.404 L 158.927 120.034"/><path d = "M 161.445 120.144 L 161.434 120.118"/><path d = "M 158.927 120.034 L 158.9 120.106"/><path d = "M 161.456 120.17 L 161.445 120.144"/><path d = "M 158.9 120.106 L 158.874 120.172"/><path d = "M 161.468 120.198 L 161.456 120.17"/><path d = "M 158.874 120.172 L 158.848 120.234"/><path d = "M 161.48 120.226 L 161.468 120.198"/><path d = "M 158.848 120.234 L 158.824 120.291"/><path d = "M 161.493 120.255 L 161.48 120.226"/><path d = "M 158.824 120.291 L 158.8 120.343"/><path d = "M 161.506 120.284 L 161.493 120.255"/><path d = "M 158.8 120.343 L 158.777 120.391"/><path d = "M 161.519 120.313 L 161.506 120.284"/><path d = "M 158.777 120.391 L 158.754 120.433"/><path d = "M 161.531 120.341 L 161.519 120.313"/><path d = "M 158.754 120.433 L 158.733 120.471"/><path d = "M 161.544 120.367 L 161.531 120.341"/><path d = "M 158.733 120.471 L 158.712 120.504"/><path d = "M 161.557 120.391 L 161.544 120.367"/><path d = "M 158.712 120.504 L 158.693 120.532"/><path d = "M 161.581 120.435 L 161.557 120.391"/><path d = "M 158.693 120.532 L 158.672 120.557"/><path d = "M 161.605 120.473 L 161.581 120.435"/><path d = "M 158.672 120.557 L 158.649 120.578"/><path d = "M 161.628 120.505 L 161.605 120.473"/><path d = "M 158.649 120.578 L 158.623 120.598"/><path d = "M 161.652 120.533 L 161.628 120.505"/><path d = "M 158.623 120.598 L 158.595 120.615"/><path d = "M 161.678 120.558 L 161.652 120.533"/><path d = "M 158.595 120.615 L 158.564 120.629"/><path d = "M 161.706 120.581 L 161.678 120.558"/><path d = "M 158.564 120.629 L 158.531 120.64"/><path d = "M 161.736 120.601 L 161.706 120.581"/><path d = "M 158.531 120.64 L 158.496 120.649"/><path d = "M 161.769 120.619 L 161.736 120.601"/><path d = "M 158.496 120.649 L 158.458 120.656"/><path d = "M 161.804 120.634 L 161.769 120.619"/><path d = "M 158.458 120.656 L 158.417 120.66"/><path d = "M 161.841 120.646 L 161.804 120.634"/><path d = "M 158.417 120.66 L 158.374 120.661"/><path d = "M 161.881 120.654 L 161.841 120.646"/><path d = "M 158.374 120.661 L 158.337 120.66"/><path d = "M 161.924 120.659 L 161.881 120.654"/><path d = "M 158.337 120.66 L 158.301 120.656"/><path d = "M 161.97 120.661 L 161.924 120.659"/><path d = "M 158.301 120.656 L 158.266 120.649"/><path d = "M 162.009 120.66 L 161.97 120.661"/><path d = "M 158.266 120.649 L 158.231 120.639"/><path d = "M 162.048 120.655 L 162.009 120.66"/><path d = "M 158.231 120.639 L 158.197 120.627"/><path d = "M 162.085 120.648 L 162.048 120.655"/><path d = "M 158.197 120.627 L 158.165 120.612"/><path d = "M 162.121 120.638 L 162.085 120.648"/><path d = "M 158.165 120.612 L 158.133 120.594"/><path d = "M 162.156 120.625 L 162.121 120.638"/><path d = "M 158.133 120.594 L 158.102 120.573"/><path d = "M 162.19 120.61 L 162.156 120.625"/><path d = "M 158.102 120.573 L 158.072 120.55"/><path d = "M 162.223 120.591 L 162.19 120.61"/><path d = "M 158.072 120.55 L 158.042 120.524"/><path d = "M 162.254 120.57 L 162.223 120.591"/><path d = "M 158.042 120.524 L 158.015 120.496"/><path d = "M 162.284 120.546 L 162.254 120.57"/><path d = "M 158.015 120.496 L 157.991 120.467"/><path d = "M 162.313 120.519 L 162.284 120.546"/><path d = "M 157.991 120.467 L 157.969 120.438"/><path d = "M 162.34 120.49 L 162.313 120.519"/><path d = "M 157.969 120.438 L 157.95 120.408"/><path d = "M 162.365 120.461 L 162.34 120.49"/><path d = "M 157.95 120.408 L 157.934 120.377"/><path d = "M 162.386 120.431 L 162.365 120.461"/><path d = "M 157.934 120.377 L 157.921 120.346"/><path d = "M 162.404 120.4 L 162.386 120.431"/><path d = "M 157.921 120.346 L 157.911 120.313"/><path d = "M 162.42 120.369 L 162.404 120.4"/><path d = "M 157.911 120.313 L 157.904 120.28"/><path d = "M 162.433 120.337 L 162.42 120.369"/><path d = "M 157.904 120.28 L 157.9 120.247"/><path d = "M 162.443 120.305 L 162.433 120.337"/><path d = "M 157.9 120.247 L 157.898 120.212"/><path d = "M 162.45 120.273 L 162.443 120.305"/><path d = "M 157.898 120.212 L 157.9 120.172"/><path d = "M 162.454 120.239 L 162.45 120.273"/><path d = "M 157.9 120.172 L 157.904 120.131"/><path d = "M 162.456 120.205 L 162.454 120.239"/><path d = "M 157.904 120.131 L 157.91 120.089"/><path d = "M 162.454 120.171 L 162.456 120.205"/><path d = "M 157.91 120.089 L 157.92 120.047"/><path d = "M 162.45 120.132 L 162.454 120.171"/><path d = "M 157.92 120.047 L 157.932 120.004"/><path d = "M 162.442 120.089 L 162.45 120.132"/><path d = "M 157.932 120.004 L 157.947 119.958"/><path d = "M 162.432 120.042 L 162.442 120.089"/><path d = "M 157.947 119.958 L 157.956 119.932"/><path d = "M 162.418 119.992 L 162.432 120.042"/><path d = "M 157.956 119.932 L 157.966 119.905"/><path d = "M 162.401 119.937 L 162.418 119.992"/><path d = "M 157.966 119.905 L 157.976 119.876"/><path d = "M 162.382 119.879 L 162.401 119.937"/><path d = "M 157.976 119.876 L 157.988 119.845"/><path d = "M 162.359 119.816 L 162.382 119.879"/><path d = "M 157.988 119.845 L 158 119.813"/><path d = "M 162.334 119.75 L 162.359 119.816"/><path d = "M 158 119.813 L 158.013 119.779"/><path d = "M 162.305 119.679 L 162.334 119.75"/><path d = "M 158.013 119.779 L 158.028 119.743"/><path d = "M 161.021 116.509 L 162.305 119.679"/><path d = "M 158.028 119.743 L 158.042 119.706"/><path d = "M 161.004 116.463 L 161.021 116.509"/><path d = "M 158.042 119.706 L 159.299 116.516"/><path d = "M 160.987 116.418 L 161.004 116.463"/><path d = "M 159.299 116.516 L 159.31 116.488"/><path d = "M 160.97 116.375 L 160.987 116.418"/><path d = "M 159.31 116.488 L 159.321 116.459"/><path d = "M 160.954 116.334 L 160.97 116.375"/><path d = "M 159.321 116.459 L 159.333 116.429"/><path d = "M 160.939 116.295 L 160.954 116.334"/><path d = "M 159.333 116.429 L 159.345 116.397"/><path d = "M 160.924 116.258 L 160.939 116.295"/><path d = "M 159.345 116.397 L 159.358 116.365"/><path d = "M 160.91 116.223 L 160.924 116.258"/><path d = "M 159.358 116.365 L 159.371 116.331"/><path d = "M 160.897 116.19 L 160.91 116.223"/><path d = "M 159.371 116.331 L 159.385 116.297"/><path d = "M 160.884 116.158 L 160.897 116.19"/><path d = "M 159.385 116.297 L 159.399 116.261"/><path d = "M 160.872 116.129 L 160.884 116.158"/><path d = "M 159.399 116.261 L 159.413 116.224"/><path d = "M 160.86 116.101 L 160.872 116.129"/><path d = "M 159.413 116.224 L 159.428 116.186"/><path d = "M 160.848 116.073 L 160.86 116.101"/><path d = "M 159.428 116.186 L 159.443 116.148"/><path d = "M 160.835 116.045 L 160.848 116.073"/><path d = "M 159.443 116.148 L 159.459 116.111"/><path d = "M 160.821 116.018 L 160.835 116.045"/><path d = "M 159.459 116.111 L 159.474 116.076"/><path d = "M 160.807 115.991 L 160.821 116.018"/><path d = "M 159.474 116.076 L 159.49 116.042"/><path d = "M 160.792 115.965 L 160.807 115.991"/><path d = "M 159.49 116.042 L 159.506 116.01"/><path d = "M 160.777 115.939 L 160.792 115.965"/><path d = "M 159.506 116.01 L 159.522 115.978"/><path d = "M 160.761 115.913 L 160.777 115.939"/><path d = "M 159.522 115.978 L 159.539 115.948"/><path d = "M 160.745 115.887 L 160.761 115.913"/><path d = "M 159.539 115.948 L 159.555 115.919"/><path d = "M 160.728 115.863 L 160.745 115.887"/><path d = "M 159.555 115.919 L 159.572 115.892"/><path d = "M 160.711 115.838 L 160.728 115.863"/><path d = "M 159.572 115.892 L 159.589 115.866"/><path d = "M 160.692 115.815 L 160.711 115.838"/><path d = "M 159.589 115.866 L 159.607 115.841"/><path d = "M 160.672 115.792 L 160.692 115.815"/><path d = "M 159.607 115.841 L 159.625 115.817"/><path d = "M 160.651 115.771 L 160.672 115.792"/><path d = "M 159.625 115.817 L 159.645 115.794"/><path d = "M 160.629 115.75 L 160.651 115.771"/><path d = "M 159.645 115.794 L 159.666 115.772"/><path d = "M 160.606 115.73 L 160.629 115.75"/><path d = "M 159.666 115.772 L 159.688 115.751"/><path d = "M 160.582 115.711 L 160.606 115.73"/><path d = "M 159.688 115.751 L 159.711 115.731"/><path d = "M 160.557 115.693 L 160.582 115.711"/><path d = "M 159.711 115.731 L 159.735 115.711"/><path d = "M 160.531 115.676 L 160.557 115.693"/><path d = "M 159.735 115.711 L 159.76 115.693"/><path d = "M 160.504 115.66 L 160.531 115.676"/><path d = "M 159.76 115.693 L 159.786 115.676"/><path d = "M 160.475 115.645 L 160.504 115.66"/><path d = "M 159.786 115.676 L 159.813 115.66"/><path d = "M 160.445 115.631 L 160.475 115.645"/><path d = "M 159.813 115.66 L 159.842 115.645"/><path d = "M 160.414 115.62 L 160.445 115.631"/><path d = "M 159.842 115.645 L 159.872 115.631"/><path d = "M 160.382 115.609 L 160.414 115.62"/><path d = "M 159.872 115.631 L 159.903 115.62"/><path d = "M 160.348 115.601 L 160.382 115.609"/><path d = "M 159.903 115.62 L 159.935 115.609"/><path d = "M 160.312 115.594 L 160.348 115.601"/><path d = "M 159.935 115.609 L 159.969 115.601"/><path d = "M 160.275 115.588 L 160.312 115.594"/><path d = "M 159.969 115.601 L 160.004 115.594"/><path d = "M 160.237 115.584 L 160.275 115.588"/><path d = "M 160.004 115.594 L 160.04 115.588"/><path d = "M 160.198 115.582 L 160.237 115.584"/><path d = "M 160.04 115.588 L 160.078 115.584"/><path d = "M 160.157 115.581 L 160.198 115.582"/><path d = "M 160.078 115.584 L 160.117 115.582"/><path d = "M 160.117 115.582 L 160.157 115.581"/><path d = "M 78.134 133.139 L 78.4775 133.139"/><path d = "M 78.018 133.142 L 78.134 133.139"/><path d = "M 78.4775 133.139 L 78.6295 133.135"/><path d = "M 77.9078 133.149 L 78.018 133.142"/><path d = "M 78.6295 133.135 L 78.7773 133.121"/><path d = "M 77.8035 133.161 L 77.9078 133.149"/><path d = "M 78.7773 133.121 L 78.9207 133.099"/><path d = "M 77.7051 133.179 L 77.8035 133.161"/><path d = "M 78.9207 133.099 L 79.0599 133.067"/><path d = "M 77.6125 133.201 L 77.7051 133.179"/><path d = "M 79.0599 133.067 L 79.1948 133.026"/><path d = "M 77.5258 133.228 L 77.6125 133.201"/><path d = "M 79.1948 133.026 L 79.3255 132.976"/><path d = "M 77.445 133.26 L 77.5258 133.228"/><path d = "M 79.3255 132.976 L 79.4518 132.918"/><path d = "M 77.37 133.297 L 77.445 133.26"/><path d = "M 79.4518 132.918 L 79.5739 132.85"/><path d = "M 77.3009 133.339 L 77.37 133.297"/><path d = "M 79.5739 132.85 L 79.6917 132.773"/><path d = "M 77.2376 133.386 L 77.3009 133.339"/><path d = "M 79.6917 132.773 L 79.8053 132.687"/><path d = "M 77.1804 133.437 L 77.2376 133.386"/><path d = "M 79.8053 132.687 L 79.9112 132.592"/><path d = "M 77.1291 133.491 L 77.1804 133.437"/><path d = "M 79.9112 132.592 L 80.0058 132.49"/><path d = "M 77.0839 133.549 L 77.1291 133.491"/><path d = "M 80.0058 132.49 L 80.0894 132.38"/><path d = "M 77.0446 133.609 L 77.0839 133.549"/><path d = "M 80.0894 132.38 L 80.1618 132.262"/><path d = "M 77.0115 133.672 L 77.0446 133.609"/><path d = "M 80.1618 132.262 L 80.2231 132.136"/><path d = "M 76.9843 133.739 L 77.0115 133.672"/><path d = "M 80.2231 132.136 L 80.2733 132.002"/><path d = "M 76.9632 133.808 L 76.9843 133.739"/><path d = "M 80.2733 132.002 L 80.3122 131.861"/><path d = "M 76.9481 133.881 L 76.9632 133.808"/><path d = "M 80.3122 131.861 L 80.3401 131.711"/><path d = "M 76.9391 133.957 L 76.9481 133.881"/><path d = "M 80.3401 131.711 L 80.3568 131.554"/><path d = "M 76.9361 134.036 L 76.9391 133.957"/><path d = "M 80.3568 131.554 L 80.3624 131.388"/><path d = "M 76.9386 134.116 L 76.9361 134.036"/><path d = "M 80.3624 131.388 L 80.3579 131.261"/><path d = "M 76.9461 134.193 L 76.9386 134.116"/><path d = "M 80.3579 131.261 L 80.3446 131.138"/><path d = "M 76.9587 134.266 L 76.9461 134.193"/><path d = "M 80.3446 131.138 L 80.3224 131.018"/><path d = "M 76.9763 134.335 L 76.9587 134.266"/><path d = "M 80.3224 131.018 L 80.2913 130.901"/><path d = "M 76.9989 134.401 L 76.9763 134.335"/><path d = "M 80.2913 130.901 L 80.2514 130.788"/><path d = "M 77.0266 134.463 L 76.9989 134.401"/><path d = "M 80.2514 130.788 L 80.2025 130.679"/><path d = "M 77.0592 134.522 L 77.0266 134.463"/><path d = "M 80.2025 130.679 L 80.1448 130.574"/><path d = "M 77.0969 134.577 L 77.0592 134.522"/><path d = "M 80.1448 130.574 L 80.0782 130.472"/><path d = "M 77.1396 134.629 L 77.0969 134.577"/><path d = "M 80.0782 130.472 L 80.0027 130.373"/><path d = "M 77.1874 134.676 L 77.1396 134.629"/><path d = "M 80.0027 130.373 L 79.9184 130.278"/><path d = "M 77.2397 134.72 L 77.1874 134.676"/><path d = "M 79.9184 130.278 L 79.8265 130.19"/><path d = "M 77.2963 134.759 L 77.2397 134.72"/><path d = "M 79.8265 130.19 L 79.7284 130.111"/><path d = "M 77.357 134.794 L 77.2963 134.759"/><path d = "M 79.7284 130.111 L 79.6241 130.041"/><path d = "M 77.422 134.824 L 77.357 134.794"/><path d = "M 79.6241 130.041 L 79.5136 129.981"/><path d = "M 77.4911 134.849 L 77.422 134.824"/><path d = "M 79.5136 129.981 L 79.3969 129.93"/><path d = "M 77.5644 134.87 L 77.4911 134.849"/><path d = "M 79.3969 129.93 L 79.274 129.888"/><path d = "M 77.6419 134.886 L 77.5644 134.87"/><path d = "M 79.274 129.888 L 79.1449 129.855"/><path d = "M 77.7235 134.898 L 77.6419 134.886"/><path d = "M 79.1449 129.855 L 79.0096 129.832"/><path d = "M 77.8094 134.905 L 77.7235 134.898"/><path d = "M 79.0096 129.832 L 78.8681 129.818"/><path d = "M 77.9221 134.907 L 77.8094 134.905"/><path d = "M 78.8681 129.818 L 78.7204 129.813"/><path d = "M 77.9497 134.906 L 77.9221 134.907"/><path d = "M 78.7204 129.813 L 78.62 129.815"/><path d = "M 77.9824 134.904 L 77.9497 134.906"/><path d = "M 78.62 129.815 L 78.5232 129.819"/><path d = "M 78.0201 134.902 L 77.9824 134.904"/><path d = "M 78.5232 129.819 L 78.43 129.826"/><path d = "M 78.0628 134.898 L 78.0201 134.902"/><path d = "M 78.43 129.826 L 78.3404 129.836"/><path d = "M 78.1106 134.895 L 78.0628 134.898"/><path d = "M 78.3404 129.836 L 78.2544 129.849"/><path d = "M 78.1634 134.89 L 78.1106 134.895"/><path d = "M 78.2544 129.849 L 78.1721 129.865"/><path d = "M 78.2211 134.885 L 78.1634 134.89"/><path d = "M 78.1721 129.865 L 78.0933 129.883"/><path d = "M 78.284 134.88 L 78.2211 134.885"/><path d = "M 78.0933 129.883 L 78.0181 129.905"/><path d = "M 78.3518 134.873 L 78.284 134.88"/><path d = "M 78.0181 129.905 L 77.9465 129.929"/><path d = "M 78.4204 134.867 L 78.3518 134.873"/><path d = "M 77.9465 129.929 L 77.8785 129.956"/><path d = "M 78.4852 134.861 L 78.4204 134.867"/><path d = "M 77.8785 129.956 L 77.8137 129.985"/><path d = "M 78.5464 134.856 L 78.4852 134.861"/><path d = "M 77.8137 129.985 L 77.7517 130.017"/><path d = "M 78.6038 134.852 L 78.5464 134.856"/><path d = "M 77.7517 130.017 L 77.6924 130.05"/><path d = "M 78.6576 134.848 L 78.6038 134.852"/><path d = "M 77.6924 130.05 L 77.6359 130.085"/><path d = "M 78.7077 134.845 L 78.6576 134.848"/><path d = "M 77.6359 130.085 L 77.5822 130.121"/><path d = "M 78.7541 134.843 L 78.7077 134.845"/><path d = "M 77.5822 130.121 L 77.5312 130.16"/><path d = "M 78.7968 134.841 L 78.7541 134.843"/><path d = "M 77.5312 130.16 L 77.483 130.2"/><path d = "M 78.8359 134.84 L 78.7968 134.841"/><path d = "M 77.483 130.2 L 77.4375 130.243"/><path d = "M 78.8712 134.84 L 78.8359 134.84"/><path d = "M 77.4375 130.243 L 77.3949 130.287"/><path d = "M 79.058 134.845 L 78.8712 134.84"/><path d = "M 77.3949 130.287 L 77.3549 130.333"/><path d = "M 79.2365 134.862 L 79.058 134.845"/><path d = "M 77.3549 130.333 L 77.3166 130.381"/><path d = "M 79.4065 134.89 L 79.2365 134.862"/><path d = "M 77.3166 130.381 L 77.2787 130.432"/><path d = "M 79.5682 134.929 L 79.4065 134.89"/><path d = "M 77.2787 130.432 L 77.2412 130.486"/><path d = "M 79.7215 134.979 L 79.5682 134.929"/><path d = "M 77.2412 130.486 L 77.2042 130.542"/><path d = "M 79.8665 135.04 L 79.7215 134.979"/><path d = "M 77.2042 130.542 L 77.1675 130.601"/><path d = "M 80.003 135.113 L 79.8665 135.04"/><path d = "M 77.1675 130.601 L 77.1313 130.663"/><path d = "M 80.1312 135.196 L 80.003 135.113"/><path d = "M 77.1313 130.663 L 77.0954 130.727"/><path d = "M 80.251 135.291 L 80.1312 135.196"/><path d = "M 77.0954 130.727 L 77.0601 130.794"/><path d = "M 80.3624 135.397 L 80.251 135.291"/><path d = "M 77.0601 130.794 L 77.0251 130.864"/><path d = "M 80.4643 135.513 L 80.3624 135.397"/><path d = "M 77.0251 130.864 L 76.9905 130.936"/><path d = "M 80.5554 135.637 L 80.4643 135.513"/><path d = "M 76.9905 130.936 L 76.9565 131.009"/><path d = "M 80.6358 135.769 L 80.5554 135.637"/><path d = "M 76.9565 131.009 L 76.923 131.082"/><path d = "M 80.7055 135.91 L 80.6358 135.769"/><path d = "M 76.923 131.082 L 76.8901 131.153"/><path d = "M 80.7645 136.06 L 80.7055 135.91"/><path d = "M 76.8901 131.153 L 76.8578 131.224"/><path d = "M 80.8127 136.218 L 80.7645 136.06"/><path d = "M 76.8578 131.224 L 76.8261 131.294"/><path d = "M 80.8503 136.384 L 80.8127 136.218"/><path d = "M 76.8261 131.294 L 76.795 131.363"/><path d = "M 80.8771 136.559 L 80.8503 136.384"/><path d = "M 76.795 131.363 L 76.7645 131.432"/><path d = "M 80.8932 136.742 L 80.8771 136.559"/><path d = "M 76.7645 131.432 L 76.7345 131.499"/><path d = "M 80.8985 136.934 L 80.8932 136.742"/><path d = "M 76.7345 131.499 L 76.7051 131.566"/><path d = "M 80.8954 137.065 L 80.8985 136.934"/><path d = "M 76.7051 131.566 L 76.6764 131.631"/><path d = "M 80.886 137.193 L 80.8954 137.065"/><path d = "M 76.6764 131.631 L 76.6583 131.666"/><path d = "M 80.8703 137.317 L 80.886 137.193"/><path d = "M 76.6583 131.666 L 76.6375 131.699"/><path d = "M 80.8483 137.438 L 80.8703 137.317"/><path d = "M 76.6375 131.699 L 76.6141 131.73"/><path d = "M 80.82 137.556 L 80.8483 137.438"/><path d = "M 76.6141 131.73 L 76.5879 131.76"/><path d = "M 80.7854 137.671 L 80.82 137.556"/><path d = "M 76.5879 131.76 L 76.5591 131.788"/><path d = "M 80.7446 137.783 L 80.7854 137.671"/><path d = "M 76.5591 131.788 L 76.5276 131.815"/><path d = "M 80.6975 137.891 L 80.7446 137.783"/><path d = "M 76.5276 131.815 L 76.4934 131.841"/><path d = "M 80.6441 137.997 L 80.6975 137.891"/><path d = "M 76.4934 131.841 L 76.4566 131.865"/><path d = "M 80.5844 138.099 L 80.6441 137.997"/><path d = "M 76.4566 131.865 L 76.417 131.887"/><path d = "M 80.5199 138.197 L 80.5844 138.099"/><path d = "M 76.417 131.887 L 76.3748 131.908"/><path d = "M 80.452 138.29 L 80.5199 138.197"/><path d = "M 76.3748 131.908 L 76.3306 131.927"/><path d = "M 80.3808 138.378 L 80.452 138.29"/><path d = "M 76.3306 131.927 L 76.285 131.944"/><path d = "M 80.3063 138.461 L 80.3808 138.378"/><path d = "M 76.285 131.944 L 76.2381 131.959"/><path d = "M 80.2284 138.539 L 80.3063 138.461"/><path d = "M 76.2381 131.959 L 76.1898 131.972"/><path d = "M 80.1471 138.613 L 80.2284 138.539"/><path d = "M 76.1898 131.972 L 76.1402 131.983"/><path d = "M 80.0625 138.681 L 80.1471 138.613"/><path d = "M 76.1402 131.983 L 76.0893 131.992"/><path d = "M 79.9745 138.745 L 80.0625 138.681"/><path d = "M 76.0893 131.992 L 76.037 131.999"/><path d = "M 79.8832 138.803 L 79.9745 138.745"/><path d = "M 76.037 131.999 L 75.9834 132.004"/><path d = "M 79.7886 138.857 L 79.8832 138.803"/><path d = "M 75.9834 132.004 L 75.9284 132.007"/><path d = "M 79.6918 138.905 L 79.7886 138.857"/><path d = "M 75.9284 132.007 L 75.8721 132.008"/><path d = "M 79.5944 138.949 L 79.6918 138.905"/><path d = "M 75.8721 132.008 L 75.8057 132.006"/><path d = "M 79.4961 138.987 L 79.5944 138.949"/><path d = "M 75.8057 132.006 L 75.7403 131.997"/><path d = "M 79.3972 139.02 L 79.4961 138.987"/><path d = "M 75.7403 131.997 L 75.676 131.984"/><path d = "M 79.2974 139.048 L 79.3972 139.02"/><path d = "M 75.676 131.984 L 75.6128 131.965"/><path d = "M 79.1969 139.071 L 79.2974 139.048"/><path d = "M 75.6128 131.965 L 75.5507 131.94"/><path d = "M 79.0957 139.089 L 79.1969 139.071"/><path d = "M 75.5507 131.94 L 75.4897 131.91"/><path d = "M 78.9937 139.102 L 79.0957 139.089"/><path d = "M 75.4897 131.91 L 75.4297 131.875"/><path d = "M 78.891 139.11 L 78.9937 139.102"/><path d = "M 75.4297 131.875 L 75.3709 131.834"/><path d = "M 78.7875 139.112 L 78.891 139.11"/><path d = "M 75.3709 131.834 L 75.3131 131.788"/><path d = "M 78.6106 139.107 L 78.7875 139.112"/><path d = "M 75.3131 131.788 L 75.2564 131.736"/><path d = "M 78.4418 139.09 L 78.6106 139.107"/><path d = "M 75.2564 131.736 L 75.2031 131.68"/><path d = "M 78.2812 139.061 L 78.4418 139.09"/><path d = "M 75.2031 131.68 L 75.1554 131.62"/><path d = "M 78.1287 139.022 L 78.2812 139.061"/><path d = "M 75.1554 131.62 L 75.1133 131.556"/><path d = "M 77.9843 138.971 L 78.1287 139.022"/><path d = "M 75.1133 131.556 L 75.0768 131.489"/><path d = "M 77.848 138.909 L 77.9843 138.971"/><path d = "M 75.0768 131.489 L 75.0459 131.419"/><path d = "M 77.7199 138.835 L 77.848 138.909"/><path d = "M 75.0459 131.419 L 75.0207 131.344"/><path d = "M 77.5999 138.75 L 77.7199 138.835"/><path d = "M 75.0207 131.344 L 75.001 131.267"/><path d = "M 77.488 138.654 L 77.5999 138.75"/><path d = "M 75.001 131.267 L 74.987 131.185"/><path d = "M 77.3843 138.547 L 77.488 138.654"/><path d = "M 74.987 131.185 L 74.9786 131.1"/><path d = "M 77.2852 138.428 L 77.3843 138.547"/><path d = "M 74.9786 131.1 L 74.9758 131.011"/><path d = "M 77.1874 138.297 L 77.2852 138.428"/><path d = "M 74.9758 131.011 L 74.9784 130.924"/><path d = "M 77.0909 138.154 L 77.1874 138.297"/><path d = "M 74.9784 130.924 L 74.9863 130.835"/><path d = "M 76.9955 137.999 L 77.0909 138.154"/><path d = "M 74.9863 130.835 L 74.9995 130.746"/><path d = "M 76.9015 137.832 L 76.9955 137.999"/><path d = "M 74.9995 130.746 L 75.018 130.656"/><path d = "M 76.8087 137.653 L 76.9015 137.832"/><path d = "M 75.018 130.656 L 75.0417 130.564"/><path d = "M 76.7172 137.462 L 76.8087 137.653"/><path d = "M 75.0417 130.564 L 75.0708 130.472"/><path d = "M 76.6269 137.259 L 76.7172 137.462"/><path d = "M 75.0708 130.472 L 75.1051 130.379"/><path d = "M 76.5379 137.044 L 76.6269 137.259"/><path d = "M 75.1051 130.379 L 75.1447 130.285"/><path d = "M 76.4502 136.817 L 76.5379 137.044"/><path d = "M 75.1447 130.285 L 75.1895 130.19"/><path d = "M 76.4353 136.779 L 76.4502 136.817"/><path d = "M 75.1895 130.19 L 75.2397 130.094"/><path d = "M 76.4173 136.742 L 76.4353 136.779"/><path d = "M 75.2397 130.094 L 75.2949 129.998"/><path d = "M 76.3964 136.706 L 76.4173 136.742"/><path d = "M 75.2949 129.998 L 75.3549 129.903"/><path d = "M 76.3724 136.671 L 76.3964 136.706"/><path d = "M 75.3549 129.903 L 75.4199 129.809"/><path d = "M 76.3455 136.638 L 76.3724 136.671"/><path d = "M 75.4199 129.809 L 75.4897 129.716"/><path d = "M 76.3155 136.605 L 76.3455 136.638"/><path d = "M 75.4897 129.716 L 75.5643 129.624"/><path d = "M 76.2825 136.574 L 76.3155 136.605"/><path d = "M 75.5643 129.624 L 75.6438 129.533"/><path d = "M 76.2464 136.543 L 76.2825 136.574"/><path d = "M 75.6438 129.533 L 75.7281 129.442"/><path d = "M 76.2074 136.514 L 76.2464 136.543"/><path d = "M 75.7281 129.442 L 75.8174 129.353"/><path d = "M 76.1654 136.486 L 76.2074 136.514"/><path d = "M 75.8174 129.353 L 75.9114 129.264"/><path d = "M 76.1216 136.46 L 76.1654 136.486"/><path d = "M 75.9114 129.264 L 76.0104 129.177"/><path d = "M 76.0776 136.436 L 76.1216 136.46"/><path d = "M 76.0104 129.177 L 76.1142 129.091"/><path d = "M 76.0332 136.415 L 76.0776 136.436"/><path d = "M 76.1142 129.091 L 76.223 129.009"/><path d = "M 75.9884 136.398 L 76.0332 136.415"/><path d = "M 76.223 129.009 L 76.3367 128.931"/><path d = "M 75.9434 136.382 L 75.9884 136.398"/><path d = "M 76.3367 128.931 L 76.4554 128.856"/><path d = "M 75.8979 136.37 L 75.9434 136.382"/><path d = "M 76.4554 128.856 L 76.579 128.784"/><path d = "M 75.8522 136.36 L 75.8979 136.37"/><path d = "M 76.579 128.784 L 76.7075 128.716"/><path d = "M 75.8061 136.353 L 75.8522 136.36"/><path d = "M 76.7075 128.716 L 76.841 128.651"/><path d = "M 75.7597 136.349 L 75.8061 136.353"/><path d = "M 76.841 128.651 L 76.9795 128.59"/><path d = "M 75.713 136.348 L 75.7597 136.349"/><path d = "M 76.9795 128.59 L 77.1228 128.532"/><path d = "M 75.6207 136.351 L 75.713 136.348"/><path d = "M 77.1228 128.532 L 77.2711 128.477"/><path d = "M 75.5315 136.36 L 75.6207 136.351"/><path d = "M 77.2711 128.477 L 77.4237 128.427"/><path d = "M 75.4455 136.375 L 75.5315 136.36"/><path d = "M 77.4237 128.427 L 77.5798 128.382"/><path d = "M 75.3625 136.395 L 75.4455 136.375"/><path d = "M 77.5798 128.382 L 77.7394 128.343"/><path d = "M 75.2826 136.422 L 75.3625 136.395"/><path d = "M 77.7394 128.343 L 77.9025 128.308"/><path d = "M 75.2058 136.455 L 75.2826 136.422"/><path d = "M 77.9025 128.308 L 78.0691 128.279"/><path d = "M 75.1321 136.493 L 75.2058 136.455"/><path d = "M 78.0691 128.279 L 78.2393 128.256"/><path d = "M 75.0616 136.538 L 75.1321 136.493"/><path d = "M 78.2393 128.256 L 78.4129 128.237"/><path d = "M 74.9941 136.589 L 75.0616 136.538"/><path d = "M 78.4129 128.237 L 78.5901 128.224"/><path d = "M 74.9297 136.645 L 74.9941 136.589"/><path d = "M 78.5901 128.224 L 78.7708 128.216"/><path d = "M 74.87 136.707 L 74.9297 136.645"/><path d = "M 78.7708 128.216 L 78.955 128.213"/><path d = "M 74.8166 136.772 L 74.87 136.707"/><path d = "M 78.955 128.213 L 79.1161 128.216"/><path d = "M 74.7695 136.841 L 74.8166 136.772"/><path d = "M 79.1161 128.216 L 79.2744 128.222"/><path d = "M 74.7286 136.913 L 74.7695 136.841"/><path d = "M 79.2744 128.222 L 79.4297 128.233"/><path d = "M 74.6941 136.99 L 74.7286 136.913"/><path d = "M 79.4297 128.233 L 79.5823 128.249"/><path d = "M 74.6658 137.07 L 74.6941 136.99"/><path d = "M 79.5823 128.249 L 79.732 128.269"/><path d = "M 74.6438 137.154 L 74.6658 137.07"/><path d = "M 79.732 128.269 L 79.8788 128.293"/><path d = "M 74.6281 137.242 L 74.6438 137.154"/><path d = "M 79.8788 128.293 L 80.0229 128.322"/><path d = "M 74.6187 137.333 L 74.6281 137.242"/><path d = "M 80.0229 128.322 L 80.164 128.355"/><path d = "M 74.6156 137.428 L 74.6187 137.333"/><path d = "M 80.164 128.355 L 80.3023 128.393"/><path d = "M 74.6182 137.506 L 74.6156 137.428"/><path d = "M 80.3023 128.393 L 80.4378 128.435"/><path d = "M 74.6261 137.587 L 74.6182 137.506"/><path d = "M 80.4378 128.435 L 80.5701 128.482"/><path d = "M 74.6393 137.673 L 74.6261 137.587"/><path d = "M 80.5701 128.482 L 80.6988 128.532"/><path d = "M 74.6578 137.762 L 74.6393 137.673"/><path d = "M 80.6988 128.532 L 80.8241 128.586"/><path d = "M 74.6815 137.856 L 74.6578 137.762"/><path d = "M 80.8241 128.586 L 80.9458 128.645"/><path d = "M 74.7106 137.953 L 74.6815 137.856"/><path d = "M 80.9458 128.645 L 81.064 128.707"/><path d = "M 74.7449 138.055 L 74.7106 137.953"/><path d = "M 81.064 128.707 L 81.1787 128.773"/><path d = "M 74.7845 138.16 L 74.7449 138.055"/><path d = "M 81.1787 128.773 L 81.2898 128.843"/><path d = "M 74.8293 138.27 L 74.7845 138.16"/><path d = "M 81.2898 128.843 L 81.3975 128.917"/><path d = "M 74.8794 138.383 L 74.8293 138.27"/><path d = "M 81.3975 128.917 L 81.5016 128.994"/><path d = "M 74.9347 138.499 L 74.8794 138.383"/><path d = "M 81.5016 128.994 L 81.6022 129.076"/><path d = "M 74.995 138.613 L 74.9347 138.499"/><path d = "M 81.6022 129.076 L 81.6987 129.161"/><path d = "M 75.0604 138.727 L 74.995 138.613"/><path d = "M 81.6987 129.161 L 81.7902 129.249"/><path d = "M 75.1308 138.84 L 75.0604 138.727"/><path d = "M 81.7902 129.249 L 81.8769 129.34"/><path d = "M 75.2062 138.952 L 75.1308 138.84"/><path d = "M 81.8769 129.34 L 81.9588 129.433"/><path d = "M 75.2866 139.064 L 75.2062 138.952"/><path d = "M 81.9588 129.433 L 82.0358 129.529"/><path d = "M 75.372 139.174 L 75.2866 139.064"/><path d = "M 82.0358 129.529 L 82.1079 129.627"/><path d = "M 75.4625 139.284 L 75.372 139.174"/><path d = "M 82.1079 129.627 L 82.1752 129.728"/><path d = "M 75.558 139.393 L 75.4625 139.284"/><path d = "M 82.1752 129.728 L 82.2376 129.832"/><path d = "M 75.6585 139.502 L 75.558 139.393"/><path d = "M 82.2376 129.832 L 82.2951 129.939"/><path d = "M 75.7644 139.608 L 75.6585 139.502"/><path d = "M 82.2951 129.939 L 82.3478 130.048"/><path d = "M 75.8758 139.711 L 75.7644 139.608"/><path d = "M 82.3478 130.048 L 82.3956 130.159"/><path d = "M 75.9929 139.81 L 75.8758 139.711"/><path d = "M 82.3956 130.159 L 82.4383 130.273"/><path d = "M 76.1156 139.905 L 75.9929 139.81"/><path d = "M 82.4383 130.273 L 82.476 130.387"/><path d = "M 76.2439 139.997 L 76.1156 139.905"/><path d = "M 82.476 130.387 L 82.5087 130.504"/><path d = "M 76.3778 140.085 L 76.2439 139.997"/><path d = "M 82.5087 130.504 L 82.5363 130.622"/><path d = "M 76.5173 140.17 L 76.3778 140.085"/><path d = "M 82.5363 130.622 L 82.5589 130.742"/><path d = "M 76.6625 140.251 L 76.5173 140.17"/><path d = "M 82.5589 130.742 L 82.5765 130.863"/><path d = "M 76.8132 140.329 L 76.6625 140.251"/><path d = "M 82.5765 130.863 L 82.5891 130.986"/><path d = "M 76.9696 140.402 L 76.8132 140.329"/><path d = "M 82.5891 130.986 L 82.5966 131.111"/><path d = "M 77.1308 140.471 L 76.9696 140.402"/><path d = "M 82.5966 131.111 L 82.5991 131.238"/><path d = "M 77.2963 140.532 L 77.1308 140.471"/><path d = "M 82.5991 131.238 L 82.5955 131.403"/><path d = "M 77.4659 140.586 L 77.2963 140.532"/><path d = "M 82.5955 131.403 L 82.5846 131.563"/><path d = "M 77.6398 140.633 L 77.4659 140.586"/><path d = "M 82.5846 131.563 L 82.5663 131.719"/><path d = "M 77.8178 140.673 L 77.6398 140.633"/><path d = "M 82.5663 131.719 L 82.5408 131.87"/><path d = "M 78 140.705 L 77.8178 140.673"/><path d = "M 82.5408 131.87 L 82.508 132.016"/><path d = "M 78.1864 140.73 L 78 140.705"/><path d = "M 82.508 132.016 L 82.4679 132.157"/><path d = "M 78.377 140.748 L 78.1864 140.73"/><path d = "M 82.4679 132.157 L 82.4206 132.293"/><path d = "M 78.5717 140.759 L 78.377 140.748"/><path d = "M 82.4206 132.293 L 82.3659 132.425"/><path d = "M 78.7707 140.763 L 78.5717 140.759"/><path d = "M 82.3659 132.425 L 82.304 132.552"/><path d = "M 78.9667 140.759 L 78.7707 140.763"/><path d = "M 82.304 132.552 L 82.2347 132.674"/><path d = "M 79.1592 140.75 L 78.9667 140.759"/><path d = "M 82.2347 132.674 L 82.1587 132.794"/><path d = "M 79.3484 140.734 L 79.1592 140.75"/><path d = "M 82.1587 132.794 L 82.0764 132.913"/><path d = "M 79.534 140.712 L 79.3484 140.734"/><path d = "M 82.0764 132.913 L 81.9878 133.031"/><path d = "M 79.7163 140.684 L 79.534 140.712"/><path d = "M 81.9878 133.031 L 81.8929 133.149"/><path d = "M 79.8951 140.65 L 79.7163 140.684"/><path d = "M 81.8929 133.149 L 81.7918 133.266"/><path d = "M 80.0705 140.609 L 79.8951 140.65"/><path d = "M 81.7918 133.266 L 81.6843 133.383"/><path d = "M 80.2424 140.562 L 80.0705 140.609"/><path d = "M 81.6843 133.383 L 81.5706 133.499"/><path d = "M 80.4109 140.508 L 80.2424 140.562"/><path d = "M 81.5706 133.499 L 81.4506 133.614"/><path d = "M 80.576 140.448 L 80.4109 140.508"/><path d = "M 81.4506 133.614 L 81.3243 133.729"/><path d = "M 80.7371 140.383 L 80.576 140.448"/><path d = "M 81.3243 133.729 L 81.1917 133.843"/><path d = "M 80.8939 140.313 L 80.7371 140.383"/><path d = "M 81.1917 133.843 L 81.3204 133.914"/><path d = "M 81.0461 140.238 L 80.8939 140.313"/><path d = "M 81.3204 133.914 L 81.4449 133.988"/><path d = "M 81.1939 140.158 L 81.0461 140.238"/><path d = "M 81.4449 133.988 L 81.5653 134.063"/><path d = "M 81.3373 140.074 L 81.1939 140.158"/><path d = "M 81.5653 134.063 L 81.6816 134.141"/><path d = "M 81.4762 139.984 L 81.3373 140.074"/><path d = "M 81.6816 134.141 L 81.7939 134.22"/><path d = "M 81.6107 139.89 L 81.4762 139.984"/><path d = "M 81.7939 134.22 L 81.902 134.301"/><path d = "M 81.7408 139.79 L 81.6107 139.89"/><path d = "M 81.902 134.301 L 82.006 134.385"/><path d = "M 81.8664 139.686 L 81.7408 139.79"/><path d = "M 82.006 134.385 L 82.1059 134.47"/><path d = "M 81.9876 139.577 L 81.8664 139.686"/><path d = "M 82.1059 134.47 L 82.2017 134.558"/><path d = "M 82.1037 139.464 L 81.9876 139.577"/><path d = "M 82.2017 134.558 L 82.2934 134.647"/><path d = "M 82.2139 139.348 L 82.1037 139.464"/><path d = "M 82.2934 134.647 L 82.3808 134.739"/><path d = "M 82.3184 139.229 L 82.2139 139.348"/><path d = "M 82.3808 134.739 L 82.4638 134.832"/><path d = "M 82.4172 139.107 L 82.3184 139.229"/><path d = "M 82.4638 134.832 L 82.5423 134.927"/><path d = "M 82.5101 138.981 L 82.4172 139.107"/><path d = "M 82.5423 134.927 L 82.6164 135.024"/><path d = "M 82.5973 138.853 L 82.5101 138.981"/><path d = "M 82.6164 135.024 L 82.6861 135.124"/><path d = "M 82.6787 138.721 L 82.5973 138.853"/><path d = "M 82.6861 135.124 L 82.7513 135.225"/><path d = "M 82.7543 138.587 L 82.6787 138.721"/><path d = "M 82.7513 135.225 L 82.812 135.328"/><path d = "M 82.8241 138.449 L 82.7543 138.587"/><path d = "M 82.812 135.328 L 82.8684 135.433"/><path d = "M 82.8881 138.308 L 82.8241 138.449"/><path d = "M 82.8684 135.433 L 82.9203 135.539"/><path d = "M 82.9463 138.165 L 82.8881 138.308"/><path d = "M 82.9203 135.539 L 82.9677 135.648"/><path d = "M 82.9982 138.021 L 82.9463 138.165"/><path d = "M 82.9677 135.648 L 83.0107 135.759"/><path d = "M 83.0441 137.876 L 82.9982 138.021"/><path d = "M 83.0107 135.759 L 83.0491 135.871"/><path d = "M 83.0838 137.73 L 83.0441 137.876"/><path d = "M 83.0491 135.871 L 83.0831 135.985"/><path d = "M 83.1175 137.583 L 83.0838 137.73"/><path d = "M 83.0831 135.985 L 83.1125 136.101"/><path d = "M 83.145 137.435 L 83.1175 137.583"/><path d = "M 83.1125 136.101 L 83.1374 136.219"/><path d = "M 83.1664 137.287 L 83.145 137.435"/><path d = "M 83.1374 136.219 L 83.1577 136.338"/><path d = "M 83.1817 137.137 L 83.1664 137.287"/><path d = "M 83.1577 136.338 L 83.1736 136.46"/><path d = "M 83.1909 136.986 L 83.1817 137.137"/><path d = "M 83.1736 136.46 L 83.1849 136.582"/><path d = "M 83.1939 136.834 L 83.1909 136.986"/><path d = "M 83.1849 136.582 L 83.1917 136.707"/><path d = "M 83.1917 136.707 L 83.1939 136.834"/><path d = "M 110.743 101 L 109.299 103.5"/><path d = "M 113.629 101 L 110.743 101"/><path d = "M 109.299 103.5 L 110.743 106"/><path d = "M 115.073 103.5 L 113.629 101"/><path d = "M 110.743 106 L 113.629 106"/><path d = "M 113.629 106 L 115.073 103.5"/><path d = "M 113.629 194 L 110.743 194"/><path d = "M 115.073 196.5 L 113.629 194"/><path d = "M 110.743 194 L 109.299 196.5"/><path d = "M 113.629 199 L 115.073 196.5"/><path d = "M 109.299 196.5 L 110.743 199"/><path d = "M 110.743 199 L 113.629 199"/><path d = "M 197.243 101 L 195.799 103.5"/><path d = "M 200.129 101 L 197.243 101"/><path d = "M 195.799 103.5 L 197.243 106"/><path d = "M 201.573 103.5 L 200.129 101"/><path d = "M 197.243 106 L 200.129 106"/><path d = "M 200.129 106 L 201.573 103.5"/><path d = "M 197.243 194 L 195.799 196.5"/><path d = "M 200.129 194 L 197.243 194"/><path d = "M 195.799 196.5 L 197.243 199"/><path d = "M 201.573 196.5 L 200.129 194"/><path d = "M 197.243 199 L 200.129 199"/><path d = "M 200.129 199 L 201.573 196.5"/><path d = "M 93.185959 130.99998 A 3 3 0 1 0 87.185959 130.99998"/><path d = "M 93.186 149 L 93.186 131"/><path d = "M 87.185959 148.99998 A 3 3 0 1 0 93.185959 148.99998"/><path d = "M 87.186 131 L 87.186 149"/></g></svg>
