<?xml version='1.0' encoding='UTF-8' ?>
<!DOCTYPE svg PUBLIC "-//W3C//DTD SVG 1.1//EN" "http://www.w3.org/Graphics/SVG/1.1/DTD/svg11.dtd" [ 
 <!ATTLIST svg 
                                               xmlns:dsy CDATA #FIXED "http://www.3ds.com/print"  
                                               dsy:text-version CDATA #IMPLIED > 

                                               <!ATTLIST text 
                                               xmlns:dsy CDATA #FIXED "http://www.3ds.com/print" 
                                               dsy:text-version CDATA #IMPLIED > 
                                                ]>
<svg style = "background : rgb(255,255,255)" width = "300mm" xmlns = "http://www.w3.org/2000/svg" height = "300mm" version = "1.1" viewBox = "0 0 300 300" xmlns:dsy = "http://www.3ds.com/print" xmlns:xlink = "http://www.w3.org/1999/xlink" dsy:text-version = "21000"><g fill = "none" stroke = "rgb(255, 0, 0)" stroke-width = "0.13" stroke-linecap = "butt" stroke-linejoin = "miter"><circle r = "1.75" cx = "198.68596" cy = "196.49998"/><circle r = "1.75" cx = "112.18595" cy = "103.49998"/><circle r = "1.75" cx = "198.68596" cy = "103.49998"/><circle r = "1.75" cx = "112.18595" cy = "196.49998"/><circle r = "2.5" cx = "189.68596" cy = "214.9519"/><circle r = "2.5" cx = "77.185959" cy = "149.99998"/><circle r = "2.5" cx = "189.68596" cy = "85.04808"/><path d = "M 192.186 193 L 192.186 198"/><path d = "M 195.18596 189.99998 A 3 3 0 0 0 192.18596 192.99998"/><path d = "M 189.18596 200.99998 A 3 3 0 0 0 192.18596 197.99998"/><path d = "M 200.186 190 L 195.186 190"/><path d = "M 200.18596 189.99998 A 3 3 0 0 0 203.18596 186.99998"/><path d = "M 189.186 201 L 145.044 201"/><path d = "M 144.54387 200.86601 A 1 1 0 0 0 145.04387 200.99998"/><path d = "M 203.186 187 L 203.186 161.749"/><path d = "M 203.18596 161.74913 A 3 3 0 0 0 200.70691 158.79471"/><path d = "M 143.516 200.273 L 144.544 200.866"/><path d = "M 143.01608 199.40659 A 1 1 0 0 0 143.51608 200.27261"/><path d = "M 181.665 155.437 L 200.707 158.795"/><path d = "M 179.18596 152.48268 A 3 3 0 0 0 181.66501 155.4371"/><path d = "M 143.016 177.615 L 143.016 199.407"/><path d = "M 143.01608 177.61472 A 3 3 0 0 0 141.51608 175.01665"/><path d = "M 179.186 147.517 L 179.186 152.483"/><path d = "M 181.66501 144.56287 A 3 3 0 0 0 179.18596 147.51729"/><path d = "M 135.856 171.749 L 141.516 175.017"/><path d = "M 135.85583 171.7487 A 3 3 0 0 0 132.85583 171.7487"/><path d = "M 181.665 144.563 L 200.707 141.205"/><path d = "M 200.70691 141.20526 A 3 3 0 0 0 203.18596 138.25084"/><path d = "M 105.686 187.435 L 132.856 171.749"/><path d = "M 101.18596 184.83716 A 3 3 0 0 0 105.68596 187.43524"/><path d = "M 203.186 113 L 203.186 138.251"/><path d = "M 203.18596 112.99998 A 3 3 0 0 0 200.18596 109.99998"/><path d = "M 195.186 110 L 200.186 110"/><path d = "M 192.18596 106.99998 A 3 3 0 0 0 195.18596 109.99998"/><path d = "M 105.68596 112.56473 A 3 3 0 0 0 101.18596 115.16281"/><path d = "M 192.186 102 L 192.186 107"/><path d = "M 192.18596 101.99998 A 3 3 0 0 0 189.18596 98.999985"/><path d = "M 145.04387 98.999985 A 1 1 0 0 0 144.54387 99.133957"/><path d = "M 105.686 112.565 L 132.856 128.251"/><path d = "M 132.85583 128.25128 A 3 3 0 0 0 135.85583 128.25128"/><path d = "M 144.544 99.134 L 143.516 99.7274"/><path d = "M 143.51608 99.727356 A 1 1 0 0 0 143.01608 100.59338"/><path d = "M 135.856 128.251 L 141.516 124.983"/><path d = "M 141.51608 124.98335 A 3 3 0 0 0 143.01608 122.38527"/><path d = "M 143.016 100.593 L 143.016 122.385"/><path d = "M 235.0491 121.89392 A 87.5 87.5 0 0 0 135.09496 64.185364"/><path d = "M 230.31407 128.49998 A 5 5 0 0 0 235.0491 121.89392"/><path d = "M 135.09496 64.185379 A 5 5 0 0 0 131.74146 71.589066"/><path d = "M 86.413818 92.291443 A 87.5 87.5 0 0 0 86.413834 207.70854"/><path d = "M 94.502365 93.089066 A 5 5 0 0 0 86.413834 92.291428"/><path d = "M 135.09497 235.81461 A 87.5 87.5 0 0 0 235.0491 178.10603"/><path d = "M 235.0491 178.10605 A 5 5 0 0 0 230.31407 171.49998"/><path d = "M 131.74146 228.4109 A 5 5 0 0 0 135.09496 235.81461"/><path d = "M 86.413834 207.70853 A 5 5 0 0 0 94.502365 206.9109"/><path d = "M 230.314 171.5 L 224.186 171.5"/><path d = "M 219.18596 166.49998 A 5 5 0 0 0 224.18596 171.49998"/><path d = "M 224.18596 128.49998 A 5 5 0 0 0 219.18596 133.49998"/><path d = "M 224.186 128.5 L 230.314 128.5"/><path d = "M 97.5664 98.3962 L 94.5024 93.0891"/><path d = "M 97.566422 98.396164 A 5 5 0 0 0 104.39655 100.22629"/><path d = "M 132.97537 83.726288 A 5 5 0 0 0 134.8055 76.896164"/><path d = "M 134.806 76.8962 L 131.741 71.5891"/><path d = "M 134.806 223.104 L 131.741 228.411"/><path d = "M 134.8055 223.10379 A 5 5 0 0 0 132.97537 216.27368"/><path d = "M 104.39655 199.77368 A 5 5 0 0 0 97.566422 201.60381"/><path d = "M 97.5664 201.604 L 94.5024 206.911"/><path d = "M 110.892 203.524 L 104.397 199.774"/><path d = "M 110.89174 203.52368 A 5 5 0 0 0 117.72186 201.69356"/><path d = "M 132.975 216.274 L 126.48 212.524"/><path d = "M 124.65007 205.69354 A 5 5 0 0 0 126.48019 212.52367"/><path d = "M 104.397 100.226 L 110.892 96.4763"/><path d = "M 117.72186 98.306412 A 5 5 0 0 0 110.89174 96.476288"/><path d = "M 126.48 87.4763 L 132.975 83.7263"/><path d = "M 126.48019 87.476288 A 5 5 0 0 0 124.65007 94.306412"/><path d = "M 219.186 159 L 219.186 166.5"/><path d = "M 219.18596 158.99998 A 5 5 0 0 0 214.18596 153.99998"/><path d = "M 219.186 133.5 L 219.186 141"/><path d = "M 214.18596 145.99998 A 5 5 0 0 0 219.18596 140.99998"/><path d = "M 117.722 201.694 L 119.222 199.095"/><path d = "M 126.15006 203.09549 A 4 4 0 1 0 119.22186 199.09549"/><path d = "M 124.65 205.694 L 126.15 203.095"/><path d = "M 211.186 154 L 214.186 154"/><path d = "M 211.18596 145.99998 A 4 4 0 0 0 211.18596 153.99998"/><path d = "M 214.186 146 L 211.186 146"/><path d = "M 126.15 96.9045 L 124.65 94.3064"/><path d = "M 119.22186 100.9045 A 4 4 0 1 0 126.15006 96.904495"/><path d = "M 117.722 98.3064 L 119.222 100.904"/><path d = "M 81.2223 139.624 L 81.2194 139.502"/><path d = "M 81.231 139.741 L 81.2223 139.624"/><path d = "M 81.2194 139.502 L 81.2194 137.943"/><path d = "M 81.2454 139.851 L 81.231 139.741"/><path d = "M 81.2194 137.943 L 77.014 137.943"/><path d = "M 81.2657 139.955 L 81.2454 139.851"/><path d = "M 77.014 137.943 L 76.8588 137.94"/><path d = "M 81.2917 140.054 L 81.2657 139.955"/><path d = "M 76.8588 137.94 L 76.7116 137.929"/><path d = "M 81.3234 140.146 L 81.2917 140.054"/><path d = "M 76.7116 137.929 L 76.5723 137.911"/><path d = "M 81.361 140.231 L 81.3234 140.146"/><path d = "M 76.5723 137.911 L 76.441 137.886"/><path d = "M 81.4044 140.311 L 81.361 140.231"/><path d = "M 76.441 137.886 L 76.3176 137.853"/><path d = "M 81.4535 140.385 L 81.4044 140.311"/><path d = "M 76.3176 137.853 L 76.2022 137.814"/><path d = "M 81.5084 140.452 L 81.4535 140.385"/><path d = "M 76.2022 137.814 L 76.0948 137.767"/><path d = "M 81.568 140.514 L 81.5084 140.452"/><path d = "M 76.0948 137.767 L 75.9953 137.713"/><path d = "M 81.6312 140.569 L 81.568 140.514"/><path d = "M 75.9953 137.713 L 75.9038 137.652"/><path d = "M 81.698 140.617 L 81.6312 140.569"/><path d = "M 75.9038 137.652 L 75.8202 137.583"/><path d = "M 81.7684 140.659 L 81.698 140.617"/><path d = "M 75.8202 137.583 L 75.7446 137.509"/><path d = "M 81.8425 140.694 L 81.7684 140.659"/><path d = "M 75.7446 137.509 L 75.677 137.429"/><path d = "M 81.9201 140.723 L 81.8425 140.694"/><path d = "M 75.677 137.429 L 75.6173 137.344"/><path d = "M 82.0013 140.746 L 81.9201 140.723"/><path d = "M 75.6173 137.344 L 75.5656 137.254"/><path d = "M 82.0861 140.762 L 82.0013 140.746"/><path d = "M 75.5656 137.254 L 75.5218 137.158"/><path d = "M 82.1745 140.772 L 82.0861 140.762"/><path d = "M 75.5218 137.158 L 75.486 137.058"/><path d = "M 82.2666 140.775 L 82.1745 140.772"/><path d = "M 75.486 137.058 L 75.4581 136.952"/><path d = "M 82.3601 140.772 L 82.2666 140.775"/><path d = "M 75.4581 136.952 L 75.4382 136.841"/><path d = "M 82.4499 140.762 L 82.3601 140.772"/><path d = "M 75.4382 136.841 L 75.4263 136.725"/><path d = "M 82.5357 140.747 L 82.4499 140.762"/><path d = "M 75.4263 136.725 L 75.4223 136.603"/><path d = "M 82.6178 140.725 L 82.5357 140.747"/><path d = "M 75.4223 136.603 L 75.4229 136.571"/><path d = "M 82.6959 140.696 L 82.6178 140.725"/><path d = "M 75.4229 136.571 L 75.4247 136.539"/><path d = "M 82.7702 140.662 L 82.6959 140.696"/><path d = "M 75.4247 136.539 L 75.4276 136.507"/><path d = "M 82.8407 140.621 L 82.7702 140.662"/><path d = "M 75.4276 136.507 L 75.4317 136.475"/><path d = "M 82.9073 140.574 L 82.8407 140.621"/><path d = "M 75.4317 136.475 L 75.437 136.443"/><path d = "M 82.97 140.521 L 82.9073 140.574"/><path d = "M 75.437 136.443 L 75.4434 136.411"/><path d = "M 83.0289 140.461 L 82.97 140.521"/><path d = "M 75.4434 136.411 L 75.451 136.378"/><path d = "M 83.083 140.395 L 83.0289 140.461"/><path d = "M 75.451 136.378 L 75.4598 136.346"/><path d = "M 83.1314 140.322 L 83.083 140.395"/><path d = "M 75.4598 136.346 L 75.4698 136.313"/><path d = "M 83.1742 140.243 L 83.1314 140.322"/><path d = "M 75.4698 136.313 L 75.4809 136.281"/><path d = "M 83.2112 140.157 L 83.1742 140.243"/><path d = "M 75.4809 136.281 L 75.4933 136.248"/><path d = "M 83.2425 140.064 L 83.2112 140.157"/><path d = "M 75.4933 136.248 L 75.5067 136.215"/><path d = "M 83.2682 139.965 L 83.2425 140.064"/><path d = "M 75.5067 136.215 L 75.5214 136.181"/><path d = "M 83.2881 139.859 L 83.2682 139.965"/><path d = "M 75.5214 136.181 L 75.5372 136.147"/><path d = "M 83.3023 139.746 L 83.2881 139.859"/><path d = "M 75.5372 136.147 L 75.5542 136.113"/><path d = "M 83.3109 139.627 L 83.3023 139.746"/><path d = "M 75.5542 136.113 L 75.5724 136.079"/><path d = "M 83.3137 139.502 L 83.3109 139.627"/><path d = "M 75.5724 136.079 L 75.5918 136.044"/><path d = "M 83.3137 137.943 L 83.3137 139.502"/><path d = "M 75.5918 136.044 L 75.6123 136.008"/><path d = "M 83.8248 137.943 L 83.3137 137.943"/><path d = "M 75.6123 136.008 L 75.634 135.973"/><path d = "M 83.9489 137.941 L 83.8248 137.943"/><path d = "M 75.634 135.973 L 75.6569 135.937"/><path d = "M 84.0667 137.935 L 83.9489 137.941"/><path d = "M 75.6569 135.937 L 75.6804 135.901"/><path d = "M 84.1781 137.923 L 84.0667 137.935"/><path d = "M 75.6804 135.901 L 75.7041 135.866"/><path d = "M 84.2831 137.908 L 84.1781 137.923"/><path d = "M 75.7041 135.866 L 75.728 135.83"/><path d = "M 84.3818 137.888 L 84.2831 137.908"/><path d = "M 75.728 135.83 L 75.752 135.795"/><path d = "M 84.4742 137.864 L 84.3818 137.888"/><path d = "M 75.752 135.795 L 75.7762 135.76"/><path d = "M 84.5601 137.835 L 84.4742 137.864"/><path d = "M 75.7762 135.76 L 75.8006 135.726"/><path d = "M 84.6397 137.801 L 84.5601 137.835"/><path d = "M 75.8006 135.726 L 75.8252 135.691"/><path d = "M 84.7129 137.764 L 84.6397 137.801"/><path d = "M 75.8252 135.691 L 75.8499 135.657"/><path d = "M 84.7797 137.721 L 84.7129 137.764"/><path d = "M 75.8499 135.657 L 75.8748 135.623"/><path d = "M 84.8402 137.674 L 84.7797 137.721"/><path d = "M 75.8748 135.623 L 75.8998 135.589"/><path d = "M 84.8944 137.622 L 84.8402 137.674"/><path d = "M 75.8998 135.589 L 75.9255 135.555"/><path d = "M 84.9421 137.565 L 84.8944 137.622"/><path d = "M 75.9255 135.555 L 75.9524 135.519"/><path d = "M 84.9835 137.502 L 84.9421 137.565"/><path d = "M 75.9524 135.519 L 75.9805 135.482"/><path d = "M 85.0185 137.434 L 84.9835 137.502"/><path d = "M 75.9805 135.482 L 76.0097 135.443"/><path d = "M 85.0471 137.36 L 85.0185 137.434"/><path d = "M 76.0097 135.443 L 76.0401 135.403"/><path d = "M 85.0694 137.281 L 85.0471 137.36"/><path d = "M 76.0401 135.403 L 76.0717 135.361"/><path d = "M 85.0854 137.197 L 85.0694 137.281"/><path d = "M 76.0717 135.361 L 76.1045 135.318"/><path d = "M 85.0949 137.108 L 85.0854 137.197"/><path d = "M 76.1045 135.318 L 76.1384 135.273"/><path d = "M 85.0981 137.014 L 85.0949 137.108"/><path d = "M 76.1384 135.273 L 76.1735 135.227"/><path d = "M 85.0942 136.899 L 85.0981 137.014"/><path d = "M 76.1735 135.227 L 76.2098 135.179"/><path d = "M 85.0825 136.792 L 85.0942 136.899"/><path d = "M 76.2098 135.179 L 80.6498 129.239"/><path d = "M 85.063 136.694 L 85.0825 136.792"/><path d = "M 80.6498 129.239 L 80.7353 129.125"/><path d = "M 85.0358 136.605 L 85.063 136.694"/><path d = "M 80.7353 129.125 L 80.8178 129.018"/><path d = "M 85.0007 136.524 L 85.0358 136.605"/><path d = "M 80.8178 129.018 L 80.8972 128.917"/><path d = "M 84.9579 136.451 L 85.0007 136.524"/><path d = "M 80.8972 128.917 L 80.9734 128.822"/><path d = "M 84.9072 136.386 L 84.9579 136.451"/><path d = "M 80.9734 128.822 L 81.0466 128.734"/><path d = "M 84.8488 136.33 L 84.9072 136.386"/><path d = "M 81.0466 128.734 L 81.1167 128.652"/><path d = "M 84.7826 136.282 L 84.8488 136.33"/><path d = "M 81.1167 128.652 L 81.1837 128.577"/><path d = "M 84.7085 136.243 L 84.7826 136.282"/><path d = "M 81.1837 128.577 L 81.2476 128.508"/><path d = "M 84.6281 136.209 L 84.7085 136.243"/><path d = "M 81.2476 128.508 L 81.3083 128.445"/><path d = "M 84.5425 136.18 L 84.6281 136.209"/><path d = "M 81.3083 128.445 L 81.366 128.389"/><path d = "M 84.4518 136.153 L 84.5425 136.18"/><path d = "M 81.366 128.389 L 81.4233 128.339"/><path d = "M 84.356 136.13 L 84.4518 136.153"/><path d = "M 81.4233 128.339 L 81.4828 128.294"/><path d = "M 84.2551 136.111 L 84.356 136.13"/><path d = "M 81.4828 128.294 L 81.5446 128.255"/><path d = "M 84.1491 136.095 L 84.2551 136.111"/><path d = "M 81.5446 128.255 L 81.6086 128.22"/><path d = "M 84.038 136.083 L 84.1491 136.095"/><path d = "M 81.6086 128.22 L 81.6749 128.191"/><path d = "M 83.9218 136.074 L 84.038 136.083"/><path d = "M 81.6749 128.191 L 81.7435 128.168"/><path d = "M 83.8004 136.069 L 83.9218 136.074"/><path d = "M 81.7435 128.168 L 81.8143 128.149"/><path d = "M 83.674 136.067 L 83.8004 136.069"/><path d = "M 81.8143 128.149 L 81.8874 128.136"/><path d = "M 83.3137 136.067 L 83.674 136.067"/><path d = "M 81.8874 128.136 L 81.9628 128.128"/><path d = "M 83.3137 129.583 L 83.3137 136.067"/><path d = "M 81.9628 128.128 L 82.0404 128.125"/><path d = "M 83.301 129.306 L 83.3137 129.583"/><path d = "M 82.0404 128.125 L 82.2823 128.14"/><path d = "M 83.2628 129.058 L 83.301 129.306"/><path d = "M 82.2823 128.14 L 82.4988 128.184"/><path d = "M 83.1991 128.84 L 83.2628 129.058"/><path d = "M 82.4988 128.184 L 82.6898 128.256"/><path d = "M 83.11 128.65 L 83.1991 128.84"/><path d = "M 82.6898 128.256 L 82.8553 128.358"/><path d = "M 82.9954 128.49 L 83.11 128.65"/><path d = "M 82.8553 128.358 L 82.9954 128.49"/><path d = "M 87.185959 148.99998 A 3 3 0 0 0 92.784035 150.49998"/><path d = "M 95.382111 148.99998 A 3 3 0 0 0 92.784035 150.49998"/><path d = "M 92.784035 129.49998 A 3 3 0 0 0 87.185959 130.99998"/><path d = "M 92.784035 129.49998 A 3 3 0 0 0 95.382111 130.99998"/><path d = "M 87.186 131 L 87.186 149"/><path d = "M 101.186 128 L 101.186 115.163"/><path d = "M 98.185959 130.99998 A 3 3 0 0 0 101.18596 127.99998"/><path d = "M 101.186 184.837 L 101.186 152"/><path d = "M 101.18596 151.99998 A 3 3 0 0 0 98.185959 148.99998"/><path d = "M 98.186 149 L 95.3821 149"/><path d = "M 95.3821 131 L 98.186 131"/><path d = "M 188.186 99 L 189.186 99"/><path d = "M 145.044 99 L 161.186 99"/><path d = "M 161.18596 98.999985 A 3 3 0 0 0 164.18596 95.999985"/><path d = "M 164.186 90 L 164.186 96"/><path d = "M 167.18596 86.999985 A 3 3 0 0 0 164.18596 89.999985"/><path d = "M 167.186 87 L 182.186 87"/><path d = "M 185.18596 89.999985 A 3 3 0 0 0 182.18596 86.999985"/><path d = "M 185.186 96 L 185.186 90"/><path d = "M 185.18596 95.999985 A 3 3 0 0 0 188.18596 98.999985"/></g></svg>
