<?xml version='1.0' encoding='UTF-8' ?>
<!DOCTYPE svg PUBLIC "-//W3C//DTD SVG 1.1//EN" "http://www.w3.org/Graphics/SVG/1.1/DTD/svg11.dtd" [ 
 <!ATTLIST svg 
                                               xmlns:dsy CDATA #FIXED "http://www.3ds.com/print"  
                                               dsy:text-version CDATA #IMPLIED > 

                                               <!ATTLIST text 
                                               xmlns:dsy CDATA #FIXED "http://www.3ds.com/print" 
                                               dsy:text-version CDATA #IMPLIED > 
                                                ]>
<svg style = "background : rgb(255,255,255)" width = "300mm" xmlns = "http://www.w3.org/2000/svg" height = "300mm" version = "1.1" viewBox = "0 0 300 300" xmlns:dsy = "http://www.3ds.com/print" xmlns:xlink = "http://www.w3.org/1999/xlink" dsy:text-version = "21000"><g fill = "none" stroke = "rgb(255, 0, 0)" stroke-width = "0.13" stroke-linecap = "butt" stroke-linejoin = "miter"><path d = "M 74.676514 194.52661 A 87.5 87.5 0 1 0 62.800766 157.2485"/><circle r = "2.5" cx = "187.50002" cy = "214.9519"/><circle r = "2.5" cx = "75.000015" cy = "149.99998"/><circle r = "2.5" cx = "187.50002" cy = "85.04808"/><path d = "M 77.259033 189.99998 A 3 3 0 0 0 74.676514 194.52661"/><path d = "M 62.80077 157.2485 A 3 3 0 0 0 65.790459 159.99998"/><path d = "M 200 201 L 100 201"/><path d = "M 200.00002 200.99998 A 1 1 0 0 0 201.00002 199.99998"/><path d = "M 99.000015 199.99998 A 1 1 0 0 0 100.00002 200.99998"/><path d = "M 201 100 L 201 200"/><path d = "M 201.00002 99.999985 A 1 1 0 0 0 200.00002 98.999985"/><path d = "M 99 200 L 99 191"/><path d = "M 99.000015 190.99998 A 1 1 0 0 0 98.000015 189.99998"/><path d = "M 100.00002 98.999985 A 1 1 0 0 0 99.000015 99.999985"/><path d = "M 77.259 190 L 98 190"/><path d = "M 99 113 L 99 100"/><path d = "M 98.000015 113.99998 A 1 1 0 0 0 99.000015 112.99998"/><path d = "M 86 114 L 98 114"/><path d = "M 86.000015 113.99998 A 1 1 0 0 0 85.000015 114.99998"/><path d = "M 85 159 L 85 115"/><path d = "M 84.000008 159.99998 A 1 1 0 0 0 85.000008 158.99998"/><path d = "M 65.7905 160 L 84 160"/><path d = "M 79.5454 130.41 L 75.5661 130.41"/><path d = "M 79.6663 130.408 L 79.5454 130.41"/><path d = "M 75.5661 130.41 L 75.0886 133.125"/><path d = "M 79.7812 130.4 L 79.6663 130.408"/><path d = "M 75.0886 133.125 L 75.3247 133.004"/><path d = "M 79.8902 130.386 L 79.7812 130.4"/><path d = "M 75.3247 133.004 L 75.5571 132.895"/><path d = "M 79.993 130.368 L 79.8902 130.386"/><path d = "M 75.5571 132.895 L 75.7858 132.8"/><path d = "M 80.0898 130.343 L 79.993 130.368"/><path d = "M 75.7858 132.8 L 76.0108 132.717"/><path d = "M 80.1807 130.314 L 80.0898 130.343"/><path d = "M 76.0108 132.717 L 76.2321 132.647"/><path d = "M 80.2654 130.279 L 80.1807 130.314"/><path d = "M 76.2321 132.647 L 76.4498 132.59"/><path d = "M 80.3442 130.239 L 80.2654 130.279"/><path d = "M 76.4498 132.59 L 76.6637 132.545"/><path d = "M 80.4169 130.193 L 80.3442 130.239"/><path d = "M 76.6637 132.545 L 76.874 132.513"/><path d = "M 80.4836 130.142 L 80.4169 130.193"/><path d = "M 76.874 132.513 L 77.0806 132.494"/><path d = "M 80.5441 130.087 L 80.4836 130.142"/><path d = "M 77.0806 132.494 L 77.2835 132.488"/><path d = "M 80.5982 130.028 L 80.5441 130.087"/><path d = "M 77.2835 132.488 L 77.4433 132.491"/><path d = "M 80.6459 129.966 L 80.5982 130.028"/><path d = "M 77.4433 132.491 L 77.601 132.5"/><path d = "M 80.6873 129.901 L 80.6459 129.966"/><path d = "M 77.601 132.5 L 77.7566 132.515"/><path d = "M 80.7224 129.832 L 80.6873 129.901"/><path d = "M 77.7566 132.515 L 77.9101 132.536"/><path d = "M 80.751 129.76 L 80.7224 129.832"/><path d = "M 77.9101 132.536 L 78.0615 132.563"/><path d = "M 80.7733 129.685 L 80.751 129.76"/><path d = "M 78.0615 132.563 L 78.2108 132.597"/><path d = "M 80.7892 129.606 L 80.7733 129.685"/><path d = "M 78.2108 132.597 L 78.3581 132.636"/><path d = "M 80.7987 129.524 L 80.7892 129.606"/><path d = "M 78.3581 132.636 L 78.5032 132.681"/><path d = "M 80.8019 129.439 L 80.7987 129.524"/><path d = "M 78.5032 132.681 L 78.6462 132.732"/><path d = "M 80.7889 129.249 L 80.8019 129.439"/><path d = "M 78.6462 132.732 L 78.7872 132.79"/><path d = "M 80.7497 129.08 L 80.7889 129.249"/><path d = "M 78.7872 132.79 L 78.9254 132.852"/><path d = "M 80.6843 128.93 L 80.7497 129.08"/><path d = "M 78.9254 132.852 L 79.0601 132.919"/><path d = "M 80.5928 128.801 L 80.6843 128.93"/><path d = "M 79.0601 132.919 L 79.1914 132.991"/><path d = "M 80.4752 128.691 L 80.5928 128.801"/><path d = "M 79.1914 132.991 L 79.3193 133.068"/><path d = "M 80.3315 128.601 L 80.4752 128.691"/><path d = "M 79.3193 133.068 L 79.4438 133.149"/><path d = "M 80.1616 128.531 L 80.3315 128.601"/><path d = "M 79.4438 133.149 L 79.5648 133.234"/><path d = "M 79.9655 128.482 L 80.1616 128.531"/><path d = "M 79.5648 133.234 L 79.6824 133.325"/><path d = "M 79.7434 128.452 L 79.9655 128.482"/><path d = "M 79.6824 133.325 L 79.7965 133.42"/><path d = "M 79.4951 128.442 L 79.7434 128.452"/><path d = "M 79.7965 133.42 L 79.9072 133.519"/><path d = "M 75.0719 128.442 L 79.4951 128.442"/><path d = "M 79.9072 133.519 L 80.0145 133.623"/><path d = "M 74.9318 128.445 L 75.0719 128.442"/><path d = "M 80.0145 133.623 L 80.1178 133.731"/><path d = "M 74.7997 128.455 L 74.9318 128.445"/><path d = "M 80.1178 133.731 L 80.2165 133.844"/><path d = "M 74.6758 128.471 L 74.7997 128.455"/><path d = "M 80.2165 133.844 L 80.3108 133.96"/><path d = "M 74.5598 128.494 L 74.6758 128.471"/><path d = "M 80.3108 133.96 L 80.4005 134.08"/><path d = "M 74.4519 128.523 L 74.5598 128.494"/><path d = "M 80.4005 134.08 L 80.4857 134.204"/><path d = "M 74.3521 128.559 L 74.4519 128.523"/><path d = "M 80.4857 134.204 L 80.5664 134.332"/><path d = "M 74.2603 128.602 L 74.3521 128.559"/><path d = "M 80.5664 134.332 L 80.6425 134.464"/><path d = "M 74.1765 128.651 L 74.2603 128.602"/><path d = "M 80.6425 134.464 L 80.7141 134.6"/><path d = "M 74.1008 128.706 L 74.1765 128.651"/><path d = "M 80.7141 134.6 L 80.7812 134.74"/><path d = "M 74.0331 128.768 L 74.1008 128.706"/><path d = "M 80.7812 134.74 L 80.8438 134.884"/><path d = "M 73.9714 128.838 L 74.0331 128.768"/><path d = "M 80.8438 134.884 L 80.9011 135.031"/><path d = "M 73.9138 128.915 L 73.9714 128.838"/><path d = "M 80.9011 135.031 L 80.9524 135.18"/><path d = "M 73.8602 129 L 73.9138 128.915"/><path d = "M 80.9524 135.18 L 80.9976 135.331"/><path d = "M 73.8106 129.093 L 73.8602 129"/><path d = "M 80.9976 135.331 L 81.0368 135.484"/><path d = "M 73.765 129.194 L 73.8106 129.093"/><path d = "M 81.0368 135.484 L 81.07 135.64"/><path d = "M 73.7234 129.302 L 73.765 129.194"/><path d = "M 81.07 135.64 L 81.0972 135.798"/><path d = "M 73.6859 129.419 L 73.7234 129.302"/><path d = "M 81.0972 135.798 L 81.1182 135.958"/><path d = "M 73.6524 129.543 L 73.6859 129.419"/><path d = "M 81.1182 135.958 L 81.1333 136.12"/><path d = "M 73.6229 129.675 L 73.6524 129.543"/><path d = "M 81.1333 136.12 L 81.1424 136.284"/><path d = "M 73.5975 129.816 L 73.6229 129.675"/><path d = "M 81.1424 136.284 L 81.1454 136.45"/><path d = "M 72.8938 133.828 L 73.5975 129.816"/><path d = "M 81.1454 136.45 L 81.14 136.691"/><path d = "M 72.8763 133.929 L 72.8938 133.828"/><path d = "M 81.14 136.691 L 81.1236 136.928"/><path d = "M 72.8606 134.02 L 72.8763 133.929"/><path d = "M 81.1236 136.928 L 81.0964 137.16"/><path d = "M 72.8468 134.101 L 72.8606 134.02"/><path d = "M 81.0964 137.16 L 81.0583 137.387"/><path d = "M 72.8348 134.173 L 72.8468 134.101"/><path d = "M 81.0583 137.387 L 81.0093 137.611"/><path d = "M 72.8246 134.235 L 72.8348 134.173"/><path d = "M 81.0093 137.611 L 80.9494 137.83"/><path d = "M 72.8164 134.287 L 72.8246 134.235"/><path d = "M 80.9494 137.83 L 80.8786 138.044"/><path d = "M 72.8099 134.329 L 72.8164 134.287"/><path d = "M 80.8786 138.044 L 80.7969 138.255"/><path d = "M 72.8053 134.362 L 72.8099 134.329"/><path d = "M 80.7969 138.255 L 80.7043 138.46"/><path d = "M 72.8016 134.398 L 72.8053 134.362"/><path d = "M 80.7043 138.46 L 80.6009 138.662"/><path d = "M 72.8048 134.473 L 72.8016 134.398"/><path d = "M 80.6009 138.662 L 80.4872 138.857"/><path d = "M 72.8143 134.546 L 72.8048 134.473"/><path d = "M 80.4872 138.857 L 80.3638 139.044"/><path d = "M 72.8303 134.617 L 72.8143 134.546"/><path d = "M 80.3638 139.044 L 80.2308 139.223"/><path d = "M 72.8525 134.687 L 72.8303 134.617"/><path d = "M 80.2308 139.223 L 80.0882 139.394"/><path d = "M 72.8812 134.755 L 72.8525 134.687"/><path d = "M 80.0882 139.394 L 79.9359 139.556"/><path d = "M 72.9162 134.822 L 72.8812 134.755"/><path d = "M 79.9359 139.556 L 79.774 139.711"/><path d = "M 72.9576 134.887 L 72.9162 134.822"/><path d = "M 79.774 139.711 L 79.6025 139.857"/><path d = "M 73.0053 134.95 L 72.9576 134.887"/><path d = "M 79.6025 139.857 L 79.4213 139.994"/><path d = "M 73.0595 135.012 L 73.0053 134.95"/><path d = "M 79.4213 139.994 L 79.2306 140.124"/><path d = "M 73.1199 135.072 L 73.0595 135.012"/><path d = "M 79.2306 140.124 L 79.0301 140.245"/><path d = "M 73.1845 135.129 L 73.1199 135.072"/><path d = "M 79.0301 140.245 L 78.8218 140.357"/><path d = "M 73.251 135.179 L 73.1845 135.129"/><path d = "M 78.8218 140.357 L 78.6071 140.456"/><path d = "M 73.3192 135.224 L 73.251 135.179"/><path d = "M 78.6071 140.456 L 78.3861 140.544"/><path d = "M 73.3894 135.263 L 73.3192 135.224"/><path d = "M 78.3861 140.544 L 78.1589 140.621"/><path d = "M 73.4613 135.295 L 73.3894 135.263"/><path d = "M 78.1589 140.621 L 77.9254 140.685"/><path d = "M 73.5351 135.322 L 73.4613 135.295"/><path d = "M 77.9254 140.685 L 77.6856 140.738"/><path d = "M 73.6108 135.343 L 73.5351 135.322"/><path d = "M 77.6856 140.738 L 77.4395 140.779"/><path d = "M 73.6883 135.358 L 73.6108 135.343"/><path d = "M 77.4395 140.779 L 77.1871 140.808"/><path d = "M 73.7676 135.367 L 73.6883 135.358"/><path d = "M 77.1871 140.808 L 76.9285 140.826"/><path d = "M 73.8488 135.37 L 73.7676 135.367"/><path d = "M 76.9285 140.826 L 76.6635 140.832"/><path d = "M 73.9262 135.365 L 73.8488 135.37"/><path d = "M 76.6635 140.832 L 76.3693 140.826"/><path d = "M 74.0078 135.352 L 73.9262 135.365"/><path d = "M 76.3693 140.826 L 76.0864 140.81"/><path d = "M 74.0934 135.33 L 74.0078 135.352"/><path d = "M 76.0864 140.81 L 75.8147 140.782"/><path d = "M 74.1832 135.299 L 74.0934 135.33"/><path d = "M 75.8147 140.782 L 75.5544 140.743"/><path d = "M 74.2771 135.26 L 74.1832 135.299"/><path d = "M 75.5544 140.743 L 75.3054 140.694"/><path d = "M 74.375 135.211 L 74.2771 135.26"/><path d = "M 75.3054 140.694 L 75.0677 140.633"/><path d = "M 74.4771 135.154 L 74.375 135.211"/><path d = "M 75.0677 140.633 L 74.8413 140.561"/><path d = "M 74.5833 135.088 L 74.4771 135.154"/><path d = "M 74.8413 140.561 L 74.6262 140.478"/><path d = "M 74.6936 135.014 L 74.5833 135.088"/><path d = "M 74.6262 140.478 L 74.4224 140.384"/><path d = "M 74.808 134.93 L 74.6936 135.014"/><path d = "M 74.4224 140.384 L 74.2299 140.279"/><path d = "M 74.9217 134.845 L 74.808 134.93"/><path d = "M 74.2299 140.279 L 74.0486 140.167"/><path d = "M 75.03 134.765 L 74.9217 134.845"/><path d = "M 74.0486 140.167 L 73.8781 140.051"/><path d = "M 75.1328 134.69 L 75.03 134.765"/><path d = "M 73.8781 140.051 L 73.7185 139.932"/><path d = "M 75.2302 134.62 L 75.1328 134.69"/><path d = "M 73.7185 139.932 L 73.5698 139.81"/><path d = "M 75.3221 134.556 L 75.2302 134.62"/><path d = "M 73.5698 139.81 L 73.432 139.685"/><path d = "M 75.4086 134.497 L 75.3221 134.556"/><path d = "M 73.432 139.685 L 73.3051 139.557"/><path d = "M 75.4897 134.444 L 75.4086 134.497"/><path d = "M 73.3051 139.557 L 73.189 139.425"/><path d = "M 75.5653 134.395 L 75.4897 134.444"/><path d = "M 73.189 139.425 L 73.0839 139.29"/><path d = "M 75.6354 134.352 L 75.5653 134.395"/><path d = "M 73.0839 139.29 L 72.9897 139.151"/><path d = "M 75.7001 134.314 L 75.6354 134.352"/><path d = "M 72.9897 139.151 L 72.9063 139.01"/><path d = "M 75.7662 134.281 L 75.7001 134.314"/><path d = "M 72.9063 139.01 L 72.8323 138.868"/><path d = "M 75.8406 134.251 L 75.7662 134.281"/><path d = "M 72.8323 138.868 L 72.7661 138.73"/><path d = "M 75.9231 134.225 L 75.8406 134.251"/><path d = "M 72.7661 138.73 L 72.7076 138.596"/><path d = "M 76.0138 134.202 L 75.9231 134.225"/><path d = "M 72.7076 138.596 L 72.657 138.466"/><path d = "M 76.1127 134.182 L 76.0138 134.202"/><path d = "M 72.657 138.466 L 72.6142 138.338"/><path d = "M 76.2199 134.166 L 76.1127 134.182"/><path d = "M 72.6142 138.338 L 72.5791 138.215"/><path d = "M 76.3352 134.154 L 76.2199 134.166"/><path d = "M 72.5791 138.215 L 72.5518 138.095"/><path d = "M 76.4588 134.145 L 76.3352 134.154"/><path d = "M 72.5518 138.095 L 72.5324 137.979"/><path d = "M 76.5906 134.14 L 76.4588 134.145"/><path d = "M 72.5324 137.979 L 72.5207 137.866"/><path d = "M 76.7306 134.138 L 76.5906 134.14"/><path d = "M 72.5207 137.866 L 72.5168 137.757"/><path d = "M 76.8467 134.141 L 76.7306 134.138"/><path d = "M 72.5168 137.757 L 72.5195 137.692"/><path d = "M 76.9608 134.15 L 76.8467 134.141"/><path d = "M 72.5195 137.692 L 72.5277 137.628"/><path d = "M 77.0726 134.164 L 76.9608 134.15"/><path d = "M 72.5277 137.628 L 72.5413 137.564"/><path d = "M 77.1823 134.183 L 77.0726 134.164"/><path d = "M 72.5413 137.564 L 72.5603 137.501"/><path d = "M 77.2898 134.208 L 77.1823 134.183"/><path d = "M 72.5603 137.501 L 72.5848 137.439"/><path d = "M 77.3951 134.239 L 77.2898 134.208"/><path d = "M 72.5848 137.439 L 72.6148 137.377"/><path d = "M 77.4982 134.276 L 77.3951 134.239"/><path d = "M 72.6148 137.377 L 72.6502 137.316"/><path d = "M 77.5991 134.318 L 77.4982 134.276"/><path d = "M 72.6502 137.316 L 72.691 137.256"/><path d = "M 77.6979 134.366 L 77.5991 134.318"/><path d = "M 72.691 137.256 L 72.7373 137.196"/><path d = "M 77.7945 134.419 L 77.6979 134.366"/><path d = "M 72.7373 137.196 L 72.789 137.137"/><path d = "M 77.8881 134.478 L 77.7945 134.419"/><path d = "M 72.789 137.137 L 72.8449 137.082"/><path d = "M 77.9778 134.543 L 77.8881 134.478"/><path d = "M 72.8449 137.082 L 72.9035 137.032"/><path d = "M 78.0636 134.613 L 77.9778 134.543"/><path d = "M 72.9035 137.032 L 72.9649 136.988"/><path d = "M 78.1457 134.69 L 78.0636 134.613"/><path d = "M 72.9649 136.988 L 73.029 136.95"/><path d = "M 78.2238 134.772 L 78.1457 134.69"/><path d = "M 73.029 136.95 L 73.0959 136.917"/><path d = "M 78.2981 134.86 L 78.2238 134.772"/><path d = "M 73.0959 136.917 L 73.1655 136.891"/><path d = "M 78.3686 134.953 L 78.2981 134.86"/><path d = "M 73.1655 136.891 L 73.238 136.871"/><path d = "M 78.4352 135.053 L 78.3686 134.953"/><path d = "M 73.238 136.871 L 73.3131 136.856"/><path d = "M 78.4979 135.158 L 78.4352 135.053"/><path d = "M 73.3131 136.856 L 73.3911 136.847"/><path d = "M 78.5568 135.269 L 78.4979 135.158"/><path d = "M 73.3911 136.847 L 73.4718 136.844"/><path d = "M 78.6109 135.386 L 78.5568 135.269"/><path d = "M 73.4718 136.844 L 73.6089 136.852"/><path d = "M 78.6594 135.507 L 78.6109 135.386"/><path d = "M 73.6089 136.852 L 73.7389 136.877"/><path d = "M 78.7021 135.632 L 78.6594 135.507"/><path d = "M 73.7389 136.877 L 73.8616 136.917"/><path d = "M 78.7391 135.762 L 78.7021 135.632"/><path d = "M 73.8616 136.917 L 73.9771 136.974"/><path d = "M 78.7704 135.898 L 78.7391 135.762"/><path d = "M 73.9771 136.974 L 74.0854 137.047"/><path d = "M 78.7961 136.037 L 78.7704 135.898"/><path d = "M 74.0854 137.047 L 74.1865 137.137"/><path d = "M 78.816 136.182 L 78.7961 136.037"/><path d = "M 74.1865 137.137 L 74.2805 137.242"/><path d = "M 78.8302 136.331 L 78.816 136.182"/><path d = "M 74.2805 137.242 L 74.3672 137.364"/><path d = "M 78.8388 136.485 L 78.8302 136.331"/><path d = "M 74.3672 137.364 L 74.4467 137.502"/><path d = "M 78.8416 136.643 L 78.8388 136.485"/><path d = "M 74.4467 137.502 L 74.519 137.657"/><path d = "M 78.839 136.791 L 78.8416 136.643"/><path d = "M 74.519 137.657 L 74.5883 137.803"/><path d = "M 78.8311 136.935 L 78.839 136.791"/><path d = "M 74.5883 137.803 L 74.6624 137.942"/><path d = "M 78.8179 137.076 L 78.8311 136.935"/><path d = "M 74.6624 137.942 L 74.7411 138.074"/><path d = "M 78.7994 137.214 L 78.8179 137.076"/><path d = "M 74.7411 138.074 L 74.8246 138.2"/><path d = "M 78.7757 137.349 L 78.7994 137.214"/><path d = "M 74.8246 138.2 L 74.9127 138.32"/><path d = "M 78.7466 137.481 L 78.7757 137.349"/><path d = "M 74.9127 138.32 L 75.0055 138.432"/><path d = "M 78.7123 137.609 L 78.7466 137.481"/><path d = "M 75.0055 138.432 L 75.103 138.538"/><path d = "M 78.6728 137.734 L 78.7123 137.609"/><path d = "M 75.103 138.538 L 75.2052 138.638"/><path d = "M 78.6279 137.856 L 78.6728 137.734"/><path d = "M 75.2052 138.638 L 75.3121 138.731"/><path d = "M 78.5778 137.975 L 78.6279 137.856"/><path d = "M 75.3121 138.731 L 75.4237 138.817"/><path d = "M 78.5227 138.09 L 78.5778 137.975"/><path d = "M 75.4237 138.817 L 75.539 138.896"/><path d = "M 78.4633 138.2 L 78.5227 138.09"/><path d = "M 75.539 138.896 L 75.6569 138.966"/><path d = "M 78.3994 138.304 L 78.4633 138.2"/><path d = "M 75.6569 138.966 L 75.7776 139.029"/><path d = "M 78.3311 138.404 L 78.3994 138.304"/><path d = "M 75.7776 139.029 L 75.9009 139.082"/><path d = "M 78.2584 138.499 L 78.3311 138.404"/><path d = "M 75.9009 139.082 L 76.0269 139.128"/><path d = "M 78.1812 138.588 L 78.2584 138.499"/><path d = "M 76.0269 139.128 L 76.1555 139.165"/><path d = "M 78.0995 138.673 L 78.1812 138.588"/><path d = "M 76.1555 139.165 L 76.2869 139.194"/><path d = "M 78.0135 138.753 L 78.0995 138.673"/><path d = "M 76.2869 139.194 L 76.421 139.215"/><path d = "M 77.923 138.827 L 78.0135 138.753"/><path d = "M 76.421 139.215 L 76.5576 139.228"/><path d = "M 77.828 138.897 L 77.923 138.827"/><path d = "M 76.5576 139.228 L 76.6971 139.232"/><path d = "M 77.7292 138.96 L 77.828 138.897"/><path d = "M 76.6971 139.232 L 76.8245 139.228"/><path d = "M 77.6273 139.017 L 77.7292 138.96"/><path d = "M 76.8245 139.228 L 76.9487 139.218"/><path d = "M 77.5221 139.068 L 77.6273 139.017"/><path d = "M 76.9487 139.218 L 77.0698 139.202"/><path d = "M 77.4138 139.111 L 77.5221 139.068"/><path d = "M 77.0698 139.202 L 77.1876 139.178"/><path d = "M 77.3023 139.148 L 77.4138 139.111"/><path d = "M 77.1876 139.178 L 77.3023 139.148"/><path d = "M 183.00002 89.999985 A 3 3 0 0 0 180.00002 86.999985"/><path d = "M 183 96 L 183 90"/><path d = "M 183.00002 95.999985 A 3 3 0 0 0 186.00002 98.999985"/><path d = "M 186 99 L 200 99"/><path d = "M 100 99 L 159 99"/><path d = "M 159.00002 98.999985 A 3 3 0 0 0 162.00002 95.999985"/><path d = "M 162 90 L 162 96"/><path d = "M 165.00002 86.999985 A 3 3 0 0 0 162.00002 89.999985"/><path d = "M 165 87 L 180 87"/></g></svg>
