<?xml version='1.0' encoding='UTF-8' ?>
<!DOCTYPE svg PUBLIC "-//W3C//DTD SVG 1.1//EN" "http://www.w3.org/Graphics/SVG/1.1/DTD/svg11.dtd" [ 
 <!ATTLIST svg 
                                               xmlns:dsy CDATA #FIXED "http://www.3ds.com/print"  
                                               dsy:text-version CDATA #IMPLIED > 

                                               <!ATTLIST text 
                                               xmlns:dsy CDATA #FIXED "http://www.3ds.com/print" 
                                               dsy:text-version CDATA #IMPLIED > 
                                                ]>
<svg style = "background : rgb(255,255,255)" width = "300mm" xmlns = "http://www.w3.org/2000/svg" height = "300mm" version = "1.1" viewBox = "0 0 300 300" xmlns:dsy = "http://www.3ds.com/print" xmlns:xlink = "http://www.w3.org/1999/xlink" dsy:text-version = "21000"><g fill = "none" stroke = "rgb(255, 0, 0)" stroke-width = "0.13" stroke-linecap = "butt" stroke-linejoin = "miter"><path d = "M 74.676514 194.52661 A 87.5 87.5 0 1 0 62.800766 157.2485"/><circle r = "4.3000031" cx = "187.50002" cy = "214.9519"/><circle r = "4.3000031" cx = "75.000015" cy = "149.99998"/><circle r = "4.3000031" cx = "187.50002" cy = "85.04808"/><path d = "M 77.259033 189.99998 A 3 3 0 0 0 74.676514 194.52661"/><path d = "M 62.80077 157.2485 A 3 3 0 0 0 65.790459 159.99998"/><path d = "M 200 201 L 100 201"/><path d = "M 200.00002 200.99998 A 1 1 0 0 0 201.00002 199.99998"/><path d = "M 99.000015 199.99998 A 1 1 0 0 0 100.00002 200.99998"/><path d = "M 201 100 L 201 200"/><path d = "M 201.00002 99.999985 A 1 1 0 0 0 200.00002 98.999985"/><path d = "M 99 191 L 99 200"/><path d = "M 99.000015 190.99998 A 1 1 0 0 0 98.000015 189.99998"/><path d = "M 100.00002 98.999985 A 1 1 0 0 0 99.000015 99.999985"/><path d = "M 77.259 190 L 98 190"/><path d = "M 99 113 L 99 100"/><path d = "M 98.000015 113.99998 A 1 1 0 0 0 99.000015 112.99998"/><path d = "M 86 114 L 98 114"/><path d = "M 86.000015 113.99998 A 1 1 0 0 0 85.000015 114.99998"/><path d = "M 85 159 L 85 115"/><path d = "M 84.000008 159.99998 A 1 1 0 0 0 85.000008 158.99998"/><path d = "M 84 160 L 65.7905 160"/><path d = "M 74.8989 132.827 L 74.8721 133.269"/><path d = "M 74.9358 132.413 L 74.8989 132.827"/><path d = "M 74.8721 133.269 L 74.9871 133.137"/><path d = "M 74.9827 132.027 L 74.9358 132.413"/><path d = "M 74.9871 133.137 L 75.104 133.012"/><path d = "M 75.0397 131.669 L 74.9827 132.027"/><path d = "M 75.104 133.012 L 75.223 132.894"/><path d = "M 75.1067 131.338 L 75.0397 131.669"/><path d = "M 75.223 132.894 L 75.3439 132.782"/><path d = "M 75.1838 131.035 L 75.1067 131.338"/><path d = "M 75.3439 132.782 L 75.4669 132.678"/><path d = "M 75.2709 130.76 L 75.1838 131.035"/><path d = "M 75.4669 132.678 L 75.5919 132.581"/><path d = "M 75.3681 130.513 L 75.2709 130.76"/><path d = "M 75.5919 132.581 L 75.7189 132.491"/><path d = "M 75.4753 130.294 L 75.3681 130.513"/><path d = "M 75.7189 132.491 L 75.8479 132.408"/><path d = "M 75.5926 130.102 L 75.4753 130.294"/><path d = "M 75.8479 132.408 L 75.9789 132.333"/><path d = "M 75.6543 130.017 L 75.5926 130.102"/><path d = "M 75.9789 132.333 L 76.112 132.264"/><path d = "M 75.7187 129.935 L 75.6543 130.017"/><path d = "M 76.112 132.264 L 76.2476 132.202"/><path d = "M 75.786 129.857 L 75.7187 129.935"/><path d = "M 76.2476 132.202 L 76.3864 132.146"/><path d = "M 75.856 129.783 L 75.786 129.857"/><path d = "M 76.3864 132.146 L 76.5284 132.097"/><path d = "M 75.9287 129.712 L 75.856 129.783"/><path d = "M 76.5284 132.097 L 76.6736 132.055"/><path d = "M 76.0042 129.644 L 75.9287 129.712"/><path d = "M 76.6736 132.055 L 76.822 132.019"/><path d = "M 76.0825 129.581 L 76.0042 129.644"/><path d = "M 76.822 132.019 L 76.9735 131.989"/><path d = "M 76.1636 129.521 L 76.0825 129.581"/><path d = "M 76.9735 131.989 L 77.1282 131.966"/><path d = "M 76.2474 129.464 L 76.1636 129.521"/><path d = "M 77.1282 131.966 L 77.2861 131.95"/><path d = "M 76.334 129.411 L 76.2474 129.464"/><path d = "M 77.2861 131.95 L 77.4472 131.94"/><path d = "M 76.422 129.363 L 76.334 129.411"/><path d = "M 77.4472 131.94 L 77.6115 131.937"/><path d = "M 76.51 129.319 L 76.422 129.363"/><path d = "M 77.6115 131.937 L 77.7695 131.94"/><path d = "M 76.5982 129.281 L 76.51 129.319"/><path d = "M 77.7695 131.94 L 77.925 131.949"/><path d = "M 76.6865 129.248 L 76.5982 129.281"/><path d = "M 77.925 131.949 L 78.0781 131.964"/><path d = "M 76.7748 129.22 L 76.6865 129.248"/><path d = "M 78.0781 131.964 L 78.2287 131.985"/><path d = "M 76.8633 129.197 L 76.7748 129.22"/><path d = "M 78.2287 131.985 L 78.377 132.011"/><path d = "M 76.9518 129.179 L 76.8633 129.197"/><path d = "M 78.377 132.011 L 78.5228 132.044"/><path d = "M 77.0403 129.166 L 76.9518 129.179"/><path d = "M 78.5228 132.044 L 78.6662 132.083"/><path d = "M 77.129 129.158 L 77.0403 129.166"/><path d = "M 78.6662 132.083 L 78.8071 132.127"/><path d = "M 77.2178 129.156 L 77.129 129.158"/><path d = "M 78.8071 132.127 L 78.9456 132.178"/><path d = "M 77.327 129.159 L 77.2178 129.156"/><path d = "M 78.9456 132.178 L 79.0817 132.234"/><path d = "M 77.4336 129.168 L 77.327 129.159"/><path d = "M 79.0817 132.234 L 79.2149 132.296"/><path d = "M 77.5374 129.183 L 77.4336 129.168"/><path d = "M 79.2149 132.296 L 79.3448 132.363"/><path d = "M 77.6386 129.205 L 77.5374 129.183"/><path d = "M 79.3448 132.363 L 79.4713 132.435"/><path d = "M 77.7372 129.232 L 77.6386 129.205"/><path d = "M 79.4713 132.435 L 79.5944 132.513"/><path d = "M 77.833 129.266 L 77.7372 129.232"/><path d = "M 79.5944 132.513 L 79.7142 132.595"/><path d = "M 77.9261 129.306 L 77.833 129.266"/><path d = "M 79.7142 132.595 L 79.8307 132.682"/><path d = "M 78.0166 129.351 L 77.9261 129.306"/><path d = "M 79.8307 132.682 L 79.9437 132.774"/><path d = "M 78.1044 129.403 L 78.0166 129.351"/><path d = "M 79.9437 132.774 L 80.0535 132.871"/><path d = "M 78.1895 129.462 L 78.1044 129.403"/><path d = "M 80.0535 132.871 L 80.1599 132.973"/><path d = "M 78.2711 129.525 L 78.1895 129.462"/><path d = "M 80.1599 132.973 L 80.2629 133.08"/><path d = "M 78.348 129.592 L 78.2711 129.525"/><path d = "M 80.2629 133.08 L 80.362 133.192"/><path d = "M 78.4205 129.663 L 78.348 129.592"/><path d = "M 80.362 133.192 L 80.4564 133.308"/><path d = "M 78.4885 129.738 L 78.4205 129.663"/><path d = "M 80.4564 133.308 L 80.5463 133.427"/><path d = "M 78.5518 129.817 L 78.4885 129.738"/><path d = "M 80.5463 133.427 L 80.6315 133.551"/><path d = "M 78.6107 129.899 L 78.5518 129.817"/><path d = "M 80.6315 133.551 L 80.7122 133.678"/><path d = "M 78.6651 129.986 L 78.6107 129.899"/><path d = "M 80.7122 133.678 L 80.7882 133.81"/><path d = "M 78.715 130.077 L 78.6651 129.986"/><path d = "M 80.7882 133.81 L 80.8596 133.945"/><path d = "M 78.7603 130.171 L 78.715 130.077"/><path d = "M 80.8596 133.945 L 80.9264 134.084"/><path d = "M 78.8011 130.27 L 78.7603 130.171"/><path d = "M 80.9264 134.084 L 80.9886 134.228"/><path d = "M 78.8311 130.347 L 78.8011 130.27"/><path d = "M 80.9886 134.228 L 81.0462 134.375"/><path d = "M 78.8644 130.421 L 78.8311 130.347"/><path d = "M 81.0462 134.375 L 81.0987 134.525"/><path d = "M 78.9009 130.491 L 78.8644 130.421"/><path d = "M 81.0987 134.525 L 81.1457 134.676"/><path d = "M 78.9405 130.557 L 78.9009 130.491"/><path d = "M 81.1457 134.676 L 81.1872 134.828"/><path d = "M 78.9833 130.621 L 78.9405 130.557"/><path d = "M 81.1872 134.828 L 81.2231 134.982"/><path d = "M 79.0293 130.681 L 78.9833 130.621"/><path d = "M 81.2231 134.982 L 81.2535 135.137"/><path d = "M 79.0785 130.737 L 79.0293 130.681"/><path d = "M 81.2535 135.137 L 81.2784 135.294"/><path d = "M 79.1308 130.79 L 79.0785 130.737"/><path d = "M 81.2784 135.294 L 81.2978 135.451"/><path d = "M 79.1864 130.84 L 79.1308 130.79"/><path d = "M 81.2978 135.451 L 81.3116 135.611"/><path d = "M 79.2451 130.886 L 79.1864 130.84"/><path d = "M 81.3116 135.611 L 81.3199 135.771"/><path d = "M 79.3059 130.928 L 79.2451 130.886"/><path d = "M 81.3199 135.771 L 81.3227 135.933"/><path d = "M 79.3677 130.966 L 79.3059 130.928"/><path d = "M 81.3227 135.933 L 81.3173 136.167"/><path d = "M 79.4306 130.999 L 79.3677 130.966"/><path d = "M 81.3173 136.167 L 81.301 136.397"/><path d = "M 79.4944 131.028 L 79.4306 130.999"/><path d = "M 81.301 136.397 L 81.274 136.622"/><path d = "M 79.5592 131.052 L 79.4944 131.028"/><path d = "M 81.274 136.622 L 81.2362 136.843"/><path d = "M 79.6251 131.072 L 79.5592 131.052"/><path d = "M 81.2362 136.843 L 81.1876 137.06"/><path d = "M 79.6919 131.088 L 79.6251 131.072"/><path d = "M 81.1876 137.06 L 81.1282 137.272"/><path d = "M 79.7598 131.099 L 79.6919 131.088"/><path d = "M 81.1282 137.272 L 81.0579 137.48"/><path d = "M 79.8287 131.105 L 79.7598 131.099"/><path d = "M 81.0579 137.48 L 80.9768 137.684"/><path d = "M 79.8985 131.108 L 79.8287 131.105"/><path d = "M 80.9768 137.684 L 80.885 137.883"/><path d = "M 79.9775 131.105 L 79.8985 131.108"/><path d = "M 80.885 137.883 L 80.7823 138.078"/><path d = "M 80.0536 131.096 L 79.9775 131.105"/><path d = "M 80.7823 138.078 L 80.67 138.266"/><path d = "M 80.127 131.082 L 80.0536 131.096"/><path d = "M 80.67 138.266 L 80.5491 138.446"/><path d = "M 80.1974 131.063 L 80.127 131.082"/><path d = "M 80.5491 138.446 L 80.4197 138.618"/><path d = "M 80.265 131.037 L 80.1974 131.063"/><path d = "M 80.4197 138.618 L 80.2817 138.781"/><path d = "M 80.3298 131.007 L 80.265 131.037"/><path d = "M 80.2817 138.781 L 80.1352 138.935"/><path d = "M 80.3917 130.97 L 80.3298 131.007"/><path d = "M 80.1352 138.935 L 79.9801 139.081"/><path d = "M 80.4508 130.928 L 80.3917 130.97"/><path d = "M 79.9801 139.081 L 79.8165 139.219"/><path d = "M 80.507 130.88 L 80.4508 130.928"/><path d = "M 79.8165 139.219 L 79.6444 139.348"/><path d = "M 80.5603 130.827 L 80.507 130.88"/><path d = "M 79.6444 139.348 L 79.4637 139.469"/><path d = "M 80.6096 130.77 L 80.5603 130.827"/><path d = "M 79.4637 139.469 L 79.2744 139.581"/><path d = "M 80.6538 130.712 L 80.6096 130.77"/><path d = "M 79.2744 139.581 L 79.0783 139.684"/><path d = "M 80.6928 130.653 L 80.6538 130.712"/><path d = "M 79.0783 139.684 L 78.8772 139.776"/><path d = "M 80.7265 130.592 L 80.6928 130.653"/><path d = "M 78.8772 139.776 L 78.6709 139.857"/><path d = "M 80.7551 130.531 L 80.7265 130.592"/><path d = "M 78.6709 139.857 L 78.4595 139.927"/><path d = "M 80.7785 130.468 L 80.7551 130.531"/><path d = "M 78.4595 139.927 L 78.243 139.987"/><path d = "M 80.7967 130.403 L 80.7785 130.468"/><path d = "M 78.243 139.987 L 78.0213 140.035"/><path d = "M 80.8096 130.338 L 80.7967 130.403"/><path d = "M 78.0213 140.035 L 77.7946 140.073"/><path d = "M 80.8174 130.271 L 80.8096 130.338"/><path d = "M 77.7946 140.073 L 77.5627 140.1"/><path d = "M 80.82 130.203 L 80.8174 130.271"/><path d = "M 77.5627 140.1 L 77.3258 140.116"/><path d = "M 80.8159 130.088 L 80.82 130.203"/><path d = "M 77.3258 140.116 L 77.0837 140.122"/><path d = "M 80.8034 129.973 L 80.8159 130.088"/><path d = "M 77.0837 140.122 L 76.8061 140.115"/><path d = "M 80.7827 129.857 L 80.8034 129.973"/><path d = "M 76.8061 140.115 L 76.5362 140.094"/><path d = "M 80.7537 129.739 L 80.7827 129.857"/><path d = "M 76.5362 140.094 L 76.274 140.06"/><path d = "M 80.7163 129.621 L 80.7537 129.739"/><path d = "M 76.274 140.06 L 76.0195 140.012"/><path d = "M 80.6707 129.501 L 80.7163 129.621"/><path d = "M 76.0195 140.012 L 75.7727 139.95"/><path d = "M 80.6168 129.381 L 80.6707 129.501"/><path d = "M 75.7727 139.95 L 75.5336 139.874"/><path d = "M 80.5546 129.259 L 80.6168 129.381"/><path d = "M 75.5336 139.874 L 75.3022 139.785"/><path d = "M 80.4841 129.137 L 80.5546 129.259"/><path d = "M 75.3022 139.785 L 75.0786 139.682"/><path d = "M 80.4053 129.013 L 80.4841 129.137"/><path d = "M 75.0786 139.682 L 74.8626 139.565"/><path d = "M 80.3184 128.891 L 80.4053 129.013"/><path d = "M 74.8626 139.565 L 74.6543 139.435"/><path d = "M 80.2234 128.773 L 80.3184 128.891"/><path d = "M 74.6543 139.435 L 74.4547 139.291"/><path d = "M 80.1204 128.659 L 80.2234 128.773"/><path d = "M 74.4547 139.291 L 74.2648 139.134"/><path d = "M 80.0092 128.55 L 80.1204 128.659"/><path d = "M 74.2648 139.134 L 74.0844 138.963"/><path d = "M 79.8901 128.444 L 80.0092 128.55"/><path d = "M 74.0844 138.963 L 73.9138 138.78"/><path d = "M 79.763 128.342 L 79.8901 128.444"/><path d = "M 73.9138 138.78 L 73.7527 138.583"/><path d = "M 79.6278 128.244 L 79.763 128.342"/><path d = "M 73.7527 138.583 L 73.6013 138.374"/><path d = "M 79.4845 128.15 L 79.6278 128.244"/><path d = "M 73.6013 138.374 L 73.4595 138.151"/><path d = "M 79.3332 128.06 L 79.4845 128.15"/><path d = "M 73.4595 138.151 L 73.3274 137.915"/><path d = "M 79.1739 127.975 L 79.3332 128.06"/><path d = "M 73.3274 137.915 L 73.2048 137.666"/><path d = "M 79.008 127.895 L 79.1739 127.975"/><path d = "M 73.2048 137.666 L 73.0919 137.403"/><path d = "M 78.8369 127.824 L 79.008 127.895"/><path d = "M 73.0919 137.403 L 72.9893 137.128"/><path d = "M 78.6608 127.761 L 78.8369 127.824"/><path d = "M 72.9893 137.128 L 72.8974 136.841"/><path d = "M 78.4796 127.706 L 78.6608 127.761"/><path d = "M 72.8974 136.841 L 72.8164 136.543"/><path d = "M 78.2932 127.66 L 78.4796 127.706"/><path d = "M 72.8164 136.543 L 72.7461 136.232"/><path d = "M 78.1018 127.623 L 78.2932 127.66"/><path d = "M 72.7461 136.232 L 72.6867 135.909"/><path d = "M 77.9052 127.593 L 78.1018 127.623"/><path d = "M 72.6867 135.909 L 72.6381 135.574"/><path d = "M 77.7035 127.572 L 77.9052 127.593"/><path d = "M 72.6381 135.574 L 72.6003 135.227"/><path d = "M 77.4967 127.56 L 77.7035 127.572"/><path d = "M 72.6003 135.227 L 72.5732 134.869"/><path d = "M 77.2848 127.556 L 77.4967 127.56"/><path d = "M 72.5732 134.869 L 72.557 134.498"/><path d = "M 77.0644 127.56 L 77.2848 127.556"/><path d = "M 72.557 134.498 L 72.5516 134.115"/><path d = "M 76.8488 127.572 L 77.0644 127.56"/><path d = "M 72.5516 134.115 L 72.5549 133.802"/><path d = "M 76.6381 127.593 L 76.8488 127.572"/><path d = "M 72.5549 133.802 L 72.5647 133.495"/><path d = "M 76.4323 127.623 L 76.6381 127.593"/><path d = "M 72.5647 133.495 L 72.581 133.195"/><path d = "M 76.2314 127.66 L 76.4323 127.623"/><path d = "M 72.581 133.195 L 72.6039 132.902"/><path d = "M 76.0352 127.706 L 76.2314 127.66"/><path d = "M 72.6039 132.902 L 72.6333 132.616"/><path d = "M 75.844 127.761 L 76.0352 127.706"/><path d = "M 72.6333 132.616 L 72.6692 132.336"/><path d = "M 75.6576 127.824 L 75.844 127.761"/><path d = "M 72.6692 132.336 L 72.7117 132.063"/><path d = "M 75.476 127.895 L 75.6576 127.824"/><path d = "M 72.7117 132.063 L 72.7607 131.796"/><path d = "M 75.2994 127.975 L 75.476 127.895"/><path d = "M 72.7607 131.796 L 72.8162 131.537"/><path d = "M 75.1277 128.062 L 75.2994 127.975"/><path d = "M 72.8162 131.537 L 72.8783 131.284"/><path d = "M 74.9613 128.158 L 75.1277 128.062"/><path d = "M 72.8783 131.284 L 72.9465 131.038"/><path d = "M 74.8 128.262 L 74.9613 128.158"/><path d = "M 72.9465 131.038 L 73.0204 130.801"/><path d = "M 74.6439 128.374 L 74.8 128.262"/><path d = "M 73.0204 130.801 L 73.1 130.573"/><path d = "M 74.493 128.494 L 74.6439 128.374"/><path d = "M 73.1 130.573 L 73.1853 130.353"/><path d = "M 74.3474 128.622 L 74.493 128.494"/><path d = "M 73.1853 130.353 L 73.2762 130.142"/><path d = "M 74.2069 128.758 L 74.3474 128.622"/><path d = "M 73.2762 130.142 L 73.3729 129.939"/><path d = "M 74.0716 128.902 L 74.2069 128.758"/><path d = "M 73.3729 129.939 L 73.4753 129.745"/><path d = "M 73.9415 129.054 L 74.0716 128.902"/><path d = "M 73.4753 129.745 L 73.5834 129.56"/><path d = "M 73.8166 129.214 L 73.9415 129.054"/><path d = "M 73.5834 129.56 L 73.6971 129.383"/><path d = "M 73.6971 129.383 L 73.8166 129.214"/><path d = "M 186 99 L 200 99"/><path d = "M 100 99 L 159 99"/><path d = "M 159.00002 98.999985 A 3 3 0 0 0 162.00002 95.999985"/><path d = "M 162 90 L 162 96"/><path d = "M 165.00002 86.999985 A 3 3 0 0 0 162.00002 89.999985"/><path d = "M 165 87 L 180 87"/><path d = "M 183.00002 89.999985 A 3 3 0 0 0 180.00002 86.999985"/><path d = "M 183 96 L 183 90"/><path d = "M 183.00002 95.999985 A 3 3 0 0 0 186.00002 98.999985"/></g></svg>
