<?xml version='1.0' encoding='UTF-8' ?>
<!DOCTYPE svg PUBLIC "-//W3C//DTD SVG 1.1//EN" "http://www.w3.org/Graphics/SVG/1.1/DTD/svg11.dtd" [ 
 <!ATTLIST svg 
                                               xmlns:dsy CDATA #FIXED "http://www.3ds.com/print"  
                                               dsy:text-version CDATA #IMPLIED > 

                                               <!ATTLIST text 
                                               xmlns:dsy CDATA #FIXED "http://www.3ds.com/print" 
                                               dsy:text-version CDATA #IMPLIED > 
                                                ]>
<svg style = "background : rgb(255,255,255)" width = "300mm" xmlns = "http://www.w3.org/2000/svg" height = "300mm" version = "1.1" viewBox = "0 0 300 300" xmlns:dsy = "http://www.3ds.com/print" xmlns:xlink = "http://www.w3.org/1999/xlink" dsy:text-version = "21000"><g fill = "none" stroke = "rgb(255, 0, 0)" stroke-width = "0.13" stroke-linecap = "butt" stroke-linejoin = "miter"><path d = "M 74.676514 194.52661 A 87.5 87.5 0 1 0 62.800766 157.2485"/><circle r = "5" cx = "187.50002" cy = "214.9519"/><circle r = "5" cx = "75.000015" cy = "149.99998"/><circle r = "5" cx = "187.50002" cy = "85.04808"/><path d = "M 77.259033 189.99998 A 3 3 0 0 0 74.676514 194.52661"/><path d = "M 62.80077 157.2485 A 3 3 0 0 0 65.790459 159.99998"/><path d = "M 200 201 L 100 201"/><path d = "M 200.00002 200.99998 A 1 1 0 0 0 201.00002 199.99998"/><path d = "M 99.000015 199.99998 A 1 1 0 0 0 100.00002 200.99998"/><path d = "M 201 100 L 201 200"/><path d = "M 201.00002 99.999985 A 1 1 0 0 0 200.00002 98.999985"/><path d = "M 99 191 L 99 200"/><path d = "M 99.000015 190.99998 A 1 1 0 0 0 98.000015 189.99998"/><path d = "M 100 99 L 200 99"/><path d = "M 100.00002 98.999985 A 1 1 0 0 0 99.000015 99.999985"/><path d = "M 77.259 190 L 98 190"/><path d = "M 99 113 L 99 100"/><path d = "M 98.000015 113.99998 A 1 1 0 0 0 99.000015 112.99998"/><path d = "M 86 114 L 98 114"/><path d = "M 86.000015 113.99998 A 1 1 0 0 0 85.000015 114.99998"/><path d = "M 85 159 L 85 115"/><path d = "M 84.000008 159.99998 A 1 1 0 0 0 85.000008 158.99998"/><path d = "M 84 160 L 65.7905 160"/><path d = "M 80.2157 127.466 L 80.3721 127.468"/><path d = "M 80.3721 127.468 L 80.5196 127.476"/><path d = "M 80.5196 127.476 L 80.6583 127.488"/><path d = "M 80.6583 127.488 L 80.788 127.506"/><path d = "M 80.788 127.506 L 80.9089 127.529"/><path d = "M 80.9089 127.529 L 81.0209 127.556"/><path d = "M 81.0209 127.556 L 81.124 127.589"/><path d = "M 81.124 127.589 L 81.2183 127.627"/><path d = "M 81.2183 127.627 L 81.3036 127.669"/><path d = "M 81.3036 127.669 L 81.3801 127.717"/><path d = "M 81.3801 127.717 L 81.4486 127.771"/><path d = "M 81.4486 127.771 L 81.5098 127.831"/><path d = "M 81.5098 127.831 L 81.5638 127.897"/><path d = "M 81.5638 127.897 L 81.6107 127.97"/><path d = "M 81.6107 127.97 L 81.6503 128.05"/><path d = "M 81.6503 128.05 L 81.6827 128.136"/><path d = "M 81.6827 128.136 L 81.7079 128.229"/><path d = "M 81.7079 128.229 L 81.7259 128.328"/><path d = "M 81.7259 128.328 L 81.7367 128.434"/><path d = "M 81.7367 128.434 L 81.7403 128.546"/><path d = "M 81.7403 128.546 L 81.7361 128.619"/><path d = "M 81.7361 128.619 L 81.7234 128.696"/><path d = "M 81.7234 128.696 L 81.7023 128.778"/><path d = "M 81.7023 128.778 L 81.6727 128.864"/><path d = "M 81.6727 128.864 L 81.6346 128.955"/><path d = "M 81.6346 128.955 L 81.588 129.05"/><path d = "M 81.588 129.05 L 81.5331 129.15"/><path d = "M 81.5331 129.15 L 81.4696 129.254"/><path d = "M 81.4696 129.254 L 81.3977 129.363"/><path d = "M 81.3977 129.363 L 81.3173 129.476"/><path d = "M 81.3173 129.476 L 81.2315 129.593"/><path d = "M 81.2315 129.593 L 81.1434 129.712"/><path d = "M 81.1434 129.712 L 81.0529 129.834"/><path d = "M 81.0529 129.834 L 80.9601 129.958"/><path d = "M 80.9601 129.958 L 80.8649 130.085"/><path d = "M 80.8649 130.085 L 80.7674 130.214"/><path d = "M 80.7674 130.214 L 80.6675 130.345"/><path d = "M 80.6675 130.345 L 80.5654 130.479"/><path d = "M 80.5654 130.479 L 80.4608 130.615"/><path d = "M 80.4608 130.615 L 80.3539 130.754"/><path d = "M 80.3539 130.754 L 80.2455 130.897"/><path d = "M 80.2455 130.897 L 80.1364 131.047"/><path d = "M 80.1364 131.047 L 80.0267 131.204"/><path d = "M 80.0267 131.204 L 79.9163 131.368"/><path d = "M 79.9163 131.368 L 79.8052 131.538"/><path d = "M 79.8052 131.538 L 79.6934 131.715"/><path d = "M 79.6934 131.715 L 79.581 131.899"/><path d = "M 79.581 131.899 L 79.4679 132.09"/><path d = "M 79.4679 132.09 L 79.3541 132.288"/><path d = "M 79.3541 132.288 L 79.2397 132.492"/><path d = "M 79.2397 132.492 L 79.1259 132.705"/><path d = "M 79.1259 132.705 L 79.014 132.926"/><path d = "M 79.014 132.926 L 78.9041 133.157"/><path d = "M 78.9041 133.157 L 78.7961 133.397"/><path d = "M 78.7961 133.397 L 78.6899 133.646"/><path d = "M 78.6899 133.646 L 78.5858 133.905"/><path d = "M 78.5858 133.905 L 78.4835 134.172"/><path d = "M 78.4835 134.172 L 78.3832 134.449"/><path d = "M 78.3832 134.449 L 78.2848 134.735"/><path d = "M 78.2848 134.735 L 78.1884 135.031"/><path d = "M 78.1884 135.031 L 78.1493 135.161"/><path d = "M 78.1493 135.161 L 78.1126 135.286"/><path d = "M 78.1126 135.286 L 78.0783 135.407"/><path d = "M 78.0783 135.407 L 78.0463 135.524"/><path d = "M 78.0463 135.524 L 78.0166 135.636"/><path d = "M 78.0166 135.636 L 77.9893 135.743"/><path d = "M 77.9893 135.743 L 77.9644 135.846"/><path d = "M 77.9644 135.846 L 77.9417 135.945"/><path d = "M 77.9417 135.945 L 77.9214 136.039"/><path d = "M 77.9214 136.039 L 77.9035 136.128"/><path d = "M 77.9035 136.128 L 77.8866 136.218"/><path d = "M 77.8866 136.218 L 77.8694 136.313"/><path d = "M 77.8694 136.313 L 77.8518 136.413"/><path d = "M 77.8518 136.413 L 77.8338 136.518"/><path d = "M 77.8338 136.518 L 77.8156 136.628"/><path d = "M 77.8156 136.628 L 77.797 136.744"/><path d = "M 77.797 136.744 L 77.778 136.865"/><path d = "M 77.778 136.865 L 77.7588 136.991"/><path d = "M 77.7588 136.991 L 77.7392 137.122"/><path d = "M 77.7392 137.122 L 77.7192 137.259"/><path d = "M 77.7192 137.259 L 77.6994 137.395"/><path d = "M 77.6994 137.395 L 77.6801 137.524"/><path d = "M 77.6801 137.524 L 77.6612 137.647"/><path d = "M 77.6612 137.647 L 77.6428 137.763"/><path d = "M 77.6428 137.763 L 77.625 137.873"/><path d = "M 77.625 137.873 L 77.6077 137.976"/><path d = "M 77.6077 137.976 L 77.5908 138.072"/><path d = "M 77.5908 138.072 L 77.5745 138.162"/><path d = "M 77.5745 138.162 L 77.5586 138.246"/><path d = "M 77.5586 138.246 L 77.5433 138.323"/><path d = "M 77.5433 138.323 L 77.5067 138.488"/><path d = "M 77.5067 138.488 L 77.4671 138.644"/><path d = "M 77.4671 138.644 L 77.4246 138.788"/><path d = "M 77.4246 138.788 L 77.3791 138.923"/><path d = "M 77.3791 138.923 L 77.3307 139.046"/><path d = "M 77.3307 139.046 L 77.2794 139.16"/><path d = "M 77.2794 139.16 L 77.2252 139.263"/><path d = "M 77.2252 139.263 L 77.168 139.355"/><path d = "M 77.168 139.355 L 77.1079 139.437"/><path d = "M 77.1079 139.437 L 77.0449 139.508"/><path d = "M 77.0449 139.508 L 76.9782 139.571"/><path d = "M 76.9782 139.571 L 76.9073 139.627"/><path d = "M 76.9073 139.627 L 76.8321 139.677"/><path d = "M 76.8321 139.677 L 76.7527 139.72"/><path d = "M 76.7527 139.72 L 76.6689 139.756"/><path d = "M 76.6689 139.756 L 76.5809 139.786"/><path d = "M 76.5809 139.786 L 76.4887 139.809"/><path d = "M 76.4887 139.809 L 76.3921 139.826"/><path d = "M 76.3921 139.826 L 76.2913 139.836"/><path d = "M 76.2913 139.836 L 76.1862 139.839"/><path d = "M 76.1862 139.839 L 76.086 139.836"/><path d = "M 76.086 139.836 L 75.9898 139.825"/><path d = "M 75.9898 139.825 L 75.8977 139.807"/><path d = "M 75.8977 139.807 L 75.8095 139.782"/><path d = "M 75.8095 139.782 L 75.7254 139.75"/><path d = "M 75.7254 139.75 L 75.6454 139.711"/><path d = "M 75.6454 139.711 L 75.5693 139.665"/><path d = "M 75.5693 139.665 L 75.4973 139.611"/><path d = "M 75.4973 139.611 L 75.4292 139.551"/><path d = "M 75.4292 139.551 L 75.3652 139.483"/><path d = "M 75.3652 139.483 L 75.3063 139.408"/><path d = "M 75.3063 139.408 L 75.2536 139.327"/><path d = "M 75.2536 139.327 L 75.2071 139.239"/><path d = "M 75.2071 139.239 L 75.1668 139.144"/><path d = "M 75.1668 139.144 L 75.1327 139.042"/><path d = "M 75.1327 139.042 L 75.1049 138.934"/><path d = "M 75.1049 138.934 L 75.0832 138.818"/><path d = "M 75.0832 138.818 L 75.0677 138.696"/><path d = "M 75.0677 138.696 L 75.0583 138.567"/><path d = "M 75.0583 138.567 L 75.0552 138.432"/><path d = "M 75.0552 138.432 L 75.0575 138.321"/><path d = "M 75.0575 138.321 L 75.0643 138.202"/><path d = "M 75.0643 138.202 L 75.0756 138.075"/><path d = "M 75.0756 138.075 L 75.0915 137.941"/><path d = "M 75.0915 137.941 L 75.1118 137.799"/><path d = "M 75.1118 137.799 L 75.1367 137.65"/><path d = "M 75.1367 137.65 L 75.1661 137.492"/><path d = "M 75.1661 137.492 L 75.2 137.327"/><path d = "M 75.2 137.327 L 75.2385 137.155"/><path d = "M 75.2385 137.155 L 75.2815 136.974"/><path d = "M 75.2815 136.974 L 75.3295 136.786"/><path d = "M 75.3295 136.786 L 75.3833 136.591"/><path d = "M 75.3833 136.591 L 75.4428 136.388"/><path d = "M 75.4428 136.388 L 75.508 136.179"/><path d = "M 75.508 136.179 L 75.5788 135.961"/><path d = "M 75.5788 135.961 L 75.6554 135.737"/><path d = "M 75.6554 135.737 L 75.7377 135.505"/><path d = "M 75.7377 135.505 L 75.8257 135.266"/><path d = "M 75.8257 135.266 L 75.9193 135.02"/><path d = "M 75.9193 135.02 L 76.0186 134.767"/><path d = "M 76.0186 134.767 L 76.1234 134.509"/><path d = "M 76.1234 134.509 L 76.2333 134.25"/><path d = "M 76.2333 134.25 L 76.3483 133.989"/><path d = "M 76.3483 133.989 L 76.4683 133.727"/><path d = "M 76.4683 133.727 L 76.5935 133.464"/><path d = "M 76.5935 133.464 L 76.7238 133.199"/><path d = "M 76.7238 133.199 L 76.8593 132.934"/><path d = "M 76.8593 132.934 L 76.9998 132.666"/><path d = "M 76.9998 132.666 L 77.1454 132.398"/><path d = "M 77.1454 132.398 L 77.2962 132.128"/><path d = "M 77.2962 132.128 L 77.4524 131.857"/><path d = "M 77.4524 131.857 L 77.6144 131.587"/><path d = "M 77.6144 131.587 L 77.7821 131.317"/><path d = "M 77.7821 131.317 L 77.9556 131.047"/><path d = "M 77.9556 131.047 L 78.135 130.778"/><path d = "M 78.135 130.778 L 78.3201 130.509"/><path d = "M 78.3201 130.509 L 78.5109 130.24"/><path d = "M 78.5109 130.24 L 78.7076 129.971"/><path d = "M 78.7076 129.971 L 78.91 129.703"/><path d = "M 78.91 129.703 L 79.1183 129.434"/><path d = "M 79.1183 129.434 L 74.6364 129.434"/><path d = "M 74.6364 129.434 L 74.4992 129.432"/><path d = "M 74.4992 129.432 L 74.3692 129.424"/><path d = "M 74.3692 129.424 L 74.2462 129.411"/><path d = "M 74.2462 129.411 L 74.1304 129.394"/><path d = "M 74.1304 129.394 L 74.0217 129.371"/><path d = "M 74.0217 129.371 L 73.9201 129.343"/><path d = "M 73.9201 129.343 L 73.8257 129.309"/><path d = "M 73.8257 129.309 L 73.7383 129.271"/><path d = "M 73.7383 129.271 L 73.6581 129.228"/><path d = "M 73.6581 129.228 L 73.585 129.179"/><path d = "M 73.585 129.179 L 73.519 129.125"/><path d = "M 73.519 129.125 L 73.4599 129.065"/><path d = "M 73.4599 129.065 L 73.4077 129"/><path d = "M 73.4077 129 L 73.3625 128.928"/><path d = "M 73.3625 128.928 L 73.3243 128.851"/><path d = "M 73.3243 128.851 L 73.293 128.768"/><path d = "M 73.293 128.768 L 73.2687 128.68"/><path d = "M 73.2687 128.68 L 73.2513 128.585"/><path d = "M 73.2513 128.585 L 73.2409 128.485"/><path d = "M 73.2409 128.485 L 73.2374 128.379"/><path d = "M 73.2374 128.379 L 73.2411 128.267"/><path d = "M 73.2411 128.267 L 73.2521 128.164"/><path d = "M 73.2521 128.164 L 73.2706 128.069"/><path d = "M 73.2706 128.069 L 73.2964 127.982"/><path d = "M 73.2964 127.982 L 73.3295 127.904"/><path d = "M 73.3295 127.904 L 73.3701 127.833"/><path d = "M 73.3701 127.833 L 73.418 127.771"/><path d = "M 73.418 127.771 L 73.4733 127.717"/><path d = "M 73.4733 127.717 L 73.5359 127.671"/><path d = "M 73.5359 127.671 L 73.606 127.633"/><path d = "M 73.606 127.633 L 73.6826 127.602"/><path d = "M 73.6826 127.602 L 73.7652 127.573"/><path d = "M 73.7652 127.573 L 73.8535 127.548"/><path d = "M 73.8535 127.548 L 73.9478 127.526"/><path d = "M 73.9478 127.526 L 74.0479 127.508"/><path d = "M 74.0479 127.508 L 74.1539 127.493"/><path d = "M 74.1539 127.493 L 74.2657 127.481"/><path d = "M 74.2657 127.481 L 74.3834 127.473"/><path d = "M 74.3834 127.473 L 74.507 127.468"/><path d = "M 74.507 127.468 L 74.6364 127.466"/><path d = "M 74.6364 127.466 L 80.2157 127.466"/></g></svg>
