<?xml version='1.0' encoding='UTF-8' ?>
<!DOCTYPE svg PUBLIC "-//W3C//DTD SVG 1.1//EN" "http://www.w3.org/Graphics/SVG/1.1/DTD/svg11.dtd" [ 
 <!ATTLIST svg 
                                               xmlns:dsy CDATA #FIXED "http://www.3ds.com/print"  
                                               dsy:text-version CDATA #IMPLIED > 

                                               <!ATTLIST text 
                                               xmlns:dsy CDATA #FIXED "http://www.3ds.com/print" 
                                               dsy:text-version CDATA #IMPLIED > 
                                                ]>
<svg style = "background : rgb(255,255,255)" width = "300mm" xmlns = "http://www.w3.org/2000/svg" height = "300mm" version = "1.1" viewBox = "0 0 300 300" xmlns:dsy = "http://www.3ds.com/print" xmlns:xlink = "http://www.w3.org/1999/xlink" dsy:text-version = "21000"><g fill = "none" stroke = "rgb(255, 0, 0)" stroke-width = "0.13" stroke-linecap = "butt" stroke-linejoin = "miter"><circle r = "87.5" cx = "150.00002" cy = "149.99998"/><path d = "M 186.00002 113.49998 A 0.5 0.5 0 0 0 185.50002 112.99998"/><path d = "M 186 137.5 L 186 113.5"/><path d = "M 185.50002 137.99998 A 0.5 0.5 0 0 0 186.00002 137.49998"/><path d = "M 185.5 138 L 114.5 138"/><path d = "M 114.00002 137.49998 A 0.5 0.5 0 0 0 114.50002 137.99998"/><path d = "M 114 113.5 L 114 137.5"/><path d = "M 114.50002 112.99998 A 0.5 0.5 0 0 0 114.00002 113.49998"/><path d = "M 114.5 113 L 185.5 113"/><circle r = "5.5" cx = "190.00002" cy = "180.99998"/><circle r = "2.5" cx = "190.00002" cy = "150.99998"/><circle r = "2.5" cx = "190.00002" cy = "164.49998"/></g></svg>
