<?xml version='1.0' encoding='UTF-8' ?>
<!DOCTYPE svg PUBLIC "-//W3C//DTD SVG 1.1//EN" "http://www.w3.org/Graphics/SVG/1.1/DTD/svg11.dtd" [ 
 <!ATTLIST svg 
                                               xmlns:dsy CDATA #FIXED "http://www.3ds.com/print"  
                                               dsy:text-version CDATA #IMPLIED > 

                                               <!ATTLIST text 
                                               xmlns:dsy CDATA #FIXED "http://www.3ds.com/print" 
                                               dsy:text-version CDATA #IMPLIED > 
                                                ]>
<svg style = "background : rgb(255,255,255)" width = "300mm" xmlns = "http://www.w3.org/2000/svg" height = "300mm" version = "1.1" viewBox = "0 0 300 300" xmlns:dsy = "http://www.3ds.com/print" xmlns:xlink = "http://www.w3.org/1999/xlink" dsy:text-version = "21000"><g fill = "none" stroke = "rgb(255, 0, 0)" stroke-width = "0.13" stroke-linecap = "butt" stroke-linejoin = "miter"><path d = "M 116 136.036 L 116 135.033"/><path d = "M 114 135.033 L 114 136.036"/><path d = "M 114 163.964 L 114 164.967"/><path d = "M 116 164.967 L 116 163.964"/><path d = "M 168.5 166.347 L 168.5 165.344"/><path d = "M 166.5 165.344 L 166.5 166.347"/><path d = "M 166.5 194.275 L 166.5 195.277"/><path d = "M 168.5 195.277 L 168.5 194.275"/><path d = "M 168.5 105.725 L 168.5 104.722"/><path d = "M 166.5 104.722 L 166.5 105.725"/><path d = "M 166.5 133.653 L 166.5 134.656"/><path d = "M 168.5 134.656 L 168.5 133.653"/><path d = "M 149 163.964 L 149 164.967"/><path d = "M 151 164.967 L 151 163.964"/><path d = "M 186 136.036 L 186 135.033"/><path d = "M 184 135.033 L 184 136.036"/><path d = "M 184 163.964 L 184 164.967"/><path d = "M 186 164.967 L 186 163.964"/><path d = "M 133.5 166.347 L 133.5 165.344"/><path d = "M 131.5 165.344 L 131.5 166.347"/><path d = "M 131.5 194.275 L 131.5 195.277"/><path d = "M 133.5 195.277 L 133.5 194.275"/><path d = "M 133.5 105.725 L 133.5 104.722"/><path d = "M 131.5 104.722 L 131.5 105.725"/><path d = "M 131.5 133.653 L 131.5 134.656"/><path d = "M 133.5 134.656 L 133.5 133.653"/><path d = "M 182.443 121 L 181.439 121"/><path d = "M 168.50002 133.65334 A 14 14 0 0 0 181.43851 120.99998"/><path d = "M 168.50002 134.65573 A 15 15 0 0 0 182.44263 120.99998"/><circle r = "87.5" cx = "150.00002" cy = "149.99998"/><path d = "M 168.50002 189.25516 A 9 9 0 0 0 176.4736 180.99998"/><path d = "M 177.476 181 L 176.474 181"/><path d = "M 168.50002 190.26074 A 10 10 0 0 0 177.47624 180.99998"/><path d = "M 168.50002 194.27512 A 14 14 0 0 0 181.48305 181"/><path d = "M 182.484 181 L 181.483 181"/><path d = "M 168.50002 195.2775 A 15 15 0 0 0 182.48418 180.99998"/><path d = "M 152.51585 180.99998 A 15 15 0 0 0 166.50002 195.2775"/><path d = "M 153.517 181 L 152.516 181"/><path d = "M 153.51698 180.99998 A 14 14 0 0 0 166.50002 194.27512"/><path d = "M 157.52379 180.99998 A 10 10 0 0 0 166.50002 190.26074"/><path d = "M 158.526 181 L 157.524 181"/><path d = "M 158.52643 180.99998 A 9 9 0 0 0 166.50002 189.25516"/><path d = "M 162.54773 180.99998 A 5 5 0 0 0 166.50002 185.20985"/><path d = "M 163.56 181 L 162.548 181"/><path d = "M 163.55981 180.99998 A 4 4 0 0 0 166.50002 184.18387"/><path d = "M 166.50002 176.4379 A 4 4 0 0 0 163.72092 178.99998"/><path d = "M 162.675 179 L 163.721 179"/><path d = "M 166.50002 175.4119 A 5 5 0 0 0 162.67491 178.99998"/><path d = "M 166.50002 171.36661 A 9 9 0 0 0 158.59599 178.99998"/><path d = "M 157.586 179 L 158.596 179"/><path d = "M 166.50002 170.36101 A 10 10 0 0 0 157.5863 178.99998"/><path d = "M 166.50002 166.34663 A 14 14 0 0 0 153.56152 178.99998"/><path d = "M 152.557 179 L 153.562 179"/><path d = "M 166.50002 165.34424 A 15 15 0 0 0 152.5574 178.99998"/><path d = "M 182.44263 178.99998 A 15 15 0 0 0 168.50002 165.34424"/><path d = "M 181.439 179 L 182.443 179"/><path d = "M 181.43851 178.99998 A 14 14 0 0 0 168.50002 166.34663"/><path d = "M 177.41373 178.99998 A 10 10 0 0 0 168.50002 170.36101"/><path d = "M 176.404 179 L 177.414 179"/><path d = "M 176.40404 178.99998 A 9 9 0 0 0 168.50002 171.36661"/><path d = "M 172.32512 178.99998 A 5 5 0 0 0 168.50002 175.4119"/><path d = "M 171.279 179 L 172.325 179"/><path d = "M 171.27911 178.99998 A 4 4 0 0 0 168.50002 176.4379"/><path d = "M 168.50002 184.18387 A 4 4 0 0 0 171.44022 180.99998"/><path d = "M 172.452 181 L 171.44 181"/><path d = "M 168.50002 185.20985 A 5 5 0 0 0 172.4523 180.99998"/><path d = "M 168.50002 128.63338 A 9 9 0 0 0 176.40404 120.99998"/><path d = "M 177.414 121 L 176.404 121"/><path d = "M 168.50002 129.63898 A 10 10 0 0 0 177.41373 120.99998"/><path d = "M 152.5574 120.99998 A 15 15 0 0 0 166.50002 134.65573"/><path d = "M 153.562 121 L 152.557 121"/><path d = "M 153.56152 120.99998 A 14 14 0 0 0 166.50002 133.65334"/><path d = "M 157.5863 120.99998 A 10 10 0 0 0 166.50002 129.63898"/><path d = "M 158.596 121 L 157.586 121"/><path d = "M 158.59599 120.99998 A 9 9 0 0 0 166.50002 128.63338"/><path d = "M 162.67491 120.99998 A 5 5 0 0 0 166.50002 124.58809"/><path d = "M 163.721 121 L 162.675 121"/><path d = "M 163.72092 120.99998 A 4 4 0 0 0 166.50002 123.56209"/><path d = "M 166.50002 115.81612 A 4 4 0 0 0 163.55981 118.99998"/><path d = "M 162.548 119 L 163.56 119"/><path d = "M 166.50002 114.79012 A 5 5 0 0 0 162.54773 118.99998"/><path d = "M 166.50002 110.74483 A 9 9 0 0 0 158.52643 118.99998"/><path d = "M 157.524 119 L 158.526 119"/><path d = "M 166.50002 109.73923 A 10 10 0 0 0 157.52379 118.99998"/><path d = "M 166.50002 105.72487 A 14 14 0 0 0 153.51698 118.99998"/><path d = "M 152.516 119 L 153.517 119"/><path d = "M 166.50002 104.72247 A 15 15 0 0 0 152.51585 118.99998"/><path d = "M 182.48418 118.99998 A 15 15 0 0 0 168.50002 104.72247"/><path d = "M 181.483 119 L 182.484 119"/><path d = "M 181.48305 118.99998 A 14 14 0 0 0 168.50002 105.72487"/><path d = "M 177.47624 118.99998 A 10 10 0 0 0 168.50002 109.73923"/><path d = "M 176.474 119 L 177.476 119"/><path d = "M 176.4736 118.99998 A 9 9 0 0 0 168.50002 110.74483"/><path d = "M 172.4523 118.99998 A 5 5 0 0 0 168.50002 114.79013"/><path d = "M 171.44 119 L 172.452 119"/><path d = "M 171.44022 118.99998 A 4 4 0 0 0 168.50002 115.81612"/><path d = "M 168.50002 123.56209 A 4 4 0 0 0 171.27911 120.99998"/><path d = "M 172.325 121 L 171.279 121"/><path d = "M 168.50002 124.58809 A 5 5 0 0 0 172.32512 120.99998"/><path d = "M 149.00002 141.05571 A 9 9 0 0 0 141.05574 148.99998"/><path d = "M 140.05 149 L 141.056 149"/><path d = "M 149.00002 140.05011 A 10 10 0 0 0 140.05014 148.99998"/><path d = "M 149.00002 136.03575 A 14 14 0 0 0 136.03578 148.99998"/><path d = "M 135.033 149 L 136.036 149"/><path d = "M 149.00002 135.03336 A 15 15 0 0 0 135.03339 148.99998"/><path d = "M 164.96664 148.99998 A 15 15 0 0 0 151.00002 135.03336"/><path d = "M 163.964 149 L 164.967 149"/><path d = "M 163.96425 148.99998 A 14 14 0 0 0 151.00002 136.03575"/><path d = "M 159.94989 148.99998 A 10 10 0 0 0 151.00002 140.05011"/><path d = "M 158.944 149 L 159.95 149"/><path d = "M 158.94429 148.99998 A 9 9 0 0 0 151.00002 141.05571"/><path d = "M 154.89899 148.99998 A 5 5 0 0 0 151.00002 145.10101"/><path d = "M 153.873 149 L 154.899 149"/><path d = "M 153.873 148.99998 A 4 4 0 0 0 151.00002 146.127"/><path d = "M 151.00002 153.87297 A 4 4 0 0 0 153.873 150.99998"/><path d = "M 154.899 151 L 153.873 151"/><path d = "M 151.00002 154.89897 A 5 5 0 0 0 154.89899 150.99998"/><path d = "M 151.00002 158.94426 A 9 9 0 0 0 158.94429 150.99998"/><path d = "M 159.95 151 L 158.944 151"/><path d = "M 151.00002 159.94986 A 10 10 0 0 0 159.94989 150.99998"/><path d = "M 151.00002 163.96422 A 14 14 0 0 0 163.96425 150.99998"/><path d = "M 164.967 151 L 163.964 151"/><path d = "M 151.00002 164.96661 A 15 15 0 0 0 164.96664 150.99998"/><path d = "M 135.03339 150.99998 A 15 15 0 0 0 149.00002 164.96661"/><path d = "M 136.036 151 L 135.033 151"/><path d = "M 136.03578 150.99998 A 14 14 0 0 0 149.00002 163.96422"/><path d = "M 140.05014 150.99998 A 10 10 0 0 0 149.00002 159.94986"/><path d = "M 141.056 151 L 140.05 151"/><path d = "M 141.05574 150.99998 A 9 9 0 0 0 149.00002 158.94426"/><path d = "M 145.10104 150.99998 A 5 5 0 0 0 149.00002 154.89897"/><path d = "M 146.127 151 L 145.101 151"/><path d = "M 146.12703 150.99998 A 4 4 0 0 0 149.00002 153.87297"/><path d = "M 149.00002 146.127 A 4 4 0 0 0 146.12703 148.99998"/><path d = "M 145.101 149 L 146.127 149"/><path d = "M 149.00002 145.101 A 5 5 0 0 0 145.10104 148.99998"/><path d = "M 186.00002 158.94426 A 9 9 0 0 0 193.94429 150.99998"/><path d = "M 194.95 151 L 193.944 151"/><path d = "M 186.00002 159.94986 A 10 10 0 0 0 194.94989 150.99998"/><path d = "M 186.00002 163.96422 A 14 14 0 0 0 198.96425 150.99998"/><path d = "M 199.967 151 L 198.964 151"/><path d = "M 186.00002 164.96661 A 15 15 0 0 0 199.96664 150.99998"/><path d = "M 170.03339 150.99998 A 15 15 0 0 0 184.00002 164.96661"/><path d = "M 171.036 151 L 170.033 151"/><path d = "M 171.03578 150.99998 A 14 14 0 0 0 184.00002 163.96422"/><path d = "M 175.05014 150.99998 A 10 10 0 0 0 184.00002 159.94986"/><path d = "M 176.056 151 L 175.05 151"/><path d = "M 176.05574 150.99998 A 9 9 0 0 0 184.00002 158.94426"/><path d = "M 180.10104 150.99998 A 5 5 0 0 0 184.00002 154.89897"/><path d = "M 181.127 151 L 180.101 151"/><path d = "M 181.12703 150.99998 A 4 4 0 0 0 184.00002 153.87297"/><path d = "M 184.00002 146.127 A 4 4 0 0 0 181.12703 148.99998"/><path d = "M 180.101 149 L 181.127 149"/><path d = "M 184.00002 145.101 A 5 5 0 0 0 180.10104 148.99998"/><path d = "M 184.00002 141.05571 A 9 9 0 0 0 176.05574 148.99998"/><path d = "M 175.05 149 L 176.056 149"/><path d = "M 184.00002 140.05011 A 10 10 0 0 0 175.05014 148.99998"/><path d = "M 184.00002 136.03575 A 14 14 0 0 0 171.03578 148.99998"/><path d = "M 170.033 149 L 171.036 149"/><path d = "M 184.00002 135.03336 A 15 15 0 0 0 170.03339 148.99998"/><path d = "M 199.96664 148.99998 A 15 15 0 0 0 186.00002 135.03336"/><path d = "M 198.964 149 L 199.967 149"/><path d = "M 198.96425 148.99998 A 14 14 0 0 0 186.00002 136.03575"/><path d = "M 194.94989 148.99998 A 10 10 0 0 0 186.00002 140.05011"/><path d = "M 193.944 149 L 194.95 149"/><path d = "M 193.94429 148.99998 A 9 9 0 0 0 186.00002 141.05571"/><path d = "M 189.89899 148.99998 A 5 5 0 0 0 186.00002 145.10101"/><path d = "M 188.873 149 L 189.899 149"/><path d = "M 188.873 148.99998 A 4 4 0 0 0 186.00002 146.127"/><path d = "M 186.00002 153.87297 A 4 4 0 0 0 188.873 150.99998"/><path d = "M 189.899 151 L 188.873 151"/><path d = "M 186.00002 154.89897 A 5 5 0 0 0 189.89899 150.99998"/><path d = "M 133.50002 189.25516 A 9 9 0 0 0 141.4736 180.99998"/><path d = "M 142.476 181 L 141.474 181"/><path d = "M 133.50002 190.26074 A 10 10 0 0 0 142.47624 180.99998"/><path d = "M 133.50002 194.27512 A 14 14 0 0 0 146.48305 181"/><path d = "M 147.484 181 L 146.483 181"/><path d = "M 133.50002 195.2775 A 15 15 0 0 0 147.48418 180.99998"/><path d = "M 117.51585 180.99998 A 15 15 0 0 0 131.50002 195.2775"/><path d = "M 118.517 181 L 117.516 181"/><path d = "M 118.51698 180.99998 A 14 14 0 0 0 131.50002 194.27512"/><path d = "M 122.52379 180.99998 A 10 10 0 0 0 131.50002 190.26074"/><path d = "M 123.526 181 L 122.524 181"/><path d = "M 123.52644 180.99998 A 9 9 0 0 0 131.50002 189.25516"/><path d = "M 127.54773 180.99998 A 5 5 0 0 0 131.50002 185.20985"/><path d = "M 128.56 181 L 127.548 181"/><path d = "M 128.55981 180.99998 A 4 4 0 0 0 131.50002 184.18387"/><path d = "M 131.50002 176.4379 A 4 4 0 0 0 128.72092 178.99998"/><path d = "M 127.675 179 L 128.721 179"/><path d = "M 131.50002 175.4119 A 5 5 0 0 0 127.67492 178.99998"/><path d = "M 131.50002 171.36661 A 9 9 0 0 0 123.59599 178.99998"/><path d = "M 122.586 179 L 123.596 179"/><path d = "M 131.50002 170.36101 A 10 10 0 0 0 122.58631 178.99998"/><path d = "M 131.50002 166.34663 A 14 14 0 0 0 118.56152 178.99998"/><path d = "M 117.557 179 L 118.562 179"/><path d = "M 131.50002 165.34424 A 15 15 0 0 0 117.5574 178.99998"/><path d = "M 147.44263 178.99998 A 15 15 0 0 0 133.50002 165.34424"/><path d = "M 146.439 179 L 147.443 179"/><path d = "M 146.43851 178.99998 A 14 14 0 0 0 133.50002 166.34663"/><path d = "M 142.41373 178.99998 A 10 10 0 0 0 133.50002 170.36101"/><path d = "M 141.404 179 L 142.414 179"/><path d = "M 141.40404 178.99998 A 9 9 0 0 0 133.50002 171.36661"/><path d = "M 137.32512 178.99998 A 5 5 0 0 0 133.50002 175.4119"/><path d = "M 136.279 179 L 137.325 179"/><path d = "M 136.27911 178.99998 A 4 4 0 0 0 133.50002 176.4379"/><path d = "M 133.50002 184.18387 A 4 4 0 0 0 136.44022 180.99998"/><path d = "M 137.452 181 L 136.44 181"/><path d = "M 133.50002 185.20985 A 5 5 0 0 0 137.4523 180.99998"/><path d = "M 133.50002 128.63338 A 9 9 0 0 0 141.40404 120.99998"/><path d = "M 142.414 121 L 141.404 121"/><path d = "M 133.50002 129.63898 A 10 10 0 0 0 142.41373 120.99998"/><path d = "M 133.50002 133.65334 A 14 14 0 0 0 146.43851 120.99998"/><path d = "M 147.443 121 L 146.439 121"/><path d = "M 133.50002 134.65573 A 15 15 0 0 0 147.44263 120.99998"/><path d = "M 117.5574 120.99998 A 15 15 0 0 0 131.50002 134.65573"/><path d = "M 118.562 121 L 117.557 121"/><path d = "M 118.56152 120.99998 A 14 14 0 0 0 131.50002 133.65334"/><path d = "M 122.58631 120.99998 A 10 10 0 0 0 131.50002 129.63898"/><path d = "M 123.596 121 L 122.586 121"/><path d = "M 123.59599 120.99998 A 9 9 0 0 0 131.50002 128.63338"/><path d = "M 127.67492 120.99998 A 5 5 0 0 0 131.50002 124.58809"/><path d = "M 128.721 121 L 127.675 121"/><path d = "M 128.72092 120.99998 A 4 4 0 0 0 131.50002 123.56209"/><path d = "M 131.50002 115.81612 A 4 4 0 0 0 128.55981 118.99998"/><path d = "M 127.548 119 L 128.56 119"/><path d = "M 131.50002 114.79012 A 5 5 0 0 0 127.54773 118.99998"/><path d = "M 131.50002 110.74483 A 9 9 0 0 0 123.52644 118.99998"/><path d = "M 122.524 119 L 123.526 119"/><path d = "M 131.50002 109.73923 A 10 10 0 0 0 122.52379 118.99998"/><path d = "M 131.50002 105.72487 A 14 14 0 0 0 118.51698 118.99998"/><path d = "M 117.516 119 L 118.517 119"/><path d = "M 131.50002 104.72247 A 15 15 0 0 0 117.51585 118.99998"/><path d = "M 147.48418 118.99998 A 15 15 0 0 0 133.50002 104.72247"/><path d = "M 146.483 119 L 147.484 119"/><path d = "M 146.48305 118.99998 A 14 14 0 0 0 133.50002 105.72487"/><path d = "M 142.47624 118.99998 A 10 10 0 0 0 133.50002 109.73923"/><path d = "M 141.474 119 L 142.476 119"/><path d = "M 141.4736 118.99998 A 9 9 0 0 0 133.50002 110.74483"/><path d = "M 137.4523 118.99998 A 5 5 0 0 0 133.50002 114.79013"/><path d = "M 136.44 119 L 137.452 119"/><path d = "M 136.44022 118.99998 A 4 4 0 0 0 133.50002 115.81612"/><path d = "M 133.50002 123.56209 A 4 4 0 0 0 136.27911 120.99998"/><path d = "M 137.325 121 L 136.279 121"/><path d = "M 133.50002 124.58809 A 5 5 0 0 0 137.32512 120.99998"/><circle r = "5.5" cx = "112.50002" cy = "214.9519"/><circle r = "5.5" cx = "112.50002" cy = "85.04808"/><path d = "M 124.94989 148.99998 A 10 10 0 0 0 116.00002 140.05011"/><path d = "M 123.944 149 L 124.95 149"/><path d = "M 123.94429 148.99998 A 9 9 0 0 0 116.00002 141.05571"/><path d = "M 119.89899 148.99998 A 5 5 0 0 0 116.00002 145.10101"/><path d = "M 118.873 149 L 119.899 149"/><path d = "M 118.873 148.99998 A 4 4 0 0 0 116.00002 146.127"/><path d = "M 116.00002 153.87297 A 4 4 0 0 0 118.873 150.99998"/><path d = "M 119.899 151 L 118.873 151"/><path d = "M 116.00002 154.89897 A 5 5 0 0 0 119.89899 150.99998"/><path d = "M 116.00002 158.94426 A 9 9 0 0 0 123.94429 150.99998"/><path d = "M 124.95 151 L 123.944 151"/><path d = "M 116.00002 159.94986 A 10 10 0 0 0 124.94989 150.99998"/><path d = "M 116.00002 163.96422 A 14 14 0 0 0 128.96425 150.99998"/><path d = "M 129.967 151 L 128.964 151"/><path d = "M 116.00002 164.96661 A 15 15 0 0 0 129.96664 150.99998"/><path d = "M 100.03339 150.99998 A 15 15 0 0 0 114.00002 164.96661"/><path d = "M 101.036 151 L 100.033 151"/><path d = "M 101.03577 150.99998 A 14 14 0 0 0 114.00002 163.96422"/><path d = "M 105.05014 150.99998 A 10 10 0 0 0 114.00002 159.94986"/><path d = "M 106.056 151 L 105.05 151"/><path d = "M 106.05574 150.99998 A 9 9 0 0 0 114.00002 158.94426"/><path d = "M 110.10104 150.99998 A 5 5 0 0 0 114.00002 154.89897"/><path d = "M 111.127 151 L 110.101 151"/><path d = "M 111.12703 150.99998 A 4 4 0 0 0 114.00002 153.87297"/><path d = "M 114.00002 146.127 A 4 4 0 0 0 111.12703 148.99998"/><path d = "M 110.101 149 L 111.127 149"/><path d = "M 114.00002 145.101 A 5 5 0 0 0 110.10104 148.99998"/><path d = "M 114.00002 141.05571 A 9 9 0 0 0 106.05574 148.99998"/><path d = "M 105.05 149 L 106.056 149"/><path d = "M 114.00002 140.05011 A 10 10 0 0 0 105.05014 148.99998"/><path d = "M 114.00002 136.03575 A 14 14 0 0 0 101.03577 148.99998"/><path d = "M 100.033 149 L 101.036 149"/><path d = "M 114.00002 135.03336 A 15 15 0 0 0 100.03339 148.99998"/><path d = "M 129.96664 148.99998 A 15 15 0 0 0 116.00002 135.03336"/><path d = "M 128.964 149 L 129.967 149"/><path d = "M 128.96425 148.99998 A 14 14 0 0 0 116.00002 136.03575"/><circle r = "5.5" cx = "225.00002" cy = "149.99998"/><path d = "M 133.5 110.745 L 133.5 109.739"/><path d = "M 131.5 109.739 L 131.5 110.745"/><path d = "M 133.5 115.816 L 133.5 114.79"/><path d = "M 131.5 114.79 L 131.5 115.816"/><path d = "M 131.5 123.562 L 131.5 124.588"/><path d = "M 133.5 124.588 L 133.5 123.562"/><path d = "M 133.5 129.639 L 133.5 128.633"/><path d = "M 131.5 128.633 L 131.5 129.639"/><path d = "M 133.5 171.367 L 133.5 170.361"/><path d = "M 131.5 170.361 L 131.5 171.367"/><path d = "M 133.5 176.438 L 133.5 175.412"/><path d = "M 131.5 175.412 L 131.5 176.438"/><path d = "M 131.5 184.184 L 131.5 185.21"/><path d = "M 133.5 185.21 L 133.5 184.184"/><path d = "M 133.5 190.261 L 133.5 189.255"/><path d = "M 131.5 189.255 L 131.5 190.261"/><path d = "M 186 141.056 L 186 140.05"/><path d = "M 184 140.05 L 184 141.056"/><path d = "M 186 146.127 L 186 145.101"/><path d = "M 184 145.101 L 184 146.127"/><path d = "M 184 153.873 L 184 154.899"/><path d = "M 186 154.899 L 186 153.873"/><path d = "M 186 159.95 L 186 158.944"/><path d = "M 184 158.944 L 184 159.95"/><path d = "M 151 159.95 L 151 158.944"/><path d = "M 149 158.944 L 149 159.95"/><path d = "M 149 153.873 L 149 154.899"/><path d = "M 151 154.899 L 151 153.873"/><path d = "M 168.5 110.745 L 168.5 109.739"/><path d = "M 166.5 109.739 L 166.5 110.745"/><path d = "M 168.5 115.816 L 168.5 114.79"/><path d = "M 166.5 114.79 L 166.5 115.816"/><path d = "M 166.5 123.562 L 166.5 124.588"/><path d = "M 168.5 124.588 L 168.5 123.562"/><path d = "M 168.5 129.639 L 168.5 128.633"/><path d = "M 166.5 128.633 L 166.5 129.639"/><path d = "M 168.5 171.367 L 168.5 170.361"/><path d = "M 166.5 170.361 L 166.5 171.367"/><path d = "M 168.5 176.438 L 168.5 175.412"/><path d = "M 166.5 175.412 L 166.5 176.438"/><path d = "M 166.5 184.184 L 166.5 185.21"/><path d = "M 168.5 185.21 L 168.5 184.184"/><path d = "M 168.5 190.261 L 168.5 189.255"/><path d = "M 166.5 189.255 L 166.5 190.261"/><path d = "M 116 159.95 L 116 158.944"/><path d = "M 114 158.944 L 114 159.95"/><path d = "M 116 141.056 L 116 140.05"/><path d = "M 114 140.05 L 114 141.056"/><path d = "M 116 146.127 L 116 145.101"/><path d = "M 114 145.101 L 114 146.127"/><path d = "M 114 153.873 L 114 154.899"/><path d = "M 116 154.899 L 116 153.873"/><path d = "M 151 146.127 L 151 145.101"/><path d = "M 149 145.101 L 149 146.127"/><path d = "M 151 141.056 L 151 140.05"/><path d = "M 149 140.05 L 149 141.056"/><path d = "M 151 136.036 L 151 135.033"/><path d = "M 149 135.033 L 149 136.036"/></g></svg>
