<?xml version='1.0' encoding='UTF-8' ?>
<!DOCTYPE svg PUBLIC "-//W3C//DTD SVG 1.1//EN" "http://www.w3.org/Graphics/SVG/1.1/DTD/svg11.dtd" [ 
 <!ATTLIST svg 
                                               xmlns:dsy CDATA #FIXED "http://www.3ds.com/print"  
                                               dsy:text-version CDATA #IMPLIED > 

                                               <!ATTLIST text 
                                               xmlns:dsy CDATA #FIXED "http://www.3ds.com/print" 
                                               dsy:text-version CDATA #IMPLIED > 
                                                ]>
<svg style = "background : rgb(255,255,255)" width = "300mm" xmlns = "http://www.w3.org/2000/svg" height = "300mm" version = "1.1" viewBox = "0 0 300 300" xmlns:dsy = "http://www.3ds.com/print" xmlns:xlink = "http://www.w3.org/1999/xlink" dsy:text-version = "21000"><g fill = "none" stroke = "rgb(255, 0, 0)" stroke-width = "0.13" stroke-linecap = "butt" stroke-linejoin = "miter"><circle r = "87.5" cx = "150.00002" cy = "149.99998"/><circle r = "5.5" cx = "112.50002" cy = "214.9519"/><circle r = "5.5" cx = "225.00002" cy = "149.99998"/><circle r = "5.5" cx = "112.50002" cy = "85.04808"/><path d = "M 105.40001 104.89998 A 0.5 0.5 0 0 0 104.90001 105.39998"/><path d = "M 105.4 104.9 L 194.6 104.9"/><path d = "M 195.10002 105.39998 A 0.5 0.5 0 0 0 194.60002 104.89998"/><path d = "M 195.1 194.6 L 195.1 105.4"/><path d = "M 194.60002 195.09999 A 0.5 0.5 0 0 0 195.10002 194.59999"/><path d = "M 194.6 195.1 L 105.4 195.1"/><path d = "M 104.90001 194.59999 A 0.5 0.5 0 0 0 105.40001 195.09999"/><path d = "M 104.9 105.4 L 104.9 194.6"/></g></svg>
