  0
SECTION
  2
HEADER
  9
$ACADVER
  1
AC1024
  9
$ACADMAINTVER
 70
     6
  9
$DWGCODEPAGE
  3
ANSI_1252
  9
$INSBASE
 10
0.0
 20
0.0
 30
0.0
  9
$EXTMIN
 10
0.0
 20
0.0
 30
0.0
  9
$EXTMAX
 10
235.314041
 20
237.5
 30
2.0
  9
$LIMMIN
 10
0.0
 20
0.0
  9
$LIMMAX
 10
420.0
 20
297.0
  9
$ORTHOMODE
 70
     0
  9
$REGENMODE
 70
     1
  9
$FILLMODE
 70
     1
  9
$QTEXTMODE
 70
     0
  9
$MIRRTEXT
 70
     1
  9
$LTSCALE
 40
1.0
  9
$ATTMODE
 70
     1
  9
$TEXTSIZE
 40
2.5
  9
$TRACEWID
 40
1.0
  9
$TEXTSTYLE
  7
Standard
  9
$CLAYER
  8
0
  9
$CELTYPE
  6
ByLayer
  9
$CECOLOR
 62
   256
  9
$CELTSCALE
 40
1.0
  9
$DISPSILH
 70
     0
  9
$DIMSCALE
 40
1.0
  9
$DIMASZ
 40
2.5
  9
$DIMEXO
 40
0.625
  9
$DIMDLI
 40
3.75
  9
$DIMRND
 40
0.0
  9
$DIMDLE
 40
0.0
  9
$DIMEXE
 40
1.25
  9
$DIMTP
 40
0.0
  9
$DIMTM
 40
0.0
  9
$DIMTXT
 40
2.5
  9
$DIMCEN
 40
2.5
  9
$DIMTSZ
 40
0.0
  9
$DIMTOL
 70
     0
  9
$DIMLIM
 70
     0
  9
$DIMTIH
 70
     0
  9
$DIMTOH
 70
     0
  9
$DIMSE1
 70
     0
  9
$DIMSE2
 70
     0
  9
$DIMTAD
 70
     1
  9
$DIMZIN
 70
     8
  9
$DIMBLK
  1

  9
$DIMASO
 70
     1
  9
$DIMSHO
 70
     1
  9
$DIMPOST
  1

  9
$DIMAPOST
  1

  9
$DIMALT
 70
     0
  9
$DIMALTD
 70
     3
  9
$DIMALTF
 40
0.03937
  9
$DIMLFAC
 40
1.0
  9
$DIMTOFL
 70
     1
  9
$DIMTVP
 40
0.0
  9
$DIMTIX
 70
     0
  9
$DIMSOXD
 70
     0
  9
$DIMSAH
 70
     0
  9
$DIMBLK1
  1

  9
$DIMBLK2
  1

  9
$DIMSTYLE
  2
Standard
  9
$DIMCLRD
 70
     0
  9
$DIMCLRE
 70
     0
  9
$DIMCLRT
 70
     0
  9
$DIMTFAC
 40
1.0
  9
$DIMGAP
 40
0.625
  9
$DIMJUST
 70
     0
  9
$DIMSD1
 70
     0
  9
$DIMSD2
 70
     0
  9
$DIMTOLJ
 70
     0
  9
$DIMTZIN
 70
     8
  9
$DIMALTZ
 70
     0
  9
$DIMALTTZ
 70
     0
  9
$DIMUPT
 70
     0
  9
$DIMDEC
 70
     2
  9
$DIMTDEC
 70
     2
  9
$DIMALTU
 70
     2
  9
$DIMALTTD
 70
     3
  9
$DIMTXSTY
  7
Standard
  9
$DIMAUNIT
 70
     0
  9
$DIMADEC
 70
     0
  9
$DIMALTRND
 40
0.0
  9
$DIMAZIN
 70
     0
  9
$DIMDSEP
 70
    44
  9
$DIMATFIT
 70
     0
  9
$DIMFRAC
 70
     0
  9
$DIMLDRBLK
  1

  9
$DIMLUNIT
 70
     2
  9
$DIMLWD
 70
    -2
  9
$DIMLWE
 70
    -2
  9
$DIMTMOVE
 70
     0
  9
$DIMFXL
 40
1.0
  9
$DIMFXLON
 70
     0
  9
$DIMJOGANG
 40
0.785398
  9
$DIMTFILL
 70
     0
  9
$DIMTFILLCLR
 70
     0
  9
$DIMARCSYM
 70
     0
  9
$DIMLTYPE
  6

  9
$DIMLTEX1
  6

  9
$DIMLTEX2
  6

  9
$DIMTXTDIRECTION
 70
     0
  9
$LUNITS
 70
     2
  9
$LUPREC
 70
     4
  9
$SKETCHINC
 40
1.0
  9
$FILLETRAD
 40
2.5
  9
$AUNITS
 70
     0
  9
$AUPREC
 70
     0
  9
$MENU
  1
.
  9
$ELEVATION
 40
0.0
  9
$PELEVATION
 40
0.0
  9
$THICKNESS
 40
0.0
  9
$LIMCHECK
 70
     0
  9
$CHAMFERA
 40
2.5
  9
$CHAMFERB
 40
2.5
  9
$CHAMFERC
 40
0.0
  9
$CHAMFERD
 40
0.0
  9
$SKPOLY
 70
     0
  9
$TDCREATE
 40
2447893.083333333
  9
$TDUCREATE
 40
0.0
  9
$TDUPDATE
 40
2458650.402096204
  9
$TDUUPDATE
 40
2458650.318762871
  9
$TDINDWG
 40
0.0
  9
$TDUSRTIMER
 40
0.0
  9
$USRTIMER
 70
     1
  9
$ANGBASE
 50
0.0
  9
$ANGDIR
 70
     0
  9
$PDMODE
 70
     0
  9
$PDSIZE
 40
0.0
  9
$PLINEWID
 40
0.0
  9
$SPLFRAME
 70
     0
  9
$SPLINETYPE
 70
     6
  9
$SPLINESEGS
 70
     8
  9
$HANDSEED
  5
194
  9
$SURFTAB1
 70
     6
  9
$SURFTAB2
 70
     6
  9
$SURFTYPE
 70
     6
  9
$SURFU
 70
     6
  9
$SURFV
 70
     6
  9
$UCSBASE
  2

  9
$UCSNAME
  2

  9
$UCSORG
 10
0.0
 20
0.0
 30
0.0
  9
$UCSXDIR
 10
1.0
 20
0.0
 30
0.0
  9
$UCSYDIR
 10
0.0
 20
1.0
 30
0.0
  9
$UCSORTHOREF
  2

  9
$UCSORTHOVIEW
 70
     1
  9
$UCSORGTOP
 10
0.0
 20
0.0
 30
0.0
  9
$UCSORGBOTTOM
 10
0.0
 20
0.0
 30
0.0
  9
$UCSORGLEFT
 10
0.0
 20
0.0
 30
0.0
  9
$UCSORGRIGHT
 10
0.0
 20
0.0
 30
0.0
  9
$UCSORGFRONT
 10
0.0
 20
0.0
 30
0.0
  9
$UCSORGBACK
 10
0.0
 20
0.0
 30
0.0
  9
$PUCSBASE
  2

  9
$PUCSNAME
  2

  9
$PUCSORG
 10
0.0
 20
0.0
 30
0.0
  9
$PUCSXDIR
 10
1.0
 20
0.0
 30
0.0
  9
$PUCSYDIR
 10
0.0
 20
1.0
 30
0.0
  9
$PUCSORTHOREF
  2

  9
$PUCSORTHOVIEW
 70
     0
  9
$PUCSORGTOP
 10
0.0
 20
0.0
 30
0.0
  9
$PUCSORGBOTTOM
 10
0.0
 20
0.0
 30
0.0
  9
$PUCSORGLEFT
 10
0.0
 20
0.0
 30
0.0
  9
$PUCSORGRIGHT
 10
0.0
 20
0.0
 30
0.0
  9
$PUCSORGFRONT
 10
0.0
 20
0.0
 30
0.0
  9
$PUCSORGBACK
 10
0.0
 20
0.0
 30
0.0
  9
$USERI1
 70
     0
  9
$USERI2
 70
     0
  9
$USERI3
 70
     0
  9
$USERI4
 70
     0
  9
$USERI5
 70
     0
  9
$USERR1
 40
0.0
  9
$USERR2
 40
0.0
  9
$USERR3
 40
0.0
  9
$USERR4
 40
0.0
  9
$USERR5
 40
0.0
  9
$WORLDVIEW
 70
     1
  9
$SHADEDGE
 70
     3
  9
$SHADEDIF
 70
    70
  9
$TILEMODE
 70
     1
  9
$MAXACTVP
 70
    64
  9
$PINSBASE
 10
0.0
 20
0.0
 30
0.0
  9
$PLIMCHECK
 70
     0
  9
$PEXTMIN
 10
0.0
 20
0.0
 30
0.0
  9
$PEXTMAX
 10
235.314041
 20
237.5
 30
2.0
  9
$PLIMMIN
 10
0.0
 20
0.0
  9
$PLIMMAX
 10
420.0
 20
297.0
  9
$UNITMODE
 70
     0
  9
$VISRETAIN
 70
     0
  9
$PLINEGEN
 70
     0
  9
$PSLTSCALE
 70
     1
  9
$TREEDEPTH
 70
  3020
  9
$CMLSTYLE
  2
Standard
  9
$CMLJUST
 70
     0
  9
$CMLSCALE
 40
20.0
  9
$PROXYGRAPHICS
 70
     1
  9
$MEASUREMENT
 70
     1
  9
$CELWEIGHT
370
    -1
  9
$ENDCAPS
280
     0
  9
$JOINSTYLE
280
     0
  9
$LWDISPLAY
290
     0
  9
$INSUNITS
 70
     0
  9
$HYPERLINKBASE
  1

  9
$STYLESHEET
  1

  9
$XEDIT
290
     1
  9
$CEPSNTYPE
380
     0
  9
$PSTYLEMODE
290
     0
  9
$FINGERPRINTGUID
  2
{5819D7F4-10F0-4719-8942-DBBB1AFECCB3}
  9
$VERSIONGUID
  2
{FAEB1C32-E019-11D5-929B-00C0DF256EC4}
  9
$EXTNAMES
290
     1
  9
$PSVPSCALE
 40
0.0
  9
$OLESTARTUP
290
     0
  9
$SORTENTS
280
     0
  9
$INDEXCTL
280
     0
  9
$HIDETEXT
280
     0
  9
$XCLIPFRAME
280
     0
  9
$HALOGAP
280
     0
  9
$OBSCOLOR
 70
     0
  9
$OBSLTYPE
280
     0
  9
$INTERSECTIONDISPLAY
280
     0
  9
$INTERSECTIONCOLOR
 70
     0
  9
$DIMASSOC
280
     0
  9
$PROJECTNAME
  1

  9
$CAMERADISPLAY
290
     0
  9
$LENSLENGTH
 40
50.0
  9
$CAMERAHEIGHT
 40
0.0
  9
$STEPSPERSEC
 40
2.0
  9
$STEPSIZE
 40
6.0
  9
$3DDWFPREC
 40
2.0
  9
$PSOLWIDTH
 40
0.25
  9
$PSOLHEIGHT
 40
4.0
  9
$LOFTANG1
 40
1.570796
  9
$LOFTANG2
 40
1.570796
  9
$LOFTMAG1
 40
0.0
  9
$LOFTMAG2
 40
0.0
  9
$LOFTPARAM
 70
     7
  9
$LOFTNORMALS
280
     1
  9
$LATITUDE
 40
37.795
  9
$LONGITUDE
 40
-122.394
  9
$NORTHDIRECTION
 40
0.0
  9
$TIMEZONE
 70
 -8000
  9
$LIGHTGLYPHDISPLAY
280
     1
  9
$TILEMODELIGHTSYNCH
280
     1
  9
$CMATERIAL
347
44
  9
$SOLIDHIST
280
     0
  9
$SHOWHIST
280
     1
  9
$DWFFRAME
280
     2
  9
$DGNFRAME
280
     2
  9
$REALWORLDSCALE
290
     1
  9
$INTERFERECOLOR
 62
   256
  9
$CSHADOW
280
     0
  9
$SHADOWPLANELOCATION
 40
0.0
  0
ENDSEC
  0
SECTION
  2
CLASSES
  0
CLASS
  1
ACDBDICTIONARYWDFLT
  2
AcDbDictionaryWithDefault
  3
ObjectDBX Classes
 90
        0
 91
        4
280
     0
281
     0
  0
CLASS
  1
VISUALSTYLE
  2
AcDbVisualStyle
  3
ObjectDBX Classes
 90
     4095
 91
        4
280
     0
281
     0
  0
CLASS
  1
MATERIAL
  2
AcDbMaterial
  3
ObjectDBX Classes
 90
     1153
 91
        4
280
     0
281
     0
  0
CLASS
  1
SCALE
  2
AcDbScale
  3
ObjectDBX Classes
 90
     1153
 91
        4
280
     0
281
     0
  0
CLASS
  1
TABLESTYLE
  2
AcDbTableStyle
  3
ObjectDBX Classes
 90
     4095
 91
        4
280
     0
281
     0
  0
CLASS
  1
MLEADERSTYLE
  2
AcDbMLeaderStyle
  3
ACDB_MLEADERSTYLE_CLASS
 90
     4095
 91
        4
280
     0
281
     0
  0
CLASS
  1
SUN
  2
AcDbSun
  3
SCENEOE
 90
     1153
 91
        4
280
     0
281
     0
  0
CLASS
  1
DICTIONARYVAR
  2
AcDbDictionaryVar
  3
ObjectDBX Classes
 90
        0
 91
        4
280
     0
281
     0
  0
CLASS
  1
CELLSTYLEMAP
  2
AcDbCellStyleMap
  3
ObjectDBX Classes
 90
     1152
 91
        4
280
     0
281
     0
  0
ENDSEC
  0
SECTION
  2
TABLES
  0
TABLE
  2
VPORT
  5
8
330
0
100
AcDbSymbolTable
 70
     1
  0
VPORT
  5
29
330
8
100
AcDbSymbolTableRecord
100
AcDbViewportTableRecord
  2
*Active
 70
     0
 10
0.0
 20
0.0
 11
1.0
 21
1.0
 12
10.429907
 22
4.5
 13
0.0
 23
0.0
 14
0.5
 24
0.5
 15
0.5
 25
0.5
 16
0.0
 26
0.0
 36
1.0
 17
0.0
 27
0.0
 37
0.0
 40
9.0
 41
1.972973
 42
50.0
 43
0.0
 44
0.0
 50
0.0
 51
0.0
 71
     0
 72
   100
 73
     1
 74
     3
 75
     0
 76
     0
 77
     0
 78
     0
281
     0
 65
     1
110
0.0
120
0.0
130
0.0
111
1.0
121
0.0
131
0.0
112
0.0
122
1.0
132
0.0
 79
     0
146
0.0
348
2F
 60
     3
 61
     5
292
     1
282
     1
141
0.0
142
0.0
 63
   250
361
6D
  0
ENDTAB
  0
TABLE
  2
LTYPE
  5
5
330
0
100
AcDbSymbolTable
 70
     1
  0
LTYPE
  5
14
330
5
100
AcDbSymbolTableRecord
100
AcDbLinetypeTableRecord
  2
ByBlock
 70
     0
  3

 72
    65
 73
     0
 40
0.0
  0
LTYPE
  5
15
330
5
100
AcDbSymbolTableRecord
100
AcDbLinetypeTableRecord
  2
ByLayer
 70
     0
  3

 72
    65
 73
     0
 40
0.0
  0
LTYPE
  5
16
330
5
100
AcDbSymbolTableRecord
100
AcDbLinetypeTableRecord
  2
Continuous
 70
     0
  3
Solid line
 72
    65
 73
     0
 40
0.0
  0
ENDTAB
  0
TABLE
  2
LAYER
  5
2
330
0
100
AcDbSymbolTable
 70
     1
  0
LAYER
  5
10
330
2
100
AcDbSymbolTableRecord
100
AcDbLayerTableRecord
  2
0
 70
     0
 62
     7
  6
Continuous
370
    -3
390
F
347
46
  0
ENDTAB
  0
TABLE
  2
STYLE
  5
3
330
0
100
AcDbSymbolTable
 70
     1
  0
STYLE
  5
11
330
3
100
AcDbSymbolTableRecord
100
AcDbTextStyleTableRecord
  2
Standard
 70
     0
 40
0.0
 41
1.0
 50
0.0
 71
     0
 42
2.5
  3
txt
  4

  0
ENDTAB
  0
TABLE
  2
VIEW
  5
6
330
0
100
AcDbSymbolTable
 70
     0
  0
ENDTAB
  0
TABLE
  2
UCS
  5
7
330
0
100
AcDbSymbolTable
 70
     0
  0
ENDTAB
  0
TABLE
  2
APPID
  5
9
330
0
100
AcDbSymbolTable
 70
     1
  0
APPID
  5
12
330
9
100
AcDbSymbolTableRecord
100
AcDbRegAppTableRecord
  2
ACAD
 70
     0
  0
ENDTAB
  0
TABLE
  2
DIMSTYLE
  5
A
330
0
100
AcDbSymbolTable
 70
     1
100
AcDbDimStyleTable
  0
DIMSTYLE
105
27
330
A
100
AcDbSymbolTableRecord
100
AcDbDimStyleTableRecord
  2
Standard
 70
     0
178
     0
340
11
  0
ENDTAB
  0
TABLE
  2
BLOCK_RECORD
  5
1
330
0
100
AcDbSymbolTable
 70
     1
  0
BLOCK_RECORD
  5
1F
330
1
100
AcDbSymbolTableRecord
100
AcDbBlockTableRecord
  2
*Model_Space
340
22
 70
     0
280
     1
281
     0
  0
BLOCK_RECORD
  5
1B
330
1
100
AcDbSymbolTableRecord
100
AcDbBlockTableRecord
  2
*Paper_Space
340
1E
 70
     0
280
     1
281
     0
  0
BLOCK_RECORD
  5
23
330
1
100
AcDbSymbolTableRecord
100
AcDbBlockTableRecord
  2
*Paper_Space0
340
26
 70
     0
280
     1
281
     0
  0
ENDTAB
  0
ENDSEC
  0
SECTION
  2
BLOCKS
  0
BLOCK
  5
20
330
1F
100
AcDbEntity
  8
0
100
AcDbBlockBegin
  2
*Model_Space
 70
     0
 10
0.0
 20
0.0
 30
0.0
  3
*Model_Space
  1

  0
ENDBLK
  5
21
330
1F
100
AcDbEntity
  8
0
100
AcDbBlockEnd
  0
BLOCK
  5
1C
330
1B
100
AcDbEntity
 67
     1
  8
0
100
AcDbBlockBegin
  2
*Paper_Space
 70
     0
 10
0.0
 20
0.0
 30
0.0
  3
*Paper_Space
  1

  0
ENDBLK
  5
1D
330
1B
100
AcDbEntity
 67
     1
  8
0
100
AcDbBlockEnd
  0
BLOCK
  5
24
330
23
100
AcDbEntity
  8
0
100
AcDbBlockBegin
  2
*Paper_Space0
 70
     0
 10
0.0
 20
0.0
 30
0.0
  3
*Paper_Space0
  1

  0
ENDBLK
  5
25
330
23
100
AcDbEntity
  8
0
100
AcDbBlockEnd
  0
ENDSEC
  0
SECTION
  2
ENTITIES
  0
CIRCLE
  5
6E
330
1F
100
AcDbEntity
  8
0
 62
     1
370
    13
100
AcDbCircle
 10
198.685944
 20
103.5
 30
0.0
 40
1.75
  0
CIRCLE
  5
6F
330
1F
100
AcDbEntity
  8
0
 62
     1
370
    13
100
AcDbCircle
 10
112.185944
 20
196.5
 30
0.0
 40
1.75
  0
CIRCLE
  5
70
330
1F
100
AcDbEntity
  8
0
 62
     1
370
    13
100
AcDbCircle
 10
198.685944
 20
196.5
 30
0.0
 40
1.75
  0
CIRCLE
  5
71
330
1F
100
AcDbEntity
  8
0
 62
     1
370
    13
100
AcDbCircle
 10
112.185944
 20
103.5
 30
0.0
 40
1.75
  0
CIRCLE
  5
72
330
1F
100
AcDbEntity
  8
0
 62
     1
370
    13
100
AcDbCircle
 10
189.685944
 20
85.048096
 30
0.0
 40
2.5
  0
CIRCLE
  5
73
330
1F
100
AcDbEntity
  8
0
 62
     1
370
    13
100
AcDbCircle
 10
77.185944
 20
150.0
 30
0.0
 40
2.5
  0
CIRCLE
  5
74
330
1F
100
AcDbEntity
  8
0
 62
     1
370
    13
100
AcDbCircle
 10
189.685944
 20
214.951904
 30
0.0
 40
2.5
  0
LINE
  5
75
330
1F
100
AcDbEntity
  8
0
 62
     1
370
    13
100
AcDbLine
 10
192.185944
 20
107.0
 30
0.0
 11
192.185944
 21
102.0
 31
0.0
  0
ARC
  5
76
330
1F
100
AcDbEntity
  8
0
 62
     1
370
    13
100
AcDbCircle
 10
195.185944
 20
107.0
 30
0.0
 40
3.0
100
AcDbArc
 50
90.000003
 51
180.000005
  0
ARC
  5
77
330
1F
100
AcDbEntity
  8
0
 62
     1
370
    13
100
AcDbCircle
 10
189.185944
 20
102.0
 30
0.0
 40
3.0
100
AcDbArc
 50
269.999997
 51
360.0
  0
LINE
  5
78
330
1F
100
AcDbEntity
  8
0
 62
     1
370
    13
100
AcDbLine
 10
200.185944
 20
110.0
 30
0.0
 11
195.185944
 21
110.0
 31
0.0
  0
ARC
  5
79
330
1F
100
AcDbEntity
  8
0
 62
     1
370
    13
100
AcDbCircle
 10
200.185944
 20
113.0
 30
0.0
 40
3.0
100
AcDbArc
 50
269.999997
 51
360.0
  0
LINE
  5
7A
330
1F
100
AcDbEntity
  8
0
 62
     1
370
    13
100
AcDbLine
 10
189.185944
 20
99.0
 30
0.0
 11
145.043854
 21
99.0
 31
0.0
  0
ARC
  5
7B
330
1F
100
AcDbEntity
  8
0
 62
     1
370
    13
100
AcDbCircle
 10
145.043854
 20
100.0
 30
0.0
 40
1.0
100
AcDbArc
 50
239.999997
 51
269.999997
  0
LINE
  5
7C
330
1F
100
AcDbEntity
  8
0
 62
     1
370
    13
100
AcDbLine
 10
203.185944
 20
113.0
 30
0.0
 11
203.185944
 21
138.250854
 31
0.0
  0
ARC
  5
7D
330
1F
100
AcDbEntity
  8
0
 62
     1
370
    13
100
AcDbCircle
 10
200.185944
 20
138.250854
 30
0.0
 40
3.0
100
AcDbArc
 50
0.0
 51
79.999998
  0
LINE
  5
7E
330
1F
100
AcDbEntity
  8
0
 62
     1
370
    13
100
AcDbLine
 10
143.516068
 20
99.727371
 30
0.0
 11
144.543854
 21
99.133972
 31
0.0
  0
ARC
  5
7F
330
1F
100
AcDbEntity
  8
0
 62
     1
370
    13
100
AcDbCircle
 10
144.016068
 20
100.593399
 30
0.0
 40
0.999999999999995
100
AcDbArc
 50
179.999995
 51
239.999997
  0
LINE
  5
80
330
1F
100
AcDbEntity
  8
0
 62
     1
370
    13
100
AcDbLine
 10
181.664993
 20
144.562881
 30
0.0
 11
200.706879
 21
141.205276
 31
0.0
  0
ARC
  5
81
330
1F
100
AcDbEntity
  8
0
 62
     1
370
    13
100
AcDbCircle
 10
182.185944
 20
147.517303
 30
0.0
 40
3.0
100
AcDbArc
 50
180.000005
 51
259.999999
  0
LINE
  5
82
330
1F
100
AcDbEntity
  8
0
 62
     1
370
    13
100
AcDbLine
 10
143.016068
 20
122.385262
 30
0.0
 11
143.016068
 21
100.593399
 31
0.0
  0
ARC
  5
83
330
1F
100
AcDbEntity
  8
0
 62
     1
370
    13
100
AcDbCircle
 10
140.016068
 20
122.385262
 30
0.0
 40
3.0
100
AcDbArc
 50
0.0
 51
60.000002
  0
LINE
  5
84
330
1F
100
AcDbEntity
  8
0
 62
     1
370
    13
100
AcDbLine
 10
179.185944
 20
152.482697
 30
0.0
 11
179.185944
 21
147.517303
 31
0.0
  0
ARC
  5
85
330
1F
100
AcDbEntity
  8
0
 62
     1
370
    13
100
AcDbCircle
 10
182.185944
 20
152.482697
 30
0.0
 40
3.0
100
AcDbArc
 50
100.000001
 51
180.000005
  0
LINE
  5
86
330
1F
100
AcDbEntity
  8
0
 62
     1
370
    13
100
AcDbLine
 10
135.85582
 20
128.251282
 30
0.0
 11
141.516068
 21
124.983337
 31
0.0
  0
ARC
  5
87
330
1F
100
AcDbEntity
  8
0
 62
     1
370
    13
100
AcDbCircle
 10
134.35582
 20
125.653214
 30
0.0
 40
3.0
100
AcDbArc
 50
60.000002
 51
120.000003
  0
LINE
  5
88
330
1F
100
AcDbEntity
  8
0
 62
     1
370
    13
100
AcDbLine
 10
181.664993
 20
155.437119
 30
0.0
 11
200.706879
 21
158.794724
 31
0.0
  0
ARC
  5
89
330
1F
100
AcDbEntity
  8
0
 62
     1
370
    13
100
AcDbCircle
 10
200.185944
 20
161.749146
 30
0.0
 40
3.0
100
AcDbArc
 50
280.000002
 51
360.0
  0
LINE
  5
8A
330
1F
100
AcDbEntity
  8
0
 62
     1
370
    13
100
AcDbLine
 10
105.685944
 20
112.564758
 30
0.0
 11
132.85582
 21
128.251282
 31
0.0
  0
ARC
  5
8B
330
1F
100
AcDbEntity
  8
0
 62
     1
370
    13
100
AcDbCircle
 10
104.185944
 20
115.162827
 30
0.0
 40
3.0
100
AcDbArc
 50
180.000005
 51
299.999998
  0
LINE
  5
8C
330
1F
100
AcDbEntity
  8
0
 62
     1
370
    13
100
AcDbLine
 10
203.185944
 20
187.0
 30
0.0
 11
203.185944
 21
161.749146
 31
0.0
  0
ARC
  5
8D
330
1F
100
AcDbEntity
  8
0
 62
     1
370
    13
100
AcDbCircle
 10
200.185944
 20
187.0
 30
0.0
 40
3.0
100
AcDbArc
 50
0.0
 51
90.000003
  0
LINE
  5
8E
330
1F
100
AcDbEntity
  8
0
 62
     1
370
    13
100
AcDbLine
 10
195.185944
 20
190.0
 30
0.0
 11
200.185944
 21
190.0
 31
0.0
  0
ARC
  5
8F
330
1F
100
AcDbEntity
  8
0
 62
     1
370
    13
100
AcDbCircle
 10
195.185944
 20
193.0
 30
0.0
 40
3.0
100
AcDbArc
 50
180.000005
 51
269.999997
  0
ARC
  5
90
330
1F
100
AcDbEntity
  8
0
 62
     1
370
    13
100
AcDbCircle
 10
104.185944
 20
184.837173
 30
0.0
 40
3.0
100
AcDbArc
 50
60.000002
 51
180.000005
  0
LINE
  5
91
330
1F
100
AcDbEntity
  8
0
 62
     1
370
    13
100
AcDbLine
 10
192.185944
 20
198.0
 30
0.0
 11
192.185944
 21
193.0
 31
0.0
  0
ARC
  5
92
330
1F
100
AcDbEntity
  8
0
 62
     1
370
    13
100
AcDbCircle
 10
189.185944
 20
198.0
 30
0.0
 40
3.0
100
AcDbArc
 50
0.0
 51
90.000003
  0
ARC
  5
93
330
1F
100
AcDbEntity
  8
0
 62
     1
370
    13
100
AcDbCircle
 10
145.043854
 20
200.0
 30
0.0
 40
1.000000000000002
100
AcDbArc
 50
90.000003
 51
120.000003
  0
LINE
  5
94
330
1F
100
AcDbEntity
  8
0
 62
     1
370
    13
100
AcDbLine
 10
105.685944
 20
187.435242
 30
0.0
 11
132.85582
 21
171.748718
 31
0.0
  0
ARC
  5
95
330
1F
100
AcDbEntity
  8
0
 62
     1
370
    13
100
AcDbCircle
 10
134.35582
 20
174.346786
 30
0.0
 40
3.0
100
AcDbArc
 50
239.999997
 51
299.999998
  0
LINE
  5
96
330
1F
100
AcDbEntity
  8
0
 62
     1
370
    13
100
AcDbLine
 10
144.543854
 20
200.866028
 30
0.0
 11
143.516068
 21
200.272629
 31
0.0
  0
ARC
  5
97
330
1F
100
AcDbEntity
  8
0
 62
     1
370
    13
100
AcDbCircle
 10
144.016068
 20
199.406601
 30
0.0
 40
1.0
100
AcDbArc
 50
120.000003
 51
180.000005
  0
LINE
  5
98
330
1F
100
AcDbEntity
  8
0
 62
     1
370
    13
100
AcDbLine
 10
135.85582
 20
171.748718
 30
0.0
 11
141.516068
 21
175.016663
 31
0.0
  0
ARC
  5
99
330
1F
100
AcDbEntity
  8
0
 62
     1
370
    13
100
AcDbCircle
 10
140.016068
 20
177.614731
 30
0.0
 40
3.0
100
AcDbArc
 50
299.999998
 51
360.0
  0
LINE
  5
9A
330
1F
100
AcDbEntity
  8
0
 62
     1
370
    13
100
AcDbLine
 10
143.016068
 20
199.406601
 30
0.0
 11
143.016068
 21
177.614731
 31
0.0
  0
ARC
  5
9B
330
1F
100
AcDbEntity
  8
0
 62
     1
370
    13
100
AcDbCircle
 10
152.185944
 20
150.0
 30
0.0
 40
87.5
100
AcDbArc
 50
18.736244
 51
101.263756
  0
ARC
  5
9C
330
1F
100
AcDbEntity
  8
0
 62
     1
370
    13
100
AcDbCircle
 10
230.314041
 20
176.5
 30
0.0
 40
5.000000000000002
100
AcDbArc
 50
269.999997
 51
18.736244
  0
ARC
  5
9D
330
1F
100
AcDbEntity
  8
0
 62
     1
370
    13
100
AcDbCircle
 10
136.071564
 20
230.910919
 30
0.0
 40
5.0
100
AcDbArc
 50
101.263756
 51
210.000003
  0
ARC
  5
9E
330
1F
100
AcDbEntity
  8
0
 62
     1
370
    13
100
AcDbCircle
 10
152.185944
 20
150.0
 30
0.0
 40
87.5
100
AcDbArc
 50
138.73625
 51
221.26375
  0
ARC
  5
9F
330
1F
100
AcDbEntity
  8
0
 62
     1
370
    13
100
AcDbCircle
 10
90.172226
 20
204.410919
 30
0.0
 40
5.000000000000001
100
AcDbArc
 50
30.000001
 51
138.73625
  0
ARC
  5
A0
330
1F
100
AcDbEntity
  8
0
 62
     1
370
    13
100
AcDbCircle
 10
152.185944
 20
150.0
 30
0.0
 40
87.5
100
AcDbArc
 50
258.736244
 51
341.263756
  0
ARC
  5
A1
330
1F
100
AcDbEntity
  8
0
 62
     1
370
    13
100
AcDbCircle
 10
230.314041
 20
123.5
 30
0.0
 40
5.0
100
AcDbArc
 50
341.263756
 51
90.000003
  0
ARC
  5
A2
330
1F
100
AcDbEntity
  8
0
 62
     1
370
    13
100
AcDbCircle
 10
136.071564
 20
69.089081
 30
0.0
 40
5.000000000000003
100
AcDbArc
 50
149.999997
 51
258.736244
  0
ARC
  5
A3
330
1F
100
AcDbEntity
  8
0
 62
     1
370
    13
100
AcDbCircle
 10
90.172226
 20
95.589081
 30
0.0
 40
4.999999999999998
100
AcDbArc
 50
221.26375
 51
329.999999
  0
LINE
  5
A4
330
1F
100
AcDbEntity
  8
0
 62
     1
370
    13
100
AcDbLine
 10
230.314041
 20
128.5
 30
0.0
 11
224.185944
 21
128.5
 31
0.0
  0
ARC
  5
A5
330
1F
100
AcDbEntity
  8
0
 62
     1
370
    13
100
AcDbCircle
 10
224.185944
 20
133.5
 30
0.0
 40
5.0
100
AcDbArc
 50
180.000005
 51
269.999997
  0
ARC
  5
A6
330
1F
100
AcDbEntity
  8
0
 62
     1
370
    13
100
AcDbCircle
 10
224.185944
 20
166.5
 30
0.0
 40
5.0
100
AcDbArc
 50
90.000003
 51
180.000005
  0
LINE
  5
A7
330
1F
100
AcDbEntity
  8
0
 62
     1
370
    13
100
AcDbLine
 10
224.185944
 20
171.5
 30
0.0
 11
230.314041
 21
171.5
 31
0.0
  0
LINE
  5
A8
330
1F
100
AcDbEntity
  8
0
 62
     1
370
    13
100
AcDbLine
 10
97.566399
 20
201.603821
 30
0.0
 11
94.50235
 21
206.910919
 31
0.0
  0
ARC
  5
A9
330
1F
100
AcDbEntity
  8
0
 62
     1
370
    13
100
AcDbCircle
 10
101.89653
 20
204.103821
 30
0.0
 40
4.999999999999998
100
AcDbArc
 50
210.000003
 51
299.999998
  0
ARC
  5
AA
330
1F
100
AcDbEntity
  8
0
 62
     1
370
    13
100
AcDbCircle
 10
130.475357
 20
220.603821
 30
0.0
 40
5.0
100
AcDbArc
 50
299.999998
 51
30.000001
  0
LINE
  5
AB
330
1F
100
AcDbEntity
  8
0
 62
     1
370
    13
100
AcDbLine
 10
134.805496
 20
223.103821
 30
0.0
 11
131.74144
 21
228.410919
 31
0.0
  0
LINE
  5
AC
330
1F
100
AcDbEntity
  8
0
 62
     1
370
    13
100
AcDbLine
 10
134.805496
 20
76.896172
 30
0.0
 11
131.74144
 21
71.589081
 31
0.0
  0
ARC
  5
AD
330
1F
100
AcDbEntity
  8
0
 62
     1
370
    13
100
AcDbCircle
 10
130.475357
 20
79.396172
 30
0.0
 40
5.000000000000006
100
AcDbArc
 50
329.999999
 51
60.000002
  0
ARC
  5
AE
330
1F
100
AcDbEntity
  8
0
 62
     1
370
    13
100
AcDbCircle
 10
101.89653
 20
95.896172
 30
0.0
 40
4.999999999999998
100
AcDbArc
 50
60.000002
 51
149.999997
  0
LINE
  5
AF
330
1F
100
AcDbEntity
  8
0
 62
     1
370
    13
100
AcDbLine
 10
97.566399
 20
98.396172
 30
0.0
 11
94.50235
 21
93.089081
 31
0.0
  0
LINE
  5
B0
330
1F
100
AcDbEntity
  8
0
 62
     1
370
    13
100
AcDbLine
 10
110.891716
 20
96.476303
 30
0.0
 11
104.39653
 21
100.226303
 31
0.0
  0
ARC
  5
B1
330
1F
100
AcDbEntity
  8
0
 62
     1
370
    13
100
AcDbCircle
 10
113.391716
 20
100.806427
 30
0.0
 40
4.999999999999998
100
AcDbArc
 50
239.999997
 51
329.999999
  0
LINE
  5
B2
330
1F
100
AcDbEntity
  8
0
 62
     1
370
    13
100
AcDbLine
 10
132.975357
 20
83.726295
 30
0.0
 11
126.480171
 21
87.476303
 31
0.0
  0
ARC
  5
B3
330
1F
100
AcDbEntity
  8
0
 62
     1
370
    13
100
AcDbCircle
 10
128.980179
 20
91.806427
 30
0.0
 40
5.000000000000001
100
AcDbArc
 50
149.999997
 51
239.999997
  0
LINE
  5
B4
330
1F
100
AcDbEntity
  8
0
 62
     1
370
    13
100
AcDbLine
 10
104.39653
 20
199.773697
 30
0.0
 11
110.891716
 21
203.523697
 31
0.0
  0
ARC
  5
B5
330
1F
100
AcDbEntity
  8
0
 62
     1
370
    13
100
AcDbCircle
 10
113.391716
 20
199.193573
 30
0.0
 40
4.999999999999998
100
AcDbArc
 50
30.000001
 51
120.000003
  0
LINE
  5
B6
330
1F
100
AcDbEntity
  8
0
 62
     1
370
    13
100
AcDbLine
 10
126.480171
 20
212.523697
 30
0.0
 11
132.975357
 21
216.273712
 31
0.0
  0
ARC
  5
B7
330
1F
100
AcDbEntity
  8
0
 62
     1
370
    13
100
AcDbCircle
 10
128.980179
 20
208.193573
 30
0.0
 40
5.0
100
AcDbArc
 50
120.000003
 51
210.000003
  0
LINE
  5
B8
330
1F
100
AcDbEntity
  8
0
 62
     1
370
    13
100
AcDbLine
 10
219.185944
 20
141.0
 30
0.0
 11
219.185944
 21
133.5
 31
0.0
  0
ARC
  5
B9
330
1F
100
AcDbEntity
  8
0
 62
     1
370
    13
100
AcDbCircle
 10
214.185944
 20
141.0
 30
0.0
 40
5.0
100
AcDbArc
 50
0.0
 51
90.000003
  0
LINE
  5
BA
330
1F
100
AcDbEntity
  8
0
 62
     1
370
    13
100
AcDbLine
 10
219.185944
 20
166.5
 30
0.0
 11
219.185944
 21
159.0
 31
0.0
  0
ARC
  5
BB
330
1F
100
AcDbEntity
  8
0
 62
     1
370
    13
100
AcDbCircle
 10
214.185944
 20
159.0
 30
0.0
 40
5.0
100
AcDbArc
 50
269.999997
 51
360.0
  0
LINE
  5
BC
330
1F
100
AcDbEntity
  8
0
 62
     1
370
    13
100
AcDbLine
 10
117.721848
 20
98.306427
 30
0.0
 11
119.221848
 21
100.904503
 31
0.0
  0
ARC
  5
BD
330
1F
100
AcDbEntity
  8
0
 62
     1
370
    13
100
AcDbCircle
 10
122.685944
 20
98.904503
 30
0.0
 40
3.999999999999999
100
AcDbArc
 50
329.999999
 51
149.999997
  0
LINE
  5
BE
330
1F
100
AcDbEntity
  8
0
 62
     1
370
    13
100
AcDbLine
 10
124.650047
 20
94.306427
 30
0.0
 11
126.150047
 21
96.904503
 31
0.0
  0
LINE
  5
BF
330
1F
100
AcDbEntity
  8
0
 62
     1
370
    13
100
AcDbLine
 10
211.185944
 20
146.0
 30
0.0
 11
214.185944
 21
146.0
 31
0.0
  0
ARC
  5
C0
330
1F
100
AcDbEntity
  8
0
 62
     1
370
    13
100
AcDbCircle
 10
211.185944
 20
150.0
 30
0.0
 40
3.999999999999999
100
AcDbArc
 50
90.000003
 51
269.999997
  0
LINE
  5
C1
330
1F
100
AcDbEntity
  8
0
 62
     1
370
    13
100
AcDbLine
 10
214.185944
 20
154.0
 30
0.0
 11
211.185944
 21
154.0
 31
0.0
  0
LINE
  5
C2
330
1F
100
AcDbEntity
  8
0
 62
     1
370
    13
100
AcDbLine
 10
126.150047
 20
203.09549
 30
0.0
 11
124.650047
 21
205.693573
 31
0.0
  0
ARC
  5
C3
330
1F
100
AcDbEntity
  8
0
 62
     1
370
    13
100
AcDbCircle
 10
122.685944
 20
201.09549
 30
0.0
 40
3.999999999999999
100
AcDbArc
 50
210.000003
 51
30.000001
  0
LINE
  5
C4
330
1F
100
AcDbEntity
  8
0
 62
     1
370
    13
100
AcDbLine
 10
117.721848
 20
201.693573
 30
0.0
 11
119.221848
 21
199.09549
 31
0.0
  0
LINE
  5
C5
330
1F
100
AcDbEntity
  8
0
 62
     1
370
    13
100
AcDbLine
 10
81.222282
 20
160.375732
 30
0.0
 11
81.219391
 21
160.498306
 31
0.0
  0
LINE
  5
C6
330
1F
100
AcDbEntity
  8
0
 62
     1
370
    13
100
AcDbLine
 10
81.230949
 20
160.259216
 30
0.0
 11
81.222282
 21
160.375732
 31
0.0
  0
LINE
  5
C7
330
1F
100
AcDbEntity
  8
0
 62
     1
370
    13
100
AcDbLine
 10
81.219391
 20
160.498306
 30
0.0
 11
81.219391
 21
162.056488
 31
0.0
  0
LINE
  5
C8
330
1F
100
AcDbEntity
  8
0
 62
     1
370
    13
100
AcDbLine
 10
81.245399
 20
160.14888
 30
0.0
 11
81.230949
 21
160.259216
 31
0.0
  0
LINE
  5
C9
330
1F
100
AcDbEntity
  8
0
 62
     1
370
    13
100
AcDbLine
 10
81.219391
 20
162.056488
 30
0.0
 11
77.013985
 21
162.056488
 31
0.0
  0
LINE
  5
CA
330
1F
100
AcDbEntity
  8
0
 62
     1
370
    13
100
AcDbLine
 10
81.26564
 20
160.044617
 30
0.0
 11
81.245399
 21
160.14888
 31
0.0
  0
LINE
  5
CB
330
1F
100
AcDbEntity
  8
0
 62
     1
370
    13
100
AcDbLine
 10
77.013985
 20
162.056488
 30
0.0
 11
76.858795
 21
162.060104
 31
0.0
  0
LINE
  5
CC
330
1F
100
AcDbEntity
  8
0
 62
     1
370
    13
100
AcDbLine
 10
81.291649
 20
159.946472
 30
0.0
 11
81.26564
 21
160.044617
 31
0.0
  0
LINE
  5
CD
330
1F
100
AcDbEntity
  8
0
 62
     1
370
    13
100
AcDbLine
 10
76.858795
 20
162.060104
 30
0.0
 11
76.711548
 21
162.070923
 31
0.0
  0
LINE
  5
CE
330
1F
100
AcDbEntity
  8
0
 62
     1
370
    13
100
AcDbLine
 10
81.323425
 20
159.854446
 30
0.0
 11
81.291649
 21
159.946472
 31
0.0
  0
LINE
  5
CF
330
1F
100
AcDbEntity
  8
0
 62
     1
370
    13
100
AcDbLine
 10
76.711548
 20
162.070923
 30
0.0
 11
76.572281
 21
162.088913
 31
0.0
  0
LINE
  5
D0
330
1F
100
AcDbEntity
  8
0
 62
     1
370
    13
100
AcDbLine
 10
81.360992
 20
159.768539
 30
0.0
 11
81.323425
 21
159.854446
 31
0.0
  0
LINE
  5
D1
330
1F
100
AcDbEntity
  8
0
 62
     1
370
    13
100
AcDbLine
 10
76.572281
 20
162.088913
 30
0.0
 11
76.440964
 21
162.114136
 31
0.0
  0
LINE
  5
D2
330
1F
100
AcDbEntity
  8
0
 62
     1
370
    13
100
AcDbLine
 10
81.40435
 20
159.688736
 30
0.0
 11
81.360992
 21
159.768539
 31
0.0
  0
LINE
  5
D3
330
1F
100
AcDbEntity
  8
0
 62
     1
370
    13
100
AcDbLine
 10
76.440964
 20
162.114136
 30
0.0
 11
76.317619
 21
162.146561
 31
0.0
  0
LINE
  5
D4
330
1F
100
AcDbEntity
  8
0
 62
     1
370
    13
100
AcDbLine
 10
81.453476
 20
159.615051
 30
0.0
 11
81.40435
 21
159.688736
 31
0.0
  0
LINE
  5
D5
330
1F
100
AcDbEntity
  8
0
 62
     1
370
    13
100
AcDbLine
 10
76.317619
 20
162.146561
 30
0.0
 11
76.202202
 21
162.186157
 31
0.0
  0
LINE
  5
D6
330
1F
100
AcDbEntity
  8
0
 62
     1
370
    13
100
AcDbLine
 10
81.508392
 20
159.547516
 30
0.0
 11
81.453476
 21
159.615051
 31
0.0
  0
LINE
  5
D7
330
1F
100
AcDbEntity
  8
0
 62
     1
370
    13
100
AcDbLine
 10
76.202202
 20
162.186157
 30
0.0
 11
76.094788
 21
162.233032
 31
0.0
  0
LINE
  5
D8
330
1F
100
AcDbEntity
  8
0
 62
     1
370
    13
100
AcDbLine
 10
81.568001
 20
159.486221
 30
0.0
 11
81.508392
 21
159.547516
 31
0.0
  0
LINE
  5
D9
330
1F
100
AcDbEntity
  8
0
 62
     1
370
    13
100
AcDbLine
 10
76.094788
 20
162.233032
 30
0.0
 11
75.995293
 21
162.287033
 31
0.0
  0
LINE
  5
DA
330
1F
100
AcDbEntity
  8
0
 62
     1
370
    13
100
AcDbLine
 10
81.631226
 20
159.431381
 30
0.0
 11
81.568001
 21
159.486221
 31
0.0
  0
LINE
  5
DB
330
1F
100
AcDbEntity
  8
0
 62
     1
370
    13
100
AcDbLine
 10
75.995293
 20
162.287033
 30
0.0
 11
75.903778
 21
162.348267
 31
0.0
  0
LINE
  5
DC
330
1F
100
AcDbEntity
  8
0
 62
     1
370
    13
100
AcDbLine
 10
81.698029
 20
159.382996
 30
0.0
 11
81.631226
 21
159.431381
 31
0.0
  0
LINE
  5
DD
330
1F
100
AcDbEntity
  8
0
 62
     1
370
    13
100
AcDbLine
 10
75.903778
 20
162.348267
 30
0.0
 11
75.820213
 21
162.416718
 31
0.0
  0
LINE
  5
DE
330
1F
100
AcDbEntity
  8
0
 62
     1
370
    13
100
AcDbLine
 10
81.768433
 20
159.341064
 30
0.0
 11
81.698029
 21
159.382996
 31
0.0
  0
LINE
  5
DF
330
1F
100
AcDbEntity
  8
0
 62
     1
370
    13
100
AcDbLine
 10
75.820213
 20
162.416718
 30
0.0
 11
75.744598
 21
162.491364
 31
0.0
  0
LINE
  5
E0
330
1F
100
AcDbEntity
  8
0
 62
     1
370
    13
100
AcDbLine
 10
81.842453
 20
159.305603
 30
0.0
 11
81.768433
 21
159.341064
 31
0.0
  0
LINE
  5
E1
330
1F
100
AcDbEntity
  8
0
 62
     1
370
    13
100
AcDbLine
 10
75.744598
 20
162.491364
 30
0.0
 11
75.676956
 21
162.571198
 31
0.0
  0
LINE
  5
E2
330
1F
100
AcDbEntity
  8
0
 62
     1
370
    13
100
AcDbLine
 10
81.920074
 20
159.276566
 30
0.0
 11
81.842453
 21
159.305603
 31
0.0
  0
LINE
  5
E3
330
1F
100
AcDbEntity
  8
0
 62
     1
370
    13
100
AcDbLine
 10
75.676956
 20
162.571198
 30
0.0
 11
75.617264
 21
162.656219
 31
0.0
  0
LINE
  5
E4
330
1F
100
AcDbEntity
  8
0
 62
     1
370
    13
100
AcDbLine
 10
82.001274
 20
159.253983
 30
0.0
 11
81.920074
 21
159.276566
 31
0.0
  0
LINE
  5
E5
330
1F
100
AcDbEntity
  8
0
 62
     1
370
    13
100
AcDbLine
 10
75.617264
 20
162.656219
 30
0.0
 11
75.565552
 21
162.74646
 31
0.0
  0
LINE
  5
E6
330
1F
100
AcDbEntity
  8
0
 62
     1
370
    13
100
AcDbLine
 10
82.086113
 20
159.237885
 30
0.0
 11
82.001274
 21
159.253983
 31
0.0
  0
LINE
  5
E7
330
1F
100
AcDbEntity
  8
0
 62
     1
370
    13
100
AcDbLine
 10
75.565552
 20
162.74646
 30
0.0
 11
75.521759
 21
162.841858
 31
0.0
  0
LINE
  5
E8
330
1F
100
AcDbEntity
  8
0
 62
     1
370
    13
100
AcDbLine
 10
82.17453
 20
159.22818
 30
0.0
 11
82.086113
 21
159.237885
 31
0.0
  0
LINE
  5
E9
330
1F
100
AcDbEntity
  8
0
 62
     1
370
    13
100
AcDbLine
 10
75.521759
 20
162.841858
 30
0.0
 11
75.485947
 21
162.942474
 31
0.0
  0
LINE
  5
EA
330
1F
100
AcDbEntity
  8
0
 62
     1
370
    13
100
AcDbLine
 10
82.266556
 20
159.22496
 30
0.0
 11
82.17453
 21
159.22818
 31
0.0
  0
LINE
  5
EB
330
1F
100
AcDbEntity
  8
0
 62
     1
370
    13
100
AcDbLine
 10
75.485947
 20
162.942474
 30
0.0
 11
75.458107
 21
163.048294
 31
0.0
  0
LINE
  5
EC
330
1F
100
AcDbEntity
  8
0
 62
     1
370
    13
100
AcDbLine
 10
82.36013
 20
159.228104
 30
0.0
 11
82.266556
 21
159.22496
 31
0.0
  0
LINE
  5
ED
330
1F
100
AcDbEntity
  8
0
 62
     1
370
    13
100
AcDbLine
 10
75.458107
 20
163.048294
 30
0.0
 11
75.438194
 21
163.159286
 31
0.0
  0
LINE
  5
EE
330
1F
100
AcDbEntity
  8
0
 62
     1
370
    13
100
AcDbLine
 10
82.449844
 20
159.237534
 30
0.0
 11
82.36013
 21
159.228104
 31
0.0
  0
LINE
  5
EF
330
1F
100
AcDbEntity
  8
0
 62
     1
370
    13
100
AcDbLine
 10
75.438194
 20
163.159286
 30
0.0
 11
75.426262
 21
163.275467
 31
0.0
  0
LINE
  5
F0
330
1F
100
AcDbEntity
  8
0
 62
     1
370
    13
100
AcDbLine
 10
82.535721
 20
159.25322
 30
0.0
 11
82.449844
 21
159.237534
 31
0.0
  0
LINE
  5
F1
330
1F
100
AcDbEntity
  8
0
 62
     1
370
    13
100
AcDbLine
 10
75.426262
 20
163.275467
 30
0.0
 11
75.422295
 21
163.396881
 31
0.0
  0
LINE
  5
F2
330
1F
100
AcDbEntity
  8
0
 62
     1
370
    13
100
AcDbLine
 10
82.617737
 20
159.275223
 30
0.0
 11
82.535721
 21
159.25322
 31
0.0
  0
LINE
  5
F3
330
1F
100
AcDbEntity
  8
0
 62
     1
370
    13
100
AcDbLine
 10
75.422295
 20
163.396881
 30
0.0
 11
75.422882
 21
163.428757
 31
0.0
  0
LINE
  5
F4
330
1F
100
AcDbEntity
  8
0
 62
     1
370
    13
100
AcDbLine
 10
82.695892
 20
159.303497
 30
0.0
 11
82.617737
 21
159.275223
 31
0.0
  0
LINE
  5
F5
330
1F
100
AcDbEntity
  8
0
 62
     1
370
    13
100
AcDbLine
 10
75.422882
 20
163.428757
 30
0.0
 11
75.424637
 21
163.460709
 31
0.0
  0
LINE
  5
F6
330
1F
100
AcDbEntity
  8
0
 62
     1
370
    13
100
AcDbLine
 10
82.770187
 20
159.338058
 30
0.0
 11
82.695892
 21
159.303497
 31
0.0
  0
LINE
  5
F7
330
1F
100
AcDbEntity
  8
0
 62
     1
370
    13
100
AcDbLine
 10
75.424637
 20
163.460709
 30
0.0
 11
75.427551
 21
163.492767
 31
0.0
  0
LINE
  5
F8
330
1F
100
AcDbEntity
  8
0
 62
     1
370
    13
100
AcDbLine
 10
82.840645
 20
159.378906
 30
0.0
 11
82.770187
 21
159.338058
 31
0.0
  0
LINE
  5
F9
330
1F
100
AcDbEntity
  8
0
 62
     1
370
    13
100
AcDbLine
 10
75.427551
 20
163.492767
 30
0.0
 11
75.431671
 21
163.524872
 31
0.0
  0
LINE
  5
FA
330
1F
100
AcDbEntity
  8
0
 62
     1
370
    13
100
AcDbLine
 10
82.907242
 20
159.426025
 30
0.0
 11
82.840645
 21
159.378906
 31
0.0
  0
LINE
  5
FB
330
1F
100
AcDbEntity
  8
0
 62
     1
370
    13
100
AcDbLine
 10
75.431671
 20
163.524872
 30
0.0
 11
75.436951
 21
163.557098
 31
0.0
  0
LINE
  5
FC
330
1F
100
AcDbEntity
  8
0
 62
     1
370
    13
100
AcDbLine
 10
82.970009
 20
159.479431
 30
0.0
 11
82.907242
 21
159.426025
 31
0.0
  0
LINE
  5
FD
330
1F
100
AcDbEntity
  8
0
 62
     1
370
    13
100
AcDbLine
 10
75.436951
 20
163.557098
 30
0.0
 11
75.443405
 21
163.589386
 31
0.0
  0
LINE
  5
FE
330
1F
100
AcDbEntity
  8
0
 62
     1
370
    13
100
AcDbLine
 10
83.028885
 20
159.539124
 30
0.0
 11
82.970009
 21
159.479431
 31
0.0
  0
LINE
  5
FF
330
1F
100
AcDbEntity
  8
0
 62
     1
370
    13
100
AcDbLine
 10
75.443405
 20
163.589386
 30
0.0
 11
75.451027
 21
163.621765
 31
0.0
  0
LINE
  5
100
330
1F
100
AcDbEntity
  8
0
 62
     1
370
    13
100
AcDbLine
 10
83.083015
 20
159.60524
 30
0.0
 11
83.028885
 21
159.539124
 31
0.0
  0
LINE
  5
101
330
1F
100
AcDbEntity
  8
0
 62
     1
370
    13
100
AcDbLine
 10
75.451027
 20
163.621765
 30
0.0
 11
75.459808
 21
163.654236
 31
0.0
  0
LINE
  5
102
330
1F
100
AcDbEntity
  8
0
 62
     1
370
    13
100
AcDbLine
 10
83.131424
 20
159.678009
 30
0.0
 11
83.083015
 21
159.60524
 31
0.0
  0
LINE
  5
103
330
1F
100
AcDbEntity
  8
0
 62
     1
370
    13
100
AcDbLine
 10
75.459808
 20
163.654236
 30
0.0
 11
75.469795
 21
163.686768
 31
0.0
  0
LINE
  5
104
330
1F
100
AcDbEntity
  8
0
 62
     1
370
    13
100
AcDbLine
 10
83.174149
 20
159.757385
 30
0.0
 11
83.131424
 21
159.678009
 31
0.0
  0
LINE
  5
105
330
1F
100
AcDbEntity
  8
0
 62
     1
370
    13
100
AcDbLine
 10
75.469795
 20
163.686768
 30
0.0
 11
75.480919
 21
163.719391
 31
0.0
  0
LINE
  5
106
330
1F
100
AcDbEntity
  8
0
 62
     1
370
    13
100
AcDbLine
 10
83.211182
 20
159.843399
 30
0.0
 11
83.174149
 21
159.757385
 31
0.0
  0
LINE
  5
107
330
1F
100
AcDbEntity
  8
0
 62
     1
370
    13
100
AcDbLine
 10
75.480919
 20
163.719391
 30
0.0
 11
75.49324
 21
163.752228
 31
0.0
  0
LINE
  5
108
330
1F
100
AcDbEntity
  8
0
 62
     1
370
    13
100
AcDbLine
 10
83.2425
 20
159.936005
 30
0.0
 11
83.211182
 21
159.843399
 31
0.0
  0
LINE
  5
109
330
1F
100
AcDbEntity
  8
0
 62
     1
370
    13
100
AcDbLine
 10
75.49324
 20
163.752228
 30
0.0
 11
75.506729
 21
163.785431
 31
0.0
  0
LINE
  5
10A
330
1F
100
AcDbEntity
  8
0
 62
     1
370
    13
100
AcDbLine
 10
83.26815
 20
160.035217
 30
0.0
 11
83.2425
 21
159.936005
 31
0.0
  0
LINE
  5
10B
330
1F
100
AcDbEntity
  8
0
 62
     1
370
    13
100
AcDbLine
 10
75.506729
 20
163.785431
 30
0.0
 11
75.521408
 21
163.818924
 31
0.0
  0
LINE
  5
10C
330
1F
100
AcDbEntity
  8
0
 62
     1
370
    13
100
AcDbLine
 10
83.288063
 20
160.141052
 30
0.0
 11
83.26815
 21
160.035217
 31
0.0
  0
LINE
  5
10D
330
1F
100
AcDbEntity
  8
0
 62
     1
370
    13
100
AcDbLine
 10
75.521408
 20
163.818924
 30
0.0
 11
75.537231
 21
163.852753
 31
0.0
  0
LINE
  5
10E
330
1F
100
AcDbEntity
  8
0
 62
     1
370
    13
100
AcDbLine
 10
83.302315
 20
160.253525
 30
0.0
 11
83.288063
 21
160.141052
 31
0.0
  0
LINE
  5
10F
330
1F
100
AcDbEntity
  8
0
 62
     1
370
    13
100
AcDbLine
 10
75.537231
 20
163.852753
 30
0.0
 11
75.554222
 21
163.886948
 31
0.0
  0
LINE
  5
110
330
1F
100
AcDbEntity
  8
0
 62
     1
370
    13
100
AcDbLine
 10
83.310875
 20
160.372635
 30
0.0
 11
83.302315
 21
160.253525
 31
0.0
  0
LINE
  5
111
330
1F
100
AcDbEntity
  8
0
 62
     1
370
    13
100
AcDbLine
 10
75.554222
 20
163.886948
 30
0.0
 11
75.572411
 21
163.921463
 31
0.0
  0
LINE
  5
112
330
1F
100
AcDbEntity
  8
0
 62
     1
370
    13
100
AcDbLine
 10
83.313721
 20
160.498306
 30
0.0
 11
83.310875
 21
160.372635
 31
0.0
  0
LINE
  5
113
330
1F
100
AcDbEntity
  8
0
 62
     1
370
    13
100
AcDbLine
 10
75.572411
 20
163.921463
 30
0.0
 11
75.591766
 21
163.956314
 31
0.0
  0
LINE
  5
114
330
1F
100
AcDbEntity
  8
0
 62
     1
370
    13
100
AcDbLine
 10
83.313721
 20
162.056488
 30
0.0
 11
83.313721
 21
160.498306
 31
0.0
  0
LINE
  5
115
330
1F
100
AcDbEntity
  8
0
 62
     1
370
    13
100
AcDbLine
 10
75.591766
 20
163.956314
 30
0.0
 11
75.612289
 21
163.991486
 31
0.0
  0
LINE
  5
116
330
1F
100
AcDbEntity
  8
0
 62
     1
370
    13
100
AcDbLine
 10
83.824745
 20
162.056488
 30
0.0
 11
83.313721
 21
162.056488
 31
0.0
  0
LINE
  5
117
330
1F
100
AcDbEntity
  8
0
 62
     1
370
    13
100
AcDbLine
 10
75.612289
 20
163.991486
 30
0.0
 11
75.63398
 21
164.027008
 31
0.0
  0
LINE
  5
118
330
1F
100
AcDbEntity
  8
0
 62
     1
370
    13
100
AcDbLine
 10
83.948875
 20
162.058701
 30
0.0
 11
83.824745
 21
162.056488
 31
0.0
  0
LINE
  5
119
330
1F
100
AcDbEntity
  8
0
 62
     1
370
    13
100
AcDbLine
 10
75.63398
 20
164.027008
 30
0.0
 11
75.656837
 21
164.062866
 31
0.0
  0
LINE
  5
11A
330
1F
100
AcDbEntity
  8
0
 62
     1
370
    13
100
AcDbLine
 10
84.06665
 20
162.065369
 30
0.0
 11
83.948875
 21
162.058701
 31
0.0
  0
LINE
  5
11B
330
1F
100
AcDbEntity
  8
0
 62
     1
370
    13
100
AcDbLine
 10
75.656837
 20
164.062866
 30
0.0
 11
75.680389
 21
164.098785
 31
0.0
  0
LINE
  5
11C
330
1F
100
AcDbEntity
  8
0
 62
     1
370
    13
100
AcDbLine
 10
84.178085
 20
162.076492
 30
0.0
 11
84.06665
 21
162.065369
 31
0.0
  0
LINE
  5
11D
330
1F
100
AcDbEntity
  8
0
 62
     1
370
    13
100
AcDbLine
 10
75.680389
 20
164.098785
 30
0.0
 11
75.704109
 21
164.134399
 31
0.0
  0
LINE
  5
11E
330
1F
100
AcDbEntity
  8
0
 62
     1
370
    13
100
AcDbLine
 10
84.283134
 20
162.09201
 30
0.0
 11
84.178085
 21
162.076492
 31
0.0
  0
LINE
  5
11F
330
1F
100
AcDbEntity
  8
0
 62
     1
370
    13
100
AcDbLine
 10
75.704109
 20
164.134399
 30
0.0
 11
75.727982
 21
164.1698
 31
0.0
  0
LINE
  5
120
330
1F
100
AcDbEntity
  8
0
 62
     1
370
    13
100
AcDbLine
 10
84.381813
 20
162.112
 30
0.0
 11
84.283134
 21
162.09201
 31
0.0
  0
LINE
  5
121
330
1F
100
AcDbEntity
  8
0
 62
     1
370
    13
100
AcDbLine
 10
75.727982
 20
164.1698
 30
0.0
 11
75.752014
 21
164.204956
 31
0.0
  0
LINE
  5
122
330
1F
100
AcDbEntity
  8
0
 62
     1
370
    13
100
AcDbLine
 10
84.474144
 20
162.136398
 30
0.0
 11
84.381813
 21
162.112
 31
0.0
  0
LINE
  5
123
330
1F
100
AcDbEntity
  8
0
 62
     1
370
    13
100
AcDbLine
 10
75.752014
 20
164.204956
 30
0.0
 11
75.776222
 21
164.239822
 31
0.0
  0
LINE
  5
124
330
1F
100
AcDbEntity
  8
0
 62
     1
370
    13
100
AcDbLine
 10
84.560097
 20
162.165253
 30
0.0
 11
84.474144
 21
162.136398
 31
0.0
  0
LINE
  5
125
330
1F
100
AcDbEntity
  8
0
 62
     1
370
    13
100
AcDbLine
 10
75.776222
 20
164.239822
 30
0.0
 11
75.800606
 21
164.274475
 31
0.0
  0
LINE
  5
126
330
1F
100
AcDbEntity
  8
0
 62
     1
370
    13
100
AcDbLine
 10
84.639679
 20
162.198578
 30
0.0
 11
84.560097
 21
162.165253
 31
0.0
  0
LINE
  5
127
330
1F
100
AcDbEntity
  8
0
 62
     1
370
    13
100
AcDbLine
 10
75.800606
 20
164.274475
 30
0.0
 11
75.825165
 21
164.308868
 31
0.0
  0
LINE
  5
128
330
1F
100
AcDbEntity
  8
0
 62
     1
370
    13
100
AcDbLine
 10
84.712906
 20
162.236298
 30
0.0
 11
84.639679
 21
162.198578
 31
0.0
  0
LINE
  5
129
330
1F
100
AcDbEntity
  8
0
 62
     1
370
    13
100
AcDbLine
 10
75.825165
 20
164.308868
 30
0.0
 11
75.849876
 21
164.343002
 31
0.0
  0
LINE
  5
12A
330
1F
100
AcDbEntity
  8
0
 62
     1
370
    13
100
AcDbLine
 10
84.779732
 20
162.278488
 30
0.0
 11
84.712906
 21
162.236298
 31
0.0
  0
LINE
  5
12B
330
1F
100
AcDbEntity
  8
0
 62
     1
370
    13
100
AcDbLine
 10
75.849876
 20
164.343002
 30
0.0
 11
75.874748
 21
164.376892
 31
0.0
  0
LINE
  5
12C
330
1F
100
AcDbEntity
  8
0
 62
     1
370
    13
100
AcDbLine
 10
84.840233
 20
162.325531
 30
0.0
 11
84.779732
 21
162.278488
 31
0.0
  0
LINE
  5
12D
330
1F
100
AcDbEntity
  8
0
 62
     1
370
    13
100
AcDbLine
 10
75.874748
 20
164.376892
 30
0.0
 11
75.899788
 21
164.410522
 31
0.0
  0
LINE
  5
12E
330
1F
100
AcDbEntity
  8
0
 62
     1
370
    13
100
AcDbLine
 10
84.894341
 20
162.377853
 30
0.0
 11
84.840233
 21
162.325531
 31
0.0
  0
LINE
  5
12F
330
1F
100
AcDbEntity
  8
0
 62
     1
370
    13
100
AcDbLine
 10
75.899788
 20
164.410522
 30
0.0
 11
75.925522
 21
164.444778
 31
0.0
  0
LINE
  5
130
330
1F
100
AcDbEntity
  8
0
 62
     1
370
    13
100
AcDbLine
 10
84.942093
 20
162.435471
 30
0.0
 11
84.894341
 21
162.377853
 31
0.0
  0
LINE
  5
131
330
1F
100
AcDbEntity
  8
0
 62
     1
370
    13
100
AcDbLine
 10
75.925522
 20
164.444778
 30
0.0
 11
75.952393
 21
164.480545
 31
0.0
  0
LINE
  5
132
330
1F
100
AcDbEntity
  8
0
 62
     1
370
    13
100
AcDbLine
 10
84.98349
 20
162.498306
 30
0.0
 11
84.942093
 21
162.435471
 31
0.0
  0
LINE
  5
133
330
1F
100
AcDbEntity
  8
0
 62
     1
370
    13
100
AcDbLine
 10
75.952393
 20
164.480545
 30
0.0
 11
75.980461
 21
164.517838
 31
0.0
  0
LINE
  5
134
330
1F
100
AcDbEntity
  8
0
 62
     1
370
    13
100
AcDbLine
 10
85.018494
 20
162.566483
 30
0.0
 11
84.98349
 21
162.498306
 31
0.0
  0
LINE
  5
135
330
1F
100
AcDbEntity
  8
0
 62
     1
370
    13
100
AcDbLine
 10
75.980461
 20
164.517838
 30
0.0
 11
76.009697
 21
164.55661
 31
0.0
  0
LINE
  5
136
330
1F
100
AcDbEntity
  8
0
 62
     1
370
    13
100
AcDbLine
 10
85.047142
 20
162.639908
 30
0.0
 11
85.018494
 21
162.566483
 31
0.0
  0
LINE
  5
137
330
1F
100
AcDbEntity
  8
0
 62
     1
370
    13
100
AcDbLine
 10
76.009697
 20
164.55661
 30
0.0
 11
76.040123
 21
164.596924
 31
0.0
  0
LINE
  5
138
330
1F
100
AcDbEntity
  8
0
 62
     1
370
    13
100
AcDbLine
 10
85.06942
 20
162.718597
 30
0.0
 11
85.047142
 21
162.639908
 31
0.0
  0
LINE
  5
139
330
1F
100
AcDbEntity
  8
0
 62
     1
370
    13
100
AcDbLine
 10
76.040123
 20
164.596924
 30
0.0
 11
76.071701
 21
164.638718
 31
0.0
  0
LINE
  5
13A
330
1F
100
AcDbEntity
  8
0
 62
     1
370
    13
100
AcDbLine
 10
85.085342
 20
162.802567
 30
0.0
 11
85.06942
 21
162.718597
 31
0.0
  0
LINE
  5
13B
330
1F
100
AcDbEntity
  8
0
 62
     1
370
    13
100
AcDbLine
 10
76.071701
 20
164.638718
 30
0.0
 11
76.104462
 21
164.682022
 31
0.0
  0
LINE
  5
13C
330
1F
100
AcDbEntity
  8
0
 62
     1
370
    13
100
AcDbLine
 10
85.094894
 20
162.891846
 30
0.0
 11
85.085342
 21
162.802567
 31
0.0
  0
LINE
  5
13D
330
1F
100
AcDbEntity
  8
0
 62
     1
370
    13
100
AcDbLine
 10
76.104462
 20
164.682022
 30
0.0
 11
76.138374
 21
164.726852
 31
0.0
  0
LINE
  5
13E
330
1F
100
AcDbEntity
  8
0
 62
     1
370
    13
100
AcDbLine
 10
85.098068
 20
162.986389
 30
0.0
 11
85.094894
 21
162.891846
 31
0.0
  0
LINE
  5
13F
330
1F
100
AcDbEntity
  8
0
 62
     1
370
    13
100
AcDbLine
 10
76.138374
 20
164.726852
 30
0.0
 11
76.173477
 21
164.773178
 31
0.0
  0
LINE
  5
140
330
1F
100
AcDbEntity
  8
0
 62
     1
370
    13
100
AcDbLine
 10
85.094185
 20
163.101151
 30
0.0
 11
85.098068
 21
162.986389
 31
0.0
  0
LINE
  5
141
330
1F
100
AcDbEntity
  8
0
 62
     1
370
    13
100
AcDbLine
 10
76.173477
 20
164.773178
 30
0.0
 11
76.209747
 21
164.821014
 31
0.0
  0
LINE
  5
142
330
1F
100
AcDbEntity
  8
0
 62
     1
370
    13
100
AcDbLine
 10
85.082504
 20
163.20755
 30
0.0
 11
85.094185
 21
163.101151
 31
0.0
  0
LINE
  5
143
330
1F
100
AcDbEntity
  8
0
 62
     1
370
    13
100
AcDbLine
 10
76.209747
 20
164.821014
 30
0.0
 11
80.649742
 21
170.760513
 31
0.0
  0
LINE
  5
144
330
1F
100
AcDbEntity
  8
0
 62
     1
370
    13
100
AcDbLine
 10
85.063019
 20
163.305573
 30
0.0
 11
85.082504
 21
163.20755
 31
0.0
  0
LINE
  5
145
330
1F
100
AcDbEntity
  8
0
 62
     1
370
    13
100
AcDbLine
 10
80.649742
 20
170.760513
 30
0.0
 11
80.735291
 21
170.874557
 31
0.0
  0
LINE
  5
146
330
1F
100
AcDbEntity
  8
0
 62
     1
370
    13
100
AcDbLine
 10
85.035767
 20
163.395172
 30
0.0
 11
85.063019
 21
163.305573
 31
0.0
  0
LINE
  5
147
330
1F
100
AcDbEntity
  8
0
 62
     1
370
    13
100
AcDbLine
 10
80.735291
 20
170.874557
 30
0.0
 11
80.817787
 21
170.982178
 31
0.0
  0
LINE
  5
148
330
1F
100
AcDbEntity
  8
0
 62
     1
370
    13
100
AcDbLine
 10
85.000687
 20
163.476456
 30
0.0
 11
85.035767
 21
163.395172
 31
0.0
  0
LINE
  5
149
330
1F
100
AcDbEntity
  8
0
 62
     1
370
    13
100
AcDbLine
 10
80.817787
 20
170.982178
 30
0.0
 11
80.897163
 21
171.083344
 31
0.0
  0
LINE
  5
14A
330
1F
100
AcDbEntity
  8
0
 62
     1
370
    13
100
AcDbLine
 10
84.95784
 20
163.549332
 30
0.0
 11
85.000687
 21
163.476456
 31
0.0
  0
LINE
  5
14B
330
1F
100
AcDbEntity
  8
0
 62
     1
370
    13
100
AcDbLine
 10
80.897163
 20
171.083344
 30
0.0
 11
80.973442
 21
171.17804
 31
0.0
  0
LINE
  5
14C
330
1F
100
AcDbEntity
  8
0
 62
     1
370
    13
100
AcDbLine
 10
84.907188
 20
163.613846
 30
0.0
 11
84.95784
 21
163.549332
 31
0.0
  0
LINE
  5
14D
330
1F
100
AcDbEntity
  8
0
 62
     1
370
    13
100
AcDbLine
 10
80.973442
 20
171.17804
 30
0.0
 11
81.046616
 21
171.266312
 31
0.0
  0
LINE
  5
14E
330
1F
100
AcDbEntity
  8
0
 62
     1
370
    13
100
AcDbLine
 10
84.84877
 20
163.669983
 30
0.0
 11
84.907188
 21
163.613846
 31
0.0
  0
LINE
  5
14F
330
1F
100
AcDbEntity
  8
0
 62
     1
370
    13
100
AcDbLine
 10
81.046616
 20
171.266312
 30
0.0
 11
81.116699
 21
171.348114
 31
0.0
  0
LINE
  5
150
330
1F
100
AcDbEntity
  8
0
 62
     1
370
    13
100
AcDbLine
 10
84.782555
 20
163.717712
 30
0.0
 11
84.84877
 21
163.669983
 31
0.0
  0
LINE
  5
151
330
1F
100
AcDbEntity
  8
0
 62
     1
370
    13
100
AcDbLine
 10
81.116699
 20
171.348114
 30
0.0
 11
81.183655
 21
171.423477
 31
0.0
  0
LINE
  5
152
330
1F
100
AcDbEntity
  8
0
 62
     1
370
    13
100
AcDbLine
 10
84.708534
 20
163.757095
 30
0.0
 11
84.782555
 21
163.717712
 31
0.0
  0
LINE
  5
153
330
1F
100
AcDbEntity
  8
0
 62
     1
370
    13
100
AcDbLine
 10
81.183655
 20
171.423477
 30
0.0
 11
81.247536
 21
171.492371
 31
0.0
  0
LINE
  5
154
330
1F
100
AcDbEntity
  8
0
 62
     1
370
    13
100
AcDbLine
 10
84.628067
 20
163.790497
 30
0.0
 11
84.708534
 21
163.757095
 31
0.0
  0
LINE
  5
155
330
1F
100
AcDbEntity
  8
0
 62
     1
370
    13
100
AcDbLine
 10
81.247536
 20
171.492371
 30
0.0
 11
81.308311
 21
171.554794
 31
0.0
  0
LINE
  5
156
330
1F
100
AcDbEntity
  8
0
 62
     1
370
    13
100
AcDbLine
 10
84.542496
 20
163.820419
 30
0.0
 11
84.628067
 21
163.790497
 31
0.0
  0
LINE
  5
157
330
1F
100
AcDbEntity
  8
0
 62
     1
370
    13
100
AcDbLine
 10
81.308311
 20
171.554794
 30
0.0
 11
81.365997
 21
171.610809
 31
0.0
  0
LINE
  5
158
330
1F
100
AcDbEntity
  8
0
 62
     1
370
    13
100
AcDbLine
 10
84.45182
 20
163.846786
 30
0.0
 11
84.542496
 21
163.820419
 31
0.0
  0
LINE
  5
159
330
1F
100
AcDbEntity
  8
0
 62
     1
370
    13
100
AcDbLine
 10
81.365997
 20
171.610809
 30
0.0
 11
81.423248
 21
171.66095
 31
0.0
  0
LINE
  5
15A
330
1F
100
AcDbEntity
  8
0
 62
     1
370
    13
100
AcDbLine
 10
84.35601
 20
163.869705
 30
0.0
 11
84.45182
 21
163.846786
 31
0.0
  0
LINE
  5
15B
330
1F
100
AcDbEntity
  8
0
 62
     1
370
    13
100
AcDbLine
 10
81.423248
 20
171.66095
 30
0.0
 11
81.482765
 21
171.705826
 31
0.0
  0
LINE
  5
15C
330
1F
100
AcDbEntity
  8
0
 62
     1
370
    13
100
AcDbLine
 10
84.255119
 20
163.889053
 30
0.0
 11
84.35601
 21
163.869705
 31
0.0
  0
LINE
  5
15D
330
1F
100
AcDbEntity
  8
0
 62
     1
370
    13
100
AcDbLine
 10
81.482765
 20
171.705826
 30
0.0
 11
81.544563
 21
171.745407
 31
0.0
  0
LINE
  5
15E
330
1F
100
AcDbEntity
  8
0
 62
     1
370
    13
100
AcDbLine
 10
84.149101
 20
163.904846
 30
0.0
 11
84.255119
 21
163.889053
 31
0.0
  0
LINE
  5
15F
330
1F
100
AcDbEntity
  8
0
 62
     1
370
    13
100
AcDbLine
 10
81.544563
 20
171.745407
 30
0.0
 11
81.608597
 21
171.779694
 31
0.0
  0
LINE
  5
160
330
1F
100
AcDbEntity
  8
0
 62
     1
370
    13
100
AcDbLine
 10
84.037979
 20
163.917206
 30
0.0
 11
84.149101
 21
163.904846
 31
0.0
  0
LINE
  5
161
330
1F
100
AcDbEntity
  8
0
 62
     1
370
    13
100
AcDbLine
 10
81.608597
 20
171.779694
 30
0.0
 11
81.674911
 21
171.808746
 31
0.0
  0
LINE
  5
162
330
1F
100
AcDbEntity
  8
0
 62
     1
370
    13
100
AcDbLine
 10
83.921745
 20
163.925995
 30
0.0
 11
84.037979
 21
163.917206
 31
0.0
  0
LINE
  5
163
330
1F
100
AcDbEntity
  8
0
 62
     1
370
    13
100
AcDbLine
 10
81.674911
 20
171.808746
 30
0.0
 11
81.743469
 21
171.832474
 31
0.0
  0
LINE
  5
164
330
1F
100
AcDbEntity
  8
0
 62
     1
370
    13
100
AcDbLine
 10
83.800385
 20
163.931244
 30
0.0
 11
83.921745
 21
163.925995
 31
0.0
  0
LINE
  5
165
330
1F
100
AcDbEntity
  8
0
 62
     1
370
    13
100
AcDbLine
 10
81.743469
 20
171.832474
 30
0.0
 11
81.814308
 21
171.850967
 31
0.0
  0
LINE
  5
166
330
1F
100
AcDbEntity
  8
0
 62
     1
370
    13
100
AcDbLine
 10
83.673943
 20
163.933029
 30
0.0
 11
83.800385
 21
163.931244
 31
0.0
  0
LINE
  5
167
330
1F
100
AcDbEntity
  8
0
 62
     1
370
    13
100
AcDbLine
 10
81.814308
 20
171.850967
 30
0.0
 11
81.887383
 21
171.864151
 31
0.0
  0
LINE
  5
168
330
1F
100
AcDbEntity
  8
0
 62
     1
370
    13
100
AcDbLine
 10
83.313721
 20
163.933029
 30
0.0
 11
83.673943
 21
163.933029
 31
0.0
  0
LINE
  5
169
330
1F
100
AcDbEntity
  8
0
 62
     1
370
    13
100
AcDbLine
 10
81.887383
 20
171.864151
 30
0.0
 11
81.962746
 21
171.87207
 31
0.0
  0
LINE
  5
16A
330
1F
100
AcDbEntity
  8
0
 62
     1
370
    13
100
AcDbLine
 10
83.313721
 20
170.417053
 30
0.0
 11
83.313721
 21
163.933029
 31
0.0
  0
LINE
  5
16B
330
1F
100
AcDbEntity
  8
0
 62
     1
370
    13
100
AcDbLine
 10
81.962746
 20
171.87207
 30
0.0
 11
82.040367
 21
171.87471
 31
0.0
  0
LINE
  5
16C
330
1F
100
AcDbEntity
  8
0
 62
     1
370
    13
100
AcDbLine
 10
83.300995
 20
170.694016
 30
0.0
 11
83.313721
 21
170.417053
 31
0.0
  0
LINE
  5
16D
330
1F
100
AcDbEntity
  8
0
 62
     1
370
    13
100
AcDbLine
 10
82.040367
 20
171.87471
 30
0.0
 11
82.282303
 21
171.860107
 31
0.0
  0
LINE
  5
16E
330
1F
100
AcDbEntity
  8
0
 62
     1
370
    13
100
AcDbLine
 10
83.262794
 20
170.941818
 30
0.0
 11
83.300995
 21
170.694016
 31
0.0
  0
LINE
  5
16F
330
1F
100
AcDbEntity
  8
0
 62
     1
370
    13
100
AcDbLine
 10
82.282303
 20
171.860107
 30
0.0
 11
82.498764
 21
171.816391
 31
0.0
  0
LINE
  5
170
330
1F
100
AcDbEntity
  8
0
 62
     1
370
    13
100
AcDbLine
 10
83.19912
 20
171.160461
 30
0.0
 11
83.262794
 21
170.941818
 31
0.0
  0
LINE
  5
171
330
1F
100
AcDbEntity
  8
0
 62
     1
370
    13
100
AcDbLine
 10
82.498764
 20
171.816391
 30
0.0
 11
82.689766
 21
171.7435
 31
0.0
  0
LINE
  5
172
330
1F
100
AcDbEntity
  8
0
 62
     1
370
    13
100
AcDbLine
 10
83.109985
 20
171.349945
 30
0.0
 11
83.19912
 21
171.160461
 31
0.0
  0
LINE
  5
173
330
1F
100
AcDbEntity
  8
0
 62
     1
370
    13
100
AcDbLine
 10
82.689766
 20
171.7435
 30
0.0
 11
82.855301
 21
171.641495
 31
0.0
  0
LINE
  5
174
330
1F
100
AcDbEntity
  8
0
 62
     1
370
    13
100
AcDbLine
 10
82.995384
 20
171.510269
 30
0.0
 11
83.109985
 21
171.349945
 31
0.0
  0
LINE
  5
175
330
1F
100
AcDbEntity
  8
0
 62
     1
370
    13
100
AcDbLine
 10
82.855301
 20
171.641495
 30
0.0
 11
82.995384
 21
171.510269
 31
0.0
  0
ARC
  5
176
330
1F
100
AcDbEntity
  8
0
 62
     1
370
    13
100
AcDbCircle
 10
90.185944
 20
151.0
 30
0.0
 40
3.0
100
AcDbArc
 50
180.000005
 51
329.999999
  0
ARC
  5
177
330
1F
100
AcDbEntity
  8
0
 62
     1
370
    13
100
AcDbCircle
 10
95.382095
 20
148.0
 30
0.0
 40
3.0
100
AcDbArc
 50
90.000003
 51
149.999997
  0
ARC
  5
178
330
1F
100
AcDbEntity
  8
0
 62
     1
370
    13
100
AcDbCircle
 10
90.185944
 20
169.0
 30
0.0
 40
3.0
100
AcDbArc
 50
30.000001
 51
180.000005
  0
ARC
  5
179
330
1F
100
AcDbEntity
  8
0
 62
     1
370
    13
100
AcDbCircle
 10
95.382095
 20
172.0
 30
0.0
 40
3.0
100
AcDbArc
 50
210.000003
 51
269.999997
  0
LINE
  5
17A
330
1F
100
AcDbEntity
  8
0
 62
     1
370
    13
100
AcDbLine
 10
87.185944
 20
169.0
 30
0.0
 11
87.185944
 21
151.0
 31
0.0
  0
LINE
  5
17B
330
1F
100
AcDbEntity
  8
0
 62
     1
370
    13
100
AcDbLine
 10
101.185944
 20
172.0
 30
0.0
 11
101.185944
 21
184.837173
 31
0.0
  0
ARC
  5
17C
330
1F
100
AcDbEntity
  8
0
 62
     1
370
    13
100
AcDbCircle
 10
98.185944
 20
172.0
 30
0.0
 40
3.0
100
AcDbArc
 50
269.999997
 51
360.0
  0
LINE
  5
17D
330
1F
100
AcDbEntity
  8
0
 62
     1
370
    13
100
AcDbLine
 10
101.185944
 20
115.162827
 30
0.0
 11
101.185944
 21
148.0
 31
0.0
  0
ARC
  5
17E
330
1F
100
AcDbEntity
  8
0
 62
     1
370
    13
100
AcDbCircle
 10
98.185944
 20
148.0
 30
0.0
 40
3.0
100
AcDbArc
 50
360.0
 51
90.000003
  0
LINE
  5
17F
330
1F
100
AcDbEntity
  8
0
 62
     1
370
    13
100
AcDbLine
 10
98.185944
 20
151.0
 30
0.0
 11
95.382095
 21
151.0
 31
0.0
  0
LINE
  5
180
330
1F
100
AcDbEntity
  8
0
 62
     1
370
    13
100
AcDbLine
 10
95.382095
 20
169.0
 30
0.0
 11
98.185944
 21
169.0
 31
0.0
  0
LINE
  5
181
330
1F
100
AcDbEntity
  8
0
 62
     1
370
    13
100
AcDbLine
 10
188.185944
 20
201.0
 30
0.0
 11
189.185944
 21
201.0
 31
0.0
  0
LINE
  5
182
330
1F
100
AcDbEntity
  8
0
 62
     1
370
    13
100
AcDbLine
 10
145.043854
 20
201.0
 30
0.0
 11
161.185944
 21
201.0
 31
0.0
  0
ARC
  5
183
330
1F
100
AcDbEntity
  8
0
 62
     1
370
    13
100
AcDbCircle
 10
161.185944
 20
204.0
 30
0.0
 40
3.0
100
AcDbArc
 50
269.999997
 51
360.0
  0
LINE
  5
184
330
1F
100
AcDbEntity
  8
0
 62
     1
370
    13
100
AcDbLine
 10
164.185944
 20
210.0
 30
0.0
 11
164.185944
 21
204.0
 31
0.0
  0
ARC
  5
185
330
1F
100
AcDbEntity
  8
0
 62
     1
370
    13
100
AcDbCircle
 10
167.185944
 20
210.0
 30
0.0
 40
3.0
100
AcDbArc
 50
90.000003
 51
180.000005
  0
LINE
  5
186
330
1F
100
AcDbEntity
  8
0
 62
     1
370
    13
100
AcDbLine
 10
167.185944
 20
213.0
 30
0.0
 11
182.185944
 21
213.0
 31
0.0
  0
ARC
  5
187
330
1F
100
AcDbEntity
  8
0
 62
     1
370
    13
100
AcDbCircle
 10
182.185944
 20
210.0
 30
0.0
 40
3.0
100
AcDbArc
 50
0.0
 51
90.000003
  0
LINE
  5
188
330
1F
100
AcDbEntity
  8
0
 62
     1
370
    13
100
AcDbLine
 10
185.185944
 20
204.0
 30
0.0
 11
185.185944
 21
210.0
 31
0.0
  0
ARC
  5
189
330
1F
100
AcDbEntity
  8
0
 62
     1
370
    13
100
AcDbCircle
 10
188.185944
 20
204.0
 30
0.0
 40
3.0
100
AcDbArc
 50
180.000005
 51
269.999997
  0
ENDSEC
  0
SECTION
  2
OBJECTS
  0
DICTIONARY
  5
C
330
0
100
AcDbDictionary
281
     1
  3
ACAD_DETAILVIEWSTYLE
350
192
  3
ACAD_GROUP
350
D
  3
ACAD_LAYOUT
350
1A
  3
ACAD_MATERIAL
350
43
  3
ACAD_MLEADERSTYLE
350
6B
  3
ACAD_MLINESTYLE
350
17
  3
ACAD_PLOTSETTINGS
350
19
  3
ACAD_PLOTSTYLENAME
350
E
  3
ACAD_SCALELIST
350
47
  3
ACAD_SECTIONVIEWSTYLE
350
193
  3
ACAD_TABLESTYLE
350
69
  3
ACAD_VISUALSTYLE
350
2A
  3
ACDB_RECOMPOSE_DATA
350
18E
  3
AcDbVariableDictionary
350
18A
  0
SUN
  5
6D
330
29
100
AcDbSun
 90
        1
290
     0
 63
     7
421
 16777215
 40
1.0
291
     1
 91
  2455826
 92
 54000000
292
     0
 70
     2
 71
   256
280
     1
  0
DICTIONARY
  5
192
102
{ACAD_REACTORS
330
C
102
}
330
C
100
AcDbDictionary
281
     1
  0
DICTIONARY
  5
D
102
{ACAD_REACTORS
330
C
102
}
330
C
100
AcDbDictionary
281
     1
  0
DICTIONARY
  5
1A
102
{ACAD_REACTORS
330
C
102
}
330
C
100
AcDbDictionary
281
     1
  3
Layout1
350
1E
  3
Layout2
350
26
  3
Model
350
22
  0
DICTIONARY
  5
43
102
{ACAD_REACTORS
330
C
102
}
330
C
100
AcDbDictionary
281
     1
  3
ByBlock
350
45
  3
ByLayer
350
44
  3
Global
350
46
  0
DICTIONARY
  5
6B
102
{ACAD_REACTORS
330
C
102
}
330
C
100
AcDbDictionary
281
     1
  3
Standard
350
6C
  0
DICTIONARY
  5
17
102
{ACAD_REACTORS
330
C
102
}
330
C
100
AcDbDictionary
281
     1
  3
Standard
350
18
  0
DICTIONARY
  5
19
102
{ACAD_REACTORS
330
C
102
}
330
C
100
AcDbDictionary
281
     1
  0
ACDBDICTIONARYWDFLT
  5
E
102
{ACAD_REACTORS
330
C
102
}
330
C
100
AcDbDictionary
281
     1
  3
Normal
350
F
100
AcDbDictionaryWithDefault
340
F
  0
DICTIONARY
  5
47
102
{ACAD_REACTORS
330
C
102
}
330
C
100
AcDbDictionary
281
     1
  3
A0
350
48
  3
A1
350
49
  3
A2
350
4A
  3
A3
350
4B
  3
A4
350
4C
  3
A5
350
4D
  3
A6
350
4E
  3
A7
350
4F
  3
A8
350
50
  3
A9
350
51
  3
B0
350
52
  3
B1
350
53
  3
B2
350
54
  3
B3
350
55
  3
B4
350
56
  3
B5
350
57
  3
B6
350
58
  3
B7
350
59
  3
B8
350
5A
  3
B9
350
5B
  3
C0
350
5C
  3
C1
350
5D
  3
C2
350
5E
  3
C3
350
5F
  3
C4
350
60
  3
C5
350
61
  3
C6
350
62
  3
C7
350
63
  3
C8
350
64
  3
C9
350
65
  3
D0
350
66
  3
D1
350
67
  3
D2
350
68
  0
DICTIONARY
  5
193
102
{ACAD_REACTORS
330
C
102
}
330
C
100
AcDbDictionary
281
     1
  0
DICTIONARY
  5
69
102
{ACAD_REACTORS
330
C
102
}
330
C
100
AcDbDictionary
281
     1
  3
Standard
350
6A
  0
DICTIONARY
  5
2A
102
{ACAD_REACTORS
330
C
102
}
330
C
100
AcDbDictionary
281
     1
  3
2dWireframe
350
2F
  3
Basic
350
32
  3
Brighten
350
36
  3
ColorChange
350
3A
  3
Conceptual
350
34
  3
Dim
350
35
  3
EdgeColorOff
350
3D
  3
Facepattern
350
39
  3
Flat
350
2B
  3
FlatWithEdges
350
2C
  3
Gouraud
350
2D
  3
GouraudWithEdges
350
2E
  3
Hidden
350
31
  3
JitterOff
350
3B
  3
Linepattern
350
38
  3
OverhangOff
350
3C
  3
Realistic
350
33
  3
Shaded
350
42
  3
Shaded with edges
350
41
  3
Shades of Gray
350
3E
  3
Sketchy
350
3F
  3
Thicken
350
37
  3
Wireframe
350
30
  3
X-Ray
350
40
  0
XRECORD
  5
18E
102
{ACAD_REACTORS
330
C
102
}
330
C
100
AcDbXrecord
280
     1
 90
        1
330
6A
  0
DICTIONARY
  5
18A
102
{ACAD_REACTORS
330
C
102
}
330
C
100
AcDbDictionary
281
     1
  3
CANNOSCALE
350
18B
  3
CMLEADERSTYLE
350
190
  3
CTABLESTYLE
350
18F
  3
XCLIPFRAME
350
191
  0
LAYOUT
  5
1E
102
{ACAD_REACTORS
330
1A
102
}
330
1A
100
AcDbPlotSettings
  1

  2
none_device
  4

  6

 40
0.0
 41
0.0
 42
0.0
 43
0.0
 44
0.0
 45
0.0
 46
0.0
 47
0.0
 48
0.0
 49
0.0
140
0.0
141
0.0
142
1.0
143
1.0
 70
  4784
 72
     0
 73
     0
 74
     5
  7

 75
    16
 76
     0
 77
     2
 78
   300
147
1.0
148
0.0
149
0.0
100
AcDbLayout
  1
Layout1
 70
     1
 71
     1
 10
0.0
 20
0.0
 11
420.0
 21
297.0
 12
0.0
 22
0.0
 32
0.0
 14
0.0
 24
0.0
 34
0.0
 15
235.314041
 25
237.5
 35
2.0
146
0.0
 13
0.0
 23
0.0
 33
0.0
 16
1.0
 26
0.0
 36
0.0
 17
0.0
 27
1.0
 37
0.0
 76
     0
330
1B
  0
LAYOUT
  5
26
102
{ACAD_REACTORS
330
1A
102
}
330
1A
100
AcDbPlotSettings
  1

  2
none_device
  4

  6

 40
0.0
 41
0.0
 42
0.0
 43
0.0
 44
0.0
 45
0.0
 46
0.0
 47
0.0
 48
0.0
 49
0.0
140
0.0
141
0.0
142
1.0
143
1.0
 70
  4784
 72
     0
 73
     0
 74
     5
  7

 75
    16
 76
     0
 77
     2
 78
   300
147
1.0
148
0.0
149
0.0
100
AcDbLayout
  1
Layout2
 70
     1
 71
     2
 10
0.0
 20
0.0
 11
0.0
 21
0.0
 12
0.0
 22
0.0
 32
0.0
 14
0.0
 24
0.0
 34
0.0
 15
0.0
 25
0.0
 35
0.0
146
0.0
 13
0.0
 23
0.0
 33
0.0
 16
1.0
 26
0.0
 36
0.0
 17
0.0
 27
1.0
 37
0.0
 76
     0
330
23
  0
LAYOUT
  5
22
102
{ACAD_REACTORS
330
1A
102
}
330
1A
100
AcDbPlotSettings
  1

  2
none_device
  4
Letter_(8.50_x_11.00_Inches)
  6

 40
6.35
 41
6.35
 42
6.350005
 43
6.350005
 44
215.9
 45
279.4
 46
0.0
 47
0.0
 48
0.0
 49
0.0
140
0.0
141
0.0
142
1.0
143
1.0
 70
  5808
 72
     0
 73
     0
 74
     0
  7

 75
     0
 76
     0
 77
     2
 78
   300
147
1.0
148
0.0
149
0.0
100
AcDbLayout
  1
Model
 70
     1
 71
     0
 10
0.0
 20
0.0
 11
420.0
 21
297.0
 12
0.0
 22
0.0
 32
0.0
 14
0.0
 24
0.0
 34
0.0
 15
235.314041
 25
237.5
 35
2.0
146
0.0
 13
0.0
 23
0.0
 33
0.0
 16
1.0
 26
0.0
 36
0.0
 17
0.0
 27
1.0
 37
0.0
 76
     0
330
1F
331
29
  0
MATERIAL
  5
45
102
{ACAD_REACTORS
330
43
102
}
330
43
100
AcDbMaterial
  1
ByBlock
 72
     1
 94
      127
  0
MATERIAL
  5
44
102
{ACAD_REACTORS
330
43
102
}
330
43
100
AcDbMaterial
  1
ByLayer
 72
     1
 94
      127
  0
MATERIAL
  5
46
102
{ACAD_REACTORS
330
43
102
}
330
43
100
AcDbMaterial
  1
Global
 72
     1
 94
      127
  0
MLEADERSTYLE
  5
6C
102
{ACAD_REACTORS
330
6B
102
}
330
6B
100
AcDbMLeaderStyle
179
     2
170
     2
171
     1
172
     0
 90
        2
 40
0.0
 41
0.0
173
     1
 91
-1056964608
340
14
 92
       -2
290
     1
 42
0.09
291
     1
 43
0.36
  3
Standard
341
0
 44
0.18
300

342
11
174
     1
178
     6
175
     1
176
     0
 93
-1056964608
 45
0.18
292
     0
297
     0
 46
0.18
343
0
 94
-1056964608
 47
1.0
 49
1.0
140
1.0
293
     1
141
0.0
294
     1
177
     0
142
1.0
295
     0
296
     0
143
0.125
271
     0
272
     9
273
     9
  0
MLINESTYLE
  5
18
102
{ACAD_REACTORS
330
17
102
}
330
17
100
AcDbMlineStyle
  2
Standard
 70
     0
  3

 62
   256
 51
90.0
 52
90.0
 71
     2
 49
0.5
 62
   256
  6
BYLAYER
 49
-0.5
 62
   256
  6
BYLAYER
  0
ACDBPLACEHOLDER
  5
F
102
{ACAD_REACTORS
330
E
102
}
330
E
  0
SCALE
  5
48
102
{ACAD_REACTORS
330
47
102
}
330
47
100
AcDbScale
 70
     0
300
1:1
140
1.0
141
1.0
290
     1
  0
SCALE
  5
49
102
{ACAD_REACTORS
330
47
102
}
330
47
100
AcDbScale
 70
     0
300
1:2
140
1.0
141
2.0
290
     0
  0
SCALE
  5
4A
102
{ACAD_REACTORS
330
47
102
}
330
47
100
AcDbScale
 70
     0
300
1:4
140
1.0
141
4.0
290
     0
  0
SCALE
  5
4B
102
{ACAD_REACTORS
330
47
102
}
330
47
100
AcDbScale
 70
     0
300
1:5
140
1.0
141
5.0
290
     0
  0
SCALE
  5
4C
102
{ACAD_REACTORS
330
47
102
}
330
47
100
AcDbScale
 70
     0
300
1:8
140
1.0
141
8.0
290
     0
  0
SCALE
  5
4D
102
{ACAD_REACTORS
330
47
102
}
330
47
100
AcDbScale
 70
     0
300
1:10
140
1.0
141
10.0
290
     0
  0
SCALE
  5
4E
102
{ACAD_REACTORS
330
47
102
}
330
47
100
AcDbScale
 70
     0
300
1:16
140
1.0
141
16.0
290
     0
  0
SCALE
  5
4F
102
{ACAD_REACTORS
330
47
102
}
330
47
100
AcDbScale
 70
     0
300
1:20
140
1.0
141
20.0
290
     0
  0
SCALE
  5
50
102
{ACAD_REACTORS
330
47
102
}
330
47
100
AcDbScale
 70
     0
300
1:30
140
1.0
141
30.0
290
     0
  0
SCALE
  5
51
102
{ACAD_REACTORS
330
47
102
}
330
47
100
AcDbScale
 70
     0
300
1:40
140
1.0
141
40.0
290
     0
  0
SCALE
  5
52
102
{ACAD_REACTORS
330
47
102
}
330
47
100
AcDbScale
 70
     0
300
1:50
140
1.0
141
50.0
290
     0
  0
SCALE
  5
53
102
{ACAD_REACTORS
330
47
102
}
330
47
100
AcDbScale
 70
     0
300
1:100
140
1.0
141
100.0
290
     0
  0
SCALE
  5
54
102
{ACAD_REACTORS
330
47
102
}
330
47
100
AcDbScale
 70
     0
300
2:1
140
2.0
141
1.0
290
     0
  0
SCALE
  5
55
102
{ACAD_REACTORS
330
47
102
}
330
47
100
AcDbScale
 70
     0
300
4:1
140
4.0
141
1.0
290
     0
  0
SCALE
  5
56
102
{ACAD_REACTORS
330
47
102
}
330
47
100
AcDbScale
 70
     0
300
8:1
140
8.0
141
1.0
290
     0
  0
SCALE
  5
57
102
{ACAD_REACTORS
330
47
102
}
330
47
100
AcDbScale
 70
     0
300
10:1
140
10.0
141
1.0
290
     0
  0
SCALE
  5
58
102
{ACAD_REACTORS
330
47
102
}
330
47
100
AcDbScale
 70
     0
300
100:1
140
100.0
141
1.0
290
     0
  0
SCALE
  5
59
102
{ACAD_REACTORS
330
47
102
}
330
47
100
AcDbScale
 70
     0
300
1/128" = 1'-0"
140
0.007812
141
12.0
290
     0
  0
SCALE
  5
5A
102
{ACAD_REACTORS
330
47
102
}
330
47
100
AcDbScale
 70
     0
300
1/64" = 1'-0"
140
0.015625
141
12.0
290
     0
  0
SCALE
  5
5B
102
{ACAD_REACTORS
330
47
102
}
330
47
100
AcDbScale
 70
     0
300
1/32" = 1'-0"
140
0.03125
141
12.0
290
     0
  0
SCALE
  5
5C
102
{ACAD_REACTORS
330
47
102
}
330
47
100
AcDbScale
 70
     0
300
1/16" = 1'-0"
140
0.0625
141
12.0
290
     0
  0
SCALE
  5
5D
102
{ACAD_REACTORS
330
47
102
}
330
47
100
AcDbScale
 70
     0
300
3/32" = 1'-0"
140
0.09375
141
12.0
290
     0
  0
SCALE
  5
5E
102
{ACAD_REACTORS
330
47
102
}
330
47
100
AcDbScale
 70
     0
300
1/8" = 1'-0"
140
0.125
141
12.0
290
     0
  0
SCALE
  5
5F
102
{ACAD_REACTORS
330
47
102
}
330
47
100
AcDbScale
 70
     0
300
3/16" = 1'-0"
140
0.1875
141
12.0
290
     0
  0
SCALE
  5
60
102
{ACAD_REACTORS
330
47
102
}
330
47
100
AcDbScale
 70
     0
300
1/4" = 1'-0"
140
0.25
141
12.0
290
     0
  0
SCALE
  5
61
102
{ACAD_REACTORS
330
47
102
}
330
47
100
AcDbScale
 70
     0
300
3/8" = 1'-0"
140
0.375
141
12.0
290
     0
  0
SCALE
  5
62
102
{ACAD_REACTORS
330
47
102
}
330
47
100
AcDbScale
 70
     0
300
1/2" = 1'-0"
140
0.5
141
12.0
290
     0
  0
SCALE
  5
63
102
{ACAD_REACTORS
330
47
102
}
330
47
100
AcDbScale
 70
     0
300
3/4" = 1'-0"
140
0.75
141
12.0
290
     0
  0
SCALE
  5
64
102
{ACAD_REACTORS
330
47
102
}
330
47
100
AcDbScale
 70
     0
300
1" = 1'-0"
140
1.0
141
12.0
290
     0
  0
SCALE
  5
65
102
{ACAD_REACTORS
330
47
102
}
330
47
100
AcDbScale
 70
     0
300
1-1/2" = 1'-0"
140
1.5
141
12.0
290
     0
  0
SCALE
  5
66
102
{ACAD_REACTORS
330
47
102
}
330
47
100
AcDbScale
 70
     0
300
3" = 1'-0"
140
3.0
141
12.0
290
     0
  0
SCALE
  5
67
102
{ACAD_REACTORS
330
47
102
}
330
47
100
AcDbScale
 70
     0
300
6" = 1'-0"
140
6.0
141
12.0
290
     0
  0
SCALE
  5
68
102
{ACAD_REACTORS
330
47
102
}
330
47
100
AcDbScale
 70
     0
300
1'-0" = 1'-0"
140
12.0
141
12.0
290
     0
  0
TABLESTYLE
  5
6A
102
{ACAD_REACTORS
330
69
102
}
102
{ACAD_XDICTIONARY
360
18C
102
}
330
69
100
AcDbTableStyle
  3
Standard
 70
     0
 71
     0
 40
0.06
 41
0.06
280
     0
281
     0
  7
Standard
140
0.18
170
     2
 62
     0
 63
   257
283
     0
 90
        4
 91
        0
  1

274
    -2
284
     1
 64
     0
275
    -2
285
     1
 65
     0
276
    -2
286
     1
 66
     0
277
    -2
287
     1
 67
     0
278
    -2
288
     1
 68
     0
279
    -2
289
     1
 69
     0
  7
Standard
140
0.25
170
     5
 62
     0
 63
   257
283
     0
 90
        4
 91
        0
  1

274
    -2
284
     1
 64
     0
275
    -2
285
     1
 65
     0
276
    -2
286
     1
 66
     0
277
    -2
287
     1
 67
     0
278
    -2
288
     1
 68
     0
279
    -2
289
     1
 69
     0
  7
Standard
140
0.18
170
     5
 62
     0
 63
   257
283
     0
 90
        4
 91
        0
  1

274
    -2
284
     1
 64
     0
275
    -2
285
     1
 65
     0
276
    -2
286
     1
 66
     0
277
    -2
287
     1
 67
     0
278
    -2
288
     1
 68
     0
279
    -2
289
     1
 69
     0
  0
VISUALSTYLE
  5
2F
102
{ACAD_REACTORS
330
2A
102
}
330
2A
100
AcDbVisualStyle
  2
2dWireframe
 70
     4
177
     2
291
     0
 71
     0
176
     1
 72
     2
176
     1
 73
     0
176
     1
 90
        0
176
     1
 40
0.6
176
     1
 41
30.0
176
     1
 62
     5
 63
     7
421
 16777215
176
     1
 74
     1
176
     1
 91
        4
176
     1
 64
     7
176
     1
 65
   257
176
     1
 75
     1
176
     1
175
     1
176
     1
 42
1.0
176
     1
 92
        0
176
     1
 66
   257
176
     1
 43
1.0
176
     1
 76
     1
176
     1
 77
     6
176
     1
 78
     2
176
     1
 67
     7
176
     1
 79
     5
176
     1
170
     0
176
     1
171
     0
176
     1
290
     0
176
     1
 93
        1
176
     1
 44
0.0
176
     1
173
     0
176
     1
  0
VISUALSTYLE
  5
32
102
{ACAD_REACTORS
330
2A
102
}
330
2A
100
AcDbVisualStyle
  2
Basic
 70
     7
177
     2
291
     1
 71
     1
176
     1
 72
     0
176
     1
 73
     1
176
     1
 90
        0
176
     1
 40
0.6
176
     1
 41
30.0
176
     1
 62
     5
 63
     7
421
 16777215
176
     1
 74
     0
176
     1
 91
        4
176
     1
 64
     7
176
     1
 65
   257
176
     1
 75
     1
176
     1
175
     1
176
     1
 42
1.0
176
     1
 92
        8
176
     1
 66
     7
176
     1
 43
1.0
176
     1
 76
     1
176
     1
 77
     6
176
     1
 78
     2
176
     1
 67
     7
176
     1
 79
     5
176
     1
170
     0
176
     1
171
     0
176
     1
290
     0
176
     1
 93
        1
176
     1
 44
0.0
176
     1
173
     0
176
     1
  0
VISUALSTYLE
  5
36
102
{ACAD_REACTORS
330
2A
102
}
330
2A
100
AcDbVisualStyle
  2
Brighten
 70
    12
177
     2
291
     1
 71
     2
176
     1
 72
     2
176
     1
 73
     0
176
     1
 90
        0
176
     1
 40
0.6
176
     1
 41
30.0
176
     1
 62
     5
 63
     7
421
 16777215
176
     1
 74
     1
176
     1
 91
        4
176
     1
 64
     7
176
     1
 65
   257
176
     1
 75
     1
176
     1
175
     1
176
     1
 42
1.0
176
     1
 92
        8
176
     1
 66
     7
176
     1
 43
1.0
176
     1
 76
     1
176
     1
 77
     6
176
     1
 78
     2
176
     1
 67
     7
176
     1
 79
     5
176
     1
170
     0
176
     1
171
     0
176
     1
290
     0
176
     1
 93
        1
176
     1
 44
50.0
176
     1
173
     0
176
     1
  0
VISUALSTYLE
  5
3A
102
{ACAD_REACTORS
330
2A
102
}
330
2A
100
AcDbVisualStyle
  2
ColorChange
 70
    16
177
     2
291
     1
 71
     2
176
     1
 72
     2
176
     1
 73
     3
176
     1
 90
        0
176
     1
 40
0.6
176
     1
 41
30.0
176
     1
 62
     5
 63
     8
421
  8421504
176
     1
 74
     1
176
     1
 91
        4
176
     1
 64
     7
176
     1
 65
   257
176
     1
 75
     1
176
     1
175
     1
176
     1
 42
1.0
176
     1
 92
        8
176
     1
 66
     8
424
  8421504
176
     1
 43
1.0
176
     1
 76
     1
176
     1
 77
     6
176
     1
 78
     2
176
     1
 67
     7
176
     1
 79
     5
176
     1
170
     0
176
     1
171
     0
176
     1
290
     0
176
     1
 93
        1
176
     1
 44
0.0
176
     1
173
     0
176
     1
  0
VISUALSTYLE
  5
34
102
{ACAD_REACTORS
330
2A
102
}
330
2A
100
AcDbVisualStyle
  2
Conceptual
 70
     9
177
     2
291
     0
 71
     3
176
     1
 72
     2
176
     1
 73
     0
176
     1
 90
        0
176
     1
 40
0.6
176
     1
 41
30.0
176
     1
 62
     5
 63
     7
421
 16777215
176
     1
 74
     2
176
     1
 91
        2
176
     1
 64
     7
176
     1
 65
   257
176
     1
 75
     1
176
     1
175
     1
176
     1
 42
179.0
176
     1
 92
        8
176
     1
 66
     7
176
     1
 43
1.0
176
     1
 76
     1
176
     1
 77
     6
176
     1
 78
     2
176
     1
 67
     7
176
     1
 79
     3
176
     1
170
     0
176
     1
171
     0
176
     1
290
     0
176
     1
 93
        1
176
     1
 44
0.0
176
     1
173
     0
176
     1
  0
VISUALSTYLE
  5
35
102
{ACAD_REACTORS
330
2A
102
}
330
2A
100
AcDbVisualStyle
  2
Dim
 70
    11
177
     2
291
     1
 71
     2
176
     1
 72
     2
176
     1
 73
     0
176
     1
 90
        0
176
     1
 40
0.6
176
     1
 41
30.0
176
     1
 62
     5
 63
     7
421
 16777215
176
     1
 74
     1
176
     1
 91
        4
176
     1
 64
     7
176
     1
 65
   257
176
     1
 75
     1
176
     1
175
     1
176
     1
 42
1.0
176
     1
 92
        8
176
     1
 66
     7
176
     1
 43
1.0
176
     1
 76
     1
176
     1
 77
     6
176
     1
 78
     2
176
     1
 67
     7
176
     1
 79
     5
176
     1
170
     0
176
     1
171
     0
176
     1
290
     0
176
     1
 93
        1
176
     1
 44
-50.0
176
     1
173
     0
176
     1
  0
VISUALSTYLE
  5
3D
102
{ACAD_REACTORS
330
2A
102
}
330
2A
100
AcDbVisualStyle
  2
EdgeColorOff
 70
    22
177
     2
291
     1
 71
     2
176
     0
 72
     2
176
     0
 73
     0
176
     0
 90
        0
176
     0
 40
0.6
176
     0
 41
30.0
176
     0
 62
     5
 63
     7
421
 16777215
176
     0
 74
     1
176
     0
 91
        4
176
     0
 64
     7
176
     0
 65
   257
176
     0
 75
     1
176
     0
175
     1
176
     0
 42
1.0
176
     0
 92
        8
176
     2
 66
     7
176
     0
 43
1.0
176
     0
 76
     1
176
     0
 77
     6
176
     0
 78
     2
176
     0
 67
     7
176
     0
 79
     5
176
     0
170
     0
176
     0
171
     0
176
     0
290
     0
176
     0
 93
        1
176
     0
 44
0.0
176
     0
173
     0
176
     0
  0
VISUALSTYLE
  5
39
102
{ACAD_REACTORS
330
2A
102
}
330
2A
100
AcDbVisualStyle
  2
Facepattern
 70
    15
177
     2
291
     1
 71
     2
176
     1
 72
     2
176
     1
 73
     0
176
     1
 90
        0
176
     1
 40
0.6
176
     1
 41
30.0
176
     1
 62
     5
 63
     7
421
 16777215
176
     1
 74
     1
176
     1
 91
        4
176
     1
 64
     7
176
     1
 65
   257
176
     1
 75
     1
176
     1
175
     1
176
     1
 42
1.0
176
     1
 92
        8
176
     1
 66
     7
176
     1
 43
1.0
176
     1
 76
     1
176
     1
 77
     6
176
     1
 78
     2
176
     1
 67
     7
176
     1
 79
     5
176
     1
170
     0
176
     1
171
     0
176
     1
290
     0
176
     1
 93
        1
176
     1
 44
0.0
176
     1
173
     0
176
     1
  0
VISUALSTYLE
  5
2B
102
{ACAD_REACTORS
330
2A
102
}
330
2A
100
AcDbVisualStyle
  2
Flat
 70
     0
177
     2
291
     1
 71
     2
176
     1
 72
     1
176
     1
 73
     1
176
     1
 90
        2
176
     1
 40
0.6
176
     1
 41
30.0
176
     1
 62
     5
 63
     7
421
 16777215
176
     1
 74
     0
176
     1
 91
        0
176
     1
 64
     7
176
     1
 65
   257
176
     1
 75
     1
176
     1
175
     1
176
     1
 42
1.0
176
     1
 92
        8
176
     1
 66
     7
176
     1
 43
1.0
176
     1
 76
     1
176
     1
 77
     6
176
     1
 78
     2
176
     1
 67
     7
176
     1
 79
     5
176
     1
170
     0
176
     1
171
     0
176
     1
290
     0
176
     1
 93
       13
176
     1
 44
0.0
176
     1
173
     0
176
     1
  0
VISUALSTYLE
  5
2C
102
{ACAD_REACTORS
330
2A
102
}
330
2A
100
AcDbVisualStyle
  2
FlatWithEdges
 70
     1
177
     2
291
     1
 71
     2
176
     1
 72
     1
176
     1
 73
     1
176
     1
 90
        2
176
     1
 40
0.6
176
     1
 41
30.0
176
     1
 62
     5
 63
     7
421
 16777215
176
     1
 74
     1
176
     1
 91
        0
176
     1
 64
     7
176
     1
 65
   257
176
     1
 75
     1
176
     1
175
     1
176
     1
 42
1.0
176
     1
 92
        0
176
     1
 66
   257
176
     1
 43
1.0
176
     1
 76
     1
176
     1
 77
     6
176
     1
 78
     2
176
     1
 67
     7
176
     1
 79
     5
176
     1
170
     0
176
     1
171
     0
176
     1
290
     0
176
     1
 93
       13
176
     1
 44
0.0
176
     1
173
     0
176
     1
  0
VISUALSTYLE
  5
2D
102
{ACAD_REACTORS
330
2A
102
}
330
2A
100
AcDbVisualStyle
  2
Gouraud
 70
     2
177
     2
291
     1
 71
     2
176
     1
 72
     2
176
     1
 73
     1
176
     1
 90
        2
176
     1
 40
0.6
176
     1
 41
30.0
176
     1
 62
     5
 63
     7
421
 16777215
176
     1
 74
     0
176
     1
 91
        0
176
     1
 64
     7
176
     1
 65
   257
176
     1
 75
     1
176
     1
175
     1
176
     1
 42
1.0
176
     1
 92
        0
176
     1
 66
     7
176
     1
 43
1.0
176
     1
 76
     1
176
     1
 77
     6
176
     1
 78
     2
176
     1
 67
     7
176
     1
 79
     5
176
     1
170
     0
176
     1
171
     0
176
     1
290
     0
176
     1
 93
       13
176
     1
 44
0.0
176
     1
173
     0
176
     1
  0
VISUALSTYLE
  5
2E
102
{ACAD_REACTORS
330
2A
102
}
330
2A
100
AcDbVisualStyle
  2
GouraudWithEdges
 70
     3
177
     2
291
     1
 71
     2
176
     1
 72
     2
176
     1
 73
     1
176
     1
 90
        2
176
     1
 40
0.6
176
     1
 41
30.0
176
     1
 62
     5
 63
     7
421
 16777215
176
     1
 74
     1
176
     1
 91
        0
176
     1
 64
     7
176
     1
 65
   257
176
     1
 75
     1
176
     1
175
     1
176
     1
 42
1.0
176
     1
 92
        0
176
     1
 66
   257
176
     1
 43
1.0
176
     1
 76
     1
176
     1
 77
     6
176
     1
 78
     2
176
     1
 67
     7
176
     1
 79
     5
176
     1
170
     0
176
     1
171
     0
176
     1
290
     0
176
     1
 93
       13
176
     1
 44
0.0
176
     1
173
     0
176
     1
  0
VISUALSTYLE
  5
31
102
{ACAD_REACTORS
330
2A
102
}
330
2A
100
AcDbVisualStyle
  2
Hidden
 70
     6
177
     2
291
     0
 71
     1
176
     1
 72
     2
176
     1
 73
     2
176
     1
 90
        0
176
     1
 40
0.6
176
     1
 41
30.0
176
     1
 62
     5
 63
     7
421
 16777215
176
     1
 74
     2
176
     1
 91
        2
176
     1
 64
     7
176
     1
 65
   257
176
     1
 75
     2
176
     1
175
     1
176
     1
 42
40.0
176
     1
 92
        0
176
     1
 66
   257
176
     1
 43
1.0
176
     1
 76
     1
176
     1
 77
     6
176
     1
 78
     2
176
     1
 67
     7
176
     1
 79
     3
176
     1
170
     0
176
     1
171
     0
176
     1
290
     0
176
     1
 93
        1
176
     1
 44
0.0
176
     1
173
     0
176
     1
  0
VISUALSTYLE
  5
3B
102
{ACAD_REACTORS
330
2A
102
}
330
2A
100
AcDbVisualStyle
  2
JitterOff
 70
    20
177
     2
291
     1
 71
     2
176
     0
 72
     2
176
     0
 73
     0
176
     0
 90
        0
176
     0
 40
0.6
176
     0
 41
30.0
176
     0
 62
     5
 63
     7
421
 16777215
176
     0
 74
     1
176
     0
 91
        4
176
     0
 64
     7
176
     0
 65
   257
176
     0
 75
     1
176
     0
175
     1
176
     0
 42
1.0
176
     0
 92
       10
176
     2
 66
     7
176
     0
 43
1.0
176
     0
 76
     1
176
     0
 77
     6
176
     0
 78
     2
176
     0
 67
     7
176
     0
 79
     5
176
     0
170
     0
176
     0
171
     0
176
     0
290
     0
176
     0
 93
        1
176
     0
 44
0.0
176
     0
173
     0
176
     0
  0
VISUALSTYLE
  5
38
102
{ACAD_REACTORS
330
2A
102
}
330
2A
100
AcDbVisualStyle
  2
Linepattern
 70
    14
177
     2
291
     1
 71
     2
176
     1
 72
     2
176
     1
 73
     0
176
     1
 90
        0
176
     1
 40
0.6
176
     1
 41
30.0
176
     1
 62
     5
 63
     7
421
 16777215
176
     1
 74
     1
176
     1
 91
        4
176
     1
 64
     7
176
     1
 65
   257
176
     1
 75
     7
176
     1
175
     7
176
     1
 42
1.0
176
     1
 92
        8
176
     1
 66
     7
176
     1
 43
1.0
176
     1
 76
     1
176
     1
 77
     6
176
     1
 78
     2
176
     1
 67
     7
176
     1
 79
     5
176
     1
170
     0
176
     1
171
     0
176
     1
290
     0
176
     1
 93
        1
176
     1
 44
0.0
176
     1
173
     0
176
     1
  0
VISUALSTYLE
  5
3C
102
{ACAD_REACTORS
330
2A
102
}
330
2A
100
AcDbVisualStyle
  2
OverhangOff
 70
    21
177
     2
291
     1
 71
     2
176
     0
 72
     2
176
     0
 73
     0
176
     0
 90
        0
176
     0
 40
0.6
176
     0
 41
30.0
176
     0
 62
     5
 63
     7
421
 16777215
176
     0
 74
     1
176
     0
 91
        4
176
     0
 64
     7
176
     0
 65
   257
176
     0
 75
     1
176
     0
175
     1
176
     0
 42
1.0
176
     0
 92
        9
176
     2
 66
     7
176
     0
 43
1.0
176
     0
 76
     1
176
     0
 77
     6
176
     0
 78
     2
176
     0
 67
     7
176
     0
 79
     5
176
     0
170
     0
176
     0
171
     0
176
     0
290
     0
176
     0
 93
        1
176
     0
 44
0.0
176
     0
173
     0
176
     0
  0
VISUALSTYLE
  5
33
102
{ACAD_REACTORS
330
2A
102
}
330
2A
100
AcDbVisualStyle
  2
Realistic
 70
     8
177
     2
291
     0
 71
     2
176
     1
 72
     3
176
     1
 73
     0
176
     1
 90
        2
176
     1
 40
0.6
176
     1
 41
30.0
176
     1
 62
     5
 63
     7
421
 16777215
176
     1
 74
     0
176
     1
 91
        0
176
     1
 64
     7
176
     1
 65
   257
176
     1
 75
     1
176
     1
175
     1
176
     1
 42
1.0
176
     1
 92
        8
176
     1
 66
   257
176
     1
 43
1.0
176
     1
 76
     1
176
     1
 77
     6
176
     1
 78
     2
176
     1
 67
     7
176
     1
 79
     3
176
     1
170
     0
176
     1
171
     0
176
     1
290
     0
176
     1
 93
       13
176
     1
 44
0.0
176
     1
173
     0
176
     1
  0
VISUALSTYLE
  5
42
102
{ACAD_REACTORS
330
2A
102
}
330
2A
100
AcDbVisualStyle
  2
Shaded
 70
    27
177
     2
291
     0
 71
     2
176
     1
 72
     2
176
     1
 73
     1
176
     1
 90
        2
176
     1
 40
0.6
176
     1
 41
30.0
176
     1
 62
     5
 63
     7
421
 16777215
176
     1
 74
     0
176
     1
 91
        4
176
     1
 64
     7
176
     1
 65
   257
176
     1
 75
     1
176
     1
175
     1
176
     1
 42
1.0
176
     1
 92
        8
176
     1
 66
   257
176
     1
 43
1.0
176
     1
 76
     1
176
     1
 77
     6
176
     1
 78
     2
176
     1
 67
     8
425
  7895160
176
     1
 79
     3
176
     1
170
     0
176
     1
171
     0
176
     1
290
     0
176
     1
 93
        5
176
     1
 44
0.0
176
     1
173
     0
176
     1
  0
VISUALSTYLE
  5
41
102
{ACAD_REACTORS
330
2A
102
}
330
2A
100
AcDbVisualStyle
  2
Shaded with edges
 70
    26
177
     2
291
     0
 71
     2
176
     1
 72
     2
176
     1
 73
     1
176
     1
 90
        2
176
     1
 40
0.6
176
     1
 41
30.0
176
     1
 62
     5
 63
     7
421
 16777215
176
     1
 74
     1
176
     1
 91
       10
176
     1
 64
     7
176
     1
 65
   257
176
     1
 75
     2
176
     1
175
     1
176
     1
 42
1.0
176
     1
 92
        8
176
     1
 66
   257
176
     1
 43
1.0
176
     1
 76
     1
176
     1
 77
     6
176
     1
 78
     2
176
     1
 67
     7
176
     1
 79
     3
176
     1
170
     0
176
     1
171
     0
176
     1
290
     0
176
     1
 93
        5
176
     1
 44
0.0
176
     1
173
     0
176
     1
  0
VISUALSTYLE
  5
3E
102
{ACAD_REACTORS
330
2A
102
}
330
2A
100
AcDbVisualStyle
  2
Shades of Gray
 70
    23
177
     2
291
     0
 71
     2
176
     1
 72
     2
176
     1
 73
     3
176
     1
 90
        0
176
     1
 40
0.6
176
     1
 41
30.0
176
     1
 62
     5
 63
     7
421
 16777215
176
     1
 74
     2
176
     1
 91
        2
176
     1
 64
     7
176
     1
 65
     7
176
     1
 75
     1
176
     1
175
     1
176
     1
 42
40.0
176
     1
 92
        8
176
     1
 66
     7
176
     1
 43
1.0
176
     1
 76
     1
176
     1
 77
     6
176
     1
 78
     2
176
     1
 67
     7
176
     1
 79
     3
176
     1
170
     0
176
     1
171
     0
176
     1
290
     0
176
     1
 93
        1
176
     1
 44
0.0
176
     1
173
     0
176
     1
  0
VISUALSTYLE
  5
3F
102
{ACAD_REACTORS
330
2A
102
}
330
2A
100
AcDbVisualStyle
  2
Sketchy
 70
    24
177
     2
291
     0
 71
     1
176
     1
 72
     2
176
     1
 73
     2
176
     1
 90
        0
176
     1
 40
0.6
176
     1
 41
30.0
176
     1
 62
     5
 63
     7
421
 16777215
176
     1
 74
     2
176
     1
 91
        2
176
     1
 64
     7
176
     1
 65
     7
176
     1
 75
     1
176
     1
175
     1
176
     1
 42
40.0
176
     1
 92
       11
176
     1
 66
     7
176
     1
 43
1.0
176
     1
 76
     1
176
     1
 77
     6
176
     1
 78
     2
176
     1
 67
     7
176
     1
 79
     6
176
     1
170
     0
176
     1
171
     0
176
     1
290
     0
176
     1
 93
        1
176
     1
 44
0.0
176
     1
173
     0
176
     1
  0
VISUALSTYLE
  5
37
102
{ACAD_REACTORS
330
2A
102
}
330
2A
100
AcDbVisualStyle
  2
Thicken
 70
    13
177
     2
291
     1
 71
     2
176
     1
 72
     2
176
     1
 73
     0
176
     1
 90
        0
176
     1
 40
0.6
176
     1
 41
30.0
176
     1
 62
     5
 63
     7
421
 16777215
176
     1
 74
     1
176
     1
 91
        4
176
     1
 64
     7
176
     1
 65
   257
176
     1
 75
     1
176
     1
175
     1
176
     1
 42
1.0
176
     1
 92
       12
176
     1
 66
     7
176
     1
 43
1.0
176
     1
 76
     1
176
     1
 77
     6
176
     1
 78
     2
176
     1
 67
     7
176
     1
 79
     5
176
     1
170
     0
176
     1
171
     0
176
     1
290
     0
176
     1
 93
        1
176
     1
 44
0.0
176
     1
173
     0
176
     1
  0
VISUALSTYLE
  5
30
102
{ACAD_REACTORS
330
2A
102
}
330
2A
100
AcDbVisualStyle
  2
Wireframe
 70
     5
177
     2
291
     0
 71
     0
176
     1
 72
     2
176
     1
 73
     0
176
     1
 90
        0
176
     1
 40
0.6
176
     1
 41
30.0
176
     1
 62
     5
 63
     7
421
 16777215
176
     1
 74
     1
176
     1
 91
        4
176
     1
 64
     7
176
     1
 65
   257
176
     1
 75
     1
176
     1
175
     1
176
     1
 42
1.0
176
     1
 92
        0
176
     1
 66
   257
176
     1
 43
1.0
176
     1
 76
     1
176
     1
 77
     6
176
     1
 78
     2
176
     1
 67
     7
176
     1
 79
     3
176
     1
170
     0
176
     1
171
     0
176
     1
290
     0
176
     1
 93
        1
176
     1
 44
0.0
176
     1
173
     0
176
     1
  0
VISUALSTYLE
  5
40
102
{ACAD_REACTORS
330
2A
102
}
330
2A
100
AcDbVisualStyle
  2
X-Ray
 70
    25
177
     2
291
     0
 71
     2
176
     1
 72
     2
176
     1
 73
     1
176
     1
 90
        1
176
     1
 40
0.5
176
     1
 41
30.0
176
     1
 62
     5
 63
     7
421
 16777215
176
     1
 74
     1
176
     1
 91
        0
176
     1
 64
     7
176
     1
 65
   257
176
     1
 75
     1
176
     1
175
     1
176
     1
 42
1.0
176
     1
 92
        8
176
     1
 66
     7
176
     1
 43
1.0
176
     1
 76
     1
176
     1
 77
     6
176
     1
 78
     2
176
     1
 67
     7
176
     1
 79
     3
176
     1
170
     0
176
     1
171
     0
176
     1
290
     0
176
     1
 93
       13
176
     1
 44
0.0
176
     1
173
     0
176
     1
  0
DICTIONARYVAR
  5
18B
102
{ACAD_REACTORS
330
18A
102
}
330
18A
100
DictionaryVariables
280
     0
  1
1:1
  0
DICTIONARYVAR
  5
190
102
{ACAD_REACTORS
330
18A
102
}
330
18A
100
DictionaryVariables
280
     0
  1
Standard
  0
DICTIONARYVAR
  5
18F
102
{ACAD_REACTORS
330
18A
102
}
330
18A
100
DictionaryVariables
280
     0
  1
Standard
  0
DICTIONARYVAR
  5
191
102
{ACAD_REACTORS
330
18A
102
}
330
18A
100
DictionaryVariables
280
     0
  1
0
  0
DICTIONARY
  5
18C
330
6A
100
AcDbDictionary
280
     1
281
     1
  3
ACAD_ROUNDTRIP_2008_TABLESTYLE_CELLSTYLEMAP
360
18D
  0
CELLSTYLEMAP
  5
18D
102
{ACAD_REACTORS
330
18C
102
}
330
18C
100
AcDbCellStyleMap
 90
        3
300
CELLSTYLE
  1
TABLEFORMAT_BEGIN
 90
        5
170
     1
 91
        0
 92
    32768
 62
   257
 93
        1
300
CONTENTFORMAT
  1
CONTENTFORMAT_BEGIN
 90
        0
 91
        0
 92
        4
 93
        0
300

 40
0.0
140
1.0
 94
        5
 62
     0
340
11
144
0.25
309
CONTENTFORMAT_END
171
     1
301
MARGIN
  1
CELLMARGIN_BEGIN
 40
0.06
 40
0.06
 40
0.06
 40
0.06
 40
0.06
 40
0.06
309
CELLMARGIN_END
 94
        6
 95
        1
302
GRIDFORMAT
  1
GRIDFORMAT_BEGIN
 90
        0
 91
        1
 62
     0
 92
       -2
340
14
 93
        0
 40
0.045
309
GRIDFORMAT_END
 95
        2
302
GRIDFORMAT
  1
GRIDFORMAT_BEGIN
 90
        0
 91
        1
 62
     0
 92
       -2
340
14
 93
        0
 40
0.045
309
GRIDFORMAT_END
 95
        4
302
GRIDFORMAT
  1
GRIDFORMAT_BEGIN
 90
        0
 91
        1
 62
     0
 92
       -2
340
14
 93
        0
 40
0.045
309
GRIDFORMAT_END
 95
        8
302
GRIDFORMAT
  1
GRIDFORMAT_BEGIN
 90
        0
 91
        1
 62
     0
 92
       -2
340
14
 93
        0
 40
0.045
309
GRIDFORMAT_END
 95
       16
302
GRIDFORMAT
  1
GRIDFORMAT_BEGIN
 90
        0
 91
        1
 62
     0
 92
       -2
340
14
 93
        0
 40
0.045
309
GRIDFORMAT_END
 95
       32
302
GRIDFORMAT
  1
GRIDFORMAT_BEGIN
 90
        0
 91
        1
 62
     0
 92
       -2
340
14
 93
        0
 40
0.045
309
GRIDFORMAT_END
309
TABLEFORMAT_END
  1
CELLSTYLE_BEGIN
 90
        1
 91
        1
300
_TITLE
309
CELLSTYLE_END
300
CELLSTYLE
  1
TABLEFORMAT_BEGIN
 90
        5
170
     1
 91
        0
 92
        0
 62
   257
 93
        1
300
CONTENTFORMAT
  1
CONTENTFORMAT_BEGIN
 90
        0
 91
        0
 92
        4
 93
        0
300

 40
0.0
140
1.0
 94
        5
 62
     0
340
11
144
0.18
309
CONTENTFORMAT_END
171
     1
301
MARGIN
  1
CELLMARGIN_BEGIN
 40
0.06
 40
0.06
 40
0.06
 40
0.06
 40
0.06
 40
0.06
309
CELLMARGIN_END
 94
        6
 95
        1
302
GRIDFORMAT
  1
GRIDFORMAT_BEGIN
 90
        0
 91
        1
 62
     0
 92
       -2
340
14
 93
        0
 40
0.045
309
GRIDFORMAT_END
 95
        2
302
GRIDFORMAT
  1
GRIDFORMAT_BEGIN
 90
        0
 91
        1
 62
     0
 92
       -2
340
14
 93
        0
 40
0.045
309
GRIDFORMAT_END
 95
        4
302
GRIDFORMAT
  1
GRIDFORMAT_BEGIN
 90
        0
 91
        1
 62
     0
 92
       -2
340
14
 93
        0
 40
0.045
309
GRIDFORMAT_END
 95
        8
302
GRIDFORMAT
  1
GRIDFORMAT_BEGIN
 90
        0
 91
        1
 62
     0
 92
       -2
340
14
 93
        0
 40
0.045
309
GRIDFORMAT_END
 95
       16
302
GRIDFORMAT
  1
GRIDFORMAT_BEGIN
 90
        0
 91
        1
 62
     0
 92
       -2
340
14
 93
        0
 40
0.045
309
GRIDFORMAT_END
 95
       32
302
GRIDFORMAT
  1
GRIDFORMAT_BEGIN
 90
        0
 91
        1
 62
     0
 92
       -2
340
14
 93
        0
 40
0.045
309
GRIDFORMAT_END
309
TABLEFORMAT_END
  1
CELLSTYLE_BEGIN
 90
        2
 91
        1
300
_HEADER
309
CELLSTYLE_END
300
CELLSTYLE
  1
TABLEFORMAT_BEGIN
 90
        5
170
     1
 91
        0
 92
        0
 62
   257
 93
        1
300
CONTENTFORMAT
  1
CONTENTFORMAT_BEGIN
 90
        0
 91
        0
 92
        4
 93
        0
300

 40
0.0
140
1.0
 94
        2
 62
     0
340
11
144
0.18
309
CONTENTFORMAT_END
171
     1
301
MARGIN
  1
CELLMARGIN_BEGIN
 40
0.06
 40
0.06
 40
0.06
 40
0.06
 40
0.06
 40
0.06
309
CELLMARGIN_END
 94
        6
 95
        1
302
GRIDFORMAT
  1
GRIDFORMAT_BEGIN
 90
        0
 91
        1
 62
     0
 92
       -2
340
14
 93
        0
 40
0.045
309
GRIDFORMAT_END
 95
        2
302
GRIDFORMAT
  1
GRIDFORMAT_BEGIN
 90
        0
 91
        1
 62
     0
 92
       -2
340
14
 93
        0
 40
0.045
309
GRIDFORMAT_END
 95
        4
302
GRIDFORMAT
  1
GRIDFORMAT_BEGIN
 90
        0
 91
        1
 62
     0
 92
       -2
340
14
 93
        0
 40
0.045
309
GRIDFORMAT_END
 95
        8
302
GRIDFORMAT
  1
GRIDFORMAT_BEGIN
 90
        0
 91
        1
 62
     0
 92
       -2
340
14
 93
        0
 40
0.045
309
GRIDFORMAT_END
 95
       16
302
GRIDFORMAT
  1
GRIDFORMAT_BEGIN
 90
        0
 91
        1
 62
     0
 92
       -2
340
14
 93
        0
 40
0.045
309
GRIDFORMAT_END
 95
       32
302
GRIDFORMAT
  1
GRIDFORMAT_BEGIN
 90
        0
 91
        1
 62
     0
 92
       -2
340
14
 93
        0
 40
0.045
309
GRIDFORMAT_END
309
TABLEFORMAT_END
  1
CELLSTYLE_BEGIN
 90
        3
 91
        2
300
_DATA
309
CELLSTYLE_END
  0
ENDSEC
  0
EOF
