  0
SECTION
  2
HEADER
  9
$ACADVER
  1
AC1024
  9
$ACADMAINTVER
 70
     6
  9
$DWGCODEPAGE
  3
ANSI_1252
  9
$INSBASE
 10
0.0
 20
0.0
 30
0.0
  9
$EXTMIN
 10
0.0
 20
0.0
 30
0.0
  9
$EXTMAX
 10
237.5
 20
237.5
 30
2.0
  9
$LIMMIN
 10
0.0
 20
0.0
  9
$LIMMAX
 10
420.0
 20
297.0
  9
$ORTHOMODE
 70
     0
  9
$REGENMODE
 70
     1
  9
$FILLMODE
 70
     1
  9
$QTEXTMODE
 70
     0
  9
$MIRRTEXT
 70
     1
  9
$LTSCALE
 40
1.0
  9
$ATTMODE
 70
     1
  9
$TEXTSIZE
 40
2.5
  9
$TRACEWID
 40
1.0
  9
$TEXTSTYLE
  7
Standard
  9
$CLAYER
  8
0
  9
$CELTYPE
  6
ByLayer
  9
$CECOLOR
 62
   256
  9
$CELTSCALE
 40
1.0
  9
$DISPSILH
 70
     0
  9
$DIMSCALE
 40
1.0
  9
$DIMASZ
 40
2.5
  9
$DIMEXO
 40
0.625
  9
$DIMDLI
 40
3.75
  9
$DIMRND
 40
0.0
  9
$DIMDLE
 40
0.0
  9
$DIMEXE
 40
1.25
  9
$DIMTP
 40
0.0
  9
$DIMTM
 40
0.0
  9
$DIMTXT
 40
2.5
  9
$DIMCEN
 40
2.5
  9
$DIMTSZ
 40
0.0
  9
$DIMTOL
 70
     0
  9
$DIMLIM
 70
     0
  9
$DIMTIH
 70
     0
  9
$DIMTOH
 70
     0
  9
$DIMSE1
 70
     0
  9
$DIMSE2
 70
     0
  9
$DIMTAD
 70
     1
  9
$DIMZIN
 70
     8
  9
$DIMBLK
  1

  9
$DIMASO
 70
     1
  9
$DIMSHO
 70
     1
  9
$DIMPOST
  1

  9
$DIMAPOST
  1

  9
$DIMALT
 70
     0
  9
$DIMALTD
 70
     3
  9
$DIMALTF
 40
0.03937
  9
$DIMLFAC
 40
1.0
  9
$DIMTOFL
 70
     1
  9
$DIMTVP
 40
0.0
  9
$DIMTIX
 70
     0
  9
$DIMSOXD
 70
     0
  9
$DIMSAH
 70
     0
  9
$DIMBLK1
  1

  9
$DIMBLK2
  1

  9
$DIMSTYLE
  2
Standard
  9
$DIMCLRD
 70
     0
  9
$DIMCLRE
 70
     0
  9
$DIMCLRT
 70
     0
  9
$DIMTFAC
 40
1.0
  9
$DIMGAP
 40
0.625
  9
$DIMJUST
 70
     0
  9
$DIMSD1
 70
     0
  9
$DIMSD2
 70
     0
  9
$DIMTOLJ
 70
     0
  9
$DIMTZIN
 70
     8
  9
$DIMALTZ
 70
     0
  9
$DIMALTTZ
 70
     0
  9
$DIMUPT
 70
     0
  9
$DIMDEC
 70
     2
  9
$DIMTDEC
 70
     2
  9
$DIMALTU
 70
     2
  9
$DIMALTTD
 70
     3
  9
$DIMTXSTY
  7
Standard
  9
$DIMAUNIT
 70
     0
  9
$DIMADEC
 70
     0
  9
$DIMALTRND
 40
0.0
  9
$DIMAZIN
 70
     0
  9
$DIMDSEP
 70
    44
  9
$DIMATFIT
 70
     0
  9
$DIMFRAC
 70
     0
  9
$DIMLDRBLK
  1

  9
$DIMLUNIT
 70
     2
  9
$DIMLWD
 70
    -2
  9
$DIMLWE
 70
    -2
  9
$DIMTMOVE
 70
     0
  9
$DIMFXL
 40
1.0
  9
$DIMFXLON
 70
     0
  9
$DIMJOGANG
 40
0.785398
  9
$DIMTFILL
 70
     0
  9
$DIMTFILLCLR
 70
     0
  9
$DIMARCSYM
 70
     0
  9
$DIMLTYPE
  6

  9
$DIMLTEX1
  6

  9
$DIMLTEX2
  6

  9
$DIMTXTDIRECTION
 70
     0
  9
$LUNITS
 70
     2
  9
$LUPREC
 70
     4
  9
$SKETCHINC
 40
1.0
  9
$FILLETRAD
 40
2.5
  9
$AUNITS
 70
     0
  9
$AUPREC
 70
     0
  9
$MENU
  1
.
  9
$ELEVATION
 40
0.0
  9
$PELEVATION
 40
0.0
  9
$THICKNESS
 40
0.0
  9
$LIMCHECK
 70
     0
  9
$CHAMFERA
 40
2.5
  9
$CHAMFERB
 40
2.5
  9
$CHAMFERC
 40
0.0
  9
$CHAMFERD
 40
0.0
  9
$SKPOLY
 70
     0
  9
$TDCREATE
 40
2447893.083333333
  9
$TDUCREATE
 40
0.0
  9
$TDUPDATE
 40
2458650.404145475
  9
$TDUUPDATE
 40
2458650.320812141
  9
$TDINDWG
 40
0.0
  9
$TDUSRTIMER
 40
0.0
  9
$USRTIMER
 70
     1
  9
$ANGBASE
 50
0.0
  9
$ANGDIR
 70
     0
  9
$PDMODE
 70
     0
  9
$PDSIZE
 40
0.0
  9
$PLINEWID
 40
0.0
  9
$SPLFRAME
 70
     0
  9
$SPLINETYPE
 70
     6
  9
$SPLINESEGS
 70
     8
  9
$HANDSEED
  5
1E4
  9
$SURFTAB1
 70
     6
  9
$SURFTAB2
 70
     6
  9
$SURFTYPE
 70
     6
  9
$SURFU
 70
     6
  9
$SURFV
 70
     6
  9
$UCSBASE
  2

  9
$UCSNAME
  2

  9
$UCSORG
 10
0.0
 20
0.0
 30
0.0
  9
$UCSXDIR
 10
1.0
 20
0.0
 30
0.0
  9
$UCSYDIR
 10
0.0
 20
1.0
 30
0.0
  9
$UCSORTHOREF
  2

  9
$UCSORTHOVIEW
 70
     1
  9
$UCSORGTOP
 10
0.0
 20
0.0
 30
0.0
  9
$UCSORGBOTTOM
 10
0.0
 20
0.0
 30
0.0
  9
$UCSORGLEFT
 10
0.0
 20
0.0
 30
0.0
  9
$UCSORGRIGHT
 10
0.0
 20
0.0
 30
0.0
  9
$UCSORGFRONT
 10
0.0
 20
0.0
 30
0.0
  9
$UCSORGBACK
 10
0.0
 20
0.0
 30
0.0
  9
$PUCSBASE
  2

  9
$PUCSNAME
  2

  9
$PUCSORG
 10
0.0
 20
0.0
 30
0.0
  9
$PUCSXDIR
 10
1.0
 20
0.0
 30
0.0
  9
$PUCSYDIR
 10
0.0
 20
1.0
 30
0.0
  9
$PUCSORTHOREF
  2

  9
$PUCSORTHOVIEW
 70
     0
  9
$PUCSORGTOP
 10
0.0
 20
0.0
 30
0.0
  9
$PUCSORGBOTTOM
 10
0.0
 20
0.0
 30
0.0
  9
$PUCSORGLEFT
 10
0.0
 20
0.0
 30
0.0
  9
$PUCSORGRIGHT
 10
0.0
 20
0.0
 30
0.0
  9
$PUCSORGFRONT
 10
0.0
 20
0.0
 30
0.0
  9
$PUCSORGBACK
 10
0.0
 20
0.0
 30
0.0
  9
$USERI1
 70
     0
  9
$USERI2
 70
     0
  9
$USERI3
 70
     0
  9
$USERI4
 70
     0
  9
$USERI5
 70
     0
  9
$USERR1
 40
0.0
  9
$USERR2
 40
0.0
  9
$USERR3
 40
0.0
  9
$USERR4
 40
0.0
  9
$USERR5
 40
0.0
  9
$WORLDVIEW
 70
     1
  9
$SHADEDGE
 70
     3
  9
$SHADEDIF
 70
    70
  9
$TILEMODE
 70
     1
  9
$MAXACTVP
 70
    64
  9
$PINSBASE
 10
0.0
 20
0.0
 30
0.0
  9
$PLIMCHECK
 70
     0
  9
$PEXTMIN
 10
0.0
 20
0.0
 30
0.0
  9
$PEXTMAX
 10
237.5
 20
237.5
 30
2.0
  9
$PLIMMIN
 10
0.0
 20
0.0
  9
$PLIMMAX
 10
420.0
 20
297.0
  9
$UNITMODE
 70
     0
  9
$VISRETAIN
 70
     0
  9
$PLINEGEN
 70
     0
  9
$PSLTSCALE
 70
     1
  9
$TREEDEPTH
 70
  3020
  9
$CMLSTYLE
  2
Standard
  9
$CMLJUST
 70
     0
  9
$CMLSCALE
 40
20.0
  9
$PROXYGRAPHICS
 70
     1
  9
$MEASUREMENT
 70
     1
  9
$CELWEIGHT
370
    -1
  9
$ENDCAPS
280
     0
  9
$JOINSTYLE
280
     0
  9
$LWDISPLAY
290
     0
  9
$INSUNITS
 70
     0
  9
$HYPERLINKBASE
  1

  9
$STYLESHEET
  1

  9
$XEDIT
290
     1
  9
$CEPSNTYPE
380
     0
  9
$PSTYLEMODE
290
     0
  9
$FINGERPRINTGUID
  2
{28E2DDA2-A484-47B1-B159-8E0B48E66B89}
  9
$VERSIONGUID
  2
{FAEB1C32-E019-11D5-929B-00C0DF256EC4}
  9
$EXTNAMES
290
     1
  9
$PSVPSCALE
 40
0.0
  9
$OLESTARTUP
290
     0
  9
$SORTENTS
280
     0
  9
$INDEXCTL
280
     0
  9
$HIDETEXT
280
     0
  9
$XCLIPFRAME
280
     0
  9
$HALOGAP
280
     0
  9
$OBSCOLOR
 70
     0
  9
$OBSLTYPE
280
     0
  9
$INTERSECTIONDISPLAY
280
     0
  9
$INTERSECTIONCOLOR
 70
     0
  9
$DIMASSOC
280
     0
  9
$PROJECTNAME
  1

  9
$CAMERADISPLAY
290
     0
  9
$LENSLENGTH
 40
50.0
  9
$CAMERAHEIGHT
 40
0.0
  9
$STEPSPERSEC
 40
2.0
  9
$STEPSIZE
 40
6.0
  9
$3DDWFPREC
 40
2.0
  9
$PSOLWIDTH
 40
0.25
  9
$PSOLHEIGHT
 40
4.0
  9
$LOFTANG1
 40
1.570796
  9
$LOFTANG2
 40
1.570796
  9
$LOFTMAG1
 40
0.0
  9
$LOFTMAG2
 40
0.0
  9
$LOFTPARAM
 70
     7
  9
$LOFTNORMALS
280
     1
  9
$LATITUDE
 40
37.795
  9
$LONGITUDE
 40
-122.394
  9
$NORTHDIRECTION
 40
0.0
  9
$TIMEZONE
 70
 -8000
  9
$LIGHTGLYPHDISPLAY
280
     1
  9
$TILEMODELIGHTSYNCH
280
     1
  9
$CMATERIAL
347
44
  9
$SOLIDHIST
280
     0
  9
$SHOWHIST
280
     1
  9
$DWFFRAME
280
     2
  9
$DGNFRAME
280
     2
  9
$REALWORLDSCALE
290
     1
  9
$INTERFERECOLOR
 62
   256
  9
$CSHADOW
280
     0
  9
$SHADOWPLANELOCATION
 40
0.0
  0
ENDSEC
  0
SECTION
  2
CLASSES
  0
CLASS
  1
ACDBDICTIONARYWDFLT
  2
AcDbDictionaryWithDefault
  3
ObjectDBX Classes
 90
        0
 91
        4
280
     0
281
     0
  0
CLASS
  1
VISUALSTYLE
  2
AcDbVisualStyle
  3
ObjectDBX Classes
 90
     4095
 91
        4
280
     0
281
     0
  0
CLASS
  1
MATERIAL
  2
AcDbMaterial
  3
ObjectDBX Classes
 90
     1153
 91
        4
280
     0
281
     0
  0
CLASS
  1
SCALE
  2
AcDbScale
  3
ObjectDBX Classes
 90
     1153
 91
        4
280
     0
281
     0
  0
CLASS
  1
TABLESTYLE
  2
AcDbTableStyle
  3
ObjectDBX Classes
 90
     4095
 91
        4
280
     0
281
     0
  0
CLASS
  1
MLEADERSTYLE
  2
AcDbMLeaderStyle
  3
ACDB_MLEADERSTYLE_CLASS
 90
     4095
 91
        4
280
     0
281
     0
  0
CLASS
  1
SUN
  2
AcDbSun
  3
SCENEOE
 90
     1153
 91
        4
280
     0
281
     0
  0
CLASS
  1
DICTIONARYVAR
  2
AcDbDictionaryVar
  3
ObjectDBX Classes
 90
        0
 91
        4
280
     0
281
     0
  0
CLASS
  1
CELLSTYLEMAP
  2
AcDbCellStyleMap
  3
ObjectDBX Classes
 90
     1152
 91
        4
280
     0
281
     0
  0
ENDSEC
  0
SECTION
  2
TABLES
  0
TABLE
  2
VPORT
  5
8
330
0
100
AcDbSymbolTable
 70
     1
  0
VPORT
  5
29
330
8
100
AcDbSymbolTableRecord
100
AcDbViewportTableRecord
  2
*Active
 70
     0
 10
0.0
 20
0.0
 11
1.0
 21
1.0
 12
10.429907
 22
4.5
 13
0.0
 23
0.0
 14
0.5
 24
0.5
 15
0.5
 25
0.5
 16
0.0
 26
0.0
 36
1.0
 17
0.0
 27
0.0
 37
0.0
 40
9.0
 41
1.972973
 42
50.0
 43
0.0
 44
0.0
 50
0.0
 51
0.0
 71
     0
 72
   100
 73
     1
 74
     3
 75
     0
 76
     0
 77
     0
 78
     0
281
     0
 65
     1
110
0.0
120
0.0
130
0.0
111
1.0
121
0.0
131
0.0
112
0.0
122
1.0
132
0.0
 79
     0
146
0.0
348
2F
 60
     3
 61
     5
292
     1
282
     1
141
0.0
142
0.0
 63
   250
361
6D
  0
ENDTAB
  0
TABLE
  2
LTYPE
  5
5
330
0
100
AcDbSymbolTable
 70
     1
  0
LTYPE
  5
14
330
5
100
AcDbSymbolTableRecord
100
AcDbLinetypeTableRecord
  2
ByBlock
 70
     0
  3

 72
    65
 73
     0
 40
0.0
  0
LTYPE
  5
15
330
5
100
AcDbSymbolTableRecord
100
AcDbLinetypeTableRecord
  2
ByLayer
 70
     0
  3

 72
    65
 73
     0
 40
0.0
  0
LTYPE
  5
16
330
5
100
AcDbSymbolTableRecord
100
AcDbLinetypeTableRecord
  2
Continuous
 70
     0
  3
Solid line
 72
    65
 73
     0
 40
0.0
  0
ENDTAB
  0
TABLE
  2
LAYER
  5
2
330
0
100
AcDbSymbolTable
 70
     1
  0
LAYER
  5
10
330
2
100
AcDbSymbolTableRecord
100
AcDbLayerTableRecord
  2
0
 70
     0
 62
     7
  6
Continuous
370
    -3
390
F
347
46
  0
ENDTAB
  0
TABLE
  2
STYLE
  5
3
330
0
100
AcDbSymbolTable
 70
     1
  0
STYLE
  5
11
330
3
100
AcDbSymbolTableRecord
100
AcDbTextStyleTableRecord
  2
Standard
 70
     0
 40
0.0
 41
1.0
 50
0.0
 71
     0
 42
2.5
  3
txt
  4

  0
ENDTAB
  0
TABLE
  2
VIEW
  5
6
330
0
100
AcDbSymbolTable
 70
     0
  0
ENDTAB
  0
TABLE
  2
UCS
  5
7
330
0
100
AcDbSymbolTable
 70
     0
  0
ENDTAB
  0
TABLE
  2
APPID
  5
9
330
0
100
AcDbSymbolTable
 70
     1
  0
APPID
  5
12
330
9
100
AcDbSymbolTableRecord
100
AcDbRegAppTableRecord
  2
ACAD
 70
     0
  0
ENDTAB
  0
TABLE
  2
DIMSTYLE
  5
A
330
0
100
AcDbSymbolTable
 70
     1
100
AcDbDimStyleTable
  0
DIMSTYLE
105
27
330
A
100
AcDbSymbolTableRecord
100
AcDbDimStyleTableRecord
  2
Standard
 70
     0
178
     0
340
11
  0
ENDTAB
  0
TABLE
  2
BLOCK_RECORD
  5
1
330
0
100
AcDbSymbolTable
 70
     1
  0
BLOCK_RECORD
  5
1F
330
1
100
AcDbSymbolTableRecord
100
AcDbBlockTableRecord
  2
*Model_Space
340
22
 70
     0
280
     1
281
     0
  0
BLOCK_RECORD
  5
1B
330
1
100
AcDbSymbolTableRecord
100
AcDbBlockTableRecord
  2
*Paper_Space
340
1E
 70
     0
280
     1
281
     0
  0
BLOCK_RECORD
  5
23
330
1
100
AcDbSymbolTableRecord
100
AcDbBlockTableRecord
  2
*Paper_Space0
340
26
 70
     0
280
     1
281
     0
  0
ENDTAB
  0
ENDSEC
  0
SECTION
  2
BLOCKS
  0
BLOCK
  5
20
330
1F
100
AcDbEntity
  8
0
100
AcDbBlockBegin
  2
*Model_Space
 70
     0
 10
0.0
 20
0.0
 30
0.0
  3
*Model_Space
  1

  0
ENDBLK
  5
21
330
1F
100
AcDbEntity
  8
0
100
AcDbBlockEnd
  0
BLOCK
  5
1C
330
1B
100
AcDbEntity
 67
     1
  8
0
100
AcDbBlockBegin
  2
*Paper_Space
 70
     0
 10
0.0
 20
0.0
 30
0.0
  3
*Paper_Space
  1

  0
ENDBLK
  5
1D
330
1B
100
AcDbEntity
 67
     1
  8
0
100
AcDbBlockEnd
  0
BLOCK
  5
24
330
23
100
AcDbEntity
  8
0
100
AcDbBlockBegin
  2
*Paper_Space0
 70
     0
 10
0.0
 20
0.0
 30
0.0
  3
*Paper_Space0
  1

  0
ENDBLK
  5
25
330
23
100
AcDbEntity
  8
0
100
AcDbBlockEnd
  0
ENDSEC
  0
SECTION
  2
ENTITIES
  0
ARC
  5
6E
330
1F
100
AcDbEntity
  8
0
 62
     1
370
    13
100
AcDbCircle
 10
150.0
 20
150.0
 30
0.0
 40
87.5
100
AcDbArc
 50
210.58897
 51
184.75184
  0
CIRCLE
  5
6F
330
1F
100
AcDbEntity
  8
0
 62
     1
370
    13
100
AcDbCircle
 10
187.5
 20
85.048096
 30
0.0
 40
2.5
  0
CIRCLE
  5
70
330
1F
100
AcDbEntity
  8
0
 62
     1
370
    13
100
AcDbCircle
 10
75.0
 20
150.0
 30
0.0
 40
2.5
  0
CIRCLE
  5
71
330
1F
100
AcDbEntity
  8
0
 62
     1
370
    13
100
AcDbCircle
 10
187.5
 20
214.951904
 30
0.0
 40
2.5
  0
ARC
  5
72
330
1F
100
AcDbEntity
  8
0
 62
     1
370
    13
100
AcDbCircle
 10
77.259018
 20
107.0
 30
0.0
 40
3.000000000000001
100
AcDbArc
 50
90.000003
 51
210.58897
  0
ARC
  5
73
330
1F
100
AcDbEntity
  8
0
 62
     1
370
    13
100
AcDbCircle
 10
65.790443
 20
143.0
 30
0.0
 40
3.0
100
AcDbArc
 50
184.75184
 51
269.999997
  0
LINE
  5
74
330
1F
100
AcDbEntity
  8
0
 62
     1
370
    13
100
AcDbLine
 10
200.0
 20
99.0
 30
0.0
 11
100.0
 21
99.0
 31
0.0
  0
ARC
  5
75
330
1F
100
AcDbEntity
  8
0
 62
     1
370
    13
100
AcDbCircle
 10
200.0
 20
100.0
 30
0.0
 40
1.0
100
AcDbArc
 50
269.999997
 51
360.0
  0
ARC
  5
76
330
1F
100
AcDbEntity
  8
0
 62
     1
370
    13
100
AcDbCircle
 10
100.0
 20
100.0
 30
0.0
 40
1.0
100
AcDbArc
 50
180.000005
 51
269.999997
  0
LINE
  5
77
330
1F
100
AcDbEntity
  8
0
 62
     1
370
    13
100
AcDbLine
 10
201.0
 20
200.0
 30
0.0
 11
201.0
 21
100.0
 31
0.0
  0
ARC
  5
78
330
1F
100
AcDbEntity
  8
0
 62
     1
370
    13
100
AcDbCircle
 10
200.0
 20
200.0
 30
0.0
 40
1.0
100
AcDbArc
 50
0.0
 51
90.000003
  0
LINE
  5
79
330
1F
100
AcDbEntity
  8
0
 62
     1
370
    13
100
AcDbLine
 10
99.0
 20
100.0
 30
0.0
 11
99.0
 21
109.0
 31
0.0
  0
ARC
  5
7A
330
1F
100
AcDbEntity
  8
0
 62
     1
370
    13
100
AcDbCircle
 10
98.0
 20
109.0
 30
0.0
 40
1.0
100
AcDbArc
 50
0.0
 51
90.000003
  0
ARC
  5
7B
330
1F
100
AcDbEntity
  8
0
 62
     1
370
    13
100
AcDbCircle
 10
100.0
 20
200.0
 30
0.0
 40
1.0
100
AcDbArc
 50
90.000003
 51
180.000005
  0
LINE
  5
7C
330
1F
100
AcDbEntity
  8
0
 62
     1
370
    13
100
AcDbLine
 10
77.259018
 20
110.0
 30
0.0
 11
98.0
 21
110.0
 31
0.0
  0
LINE
  5
7D
330
1F
100
AcDbEntity
  8
0
 62
     1
370
    13
100
AcDbLine
 10
99.0
 20
187.0
 30
0.0
 11
99.0
 21
200.0
 31
0.0
  0
ARC
  5
7E
330
1F
100
AcDbEntity
  8
0
 62
     1
370
    13
100
AcDbCircle
 10
98.0
 20
187.0
 30
0.0
 40
1.0
100
AcDbArc
 50
269.999997
 51
360.0
  0
LINE
  5
7F
330
1F
100
AcDbEntity
  8
0
 62
     1
370
    13
100
AcDbLine
 10
86.0
 20
186.0
 30
0.0
 11
98.0
 21
186.0
 31
0.0
  0
ARC
  5
80
330
1F
100
AcDbEntity
  8
0
 62
     1
370
    13
100
AcDbCircle
 10
86.0
 20
185.0
 30
0.0
 40
1.0
100
AcDbArc
 50
90.000003
 51
180.000005
  0
LINE
  5
81
330
1F
100
AcDbEntity
  8
0
 62
     1
370
    13
100
AcDbLine
 10
85.0
 20
141.0
 30
0.0
 11
85.0
 21
185.0
 31
0.0
  0
ARC
  5
82
330
1F
100
AcDbEntity
  8
0
 62
     1
370
    13
100
AcDbCircle
 10
84.0
 20
141.0
 30
0.0
 40
1.0
100
AcDbArc
 50
269.999997
 51
360.0
  0
LINE
  5
83
330
1F
100
AcDbEntity
  8
0
 62
     1
370
    13
100
AcDbLine
 10
65.790443
 20
140.0
 30
0.0
 11
84.0
 21
140.0
 31
0.0
  0
LINE
  5
84
330
1F
100
AcDbEntity
  8
0
 62
     1
370
    13
100
AcDbLine
 10
79.545341
 20
169.589584
 30
0.0
 11
75.566101
 21
169.589584
 31
0.0
  0
LINE
  5
85
330
1F
100
AcDbEntity
  8
0
 62
     1
370
    13
100
AcDbLine
 10
79.66629
 20
169.592255
 30
0.0
 11
79.545341
 21
169.589584
 31
0.0
  0
LINE
  5
86
330
1F
100
AcDbEntity
  8
0
 62
     1
370
    13
100
AcDbLine
 10
75.566101
 20
169.589584
 30
0.0
 11
75.088608
 21
166.875336
 31
0.0
  0
LINE
  5
87
330
1F
100
AcDbEntity
  8
0
 62
     1
370
    13
100
AcDbLine
 10
79.781227
 20
169.600311
 30
0.0
 11
79.66629
 21
169.592255
 31
0.0
  0
LINE
  5
88
330
1F
100
AcDbEntity
  8
0
 62
     1
370
    13
100
AcDbLine
 10
75.088608
 20
166.875336
 30
0.0
 11
75.324669
 21
166.996292
 31
0.0
  0
LINE
  5
89
330
1F
100
AcDbEntity
  8
0
 62
     1
370
    13
100
AcDbLine
 10
79.890144
 20
169.613724
 30
0.0
 11
79.781227
 21
169.600311
 31
0.0
  0
LINE
  5
8A
330
1F
100
AcDbEntity
  8
0
 62
     1
370
    13
100
AcDbLine
 10
75.324669
 20
166.996292
 30
0.0
 11
75.55706
 21
167.104553
 31
0.0
  0
LINE
  5
8B
330
1F
100
AcDbEntity
  8
0
 62
     1
370
    13
100
AcDbLine
 10
79.993011
 20
169.632462
 30
0.0
 11
79.890144
 21
169.613724
 31
0.0
  0
LINE
  5
8C
330
1F
100
AcDbEntity
  8
0
 62
     1
370
    13
100
AcDbLine
 10
75.55706
 20
167.104553
 30
0.0
 11
75.785759
 21
167.200027
 31
0.0
  0
LINE
  5
8D
330
1F
100
AcDbEntity
  8
0
 62
     1
370
    13
100
AcDbLine
 10
80.089836
 20
169.656586
 30
0.0
 11
79.993011
 21
169.632462
 31
0.0
  0
LINE
  5
8E
330
1F
100
AcDbEntity
  8
0
 62
     1
370
    13
100
AcDbLine
 10
75.785759
 20
167.200027
 30
0.0
 11
76.01078
 21
167.282806
 31
0.0
  0
LINE
  5
8F
330
1F
100
AcDbEntity
  8
0
 62
     1
370
    13
100
AcDbLine
 10
80.180641
 20
169.686111
 30
0.0
 11
80.089836
 21
169.656586
 31
0.0
  0
LINE
  5
90
330
1F
100
AcDbEntity
  8
0
 62
     1
370
    13
100
AcDbLine
 10
76.01078
 20
167.282806
 30
0.0
 11
76.232086
 21
167.352844
 31
0.0
  0
LINE
  5
91
330
1F
100
AcDbEntity
  8
0
 62
     1
370
    13
100
AcDbLine
 10
80.265427
 20
169.720932
 30
0.0
 11
80.180641
 21
169.686111
 31
0.0
  0
LINE
  5
92
330
1F
100
AcDbEntity
  8
0
 62
     1
370
    13
100
AcDbLine
 10
76.232086
 20
167.352844
 30
0.0
 11
76.449738
 21
167.410141
 31
0.0
  0
LINE
  5
93
330
1F
100
AcDbEntity
  8
0
 62
     1
370
    13
100
AcDbLine
 10
80.344193
 20
169.761139
 30
0.0
 11
80.265427
 21
169.720932
 31
0.0
  0
LINE
  5
94
330
1F
100
AcDbEntity
  8
0
 62
     1
370
    13
100
AcDbLine
 10
76.449738
 20
167.410141
 30
0.0
 11
76.663681
 21
167.454712
 31
0.0
  0
LINE
  5
95
330
1F
100
AcDbEntity
  8
0
 62
     1
370
    13
100
AcDbLine
 10
80.416893
 20
169.806732
 30
0.0
 11
80.344193
 21
169.761139
 31
0.0
  0
LINE
  5
96
330
1F
100
AcDbEntity
  8
0
 62
     1
370
    13
100
AcDbLine
 10
76.663681
 20
167.454712
 30
0.0
 11
76.87397
 21
167.486542
 31
0.0
  0
LINE
  5
97
330
1F
100
AcDbEntity
  8
0
 62
     1
370
    13
100
AcDbLine
 10
80.483589
 20
169.857666
 30
0.0
 11
80.416893
 21
169.806732
 31
0.0
  0
LINE
  5
98
330
1F
100
AcDbEntity
  8
0
 62
     1
370
    13
100
AcDbLine
 10
76.87397
 20
167.486542
 30
0.0
 11
77.080551
 21
167.505646
 31
0.0
  0
LINE
  5
99
330
1F
100
AcDbEntity
  8
0
 62
     1
370
    13
100
AcDbLine
 10
80.544067
 20
169.912949
 30
0.0
 11
80.483589
 21
169.857666
 31
0.0
  0
LINE
  5
9A
330
1F
100
AcDbEntity
  8
0
 62
     1
370
    13
100
AcDbLine
 10
77.080551
 20
167.505646
 30
0.0
 11
77.283447
 21
167.511993
 31
0.0
  0
LINE
  5
9B
330
1F
100
AcDbEntity
  8
0
 62
     1
370
    13
100
AcDbLine
 10
80.598167
 20
169.971603
 30
0.0
 11
80.544067
 21
169.912949
 31
0.0
  0
LINE
  5
9C
330
1F
100
AcDbEntity
  8
0
 62
     1
370
    13
100
AcDbLine
 10
77.283447
 20
167.511993
 30
0.0
 11
77.44326
 21
167.509003
 31
0.0
  0
LINE
  5
9D
330
1F
100
AcDbEntity
  8
0
 62
     1
370
    13
100
AcDbLine
 10
80.64592
 20
170.033585
 30
0.0
 11
80.598167
 21
169.971603
 31
0.0
  0
LINE
  5
9E
330
1F
100
AcDbEntity
  8
0
 62
     1
370
    13
100
AcDbLine
 10
77.44326
 20
167.509003
 30
0.0
 11
77.600967
 21
167.499924
 31
0.0
  0
LINE
  5
9F
330
1F
100
AcDbEntity
  8
0
 62
     1
370
    13
100
AcDbLine
 10
80.687325
 20
170.098907
 30
0.0
 11
80.64592
 21
170.033585
 31
0.0
  0
LINE
  5
A0
330
1F
100
AcDbEntity
  8
0
 62
     1
370
    13
100
AcDbLine
 10
77.600967
 20
167.499924
 30
0.0
 11
77.756546
 21
167.484863
 31
0.0
  0
LINE
  5
A1
330
1F
100
AcDbEntity
  8
0
 62
     1
370
    13
100
AcDbLine
 10
80.722351
 20
170.167618
 30
0.0
 11
80.687325
 21
170.098907
 31
0.0
  0
LINE
  5
A2
330
1F
100
AcDbEntity
  8
0
 62
     1
370
    13
100
AcDbLine
 10
77.756546
 20
167.484863
 30
0.0
 11
77.910065
 21
167.46376
 31
0.0
  0
LINE
  5
A3
330
1F
100
AcDbEntity
  8
0
 62
     1
370
    13
100
AcDbLine
 10
80.750999
 20
170.23967
 30
0.0
 11
80.722351
 21
170.167618
 31
0.0
  0
LINE
  5
A4
330
1F
100
AcDbEntity
  8
0
 62
     1
370
    13
100
AcDbLine
 10
77.910065
 20
167.46376
 30
0.0
 11
78.061493
 21
167.43663
 31
0.0
  0
LINE
  5
A5
330
1F
100
AcDbEntity
  8
0
 62
     1
370
    13
100
AcDbLine
 10
80.773277
 20
170.315063
 30
0.0
 11
80.750999
 21
170.23967
 31
0.0
  0
LINE
  5
A6
330
1F
100
AcDbEntity
  8
0
 62
     1
370
    13
100
AcDbLine
 10
78.061493
 20
167.43663
 30
0.0
 11
78.210823
 21
167.403442
 31
0.0
  0
LINE
  5
A7
330
1F
100
AcDbEntity
  8
0
 62
     1
370
    13
100
AcDbLine
 10
80.789177
 20
170.393799
 30
0.0
 11
80.773277
 21
170.315063
 31
0.0
  0
LINE
  5
A8
330
1F
100
AcDbEntity
  8
0
 62
     1
370
    13
100
AcDbLine
 10
78.210823
 20
167.403442
 30
0.0
 11
78.35804
 21
167.364243
 31
0.0
  0
LINE
  5
A9
330
1F
100
AcDbEntity
  8
0
 62
     1
370
    13
100
AcDbLine
 10
80.798729
 20
170.475891
 30
0.0
 11
80.789177
 21
170.393799
 31
0.0
  0
LINE
  5
AA
330
1F
100
AcDbEntity
  8
0
 62
     1
370
    13
100
AcDbLine
 10
78.35804
 20
167.364243
 30
0.0
 11
78.503174
 21
167.319
 31
0.0
  0
LINE
  5
AB
330
1F
100
AcDbEntity
  8
0
 62
     1
370
    13
100
AcDbLine
 10
80.801926
 20
170.561371
 30
0.0
 11
80.798729
 21
170.475891
 31
0.0
  0
LINE
  5
AC
330
1F
100
AcDbEntity
  8
0
 62
     1
370
    13
100
AcDbLine
 10
78.503174
 20
167.319
 30
0.0
 11
78.646233
 21
167.267746
 31
0.0
  0
LINE
  5
AD
330
1F
100
AcDbEntity
  8
0
 62
     1
370
    13
100
AcDbLine
 10
80.788849
 20
170.750748
 30
0.0
 11
80.801926
 21
170.561371
 31
0.0
  0
LINE
  5
AE
330
1F
100
AcDbEntity
  8
0
 62
     1
370
    13
100
AcDbLine
 10
78.646233
 20
167.267746
 30
0.0
 11
78.787178
 21
167.210419
 31
0.0
  0
LINE
  5
AF
330
1F
100
AcDbEntity
  8
0
 62
     1
370
    13
100
AcDbLine
 10
80.749657
 20
170.920212
 30
0.0
 11
80.788849
 21
170.750748
 31
0.0
  0
LINE
  5
B0
330
1F
100
AcDbEntity
  8
0
 62
     1
370
    13
100
AcDbLine
 10
78.787178
 20
167.210419
 30
0.0
 11
78.925354
 21
167.147812
 31
0.0
  0
LINE
  5
B1
330
1F
100
AcDbEntity
  8
0
 62
     1
370
    13
100
AcDbLine
 10
80.684303
 20
171.069748
 30
0.0
 11
80.749657
 21
170.920212
 31
0.0
  0
LINE
  5
B2
330
1F
100
AcDbEntity
  8
0
 62
     1
370
    13
100
AcDbLine
 10
78.925354
 20
167.147812
 30
0.0
 11
79.060097
 21
167.080582
 31
0.0
  0
LINE
  5
B3
330
1F
100
AcDbEntity
  8
0
 62
     1
370
    13
100
AcDbLine
 10
80.592812
 20
171.199387
 30
0.0
 11
80.684303
 21
171.069748
 31
0.0
  0
LINE
  5
B4
330
1F
100
AcDbEntity
  8
0
 62
     1
370
    13
100
AcDbLine
 10
79.060097
 20
167.080582
 30
0.0
 11
79.191414
 21
167.008743
 31
0.0
  0
LINE
  5
B5
330
1F
100
AcDbEntity
  8
0
 62
     1
370
    13
100
AcDbLine
 10
80.475204
 20
171.309036
 30
0.0
 11
80.592812
 21
171.199387
 31
0.0
  0
LINE
  5
B6
330
1F
100
AcDbEntity
  8
0
 62
     1
370
    13
100
AcDbLine
 10
79.191414
 20
167.008743
 30
0.0
 11
79.319305
 21
166.932281
 31
0.0
  0
LINE
  5
B7
330
1F
100
AcDbEntity
  8
0
 62
     1
370
    13
100
AcDbLine
 10
80.331444
 20
171.398727
 30
0.0
 11
80.475204
 21
171.309036
 31
0.0
  0
LINE
  5
B8
330
1F
100
AcDbEntity
  8
0
 62
     1
370
    13
100
AcDbLine
 10
79.319305
 20
166.932281
 30
0.0
 11
79.443764
 21
166.851242
 31
0.0
  0
LINE
  5
B9
330
1F
100
AcDbEntity
  8
0
 62
     1
370
    13
100
AcDbLine
 10
80.161568
 20
171.468521
 30
0.0
 11
80.331444
 21
171.398727
 31
0.0
  0
LINE
  5
BA
330
1F
100
AcDbEntity
  8
0
 62
     1
370
    13
100
AcDbLine
 10
79.443764
 20
166.851242
 30
0.0
 11
79.564774
 21
166.765594
 31
0.0
  0
LINE
  5
BB
330
1F
100
AcDbEntity
  8
0
 62
     1
370
    13
100
AcDbLine
 10
79.96553
 20
171.518356
 30
0.0
 11
80.161568
 21
171.468521
 31
0.0
  0
LINE
  5
BC
330
1F
100
AcDbEntity
  8
0
 62
     1
370
    13
100
AcDbLine
 10
79.564774
 20
166.765594
 30
0.0
 11
79.68235
 21
166.675339
 31
0.0
  0
LINE
  5
BD
330
1F
100
AcDbEntity
  8
0
 62
     1
370
    13
100
AcDbLine
 10
79.743355
 20
171.548279
 30
0.0
 11
79.96553
 21
171.518356
 31
0.0
  0
LINE
  5
BE
330
1F
100
AcDbEntity
  8
0
 62
     1
370
    13
100
AcDbLine
 10
79.68235
 20
166.675339
 30
0.0
 11
79.796471
 21
166.580444
 31
0.0
  0
LINE
  5
BF
330
1F
100
AcDbEntity
  8
0
 62
     1
370
    13
100
AcDbLine
 10
79.495071
 20
171.558243
 30
0.0
 11
79.743355
 21
171.548279
 31
0.0
  0
LINE
  5
C0
330
1F
100
AcDbEntity
  8
0
 62
     1
370
    13
100
AcDbLine
 10
79.796471
 20
166.580444
 30
0.0
 11
79.907188
 21
166.480957
 31
0.0
  0
LINE
  5
C1
330
1F
100
AcDbEntity
  8
0
 62
     1
370
    13
100
AcDbLine
 10
75.071838
 20
171.558243
 30
0.0
 11
79.495071
 21
171.558243
 31
0.0
  0
LINE
  5
C2
330
1F
100
AcDbEntity
  8
0
 62
     1
370
    13
100
AcDbLine
 10
79.907188
 20
166.480957
 30
0.0
 11
80.01445
 21
166.376862
 31
0.0
  0
LINE
  5
C3
330
1F
100
AcDbEntity
  8
0
 62
     1
370
    13
100
AcDbLine
 10
74.931786
 20
171.554962
 30
0.0
 11
75.071838
 21
171.558243
 31
0.0
  0
LINE
  5
C4
330
1F
100
AcDbEntity
  8
0
 62
     1
370
    13
100
AcDbLine
 10
80.01445
 20
166.376862
 30
0.0
 11
80.117752
 21
166.268539
 31
0.0
  0
LINE
  5
C5
330
1F
100
AcDbEntity
  8
0
 62
     1
370
    13
100
AcDbLine
 10
74.799728
 20
171.545181
 30
0.0
 11
74.931786
 21
171.554962
 31
0.0
  0
LINE
  5
C6
330
1F
100
AcDbEntity
  8
0
 62
     1
370
    13
100
AcDbLine
 10
80.117752
 20
166.268539
 30
0.0
 11
80.216507
 21
166.156219
 31
0.0
  0
LINE
  5
C7
330
1F
100
AcDbEntity
  8
0
 62
     1
370
    13
100
AcDbLine
 10
74.675751
 20
171.528824
 30
0.0
 11
74.799728
 21
171.545181
 31
0.0
  0
LINE
  5
C8
330
1F
100
AcDbEntity
  8
0
 62
     1
370
    13
100
AcDbLine
 10
80.216507
 20
166.156219
 30
0.0
 11
80.310768
 21
166.040009
 31
0.0
  0
LINE
  5
C9
330
1F
100
AcDbEntity
  8
0
 62
     1
370
    13
100
AcDbLine
 10
74.55983
 20
171.505966
 30
0.0
 11
74.675751
 21
171.528824
 31
0.0
  0
LINE
  5
CA
330
1F
100
AcDbEntity
  8
0
 62
     1
370
    13
100
AcDbLine
 10
80.310768
 20
166.040009
 30
0.0
 11
80.400482
 21
165.9198
 31
0.0
  0
LINE
  5
CB
330
1F
100
AcDbEntity
  8
0
 62
     1
370
    13
100
AcDbLine
 10
74.451927
 20
171.476547
 30
0.0
 11
74.55983
 21
171.505966
 31
0.0
  0
LINE
  5
CC
330
1F
100
AcDbEntity
  8
0
 62
     1
370
    13
100
AcDbLine
 10
80.400482
 20
165.9198
 30
0.0
 11
80.485672
 21
165.795715
 31
0.0
  0
LINE
  5
CD
330
1F
100
AcDbEntity
  8
0
 62
     1
370
    13
100
AcDbLine
 10
74.352058
 20
171.440643
 30
0.0
 11
74.451927
 21
171.476547
 31
0.0
  0
LINE
  5
CE
330
1F
100
AcDbEntity
  8
0
 62
     1
370
    13
100
AcDbLine
 10
80.485672
 20
165.795715
 30
0.0
 11
80.566345
 21
165.667679
 31
0.0
  0
LINE
  5
CF
330
1F
100
AcDbEntity
  8
0
 62
     1
370
    13
100
AcDbLine
 10
74.260262
 20
171.398148
 30
0.0
 11
74.352058
 21
171.440643
 31
0.0
  0
LINE
  5
D0
330
1F
100
AcDbEntity
  8
0
 62
     1
370
    13
100
AcDbLine
 10
80.566345
 20
165.667679
 30
0.0
 11
80.642494
 21
165.535675
 31
0.0
  0
LINE
  5
D1
330
1F
100
AcDbEntity
  8
0
 62
     1
370
    13
100
AcDbLine
 10
74.176468
 20
171.349152
 30
0.0
 11
74.260262
 21
171.398148
 31
0.0
  0
LINE
  5
D2
330
1F
100
AcDbEntity
  8
0
 62
     1
370
    13
100
AcDbLine
 10
80.642494
 20
165.535675
 30
0.0
 11
80.714119
 21
165.39975
 31
0.0
  0
LINE
  5
D3
330
1F
100
AcDbEntity
  8
0
 62
     1
370
    13
100
AcDbLine
 10
74.100746
 20
171.293594
 30
0.0
 11
74.176468
 21
171.349152
 31
0.0
  0
LINE
  5
D4
330
1F
100
AcDbEntity
  8
0
 62
     1
370
    13
100
AcDbLine
 10
80.714119
 20
165.39975
 30
0.0
 11
80.781227
 21
165.259872
 31
0.0
  0
LINE
  5
D5
330
1F
100
AcDbEntity
  8
0
 62
     1
370
    13
100
AcDbLine
 10
74.033058
 20
171.231537
 30
0.0
 11
74.100746
 21
171.293594
 31
0.0
  0
LINE
  5
D6
330
1F
100
AcDbEntity
  8
0
 62
     1
370
    13
100
AcDbLine
 10
80.781227
 20
165.259872
 30
0.0
 11
80.843811
 21
165.116089
 31
0.0
  0
LINE
  5
D7
330
1F
100
AcDbEntity
  8
0
 62
     1
370
    13
100
AcDbLine
 10
73.971382
 20
171.162262
 30
0.0
 11
74.033058
 21
171.231537
 31
0.0
  0
LINE
  5
D8
330
1F
100
AcDbEntity
  8
0
 62
     1
370
    13
100
AcDbLine
 10
80.843811
 20
165.116089
 30
0.0
 11
80.901115
 21
164.969223
 31
0.0
  0
LINE
  5
D9
330
1F
100
AcDbEntity
  8
0
 62
     1
370
    13
100
AcDbLine
 10
73.91375
 20
171.085083
 30
0.0
 11
73.971382
 21
171.162262
 31
0.0
  0
LINE
  5
DA
330
1F
100
AcDbEntity
  8
0
 62
     1
370
    13
100
AcDbLine
 10
80.901115
 20
164.969223
 30
0.0
 11
80.95237
 21
164.820206
 31
0.0
  0
LINE
  5
DB
330
1F
100
AcDbEntity
  8
0
 62
     1
370
    13
100
AcDbLine
 10
73.860161
 20
171.000076
 30
0.0
 11
73.91375
 21
171.085083
 31
0.0
  0
LINE
  5
DC
330
1F
100
AcDbEntity
  8
0
 62
     1
370
    13
100
AcDbLine
 10
80.95237
 20
164.820206
 30
0.0
 11
80.997612
 21
164.668991
 31
0.0
  0
LINE
  5
DD
330
1F
100
AcDbEntity
  8
0
 62
     1
370
    13
100
AcDbLine
 10
73.810555
 20
170.907166
 30
0.0
 11
73.860161
 21
171.000076
 31
0.0
  0
LINE
  5
DE
330
1F
100
AcDbEntity
  8
0
 62
     1
370
    13
100
AcDbLine
 10
80.997612
 20
164.668991
 30
0.0
 11
81.036827
 21
164.51561
 31
0.0
  0
LINE
  5
DF
330
1F
100
AcDbEntity
  8
0
 62
     1
370
    13
100
AcDbLine
 10
73.764984
 20
170.806366
 30
0.0
 11
73.810555
 21
170.907166
 31
0.0
  0
LINE
  5
E0
330
1F
100
AcDbEntity
  8
0
 62
     1
370
    13
100
AcDbLine
 10
81.036827
 20
164.51561
 30
0.0
 11
81.07
 21
164.360031
 31
0.0
  0
LINE
  5
E1
330
1F
100
AcDbEntity
  8
0
 62
     1
370
    13
100
AcDbLine
 10
73.723427
 20
170.697739
 30
0.0
 11
73.764984
 21
170.806366
 31
0.0
  0
LINE
  5
E2
330
1F
100
AcDbEntity
  8
0
 62
     1
370
    13
100
AcDbLine
 10
81.07
 20
164.360031
 30
0.0
 11
81.097153
 21
164.202301
 31
0.0
  0
LINE
  5
E3
330
1F
100
AcDbEntity
  8
0
 62
     1
370
    13
100
AcDbLine
 10
73.68589
 20
170.581207
 30
0.0
 11
73.723427
 21
170.697739
 31
0.0
  0
LINE
  5
E4
330
1F
100
AcDbEntity
  8
0
 62
     1
370
    13
100
AcDbLine
 10
81.097153
 20
164.202301
 30
0.0
 11
81.118233
 21
164.042374
 31
0.0
  0
LINE
  5
E5
330
1F
100
AcDbEntity
  8
0
 62
     1
370
    13
100
AcDbLine
 10
73.65239
 20
170.456818
 30
0.0
 11
73.68589
 21
170.581207
 31
0.0
  0
LINE
  5
E6
330
1F
100
AcDbEntity
  8
0
 62
     1
370
    13
100
AcDbLine
 10
81.118233
 20
164.042374
 30
0.0
 11
81.133324
 21
163.88028
 31
0.0
  0
LINE
  5
E7
330
1F
100
AcDbEntity
  8
0
 62
     1
370
    13
100
AcDbLine
 10
73.622894
 20
170.324539
 30
0.0
 11
73.65239
 21
170.456818
 31
0.0
  0
LINE
  5
E8
330
1F
100
AcDbEntity
  8
0
 62
     1
370
    13
100
AcDbLine
 10
81.133324
 20
163.88028
 30
0.0
 11
81.142365
 21
163.715988
 31
0.0
  0
LINE
  5
E9
330
1F
100
AcDbEntity
  8
0
 62
     1
370
    13
100
AcDbLine
 10
73.59745
 20
170.184387
 30
0.0
 11
73.622894
 21
170.324539
 31
0.0
  0
LINE
  5
EA
330
1F
100
AcDbEntity
  8
0
 62
     1
370
    13
100
AcDbLine
 10
81.142365
 20
163.715988
 30
0.0
 11
81.145386
 21
163.549545
 31
0.0
  0
LINE
  5
EB
330
1F
100
AcDbEntity
  8
0
 62
     1
370
    13
100
AcDbLine
 10
72.893738
 20
166.171631
 30
0.0
 11
73.59745
 21
170.184387
 31
0.0
  0
LINE
  5
EC
330
1F
100
AcDbEntity
  8
0
 62
     1
370
    13
100
AcDbLine
 10
81.145386
 20
163.549545
 30
0.0
 11
81.139954
 21
163.308777
 31
0.0
  0
LINE
  5
ED
330
1F
100
AcDbEntity
  8
0
 62
     1
370
    13
100
AcDbLine
 10
72.876236
 20
166.070923
 30
0.0
 11
72.893738
 21
166.171631
 31
0.0
  0
LINE
  5
EE
330
1F
100
AcDbEntity
  8
0
 62
     1
370
    13
100
AcDbLine
 10
81.139954
 20
163.308777
 30
0.0
 11
81.123619
 21
163.072372
 31
0.0
  0
LINE
  5
EF
330
1F
100
AcDbEntity
  8
0
 62
     1
370
    13
100
AcDbLine
 10
72.860565
 20
165.979965
 30
0.0
 11
72.876236
 21
166.070923
 31
0.0
  0
LINE
  5
F0
330
1F
100
AcDbEntity
  8
0
 62
     1
370
    13
100
AcDbLine
 10
81.123619
 20
163.072372
 30
0.0
 11
81.09639
 21
162.840332
 31
0.0
  0
LINE
  5
F1
330
1F
100
AcDbEntity
  8
0
 62
     1
370
    13
100
AcDbLine
 10
72.846748
 20
165.898712
 30
0.0
 11
72.860565
 21
165.979965
 31
0.0
  0
LINE
  5
F2
330
1F
100
AcDbEntity
  8
0
 62
     1
370
    13
100
AcDbLine
 10
81.09639
 20
162.840332
 30
0.0
 11
81.058266
 21
162.61261
 31
0.0
  0
LINE
  5
F3
330
1F
100
AcDbEntity
  8
0
 62
     1
370
    13
100
AcDbLine
 10
72.834763
 20
165.827179
 30
0.0
 11
72.846748
 21
165.898712
 31
0.0
  0
LINE
  5
F4
330
1F
100
AcDbEntity
  8
0
 62
     1
370
    13
100
AcDbLine
 10
81.058266
 20
162.61261
 30
0.0
 11
81.00927
 21
162.389267
 31
0.0
  0
LINE
  5
F5
330
1F
100
AcDbEntity
  8
0
 62
     1
370
    13
100
AcDbLine
 10
72.824623
 20
165.765335
 30
0.0
 11
72.834763
 21
165.827179
 31
0.0
  0
LINE
  5
F6
330
1F
100
AcDbEntity
  8
0
 62
     1
370
    13
100
AcDbLine
 10
81.00927
 20
162.389267
 30
0.0
 11
80.949348
 21
162.170303
 31
0.0
  0
LINE
  5
F7
330
1F
100
AcDbEntity
  8
0
 62
     1
370
    13
100
AcDbLine
 10
72.816345
 20
165.713211
 30
0.0
 11
72.824623
 21
165.765335
 31
0.0
  0
LINE
  5
F8
330
1F
100
AcDbEntity
  8
0
 62
     1
370
    13
100
AcDbLine
 10
80.949348
 20
162.170303
 30
0.0
 11
80.878586
 21
161.955688
 31
0.0
  0
LINE
  5
F9
330
1F
100
AcDbEntity
  8
0
 62
     1
370
    13
100
AcDbLine
 10
72.809891
 20
165.670853
 30
0.0
 11
72.816345
 21
165.713211
 31
0.0
  0
LINE
  5
FA
330
1F
100
AcDbEntity
  8
0
 62
     1
370
    13
100
AcDbLine
 10
80.878586
 20
161.955688
 30
0.0
 11
80.796898
 21
161.745407
 31
0.0
  0
LINE
  5
FB
330
1F
100
AcDbEntity
  8
0
 62
     1
370
    13
100
AcDbLine
 10
72.805275
 20
165.638153
 30
0.0
 11
72.809891
 21
165.670853
 31
0.0
  0
LINE
  5
FC
330
1F
100
AcDbEntity
  8
0
 62
     1
370
    13
100
AcDbLine
 10
80.796898
 20
161.745407
 30
0.0
 11
80.704315
 21
161.53949
 31
0.0
  0
LINE
  5
FD
330
1F
100
AcDbEntity
  8
0
 62
     1
370
    13
100
AcDbLine
 10
72.80159
 20
165.601959
 30
0.0
 11
72.805275
 21
165.638153
 31
0.0
  0
LINE
  5
FE
330
1F
100
AcDbEntity
  8
0
 62
     1
370
    13
100
AcDbLine
 10
80.704315
 20
161.53949
 30
0.0
 11
80.600861
 21
161.337936
 31
0.0
  0
LINE
  5
FF
330
1F
100
AcDbEntity
  8
0
 62
     1
370
    13
100
AcDbLine
 10
72.804764
 20
165.52739
 30
0.0
 11
72.80159
 21
165.601959
 31
0.0
  0
LINE
  5
100
330
1F
100
AcDbEntity
  8
0
 62
     1
370
    13
100
AcDbLine
 10
80.600861
 20
161.337936
 30
0.0
 11
80.487144
 21
161.142639
 31
0.0
  0
LINE
  5
101
330
1F
100
AcDbEntity
  8
0
 62
     1
370
    13
100
AcDbLine
 10
72.814316
 20
165.454391
 30
0.0
 11
72.804764
 21
165.52739
 31
0.0
  0
LINE
  5
102
330
1F
100
AcDbEntity
  8
0
 62
     1
370
    13
100
AcDbLine
 10
80.487144
 20
161.142639
 30
0.0
 11
80.3638
 21
160.955597
 31
0.0
  0
LINE
  5
103
330
1F
100
AcDbEntity
  8
0
 62
     1
370
    13
100
AcDbLine
 10
72.830238
 20
165.382965
 30
0.0
 11
72.814316
 21
165.454391
 31
0.0
  0
LINE
  5
104
330
1F
100
AcDbEntity
  8
0
 62
     1
370
    13
100
AcDbLine
 10
80.3638
 20
160.955597
 30
0.0
 11
80.230812
 21
160.776733
 31
0.0
  0
LINE
  5
105
330
1F
100
AcDbEntity
  8
0
 62
     1
370
    13
100
AcDbLine
 10
72.852516
 20
165.313141
 30
0.0
 11
72.830238
 21
165.382965
 31
0.0
  0
LINE
  5
106
330
1F
100
AcDbEntity
  8
0
 62
     1
370
    13
100
AcDbLine
 10
80.230812
 20
160.776733
 30
0.0
 11
80.088165
 21
160.606094
 31
0.0
  0
LINE
  5
107
330
1F
100
AcDbEntity
  8
0
 62
     1
370
    13
100
AcDbLine
 10
72.881165
 20
165.244888
 30
0.0
 11
72.852516
 21
165.313141
 31
0.0
  0
LINE
  5
108
330
1F
100
AcDbEntity
  8
0
 62
     1
370
    13
100
AcDbLine
 10
80.088165
 20
160.606094
 30
0.0
 11
79.935913
 21
160.443665
 31
0.0
  0
LINE
  5
109
330
1F
100
AcDbEntity
  8
0
 62
     1
370
    13
100
AcDbLine
 10
72.916191
 20
165.178268
 30
0.0
 11
72.881165
 21
165.244888
 31
0.0
  0
LINE
  5
10A
330
1F
100
AcDbEntity
  8
0
 62
     1
370
    13
100
AcDbLine
 10
79.935913
 20
160.443665
 30
0.0
 11
79.774017
 21
160.289429
 31
0.0
  0
LINE
  5
10B
330
1F
100
AcDbEntity
  8
0
 62
     1
370
    13
100
AcDbLine
 10
72.957573
 20
165.11322
 30
0.0
 11
72.916191
 21
165.178268
 31
0.0
  0
LINE
  5
10C
330
1F
100
AcDbEntity
  8
0
 62
     1
370
    13
100
AcDbLine
 10
79.774017
 20
160.289429
 30
0.0
 11
79.602486
 21
160.143402
 31
0.0
  0
LINE
  5
10D
330
1F
100
AcDbEntity
  8
0
 62
     1
370
    13
100
AcDbLine
 10
73.005325
 20
165.049744
 30
0.0
 11
72.957573
 21
165.11322
 31
0.0
  0
LINE
  5
10E
330
1F
100
AcDbEntity
  8
0
 62
     1
370
    13
100
AcDbLine
 10
79.602486
 20
160.143402
 30
0.0
 11
79.421333
 21
160.005615
 31
0.0
  0
LINE
  5
10F
330
1F
100
AcDbEntity
  8
0
 62
     1
370
    13
100
AcDbLine
 10
73.059448
 20
164.9879
 30
0.0
 11
73.005325
 21
165.049744
 31
0.0
  0
LINE
  5
110
330
1F
100
AcDbEntity
  8
0
 62
     1
370
    13
100
AcDbLine
 10
79.421333
 20
160.005615
 30
0.0
 11
79.23056
 21
159.876022
 31
0.0
  0
LINE
  5
111
330
1F
100
AcDbEntity
  8
0
 62
     1
370
    13
100
AcDbLine
 10
73.119926
 20
164.927612
 30
0.0
 11
73.059448
 21
164.9879
 31
0.0
  0
LINE
  5
112
330
1F
100
AcDbEntity
  8
0
 62
     1
370
    13
100
AcDbLine
 10
79.23056
 20
159.876022
 30
0.0
 11
79.030128
 21
159.754639
 31
0.0
  0
LINE
  5
113
330
1F
100
AcDbEntity
  8
0
 62
     1
370
    13
100
AcDbLine
 10
73.184517
 20
164.871109
 30
0.0
 11
73.119926
 21
164.927612
 31
0.0
  0
LINE
  5
114
330
1F
100
AcDbEntity
  8
0
 62
     1
370
    13
100
AcDbLine
 10
79.030128
 20
159.754639
 30
0.0
 11
78.821747
 21
159.643204
 31
0.0
  0
LINE
  5
115
330
1F
100
AcDbEntity
  8
0
 62
     1
370
    13
100
AcDbLine
 10
73.250938
 20
164.820557
 30
0.0
 11
73.184517
 21
164.871109
 31
0.0
  0
LINE
  5
116
330
1F
100
AcDbEntity
  8
0
 62
     1
370
    13
100
AcDbLine
 10
78.821747
 20
159.643204
 30
0.0
 11
78.607063
 21
159.543533
 31
0.0
  0
LINE
  5
117
330
1F
100
AcDbEntity
  8
0
 62
     1
370
    13
100
AcDbLine
 10
73.319214
 20
164.775925
 30
0.0
 11
73.250938
 21
164.820557
 31
0.0
  0
LINE
  5
118
330
1F
100
AcDbEntity
  8
0
 62
     1
370
    13
100
AcDbLine
 10
78.607063
 20
159.543533
 30
0.0
 11
78.386108
 21
159.455551
 31
0.0
  0
LINE
  5
119
330
1F
100
AcDbEntity
  8
0
 62
     1
370
    13
100
AcDbLine
 10
73.389343
 20
164.737274
 30
0.0
 11
73.319214
 21
164.775925
 31
0.0
  0
LINE
  5
11A
330
1F
100
AcDbEntity
  8
0
 62
     1
370
    13
100
AcDbLine
 10
78.386108
 20
159.455551
 30
0.0
 11
78.158882
 21
159.379318
 31
0.0
  0
LINE
  5
11B
330
1F
100
AcDbEntity
  8
0
 62
     1
370
    13
100
AcDbLine
 10
73.461304
 20
164.704559
 30
0.0
 11
73.389343
 21
164.737274
 31
0.0
  0
LINE
  5
11C
330
1F
100
AcDbEntity
  8
0
 62
     1
370
    13
100
AcDbLine
 10
78.158882
 20
159.379318
 30
0.0
 11
77.925354
 21
159.314804
 31
0.0
  0
LINE
  5
11D
330
1F
100
AcDbEntity
  8
0
 62
     1
370
    13
100
AcDbLine
 10
73.535088
 20
164.677811
 30
0.0
 11
73.461304
 21
164.704559
 31
0.0
  0
LINE
  5
11E
330
1F
100
AcDbEntity
  8
0
 62
     1
370
    13
100
AcDbLine
 10
77.925354
 20
159.314804
 30
0.0
 11
77.685555
 21
159.262024
 31
0.0
  0
LINE
  5
11F
330
1F
100
AcDbEntity
  8
0
 62
     1
370
    13
100
AcDbLine
 10
73.610756
 20
164.656982
 30
0.0
 11
73.535088
 21
164.677811
 31
0.0
  0
LINE
  5
120
330
1F
100
AcDbEntity
  8
0
 62
     1
370
    13
100
AcDbLine
 10
77.685555
 20
159.262024
 30
0.0
 11
77.439476
 21
159.220978
 31
0.0
  0
LINE
  5
121
330
1F
100
AcDbEntity
  8
0
 62
     1
370
    13
100
AcDbLine
 10
73.688248
 20
164.64212
 30
0.0
 11
73.610756
 21
164.656982
 31
0.0
  0
LINE
  5
122
330
1F
100
AcDbEntity
  8
0
 62
     1
370
    13
100
AcDbLine
 10
77.439476
 20
159.220978
 30
0.0
 11
77.187103
 21
159.191666
 31
0.0
  0
LINE
  5
123
330
1F
100
AcDbEntity
  8
0
 62
     1
370
    13
100
AcDbLine
 10
73.767578
 20
164.633179
 30
0.0
 11
73.688248
 21
164.64212
 31
0.0
  0
LINE
  5
124
330
1F
100
AcDbEntity
  8
0
 62
     1
370
    13
100
AcDbLine
 10
77.187103
 20
159.191666
 30
0.0
 11
76.928452
 21
159.174057
 31
0.0
  0
LINE
  5
125
330
1F
100
AcDbEntity
  8
0
 62
     1
370
    13
100
AcDbLine
 10
73.848755
 20
164.630219
 30
0.0
 11
73.767578
 21
164.633179
 31
0.0
  0
LINE
  5
126
330
1F
100
AcDbEntity
  8
0
 62
     1
370
    13
100
AcDbLine
 10
76.928452
 20
159.174057
 30
0.0
 11
76.663528
 21
159.168198
 31
0.0
  0
LINE
  5
127
330
1F
100
AcDbEntity
  8
0
 62
     1
370
    13
100
AcDbLine
 10
73.926201
 20
164.634613
 30
0.0
 11
73.848755
 21
164.630219
 31
0.0
  0
LINE
  5
128
330
1F
100
AcDbEntity
  8
0
 62
     1
370
    13
100
AcDbLine
 10
76.663528
 20
159.168198
 30
0.0
 11
76.36927
 21
159.173737
 31
0.0
  0
LINE
  5
129
330
1F
100
AcDbEntity
  8
0
 62
     1
370
    13
100
AcDbLine
 10
74.007759
 20
164.647812
 30
0.0
 11
73.926201
 21
164.634613
 31
0.0
  0
LINE
  5
12A
330
1F
100
AcDbEntity
  8
0
 62
     1
370
    13
100
AcDbLine
 10
76.36927
 20
159.173737
 30
0.0
 11
76.086342
 21
159.190323
 31
0.0
  0
LINE
  5
12B
330
1F
100
AcDbEntity
  8
0
 62
     1
370
    13
100
AcDbLine
 10
74.093407
 20
164.669785
 30
0.0
 11
74.007759
 21
164.647812
 31
0.0
  0
LINE
  5
12C
330
1F
100
AcDbEntity
  8
0
 62
     1
370
    13
100
AcDbLine
 10
76.086342
 20
159.190323
 30
0.0
 11
75.81469
 21
159.217957
 31
0.0
  0
LINE
  5
12D
330
1F
100
AcDbEntity
  8
0
 62
     1
370
    13
100
AcDbLine
 10
74.183174
 20
164.700577
 30
0.0
 11
74.093407
 21
164.669785
 31
0.0
  0
LINE
  5
12E
330
1F
100
AcDbEntity
  8
0
 62
     1
370
    13
100
AcDbLine
 10
75.81469
 20
159.217957
 30
0.0
 11
75.554367
 21
159.256668
 31
0.0
  0
LINE
  5
12F
330
1F
100
AcDbEntity
  8
0
 62
     1
370
    13
100
AcDbLine
 10
74.277046
 20
164.740173
 30
0.0
 11
74.183174
 21
164.700577
 31
0.0
  0
LINE
  5
130
330
1F
100
AcDbEntity
  8
0
 62
     1
370
    13
100
AcDbLine
 10
75.554367
 20
159.256668
 30
0.0
 11
75.305367
 21
159.306427
 31
0.0
  0
LINE
  5
131
330
1F
100
AcDbEntity
  8
0
 62
     1
370
    13
100
AcDbLine
 10
74.375015
 20
164.788559
 30
0.0
 11
74.277046
 21
164.740173
 31
0.0
  0
LINE
  5
132
330
1F
100
AcDbEntity
  8
0
 62
     1
370
    13
100
AcDbLine
 10
75.305367
 20
159.306427
 30
0.0
 11
75.06765
 21
159.367249
 31
0.0
  0
LINE
  5
133
330
1F
100
AcDbEntity
  8
0
 62
     1
370
    13
100
AcDbLine
 10
74.477097
 20
164.845734
 30
0.0
 11
74.375015
 21
164.788559
 31
0.0
  0
LINE
  5
134
330
1F
100
AcDbEntity
  8
0
 62
     1
370
    13
100
AcDbLine
 10
75.06765
 20
159.367249
 30
0.0
 11
74.841263
 21
159.439117
 31
0.0
  0
LINE
  5
135
330
1F
100
AcDbEntity
  8
0
 62
     1
370
    13
100
AcDbLine
 10
74.583275
 20
164.911697
 30
0.0
 11
74.477097
 21
164.845734
 31
0.0
  0
LINE
  5
136
330
1F
100
AcDbEntity
  8
0
 62
     1
370
    13
100
AcDbLine
 10
74.841263
 20
159.439117
 30
0.0
 11
74.626175
 21
159.522064
 31
0.0
  0
LINE
  5
137
330
1F
100
AcDbEntity
  8
0
 62
     1
370
    13
100
AcDbLine
 10
74.693558
 20
164.98645
 30
0.0
 11
74.583275
 21
164.911697
 31
0.0
  0
LINE
  5
138
330
1F
100
AcDbEntity
  8
0
 62
     1
370
    13
100
AcDbLine
 10
74.626175
 20
159.522064
 30
0.0
 11
74.422386
 21
159.616074
 31
0.0
  0
LINE
  5
139
330
1F
100
AcDbEntity
  8
0
 62
     1
370
    13
100
AcDbLine
 10
74.807961
 20
165.070038
 30
0.0
 11
74.693558
 21
164.98645
 31
0.0
  0
LINE
  5
13A
330
1F
100
AcDbEntity
  8
0
 62
     1
370
    13
100
AcDbLine
 10
74.422386
 20
159.616074
 30
0.0
 11
74.229935
 21
159.7211
 31
0.0
  0
LINE
  5
13B
330
1F
100
AcDbEntity
  8
0
 62
     1
370
    13
100
AcDbLine
 10
74.921677
 20
165.155334
 30
0.0
 11
74.807961
 21
165.070038
 31
0.0
  0
LINE
  5
13C
330
1F
100
AcDbEntity
  8
0
 62
     1
370
    13
100
AcDbLine
 10
74.229935
 20
159.7211
 30
0.0
 11
74.048553
 21
159.833313
 31
0.0
  0
LINE
  5
13D
330
1F
100
AcDbEntity
  8
0
 62
     1
370
    13
100
AcDbLine
 10
75.029953
 20
165.235397
 30
0.0
 11
74.921677
 21
165.155334
 31
0.0
  0
LINE
  5
13E
330
1F
100
AcDbEntity
  8
0
 62
     1
370
    13
100
AcDbLine
 10
74.048553
 20
159.833313
 30
0.0
 11
73.878067
 21
159.948807
 31
0.0
  0
LINE
  5
13F
330
1F
100
AcDbEntity
  8
0
 62
     1
370
    13
100
AcDbLine
 10
75.132774
 20
165.31015
 30
0.0
 11
75.029953
 21
165.235397
 31
0.0
  0
LINE
  5
140
330
1F
100
AcDbEntity
  8
0
 62
     1
370
    13
100
AcDbLine
 10
73.878067
 20
159.948807
 30
0.0
 11
73.718475
 21
160.067566
 31
0.0
  0
LINE
  5
141
330
1F
100
AcDbEntity
  8
0
 62
     1
370
    13
100
AcDbLine
 10
75.230186
 20
165.379639
 30
0.0
 11
75.132774
 21
165.31015
 31
0.0
  0
LINE
  5
142
330
1F
100
AcDbEntity
  8
0
 62
     1
370
    13
100
AcDbLine
 10
73.718475
 20
160.067566
 30
0.0
 11
73.569786
 21
160.18956
 31
0.0
  0
LINE
  5
143
330
1F
100
AcDbEntity
  8
0
 62
     1
370
    13
100
AcDbLine
 10
75.322105
 20
165.443878
 30
0.0
 11
75.230186
 21
165.379639
 31
0.0
  0
LINE
  5
144
330
1F
100
AcDbEntity
  8
0
 62
     1
370
    13
100
AcDbLine
 10
73.569786
 20
160.18956
 30
0.0
 11
73.431992
 21
160.31485
 31
0.0
  0
LINE
  5
145
330
1F
100
AcDbEntity
  8
0
 62
     1
370
    13
100
AcDbLine
 10
75.408615
 20
165.502808
 30
0.0
 11
75.322105
 21
165.443878
 31
0.0
  0
LINE
  5
146
330
1F
100
AcDbEntity
  8
0
 62
     1
370
    13
100
AcDbLine
 10
73.431992
 20
160.31485
 30
0.0
 11
73.305069
 21
160.443405
 31
0.0
  0
LINE
  5
147
330
1F
100
AcDbEntity
  8
0
 62
     1
370
    13
100
AcDbLine
 10
75.489647
 20
165.556442
 30
0.0
 11
75.408615
 21
165.502808
 31
0.0
  0
LINE
  5
148
330
1F
100
AcDbEntity
  8
0
 62
     1
370
    13
100
AcDbLine
 10
73.305069
 20
160.443405
 30
0.0
 11
73.189041
 21
160.575226
 31
0.0
  0
LINE
  5
149
330
1F
100
AcDbEntity
  8
0
 62
     1
370
    13
100
AcDbLine
 10
75.565262
 20
165.604828
 30
0.0
 11
75.489647
 21
165.556442
 31
0.0
  0
LINE
  5
14A
330
1F
100
AcDbEntity
  8
0
 62
     1
370
    13
100
AcDbLine
 10
73.189041
 20
160.575226
 30
0.0
 11
73.083908
 21
160.710312
 31
0.0
  0
LINE
  5
14B
330
1F
100
AcDbEntity
  8
0
 62
     1
370
    13
100
AcDbLine
 10
75.635414
 20
165.647919
 30
0.0
 11
75.565262
 21
165.604828
 31
0.0
  0
LINE
  5
14C
330
1F
100
AcDbEntity
  8
0
 62
     1
370
    13
100
AcDbLine
 10
73.083908
 20
160.710312
 30
0.0
 11
72.989677
 21
160.848663
 31
0.0
  0
LINE
  5
14D
330
1F
100
AcDbEntity
  8
0
 62
     1
370
    13
100
AcDbLine
 10
75.700134
 20
165.68576
 30
0.0
 11
75.635414
 21
165.647919
 31
0.0
  0
LINE
  5
14E
330
1F
100
AcDbEntity
  8
0
 62
     1
370
    13
100
AcDbLine
 10
72.989677
 20
160.848663
 30
0.0
 11
72.906311
 21
160.990295
 31
0.0
  0
LINE
  5
14F
330
1F
100
AcDbEntity
  8
0
 62
     1
370
    13
100
AcDbLine
 10
75.766228
 20
165.719193
 30
0.0
 11
75.700134
 21
165.68576
 31
0.0
  0
LINE
  5
150
330
1F
100
AcDbEntity
  8
0
 62
     1
370
    13
100
AcDbLine
 10
72.906311
 20
160.990295
 30
0.0
 11
72.832298
 21
161.131714
 31
0.0
  0
LINE
  5
151
330
1F
100
AcDbEntity
  8
0
 62
     1
370
    13
100
AcDbLine
 10
75.840546
 20
165.749084
 30
0.0
 11
75.766228
 21
165.719193
 31
0.0
  0
LINE
  5
152
330
1F
100
AcDbEntity
  8
0
 62
     1
370
    13
100
AcDbLine
 10
72.832298
 20
161.131714
 30
0.0
 11
72.766083
 21
161.269592
 31
0.0
  0
LINE
  5
153
330
1F
100
AcDbEntity
  8
0
 62
     1
370
    13
100
AcDbLine
 10
75.923073
 20
165.775467
 30
0.0
 11
75.840546
 21
165.749084
 31
0.0
  0
LINE
  5
154
330
1F
100
AcDbEntity
  8
0
 62
     1
370
    13
100
AcDbLine
 10
72.766083
 20
161.269592
 30
0.0
 11
72.707634
 21
161.403824
 31
0.0
  0
LINE
  5
155
330
1F
100
AcDbEntity
  8
0
 62
     1
370
    13
100
AcDbLine
 10
76.013802
 20
165.798355
 30
0.0
 11
75.923073
 21
165.775467
 31
0.0
  0
LINE
  5
156
330
1F
100
AcDbEntity
  8
0
 62
     1
370
    13
100
AcDbLine
 10
72.707634
 20
161.403824
 30
0.0
 11
72.657013
 21
161.534454
 31
0.0
  0
LINE
  5
157
330
1F
100
AcDbEntity
  8
0
 62
     1
370
    13
100
AcDbLine
 10
76.112732
 20
165.817719
 30
0.0
 11
76.013802
 21
165.798355
 31
0.0
  0
LINE
  5
158
330
1F
100
AcDbEntity
  8
0
 62
     1
370
    13
100
AcDbLine
 10
72.657013
 20
161.534454
 30
0.0
 11
72.614136
 21
161.661514
 31
0.0
  0
LINE
  5
159
330
1F
100
AcDbEntity
  8
0
 62
     1
370
    13
100
AcDbLine
 10
76.219872
 20
165.833511
 30
0.0
 11
76.112732
 21
165.817719
 31
0.0
  0
LINE
  5
15A
330
1F
100
AcDbEntity
  8
0
 62
     1
370
    13
100
AcDbLine
 10
72.614136
 20
161.661514
 30
0.0
 11
72.579086
 21
161.784958
 31
0.0
  0
LINE
  5
15B
330
1F
100
AcDbEntity
  8
0
 62
     1
370
    13
100
AcDbLine
 10
76.335213
 20
165.845856
 30
0.0
 11
76.219872
 21
165.833511
 31
0.0
  0
LINE
  5
15C
330
1F
100
AcDbEntity
  8
0
 62
     1
370
    13
100
AcDbLine
 10
72.579086
 20
161.784958
 30
0.0
 11
72.551804
 21
161.904785
 31
0.0
  0
LINE
  5
15D
330
1F
100
AcDbEntity
  8
0
 62
     1
370
    13
100
AcDbLine
 10
76.458778
 20
165.854645
 30
0.0
 11
76.335213
 21
165.845856
 31
0.0
  0
LINE
  5
15E
330
1F
100
AcDbEntity
  8
0
 62
     1
370
    13
100
AcDbLine
 10
72.551804
 20
161.904785
 30
0.0
 11
72.532349
 21
162.021027
 31
0.0
  0
LINE
  5
15F
330
1F
100
AcDbEntity
  8
0
 62
     1
370
    13
100
AcDbLine
 10
76.590553
 20
165.859924
 30
0.0
 11
76.458778
 21
165.854645
 31
0.0
  0
LINE
  5
160
330
1F
100
AcDbEntity
  8
0
 62
     1
370
    13
100
AcDbLine
 10
72.532349
 20
162.021027
 30
0.0
 11
72.520668
 21
162.133652
 31
0.0
  0
LINE
  5
161
330
1F
100
AcDbEntity
  8
0
 62
     1
370
    13
100
AcDbLine
 10
76.730537
 20
165.861679
 30
0.0
 11
76.590553
 21
165.859924
 31
0.0
  0
LINE
  5
162
330
1F
100
AcDbEntity
  8
0
 62
     1
370
    13
100
AcDbLine
 10
72.520668
 20
162.133652
 30
0.0
 11
72.516754
 21
162.242691
 31
0.0
  0
LINE
  5
163
330
1F
100
AcDbEntity
  8
0
 62
     1
370
    13
100
AcDbLine
 10
76.846741
 20
165.858887
 30
0.0
 11
76.730537
 21
165.861679
 31
0.0
  0
LINE
  5
164
330
1F
100
AcDbEntity
  8
0
 62
     1
370
    13
100
AcDbLine
 10
72.516754
 20
162.242691
 30
0.0
 11
72.519493
 21
162.307693
 31
0.0
  0
LINE
  5
165
330
1F
100
AcDbEntity
  8
0
 62
     1
370
    13
100
AcDbLine
 10
76.960762
 20
165.850449
 30
0.0
 11
76.846741
 21
165.858887
 31
0.0
  0
LINE
  5
166
330
1F
100
AcDbEntity
  8
0
 62
     1
370
    13
100
AcDbLine
 10
72.519493
 20
162.307693
 30
0.0
 11
72.527649
 21
162.372025
 31
0.0
  0
LINE
  5
167
330
1F
100
AcDbEntity
  8
0
 62
     1
370
    13
100
AcDbLine
 10
77.072601
 20
165.836426
 30
0.0
 11
76.960762
 21
165.850449
 31
0.0
  0
LINE
  5
168
330
1F
100
AcDbEntity
  8
0
 62
     1
370
    13
100
AcDbLine
 10
72.527649
 20
162.372025
 30
0.0
 11
72.541267
 21
162.435699
 31
0.0
  0
LINE
  5
169
330
1F
100
AcDbEntity
  8
0
 62
     1
370
    13
100
AcDbLine
 10
77.182251
 20
165.816772
 30
0.0
 11
77.072601
 21
165.836426
 31
0.0
  0
LINE
  5
16A
330
1F
100
AcDbEntity
  8
0
 62
     1
370
    13
100
AcDbLine
 10
72.541267
 20
162.435699
 30
0.0
 11
72.56031
 21
162.498688
 31
0.0
  0
LINE
  5
16B
330
1F
100
AcDbEntity
  8
0
 62
     1
370
    13
100
AcDbLine
 10
77.289742
 20
165.791519
 30
0.0
 11
77.182251
 21
165.816772
 31
0.0
  0
LINE
  5
16C
330
1F
100
AcDbEntity
  8
0
 62
     1
370
    13
100
AcDbLine
 10
72.56031
 20
162.498688
 30
0.0
 11
72.584824
 21
162.56102
 31
0.0
  0
LINE
  5
16D
330
1F
100
AcDbEntity
  8
0
 62
     1
370
    13
100
AcDbLine
 10
77.39505
 20
165.760666
 30
0.0
 11
77.289742
 21
165.791519
 31
0.0
  0
LINE
  5
16E
330
1F
100
AcDbEntity
  8
0
 62
     1
370
    13
100
AcDbLine
 10
72.584824
 20
162.56102
 30
0.0
 11
72.614769
 21
162.622665
 31
0.0
  0
LINE
  5
16F
330
1F
100
AcDbEntity
  8
0
 62
     1
370
    13
100
AcDbLine
 10
77.498146
 20
165.724167
 30
0.0
 11
77.39505
 21
165.760666
 31
0.0
  0
LINE
  5
170
330
1F
100
AcDbEntity
  8
0
 62
     1
370
    13
100
AcDbLine
 10
72.614769
 20
162.622665
 30
0.0
 11
72.650177
 21
162.683655
 31
0.0
  0
LINE
  5
171
330
1F
100
AcDbEntity
  8
0
 62
     1
370
    13
100
AcDbLine
 10
77.599113
 20
165.682083
 30
0.0
 11
77.498146
 21
165.724167
 31
0.0
  0
LINE
  5
172
330
1F
100
AcDbEntity
  8
0
 62
     1
370
    13
100
AcDbLine
 10
72.650177
 20
162.683655
 30
0.0
 11
72.690994
 21
162.743988
 31
0.0
  0
LINE
  5
173
330
1F
100
AcDbEntity
  8
0
 62
     1
370
    13
100
AcDbLine
 10
77.697868
 20
165.634354
 30
0.0
 11
77.599113
 21
165.682083
 31
0.0
  0
LINE
  5
174
330
1F
100
AcDbEntity
  8
0
 62
     1
370
    13
100
AcDbLine
 10
72.690994
 20
162.743988
 30
0.0
 11
72.737297
 21
162.803619
 31
0.0
  0
LINE
  5
175
330
1F
100
AcDbEntity
  8
0
 62
     1
370
    13
100
AcDbLine
 10
77.794464
 20
165.581039
 30
0.0
 11
77.697868
 21
165.634354
 31
0.0
  0
LINE
  5
176
330
1F
100
AcDbEntity
  8
0
 62
     1
370
    13
100
AcDbLine
 10
72.737297
 20
162.803619
 30
0.0
 11
72.789017
 21
162.862595
 31
0.0
  0
LINE
  5
177
330
1F
100
AcDbEntity
  8
0
 62
     1
370
    13
100
AcDbLine
 10
77.888039
 20
165.522003
 30
0.0
 11
77.794464
 21
165.581039
 31
0.0
  0
LINE
  5
178
330
1F
100
AcDbEntity
  8
0
 62
     1
370
    13
100
AcDbLine
 10
72.789017
 20
162.862595
 30
0.0
 11
72.844872
 21
162.918335
 31
0.0
  0
LINE
  5
179
330
1F
100
AcDbEntity
  8
0
 62
     1
370
    13
100
AcDbLine
 10
77.977753
 20
165.457214
 30
0.0
 11
77.888039
 21
165.522003
 31
0.0
  0
LINE
  5
17A
330
1F
100
AcDbEntity
  8
0
 62
     1
370
    13
100
AcDbLine
 10
72.844872
 20
162.918335
 30
0.0
 11
72.903465
 21
162.96814
 31
0.0
  0
LINE
  5
17B
330
1F
100
AcDbEntity
  8
0
 62
     1
370
    13
100
AcDbLine
 10
78.063629
 20
165.386642
 30
0.0
 11
77.977753
 21
165.457214
 31
0.0
  0
LINE
  5
17C
330
1F
100
AcDbEntity
  8
0
 62
     1
370
    13
100
AcDbLine
 10
72.903465
 20
162.96814
 30
0.0
 11
72.964836
 21
163.012131
 31
0.0
  0
LINE
  5
17D
330
1F
100
AcDbEntity
  8
0
 62
     1
370
    13
100
AcDbLine
 10
78.145645
 20
165.310272
 30
0.0
 11
78.063629
 21
165.386642
 31
0.0
  0
LINE
  5
17E
330
1F
100
AcDbEntity
  8
0
 62
     1
370
    13
100
AcDbLine
 10
72.964836
 20
163.012131
 30
0.0
 11
73.028946
 21
163.050262
 31
0.0
  0
LINE
  5
17F
330
1F
100
AcDbEntity
  8
0
 62
     1
370
    13
100
AcDbLine
 10
78.223801
 20
165.228149
 30
0.0
 11
78.145645
 21
165.310272
 31
0.0
  0
LINE
  5
180
330
1F
100
AcDbEntity
  8
0
 62
     1
370
    13
100
AcDbLine
 10
73.028946
 20
163.050262
 30
0.0
 11
73.095848
 21
163.08252
 31
0.0
  0
LINE
  5
181
330
1F
100
AcDbEntity
  8
0
 62
     1
370
    13
100
AcDbLine
 10
78.298096
 20
165.140213
 30
0.0
 11
78.223801
 21
165.228149
 31
0.0
  0
LINE
  5
182
330
1F
100
AcDbEntity
  8
0
 62
     1
370
    13
100
AcDbLine
 10
73.095848
 20
163.08252
 30
0.0
 11
73.165497
 21
163.108902
 31
0.0
  0
LINE
  5
183
330
1F
100
AcDbEntity
  8
0
 62
     1
370
    13
100
AcDbLine
 10
78.368561
 20
165.046524
 30
0.0
 11
78.298096
 21
165.140213
 31
0.0
  0
LINE
  5
184
330
1F
100
AcDbEntity
  8
0
 62
     1
370
    13
100
AcDbLine
 10
73.165497
 20
163.108902
 30
0.0
 11
73.237938
 21
163.129425
 31
0.0
  0
LINE
  5
185
330
1F
100
AcDbEntity
  8
0
 62
     1
370
    13
100
AcDbLine
 10
78.435158
 20
164.947052
 30
0.0
 11
78.368561
 21
165.046524
 31
0.0
  0
LINE
  5
186
330
1F
100
AcDbEntity
  8
0
 62
     1
370
    13
100
AcDbLine
 10
73.237938
 20
163.129425
 30
0.0
 11
73.313118
 21
163.144089
 31
0.0
  0
LINE
  5
187
330
1F
100
AcDbEntity
  8
0
 62
     1
370
    13
100
AcDbLine
 10
78.497917
 20
164.841797
 30
0.0
 11
78.435158
 21
164.947052
 31
0.0
  0
LINE
  5
188
330
1F
100
AcDbEntity
  8
0
 62
     1
370
    13
100
AcDbLine
 10
73.313118
 20
163.144089
 30
0.0
 11
73.391075
 21
163.152878
 31
0.0
  0
LINE
  5
189
330
1F
100
AcDbEntity
  8
0
 62
     1
370
    13
100
AcDbLine
 10
78.556793
 20
164.730713
 30
0.0
 11
78.497917
 21
164.841797
 31
0.0
  0
LINE
  5
18A
330
1F
100
AcDbEntity
  8
0
 62
     1
370
    13
100
AcDbLine
 10
73.391075
 20
163.152878
 30
0.0
 11
73.471764
 21
163.155792
 31
0.0
  0
LINE
  5
18B
330
1F
100
AcDbEntity
  8
0
 62
     1
370
    13
100
AcDbLine
 10
78.610924
 20
164.614471
 30
0.0
 11
78.556793
 21
164.730713
 31
0.0
  0
LINE
  5
18C
330
1F
100
AcDbEntity
  8
0
 62
     1
370
    13
100
AcDbLine
 10
73.471764
 20
163.155792
 30
0.0
 11
73.608925
 21
163.14769
 31
0.0
  0
LINE
  5
18D
330
1F
100
AcDbEntity
  8
0
 62
     1
370
    13
100
AcDbLine
 10
78.65934
 20
164.493484
 30
0.0
 11
78.610924
 21
164.614471
 31
0.0
  0
LINE
  5
18E
330
1F
100
AcDbEntity
  8
0
 62
     1
370
    13
100
AcDbLine
 10
73.608925
 20
163.14769
 30
0.0
 11
73.738846
 21
163.123306
 31
0.0
  0
LINE
  5
18F
330
1F
100
AcDbEntity
  8
0
 62
     1
370
    13
100
AcDbLine
 10
78.702057
 20
164.367828
 30
0.0
 11
78.65934
 21
164.493484
 31
0.0
  0
LINE
  5
190
330
1F
100
AcDbEntity
  8
0
 62
     1
370
    13
100
AcDbLine
 10
73.738846
 20
163.123306
 30
0.0
 11
73.86158
 21
163.082672
 31
0.0
  0
LINE
  5
191
330
1F
100
AcDbEntity
  8
0
 62
     1
370
    13
100
AcDbLine
 10
78.73909
 20
164.237503
 30
0.0
 11
78.702057
 21
164.367828
 31
0.0
  0
LINE
  5
192
330
1F
100
AcDbEntity
  8
0
 62
     1
370
    13
100
AcDbLine
 10
73.86158
 20
163.082672
 30
0.0
 11
73.977097
 21
163.025787
 31
0.0
  0
LINE
  5
193
330
1F
100
AcDbEntity
  8
0
 62
     1
370
    13
100
AcDbLine
 10
78.770409
 20
164.102448
 30
0.0
 11
78.73909
 21
164.237503
 31
0.0
  0
LINE
  5
194
330
1F
100
AcDbEntity
  8
0
 62
     1
370
    13
100
AcDbLine
 10
73.977097
 20
163.025787
 30
0.0
 11
74.085403
 21
162.952667
 31
0.0
  0
LINE
  5
195
330
1F
100
AcDbEntity
  8
0
 62
     1
370
    13
100
AcDbLine
 10
78.796066
 20
163.962708
 30
0.0
 11
78.770409
 21
164.102448
 31
0.0
  0
LINE
  5
196
330
1F
100
AcDbEntity
  8
0
 62
     1
370
    13
100
AcDbLine
 10
74.085403
 20
162.952667
 30
0.0
 11
74.186523
 21
162.863281
 31
0.0
  0
LINE
  5
197
330
1F
100
AcDbEntity
  8
0
 62
     1
370
    13
100
AcDbLine
 10
78.816002
 20
163.818268
 30
0.0
 11
78.796066
 21
163.962708
 31
0.0
  0
LINE
  5
198
330
1F
100
AcDbEntity
  8
0
 62
     1
370
    13
100
AcDbLine
 10
74.186523
 20
162.863281
 30
0.0
 11
74.280449
 21
162.757645
 31
0.0
  0
LINE
  5
199
330
1F
100
AcDbEntity
  8
0
 62
     1
370
    13
100
AcDbLine
 10
78.830231
 20
163.669174
 30
0.0
 11
78.816002
 21
163.818268
 31
0.0
  0
LINE
  5
19A
330
1F
100
AcDbEntity
  8
0
 62
     1
370
    13
100
AcDbLine
 10
74.280449
 20
162.757645
 30
0.0
 11
74.367142
 21
162.635757
 31
0.0
  0
LINE
  5
19B
330
1F
100
AcDbEntity
  8
0
 62
     1
370
    13
100
AcDbLine
 10
78.838791
 20
163.515381
 30
0.0
 11
78.830231
 21
163.669174
 31
0.0
  0
LINE
  5
19C
330
1F
100
AcDbEntity
  8
0
 62
     1
370
    13
100
AcDbLine
 10
74.367142
 20
162.635757
 30
0.0
 11
74.446648
 21
162.497604
 31
0.0
  0
LINE
  5
19D
330
1F
100
AcDbEntity
  8
0
 62
     1
370
    13
100
AcDbLine
 10
78.841629
 20
163.356857
 30
0.0
 11
78.838791
 21
163.515381
 31
0.0
  0
LINE
  5
19E
330
1F
100
AcDbEntity
  8
0
 62
     1
370
    13
100
AcDbLine
 10
74.446648
 20
162.497604
 30
0.0
 11
74.518936
 21
162.343201
 31
0.0
  0
LINE
  5
19F
330
1F
100
AcDbEntity
  8
0
 62
     1
370
    13
100
AcDbLine
 10
78.838989
 20
163.209335
 30
0.0
 11
78.841629
 21
163.356857
 31
0.0
  0
LINE
  5
1A0
330
1F
100
AcDbEntity
  8
0
 62
     1
370
    13
100
AcDbLine
 10
74.518936
 20
162.343201
 30
0.0
 11
74.588303
 21
162.197403
 31
0.0
  0
LINE
  5
1A1
330
1F
100
AcDbEntity
  8
0
 62
     1
370
    13
100
AcDbLine
 10
78.831062
 20
163.064987
 30
0.0
 11
78.838989
 21
163.209335
 31
0.0
  0
LINE
  5
1A2
330
1F
100
AcDbEntity
  8
0
 62
     1
370
    13
100
AcDbLine
 10
74.588303
 20
162.197403
 30
0.0
 11
74.662369
 21
162.058212
 31
0.0
  0
LINE
  5
1A3
330
1F
100
AcDbEntity
  8
0
 62
     1
370
    13
100
AcDbLine
 10
78.817886
 20
162.923843
 30
0.0
 11
78.831062
 21
163.064987
 31
0.0
  0
LINE
  5
1A4
330
1F
100
AcDbEntity
  8
0
 62
     1
370
    13
100
AcDbLine
 10
74.662369
 20
162.058212
 30
0.0
 11
74.741104
 21
161.925644
 31
0.0
  0
LINE
  5
1A5
330
1F
100
AcDbEntity
  8
0
 62
     1
370
    13
100
AcDbLine
 10
78.799416
 20
162.785873
 30
0.0
 11
78.817886
 21
162.923843
 31
0.0
  0
LINE
  5
1A6
330
1F
100
AcDbEntity
  8
0
 62
     1
370
    13
100
AcDbLine
 10
74.741104
 20
161.925644
 30
0.0
 11
74.824547
 21
161.799683
 31
0.0
  0
LINE
  5
1A7
330
1F
100
AcDbEntity
  8
0
 62
     1
370
    13
100
AcDbLine
 10
78.775665
 20
162.651093
 30
0.0
 11
78.799416
 21
162.785873
 31
0.0
  0
LINE
  5
1A8
330
1F
100
AcDbEntity
  8
0
 62
     1
370
    13
100
AcDbLine
 10
74.824547
 20
161.799683
 30
0.0
 11
74.912659
 21
161.680359
 31
0.0
  0
LINE
  5
1A9
330
1F
100
AcDbEntity
  8
0
 62
     1
370
    13
100
AcDbLine
 10
78.746635
 20
162.51944
 30
0.0
 11
78.775665
 21
162.651093
 31
0.0
  0
LINE
  5
1AA
330
1F
100
AcDbEntity
  8
0
 62
     1
370
    13
100
AcDbLine
 10
74.912659
 20
161.680359
 30
0.0
 11
75.005493
 21
161.567657
 31
0.0
  0
LINE
  5
1AB
330
1F
100
AcDbEntity
  8
0
 62
     1
370
    13
100
AcDbLine
 10
78.712318
 20
162.391052
 30
0.0
 11
78.746635
 21
162.51944
 31
0.0
  0
LINE
  5
1AC
330
1F
100
AcDbEntity
  8
0
 62
     1
370
    13
100
AcDbLine
 10
75.005493
 20
161.567657
 30
0.0
 11
75.103004
 21
161.461563
 31
0.0
  0
LINE
  5
1AD
330
1F
100
AcDbEntity
  8
0
 62
     1
370
    13
100
AcDbLine
 10
78.672745
 20
162.265808
 30
0.0
 11
78.712318
 21
162.391052
 31
0.0
  0
LINE
  5
1AE
330
1F
100
AcDbEntity
  8
0
 62
     1
370
    13
100
AcDbLine
 10
75.103004
 20
161.461563
 30
0.0
 11
75.205215
 21
161.362076
 31
0.0
  0
LINE
  5
1AF
330
1F
100
AcDbEntity
  8
0
 62
     1
370
    13
100
AcDbLine
 10
78.627892
 20
162.143753
 30
0.0
 11
78.672745
 21
162.265808
 31
0.0
  0
LINE
  5
1B0
330
1F
100
AcDbEntity
  8
0
 62
     1
370
    13
100
AcDbLine
 10
75.205215
 20
161.362076
 30
0.0
 11
75.312096
 21
161.26918
 31
0.0
  0
LINE
  5
1B1
330
1F
100
AcDbEntity
  8
0
 62
     1
370
    13
100
AcDbLine
 10
78.577751
 20
162.024857
 30
0.0
 11
78.627892
 21
162.143753
 31
0.0
  0
LINE
  5
1B2
330
1F
100
AcDbEntity
  8
0
 62
     1
370
    13
100
AcDbLine
 10
75.312096
 20
161.26918
 30
0.0
 11
75.423683
 21
161.182953
 31
0.0
  0
LINE
  5
1B3
330
1F
100
AcDbEntity
  8
0
 62
     1
370
    13
100
AcDbLine
 10
78.522736
 20
161.910095
 30
0.0
 11
78.577751
 21
162.024857
 31
0.0
  0
LINE
  5
1B4
330
1F
100
AcDbEntity
  8
0
 62
     1
370
    13
100
AcDbLine
 10
75.423683
 20
161.182953
 30
0.0
 11
75.538948
 21
161.104156
 31
0.0
  0
LINE
  5
1B5
330
1F
100
AcDbEntity
  8
0
 62
     1
370
    13
100
AcDbLine
 10
78.463303
 20
161.800369
 30
0.0
 11
78.522736
 21
161.910095
 31
0.0
  0
LINE
  5
1B6
330
1F
100
AcDbEntity
  8
0
 62
     1
370
    13
100
AcDbLine
 10
75.538948
 20
161.104156
 30
0.0
 11
75.656906
 21
161.033676
 31
0.0
  0
LINE
  5
1B7
330
1F
100
AcDbEntity
  8
0
 62
     1
370
    13
100
AcDbLine
 10
78.399422
 20
161.695648
 30
0.0
 11
78.463303
 21
161.800369
 31
0.0
  0
LINE
  5
1B8
330
1F
100
AcDbEntity
  8
0
 62
     1
370
    13
100
AcDbLine
 10
75.656906
 20
161.033676
 30
0.0
 11
75.777557
 21
160.971466
 31
0.0
  0
LINE
  5
1B9
330
1F
100
AcDbEntity
  8
0
 62
     1
370
    13
100
AcDbLine
 10
78.331116
 20
161.595947
 30
0.0
 11
78.399422
 21
161.695648
 31
0.0
  0
LINE
  5
1BA
330
1F
100
AcDbEntity
  8
0
 62
     1
370
    13
100
AcDbLine
 10
75.777557
 20
160.971466
 30
0.0
 11
75.900871
 21
160.917572
 31
0.0
  0
LINE
  5
1BB
330
1F
100
AcDbEntity
  8
0
 62
     1
370
    13
100
AcDbLine
 10
78.258369
 20
161.501312
 30
0.0
 11
78.331116
 21
161.595947
 31
0.0
  0
LINE
  5
1BC
330
1F
100
AcDbEntity
  8
0
 62
     1
370
    13
100
AcDbLine
 10
75.900871
 20
160.917572
 30
0.0
 11
76.026855
 21
160.871948
 31
0.0
  0
LINE
  5
1BD
330
1F
100
AcDbEntity
  8
0
 62
     1
370
    13
100
AcDbLine
 10
78.181152
 20
161.411652
 30
0.0
 11
78.258369
 21
161.501312
 31
0.0
  0
LINE
  5
1BE
330
1F
100
AcDbEntity
  8
0
 62
     1
370
    13
100
AcDbLine
 10
76.026855
 20
160.871948
 30
0.0
 11
76.155533
 21
160.834641
 31
0.0
  0
LINE
  5
1BF
330
1F
100
AcDbEntity
  8
0
 62
     1
370
    13
100
AcDbLine
 10
78.099518
 20
161.327042
 30
0.0
 11
78.181152
 21
161.411652
 31
0.0
  0
LINE
  5
1C0
330
1F
100
AcDbEntity
  8
0
 62
     1
370
    13
100
AcDbLine
 10
76.155533
 20
160.834641
 30
0.0
 11
76.286903
 21
160.805603
 31
0.0
  0
LINE
  5
1C1
330
1F
100
AcDbEntity
  8
0
 62
     1
370
    13
100
AcDbLine
 10
78.013443
 20
161.247467
 30
0.0
 11
78.099518
 21
161.327042
 31
0.0
  0
LINE
  5
1C2
330
1F
100
AcDbEntity
  8
0
 62
     1
370
    13
100
AcDbLine
 10
76.286903
 20
160.805603
 30
0.0
 11
76.420937
 21
160.784882
 31
0.0
  0
LINE
  5
1C3
330
1F
100
AcDbEntity
  8
0
 62
     1
370
    13
100
AcDbLine
 10
77.922943
 20
161.172913
 30
0.0
 11
78.013443
 21
161.247467
 31
0.0
  0
LINE
  5
1C4
330
1F
100
AcDbEntity
  8
0
 62
     1
370
    13
100
AcDbLine
 10
76.420937
 20
160.784882
 30
0.0
 11
76.55764
 21
160.772415
 31
0.0
  0
LINE
  5
1C5
330
1F
100
AcDbEntity
  8
0
 62
     1
370
    13
100
AcDbLine
 10
77.827972
 20
161.103363
 30
0.0
 11
77.922943
 21
161.172913
 31
0.0
  0
LINE
  5
1C6
330
1F
100
AcDbEntity
  8
0
 62
     1
370
    13
100
AcDbLine
 10
76.55764
 20
160.772415
 30
0.0
 11
76.697037
 21
160.768265
 31
0.0
  0
LINE
  5
1C7
330
1F
100
AcDbEntity
  8
0
 62
     1
370
    13
100
AcDbLine
 10
77.72921
 20
161.039688
 30
0.0
 11
77.827972
 21
161.103363
 31
0.0
  0
LINE
  5
1C8
330
1F
100
AcDbEntity
  8
0
 62
     1
370
    13
100
AcDbLine
 10
76.697037
 20
160.768265
 30
0.0
 11
76.824463
 21
160.771622
 31
0.0
  0
LINE
  5
1C9
330
1F
100
AcDbEntity
  8
0
 62
     1
370
    13
100
AcDbLine
 10
77.627258
 20
160.982727
 30
0.0
 11
77.72921
 21
161.039688
 31
0.0
  0
LINE
  5
1CA
330
1F
100
AcDbEntity
  8
0
 62
     1
370
    13
100
AcDbLine
 10
76.824463
 20
160.771622
 30
0.0
 11
76.9487
 21
160.781677
 31
0.0
  0
LINE
  5
1CB
330
1F
100
AcDbEntity
  8
0
 62
     1
370
    13
100
AcDbLine
 10
77.522125
 20
160.932449
 30
0.0
 11
77.627258
 21
160.982727
 31
0.0
  0
LINE
  5
1CC
330
1F
100
AcDbEntity
  8
0
 62
     1
370
    13
100
AcDbLine
 10
76.9487
 20
160.781677
 30
0.0
 11
77.069756
 21
160.798447
 31
0.0
  0
LINE
  5
1CD
330
1F
100
AcDbEntity
  8
0
 62
     1
370
    13
100
AcDbLine
 10
77.413795
 20
160.888916
 30
0.0
 11
77.522125
 21
160.932449
 31
0.0
  0
LINE
  5
1CE
330
1F
100
AcDbEntity
  8
0
 62
     1
370
    13
100
AcDbLine
 10
77.069756
 20
160.798447
 30
0.0
 11
77.187607
 21
160.821884
 31
0.0
  0
LINE
  5
1CF
330
1F
100
AcDbEntity
  8
0
 62
     1
370
    13
100
AcDbLine
 10
77.302292
 20
160.852036
 30
0.0
 11
77.413795
 21
160.888916
 31
0.0
  0
LINE
  5
1D0
330
1F
100
AcDbEntity
  8
0
 62
     1
370
    13
100
AcDbLine
 10
77.187607
 20
160.821884
 30
0.0
 11
77.302292
 21
160.852036
 31
0.0
  0
ARC
  5
1D1
330
1F
100
AcDbEntity
  8
0
 62
     1
370
    13
100
AcDbCircle
 10
180.0
 20
210.0
 30
0.0
 40
3.0
100
AcDbArc
 50
0.0
 51
90.000003
  0
LINE
  5
1D2
330
1F
100
AcDbEntity
  8
0
 62
     1
370
    13
100
AcDbLine
 10
183.0
 20
204.0
 30
0.0
 11
183.0
 21
210.0
 31
0.0
  0
ARC
  5
1D3
330
1F
100
AcDbEntity
  8
0
 62
     1
370
    13
100
AcDbCircle
 10
186.0
 20
204.0
 30
0.0
 40
3.0
100
AcDbArc
 50
180.000005
 51
269.999997
  0
LINE
  5
1D4
330
1F
100
AcDbEntity
  8
0
 62
     1
370
    13
100
AcDbLine
 10
186.0
 20
201.0
 30
0.0
 11
200.0
 21
201.0
 31
0.0
  0
LINE
  5
1D5
330
1F
100
AcDbEntity
  8
0
 62
     1
370
    13
100
AcDbLine
 10
100.0
 20
201.0
 30
0.0
 11
159.0
 21
201.0
 31
0.0
  0
ARC
  5
1D6
330
1F
100
AcDbEntity
  8
0
 62
     1
370
    13
100
AcDbCircle
 10
159.0
 20
204.0
 30
0.0
 40
3.0
100
AcDbArc
 50
269.999997
 51
360.0
  0
LINE
  5
1D7
330
1F
100
AcDbEntity
  8
0
 62
     1
370
    13
100
AcDbLine
 10
162.0
 20
210.0
 30
0.0
 11
162.0
 21
204.0
 31
0.0
  0
ARC
  5
1D8
330
1F
100
AcDbEntity
  8
0
 62
     1
370
    13
100
AcDbCircle
 10
165.0
 20
210.0
 30
0.0
 40
3.0
100
AcDbArc
 50
90.000003
 51
180.000005
  0
LINE
  5
1D9
330
1F
100
AcDbEntity
  8
0
 62
     1
370
    13
100
AcDbLine
 10
165.0
 20
213.0
 30
0.0
 11
180.0
 21
213.0
 31
0.0
  0
ENDSEC
  0
SECTION
  2
OBJECTS
  0
DICTIONARY
  5
C
330
0
100
AcDbDictionary
281
     1
  3
ACAD_DETAILVIEWSTYLE
350
1E2
  3
ACAD_GROUP
350
D
  3
ACAD_LAYOUT
350
1A
  3
ACAD_MATERIAL
350
43
  3
ACAD_MLEADERSTYLE
350
6B
  3
ACAD_MLINESTYLE
350
17
  3
ACAD_PLOTSETTINGS
350
19
  3
ACAD_PLOTSTYLENAME
350
E
  3
ACAD_SCALELIST
350
47
  3
ACAD_SECTIONVIEWSTYLE
350
1E3
  3
ACAD_TABLESTYLE
350
69
  3
ACAD_VISUALSTYLE
350
2A
  3
ACDB_RECOMPOSE_DATA
350
1DE
  3
AcDbVariableDictionary
350
1DA
  0
SUN
  5
6D
330
29
100
AcDbSun
 90
        1
290
     0
 63
     7
421
 16777215
 40
1.0
291
     1
 91
  2455826
 92
 54000000
292
     0
 70
     2
 71
   256
280
     1
  0
DICTIONARY
  5
1E2
102
{ACAD_REACTORS
330
C
102
}
330
C
100
AcDbDictionary
281
     1
  0
DICTIONARY
  5
D
102
{ACAD_REACTORS
330
C
102
}
330
C
100
AcDbDictionary
281
     1
  0
DICTIONARY
  5
1A
102
{ACAD_REACTORS
330
C
102
}
330
C
100
AcDbDictionary
281
     1
  3
Layout1
350
1E
  3
Layout2
350
26
  3
Model
350
22
  0
DICTIONARY
  5
43
102
{ACAD_REACTORS
330
C
102
}
330
C
100
AcDbDictionary
281
     1
  3
ByBlock
350
45
  3
ByLayer
350
44
  3
Global
350
46
  0
DICTIONARY
  5
6B
102
{ACAD_REACTORS
330
C
102
}
330
C
100
AcDbDictionary
281
     1
  3
Standard
350
6C
  0
DICTIONARY
  5
17
102
{ACAD_REACTORS
330
C
102
}
330
C
100
AcDbDictionary
281
     1
  3
Standard
350
18
  0
DICTIONARY
  5
19
102
{ACAD_REACTORS
330
C
102
}
330
C
100
AcDbDictionary
281
     1
  0
ACDBDICTIONARYWDFLT
  5
E
102
{ACAD_REACTORS
330
C
102
}
330
C
100
AcDbDictionary
281
     1
  3
Normal
350
F
100
AcDbDictionaryWithDefault
340
F
  0
DICTIONARY
  5
47
102
{ACAD_REACTORS
330
C
102
}
330
C
100
AcDbDictionary
281
     1
  3
A0
350
48
  3
A1
350
49
  3
A2
350
4A
  3
A3
350
4B
  3
A4
350
4C
  3
A5
350
4D
  3
A6
350
4E
  3
A7
350
4F
  3
A8
350
50
  3
A9
350
51
  3
B0
350
52
  3
B1
350
53
  3
B2
350
54
  3
B3
350
55
  3
B4
350
56
  3
B5
350
57
  3
B6
350
58
  3
B7
350
59
  3
B8
350
5A
  3
B9
350
5B
  3
C0
350
5C
  3
C1
350
5D
  3
C2
350
5E
  3
C3
350
5F
  3
C4
350
60
  3
C5
350
61
  3
C6
350
62
  3
C7
350
63
  3
C8
350
64
  3
C9
350
65
  3
D0
350
66
  3
D1
350
67
  3
D2
350
68
  0
DICTIONARY
  5
1E3
102
{ACAD_REACTORS
330
C
102
}
330
C
100
AcDbDictionary
281
     1
  0
DICTIONARY
  5
69
102
{ACAD_REACTORS
330
C
102
}
330
C
100
AcDbDictionary
281
     1
  3
Standard
350
6A
  0
DICTIONARY
  5
2A
102
{ACAD_REACTORS
330
C
102
}
330
C
100
AcDbDictionary
281
     1
  3
2dWireframe
350
2F
  3
Basic
350
32
  3
Brighten
350
36
  3
ColorChange
350
3A
  3
Conceptual
350
34
  3
Dim
350
35
  3
EdgeColorOff
350
3D
  3
Facepattern
350
39
  3
Flat
350
2B
  3
FlatWithEdges
350
2C
  3
Gouraud
350
2D
  3
GouraudWithEdges
350
2E
  3
Hidden
350
31
  3
JitterOff
350
3B
  3
Linepattern
350
38
  3
OverhangOff
350
3C
  3
Realistic
350
33
  3
Shaded
350
42
  3
Shaded with edges
350
41
  3
Shades of Gray
350
3E
  3
Sketchy
350
3F
  3
Thicken
350
37
  3
Wireframe
350
30
  3
X-Ray
350
40
  0
XRECORD
  5
1DE
102
{ACAD_REACTORS
330
C
102
}
330
C
100
AcDbXrecord
280
     1
 90
        1
330
6A
  0
DICTIONARY
  5
1DA
102
{ACAD_REACTORS
330
C
102
}
330
C
100
AcDbDictionary
281
     1
  3
CANNOSCALE
350
1DB
  3
CMLEADERSTYLE
350
1E0
  3
CTABLESTYLE
350
1DF
  3
XCLIPFRAME
350
1E1
  0
LAYOUT
  5
1E
102
{ACAD_REACTORS
330
1A
102
}
330
1A
100
AcDbPlotSettings
  1

  2
none_device
  4

  6

 40
0.0
 41
0.0
 42
0.0
 43
0.0
 44
0.0
 45
0.0
 46
0.0
 47
0.0
 48
0.0
 49
0.0
140
0.0
141
0.0
142
1.0
143
1.0
 70
  4784
 72
     0
 73
     0
 74
     5
  7

 75
    16
 76
     0
 77
     2
 78
   300
147
1.0
148
0.0
149
0.0
100
AcDbLayout
  1
Layout1
 70
     1
 71
     1
 10
0.0
 20
0.0
 11
420.0
 21
297.0
 12
0.0
 22
0.0
 32
0.0
 14
0.0
 24
0.0
 34
0.0
 15
237.5
 25
237.5
 35
2.0
146
0.0
 13
0.0
 23
0.0
 33
0.0
 16
1.0
 26
0.0
 36
0.0
 17
0.0
 27
1.0
 37
0.0
 76
     0
330
1B
  0
LAYOUT
  5
26
102
{ACAD_REACTORS
330
1A
102
}
330
1A
100
AcDbPlotSettings
  1

  2
none_device
  4

  6

 40
0.0
 41
0.0
 42
0.0
 43
0.0
 44
0.0
 45
0.0
 46
0.0
 47
0.0
 48
0.0
 49
0.0
140
0.0
141
0.0
142
1.0
143
1.0
 70
  4784
 72
     0
 73
     0
 74
     5
  7

 75
    16
 76
     0
 77
     2
 78
   300
147
1.0
148
0.0
149
0.0
100
AcDbLayout
  1
Layout2
 70
     1
 71
     2
 10
0.0
 20
0.0
 11
0.0
 21
0.0
 12
0.0
 22
0.0
 32
0.0
 14
0.0
 24
0.0
 34
0.0
 15
0.0
 25
0.0
 35
0.0
146
0.0
 13
0.0
 23
0.0
 33
0.0
 16
1.0
 26
0.0
 36
0.0
 17
0.0
 27
1.0
 37
0.0
 76
     0
330
23
  0
LAYOUT
  5
22
102
{ACAD_REACTORS
330
1A
102
}
330
1A
100
AcDbPlotSettings
  1

  2
none_device
  4
Letter_(8.50_x_11.00_Inches)
  6

 40
6.35
 41
6.35
 42
6.350005
 43
6.350005
 44
215.9
 45
279.4
 46
0.0
 47
0.0
 48
0.0
 49
0.0
140
0.0
141
0.0
142
1.0
143
1.0
 70
  5808
 72
     0
 73
     0
 74
     0
  7

 75
     0
 76
     0
 77
     2
 78
   300
147
1.0
148
0.0
149
0.0
100
AcDbLayout
  1
Model
 70
     1
 71
     0
 10
0.0
 20
0.0
 11
420.0
 21
297.0
 12
0.0
 22
0.0
 32
0.0
 14
0.0
 24
0.0
 34
0.0
 15
237.5
 25
237.5
 35
2.0
146
0.0
 13
0.0
 23
0.0
 33
0.0
 16
1.0
 26
0.0
 36
0.0
 17
0.0
 27
1.0
 37
0.0
 76
     0
330
1F
331
29
  0
MATERIAL
  5
45
102
{ACAD_REACTORS
330
43
102
}
330
43
100
AcDbMaterial
  1
ByBlock
 72
     1
 94
      127
  0
MATERIAL
  5
44
102
{ACAD_REACTORS
330
43
102
}
330
43
100
AcDbMaterial
  1
ByLayer
 72
     1
 94
      127
  0
MATERIAL
  5
46
102
{ACAD_REACTORS
330
43
102
}
330
43
100
AcDbMaterial
  1
Global
 72
     1
 94
      127
  0
MLEADERSTYLE
  5
6C
102
{ACAD_REACTORS
330
6B
102
}
330
6B
100
AcDbMLeaderStyle
179
     2
170
     2
171
     1
172
     0
 90
        2
 40
0.0
 41
0.0
173
     1
 91
-1056964608
340
14
 92
       -2
290
     1
 42
0.09
291
     1
 43
0.36
  3
Standard
341
0
 44
0.18
300

342
11
174
     1
178
     6
175
     1
176
     0
 93
-1056964608
 45
0.18
292
     0
297
     0
 46
0.18
343
0
 94
-1056964608
 47
1.0
 49
1.0
140
1.0
293
     1
141
0.0
294
     1
177
     0
142
1.0
295
     0
296
     0
143
0.125
271
     0
272
     9
273
     9
  0
MLINESTYLE
  5
18
102
{ACAD_REACTORS
330
17
102
}
330
17
100
AcDbMlineStyle
  2
Standard
 70
     0
  3

 62
   256
 51
90.0
 52
90.0
 71
     2
 49
0.5
 62
   256
  6
BYLAYER
 49
-0.5
 62
   256
  6
BYLAYER
  0
ACDBPLACEHOLDER
  5
F
102
{ACAD_REACTORS
330
E
102
}
330
E
  0
SCALE
  5
48
102
{ACAD_REACTORS
330
47
102
}
330
47
100
AcDbScale
 70
     0
300
1:1
140
1.0
141
1.0
290
     1
  0
SCALE
  5
49
102
{ACAD_REACTORS
330
47
102
}
330
47
100
AcDbScale
 70
     0
300
1:2
140
1.0
141
2.0
290
     0
  0
SCALE
  5
4A
102
{ACAD_REACTORS
330
47
102
}
330
47
100
AcDbScale
 70
     0
300
1:4
140
1.0
141
4.0
290
     0
  0
SCALE
  5
4B
102
{ACAD_REACTORS
330
47
102
}
330
47
100
AcDbScale
 70
     0
300
1:5
140
1.0
141
5.0
290
     0
  0
SCALE
  5
4C
102
{ACAD_REACTORS
330
47
102
}
330
47
100
AcDbScale
 70
     0
300
1:8
140
1.0
141
8.0
290
     0
  0
SCALE
  5
4D
102
{ACAD_REACTORS
330
47
102
}
330
47
100
AcDbScale
 70
     0
300
1:10
140
1.0
141
10.0
290
     0
  0
SCALE
  5
4E
102
{ACAD_REACTORS
330
47
102
}
330
47
100
AcDbScale
 70
     0
300
1:16
140
1.0
141
16.0
290
     0
  0
SCALE
  5
4F
102
{ACAD_REACTORS
330
47
102
}
330
47
100
AcDbScale
 70
     0
300
1:20
140
1.0
141
20.0
290
     0
  0
SCALE
  5
50
102
{ACAD_REACTORS
330
47
102
}
330
47
100
AcDbScale
 70
     0
300
1:30
140
1.0
141
30.0
290
     0
  0
SCALE
  5
51
102
{ACAD_REACTORS
330
47
102
}
330
47
100
AcDbScale
 70
     0
300
1:40
140
1.0
141
40.0
290
     0
  0
SCALE
  5
52
102
{ACAD_REACTORS
330
47
102
}
330
47
100
AcDbScale
 70
     0
300
1:50
140
1.0
141
50.0
290
     0
  0
SCALE
  5
53
102
{ACAD_REACTORS
330
47
102
}
330
47
100
AcDbScale
 70
     0
300
1:100
140
1.0
141
100.0
290
     0
  0
SCALE
  5
54
102
{ACAD_REACTORS
330
47
102
}
330
47
100
AcDbScale
 70
     0
300
2:1
140
2.0
141
1.0
290
     0
  0
SCALE
  5
55
102
{ACAD_REACTORS
330
47
102
}
330
47
100
AcDbScale
 70
     0
300
4:1
140
4.0
141
1.0
290
     0
  0
SCALE
  5
56
102
{ACAD_REACTORS
330
47
102
}
330
47
100
AcDbScale
 70
     0
300
8:1
140
8.0
141
1.0
290
     0
  0
SCALE
  5
57
102
{ACAD_REACTORS
330
47
102
}
330
47
100
AcDbScale
 70
     0
300
10:1
140
10.0
141
1.0
290
     0
  0
SCALE
  5
58
102
{ACAD_REACTORS
330
47
102
}
330
47
100
AcDbScale
 70
     0
300
100:1
140
100.0
141
1.0
290
     0
  0
SCALE
  5
59
102
{ACAD_REACTORS
330
47
102
}
330
47
100
AcDbScale
 70
     0
300
1/128" = 1'-0"
140
0.007812
141
12.0
290
     0
  0
SCALE
  5
5A
102
{ACAD_REACTORS
330
47
102
}
330
47
100
AcDbScale
 70
     0
300
1/64" = 1'-0"
140
0.015625
141
12.0
290
     0
  0
SCALE
  5
5B
102
{ACAD_REACTORS
330
47
102
}
330
47
100
AcDbScale
 70
     0
300
1/32" = 1'-0"
140
0.03125
141
12.0
290
     0
  0
SCALE
  5
5C
102
{ACAD_REACTORS
330
47
102
}
330
47
100
AcDbScale
 70
     0
300
1/16" = 1'-0"
140
0.0625
141
12.0
290
     0
  0
SCALE
  5
5D
102
{ACAD_REACTORS
330
47
102
}
330
47
100
AcDbScale
 70
     0
300
3/32" = 1'-0"
140
0.09375
141
12.0
290
     0
  0
SCALE
  5
5E
102
{ACAD_REACTORS
330
47
102
}
330
47
100
AcDbScale
 70
     0
300
1/8" = 1'-0"
140
0.125
141
12.0
290
     0
  0
SCALE
  5
5F
102
{ACAD_REACTORS
330
47
102
}
330
47
100
AcDbScale
 70
     0
300
3/16" = 1'-0"
140
0.1875
141
12.0
290
     0
  0
SCALE
  5
60
102
{ACAD_REACTORS
330
47
102
}
330
47
100
AcDbScale
 70
     0
300
1/4" = 1'-0"
140
0.25
141
12.0
290
     0
  0
SCALE
  5
61
102
{ACAD_REACTORS
330
47
102
}
330
47
100
AcDbScale
 70
     0
300
3/8" = 1'-0"
140
0.375
141
12.0
290
     0
  0
SCALE
  5
62
102
{ACAD_REACTORS
330
47
102
}
330
47
100
AcDbScale
 70
     0
300
1/2" = 1'-0"
140
0.5
141
12.0
290
     0
  0
SCALE
  5
63
102
{ACAD_REACTORS
330
47
102
}
330
47
100
AcDbScale
 70
     0
300
3/4" = 1'-0"
140
0.75
141
12.0
290
     0
  0
SCALE
  5
64
102
{ACAD_REACTORS
330
47
102
}
330
47
100
AcDbScale
 70
     0
300
1" = 1'-0"
140
1.0
141
12.0
290
     0
  0
SCALE
  5
65
102
{ACAD_REACTORS
330
47
102
}
330
47
100
AcDbScale
 70
     0
300
1-1/2" = 1'-0"
140
1.5
141
12.0
290
     0
  0
SCALE
  5
66
102
{ACAD_REACTORS
330
47
102
}
330
47
100
AcDbScale
 70
     0
300
3" = 1'-0"
140
3.0
141
12.0
290
     0
  0
SCALE
  5
67
102
{ACAD_REACTORS
330
47
102
}
330
47
100
AcDbScale
 70
     0
300
6" = 1'-0"
140
6.0
141
12.0
290
     0
  0
SCALE
  5
68
102
{ACAD_REACTORS
330
47
102
}
330
47
100
AcDbScale
 70
     0
300
1'-0" = 1'-0"
140
12.0
141
12.0
290
     0
  0
TABLESTYLE
  5
6A
102
{ACAD_REACTORS
330
69
102
}
102
{ACAD_XDICTIONARY
360
1DC
102
}
330
69
100
AcDbTableStyle
  3
Standard
 70
     0
 71
     0
 40
0.06
 41
0.06
280
     0
281
     0
  7
Standard
140
0.18
170
     2
 62
     0
 63
   257
283
     0
 90
        4
 91
        0
  1

274
    -2
284
     1
 64
     0
275
    -2
285
     1
 65
     0
276
    -2
286
     1
 66
     0
277
    -2
287
     1
 67
     0
278
    -2
288
     1
 68
     0
279
    -2
289
     1
 69
     0
  7
Standard
140
0.25
170
     5
 62
     0
 63
   257
283
     0
 90
        4
 91
        0
  1

274
    -2
284
     1
 64
     0
275
    -2
285
     1
 65
     0
276
    -2
286
     1
 66
     0
277
    -2
287
     1
 67
     0
278
    -2
288
     1
 68
     0
279
    -2
289
     1
 69
     0
  7
Standard
140
0.18
170
     5
 62
     0
 63
   257
283
     0
 90
        4
 91
        0
  1

274
    -2
284
     1
 64
     0
275
    -2
285
     1
 65
     0
276
    -2
286
     1
 66
     0
277
    -2
287
     1
 67
     0
278
    -2
288
     1
 68
     0
279
    -2
289
     1
 69
     0
  0
VISUALSTYLE
  5
2F
102
{ACAD_REACTORS
330
2A
102
}
330
2A
100
AcDbVisualStyle
  2
2dWireframe
 70
     4
177
     2
291
     0
 71
     0
176
     1
 72
     2
176
     1
 73
     0
176
     1
 90
        0
176
     1
 40
0.6
176
     1
 41
30.0
176
     1
 62
     5
 63
     7
421
 16777215
176
     1
 74
     1
176
     1
 91
        4
176
     1
 64
     7
176
     1
 65
   257
176
     1
 75
     1
176
     1
175
     1
176
     1
 42
1.0
176
     1
 92
        0
176
     1
 66
   257
176
     1
 43
1.0
176
     1
 76
     1
176
     1
 77
     6
176
     1
 78
     2
176
     1
 67
     7
176
     1
 79
     5
176
     1
170
     0
176
     1
171
     0
176
     1
290
     0
176
     1
 93
        1
176
     1
 44
0.0
176
     1
173
     0
176
     1
  0
VISUALSTYLE
  5
32
102
{ACAD_REACTORS
330
2A
102
}
330
2A
100
AcDbVisualStyle
  2
Basic
 70
     7
177
     2
291
     1
 71
     1
176
     1
 72
     0
176
     1
 73
     1
176
     1
 90
        0
176
     1
 40
0.6
176
     1
 41
30.0
176
     1
 62
     5
 63
     7
421
 16777215
176
     1
 74
     0
176
     1
 91
        4
176
     1
 64
     7
176
     1
 65
   257
176
     1
 75
     1
176
     1
175
     1
176
     1
 42
1.0
176
     1
 92
        8
176
     1
 66
     7
176
     1
 43
1.0
176
     1
 76
     1
176
     1
 77
     6
176
     1
 78
     2
176
     1
 67
     7
176
     1
 79
     5
176
     1
170
     0
176
     1
171
     0
176
     1
290
     0
176
     1
 93
        1
176
     1
 44
0.0
176
     1
173
     0
176
     1
  0
VISUALSTYLE
  5
36
102
{ACAD_REACTORS
330
2A
102
}
330
2A
100
AcDbVisualStyle
  2
Brighten
 70
    12
177
     2
291
     1
 71
     2
176
     1
 72
     2
176
     1
 73
     0
176
     1
 90
        0
176
     1
 40
0.6
176
     1
 41
30.0
176
     1
 62
     5
 63
     7
421
 16777215
176
     1
 74
     1
176
     1
 91
        4
176
     1
 64
     7
176
     1
 65
   257
176
     1
 75
     1
176
     1
175
     1
176
     1
 42
1.0
176
     1
 92
        8
176
     1
 66
     7
176
     1
 43
1.0
176
     1
 76
     1
176
     1
 77
     6
176
     1
 78
     2
176
     1
 67
     7
176
     1
 79
     5
176
     1
170
     0
176
     1
171
     0
176
     1
290
     0
176
     1
 93
        1
176
     1
 44
50.0
176
     1
173
     0
176
     1
  0
VISUALSTYLE
  5
3A
102
{ACAD_REACTORS
330
2A
102
}
330
2A
100
AcDbVisualStyle
  2
ColorChange
 70
    16
177
     2
291
     1
 71
     2
176
     1
 72
     2
176
     1
 73
     3
176
     1
 90
        0
176
     1
 40
0.6
176
     1
 41
30.0
176
     1
 62
     5
 63
     8
421
  8421504
176
     1
 74
     1
176
     1
 91
        4
176
     1
 64
     7
176
     1
 65
   257
176
     1
 75
     1
176
     1
175
     1
176
     1
 42
1.0
176
     1
 92
        8
176
     1
 66
     8
424
  8421504
176
     1
 43
1.0
176
     1
 76
     1
176
     1
 77
     6
176
     1
 78
     2
176
     1
 67
     7
176
     1
 79
     5
176
     1
170
     0
176
     1
171
     0
176
     1
290
     0
176
     1
 93
        1
176
     1
 44
0.0
176
     1
173
     0
176
     1
  0
VISUALSTYLE
  5
34
102
{ACAD_REACTORS
330
2A
102
}
330
2A
100
AcDbVisualStyle
  2
Conceptual
 70
     9
177
     2
291
     0
 71
     3
176
     1
 72
     2
176
     1
 73
     0
176
     1
 90
        0
176
     1
 40
0.6
176
     1
 41
30.0
176
     1
 62
     5
 63
     7
421
 16777215
176
     1
 74
     2
176
     1
 91
        2
176
     1
 64
     7
176
     1
 65
   257
176
     1
 75
     1
176
     1
175
     1
176
     1
 42
179.0
176
     1
 92
        8
176
     1
 66
     7
176
     1
 43
1.0
176
     1
 76
     1
176
     1
 77
     6
176
     1
 78
     2
176
     1
 67
     7
176
     1
 79
     3
176
     1
170
     0
176
     1
171
     0
176
     1
290
     0
176
     1
 93
        1
176
     1
 44
0.0
176
     1
173
     0
176
     1
  0
VISUALSTYLE
  5
35
102
{ACAD_REACTORS
330
2A
102
}
330
2A
100
AcDbVisualStyle
  2
Dim
 70
    11
177
     2
291
     1
 71
     2
176
     1
 72
     2
176
     1
 73
     0
176
     1
 90
        0
176
     1
 40
0.6
176
     1
 41
30.0
176
     1
 62
     5
 63
     7
421
 16777215
176
     1
 74
     1
176
     1
 91
        4
176
     1
 64
     7
176
     1
 65
   257
176
     1
 75
     1
176
     1
175
     1
176
     1
 42
1.0
176
     1
 92
        8
176
     1
 66
     7
176
     1
 43
1.0
176
     1
 76
     1
176
     1
 77
     6
176
     1
 78
     2
176
     1
 67
     7
176
     1
 79
     5
176
     1
170
     0
176
     1
171
     0
176
     1
290
     0
176
     1
 93
        1
176
     1
 44
-50.0
176
     1
173
     0
176
     1
  0
VISUALSTYLE
  5
3D
102
{ACAD_REACTORS
330
2A
102
}
330
2A
100
AcDbVisualStyle
  2
EdgeColorOff
 70
    22
177
     2
291
     1
 71
     2
176
     0
 72
     2
176
     0
 73
     0
176
     0
 90
        0
176
     0
 40
0.6
176
     0
 41
30.0
176
     0
 62
     5
 63
     7
421
 16777215
176
     0
 74
     1
176
     0
 91
        4
176
     0
 64
     7
176
     0
 65
   257
176
     0
 75
     1
176
     0
175
     1
176
     0
 42
1.0
176
     0
 92
        8
176
     2
 66
     7
176
     0
 43
1.0
176
     0
 76
     1
176
     0
 77
     6
176
     0
 78
     2
176
     0
 67
     7
176
     0
 79
     5
176
     0
170
     0
176
     0
171
     0
176
     0
290
     0
176
     0
 93
        1
176
     0
 44
0.0
176
     0
173
     0
176
     0
  0
VISUALSTYLE
  5
39
102
{ACAD_REACTORS
330
2A
102
}
330
2A
100
AcDbVisualStyle
  2
Facepattern
 70
    15
177
     2
291
     1
 71
     2
176
     1
 72
     2
176
     1
 73
     0
176
     1
 90
        0
176
     1
 40
0.6
176
     1
 41
30.0
176
     1
 62
     5
 63
     7
421
 16777215
176
     1
 74
     1
176
     1
 91
        4
176
     1
 64
     7
176
     1
 65
   257
176
     1
 75
     1
176
     1
175
     1
176
     1
 42
1.0
176
     1
 92
        8
176
     1
 66
     7
176
     1
 43
1.0
176
     1
 76
     1
176
     1
 77
     6
176
     1
 78
     2
176
     1
 67
     7
176
     1
 79
     5
176
     1
170
     0
176
     1
171
     0
176
     1
290
     0
176
     1
 93
        1
176
     1
 44
0.0
176
     1
173
     0
176
     1
  0
VISUALSTYLE
  5
2B
102
{ACAD_REACTORS
330
2A
102
}
330
2A
100
AcDbVisualStyle
  2
Flat
 70
     0
177
     2
291
     1
 71
     2
176
     1
 72
     1
176
     1
 73
     1
176
     1
 90
        2
176
     1
 40
0.6
176
     1
 41
30.0
176
     1
 62
     5
 63
     7
421
 16777215
176
     1
 74
     0
176
     1
 91
        0
176
     1
 64
     7
176
     1
 65
   257
176
     1
 75
     1
176
     1
175
     1
176
     1
 42
1.0
176
     1
 92
        8
176
     1
 66
     7
176
     1
 43
1.0
176
     1
 76
     1
176
     1
 77
     6
176
     1
 78
     2
176
     1
 67
     7
176
     1
 79
     5
176
     1
170
     0
176
     1
171
     0
176
     1
290
     0
176
     1
 93
       13
176
     1
 44
0.0
176
     1
173
     0
176
     1
  0
VISUALSTYLE
  5
2C
102
{ACAD_REACTORS
330
2A
102
}
330
2A
100
AcDbVisualStyle
  2
FlatWithEdges
 70
     1
177
     2
291
     1
 71
     2
176
     1
 72
     1
176
     1
 73
     1
176
     1
 90
        2
176
     1
 40
0.6
176
     1
 41
30.0
176
     1
 62
     5
 63
     7
421
 16777215
176
     1
 74
     1
176
     1
 91
        0
176
     1
 64
     7
176
     1
 65
   257
176
     1
 75
     1
176
     1
175
     1
176
     1
 42
1.0
176
     1
 92
        0
176
     1
 66
   257
176
     1
 43
1.0
176
     1
 76
     1
176
     1
 77
     6
176
     1
 78
     2
176
     1
 67
     7
176
     1
 79
     5
176
     1
170
     0
176
     1
171
     0
176
     1
290
     0
176
     1
 93
       13
176
     1
 44
0.0
176
     1
173
     0
176
     1
  0
VISUALSTYLE
  5
2D
102
{ACAD_REACTORS
330
2A
102
}
330
2A
100
AcDbVisualStyle
  2
Gouraud
 70
     2
177
     2
291
     1
 71
     2
176
     1
 72
     2
176
     1
 73
     1
176
     1
 90
        2
176
     1
 40
0.6
176
     1
 41
30.0
176
     1
 62
     5
 63
     7
421
 16777215
176
     1
 74
     0
176
     1
 91
        0
176
     1
 64
     7
176
     1
 65
   257
176
     1
 75
     1
176
     1
175
     1
176
     1
 42
1.0
176
     1
 92
        0
176
     1
 66
     7
176
     1
 43
1.0
176
     1
 76
     1
176
     1
 77
     6
176
     1
 78
     2
176
     1
 67
     7
176
     1
 79
     5
176
     1
170
     0
176
     1
171
     0
176
     1
290
     0
176
     1
 93
       13
176
     1
 44
0.0
176
     1
173
     0
176
     1
  0
VISUALSTYLE
  5
2E
102
{ACAD_REACTORS
330
2A
102
}
330
2A
100
AcDbVisualStyle
  2
GouraudWithEdges
 70
     3
177
     2
291
     1
 71
     2
176
     1
 72
     2
176
     1
 73
     1
176
     1
 90
        2
176
     1
 40
0.6
176
     1
 41
30.0
176
     1
 62
     5
 63
     7
421
 16777215
176
     1
 74
     1
176
     1
 91
        0
176
     1
 64
     7
176
     1
 65
   257
176
     1
 75
     1
176
     1
175
     1
176
     1
 42
1.0
176
     1
 92
        0
176
     1
 66
   257
176
     1
 43
1.0
176
     1
 76
     1
176
     1
 77
     6
176
     1
 78
     2
176
     1
 67
     7
176
     1
 79
     5
176
     1
170
     0
176
     1
171
     0
176
     1
290
     0
176
     1
 93
       13
176
     1
 44
0.0
176
     1
173
     0
176
     1
  0
VISUALSTYLE
  5
31
102
{ACAD_REACTORS
330
2A
102
}
330
2A
100
AcDbVisualStyle
  2
Hidden
 70
     6
177
     2
291
     0
 71
     1
176
     1
 72
     2
176
     1
 73
     2
176
     1
 90
        0
176
     1
 40
0.6
176
     1
 41
30.0
176
     1
 62
     5
 63
     7
421
 16777215
176
     1
 74
     2
176
     1
 91
        2
176
     1
 64
     7
176
     1
 65
   257
176
     1
 75
     2
176
     1
175
     1
176
     1
 42
40.0
176
     1
 92
        0
176
     1
 66
   257
176
     1
 43
1.0
176
     1
 76
     1
176
     1
 77
     6
176
     1
 78
     2
176
     1
 67
     7
176
     1
 79
     3
176
     1
170
     0
176
     1
171
     0
176
     1
290
     0
176
     1
 93
        1
176
     1
 44
0.0
176
     1
173
     0
176
     1
  0
VISUALSTYLE
  5
3B
102
{ACAD_REACTORS
330
2A
102
}
330
2A
100
AcDbVisualStyle
  2
JitterOff
 70
    20
177
     2
291
     1
 71
     2
176
     0
 72
     2
176
     0
 73
     0
176
     0
 90
        0
176
     0
 40
0.6
176
     0
 41
30.0
176
     0
 62
     5
 63
     7
421
 16777215
176
     0
 74
     1
176
     0
 91
        4
176
     0
 64
     7
176
     0
 65
   257
176
     0
 75
     1
176
     0
175
     1
176
     0
 42
1.0
176
     0
 92
       10
176
     2
 66
     7
176
     0
 43
1.0
176
     0
 76
     1
176
     0
 77
     6
176
     0
 78
     2
176
     0
 67
     7
176
     0
 79
     5
176
     0
170
     0
176
     0
171
     0
176
     0
290
     0
176
     0
 93
        1
176
     0
 44
0.0
176
     0
173
     0
176
     0
  0
VISUALSTYLE
  5
38
102
{ACAD_REACTORS
330
2A
102
}
330
2A
100
AcDbVisualStyle
  2
Linepattern
 70
    14
177
     2
291
     1
 71
     2
176
     1
 72
     2
176
     1
 73
     0
176
     1
 90
        0
176
     1
 40
0.6
176
     1
 41
30.0
176
     1
 62
     5
 63
     7
421
 16777215
176
     1
 74
     1
176
     1
 91
        4
176
     1
 64
     7
176
     1
 65
   257
176
     1
 75
     7
176
     1
175
     7
176
     1
 42
1.0
176
     1
 92
        8
176
     1
 66
     7
176
     1
 43
1.0
176
     1
 76
     1
176
     1
 77
     6
176
     1
 78
     2
176
     1
 67
     7
176
     1
 79
     5
176
     1
170
     0
176
     1
171
     0
176
     1
290
     0
176
     1
 93
        1
176
     1
 44
0.0
176
     1
173
     0
176
     1
  0
VISUALSTYLE
  5
3C
102
{ACAD_REACTORS
330
2A
102
}
330
2A
100
AcDbVisualStyle
  2
OverhangOff
 70
    21
177
     2
291
     1
 71
     2
176
     0
 72
     2
176
     0
 73
     0
176
     0
 90
        0
176
     0
 40
0.6
176
     0
 41
30.0
176
     0
 62
     5
 63
     7
421
 16777215
176
     0
 74
     1
176
     0
 91
        4
176
     0
 64
     7
176
     0
 65
   257
176
     0
 75
     1
176
     0
175
     1
176
     0
 42
1.0
176
     0
 92
        9
176
     2
 66
     7
176
     0
 43
1.0
176
     0
 76
     1
176
     0
 77
     6
176
     0
 78
     2
176
     0
 67
     7
176
     0
 79
     5
176
     0
170
     0
176
     0
171
     0
176
     0
290
     0
176
     0
 93
        1
176
     0
 44
0.0
176
     0
173
     0
176
     0
  0
VISUALSTYLE
  5
33
102
{ACAD_REACTORS
330
2A
102
}
330
2A
100
AcDbVisualStyle
  2
Realistic
 70
     8
177
     2
291
     0
 71
     2
176
     1
 72
     3
176
     1
 73
     0
176
     1
 90
        2
176
     1
 40
0.6
176
     1
 41
30.0
176
     1
 62
     5
 63
     7
421
 16777215
176
     1
 74
     0
176
     1
 91
        0
176
     1
 64
     7
176
     1
 65
   257
176
     1
 75
     1
176
     1
175
     1
176
     1
 42
1.0
176
     1
 92
        8
176
     1
 66
   257
176
     1
 43
1.0
176
     1
 76
     1
176
     1
 77
     6
176
     1
 78
     2
176
     1
 67
     7
176
     1
 79
     3
176
     1
170
     0
176
     1
171
     0
176
     1
290
     0
176
     1
 93
       13
176
     1
 44
0.0
176
     1
173
     0
176
     1
  0
VISUALSTYLE
  5
42
102
{ACAD_REACTORS
330
2A
102
}
330
2A
100
AcDbVisualStyle
  2
Shaded
 70
    27
177
     2
291
     0
 71
     2
176
     1
 72
     2
176
     1
 73
     1
176
     1
 90
        2
176
     1
 40
0.6
176
     1
 41
30.0
176
     1
 62
     5
 63
     7
421
 16777215
176
     1
 74
     0
176
     1
 91
        4
176
     1
 64
     7
176
     1
 65
   257
176
     1
 75
     1
176
     1
175
     1
176
     1
 42
1.0
176
     1
 92
        8
176
     1
 66
   257
176
     1
 43
1.0
176
     1
 76
     1
176
     1
 77
     6
176
     1
 78
     2
176
     1
 67
     8
425
  7895160
176
     1
 79
     3
176
     1
170
     0
176
     1
171
     0
176
     1
290
     0
176
     1
 93
        5
176
     1
 44
0.0
176
     1
173
     0
176
     1
  0
VISUALSTYLE
  5
41
102
{ACAD_REACTORS
330
2A
102
}
330
2A
100
AcDbVisualStyle
  2
Shaded with edges
 70
    26
177
     2
291
     0
 71
     2
176
     1
 72
     2
176
     1
 73
     1
176
     1
 90
        2
176
     1
 40
0.6
176
     1
 41
30.0
176
     1
 62
     5
 63
     7
421
 16777215
176
     1
 74
     1
176
     1
 91
       10
176
     1
 64
     7
176
     1
 65
   257
176
     1
 75
     2
176
     1
175
     1
176
     1
 42
1.0
176
     1
 92
        8
176
     1
 66
   257
176
     1
 43
1.0
176
     1
 76
     1
176
     1
 77
     6
176
     1
 78
     2
176
     1
 67
     7
176
     1
 79
     3
176
     1
170
     0
176
     1
171
     0
176
     1
290
     0
176
     1
 93
        5
176
     1
 44
0.0
176
     1
173
     0
176
     1
  0
VISUALSTYLE
  5
3E
102
{ACAD_REACTORS
330
2A
102
}
330
2A
100
AcDbVisualStyle
  2
Shades of Gray
 70
    23
177
     2
291
     0
 71
     2
176
     1
 72
     2
176
     1
 73
     3
176
     1
 90
        0
176
     1
 40
0.6
176
     1
 41
30.0
176
     1
 62
     5
 63
     7
421
 16777215
176
     1
 74
     2
176
     1
 91
        2
176
     1
 64
     7
176
     1
 65
     7
176
     1
 75
     1
176
     1
175
     1
176
     1
 42
40.0
176
     1
 92
        8
176
     1
 66
     7
176
     1
 43
1.0
176
     1
 76
     1
176
     1
 77
     6
176
     1
 78
     2
176
     1
 67
     7
176
     1
 79
     3
176
     1
170
     0
176
     1
171
     0
176
     1
290
     0
176
     1
 93
        1
176
     1
 44
0.0
176
     1
173
     0
176
     1
  0
VISUALSTYLE
  5
3F
102
{ACAD_REACTORS
330
2A
102
}
330
2A
100
AcDbVisualStyle
  2
Sketchy
 70
    24
177
     2
291
     0
 71
     1
176
     1
 72
     2
176
     1
 73
     2
176
     1
 90
        0
176
     1
 40
0.6
176
     1
 41
30.0
176
     1
 62
     5
 63
     7
421
 16777215
176
     1
 74
     2
176
     1
 91
        2
176
     1
 64
     7
176
     1
 65
     7
176
     1
 75
     1
176
     1
175
     1
176
     1
 42
40.0
176
     1
 92
       11
176
     1
 66
     7
176
     1
 43
1.0
176
     1
 76
     1
176
     1
 77
     6
176
     1
 78
     2
176
     1
 67
     7
176
     1
 79
     6
176
     1
170
     0
176
     1
171
     0
176
     1
290
     0
176
     1
 93
        1
176
     1
 44
0.0
176
     1
173
     0
176
     1
  0
VISUALSTYLE
  5
37
102
{ACAD_REACTORS
330
2A
102
}
330
2A
100
AcDbVisualStyle
  2
Thicken
 70
    13
177
     2
291
     1
 71
     2
176
     1
 72
     2
176
     1
 73
     0
176
     1
 90
        0
176
     1
 40
0.6
176
     1
 41
30.0
176
     1
 62
     5
 63
     7
421
 16777215
176
     1
 74
     1
176
     1
 91
        4
176
     1
 64
     7
176
     1
 65
   257
176
     1
 75
     1
176
     1
175
     1
176
     1
 42
1.0
176
     1
 92
       12
176
     1
 66
     7
176
     1
 43
1.0
176
     1
 76
     1
176
     1
 77
     6
176
     1
 78
     2
176
     1
 67
     7
176
     1
 79
     5
176
     1
170
     0
176
     1
171
     0
176
     1
290
     0
176
     1
 93
        1
176
     1
 44
0.0
176
     1
173
     0
176
     1
  0
VISUALSTYLE
  5
30
102
{ACAD_REACTORS
330
2A
102
}
330
2A
100
AcDbVisualStyle
  2
Wireframe
 70
     5
177
     2
291
     0
 71
     0
176
     1
 72
     2
176
     1
 73
     0
176
     1
 90
        0
176
     1
 40
0.6
176
     1
 41
30.0
176
     1
 62
     5
 63
     7
421
 16777215
176
     1
 74
     1
176
     1
 91
        4
176
     1
 64
     7
176
     1
 65
   257
176
     1
 75
     1
176
     1
175
     1
176
     1
 42
1.0
176
     1
 92
        0
176
     1
 66
   257
176
     1
 43
1.0
176
     1
 76
     1
176
     1
 77
     6
176
     1
 78
     2
176
     1
 67
     7
176
     1
 79
     3
176
     1
170
     0
176
     1
171
     0
176
     1
290
     0
176
     1
 93
        1
176
     1
 44
0.0
176
     1
173
     0
176
     1
  0
VISUALSTYLE
  5
40
102
{ACAD_REACTORS
330
2A
102
}
330
2A
100
AcDbVisualStyle
  2
X-Ray
 70
    25
177
     2
291
     0
 71
     2
176
     1
 72
     2
176
     1
 73
     1
176
     1
 90
        1
176
     1
 40
0.5
176
     1
 41
30.0
176
     1
 62
     5
 63
     7
421
 16777215
176
     1
 74
     1
176
     1
 91
        0
176
     1
 64
     7
176
     1
 65
   257
176
     1
 75
     1
176
     1
175
     1
176
     1
 42
1.0
176
     1
 92
        8
176
     1
 66
     7
176
     1
 43
1.0
176
     1
 76
     1
176
     1
 77
     6
176
     1
 78
     2
176
     1
 67
     7
176
     1
 79
     3
176
     1
170
     0
176
     1
171
     0
176
     1
290
     0
176
     1
 93
       13
176
     1
 44
0.0
176
     1
173
     0
176
     1
  0
DICTIONARYVAR
  5
1DB
102
{ACAD_REACTORS
330
1DA
102
}
330
1DA
100
DictionaryVariables
280
     0
  1
1:1
  0
DICTIONARYVAR
  5
1E0
102
{ACAD_REACTORS
330
1DA
102
}
330
1DA
100
DictionaryVariables
280
     0
  1
Standard
  0
DICTIONARYVAR
  5
1DF
102
{ACAD_REACTORS
330
1DA
102
}
330
1DA
100
DictionaryVariables
280
     0
  1
Standard
  0
DICTIONARYVAR
  5
1E1
102
{ACAD_REACTORS
330
1DA
102
}
330
1DA
100
DictionaryVariables
280
     0
  1
0
  0
DICTIONARY
  5
1DC
330
6A
100
AcDbDictionary
280
     1
281
     1
  3
ACAD_ROUNDTRIP_2008_TABLESTYLE_CELLSTYLEMAP
360
1DD
  0
CELLSTYLEMAP
  5
1DD
102
{ACAD_REACTORS
330
1DC
102
}
330
1DC
100
AcDbCellStyleMap
 90
        3
300
CELLSTYLE
  1
TABLEFORMAT_BEGIN
 90
        5
170
     1
 91
        0
 92
    32768
 62
   257
 93
        1
300
CONTENTFORMAT
  1
CONTENTFORMAT_BEGIN
 90
        0
 91
        0
 92
        4
 93
        0
300

 40
0.0
140
1.0
 94
        5
 62
     0
340
11
144
0.25
309
CONTENTFORMAT_END
171
     1
301
MARGIN
  1
CELLMARGIN_BEGIN
 40
0.06
 40
0.06
 40
0.06
 40
0.06
 40
0.06
 40
0.06
309
CELLMARGIN_END
 94
        6
 95
        1
302
GRIDFORMAT
  1
GRIDFORMAT_BEGIN
 90
        0
 91
        1
 62
     0
 92
       -2
340
14
 93
        0
 40
0.045
309
GRIDFORMAT_END
 95
        2
302
GRIDFORMAT
  1
GRIDFORMAT_BEGIN
 90
        0
 91
        1
 62
     0
 92
       -2
340
14
 93
        0
 40
0.045
309
GRIDFORMAT_END
 95
        4
302
GRIDFORMAT
  1
GRIDFORMAT_BEGIN
 90
        0
 91
        1
 62
     0
 92
       -2
340
14
 93
        0
 40
0.045
309
GRIDFORMAT_END
 95
        8
302
GRIDFORMAT
  1
GRIDFORMAT_BEGIN
 90
        0
 91
        1
 62
     0
 92
       -2
340
14
 93
        0
 40
0.045
309
GRIDFORMAT_END
 95
       16
302
GRIDFORMAT
  1
GRIDFORMAT_BEGIN
 90
        0
 91
        1
 62
     0
 92
       -2
340
14
 93
        0
 40
0.045
309
GRIDFORMAT_END
 95
       32
302
GRIDFORMAT
  1
GRIDFORMAT_BEGIN
 90
        0
 91
        1
 62
     0
 92
       -2
340
14
 93
        0
 40
0.045
309
GRIDFORMAT_END
309
TABLEFORMAT_END
  1
CELLSTYLE_BEGIN
 90
        1
 91
        1
300
_TITLE
309
CELLSTYLE_END
300
CELLSTYLE
  1
TABLEFORMAT_BEGIN
 90
        5
170
     1
 91
        0
 92
        0
 62
   257
 93
        1
300
CONTENTFORMAT
  1
CONTENTFORMAT_BEGIN
 90
        0
 91
        0
 92
        4
 93
        0
300

 40
0.0
140
1.0
 94
        5
 62
     0
340
11
144
0.18
309
CONTENTFORMAT_END
171
     1
301
MARGIN
  1
CELLMARGIN_BEGIN
 40
0.06
 40
0.06
 40
0.06
 40
0.06
 40
0.06
 40
0.06
309
CELLMARGIN_END
 94
        6
 95
        1
302
GRIDFORMAT
  1
GRIDFORMAT_BEGIN
 90
        0
 91
        1
 62
     0
 92
       -2
340
14
 93
        0
 40
0.045
309
GRIDFORMAT_END
 95
        2
302
GRIDFORMAT
  1
GRIDFORMAT_BEGIN
 90
        0
 91
        1
 62
     0
 92
       -2
340
14
 93
        0
 40
0.045
309
GRIDFORMAT_END
 95
        4
302
GRIDFORMAT
  1
GRIDFORMAT_BEGIN
 90
        0
 91
        1
 62
     0
 92
       -2
340
14
 93
        0
 40
0.045
309
GRIDFORMAT_END
 95
        8
302
GRIDFORMAT
  1
GRIDFORMAT_BEGIN
 90
        0
 91
        1
 62
     0
 92
       -2
340
14
 93
        0
 40
0.045
309
GRIDFORMAT_END
 95
       16
302
GRIDFORMAT
  1
GRIDFORMAT_BEGIN
 90
        0
 91
        1
 62
     0
 92
       -2
340
14
 93
        0
 40
0.045
309
GRIDFORMAT_END
 95
       32
302
GRIDFORMAT
  1
GRIDFORMAT_BEGIN
 90
        0
 91
        1
 62
     0
 92
       -2
340
14
 93
        0
 40
0.045
309
GRIDFORMAT_END
309
TABLEFORMAT_END
  1
CELLSTYLE_BEGIN
 90
        2
 91
        1
300
_HEADER
309
CELLSTYLE_END
300
CELLSTYLE
  1
TABLEFORMAT_BEGIN
 90
        5
170
     1
 91
        0
 92
        0
 62
   257
 93
        1
300
CONTENTFORMAT
  1
CONTENTFORMAT_BEGIN
 90
        0
 91
        0
 92
        4
 93
        0
300

 40
0.0
140
1.0
 94
        2
 62
     0
340
11
144
0.18
309
CONTENTFORMAT_END
171
     1
301
MARGIN
  1
CELLMARGIN_BEGIN
 40
0.06
 40
0.06
 40
0.06
 40
0.06
 40
0.06
 40
0.06
309
CELLMARGIN_END
 94
        6
 95
        1
302
GRIDFORMAT
  1
GRIDFORMAT_BEGIN
 90
        0
 91
        1
 62
     0
 92
       -2
340
14
 93
        0
 40
0.045
309
GRIDFORMAT_END
 95
        2
302
GRIDFORMAT
  1
GRIDFORMAT_BEGIN
 90
        0
 91
        1
 62
     0
 92
       -2
340
14
 93
        0
 40
0.045
309
GRIDFORMAT_END
 95
        4
302
GRIDFORMAT
  1
GRIDFORMAT_BEGIN
 90
        0
 91
        1
 62
     0
 92
       -2
340
14
 93
        0
 40
0.045
309
GRIDFORMAT_END
 95
        8
302
GRIDFORMAT
  1
GRIDFORMAT_BEGIN
 90
        0
 91
        1
 62
     0
 92
       -2
340
14
 93
        0
 40
0.045
309
GRIDFORMAT_END
 95
       16
302
GRIDFORMAT
  1
GRIDFORMAT_BEGIN
 90
        0
 91
        1
 62
     0
 92
       -2
340
14
 93
        0
 40
0.045
309
GRIDFORMAT_END
 95
       32
302
GRIDFORMAT
  1
GRIDFORMAT_BEGIN
 90
        0
 91
        1
 62
     0
 92
       -2
340
14
 93
        0
 40
0.045
309
GRIDFORMAT_END
309
TABLEFORMAT_END
  1
CELLSTYLE_BEGIN
 90
        3
 91
        2
300
_DATA
309
CELLSTYLE_END
  0
ENDSEC
  0
EOF
