  0
SECTION
  2
HEADER
  9
$ACADVER
  1
AC1024
  9
$ACADMAINTVER
 70
     6
  9
$DWGCODEPAGE
  3
ANSI_1252
  9
$INSBASE
 10
0.0
 20
0.0
 30
0.0
  9
$EXTMIN
 10
0.0
 20
0.0
 30
0.0
  9
$EXTMAX
 10
237.5
 20
237.5
 30
2.0
  9
$LIMMIN
 10
0.0
 20
0.0
  9
$LIMMAX
 10
420.0
 20
297.0
  9
$ORTHOMODE
 70
     0
  9
$REGENMODE
 70
     1
  9
$FILLMODE
 70
     1
  9
$QTEXTMODE
 70
     0
  9
$MIRRTEXT
 70
     1
  9
$LTSCALE
 40
1.0
  9
$ATTMODE
 70
     1
  9
$TEXTSIZE
 40
2.5
  9
$TRACEWID
 40
1.0
  9
$TEXTSTYLE
  7
Standard
  9
$CLAYER
  8
0
  9
$CELTYPE
  6
ByLayer
  9
$CECOLOR
 62
   256
  9
$CELTSCALE
 40
1.0
  9
$DISPSILH
 70
     0
  9
$DIMSCALE
 40
1.0
  9
$DIMASZ
 40
2.5
  9
$DIMEXO
 40
0.625
  9
$DIMDLI
 40
3.75
  9
$DIMRND
 40
0.0
  9
$DIMDLE
 40
0.0
  9
$DIMEXE
 40
1.25
  9
$DIMTP
 40
0.0
  9
$DIMTM
 40
0.0
  9
$DIMTXT
 40
2.5
  9
$DIMCEN
 40
2.5
  9
$DIMTSZ
 40
0.0
  9
$DIMTOL
 70
     0
  9
$DIMLIM
 70
     0
  9
$DIMTIH
 70
     0
  9
$DIMTOH
 70
     0
  9
$DIMSE1
 70
     0
  9
$DIMSE2
 70
     0
  9
$DIMTAD
 70
     1
  9
$DIMZIN
 70
     8
  9
$DIMBLK
  1

  9
$DIMASO
 70
     1
  9
$DIMSHO
 70
     1
  9
$DIMPOST
  1

  9
$DIMAPOST
  1

  9
$DIMALT
 70
     0
  9
$DIMALTD
 70
     3
  9
$DIMALTF
 40
0.03937
  9
$DIMLFAC
 40
1.0
  9
$DIMTOFL
 70
     1
  9
$DIMTVP
 40
0.0
  9
$DIMTIX
 70
     0
  9
$DIMSOXD
 70
     0
  9
$DIMSAH
 70
     0
  9
$DIMBLK1
  1

  9
$DIMBLK2
  1

  9
$DIMSTYLE
  2
Standard
  9
$DIMCLRD
 70
     0
  9
$DIMCLRE
 70
     0
  9
$DIMCLRT
 70
     0
  9
$DIMTFAC
 40
1.0
  9
$DIMGAP
 40
0.625
  9
$DIMJUST
 70
     0
  9
$DIMSD1
 70
     0
  9
$DIMSD2
 70
     0
  9
$DIMTOLJ
 70
     0
  9
$DIMTZIN
 70
     8
  9
$DIMALTZ
 70
     0
  9
$DIMALTTZ
 70
     0
  9
$DIMUPT
 70
     0
  9
$DIMDEC
 70
     2
  9
$DIMTDEC
 70
     2
  9
$DIMALTU
 70
     2
  9
$DIMALTTD
 70
     3
  9
$DIMTXSTY
  7
Standard
  9
$DIMAUNIT
 70
     0
  9
$DIMADEC
 70
     0
  9
$DIMALTRND
 40
0.0
  9
$DIMAZIN
 70
     0
  9
$DIMDSEP
 70
    44
  9
$DIMATFIT
 70
     0
  9
$DIMFRAC
 70
     0
  9
$DIMLDRBLK
  1

  9
$DIMLUNIT
 70
     2
  9
$DIMLWD
 70
    -2
  9
$DIMLWE
 70
    -2
  9
$DIMTMOVE
 70
     0
  9
$DIMFXL
 40
1.0
  9
$DIMFXLON
 70
     0
  9
$DIMJOGANG
 40
0.785398
  9
$DIMTFILL
 70
     0
  9
$DIMTFILLCLR
 70
     0
  9
$DIMARCSYM
 70
     0
  9
$DIMLTYPE
  6

  9
$DIMLTEX1
  6

  9
$DIMLTEX2
  6

  9
$DIMTXTDIRECTION
 70
     0
  9
$LUNITS
 70
     2
  9
$LUPREC
 70
     4
  9
$SKETCHINC
 40
1.0
  9
$FILLETRAD
 40
2.5
  9
$AUNITS
 70
     0
  9
$AUPREC
 70
     0
  9
$MENU
  1
.
  9
$ELEVATION
 40
0.0
  9
$PELEVATION
 40
0.0
  9
$THICKNESS
 40
0.0
  9
$LIMCHECK
 70
     0
  9
$CHAMFERA
 40
2.5
  9
$CHAMFERB
 40
2.5
  9
$CHAMFERC
 40
0.0
  9
$CHAMFERD
 40
0.0
  9
$SKPOLY
 70
     0
  9
$TDCREATE
 40
2447893.083333333
  9
$TDUCREATE
 40
0.0
  9
$TDUPDATE
 40
2458650.4056614
  9
$TDUUPDATE
 40
2458650.322328067
  9
$TDINDWG
 40
0.0
  9
$TDUSRTIMER
 40
0.0
  9
$USRTIMER
 70
     1
  9
$ANGBASE
 50
0.0
  9
$ANGDIR
 70
     0
  9
$PDMODE
 70
     0
  9
$PDSIZE
 40
0.0
  9
$PLINEWID
 40
0.0
  9
$SPLFRAME
 70
     0
  9
$SPLINETYPE
 70
     6
  9
$SPLINESEGS
 70
     8
  9
$HANDSEED
  5
1AF
  9
$SURFTAB1
 70
     6
  9
$SURFTAB2
 70
     6
  9
$SURFTYPE
 70
     6
  9
$SURFU
 70
     6
  9
$SURFV
 70
     6
  9
$UCSBASE
  2

  9
$UCSNAME
  2

  9
$UCSORG
 10
0.0
 20
0.0
 30
0.0
  9
$UCSXDIR
 10
1.0
 20
0.0
 30
0.0
  9
$UCSYDIR
 10
0.0
 20
1.0
 30
0.0
  9
$UCSORTHOREF
  2

  9
$UCSORTHOVIEW
 70
     1
  9
$UCSORGTOP
 10
0.0
 20
0.0
 30
0.0
  9
$UCSORGBOTTOM
 10
0.0
 20
0.0
 30
0.0
  9
$UCSORGLEFT
 10
0.0
 20
0.0
 30
0.0
  9
$UCSORGRIGHT
 10
0.0
 20
0.0
 30
0.0
  9
$UCSORGFRONT
 10
0.0
 20
0.0
 30
0.0
  9
$UCSORGBACK
 10
0.0
 20
0.0
 30
0.0
  9
$PUCSBASE
  2

  9
$PUCSNAME
  2

  9
$PUCSORG
 10
0.0
 20
0.0
 30
0.0
  9
$PUCSXDIR
 10
1.0
 20
0.0
 30
0.0
  9
$PUCSYDIR
 10
0.0
 20
1.0
 30
0.0
  9
$PUCSORTHOREF
  2

  9
$PUCSORTHOVIEW
 70
     0
  9
$PUCSORGTOP
 10
0.0
 20
0.0
 30
0.0
  9
$PUCSORGBOTTOM
 10
0.0
 20
0.0
 30
0.0
  9
$PUCSORGLEFT
 10
0.0
 20
0.0
 30
0.0
  9
$PUCSORGRIGHT
 10
0.0
 20
0.0
 30
0.0
  9
$PUCSORGFRONT
 10
0.0
 20
0.0
 30
0.0
  9
$PUCSORGBACK
 10
0.0
 20
0.0
 30
0.0
  9
$USERI1
 70
     0
  9
$USERI2
 70
     0
  9
$USERI3
 70
     0
  9
$USERI4
 70
     0
  9
$USERI5
 70
     0
  9
$USERR1
 40
0.0
  9
$USERR2
 40
0.0
  9
$USERR3
 40
0.0
  9
$USERR4
 40
0.0
  9
$USERR5
 40
0.0
  9
$WORLDVIEW
 70
     1
  9
$SHADEDGE
 70
     3
  9
$SHADEDIF
 70
    70
  9
$TILEMODE
 70
     1
  9
$MAXACTVP
 70
    64
  9
$PINSBASE
 10
0.0
 20
0.0
 30
0.0
  9
$PLIMCHECK
 70
     0
  9
$PEXTMIN
 10
0.0
 20
0.0
 30
0.0
  9
$PEXTMAX
 10
237.5
 20
237.5
 30
2.0
  9
$PLIMMIN
 10
0.0
 20
0.0
  9
$PLIMMAX
 10
420.0
 20
297.0
  9
$UNITMODE
 70
     0
  9
$VISRETAIN
 70
     0
  9
$PLINEGEN
 70
     0
  9
$PSLTSCALE
 70
     1
  9
$TREEDEPTH
 70
  3020
  9
$CMLSTYLE
  2
Standard
  9
$CMLJUST
 70
     0
  9
$CMLSCALE
 40
20.0
  9
$PROXYGRAPHICS
 70
     1
  9
$MEASUREMENT
 70
     1
  9
$CELWEIGHT
370
    -1
  9
$ENDCAPS
280
     0
  9
$JOINSTYLE
280
     0
  9
$LWDISPLAY
290
     0
  9
$INSUNITS
 70
     0
  9
$HYPERLINKBASE
  1

  9
$STYLESHEET
  1

  9
$XEDIT
290
     1
  9
$CEPSNTYPE
380
     0
  9
$PSTYLEMODE
290
     0
  9
$FINGERPRINTGUID
  2
{8B1983AB-2804-40E6-90BD-B3AB3B6F7981}
  9
$VERSIONGUID
  2
{FAEB1C32-E019-11D5-929B-00C0DF256EC4}
  9
$EXTNAMES
290
     1
  9
$PSVPSCALE
 40
0.0
  9
$OLESTARTUP
290
     0
  9
$SORTENTS
280
     0
  9
$INDEXCTL
280
     0
  9
$HIDETEXT
280
     0
  9
$XCLIPFRAME
280
     0
  9
$HALOGAP
280
     0
  9
$OBSCOLOR
 70
     0
  9
$OBSLTYPE
280
     0
  9
$INTERSECTIONDISPLAY
280
     0
  9
$INTERSECTIONCOLOR
 70
     0
  9
$DIMASSOC
280
     0
  9
$PROJECTNAME
  1

  9
$CAMERADISPLAY
290
     0
  9
$LENSLENGTH
 40
50.0
  9
$CAMERAHEIGHT
 40
0.0
  9
$STEPSPERSEC
 40
2.0
  9
$STEPSIZE
 40
6.0
  9
$3DDWFPREC
 40
2.0
  9
$PSOLWIDTH
 40
0.25
  9
$PSOLHEIGHT
 40
4.0
  9
$LOFTANG1
 40
1.570796
  9
$LOFTANG2
 40
1.570796
  9
$LOFTMAG1
 40
0.0
  9
$LOFTMAG2
 40
0.0
  9
$LOFTPARAM
 70
     7
  9
$LOFTNORMALS
280
     1
  9
$LATITUDE
 40
37.795
  9
$LONGITUDE
 40
-122.394
  9
$NORTHDIRECTION
 40
0.0
  9
$TIMEZONE
 70
 -8000
  9
$LIGHTGLYPHDISPLAY
280
     1
  9
$TILEMODELIGHTSYNCH
280
     1
  9
$CMATERIAL
347
44
  9
$SOLIDHIST
280
     0
  9
$SHOWHIST
280
     1
  9
$DWFFRAME
280
     2
  9
$DGNFRAME
280
     2
  9
$REALWORLDSCALE
290
     1
  9
$INTERFERECOLOR
 62
   256
  9
$CSHADOW
280
     0
  9
$SHADOWPLANELOCATION
 40
0.0
  0
ENDSEC
  0
SECTION
  2
CLASSES
  0
CLASS
  1
ACDBDICTIONARYWDFLT
  2
AcDbDictionaryWithDefault
  3
ObjectDBX Classes
 90
        0
 91
        4
280
     0
281
     0
  0
CLASS
  1
VISUALSTYLE
  2
AcDbVisualStyle
  3
ObjectDBX Classes
 90
     4095
 91
        4
280
     0
281
     0
  0
CLASS
  1
MATERIAL
  2
AcDbMaterial
  3
ObjectDBX Classes
 90
     1153
 91
        4
280
     0
281
     0
  0
CLASS
  1
SCALE
  2
AcDbScale
  3
ObjectDBX Classes
 90
     1153
 91
        4
280
     0
281
     0
  0
CLASS
  1
TABLESTYLE
  2
AcDbTableStyle
  3
ObjectDBX Classes
 90
     4095
 91
        4
280
     0
281
     0
  0
CLASS
  1
MLEADERSTYLE
  2
AcDbMLeaderStyle
  3
ACDB_MLEADERSTYLE_CLASS
 90
     4095
 91
        4
280
     0
281
     0
  0
CLASS
  1
SUN
  2
AcDbSun
  3
SCENEOE
 90
     1153
 91
        4
280
     0
281
     0
  0
CLASS
  1
DICTIONARYVAR
  2
AcDbDictionaryVar
  3
ObjectDBX Classes
 90
        0
 91
        4
280
     0
281
     0
  0
CLASS
  1
CELLSTYLEMAP
  2
AcDbCellStyleMap
  3
ObjectDBX Classes
 90
     1152
 91
        4
280
     0
281
     0
  0
ENDSEC
  0
SECTION
  2
TABLES
  0
TABLE
  2
VPORT
  5
8
330
0
100
AcDbSymbolTable
 70
     1
  0
VPORT
  5
29
330
8
100
AcDbSymbolTableRecord
100
AcDbViewportTableRecord
  2
*Active
 70
     0
 10
0.0
 20
0.0
 11
1.0
 21
1.0
 12
10.429907
 22
4.5
 13
0.0
 23
0.0
 14
0.5
 24
0.5
 15
0.5
 25
0.5
 16
0.0
 26
0.0
 36
1.0
 17
0.0
 27
0.0
 37
0.0
 40
9.0
 41
1.972973
 42
50.0
 43
0.0
 44
0.0
 50
0.0
 51
0.0
 71
     0
 72
   100
 73
     1
 74
     3
 75
     0
 76
     0
 77
     0
 78
     0
281
     0
 65
     1
110
0.0
120
0.0
130
0.0
111
1.0
121
0.0
131
0.0
112
0.0
122
1.0
132
0.0
 79
     0
146
0.0
348
2F
 60
     3
 61
     5
292
     1
282
     1
141
0.0
142
0.0
 63
   250
361
6D
  0
ENDTAB
  0
TABLE
  2
LTYPE
  5
5
330
0
100
AcDbSymbolTable
 70
     1
  0
LTYPE
  5
14
330
5
100
AcDbSymbolTableRecord
100
AcDbLinetypeTableRecord
  2
ByBlock
 70
     0
  3

 72
    65
 73
     0
 40
0.0
  0
LTYPE
  5
15
330
5
100
AcDbSymbolTableRecord
100
AcDbLinetypeTableRecord
  2
ByLayer
 70
     0
  3

 72
    65
 73
     0
 40
0.0
  0
LTYPE
  5
16
330
5
100
AcDbSymbolTableRecord
100
AcDbLinetypeTableRecord
  2
Continuous
 70
     0
  3
Solid line
 72
    65
 73
     0
 40
0.0
  0
ENDTAB
  0
TABLE
  2
LAYER
  5
2
330
0
100
AcDbSymbolTable
 70
     1
  0
LAYER
  5
10
330
2
100
AcDbSymbolTableRecord
100
AcDbLayerTableRecord
  2
0
 70
     0
 62
     7
  6
Continuous
370
    -3
390
F
347
46
  0
ENDTAB
  0
TABLE
  2
STYLE
  5
3
330
0
100
AcDbSymbolTable
 70
     1
  0
STYLE
  5
11
330
3
100
AcDbSymbolTableRecord
100
AcDbTextStyleTableRecord
  2
Standard
 70
     0
 40
0.0
 41
1.0
 50
0.0
 71
     0
 42
2.5
  3
txt
  4

  0
ENDTAB
  0
TABLE
  2
VIEW
  5
6
330
0
100
AcDbSymbolTable
 70
     0
  0
ENDTAB
  0
TABLE
  2
UCS
  5
7
330
0
100
AcDbSymbolTable
 70
     0
  0
ENDTAB
  0
TABLE
  2
APPID
  5
9
330
0
100
AcDbSymbolTable
 70
     1
  0
APPID
  5
12
330
9
100
AcDbSymbolTableRecord
100
AcDbRegAppTableRecord
  2
ACAD
 70
     0
  0
ENDTAB
  0
TABLE
  2
DIMSTYLE
  5
A
330
0
100
AcDbSymbolTable
 70
     1
100
AcDbDimStyleTable
  0
DIMSTYLE
105
27
330
A
100
AcDbSymbolTableRecord
100
AcDbDimStyleTableRecord
  2
Standard
 70
     0
178
     0
340
11
  0
ENDTAB
  0
TABLE
  2
BLOCK_RECORD
  5
1
330
0
100
AcDbSymbolTable
 70
     1
  0
BLOCK_RECORD
  5
1F
330
1
100
AcDbSymbolTableRecord
100
AcDbBlockTableRecord
  2
*Model_Space
340
22
 70
     0
280
     1
281
     0
  0
BLOCK_RECORD
  5
1B
330
1
100
AcDbSymbolTableRecord
100
AcDbBlockTableRecord
  2
*Paper_Space
340
1E
 70
     0
280
     1
281
     0
  0
BLOCK_RECORD
  5
23
330
1
100
AcDbSymbolTableRecord
100
AcDbBlockTableRecord
  2
*Paper_Space0
340
26
 70
     0
280
     1
281
     0
  0
ENDTAB
  0
ENDSEC
  0
SECTION
  2
BLOCKS
  0
BLOCK
  5
20
330
1F
100
AcDbEntity
  8
0
100
AcDbBlockBegin
  2
*Model_Space
 70
     0
 10
0.0
 20
0.0
 30
0.0
  3
*Model_Space
  1

  0
ENDBLK
  5
21
330
1F
100
AcDbEntity
  8
0
100
AcDbBlockEnd
  0
BLOCK
  5
1C
330
1B
100
AcDbEntity
 67
     1
  8
0
100
AcDbBlockBegin
  2
*Paper_Space
 70
     0
 10
0.0
 20
0.0
 30
0.0
  3
*Paper_Space
  1

  0
ENDBLK
  5
1D
330
1B
100
AcDbEntity
 67
     1
  8
0
100
AcDbBlockEnd
  0
BLOCK
  5
24
330
23
100
AcDbEntity
  8
0
100
AcDbBlockBegin
  2
*Paper_Space0
 70
     0
 10
0.0
 20
0.0
 30
0.0
  3
*Paper_Space0
  1

  0
ENDBLK
  5
25
330
23
100
AcDbEntity
  8
0
100
AcDbBlockEnd
  0
ENDSEC
  0
SECTION
  2
ENTITIES
  0
ARC
  5
6E
330
1F
100
AcDbEntity
  8
0
 62
     1
370
    13
100
AcDbCircle
 10
150.0
 20
150.0
 30
0.0
 40
87.5
100
AcDbArc
 50
210.58897
 51
184.75184
  0
CIRCLE
  5
6F
330
1F
100
AcDbEntity
  8
0
 62
     1
370
    13
100
AcDbCircle
 10
187.5
 20
85.048096
 30
0.0
 40
4.3
  0
CIRCLE
  5
70
330
1F
100
AcDbEntity
  8
0
 62
     1
370
    13
100
AcDbCircle
 10
75.0
 20
150.0
 30
0.0
 40
4.3
  0
CIRCLE
  5
71
330
1F
100
AcDbEntity
  8
0
 62
     1
370
    13
100
AcDbCircle
 10
187.5
 20
214.951904
 30
0.0
 40
4.3
  0
ARC
  5
72
330
1F
100
AcDbEntity
  8
0
 62
     1
370
    13
100
AcDbCircle
 10
77.259018
 20
107.0
 30
0.0
 40
3.000000000000001
100
AcDbArc
 50
90.000003
 51
210.58897
  0
ARC
  5
73
330
1F
100
AcDbEntity
  8
0
 62
     1
370
    13
100
AcDbCircle
 10
65.790443
 20
143.0
 30
0.0
 40
3.0
100
AcDbArc
 50
184.75184
 51
269.999997
  0
LINE
  5
74
330
1F
100
AcDbEntity
  8
0
 62
     1
370
    13
100
AcDbLine
 10
200.0
 20
99.0
 30
0.0
 11
100.0
 21
99.0
 31
0.0
  0
ARC
  5
75
330
1F
100
AcDbEntity
  8
0
 62
     1
370
    13
100
AcDbCircle
 10
200.0
 20
100.0
 30
0.0
 40
1.0
100
AcDbArc
 50
269.999997
 51
360.0
  0
ARC
  5
76
330
1F
100
AcDbEntity
  8
0
 62
     1
370
    13
100
AcDbCircle
 10
100.0
 20
100.0
 30
0.0
 40
1.0
100
AcDbArc
 50
180.000005
 51
269.999997
  0
LINE
  5
77
330
1F
100
AcDbEntity
  8
0
 62
     1
370
    13
100
AcDbLine
 10
201.0
 20
200.0
 30
0.0
 11
201.0
 21
100.0
 31
0.0
  0
ARC
  5
78
330
1F
100
AcDbEntity
  8
0
 62
     1
370
    13
100
AcDbCircle
 10
200.0
 20
200.0
 30
0.0
 40
1.0
100
AcDbArc
 50
0.0
 51
90.000003
  0
LINE
  5
79
330
1F
100
AcDbEntity
  8
0
 62
     1
370
    13
100
AcDbLine
 10
99.0
 20
109.0
 30
0.0
 11
99.0
 21
100.0
 31
0.0
  0
ARC
  5
7A
330
1F
100
AcDbEntity
  8
0
 62
     1
370
    13
100
AcDbCircle
 10
98.0
 20
109.0
 30
0.0
 40
1.0
100
AcDbArc
 50
0.0
 51
90.000003
  0
ARC
  5
7B
330
1F
100
AcDbEntity
  8
0
 62
     1
370
    13
100
AcDbCircle
 10
100.0
 20
200.0
 30
0.0
 40
1.0
100
AcDbArc
 50
90.000003
 51
180.000005
  0
LINE
  5
7C
330
1F
100
AcDbEntity
  8
0
 62
     1
370
    13
100
AcDbLine
 10
77.259018
 20
110.0
 30
0.0
 11
98.0
 21
110.0
 31
0.0
  0
LINE
  5
7D
330
1F
100
AcDbEntity
  8
0
 62
     1
370
    13
100
AcDbLine
 10
99.0
 20
187.0
 30
0.0
 11
99.0
 21
200.0
 31
0.0
  0
ARC
  5
7E
330
1F
100
AcDbEntity
  8
0
 62
     1
370
    13
100
AcDbCircle
 10
98.0
 20
187.0
 30
0.0
 40
1.0
100
AcDbArc
 50
269.999997
 51
360.0
  0
LINE
  5
7F
330
1F
100
AcDbEntity
  8
0
 62
     1
370
    13
100
AcDbLine
 10
86.0
 20
186.0
 30
0.0
 11
98.0
 21
186.0
 31
0.0
  0
ARC
  5
80
330
1F
100
AcDbEntity
  8
0
 62
     1
370
    13
100
AcDbCircle
 10
86.0
 20
185.0
 30
0.0
 40
1.0
100
AcDbArc
 50
90.000003
 51
180.000005
  0
LINE
  5
81
330
1F
100
AcDbEntity
  8
0
 62
     1
370
    13
100
AcDbLine
 10
85.0
 20
141.0
 30
0.0
 11
85.0
 21
185.0
 31
0.0
  0
ARC
  5
82
330
1F
100
AcDbEntity
  8
0
 62
     1
370
    13
100
AcDbCircle
 10
84.0
 20
141.0
 30
0.0
 40
1.0
100
AcDbArc
 50
269.999997
 51
360.0
  0
LINE
  5
83
330
1F
100
AcDbEntity
  8
0
 62
     1
370
    13
100
AcDbLine
 10
84.0
 20
140.0
 30
0.0
 11
65.790443
 21
140.0
 31
0.0
  0
LINE
  5
84
330
1F
100
AcDbEntity
  8
0
 62
     1
370
    13
100
AcDbLine
 10
74.898933
 20
167.172806
 30
0.0
 11
74.872116
 21
166.730972
 31
0.0
  0
LINE
  5
85
330
1F
100
AcDbEntity
  8
0
 62
     1
370
    13
100
AcDbLine
 10
74.935791
 20
167.586807
 30
0.0
 11
74.898933
 21
167.172806
 31
0.0
  0
LINE
  5
86
330
1F
100
AcDbEntity
  8
0
 62
     1
370
    13
100
AcDbLine
 10
74.872116
 20
166.730972
 30
0.0
 11
74.987045
 21
166.863174
 31
0.0
  0
LINE
  5
87
330
1F
100
AcDbEntity
  8
0
 62
     1
370
    13
100
AcDbLine
 10
74.982704
 20
167.973007
 30
0.0
 11
74.935791
 21
167.586807
 31
0.0
  0
LINE
  5
88
330
1F
100
AcDbEntity
  8
0
 62
     1
370
    13
100
AcDbLine
 10
74.987045
 20
166.863174
 30
0.0
 11
75.103989
 21
166.988327
 31
0.0
  0
LINE
  5
89
330
1F
100
AcDbEntity
  8
0
 62
     1
370
    13
100
AcDbLine
 10
75.03965
 20
168.331375
 30
0.0
 11
74.982704
 21
167.973007
 31
0.0
  0
LINE
  5
8A
330
1F
100
AcDbEntity
  8
0
 62
     1
370
    13
100
AcDbLine
 10
75.103989
 20
166.988327
 30
0.0
 11
75.222961
 21
167.106461
 31
0.0
  0
LINE
  5
8B
330
1F
100
AcDbEntity
  8
0
 62
     1
370
    13
100
AcDbLine
 10
75.106682
 20
168.661957
 30
0.0
 11
75.03965
 21
168.331375
 31
0.0
  0
LINE
  5
8C
330
1F
100
AcDbEntity
  8
0
 62
     1
370
    13
100
AcDbLine
 10
75.222961
 20
167.106461
 30
0.0
 11
75.343918
 21
167.21756
 31
0.0
  0
LINE
  5
8D
330
1F
100
AcDbEntity
  8
0
 62
     1
370
    13
100
AcDbLine
 10
75.183746
 20
168.964706
 30
0.0
 11
75.106682
 21
168.661957
 31
0.0
  0
LINE
  5
8E
330
1F
100
AcDbEntity
  8
0
 62
     1
370
    13
100
AcDbLine
 10
75.343918
 20
167.21756
 30
0.0
 11
75.466904
 21
167.321594
 31
0.0
  0
LINE
  5
8F
330
1F
100
AcDbEntity
  8
0
 62
     1
370
    13
100
AcDbLine
 10
75.270866
 20
169.239655
 30
0.0
 11
75.183746
 21
168.964706
 31
0.0
  0
LINE
  5
90
330
1F
100
AcDbEntity
  8
0
 62
     1
370
    13
100
AcDbLine
 10
75.466904
 20
167.321594
 30
0.0
 11
75.591896
 21
167.41861
 31
0.0
  0
LINE
  5
91
330
1F
100
AcDbEntity
  8
0
 62
     1
370
    13
100
AcDbLine
 10
75.36805
 20
169.486801
 30
0.0
 11
75.270866
 21
169.239655
 31
0.0
  0
LINE
  5
92
330
1F
100
AcDbEntity
  8
0
 62
     1
370
    13
100
AcDbLine
 10
75.591896
 20
167.41861
 30
0.0
 11
75.718895
 21
167.508575
 31
0.0
  0
LINE
  5
93
330
1F
100
AcDbEntity
  8
0
 62
     1
370
    13
100
AcDbLine
 10
75.475288
 20
169.7061
 30
0.0
 11
75.36805
 21
169.486801
 31
0.0
  0
LINE
  5
94
330
1F
100
AcDbEntity
  8
0
 62
     1
370
    13
100
AcDbLine
 10
75.718895
 20
167.508575
 30
0.0
 11
75.847908
 21
167.591492
 31
0.0
  0
LINE
  5
95
330
1F
100
AcDbEntity
  8
0
 62
     1
370
    13
100
AcDbLine
 10
75.59256
 20
169.897583
 30
0.0
 11
75.475288
 21
169.7061
 31
0.0
  0
LINE
  5
96
330
1F
100
AcDbEntity
  8
0
 62
     1
370
    13
100
AcDbLine
 10
75.847908
 20
167.591492
 30
0.0
 11
75.97892
 21
167.667389
 31
0.0
  0
LINE
  5
97
330
1F
100
AcDbEntity
  8
0
 62
     1
370
    13
100
AcDbLine
 10
75.654259
 20
169.982941
 30
0.0
 11
75.59256
 21
169.897583
 31
0.0
  0
LINE
  5
98
330
1F
100
AcDbEntity
  8
0
 62
     1
370
    13
100
AcDbLine
 10
75.97892
 20
167.667389
 30
0.0
 11
76.111961
 21
167.736282
 31
0.0
  0
LINE
  5
99
330
1F
100
AcDbEntity
  8
0
 62
     1
370
    13
100
AcDbLine
 10
75.718719
 20
170.064651
 30
0.0
 11
75.654259
 21
169.982941
 31
0.0
  0
LINE
  5
9A
330
1F
100
AcDbEntity
  8
0
 62
     1
370
    13
100
AcDbLine
 10
76.111961
 20
167.736282
 30
0.0
 11
76.247574
 21
167.79834
 31
0.0
  0
LINE
  5
9B
330
1F
100
AcDbEntity
  8
0
 62
     1
370
    13
100
AcDbLine
 10
75.785957
 20
170.142746
 30
0.0
 11
75.718719
 21
170.064651
 31
0.0
  0
LINE
  5
9C
330
1F
100
AcDbEntity
  8
0
 62
     1
370
    13
100
AcDbLine
 10
76.247574
 20
167.79834
 30
0.0
 11
76.386383
 21
167.853882
 31
0.0
  0
LINE
  5
9D
330
1F
100
AcDbEntity
  8
0
 62
     1
370
    13
100
AcDbLine
 10
75.855957
 20
170.2173
 30
0.0
 11
75.785957
 21
170.142746
 31
0.0
  0
LINE
  5
9E
330
1F
100
AcDbEntity
  8
0
 62
     1
370
    13
100
AcDbLine
 10
76.386383
 20
167.853882
 30
0.0
 11
76.528397
 21
167.902878
 31
0.0
  0
LINE
  5
9F
330
1F
100
AcDbEntity
  8
0
 62
     1
370
    13
100
AcDbLine
 10
75.928703
 20
170.288193
 30
0.0
 11
75.855957
 21
170.2173
 31
0.0
  0
LINE
  5
A0
330
1F
100
AcDbEntity
  8
0
 62
     1
370
    13
100
AcDbLine
 10
76.528397
 20
167.902878
 30
0.0
 11
76.673584
 21
167.945374
 31
0.0
  0
LINE
  5
A1
330
1F
100
AcDbEntity
  8
0
 62
     1
370
    13
100
AcDbLine
 10
76.004219
 20
170.355499
 30
0.0
 11
75.928703
 21
170.288193
 31
0.0
  0
LINE
  5
A2
330
1F
100
AcDbEntity
  8
0
 62
     1
370
    13
100
AcDbLine
 10
76.673584
 20
167.945374
 30
0.0
 11
76.821945
 21
167.981293
 31
0.0
  0
LINE
  5
A3
330
1F
100
AcDbEntity
  8
0
 62
     1
370
    13
100
AcDbLine
 10
76.082527
 20
170.419235
 30
0.0
 11
76.004219
 21
170.355499
 31
0.0
  0
LINE
  5
A4
330
1F
100
AcDbEntity
  8
0
 62
     1
370
    13
100
AcDbLine
 10
76.821945
 20
167.981293
 30
0.0
 11
76.97348
 21
168.010696
 31
0.0
  0
LINE
  5
A5
330
1F
100
AcDbEntity
  8
0
 62
     1
370
    13
100
AcDbLine
 10
76.163574
 20
170.479324
 30
0.0
 11
76.082527
 21
170.419235
 31
0.0
  0
LINE
  5
A6
330
1F
100
AcDbEntity
  8
0
 62
     1
370
    13
100
AcDbLine
 10
76.97348
 20
168.010696
 30
0.0
 11
77.12822
 21
168.033569
 31
0.0
  0
LINE
  5
A7
330
1F
100
AcDbEntity
  8
0
 62
     1
370
    13
100
AcDbLine
 10
76.247368
 20
170.535843
 30
0.0
 11
76.163574
 21
170.479324
 31
0.0
  0
LINE
  5
A8
330
1F
100
AcDbEntity
  8
0
 62
     1
370
    13
100
AcDbLine
 10
77.12822
 20
168.033569
 30
0.0
 11
77.286125
 21
168.049927
 31
0.0
  0
LINE
  5
A9
330
1F
100
AcDbEntity
  8
0
 62
     1
370
    13
100
AcDbLine
 10
76.333961
 20
170.58873
 30
0.0
 11
76.247368
 21
170.535843
 31
0.0
  0
LINE
  5
AA
330
1F
100
AcDbEntity
  8
0
 62
     1
370
    13
100
AcDbLine
 10
77.286125
 20
168.049927
 30
0.0
 11
77.447212
 21
168.059692
 31
0.0
  0
LINE
  5
AB
330
1F
100
AcDbEntity
  8
0
 62
     1
370
    13
100
AcDbLine
 10
76.421967
 20
170.637299
 30
0.0
 11
76.333961
 21
170.58873
 31
0.0
  0
LINE
  5
AC
330
1F
100
AcDbEntity
  8
0
 62
     1
370
    13
100
AcDbLine
 10
77.447212
 20
168.059692
 30
0.0
 11
77.611504
 21
168.062973
 31
0.0
  0
LINE
  5
AD
330
1F
100
AcDbEntity
  8
0
 62
     1
370
    13
100
AcDbLine
 10
76.510033
 20
170.680725
 30
0.0
 11
76.421967
 21
170.637299
 31
0.0
  0
LINE
  5
AE
330
1F
100
AcDbEntity
  8
0
 62
     1
370
    13
100
AcDbLine
 10
77.611504
 20
168.062973
 30
0.0
 11
77.769463
 21
168.059998
 31
0.0
  0
LINE
  5
AF
330
1F
100
AcDbEntity
  8
0
 62
     1
370
    13
100
AcDbLine
 10
76.598221
 20
170.719025
 30
0.0
 11
76.510033
 21
170.680725
 31
0.0
  0
LINE
  5
B0
330
1F
100
AcDbEntity
  8
0
 62
     1
370
    13
100
AcDbLine
 10
77.769463
 20
168.059998
 30
0.0
 11
77.924965
 21
168.051086
 31
0.0
  0
LINE
  5
B1
330
1F
100
AcDbEntity
  8
0
 62
     1
370
    13
100
AcDbLine
 10
76.686485
 20
170.752274
 30
0.0
 11
76.598221
 21
170.719025
 31
0.0
  0
LINE
  5
B2
330
1F
100
AcDbEntity
  8
0
 62
     1
370
    13
100
AcDbLine
 10
77.924965
 20
168.051086
 30
0.0
 11
78.078079
 21
168.036209
 31
0.0
  0
LINE
  5
B3
330
1F
100
AcDbEntity
  8
0
 62
     1
370
    13
100
AcDbLine
 10
76.774803
 20
170.780365
 30
0.0
 11
76.686485
 21
170.752274
 31
0.0
  0
LINE
  5
B4
330
1F
100
AcDbEntity
  8
0
 62
     1
370
    13
100
AcDbLine
 10
78.078079
 20
168.036209
 30
0.0
 11
78.228722
 21
168.015396
 31
0.0
  0
LINE
  5
B5
330
1F
100
AcDbEntity
  8
0
 62
     1
370
    13
100
AcDbLine
 10
76.863243
 20
170.80336
 30
0.0
 11
76.774803
 21
170.780365
 31
0.0
  0
LINE
  5
B6
330
1F
100
AcDbEntity
  8
0
 62
     1
370
    13
100
AcDbLine
 10
78.228722
 20
168.015396
 30
0.0
 11
78.376984
 21
167.988632
 31
0.0
  0
LINE
  5
B7
330
1F
100
AcDbEntity
  8
0
 62
     1
370
    13
100
AcDbLine
 10
76.951736
 20
170.821259
 30
0.0
 11
76.863243
 21
170.80336
 31
0.0
  0
LINE
  5
B8
330
1F
100
AcDbEntity
  8
0
 62
     1
370
    13
100
AcDbLine
 10
78.376984
 20
167.988632
 30
0.0
 11
78.522781
 21
167.955933
 31
0.0
  0
LINE
  5
B9
330
1F
100
AcDbEntity
  8
0
 62
     1
370
    13
100
AcDbLine
 10
77.040337
 20
170.834015
 30
0.0
 11
76.951736
 21
170.821259
 31
0.0
  0
LINE
  5
BA
330
1F
100
AcDbEntity
  8
0
 62
     1
370
    13
100
AcDbLine
 10
78.522781
 20
167.955933
 30
0.0
 11
78.666161
 21
167.917252
 31
0.0
  0
LINE
  5
BB
330
1F
100
AcDbEntity
  8
0
 62
     1
370
    13
100
AcDbLine
 10
77.129005
 20
170.84169
 30
0.0
 11
77.040337
 21
170.834015
 31
0.0
  0
LINE
  5
BC
330
1F
100
AcDbEntity
  8
0
 62
     1
370
    13
100
AcDbLine
 10
78.666161
 20
167.917252
 30
0.0
 11
78.807106
 21
167.87265
 31
0.0
  0
LINE
  5
BD
330
1F
100
AcDbEntity
  8
0
 62
     1
370
    13
100
AcDbLine
 10
77.217751
 20
170.844254
 30
0.0
 11
77.129005
 21
170.84169
 31
0.0
  0
LINE
  5
BE
330
1F
100
AcDbEntity
  8
0
 62
     1
370
    13
100
AcDbLine
 10
78.807106
 20
167.87265
 30
0.0
 11
78.94561
 21
167.822083
 31
0.0
  0
LINE
  5
BF
330
1F
100
AcDbEntity
  8
0
 62
     1
370
    13
100
AcDbLine
 10
77.326996
 20
170.841202
 30
0.0
 11
77.217751
 21
170.844254
 31
0.0
  0
LINE
  5
C0
330
1F
100
AcDbEntity
  8
0
 62
     1
370
    13
100
AcDbLine
 10
78.94561
 20
167.822083
 30
0.0
 11
79.081703
 21
167.765594
 31
0.0
  0
LINE
  5
C1
330
1F
100
AcDbEntity
  8
0
 62
     1
370
    13
100
AcDbLine
 10
77.433548
 20
170.832001
 30
0.0
 11
77.326996
 21
170.841202
 31
0.0
  0
LINE
  5
C2
330
1F
100
AcDbEntity
  8
0
 62
     1
370
    13
100
AcDbLine
 10
79.081703
 20
167.765594
 30
0.0
 11
79.214928
 21
167.703583
 31
0.0
  0
LINE
  5
C3
330
1F
100
AcDbEntity
  8
0
 62
     1
370
    13
100
AcDbLine
 10
77.537437
 20
170.816711
 30
0.0
 11
77.433548
 21
170.832001
 31
0.0
  0
LINE
  5
C4
330
1F
100
AcDbEntity
  8
0
 62
     1
370
    13
100
AcDbLine
 10
79.214928
 20
167.703583
 30
0.0
 11
79.344772
 21
167.636566
 31
0.0
  0
LINE
  5
C5
330
1F
100
AcDbEntity
  8
0
 62
     1
370
    13
100
AcDbLine
 10
77.638634
 20
170.795303
 30
0.0
 11
77.537437
 21
170.816711
 31
0.0
  0
LINE
  5
C6
330
1F
100
AcDbEntity
  8
0
 62
     1
370
    13
100
AcDbLine
 10
79.344772
 20
167.636566
 30
0.0
 11
79.471268
 21
167.564529
 31
0.0
  0
LINE
  5
C7
330
1F
100
AcDbEntity
  8
0
 62
     1
370
    13
100
AcDbLine
 10
77.73716
 20
170.767792
 30
0.0
 11
77.638634
 21
170.795303
 31
0.0
  0
LINE
  5
C8
330
1F
100
AcDbEntity
  8
0
 62
     1
370
    13
100
AcDbLine
 10
79.471268
 20
167.564529
 30
0.0
 11
79.594406
 21
167.487442
 31
0.0
  0
LINE
  5
C9
330
1F
100
AcDbEntity
  8
0
 62
     1
370
    13
100
AcDbLine
 10
77.832993
 20
170.734161
 30
0.0
 11
77.73716
 21
170.767792
 31
0.0
  0
LINE
  5
CA
330
1F
100
AcDbEntity
  8
0
 62
     1
370
    13
100
AcDbLine
 10
79.594406
 20
167.487442
 30
0.0
 11
79.714188
 21
167.40535
 31
0.0
  0
LINE
  5
CB
330
1F
100
AcDbEntity
  8
0
 62
     1
370
    13
100
AcDbLine
 10
77.926132
 20
170.694412
 30
0.0
 11
77.832993
 21
170.734161
 31
0.0
  0
LINE
  5
CC
330
1F
100
AcDbEntity
  8
0
 62
     1
370
    13
100
AcDbLine
 10
79.714188
 20
167.40535
 30
0.0
 11
79.83065
 21
167.318222
 31
0.0
  0
LINE
  5
CD
330
1F
100
AcDbEntity
  8
0
 62
     1
370
    13
100
AcDbLine
 10
78.016632
 20
170.648544
 30
0.0
 11
77.926132
 21
170.694412
 31
0.0
  0
LINE
  5
CE
330
1F
100
AcDbEntity
  8
0
 62
     1
370
    13
100
AcDbLine
 10
79.83065
 20
167.318222
 30
0.0
 11
79.943733
 21
167.226074
 31
0.0
  0
LINE
  5
CF
330
1F
100
AcDbEntity
  8
0
 62
     1
370
    13
100
AcDbLine
 10
78.104416
 20
170.596542
 30
0.0
 11
78.016632
 21
170.648544
 31
0.0
  0
LINE
  5
D0
330
1F
100
AcDbEntity
  8
0
 62
     1
370
    13
100
AcDbLine
 10
79.943733
 20
167.226074
 30
0.0
 11
80.053482
 21
167.128922
 31
0.0
  0
LINE
  5
D1
330
1F
100
AcDbEntity
  8
0
 62
     1
370
    13
100
AcDbLine
 10
78.189529
 20
170.538483
 30
0.0
 11
78.104416
 21
170.596542
 31
0.0
  0
LINE
  5
D2
330
1F
100
AcDbEntity
  8
0
 62
     1
370
    13
100
AcDbLine
 10
80.053482
 20
167.128922
 30
0.0
 11
80.159882
 21
167.026703
 31
0.0
  0
LINE
  5
D3
330
1F
100
AcDbEntity
  8
0
 62
     1
370
    13
100
AcDbLine
 10
78.271042
 20
170.475342
 30
0.0
 11
78.189529
 21
170.538483
 31
0.0
  0
LINE
  5
D4
330
1F
100
AcDbEntity
  8
0
 62
     1
370
    13
100
AcDbLine
 10
80.159882
 20
167.026703
 30
0.0
 11
80.262909
 21
166.919495
 31
0.0
  0
LINE
  5
D5
330
1F
100
AcDbEntity
  8
0
 62
     1
370
    13
100
AcDbLine
 10
78.34803
 20
170.40831
 30
0.0
 11
78.271042
 21
170.475342
 31
0.0
  0
LINE
  5
D6
330
1F
100
AcDbEntity
  8
0
 62
     1
370
    13
100
AcDbLine
 10
80.262909
 20
166.919495
 30
0.0
 11
80.361992
 21
166.807755
 31
0.0
  0
LINE
  5
D7
330
1F
100
AcDbEntity
  8
0
 62
     1
370
    13
100
AcDbLine
 10
78.420494
 20
170.337296
 30
0.0
 11
78.34803
 21
170.40831
 31
0.0
  0
LINE
  5
D8
330
1F
100
AcDbEntity
  8
0
 62
     1
370
    13
100
AcDbLine
 10
80.361992
 20
166.807755
 30
0.0
 11
80.456429
 21
166.692108
 31
0.0
  0
LINE
  5
D9
330
1F
100
AcDbEntity
  8
0
 62
     1
370
    13
100
AcDbLine
 10
78.488441
 20
170.26236
 30
0.0
 11
78.420494
 21
170.337296
 31
0.0
  0
LINE
  5
DA
330
1F
100
AcDbEntity
  8
0
 62
     1
370
    13
100
AcDbLine
 10
80.456429
 20
166.692108
 30
0.0
 11
80.546272
 21
166.572525
 31
0.0
  0
LINE
  5
DB
330
1F
100
AcDbEntity
  8
0
 62
     1
370
    13
100
AcDbLine
 10
78.551834
 20
170.183472
 30
0.0
 11
78.488441
 21
170.26236
 31
0.0
  0
LINE
  5
DC
330
1F
100
AcDbEntity
  8
0
 62
     1
370
    13
100
AcDbLine
 10
80.546272
 20
166.572525
 30
0.0
 11
80.631516
 21
166.448975
 31
0.0
  0
LINE
  5
DD
330
1F
100
AcDbEntity
  8
0
 62
     1
370
    13
100
AcDbLine
 10
78.610741
 20
170.100693
 30
0.0
 11
78.551834
 21
170.183472
 31
0.0
  0
LINE
  5
DE
330
1F
100
AcDbEntity
  8
0
 62
     1
370
    13
100
AcDbLine
 10
80.631516
 20
166.448975
 30
0.0
 11
80.712135
 21
166.321548
 31
0.0
  0
LINE
  5
DF
330
1F
100
AcDbEntity
  8
0
 62
     1
370
    13
100
AcDbLine
 10
78.665123
 20
170.013916
 30
0.0
 11
78.610741
 21
170.100693
 31
0.0
  0
LINE
  5
E0
330
1F
100
AcDbEntity
  8
0
 62
     1
370
    13
100
AcDbLine
 10
80.712135
 20
166.321548
 30
0.0
 11
80.788177
 21
166.190125
 31
0.0
  0
LINE
  5
E1
330
1F
100
AcDbEntity
  8
0
 62
     1
370
    13
100
AcDbLine
 10
78.714958
 20
169.923248
 30
0.0
 11
78.665123
 21
170.013916
 31
0.0
  0
LINE
  5
E2
330
1F
100
AcDbEntity
  8
0
 62
     1
370
    13
100
AcDbLine
 10
80.788177
 20
166.190125
 30
0.0
 11
80.859581
 21
166.054794
 31
0.0
  0
LINE
  5
E3
330
1F
100
AcDbEntity
  8
0
 62
     1
370
    13
100
AcDbLine
 10
78.760269
 20
169.828629
 30
0.0
 11
78.714958
 21
169.923248
 31
0.0
  0
LINE
  5
E4
330
1F
100
AcDbEntity
  8
0
 62
     1
370
    13
100
AcDbLine
 10
80.859581
 20
166.054794
 30
0.0
 11
80.926407
 21
165.915558
 31
0.0
  0
LINE
  5
E5
330
1F
100
AcDbEntity
  8
0
 62
     1
370
    13
100
AcDbLine
 10
78.801064
 20
169.730072
 30
0.0
 11
78.760269
 21
169.828629
 31
0.0
  0
LINE
  5
E6
330
1F
100
AcDbEntity
  8
0
 62
     1
370
    13
100
AcDbLine
 10
80.926407
 20
165.915558
 30
0.0
 11
80.988609
 21
165.772354
 31
0.0
  0
LINE
  5
E7
330
1F
100
AcDbEntity
  8
0
 62
     1
370
    13
100
AcDbLine
 10
78.831131
 20
169.653046
 30
0.0
 11
78.801064
 21
169.730072
 31
0.0
  0
LINE
  5
E8
330
1F
100
AcDbEntity
  8
0
 62
     1
370
    13
100
AcDbLine
 10
80.988609
 20
165.772354
 30
0.0
 11
81.046196
 21
165.625183
 31
0.0
  0
LINE
  5
E9
330
1F
100
AcDbEntity
  8
0
 62
     1
370
    13
100
AcDbLine
 10
78.86441
 20
169.579453
 30
0.0
 11
78.831131
 21
169.653046
 31
0.0
  0
LINE
  5
EA
330
1F
100
AcDbEntity
  8
0
 62
     1
370
    13
100
AcDbLine
 10
81.046196
 20
165.625183
 30
0.0
 11
81.098717
 21
165.475372
 31
0.0
  0
LINE
  5
EB
330
1F
100
AcDbEntity
  8
0
 62
     1
370
    13
100
AcDbLine
 10
78.900856
 20
169.509277
 30
0.0
 11
78.86441
 21
169.579453
 31
0.0
  0
LINE
  5
EC
330
1F
100
AcDbEntity
  8
0
 62
     1
370
    13
100
AcDbLine
 10
81.098717
 20
165.475372
 30
0.0
 11
81.145706
 21
165.324249
 31
0.0
  0
LINE
  5
ED
330
1F
100
AcDbEntity
  8
0
 62
     1
370
    13
100
AcDbLine
 10
78.940453
 20
169.442551
 30
0.0
 11
78.900856
 21
169.509277
 31
0.0
  0
LINE
  5
EE
330
1F
100
AcDbEntity
  8
0
 62
     1
370
    13
100
AcDbLine
 10
81.145706
 20
165.324249
 30
0.0
 11
81.187187
 21
165.171799
 31
0.0
  0
LINE
  5
EF
330
1F
100
AcDbEntity
  8
0
 62
     1
370
    13
100
AcDbLine
 10
78.983284
 20
169.379257
 30
0.0
 11
78.940453
 21
169.442551
 31
0.0
  0
LINE
  5
F0
330
1F
100
AcDbEntity
  8
0
 62
     1
370
    13
100
AcDbLine
 10
81.187187
 20
165.171799
 30
0.0
 11
81.223129
 21
165.018005
 31
0.0
  0
LINE
  5
F1
330
1F
100
AcDbEntity
  8
0
 62
     1
370
    13
100
AcDbLine
 10
79.029282
 20
169.319412
 30
0.0
 11
78.983284
 21
169.379257
 31
0.0
  0
LINE
  5
F2
330
1F
100
AcDbEntity
  8
0
 62
     1
370
    13
100
AcDbLine
 10
81.223129
 20
165.018005
 30
0.0
 11
81.253532
 21
164.862854
 31
0.0
  0
LINE
  5
F3
330
1F
100
AcDbEntity
  8
0
 62
     1
370
    13
100
AcDbLine
 10
79.078453
 20
169.263
 30
0.0
 11
79.029282
 21
169.319412
 31
0.0
  0
LINE
  5
F4
330
1F
100
AcDbEntity
  8
0
 62
     1
370
    13
100
AcDbLine
 10
81.253532
 20
164.862854
 30
0.0
 11
81.278397
 21
164.70636
 31
0.0
  0
LINE
  5
F5
330
1F
100
AcDbEntity
  8
0
 62
     1
370
    13
100
AcDbLine
 10
79.130806
 20
169.209991
 30
0.0
 11
79.078453
 21
169.263
 31
0.0
  0
LINE
  5
F6
330
1F
100
AcDbEntity
  8
0
 62
     1
370
    13
100
AcDbLine
 10
81.278397
 20
164.70636
 30
0.0
 11
81.297752
 21
164.548523
 31
0.0
  0
LINE
  5
F7
330
1F
100
AcDbEntity
  8
0
 62
     1
370
    13
100
AcDbLine
 10
79.186356
 20
169.160461
 30
0.0
 11
79.130806
 21
169.209991
 31
0.0
  0
LINE
  5
F8
330
1F
100
AcDbEntity
  8
0
 62
     1
370
    13
100
AcDbLine
 10
81.297752
 20
164.548523
 30
0.0
 11
81.3116
 21
164.389343
 31
0.0
  0
LINE
  5
F9
330
1F
100
AcDbEntity
  8
0
 62
     1
370
    13
100
AcDbLine
 10
79.245079
 20
169.114334
 30
0.0
 11
79.186356
 21
169.160461
 31
0.0
  0
LINE
  5
FA
330
1F
100
AcDbEntity
  8
0
 62
     1
370
    13
100
AcDbLine
 10
81.3116
 20
164.389343
 30
0.0
 11
81.319878
 21
164.228851
 31
0.0
  0
LINE
  5
FB
330
1F
100
AcDbEntity
  8
0
 62
     1
370
    13
100
AcDbLine
 10
79.305885
 20
169.072144
 30
0.0
 11
79.245079
 21
169.114334
 31
0.0
  0
LINE
  5
FC
330
1F
100
AcDbEntity
  8
0
 62
     1
370
    13
100
AcDbLine
 10
81.319878
 20
164.228851
 30
0.0
 11
81.322647
 21
164.067001
 31
0.0
  0
LINE
  5
FD
330
1F
100
AcDbEntity
  8
0
 62
     1
370
    13
100
AcDbLine
 10
79.367706
 20
169.034393
 30
0.0
 11
79.305885
 21
169.072144
 31
0.0
  0
LINE
  5
FE
330
1F
100
AcDbEntity
  8
0
 62
     1
370
    13
100
AcDbLine
 10
81.322647
 20
164.067001
 30
0.0
 11
81.317238
 21
163.832932
 31
0.0
  0
LINE
  5
FF
330
1F
100
AcDbEntity
  8
0
 62
     1
370
    13
100
AcDbLine
 10
79.43055
 20
169.001129
 30
0.0
 11
79.367706
 21
169.034393
 31
0.0
  0
LINE
  5
100
330
1F
100
AcDbEntity
  8
0
 62
     1
370
    13
100
AcDbLine
 10
81.317238
 20
163.832932
 30
0.0
 11
81.301033
 21
163.603241
 31
0.0
  0
LINE
  5
101
330
1F
100
AcDbEntity
  8
0
 62
     1
370
    13
100
AcDbLine
 10
79.494377
 20
168.972244
 30
0.0
 11
79.43055
 21
169.001129
 31
0.0
  0
LINE
  5
102
330
1F
100
AcDbEntity
  8
0
 62
     1
370
    13
100
AcDbLine
 10
81.301033
 20
163.603241
 30
0.0
 11
81.274002
 21
163.377899
 31
0.0
  0
LINE
  5
103
330
1F
100
AcDbEntity
  8
0
 62
     1
370
    13
100
AcDbLine
 10
79.559227
 20
168.94783
 30
0.0
 11
79.494377
 21
168.972244
 31
0.0
  0
LINE
  5
104
330
1F
100
AcDbEntity
  8
0
 62
     1
370
    13
100
AcDbLine
 10
81.274002
 20
163.377899
 30
0.0
 11
81.236183
 21
163.156891
 31
0.0
  0
LINE
  5
105
330
1F
100
AcDbEntity
  8
0
 62
     1
370
    13
100
AcDbLine
 10
79.625061
 20
168.927841
 30
0.0
 11
79.559227
 21
168.94783
 31
0.0
  0
LINE
  5
106
330
1F
100
AcDbEntity
  8
0
 62
     1
370
    13
100
AcDbLine
 10
81.236183
 20
163.156891
 30
0.0
 11
81.187569
 21
162.940247
 31
0.0
  0
LINE
  5
107
330
1F
100
AcDbEntity
  8
0
 62
     1
370
    13
100
AcDbLine
 10
79.691917
 20
168.912323
 30
0.0
 11
79.625061
 21
168.927841
 31
0.0
  0
LINE
  5
108
330
1F
100
AcDbEntity
  8
0
 62
     1
370
    13
100
AcDbLine
 10
81.187569
 20
162.940247
 30
0.0
 11
81.128136
 21
162.727982
 31
0.0
  0
LINE
  5
109
330
1F
100
AcDbEntity
  8
0
 62
     1
370
    13
100
AcDbLine
 10
79.759781
 20
168.90123
 30
0.0
 11
79.691917
 21
168.912323
 31
0.0
  0
LINE
  5
10A
330
1F
100
AcDbEntity
  8
0
 62
     1
370
    13
100
AcDbLine
 10
81.128136
 20
162.727982
 30
0.0
 11
81.057877
 21
162.520035
 31
0.0
  0
LINE
  5
10B
330
1F
100
AcDbEntity
  8
0
 62
     1
370
    13
100
AcDbLine
 10
79.828644
 20
168.894547
 30
0.0
 11
79.759781
 21
168.90123
 31
0.0
  0
LINE
  5
10C
330
1F
100
AcDbEntity
  8
0
 62
     1
370
    13
100
AcDbLine
 10
81.057877
 20
162.520035
 30
0.0
 11
80.976822
 21
162.316483
 31
0.0
  0
LINE
  5
10D
330
1F
100
AcDbEntity
  8
0
 62
     1
370
    13
100
AcDbLine
 10
79.898491
 20
168.892334
 30
0.0
 11
79.828644
 21
168.894547
 31
0.0
  0
LINE
  5
10E
330
1F
100
AcDbEntity
  8
0
 62
     1
370
    13
100
AcDbLine
 10
80.976822
 20
162.316483
 30
0.0
 11
80.884956
 21
162.117264
 31
0.0
  0
LINE
  5
10F
330
1F
100
AcDbEntity
  8
0
 62
     1
370
    13
100
AcDbLine
 10
79.977486
 20
168.895126
 30
0.0
 11
79.898491
 21
168.892334
 31
0.0
  0
LINE
  5
110
330
1F
100
AcDbEntity
  8
0
 62
     1
370
    13
100
AcDbLine
 10
80.884956
 20
162.117264
 30
0.0
 11
80.78231
 21
161.922394
 31
0.0
  0
LINE
  5
111
330
1F
100
AcDbEntity
  8
0
 62
     1
370
    13
100
AcDbLine
 10
80.053635
 20
168.903534
 30
0.0
 11
79.977486
 21
168.895126
 31
0.0
  0
LINE
  5
112
330
1F
100
AcDbEntity
  8
0
 62
     1
370
    13
100
AcDbLine
 10
80.78231
 20
161.922394
 30
0.0
 11
80.669968
 21
161.733978
 31
0.0
  0
LINE
  5
113
330
1F
100
AcDbEntity
  8
0
 62
     1
370
    13
100
AcDbLine
 10
80.126938
 20
168.917587
 30
0.0
 11
80.053635
 21
168.903534
 31
0.0
  0
LINE
  5
114
330
1F
100
AcDbEntity
  8
0
 62
     1
370
    13
100
AcDbLine
 10
80.669968
 20
161.733978
 30
0.0
 11
80.549088
 21
161.55397
 31
0.0
  0
LINE
  5
115
330
1F
100
AcDbEntity
  8
0
 62
     1
370
    13
100
AcDbLine
 10
80.197403
 20
168.937241
 30
0.0
 11
80.126938
 21
168.917587
 31
0.0
  0
LINE
  5
116
330
1F
100
AcDbEntity
  8
0
 62
     1
370
    13
100
AcDbLine
 10
80.549088
 20
161.55397
 30
0.0
 11
80.419647
 21
161.382446
 31
0.0
  0
LINE
  5
117
330
1F
100
AcDbEntity
  8
0
 62
     1
370
    13
100
AcDbLine
 10
80.265015
 20
168.962494
 30
0.0
 11
80.197403
 21
168.937241
 31
0.0
  0
LINE
  5
118
330
1F
100
AcDbEntity
  8
0
 62
     1
370
    13
100
AcDbLine
 10
80.419647
 20
161.382446
 30
0.0
 11
80.281677
 21
161.219406
 31
0.0
  0
LINE
  5
119
330
1F
100
AcDbEntity
  8
0
 62
     1
370
    13
100
AcDbLine
 10
80.329758
 20
168.993378
 30
0.0
 11
80.265015
 21
168.962494
 31
0.0
  0
LINE
  5
11A
330
1F
100
AcDbEntity
  8
0
 62
     1
370
    13
100
AcDbLine
 10
80.281677
 20
161.219406
 30
0.0
 11
80.135147
 21
161.064774
 31
0.0
  0
LINE
  5
11B
330
1F
100
AcDbEntity
  8
0
 62
     1
370
    13
100
AcDbLine
 10
80.391685
 20
169.029846
 30
0.0
 11
80.329758
 21
168.993378
 31
0.0
  0
LINE
  5
11C
330
1F
100
AcDbEntity
  8
0
 62
     1
370
    13
100
AcDbLine
 10
80.135147
 20
161.064774
 30
0.0
 11
79.980103
 21
160.91864
 31
0.0
  0
LINE
  5
11D
330
1F
100
AcDbEntity
  8
0
 62
     1
370
    13
100
AcDbLine
 10
80.450737
 20
169.071945
 30
0.0
 11
80.391685
 21
169.029846
 31
0.0
  0
LINE
  5
11E
330
1F
100
AcDbEntity
  8
0
 62
     1
370
    13
100
AcDbLine
 10
79.980103
 20
160.91864
 30
0.0
 11
79.816475
 21
160.780945
 31
0.0
  0
LINE
  5
11F
330
1F
100
AcDbEntity
  8
0
 62
     1
370
    13
100
AcDbLine
 10
80.50695
 20
169.119644
 30
0.0
 11
80.450737
 21
169.071945
 31
0.0
  0
LINE
  5
120
330
1F
100
AcDbEntity
  8
0
 62
     1
370
    13
100
AcDbLine
 10
79.816475
 20
160.780945
 30
0.0
 11
79.644341
 21
160.651733
 31
0.0
  0
LINE
  5
121
330
1F
100
AcDbEntity
  8
0
 62
     1
370
    13
100
AcDbLine
 10
80.560318
 20
169.172974
 30
0.0
 11
80.50695
 21
169.119644
 31
0.0
  0
LINE
  5
122
330
1F
100
AcDbEntity
  8
0
 62
     1
370
    13
100
AcDbLine
 10
79.644341
 20
160.651733
 30
0.0
 11
79.463646
 21
160.53096
 31
0.0
  0
LINE
  5
123
330
1F
100
AcDbEntity
  8
0
 62
     1
370
    13
100
AcDbLine
 10
80.609642
 20
169.229721
 30
0.0
 11
80.560318
 21
169.172974
 31
0.0
  0
LINE
  5
124
330
1F
100
AcDbEntity
  8
0
 62
     1
370
    13
100
AcDbLine
 10
79.463646
 20
160.53096
 30
0.0
 11
79.274391
 21
160.418686
 31
0.0
  0
LINE
  5
125
330
1F
100
AcDbEntity
  8
0
 62
     1
370
    13
100
AcDbLine
 10
80.653816
 20
169.287766
 30
0.0
 11
80.609642
 21
169.229721
 31
0.0
  0
LINE
  5
126
330
1F
100
AcDbEntity
  8
0
 62
     1
370
    13
100
AcDbLine
 10
79.274391
 20
160.418686
 30
0.0
 11
79.078331
 21
160.315994
 31
0.0
  0
LINE
  5
127
330
1F
100
AcDbEntity
  8
0
 62
     1
370
    13
100
AcDbLine
 10
80.692749
 20
169.347
 30
0.0
 11
80.653816
 21
169.287766
 31
0.0
  0
LINE
  5
128
330
1F
100
AcDbEntity
  8
0
 62
     1
370
    13
100
AcDbLine
 10
79.078331
 20
160.315994
 30
0.0
 11
78.877136
 21
160.224152
 31
0.0
  0
LINE
  5
129
330
1F
100
AcDbEntity
  8
0
 62
     1
370
    13
100
AcDbLine
 10
80.726509
 20
169.407532
 30
0.0
 11
80.692749
 21
169.347
 31
0.0
  0
LINE
  5
12A
330
1F
100
AcDbEntity
  8
0
 62
     1
370
    13
100
AcDbLine
 10
78.877136
 20
160.224152
 30
0.0
 11
78.67086
 21
160.143097
 31
0.0
  0
LINE
  5
12B
330
1F
100
AcDbEntity
  8
0
 62
     1
370
    13
100
AcDbLine
 10
80.755081
 20
169.46933
 30
0.0
 11
80.726509
 21
169.407532
 31
0.0
  0
LINE
  5
12C
330
1F
100
AcDbEntity
  8
0
 62
     1
370
    13
100
AcDbLine
 10
78.67086
 20
160.143097
 30
0.0
 11
78.459457
 21
160.072845
 31
0.0
  0
LINE
  5
12D
330
1F
100
AcDbEntity
  8
0
 62
     1
370
    13
100
AcDbLine
 10
80.77845
 20
169.532364
 30
0.0
 11
80.755081
 21
169.46933
 31
0.0
  0
LINE
  5
12E
330
1F
100
AcDbEntity
  8
0
 62
     1
370
    13
100
AcDbLine
 10
78.459457
 20
160.072845
 30
0.0
 11
78.24295
 21
160.013428
 31
0.0
  0
LINE
  5
12F
330
1F
100
AcDbEntity
  8
0
 62
     1
370
    13
100
AcDbLine
 10
80.796638
 20
169.596649
 30
0.0
 11
80.77845
 21
169.532364
 31
0.0
  0
LINE
  5
130
330
1F
100
AcDbEntity
  8
0
 62
     1
370
    13
100
AcDbLine
 10
78.24295
 20
160.013428
 30
0.0
 11
78.021309
 21
159.964798
 31
0.0
  0
LINE
  5
131
330
1F
100
AcDbEntity
  8
0
 62
     1
370
    13
100
AcDbLine
 10
80.809616
 20
169.662216
 30
0.0
 11
80.796638
 21
169.596649
 31
0.0
  0
LINE
  5
132
330
1F
100
AcDbEntity
  8
0
 62
     1
370
    13
100
AcDbLine
 10
78.021309
 20
159.964798
 30
0.0
 11
77.794586
 21
159.926971
 31
0.0
  0
LINE
  5
133
330
1F
100
AcDbEntity
  8
0
 62
     1
370
    13
100
AcDbLine
 10
80.817413
 20
169.729004
 30
0.0
 11
80.809616
 21
169.662216
 31
0.0
  0
LINE
  5
134
330
1F
100
AcDbEntity
  8
0
 62
     1
370
    13
100
AcDbLine
 10
77.794586
 20
159.926971
 30
0.0
 11
77.562737
 21
159.899948
 31
0.0
  0
LINE
  5
135
330
1F
100
AcDbEntity
  8
0
 62
     1
370
    13
100
AcDbLine
 10
80.820007
 20
169.797058
 30
0.0
 11
80.817413
 21
169.729004
 31
0.0
  0
LINE
  5
136
330
1F
100
AcDbEntity
  8
0
 62
     1
370
    13
100
AcDbLine
 10
77.562737
 20
159.899948
 30
0.0
 11
77.325775
 21
159.883743
 31
0.0
  0
LINE
  5
137
330
1F
100
AcDbEntity
  8
0
 62
     1
370
    13
100
AcDbLine
 10
80.815865
 20
169.91153
 30
0.0
 11
80.820007
 21
169.797058
 31
0.0
  0
LINE
  5
138
330
1F
100
AcDbEntity
  8
0
 62
     1
370
    13
100
AcDbLine
 10
77.325775
 20
159.883743
 30
0.0
 11
77.083717
 21
159.878326
 31
0.0
  0
LINE
  5
139
330
1F
100
AcDbEntity
  8
0
 62
     1
370
    13
100
AcDbLine
 10
80.803421
 20
170.026947
 30
0.0
 11
80.815865
 21
169.91153
 31
0.0
  0
LINE
  5
13A
330
1F
100
AcDbEntity
  8
0
 62
     1
370
    13
100
AcDbLine
 10
77.083717
 20
159.878326
 30
0.0
 11
76.806091
 21
159.885223
 31
0.0
  0
LINE
  5
13B
330
1F
100
AcDbEntity
  8
0
 62
     1
370
    13
100
AcDbLine
 10
80.782692
 20
170.143387
 30
0.0
 11
80.803421
 21
170.026947
 31
0.0
  0
LINE
  5
13C
330
1F
100
AcDbEntity
  8
0
 62
     1
370
    13
100
AcDbLine
 10
76.806091
 20
159.885223
 30
0.0
 11
76.536171
 21
159.905823
 31
0.0
  0
LINE
  5
13D
330
1F
100
AcDbEntity
  8
0
 62
     1
370
    13
100
AcDbLine
 10
80.753662
 20
170.260864
 30
0.0
 11
80.782692
 21
170.143387
 31
0.0
  0
LINE
  5
13E
330
1F
100
AcDbEntity
  8
0
 62
     1
370
    13
100
AcDbLine
 10
76.536171
 20
159.905823
 30
0.0
 11
76.273964
 21
159.940155
 31
0.0
  0
LINE
  5
13F
330
1F
100
AcDbEntity
  8
0
 62
     1
370
    13
100
AcDbLine
 10
80.716324
 20
170.379303
 30
0.0
 11
80.753662
 21
170.260864
 31
0.0
  0
LINE
  5
140
330
1F
100
AcDbEntity
  8
0
 62
     1
370
    13
100
AcDbLine
 10
76.273964
 20
159.940155
 30
0.0
 11
76.019485
 21
159.988235
 31
0.0
  0
LINE
  5
141
330
1F
100
AcDbEntity
  8
0
 62
     1
370
    13
100
AcDbLine
 10
80.670731
 20
170.498779
 30
0.0
 11
80.716324
 21
170.379303
 31
0.0
  0
LINE
  5
142
330
1F
100
AcDbEntity
  8
0
 62
     1
370
    13
100
AcDbLine
 10
76.019485
 20
159.988235
 30
0.0
 11
75.772667
 21
160.050095
 31
0.0
  0
LINE
  5
143
330
1F
100
AcDbEntity
  8
0
 62
     1
370
    13
100
AcDbLine
 10
80.616806
 20
170.619232
 30
0.0
 11
80.670731
 21
170.498779
 31
0.0
  0
LINE
  5
144
330
1F
100
AcDbEntity
  8
0
 62
     1
370
    13
100
AcDbLine
 10
75.772667
 20
160.050095
 30
0.0
 11
75.533577
 21
160.125656
 31
0.0
  0
LINE
  5
145
330
1F
100
AcDbEntity
  8
0
 62
     1
370
    13
100
AcDbLine
 10
80.554626
 20
170.740692
 30
0.0
 11
80.616806
 21
170.619232
 31
0.0
  0
LINE
  5
146
330
1F
100
AcDbEntity
  8
0
 62
     1
370
    13
100
AcDbLine
 10
75.533577
 20
160.125656
 30
0.0
 11
75.302208
 21
160.214966
 31
0.0
  0
LINE
  5
147
330
1F
100
AcDbEntity
  8
0
 62
     1
370
    13
100
AcDbLine
 10
80.484116
 20
170.86319
 30
0.0
 11
80.554626
 21
170.740692
 31
0.0
  0
LINE
  5
148
330
1F
100
AcDbEntity
  8
0
 62
     1
370
    13
100
AcDbLine
 10
75.302208
 20
160.214966
 30
0.0
 11
75.078537
 21
160.318008
 31
0.0
  0
LINE
  5
149
330
1F
100
AcDbEntity
  8
0
 62
     1
370
    13
100
AcDbLine
 10
80.405327
 20
170.986649
 30
0.0
 11
80.484116
 21
170.86319
 31
0.0
  0
LINE
  5
14A
330
1F
100
AcDbEntity
  8
0
 62
     1
370
    13
100
AcDbLine
 10
75.078537
 20
160.318008
 30
0.0
 11
74.862564
 21
160.434769
 31
0.0
  0
LINE
  5
14B
330
1F
100
AcDbEntity
  8
0
 62
     1
370
    13
100
AcDbLine
 10
80.318382
 20
171.108643
 30
0.0
 11
80.405327
 21
170.986649
 31
0.0
  0
LINE
  5
14C
330
1F
100
AcDbEntity
  8
0
 62
     1
370
    13
100
AcDbLine
 10
74.862564
 20
160.434769
 30
0.0
 11
74.654305
 21
160.565308
 31
0.0
  0
LINE
  5
14D
330
1F
100
AcDbEntity
  8
0
 62
     1
370
    13
100
AcDbLine
 10
80.223389
 20
171.226593
 30
0.0
 11
80.318382
 21
171.108643
 31
0.0
  0
LINE
  5
14E
330
1F
100
AcDbEntity
  8
0
 62
     1
370
    13
100
AcDbLine
 10
74.654305
 20
160.565308
 30
0.0
 11
74.454712
 21
160.709244
 31
0.0
  0
LINE
  5
14F
330
1F
100
AcDbEntity
  8
0
 62
     1
370
    13
100
AcDbLine
 10
80.120338
 20
171.340515
 30
0.0
 11
80.223389
 21
171.226593
 31
0.0
  0
LINE
  5
150
330
1F
100
AcDbEntity
  8
0
 62
     1
370
    13
100
AcDbLine
 10
74.454712
 20
160.709244
 30
0.0
 11
74.264748
 21
160.866364
 31
0.0
  0
LINE
  5
151
330
1F
100
AcDbEntity
  8
0
 62
     1
370
    13
100
AcDbLine
 10
80.009239
 20
171.450439
 30
0.0
 11
80.120338
 21
171.340515
 31
0.0
  0
LINE
  5
152
330
1F
100
AcDbEntity
  8
0
 62
     1
370
    13
100
AcDbLine
 10
74.264748
 20
160.866364
 30
0.0
 11
74.084435
 21
161.036621
 31
0.0
  0
LINE
  5
153
330
1F
100
AcDbEntity
  8
0
 62
     1
370
    13
100
AcDbLine
 10
79.890114
 20
171.556305
 30
0.0
 11
80.009239
 21
171.450439
 31
0.0
  0
LINE
  5
154
330
1F
100
AcDbEntity
  8
0
 62
     1
370
    13
100
AcDbLine
 10
74.084435
 20
161.036621
 30
0.0
 11
73.913742
 21
161.220062
 31
0.0
  0
LINE
  5
155
330
1F
100
AcDbEntity
  8
0
 62
     1
370
    13
100
AcDbLine
 10
79.762962
 20
171.658173
 30
0.0
 11
79.890114
 21
171.556305
 31
0.0
  0
LINE
  5
156
330
1F
100
AcDbEntity
  8
0
 62
     1
370
    13
100
AcDbLine
 10
73.913742
 20
161.220062
 30
0.0
 11
73.752686
 21
161.416626
 31
0.0
  0
LINE
  5
157
330
1F
100
AcDbEntity
  8
0
 62
     1
370
    13
100
AcDbLine
 10
79.627754
 20
171.756027
 30
0.0
 11
79.762962
 21
171.658173
 31
0.0
  0
LINE
  5
158
330
1F
100
AcDbEntity
  8
0
 62
     1
370
    13
100
AcDbLine
 10
73.752686
 20
161.416626
 30
0.0
 11
73.601273
 21
161.626343
 31
0.0
  0
LINE
  5
159
330
1F
100
AcDbEntity
  8
0
 62
     1
370
    13
100
AcDbLine
 10
79.484497
 20
171.849854
 30
0.0
 11
79.627754
 21
171.756027
 31
0.0
  0
LINE
  5
15A
330
1F
100
AcDbEntity
  8
0
 62
     1
370
    13
100
AcDbLine
 10
73.601273
 20
161.626343
 30
0.0
 11
73.459496
 21
161.849213
 31
0.0
  0
LINE
  5
15B
330
1F
100
AcDbEntity
  8
0
 62
     1
370
    13
100
AcDbLine
 10
79.333191
 20
171.939667
 30
0.0
 11
79.484497
 21
171.849854
 31
0.0
  0
LINE
  5
15C
330
1F
100
AcDbEntity
  8
0
 62
     1
370
    13
100
AcDbLine
 10
73.459496
 20
161.849213
 30
0.0
 11
73.327339
 21
162.085266
 31
0.0
  0
LINE
  5
15D
330
1F
100
AcDbEntity
  8
0
 62
     1
370
    13
100
AcDbLine
 10
79.173859
 20
172.025452
 30
0.0
 11
79.333191
 21
171.939667
 31
0.0
  0
LINE
  5
15E
330
1F
100
AcDbEntity
  8
0
 62
     1
370
    13
100
AcDbLine
 10
73.327339
 20
162.085266
 30
0.0
 11
73.204834
 21
162.334442
 31
0.0
  0
LINE
  5
15F
330
1F
100
AcDbEntity
  8
0
 62
     1
370
    13
100
AcDbLine
 10
79.007942
 20
172.105026
 30
0.0
 11
79.173859
 21
172.025452
 31
0.0
  0
LINE
  5
160
330
1F
100
AcDbEntity
  8
0
 62
     1
370
    13
100
AcDbLine
 10
73.204834
 20
162.334442
 30
0.0
 11
73.091927
 21
162.596786
 31
0.0
  0
LINE
  5
161
330
1F
100
AcDbEntity
  8
0
 62
     1
370
    13
100
AcDbLine
 10
78.836929
 20
172.176224
 30
0.0
 11
79.007942
 21
172.105026
 31
0.0
  0
LINE
  5
162
330
1F
100
AcDbEntity
  8
0
 62
     1
370
    13
100
AcDbLine
 10
73.091927
 20
162.596786
 30
0.0
 11
72.989265
 21
162.871704
 31
0.0
  0
LINE
  5
163
330
1F
100
AcDbEntity
  8
0
 62
     1
370
    13
100
AcDbLine
 10
78.660805
 20
172.239059
 30
0.0
 11
78.836929
 21
172.176224
 31
0.0
  0
LINE
  5
164
330
1F
100
AcDbEntity
  8
0
 62
     1
370
    13
100
AcDbLine
 10
72.989265
 20
162.871704
 30
0.0
 11
72.897415
 21
163.158569
 31
0.0
  0
LINE
  5
165
330
1F
100
AcDbEntity
  8
0
 62
     1
370
    13
100
AcDbLine
 10
78.479546
 20
172.293518
 30
0.0
 11
78.660805
 21
172.239059
 31
0.0
  0
LINE
  5
166
330
1F
100
AcDbEntity
  8
0
 62
     1
370
    13
100
AcDbLine
 10
72.897415
 20
163.158569
 30
0.0
 11
72.81636
 21
163.457443
 31
0.0
  0
LINE
  5
167
330
1F
100
AcDbEntity
  8
0
 62
     1
370
    13
100
AcDbLine
 10
78.293213
 20
172.3396
 30
0.0
 11
78.479546
 21
172.293518
 31
0.0
  0
LINE
  5
168
330
1F
100
AcDbEntity
  8
0
 62
     1
370
    13
100
AcDbLine
 10
72.81636
 20
163.457443
 30
0.0
 11
72.746109
 21
163.768265
 31
0.0
  0
LINE
  5
169
330
1F
100
AcDbEntity
  8
0
 62
     1
370
    13
100
AcDbLine
 10
78.101746
 20
172.377289
 30
0.0
 11
78.293213
 21
172.3396
 31
0.0
  0
LINE
  5
16A
330
1F
100
AcDbEntity
  8
0
 62
     1
370
    13
100
AcDbLine
 10
72.746109
 20
163.768265
 30
0.0
 11
72.686699
 21
164.091095
 31
0.0
  0
LINE
  5
16B
330
1F
100
AcDbEntity
  8
0
 62
     1
370
    13
100
AcDbLine
 10
77.905151
 20
172.406601
 30
0.0
 11
78.101746
 21
172.377289
 31
0.0
  0
LINE
  5
16C
330
1F
100
AcDbEntity
  8
0
 62
     1
370
    13
100
AcDbLine
 10
72.686699
 20
164.091095
 30
0.0
 11
72.638054
 21
164.425903
 31
0.0
  0
LINE
  5
16D
330
1F
100
AcDbEntity
  8
0
 62
     1
370
    13
100
AcDbLine
 10
77.703476
 20
172.427551
 30
0.0
 11
77.905151
 21
172.406601
 31
0.0
  0
LINE
  5
16E
330
1F
100
AcDbEntity
  8
0
 62
     1
370
    13
100
AcDbLine
 10
72.638054
 20
164.425903
 30
0.0
 11
72.600235
 21
164.772659
 31
0.0
  0
LINE
  5
16F
330
1F
100
AcDbEntity
  8
0
 62
     1
370
    13
100
AcDbLine
 10
77.496696
 20
172.440125
 30
0.0
 11
77.703476
 21
172.427551
 31
0.0
  0
LINE
  5
170
330
1F
100
AcDbEntity
  8
0
 62
     1
370
    13
100
AcDbLine
 10
72.600235
 20
164.772659
 30
0.0
 11
72.573212
 21
165.131409
 31
0.0
  0
LINE
  5
171
330
1F
100
AcDbEntity
  8
0
 62
     1
370
    13
100
AcDbLine
 10
77.284782
 20
172.444321
 30
0.0
 11
77.496696
 21
172.440125
 31
0.0
  0
LINE
  5
172
330
1F
100
AcDbEntity
  8
0
 62
     1
370
    13
100
AcDbLine
 10
72.573212
 20
165.131409
 30
0.0
 11
72.557007
 21
165.502151
 31
0.0
  0
LINE
  5
173
330
1F
100
AcDbEntity
  8
0
 62
     1
370
    13
100
AcDbLine
 10
77.064384
 20
172.440125
 30
0.0
 11
77.284782
 21
172.444321
 31
0.0
  0
LINE
  5
174
330
1F
100
AcDbEntity
  8
0
 62
     1
370
    13
100
AcDbLine
 10
72.557007
 20
165.502151
 30
0.0
 11
72.551598
 21
165.884872
 31
0.0
  0
LINE
  5
175
330
1F
100
AcDbEntity
  8
0
 62
     1
370
    13
100
AcDbLine
 10
76.848816
 20
172.427551
 30
0.0
 11
77.064384
 21
172.440125
 31
0.0
  0
LINE
  5
176
330
1F
100
AcDbEntity
  8
0
 62
     1
370
    13
100
AcDbLine
 10
72.551598
 20
165.884872
 30
0.0
 11
72.554871
 21
166.198181
 31
0.0
  0
LINE
  5
177
330
1F
100
AcDbEntity
  8
0
 62
     1
370
    13
100
AcDbLine
 10
76.638123
 20
172.406601
 30
0.0
 11
76.848816
 21
172.427551
 31
0.0
  0
LINE
  5
178
330
1F
100
AcDbEntity
  8
0
 62
     1
370
    13
100
AcDbLine
 10
72.554871
 20
166.198181
 30
0.0
 11
72.564674
 21
166.504807
 31
0.0
  0
LINE
  5
179
330
1F
100
AcDbEntity
  8
0
 62
     1
370
    13
100
AcDbLine
 10
76.432304
 20
172.377289
 30
0.0
 11
76.638123
 21
172.406601
 31
0.0
  0
LINE
  5
17A
330
1F
100
AcDbEntity
  8
0
 62
     1
370
    13
100
AcDbLine
 10
72.564674
 20
166.504807
 30
0.0
 11
72.581009
 21
166.804718
 31
0.0
  0
LINE
  5
17B
330
1F
100
AcDbEntity
  8
0
 62
     1
370
    13
100
AcDbLine
 10
76.231346
 20
172.3396
 30
0.0
 11
76.432304
 21
172.377289
 31
0.0
  0
LINE
  5
17C
330
1F
100
AcDbEntity
  8
0
 62
     1
370
    13
100
AcDbLine
 10
72.581009
 20
166.804718
 30
0.0
 11
72.603889
 21
167.0979
 31
0.0
  0
LINE
  5
17D
330
1F
100
AcDbEntity
  8
0
 62
     1
370
    13
100
AcDbLine
 10
76.035233
 20
172.293518
 30
0.0
 11
76.231346
 21
172.3396
 31
0.0
  0
LINE
  5
17E
330
1F
100
AcDbEntity
  8
0
 62
     1
370
    13
100
AcDbLine
 10
72.603889
 20
167.0979
 30
0.0
 11
72.633278
 21
167.384445
 31
0.0
  0
LINE
  5
17F
330
1F
100
AcDbEntity
  8
0
 62
     1
370
    13
100
AcDbLine
 10
75.843971
 20
172.239059
 30
0.0
 11
76.035233
 21
172.293518
 31
0.0
  0
LINE
  5
180
330
1F
100
AcDbEntity
  8
0
 62
     1
370
    13
100
AcDbLine
 10
72.633278
 20
167.384445
 30
0.0
 11
72.66922
 21
167.6642
 31
0.0
  0
LINE
  5
181
330
1F
100
AcDbEntity
  8
0
 62
     1
370
    13
100
AcDbLine
 10
75.657585
 20
172.176224
 30
0.0
 11
75.843971
 21
172.239059
 31
0.0
  0
LINE
  5
182
330
1F
100
AcDbEntity
  8
0
 62
     1
370
    13
100
AcDbLine
 10
72.66922
 20
167.6642
 30
0.0
 11
72.711693
 21
167.937317
 31
0.0
  0
LINE
  5
183
330
1F
100
AcDbEntity
  8
0
 62
     1
370
    13
100
AcDbLine
 10
75.476021
 20
172.105026
 30
0.0
 11
75.657585
 21
172.176224
 31
0.0
  0
LINE
  5
184
330
1F
100
AcDbEntity
  8
0
 62
     1
370
    13
100
AcDbLine
 10
72.711693
 20
167.937317
 30
0.0
 11
72.760689
 21
168.20372
 31
0.0
  0
LINE
  5
185
330
1F
100
AcDbEntity
  8
0
 62
     1
370
    13
100
AcDbLine
 10
75.29937
 20
172.025452
 30
0.0
 11
75.476021
 21
172.105026
 31
0.0
  0
LINE
  5
186
330
1F
100
AcDbEntity
  8
0
 62
     1
370
    13
100
AcDbLine
 10
72.760689
 20
168.20372
 30
0.0
 11
72.816238
 21
168.463409
 31
0.0
  0
LINE
  5
187
330
1F
100
AcDbEntity
  8
0
 62
     1
370
    13
100
AcDbLine
 10
75.127716
 20
171.937668
 30
0.0
 11
75.29937
 21
172.025452
 31
0.0
  0
LINE
  5
188
330
1F
100
AcDbEntity
  8
0
 62
     1
370
    13
100
AcDbLine
 10
72.816238
 20
168.463409
 30
0.0
 11
72.878311
 21
168.716415
 31
0.0
  0
LINE
  5
189
330
1F
100
AcDbEntity
  8
0
 62
     1
370
    13
100
AcDbLine
 10
74.961243
 20
171.841812
 30
0.0
 11
75.127716
 21
171.937668
 31
0.0
  0
LINE
  5
18A
330
1F
100
AcDbEntity
  8
0
 62
     1
370
    13
100
AcDbLine
 10
72.878311
 20
168.716415
 30
0.0
 11
72.94651
 21
168.961777
 31
0.0
  0
LINE
  5
18B
330
1F
100
AcDbEntity
  8
0
 62
     1
370
    13
100
AcDbLine
 10
74.79998
 20
171.737946
 30
0.0
 11
74.961243
 21
171.841812
 31
0.0
  0
LINE
  5
18C
330
1F
100
AcDbEntity
  8
0
 62
     1
370
    13
100
AcDbLine
 10
72.94651
 20
168.961777
 30
0.0
 11
73.020401
 21
169.198608
 31
0.0
  0
LINE
  5
18D
330
1F
100
AcDbEntity
  8
0
 62
     1
370
    13
100
AcDbLine
 10
74.643921
 20
171.626007
 30
0.0
 11
74.79998
 21
171.737946
 31
0.0
  0
LINE
  5
18E
330
1F
100
AcDbEntity
  8
0
 62
     1
370
    13
100
AcDbLine
 10
73.020401
 20
169.198608
 30
0.0
 11
73.099983
 21
169.42688
 31
0.0
  0
LINE
  5
18F
330
1F
100
AcDbEntity
  8
0
 62
     1
370
    13
100
AcDbLine
 10
74.493042
 20
171.506042
 30
0.0
 11
74.643921
 21
171.626007
 31
0.0
  0
LINE
  5
190
330
1F
100
AcDbEntity
  8
0
 62
     1
370
    13
100
AcDbLine
 10
73.099983
 20
169.42688
 30
0.0
 11
73.185249
 21
169.646606
 31
0.0
  0
LINE
  5
191
330
1F
100
AcDbEntity
  8
0
 62
     1
370
    13
100
AcDbLine
 10
74.347374
 20
171.378052
 30
0.0
 11
74.493042
 21
171.506042
 31
0.0
  0
LINE
  5
192
330
1F
100
AcDbEntity
  8
0
 62
     1
370
    13
100
AcDbLine
 10
73.185249
 20
169.646606
 30
0.0
 11
73.27623
 21
169.857819
 31
0.0
  0
LINE
  5
193
330
1F
100
AcDbEntity
  8
0
 62
     1
370
    13
100
AcDbLine
 10
74.206863
 20
171.241989
 30
0.0
 11
74.347374
 21
171.378052
 31
0.0
  0
LINE
  5
194
330
1F
100
AcDbEntity
  8
0
 62
     1
370
    13
100
AcDbLine
 10
73.27623
 20
169.857819
 30
0.0
 11
73.372902
 21
170.060486
 31
0.0
  0
LINE
  5
195
330
1F
100
AcDbEntity
  8
0
 62
     1
370
    13
100
AcDbLine
 10
74.071579
 20
171.097916
 30
0.0
 11
74.206863
 21
171.241989
 31
0.0
  0
LINE
  5
196
330
1F
100
AcDbEntity
  8
0
 62
     1
370
    13
100
AcDbLine
 10
73.372902
 20
170.060486
 30
0.0
 11
73.475288
 21
170.254593
 31
0.0
  0
LINE
  5
197
330
1F
100
AcDbEntity
  8
0
 62
     1
370
    13
100
AcDbLine
 10
73.941483
 20
170.94577
 30
0.0
 11
74.071579
 21
171.097916
 31
0.0
  0
LINE
  5
198
330
1F
100
AcDbEntity
  8
0
 62
     1
370
    13
100
AcDbLine
 10
73.475288
 20
170.254593
 30
0.0
 11
73.583344
 21
170.44014
 31
0.0
  0
LINE
  5
199
330
1F
100
AcDbEntity
  8
0
 62
     1
370
    13
100
AcDbLine
 10
73.816566
 20
170.785599
 30
0.0
 11
73.941483
 21
170.94577
 31
0.0
  0
LINE
  5
19A
330
1F
100
AcDbEntity
  8
0
 62
     1
370
    13
100
AcDbLine
 10
73.583344
 20
170.44014
 30
0.0
 11
73.697105
 21
170.617126
 31
0.0
  0
LINE
  5
19B
330
1F
100
AcDbEntity
  8
0
 62
     1
370
    13
100
AcDbLine
 10
73.697105
 20
170.617126
 30
0.0
 11
73.816566
 21
170.785599
 31
0.0
  0
LINE
  5
19C
330
1F
100
AcDbEntity
  8
0
 62
     1
370
    13
100
AcDbLine
 10
186.0
 20
201.0
 30
0.0
 11
200.0
 21
201.0
 31
0.0
  0
LINE
  5
19D
330
1F
100
AcDbEntity
  8
0
 62
     1
370
    13
100
AcDbLine
 10
100.0
 20
201.0
 30
0.0
 11
159.0
 21
201.0
 31
0.0
  0
ARC
  5
19E
330
1F
100
AcDbEntity
  8
0
 62
     1
370
    13
100
AcDbCircle
 10
159.0
 20
204.0
 30
0.0
 40
3.0
100
AcDbArc
 50
269.999997
 51
360.0
  0
LINE
  5
19F
330
1F
100
AcDbEntity
  8
0
 62
     1
370
    13
100
AcDbLine
 10
162.0
 20
210.0
 30
0.0
 11
162.0
 21
204.0
 31
0.0
  0
ARC
  5
1A0
330
1F
100
AcDbEntity
  8
0
 62
     1
370
    13
100
AcDbCircle
 10
165.0
 20
210.0
 30
0.0
 40
3.0
100
AcDbArc
 50
90.000003
 51
180.000005
  0
LINE
  5
1A1
330
1F
100
AcDbEntity
  8
0
 62
     1
370
    13
100
AcDbLine
 10
165.0
 20
213.0
 30
0.0
 11
180.0
 21
213.0
 31
0.0
  0
ARC
  5
1A2
330
1F
100
AcDbEntity
  8
0
 62
     1
370
    13
100
AcDbCircle
 10
180.0
 20
210.0
 30
0.0
 40
3.0
100
AcDbArc
 50
0.0
 51
90.000003
  0
LINE
  5
1A3
330
1F
100
AcDbEntity
  8
0
 62
     1
370
    13
100
AcDbLine
 10
183.0
 20
204.0
 30
0.0
 11
183.0
 21
210.0
 31
0.0
  0
ARC
  5
1A4
330
1F
100
AcDbEntity
  8
0
 62
     1
370
    13
100
AcDbCircle
 10
186.0
 20
204.0
 30
0.0
 40
3.0
100
AcDbArc
 50
180.000005
 51
269.999997
  0
ENDSEC
  0
SECTION
  2
OBJECTS
  0
DICTIONARY
  5
C
330
0
100
AcDbDictionary
281
     1
  3
ACAD_DETAILVIEWSTYLE
350
1AD
  3
ACAD_GROUP
350
D
  3
ACAD_LAYOUT
350
1A
  3
ACAD_MATERIAL
350
43
  3
ACAD_MLEADERSTYLE
350
6B
  3
ACAD_MLINESTYLE
350
17
  3
ACAD_PLOTSETTINGS
350
19
  3
ACAD_PLOTSTYLENAME
350
E
  3
ACAD_SCALELIST
350
47
  3
ACAD_SECTIONVIEWSTYLE
350
1AE
  3
ACAD_TABLESTYLE
350
69
  3
ACAD_VISUALSTYLE
350
2A
  3
ACDB_RECOMPOSE_DATA
350
1A9
  3
AcDbVariableDictionary
350
1A5
  0
SUN
  5
6D
330
29
100
AcDbSun
 90
        1
290
     0
 63
     7
421
 16777215
 40
1.0
291
     1
 91
  2455826
 92
 54000000
292
     0
 70
     2
 71
   256
280
     1
  0
DICTIONARY
  5
1AD
102
{ACAD_REACTORS
330
C
102
}
330
C
100
AcDbDictionary
281
     1
  0
DICTIONARY
  5
D
102
{ACAD_REACTORS
330
C
102
}
330
C
100
AcDbDictionary
281
     1
  0
DICTIONARY
  5
1A
102
{ACAD_REACTORS
330
C
102
}
330
C
100
AcDbDictionary
281
     1
  3
Layout1
350
1E
  3
Layout2
350
26
  3
Model
350
22
  0
DICTIONARY
  5
43
102
{ACAD_REACTORS
330
C
102
}
330
C
100
AcDbDictionary
281
     1
  3
ByBlock
350
45
  3
ByLayer
350
44
  3
Global
350
46
  0
DICTIONARY
  5
6B
102
{ACAD_REACTORS
330
C
102
}
330
C
100
AcDbDictionary
281
     1
  3
Standard
350
6C
  0
DICTIONARY
  5
17
102
{ACAD_REACTORS
330
C
102
}
330
C
100
AcDbDictionary
281
     1
  3
Standard
350
18
  0
DICTIONARY
  5
19
102
{ACAD_REACTORS
330
C
102
}
330
C
100
AcDbDictionary
281
     1
  0
ACDBDICTIONARYWDFLT
  5
E
102
{ACAD_REACTORS
330
C
102
}
330
C
100
AcDbDictionary
281
     1
  3
Normal
350
F
100
AcDbDictionaryWithDefault
340
F
  0
DICTIONARY
  5
47
102
{ACAD_REACTORS
330
C
102
}
330
C
100
AcDbDictionary
281
     1
  3
A0
350
48
  3
A1
350
49
  3
A2
350
4A
  3
A3
350
4B
  3
A4
350
4C
  3
A5
350
4D
  3
A6
350
4E
  3
A7
350
4F
  3
A8
350
50
  3
A9
350
51
  3
B0
350
52
  3
B1
350
53
  3
B2
350
54
  3
B3
350
55
  3
B4
350
56
  3
B5
350
57
  3
B6
350
58
  3
B7
350
59
  3
B8
350
5A
  3
B9
350
5B
  3
C0
350
5C
  3
C1
350
5D
  3
C2
350
5E
  3
C3
350
5F
  3
C4
350
60
  3
C5
350
61
  3
C6
350
62
  3
C7
350
63
  3
C8
350
64
  3
C9
350
65
  3
D0
350
66
  3
D1
350
67
  3
D2
350
68
  0
DICTIONARY
  5
1AE
102
{ACAD_REACTORS
330
C
102
}
330
C
100
AcDbDictionary
281
     1
  0
DICTIONARY
  5
69
102
{ACAD_REACTORS
330
C
102
}
330
C
100
AcDbDictionary
281
     1
  3
Standard
350
6A
  0
DICTIONARY
  5
2A
102
{ACAD_REACTORS
330
C
102
}
330
C
100
AcDbDictionary
281
     1
  3
2dWireframe
350
2F
  3
Basic
350
32
  3
Brighten
350
36
  3
ColorChange
350
3A
  3
Conceptual
350
34
  3
Dim
350
35
  3
EdgeColorOff
350
3D
  3
Facepattern
350
39
  3
Flat
350
2B
  3
FlatWithEdges
350
2C
  3
Gouraud
350
2D
  3
GouraudWithEdges
350
2E
  3
Hidden
350
31
  3
JitterOff
350
3B
  3
Linepattern
350
38
  3
OverhangOff
350
3C
  3
Realistic
350
33
  3
Shaded
350
42
  3
Shaded with edges
350
41
  3
Shades of Gray
350
3E
  3
Sketchy
350
3F
  3
Thicken
350
37
  3
Wireframe
350
30
  3
X-Ray
350
40
  0
XRECORD
  5
1A9
102
{ACAD_REACTORS
330
C
102
}
330
C
100
AcDbXrecord
280
     1
 90
        1
330
6A
  0
DICTIONARY
  5
1A5
102
{ACAD_REACTORS
330
C
102
}
330
C
100
AcDbDictionary
281
     1
  3
CANNOSCALE
350
1A6
  3
CMLEADERSTYLE
350
1AB
  3
CTABLESTYLE
350
1AA
  3
XCLIPFRAME
350
1AC
  0
LAYOUT
  5
1E
102
{ACAD_REACTORS
330
1A
102
}
330
1A
100
AcDbPlotSettings
  1

  2
none_device
  4

  6

 40
0.0
 41
0.0
 42
0.0
 43
0.0
 44
0.0
 45
0.0
 46
0.0
 47
0.0
 48
0.0
 49
0.0
140
0.0
141
0.0
142
1.0
143
1.0
 70
  4784
 72
     0
 73
     0
 74
     5
  7

 75
    16
 76
     0
 77
     2
 78
   300
147
1.0
148
0.0
149
0.0
100
AcDbLayout
  1
Layout1
 70
     1
 71
     1
 10
0.0
 20
0.0
 11
420.0
 21
297.0
 12
0.0
 22
0.0
 32
0.0
 14
0.0
 24
0.0
 34
0.0
 15
237.5
 25
237.5
 35
2.0
146
0.0
 13
0.0
 23
0.0
 33
0.0
 16
1.0
 26
0.0
 36
0.0
 17
0.0
 27
1.0
 37
0.0
 76
     0
330
1B
  0
LAYOUT
  5
26
102
{ACAD_REACTORS
330
1A
102
}
330
1A
100
AcDbPlotSettings
  1

  2
none_device
  4

  6

 40
0.0
 41
0.0
 42
0.0
 43
0.0
 44
0.0
 45
0.0
 46
0.0
 47
0.0
 48
0.0
 49
0.0
140
0.0
141
0.0
142
1.0
143
1.0
 70
  4784
 72
     0
 73
     0
 74
     5
  7

 75
    16
 76
     0
 77
     2
 78
   300
147
1.0
148
0.0
149
0.0
100
AcDbLayout
  1
Layout2
 70
     1
 71
     2
 10
0.0
 20
0.0
 11
0.0
 21
0.0
 12
0.0
 22
0.0
 32
0.0
 14
0.0
 24
0.0
 34
0.0
 15
0.0
 25
0.0
 35
0.0
146
0.0
 13
0.0
 23
0.0
 33
0.0
 16
1.0
 26
0.0
 36
0.0
 17
0.0
 27
1.0
 37
0.0
 76
     0
330
23
  0
LAYOUT
  5
22
102
{ACAD_REACTORS
330
1A
102
}
330
1A
100
AcDbPlotSettings
  1

  2
none_device
  4
Letter_(8.50_x_11.00_Inches)
  6

 40
6.35
 41
6.35
 42
6.350005
 43
6.350005
 44
215.9
 45
279.4
 46
0.0
 47
0.0
 48
0.0
 49
0.0
140
0.0
141
0.0
142
1.0
143
1.0
 70
  5808
 72
     0
 73
     0
 74
     0
  7

 75
     0
 76
     0
 77
     2
 78
   300
147
1.0
148
0.0
149
0.0
100
AcDbLayout
  1
Model
 70
     1
 71
     0
 10
0.0
 20
0.0
 11
420.0
 21
297.0
 12
0.0
 22
0.0
 32
0.0
 14
0.0
 24
0.0
 34
0.0
 15
237.5
 25
237.5
 35
2.0
146
0.0
 13
0.0
 23
0.0
 33
0.0
 16
1.0
 26
0.0
 36
0.0
 17
0.0
 27
1.0
 37
0.0
 76
     0
330
1F
331
29
  0
MATERIAL
  5
45
102
{ACAD_REACTORS
330
43
102
}
330
43
100
AcDbMaterial
  1
ByBlock
 72
     1
 94
      127
  0
MATERIAL
  5
44
102
{ACAD_REACTORS
330
43
102
}
330
43
100
AcDbMaterial
  1
ByLayer
 72
     1
 94
      127
  0
MATERIAL
  5
46
102
{ACAD_REACTORS
330
43
102
}
330
43
100
AcDbMaterial
  1
Global
 72
     1
 94
      127
  0
MLEADERSTYLE
  5
6C
102
{ACAD_REACTORS
330
6B
102
}
330
6B
100
AcDbMLeaderStyle
179
     2
170
     2
171
     1
172
     0
 90
        2
 40
0.0
 41
0.0
173
     1
 91
-1056964608
340
14
 92
       -2
290
     1
 42
0.09
291
     1
 43
0.36
  3
Standard
341
0
 44
0.18
300

342
11
174
     1
178
     6
175
     1
176
     0
 93
-1056964608
 45
0.18
292
     0
297
     0
 46
0.18
343
0
 94
-1056964608
 47
1.0
 49
1.0
140
1.0
293
     1
141
0.0
294
     1
177
     0
142
1.0
295
     0
296
     0
143
0.125
271
     0
272
     9
273
     9
  0
MLINESTYLE
  5
18
102
{ACAD_REACTORS
330
17
102
}
330
17
100
AcDbMlineStyle
  2
Standard
 70
     0
  3

 62
   256
 51
90.0
 52
90.0
 71
     2
 49
0.5
 62
   256
  6
BYLAYER
 49
-0.5
 62
   256
  6
BYLAYER
  0
ACDBPLACEHOLDER
  5
F
102
{ACAD_REACTORS
330
E
102
}
330
E
  0
SCALE
  5
48
102
{ACAD_REACTORS
330
47
102
}
330
47
100
AcDbScale
 70
     0
300
1:1
140
1.0
141
1.0
290
     1
  0
SCALE
  5
49
102
{ACAD_REACTORS
330
47
102
}
330
47
100
AcDbScale
 70
     0
300
1:2
140
1.0
141
2.0
290
     0
  0
SCALE
  5
4A
102
{ACAD_REACTORS
330
47
102
}
330
47
100
AcDbScale
 70
     0
300
1:4
140
1.0
141
4.0
290
     0
  0
SCALE
  5
4B
102
{ACAD_REACTORS
330
47
102
}
330
47
100
AcDbScale
 70
     0
300
1:5
140
1.0
141
5.0
290
     0
  0
SCALE
  5
4C
102
{ACAD_REACTORS
330
47
102
}
330
47
100
AcDbScale
 70
     0
300
1:8
140
1.0
141
8.0
290
     0
  0
SCALE
  5
4D
102
{ACAD_REACTORS
330
47
102
}
330
47
100
AcDbScale
 70
     0
300
1:10
140
1.0
141
10.0
290
     0
  0
SCALE
  5
4E
102
{ACAD_REACTORS
330
47
102
}
330
47
100
AcDbScale
 70
     0
300
1:16
140
1.0
141
16.0
290
     0
  0
SCALE
  5
4F
102
{ACAD_REACTORS
330
47
102
}
330
47
100
AcDbScale
 70
     0
300
1:20
140
1.0
141
20.0
290
     0
  0
SCALE
  5
50
102
{ACAD_REACTORS
330
47
102
}
330
47
100
AcDbScale
 70
     0
300
1:30
140
1.0
141
30.0
290
     0
  0
SCALE
  5
51
102
{ACAD_REACTORS
330
47
102
}
330
47
100
AcDbScale
 70
     0
300
1:40
140
1.0
141
40.0
290
     0
  0
SCALE
  5
52
102
{ACAD_REACTORS
330
47
102
}
330
47
100
AcDbScale
 70
     0
300
1:50
140
1.0
141
50.0
290
     0
  0
SCALE
  5
53
102
{ACAD_REACTORS
330
47
102
}
330
47
100
AcDbScale
 70
     0
300
1:100
140
1.0
141
100.0
290
     0
  0
SCALE
  5
54
102
{ACAD_REACTORS
330
47
102
}
330
47
100
AcDbScale
 70
     0
300
2:1
140
2.0
141
1.0
290
     0
  0
SCALE
  5
55
102
{ACAD_REACTORS
330
47
102
}
330
47
100
AcDbScale
 70
     0
300
4:1
140
4.0
141
1.0
290
     0
  0
SCALE
  5
56
102
{ACAD_REACTORS
330
47
102
}
330
47
100
AcDbScale
 70
     0
300
8:1
140
8.0
141
1.0
290
     0
  0
SCALE
  5
57
102
{ACAD_REACTORS
330
47
102
}
330
47
100
AcDbScale
 70
     0
300
10:1
140
10.0
141
1.0
290
     0
  0
SCALE
  5
58
102
{ACAD_REACTORS
330
47
102
}
330
47
100
AcDbScale
 70
     0
300
100:1
140
100.0
141
1.0
290
     0
  0
SCALE
  5
59
102
{ACAD_REACTORS
330
47
102
}
330
47
100
AcDbScale
 70
     0
300
1/128" = 1'-0"
140
0.007812
141
12.0
290
     0
  0
SCALE
  5
5A
102
{ACAD_REACTORS
330
47
102
}
330
47
100
AcDbScale
 70
     0
300
1/64" = 1'-0"
140
0.015625
141
12.0
290
     0
  0
SCALE
  5
5B
102
{ACAD_REACTORS
330
47
102
}
330
47
100
AcDbScale
 70
     0
300
1/32" = 1'-0"
140
0.03125
141
12.0
290
     0
  0
SCALE
  5
5C
102
{ACAD_REACTORS
330
47
102
}
330
47
100
AcDbScale
 70
     0
300
1/16" = 1'-0"
140
0.0625
141
12.0
290
     0
  0
SCALE
  5
5D
102
{ACAD_REACTORS
330
47
102
}
330
47
100
AcDbScale
 70
     0
300
3/32" = 1'-0"
140
0.09375
141
12.0
290
     0
  0
SCALE
  5
5E
102
{ACAD_REACTORS
330
47
102
}
330
47
100
AcDbScale
 70
     0
300
1/8" = 1'-0"
140
0.125
141
12.0
290
     0
  0
SCALE
  5
5F
102
{ACAD_REACTORS
330
47
102
}
330
47
100
AcDbScale
 70
     0
300
3/16" = 1'-0"
140
0.1875
141
12.0
290
     0
  0
SCALE
  5
60
102
{ACAD_REACTORS
330
47
102
}
330
47
100
AcDbScale
 70
     0
300
1/4" = 1'-0"
140
0.25
141
12.0
290
     0
  0
SCALE
  5
61
102
{ACAD_REACTORS
330
47
102
}
330
47
100
AcDbScale
 70
     0
300
3/8" = 1'-0"
140
0.375
141
12.0
290
     0
  0
SCALE
  5
62
102
{ACAD_REACTORS
330
47
102
}
330
47
100
AcDbScale
 70
     0
300
1/2" = 1'-0"
140
0.5
141
12.0
290
     0
  0
SCALE
  5
63
102
{ACAD_REACTORS
330
47
102
}
330
47
100
AcDbScale
 70
     0
300
3/4" = 1'-0"
140
0.75
141
12.0
290
     0
  0
SCALE
  5
64
102
{ACAD_REACTORS
330
47
102
}
330
47
100
AcDbScale
 70
     0
300
1" = 1'-0"
140
1.0
141
12.0
290
     0
  0
SCALE
  5
65
102
{ACAD_REACTORS
330
47
102
}
330
47
100
AcDbScale
 70
     0
300
1-1/2" = 1'-0"
140
1.5
141
12.0
290
     0
  0
SCALE
  5
66
102
{ACAD_REACTORS
330
47
102
}
330
47
100
AcDbScale
 70
     0
300
3" = 1'-0"
140
3.0
141
12.0
290
     0
  0
SCALE
  5
67
102
{ACAD_REACTORS
330
47
102
}
330
47
100
AcDbScale
 70
     0
300
6" = 1'-0"
140
6.0
141
12.0
290
     0
  0
SCALE
  5
68
102
{ACAD_REACTORS
330
47
102
}
330
47
100
AcDbScale
 70
     0
300
1'-0" = 1'-0"
140
12.0
141
12.0
290
     0
  0
TABLESTYLE
  5
6A
102
{ACAD_REACTORS
330
69
102
}
102
{ACAD_XDICTIONARY
360
1A7
102
}
330
69
100
AcDbTableStyle
  3
Standard
 70
     0
 71
     0
 40
0.06
 41
0.06
280
     0
281
     0
  7
Standard
140
0.18
170
     2
 62
     0
 63
   257
283
     0
 90
        4
 91
        0
  1

274
    -2
284
     1
 64
     0
275
    -2
285
     1
 65
     0
276
    -2
286
     1
 66
     0
277
    -2
287
     1
 67
     0
278
    -2
288
     1
 68
     0
279
    -2
289
     1
 69
     0
  7
Standard
140
0.25
170
     5
 62
     0
 63
   257
283
     0
 90
        4
 91
        0
  1

274
    -2
284
     1
 64
     0
275
    -2
285
     1
 65
     0
276
    -2
286
     1
 66
     0
277
    -2
287
     1
 67
     0
278
    -2
288
     1
 68
     0
279
    -2
289
     1
 69
     0
  7
Standard
140
0.18
170
     5
 62
     0
 63
   257
283
     0
 90
        4
 91
        0
  1

274
    -2
284
     1
 64
     0
275
    -2
285
     1
 65
     0
276
    -2
286
     1
 66
     0
277
    -2
287
     1
 67
     0
278
    -2
288
     1
 68
     0
279
    -2
289
     1
 69
     0
  0
VISUALSTYLE
  5
2F
102
{ACAD_REACTORS
330
2A
102
}
330
2A
100
AcDbVisualStyle
  2
2dWireframe
 70
     4
177
     2
291
     0
 71
     0
176
     1
 72
     2
176
     1
 73
     0
176
     1
 90
        0
176
     1
 40
0.6
176
     1
 41
30.0
176
     1
 62
     5
 63
     7
421
 16777215
176
     1
 74
     1
176
     1
 91
        4
176
     1
 64
     7
176
     1
 65
   257
176
     1
 75
     1
176
     1
175
     1
176
     1
 42
1.0
176
     1
 92
        0
176
     1
 66
   257
176
     1
 43
1.0
176
     1
 76
     1
176
     1
 77
     6
176
     1
 78
     2
176
     1
 67
     7
176
     1
 79
     5
176
     1
170
     0
176
     1
171
     0
176
     1
290
     0
176
     1
 93
        1
176
     1
 44
0.0
176
     1
173
     0
176
     1
  0
VISUALSTYLE
  5
32
102
{ACAD_REACTORS
330
2A
102
}
330
2A
100
AcDbVisualStyle
  2
Basic
 70
     7
177
     2
291
     1
 71
     1
176
     1
 72
     0
176
     1
 73
     1
176
     1
 90
        0
176
     1
 40
0.6
176
     1
 41
30.0
176
     1
 62
     5
 63
     7
421
 16777215
176
     1
 74
     0
176
     1
 91
        4
176
     1
 64
     7
176
     1
 65
   257
176
     1
 75
     1
176
     1
175
     1
176
     1
 42
1.0
176
     1
 92
        8
176
     1
 66
     7
176
     1
 43
1.0
176
     1
 76
     1
176
     1
 77
     6
176
     1
 78
     2
176
     1
 67
     7
176
     1
 79
     5
176
     1
170
     0
176
     1
171
     0
176
     1
290
     0
176
     1
 93
        1
176
     1
 44
0.0
176
     1
173
     0
176
     1
  0
VISUALSTYLE
  5
36
102
{ACAD_REACTORS
330
2A
102
}
330
2A
100
AcDbVisualStyle
  2
Brighten
 70
    12
177
     2
291
     1
 71
     2
176
     1
 72
     2
176
     1
 73
     0
176
     1
 90
        0
176
     1
 40
0.6
176
     1
 41
30.0
176
     1
 62
     5
 63
     7
421
 16777215
176
     1
 74
     1
176
     1
 91
        4
176
     1
 64
     7
176
     1
 65
   257
176
     1
 75
     1
176
     1
175
     1
176
     1
 42
1.0
176
     1
 92
        8
176
     1
 66
     7
176
     1
 43
1.0
176
     1
 76
     1
176
     1
 77
     6
176
     1
 78
     2
176
     1
 67
     7
176
     1
 79
     5
176
     1
170
     0
176
     1
171
     0
176
     1
290
     0
176
     1
 93
        1
176
     1
 44
50.0
176
     1
173
     0
176
     1
  0
VISUALSTYLE
  5
3A
102
{ACAD_REACTORS
330
2A
102
}
330
2A
100
AcDbVisualStyle
  2
ColorChange
 70
    16
177
     2
291
     1
 71
     2
176
     1
 72
     2
176
     1
 73
     3
176
     1
 90
        0
176
     1
 40
0.6
176
     1
 41
30.0
176
     1
 62
     5
 63
     8
421
  8421504
176
     1
 74
     1
176
     1
 91
        4
176
     1
 64
     7
176
     1
 65
   257
176
     1
 75
     1
176
     1
175
     1
176
     1
 42
1.0
176
     1
 92
        8
176
     1
 66
     8
424
  8421504
176
     1
 43
1.0
176
     1
 76
     1
176
     1
 77
     6
176
     1
 78
     2
176
     1
 67
     7
176
     1
 79
     5
176
     1
170
     0
176
     1
171
     0
176
     1
290
     0
176
     1
 93
        1
176
     1
 44
0.0
176
     1
173
     0
176
     1
  0
VISUALSTYLE
  5
34
102
{ACAD_REACTORS
330
2A
102
}
330
2A
100
AcDbVisualStyle
  2
Conceptual
 70
     9
177
     2
291
     0
 71
     3
176
     1
 72
     2
176
     1
 73
     0
176
     1
 90
        0
176
     1
 40
0.6
176
     1
 41
30.0
176
     1
 62
     5
 63
     7
421
 16777215
176
     1
 74
     2
176
     1
 91
        2
176
     1
 64
     7
176
     1
 65
   257
176
     1
 75
     1
176
     1
175
     1
176
     1
 42
179.0
176
     1
 92
        8
176
     1
 66
     7
176
     1
 43
1.0
176
     1
 76
     1
176
     1
 77
     6
176
     1
 78
     2
176
     1
 67
     7
176
     1
 79
     3
176
     1
170
     0
176
     1
171
     0
176
     1
290
     0
176
     1
 93
        1
176
     1
 44
0.0
176
     1
173
     0
176
     1
  0
VISUALSTYLE
  5
35
102
{ACAD_REACTORS
330
2A
102
}
330
2A
100
AcDbVisualStyle
  2
Dim
 70
    11
177
     2
291
     1
 71
     2
176
     1
 72
     2
176
     1
 73
     0
176
     1
 90
        0
176
     1
 40
0.6
176
     1
 41
30.0
176
     1
 62
     5
 63
     7
421
 16777215
176
     1
 74
     1
176
     1
 91
        4
176
     1
 64
     7
176
     1
 65
   257
176
     1
 75
     1
176
     1
175
     1
176
     1
 42
1.0
176
     1
 92
        8
176
     1
 66
     7
176
     1
 43
1.0
176
     1
 76
     1
176
     1
 77
     6
176
     1
 78
     2
176
     1
 67
     7
176
     1
 79
     5
176
     1
170
     0
176
     1
171
     0
176
     1
290
     0
176
     1
 93
        1
176
     1
 44
-50.0
176
     1
173
     0
176
     1
  0
VISUALSTYLE
  5
3D
102
{ACAD_REACTORS
330
2A
102
}
330
2A
100
AcDbVisualStyle
  2
EdgeColorOff
 70
    22
177
     2
291
     1
 71
     2
176
     0
 72
     2
176
     0
 73
     0
176
     0
 90
        0
176
     0
 40
0.6
176
     0
 41
30.0
176
     0
 62
     5
 63
     7
421
 16777215
176
     0
 74
     1
176
     0
 91
        4
176
     0
 64
     7
176
     0
 65
   257
176
     0
 75
     1
176
     0
175
     1
176
     0
 42
1.0
176
     0
 92
        8
176
     2
 66
     7
176
     0
 43
1.0
176
     0
 76
     1
176
     0
 77
     6
176
     0
 78
     2
176
     0
 67
     7
176
     0
 79
     5
176
     0
170
     0
176
     0
171
     0
176
     0
290
     0
176
     0
 93
        1
176
     0
 44
0.0
176
     0
173
     0
176
     0
  0
VISUALSTYLE
  5
39
102
{ACAD_REACTORS
330
2A
102
}
330
2A
100
AcDbVisualStyle
  2
Facepattern
 70
    15
177
     2
291
     1
 71
     2
176
     1
 72
     2
176
     1
 73
     0
176
     1
 90
        0
176
     1
 40
0.6
176
     1
 41
30.0
176
     1
 62
     5
 63
     7
421
 16777215
176
     1
 74
     1
176
     1
 91
        4
176
     1
 64
     7
176
     1
 65
   257
176
     1
 75
     1
176
     1
175
     1
176
     1
 42
1.0
176
     1
 92
        8
176
     1
 66
     7
176
     1
 43
1.0
176
     1
 76
     1
176
     1
 77
     6
176
     1
 78
     2
176
     1
 67
     7
176
     1
 79
     5
176
     1
170
     0
176
     1
171
     0
176
     1
290
     0
176
     1
 93
        1
176
     1
 44
0.0
176
     1
173
     0
176
     1
  0
VISUALSTYLE
  5
2B
102
{ACAD_REACTORS
330
2A
102
}
330
2A
100
AcDbVisualStyle
  2
Flat
 70
     0
177
     2
291
     1
 71
     2
176
     1
 72
     1
176
     1
 73
     1
176
     1
 90
        2
176
     1
 40
0.6
176
     1
 41
30.0
176
     1
 62
     5
 63
     7
421
 16777215
176
     1
 74
     0
176
     1
 91
        0
176
     1
 64
     7
176
     1
 65
   257
176
     1
 75
     1
176
     1
175
     1
176
     1
 42
1.0
176
     1
 92
        8
176
     1
 66
     7
176
     1
 43
1.0
176
     1
 76
     1
176
     1
 77
     6
176
     1
 78
     2
176
     1
 67
     7
176
     1
 79
     5
176
     1
170
     0
176
     1
171
     0
176
     1
290
     0
176
     1
 93
       13
176
     1
 44
0.0
176
     1
173
     0
176
     1
  0
VISUALSTYLE
  5
2C
102
{ACAD_REACTORS
330
2A
102
}
330
2A
100
AcDbVisualStyle
  2
FlatWithEdges
 70
     1
177
     2
291
     1
 71
     2
176
     1
 72
     1
176
     1
 73
     1
176
     1
 90
        2
176
     1
 40
0.6
176
     1
 41
30.0
176
     1
 62
     5
 63
     7
421
 16777215
176
     1
 74
     1
176
     1
 91
        0
176
     1
 64
     7
176
     1
 65
   257
176
     1
 75
     1
176
     1
175
     1
176
     1
 42
1.0
176
     1
 92
        0
176
     1
 66
   257
176
     1
 43
1.0
176
     1
 76
     1
176
     1
 77
     6
176
     1
 78
     2
176
     1
 67
     7
176
     1
 79
     5
176
     1
170
     0
176
     1
171
     0
176
     1
290
     0
176
     1
 93
       13
176
     1
 44
0.0
176
     1
173
     0
176
     1
  0
VISUALSTYLE
  5
2D
102
{ACAD_REACTORS
330
2A
102
}
330
2A
100
AcDbVisualStyle
  2
Gouraud
 70
     2
177
     2
291
     1
 71
     2
176
     1
 72
     2
176
     1
 73
     1
176
     1
 90
        2
176
     1
 40
0.6
176
     1
 41
30.0
176
     1
 62
     5
 63
     7
421
 16777215
176
     1
 74
     0
176
     1
 91
        0
176
     1
 64
     7
176
     1
 65
   257
176
     1
 75
     1
176
     1
175
     1
176
     1
 42
1.0
176
     1
 92
        0
176
     1
 66
     7
176
     1
 43
1.0
176
     1
 76
     1
176
     1
 77
     6
176
     1
 78
     2
176
     1
 67
     7
176
     1
 79
     5
176
     1
170
     0
176
     1
171
     0
176
     1
290
     0
176
     1
 93
       13
176
     1
 44
0.0
176
     1
173
     0
176
     1
  0
VISUALSTYLE
  5
2E
102
{ACAD_REACTORS
330
2A
102
}
330
2A
100
AcDbVisualStyle
  2
GouraudWithEdges
 70
     3
177
     2
291
     1
 71
     2
176
     1
 72
     2
176
     1
 73
     1
176
     1
 90
        2
176
     1
 40
0.6
176
     1
 41
30.0
176
     1
 62
     5
 63
     7
421
 16777215
176
     1
 74
     1
176
     1
 91
        0
176
     1
 64
     7
176
     1
 65
   257
176
     1
 75
     1
176
     1
175
     1
176
     1
 42
1.0
176
     1
 92
        0
176
     1
 66
   257
176
     1
 43
1.0
176
     1
 76
     1
176
     1
 77
     6
176
     1
 78
     2
176
     1
 67
     7
176
     1
 79
     5
176
     1
170
     0
176
     1
171
     0
176
     1
290
     0
176
     1
 93
       13
176
     1
 44
0.0
176
     1
173
     0
176
     1
  0
VISUALSTYLE
  5
31
102
{ACAD_REACTORS
330
2A
102
}
330
2A
100
AcDbVisualStyle
  2
Hidden
 70
     6
177
     2
291
     0
 71
     1
176
     1
 72
     2
176
     1
 73
     2
176
     1
 90
        0
176
     1
 40
0.6
176
     1
 41
30.0
176
     1
 62
     5
 63
     7
421
 16777215
176
     1
 74
     2
176
     1
 91
        2
176
     1
 64
     7
176
     1
 65
   257
176
     1
 75
     2
176
     1
175
     1
176
     1
 42
40.0
176
     1
 92
        0
176
     1
 66
   257
176
     1
 43
1.0
176
     1
 76
     1
176
     1
 77
     6
176
     1
 78
     2
176
     1
 67
     7
176
     1
 79
     3
176
     1
170
     0
176
     1
171
     0
176
     1
290
     0
176
     1
 93
        1
176
     1
 44
0.0
176
     1
173
     0
176
     1
  0
VISUALSTYLE
  5
3B
102
{ACAD_REACTORS
330
2A
102
}
330
2A
100
AcDbVisualStyle
  2
JitterOff
 70
    20
177
     2
291
     1
 71
     2
176
     0
 72
     2
176
     0
 73
     0
176
     0
 90
        0
176
     0
 40
0.6
176
     0
 41
30.0
176
     0
 62
     5
 63
     7
421
 16777215
176
     0
 74
     1
176
     0
 91
        4
176
     0
 64
     7
176
     0
 65
   257
176
     0
 75
     1
176
     0
175
     1
176
     0
 42
1.0
176
     0
 92
       10
176
     2
 66
     7
176
     0
 43
1.0
176
     0
 76
     1
176
     0
 77
     6
176
     0
 78
     2
176
     0
 67
     7
176
     0
 79
     5
176
     0
170
     0
176
     0
171
     0
176
     0
290
     0
176
     0
 93
        1
176
     0
 44
0.0
176
     0
173
     0
176
     0
  0
VISUALSTYLE
  5
38
102
{ACAD_REACTORS
330
2A
102
}
330
2A
100
AcDbVisualStyle
  2
Linepattern
 70
    14
177
     2
291
     1
 71
     2
176
     1
 72
     2
176
     1
 73
     0
176
     1
 90
        0
176
     1
 40
0.6
176
     1
 41
30.0
176
     1
 62
     5
 63
     7
421
 16777215
176
     1
 74
     1
176
     1
 91
        4
176
     1
 64
     7
176
     1
 65
   257
176
     1
 75
     7
176
     1
175
     7
176
     1
 42
1.0
176
     1
 92
        8
176
     1
 66
     7
176
     1
 43
1.0
176
     1
 76
     1
176
     1
 77
     6
176
     1
 78
     2
176
     1
 67
     7
176
     1
 79
     5
176
     1
170
     0
176
     1
171
     0
176
     1
290
     0
176
     1
 93
        1
176
     1
 44
0.0
176
     1
173
     0
176
     1
  0
VISUALSTYLE
  5
3C
102
{ACAD_REACTORS
330
2A
102
}
330
2A
100
AcDbVisualStyle
  2
OverhangOff
 70
    21
177
     2
291
     1
 71
     2
176
     0
 72
     2
176
     0
 73
     0
176
     0
 90
        0
176
     0
 40
0.6
176
     0
 41
30.0
176
     0
 62
     5
 63
     7
421
 16777215
176
     0
 74
     1
176
     0
 91
        4
176
     0
 64
     7
176
     0
 65
   257
176
     0
 75
     1
176
     0
175
     1
176
     0
 42
1.0
176
     0
 92
        9
176
     2
 66
     7
176
     0
 43
1.0
176
     0
 76
     1
176
     0
 77
     6
176
     0
 78
     2
176
     0
 67
     7
176
     0
 79
     5
176
     0
170
     0
176
     0
171
     0
176
     0
290
     0
176
     0
 93
        1
176
     0
 44
0.0
176
     0
173
     0
176
     0
  0
VISUALSTYLE
  5
33
102
{ACAD_REACTORS
330
2A
102
}
330
2A
100
AcDbVisualStyle
  2
Realistic
 70
     8
177
     2
291
     0
 71
     2
176
     1
 72
     3
176
     1
 73
     0
176
     1
 90
        2
176
     1
 40
0.6
176
     1
 41
30.0
176
     1
 62
     5
 63
     7
421
 16777215
176
     1
 74
     0
176
     1
 91
        0
176
     1
 64
     7
176
     1
 65
   257
176
     1
 75
     1
176
     1
175
     1
176
     1
 42
1.0
176
     1
 92
        8
176
     1
 66
   257
176
     1
 43
1.0
176
     1
 76
     1
176
     1
 77
     6
176
     1
 78
     2
176
     1
 67
     7
176
     1
 79
     3
176
     1
170
     0
176
     1
171
     0
176
     1
290
     0
176
     1
 93
       13
176
     1
 44
0.0
176
     1
173
     0
176
     1
  0
VISUALSTYLE
  5
42
102
{ACAD_REACTORS
330
2A
102
}
330
2A
100
AcDbVisualStyle
  2
Shaded
 70
    27
177
     2
291
     0
 71
     2
176
     1
 72
     2
176
     1
 73
     1
176
     1
 90
        2
176
     1
 40
0.6
176
     1
 41
30.0
176
     1
 62
     5
 63
     7
421
 16777215
176
     1
 74
     0
176
     1
 91
        4
176
     1
 64
     7
176
     1
 65
   257
176
     1
 75
     1
176
     1
175
     1
176
     1
 42
1.0
176
     1
 92
        8
176
     1
 66
   257
176
     1
 43
1.0
176
     1
 76
     1
176
     1
 77
     6
176
     1
 78
     2
176
     1
 67
     8
425
  7895160
176
     1
 79
     3
176
     1
170
     0
176
     1
171
     0
176
     1
290
     0
176
     1
 93
        5
176
     1
 44
0.0
176
     1
173
     0
176
     1
  0
VISUALSTYLE
  5
41
102
{ACAD_REACTORS
330
2A
102
}
330
2A
100
AcDbVisualStyle
  2
Shaded with edges
 70
    26
177
     2
291
     0
 71
     2
176
     1
 72
     2
176
     1
 73
     1
176
     1
 90
        2
176
     1
 40
0.6
176
     1
 41
30.0
176
     1
 62
     5
 63
     7
421
 16777215
176
     1
 74
     1
176
     1
 91
       10
176
     1
 64
     7
176
     1
 65
   257
176
     1
 75
     2
176
     1
175
     1
176
     1
 42
1.0
176
     1
 92
        8
176
     1
 66
   257
176
     1
 43
1.0
176
     1
 76
     1
176
     1
 77
     6
176
     1
 78
     2
176
     1
 67
     7
176
     1
 79
     3
176
     1
170
     0
176
     1
171
     0
176
     1
290
     0
176
     1
 93
        5
176
     1
 44
0.0
176
     1
173
     0
176
     1
  0
VISUALSTYLE
  5
3E
102
{ACAD_REACTORS
330
2A
102
}
330
2A
100
AcDbVisualStyle
  2
Shades of Gray
 70
    23
177
     2
291
     0
 71
     2
176
     1
 72
     2
176
     1
 73
     3
176
     1
 90
        0
176
     1
 40
0.6
176
     1
 41
30.0
176
     1
 62
     5
 63
     7
421
 16777215
176
     1
 74
     2
176
     1
 91
        2
176
     1
 64
     7
176
     1
 65
     7
176
     1
 75
     1
176
     1
175
     1
176
     1
 42
40.0
176
     1
 92
        8
176
     1
 66
     7
176
     1
 43
1.0
176
     1
 76
     1
176
     1
 77
     6
176
     1
 78
     2
176
     1
 67
     7
176
     1
 79
     3
176
     1
170
     0
176
     1
171
     0
176
     1
290
     0
176
     1
 93
        1
176
     1
 44
0.0
176
     1
173
     0
176
     1
  0
VISUALSTYLE
  5
3F
102
{ACAD_REACTORS
330
2A
102
}
330
2A
100
AcDbVisualStyle
  2
Sketchy
 70
    24
177
     2
291
     0
 71
     1
176
     1
 72
     2
176
     1
 73
     2
176
     1
 90
        0
176
     1
 40
0.6
176
     1
 41
30.0
176
     1
 62
     5
 63
     7
421
 16777215
176
     1
 74
     2
176
     1
 91
        2
176
     1
 64
     7
176
     1
 65
     7
176
     1
 75
     1
176
     1
175
     1
176
     1
 42
40.0
176
     1
 92
       11
176
     1
 66
     7
176
     1
 43
1.0
176
     1
 76
     1
176
     1
 77
     6
176
     1
 78
     2
176
     1
 67
     7
176
     1
 79
     6
176
     1
170
     0
176
     1
171
     0
176
     1
290
     0
176
     1
 93
        1
176
     1
 44
0.0
176
     1
173
     0
176
     1
  0
VISUALSTYLE
  5
37
102
{ACAD_REACTORS
330
2A
102
}
330
2A
100
AcDbVisualStyle
  2
Thicken
 70
    13
177
     2
291
     1
 71
     2
176
     1
 72
     2
176
     1
 73
     0
176
     1
 90
        0
176
     1
 40
0.6
176
     1
 41
30.0
176
     1
 62
     5
 63
     7
421
 16777215
176
     1
 74
     1
176
     1
 91
        4
176
     1
 64
     7
176
     1
 65
   257
176
     1
 75
     1
176
     1
175
     1
176
     1
 42
1.0
176
     1
 92
       12
176
     1
 66
     7
176
     1
 43
1.0
176
     1
 76
     1
176
     1
 77
     6
176
     1
 78
     2
176
     1
 67
     7
176
     1
 79
     5
176
     1
170
     0
176
     1
171
     0
176
     1
290
     0
176
     1
 93
        1
176
     1
 44
0.0
176
     1
173
     0
176
     1
  0
VISUALSTYLE
  5
30
102
{ACAD_REACTORS
330
2A
102
}
330
2A
100
AcDbVisualStyle
  2
Wireframe
 70
     5
177
     2
291
     0
 71
     0
176
     1
 72
     2
176
     1
 73
     0
176
     1
 90
        0
176
     1
 40
0.6
176
     1
 41
30.0
176
     1
 62
     5
 63
     7
421
 16777215
176
     1
 74
     1
176
     1
 91
        4
176
     1
 64
     7
176
     1
 65
   257
176
     1
 75
     1
176
     1
175
     1
176
     1
 42
1.0
176
     1
 92
        0
176
     1
 66
   257
176
     1
 43
1.0
176
     1
 76
     1
176
     1
 77
     6
176
     1
 78
     2
176
     1
 67
     7
176
     1
 79
     3
176
     1
170
     0
176
     1
171
     0
176
     1
290
     0
176
     1
 93
        1
176
     1
 44
0.0
176
     1
173
     0
176
     1
  0
VISUALSTYLE
  5
40
102
{ACAD_REACTORS
330
2A
102
}
330
2A
100
AcDbVisualStyle
  2
X-Ray
 70
    25
177
     2
291
     0
 71
     2
176
     1
 72
     2
176
     1
 73
     1
176
     1
 90
        1
176
     1
 40
0.5
176
     1
 41
30.0
176
     1
 62
     5
 63
     7
421
 16777215
176
     1
 74
     1
176
     1
 91
        0
176
     1
 64
     7
176
     1
 65
   257
176
     1
 75
     1
176
     1
175
     1
176
     1
 42
1.0
176
     1
 92
        8
176
     1
 66
     7
176
     1
 43
1.0
176
     1
 76
     1
176
     1
 77
     6
176
     1
 78
     2
176
     1
 67
     7
176
     1
 79
     3
176
     1
170
     0
176
     1
171
     0
176
     1
290
     0
176
     1
 93
       13
176
     1
 44
0.0
176
     1
173
     0
176
     1
  0
DICTIONARYVAR
  5
1A6
102
{ACAD_REACTORS
330
1A5
102
}
330
1A5
100
DictionaryVariables
280
     0
  1
1:1
  0
DICTIONARYVAR
  5
1AB
102
{ACAD_REACTORS
330
1A5
102
}
330
1A5
100
DictionaryVariables
280
     0
  1
Standard
  0
DICTIONARYVAR
  5
1AA
102
{ACAD_REACTORS
330
1A5
102
}
330
1A5
100
DictionaryVariables
280
     0
  1
Standard
  0
DICTIONARYVAR
  5
1AC
102
{ACAD_REACTORS
330
1A5
102
}
330
1A5
100
DictionaryVariables
280
     0
  1
0
  0
DICTIONARY
  5
1A7
330
6A
100
AcDbDictionary
280
     1
281
     1
  3
ACAD_ROUNDTRIP_2008_TABLESTYLE_CELLSTYLEMAP
360
1A8
  0
CELLSTYLEMAP
  5
1A8
102
{ACAD_REACTORS
330
1A7
102
}
330
1A7
100
AcDbCellStyleMap
 90
        3
300
CELLSTYLE
  1
TABLEFORMAT_BEGIN
 90
        5
170
     1
 91
        0
 92
    32768
 62
   257
 93
        1
300
CONTENTFORMAT
  1
CONTENTFORMAT_BEGIN
 90
        0
 91
        0
 92
        4
 93
        0
300

 40
0.0
140
1.0
 94
        5
 62
     0
340
11
144
0.25
309
CONTENTFORMAT_END
171
     1
301
MARGIN
  1
CELLMARGIN_BEGIN
 40
0.06
 40
0.06
 40
0.06
 40
0.06
 40
0.06
 40
0.06
309
CELLMARGIN_END
 94
        6
 95
        1
302
GRIDFORMAT
  1
GRIDFORMAT_BEGIN
 90
        0
 91
        1
 62
     0
 92
       -2
340
14
 93
        0
 40
0.045
309
GRIDFORMAT_END
 95
        2
302
GRIDFORMAT
  1
GRIDFORMAT_BEGIN
 90
        0
 91
        1
 62
     0
 92
       -2
340
14
 93
        0
 40
0.045
309
GRIDFORMAT_END
 95
        4
302
GRIDFORMAT
  1
GRIDFORMAT_BEGIN
 90
        0
 91
        1
 62
     0
 92
       -2
340
14
 93
        0
 40
0.045
309
GRIDFORMAT_END
 95
        8
302
GRIDFORMAT
  1
GRIDFORMAT_BEGIN
 90
        0
 91
        1
 62
     0
 92
       -2
340
14
 93
        0
 40
0.045
309
GRIDFORMAT_END
 95
       16
302
GRIDFORMAT
  1
GRIDFORMAT_BEGIN
 90
        0
 91
        1
 62
     0
 92
       -2
340
14
 93
        0
 40
0.045
309
GRIDFORMAT_END
 95
       32
302
GRIDFORMAT
  1
GRIDFORMAT_BEGIN
 90
        0
 91
        1
 62
     0
 92
       -2
340
14
 93
        0
 40
0.045
309
GRIDFORMAT_END
309
TABLEFORMAT_END
  1
CELLSTYLE_BEGIN
 90
        1
 91
        1
300
_TITLE
309
CELLSTYLE_END
300
CELLSTYLE
  1
TABLEFORMAT_BEGIN
 90
        5
170
     1
 91
        0
 92
        0
 62
   257
 93
        1
300
CONTENTFORMAT
  1
CONTENTFORMAT_BEGIN
 90
        0
 91
        0
 92
        4
 93
        0
300

 40
0.0
140
1.0
 94
        5
 62
     0
340
11
144
0.18
309
CONTENTFORMAT_END
171
     1
301
MARGIN
  1
CELLMARGIN_BEGIN
 40
0.06
 40
0.06
 40
0.06
 40
0.06
 40
0.06
 40
0.06
309
CELLMARGIN_END
 94
        6
 95
        1
302
GRIDFORMAT
  1
GRIDFORMAT_BEGIN
 90
        0
 91
        1
 62
     0
 92
       -2
340
14
 93
        0
 40
0.045
309
GRIDFORMAT_END
 95
        2
302
GRIDFORMAT
  1
GRIDFORMAT_BEGIN
 90
        0
 91
        1
 62
     0
 92
       -2
340
14
 93
        0
 40
0.045
309
GRIDFORMAT_END
 95
        4
302
GRIDFORMAT
  1
GRIDFORMAT_BEGIN
 90
        0
 91
        1
 62
     0
 92
       -2
340
14
 93
        0
 40
0.045
309
GRIDFORMAT_END
 95
        8
302
GRIDFORMAT
  1
GRIDFORMAT_BEGIN
 90
        0
 91
        1
 62
     0
 92
       -2
340
14
 93
        0
 40
0.045
309
GRIDFORMAT_END
 95
       16
302
GRIDFORMAT
  1
GRIDFORMAT_BEGIN
 90
        0
 91
        1
 62
     0
 92
       -2
340
14
 93
        0
 40
0.045
309
GRIDFORMAT_END
 95
       32
302
GRIDFORMAT
  1
GRIDFORMAT_BEGIN
 90
        0
 91
        1
 62
     0
 92
       -2
340
14
 93
        0
 40
0.045
309
GRIDFORMAT_END
309
TABLEFORMAT_END
  1
CELLSTYLE_BEGIN
 90
        2
 91
        1
300
_HEADER
309
CELLSTYLE_END
300
CELLSTYLE
  1
TABLEFORMAT_BEGIN
 90
        5
170
     1
 91
        0
 92
        0
 62
   257
 93
        1
300
CONTENTFORMAT
  1
CONTENTFORMAT_BEGIN
 90
        0
 91
        0
 92
        4
 93
        0
300

 40
0.0
140
1.0
 94
        2
 62
     0
340
11
144
0.18
309
CONTENTFORMAT_END
171
     1
301
MARGIN
  1
CELLMARGIN_BEGIN
 40
0.06
 40
0.06
 40
0.06
 40
0.06
 40
0.06
 40
0.06
309
CELLMARGIN_END
 94
        6
 95
        1
302
GRIDFORMAT
  1
GRIDFORMAT_BEGIN
 90
        0
 91
        1
 62
     0
 92
       -2
340
14
 93
        0
 40
0.045
309
GRIDFORMAT_END
 95
        2
302
GRIDFORMAT
  1
GRIDFORMAT_BEGIN
 90
        0
 91
        1
 62
     0
 92
       -2
340
14
 93
        0
 40
0.045
309
GRIDFORMAT_END
 95
        4
302
GRIDFORMAT
  1
GRIDFORMAT_BEGIN
 90
        0
 91
        1
 62
     0
 92
       -2
340
14
 93
        0
 40
0.045
309
GRIDFORMAT_END
 95
        8
302
GRIDFORMAT
  1
GRIDFORMAT_BEGIN
 90
        0
 91
        1
 62
     0
 92
       -2
340
14
 93
        0
 40
0.045
309
GRIDFORMAT_END
 95
       16
302
GRIDFORMAT
  1
GRIDFORMAT_BEGIN
 90
        0
 91
        1
 62
     0
 92
       -2
340
14
 93
        0
 40
0.045
309
GRIDFORMAT_END
 95
       32
302
GRIDFORMAT
  1
GRIDFORMAT_BEGIN
 90
        0
 91
        1
 62
     0
 92
       -2
340
14
 93
        0
 40
0.045
309
GRIDFORMAT_END
309
TABLEFORMAT_END
  1
CELLSTYLE_BEGIN
 90
        3
 91
        2
300
_DATA
309
CELLSTYLE_END
  0
ENDSEC
  0
EOF
