  0
SECTION
  2
HEADER
  9
$ACADVER
  1
AC1024
  9
$ACADMAINTVER
 70
     6
  9
$DWGCODEPAGE
  3
ANSI_1252
  9
$INSBASE
 10
0.0
 20
0.0
 30
0.0
  9
$EXTMIN
 10
0.0
 20
0.0
 30
0.0
  9
$EXTMAX
 10
237.5
 20
237.5
 30
2.0
  9
$LIMMIN
 10
0.0
 20
0.0
  9
$LIMMAX
 10
420.0
 20
297.0
  9
$ORTHOMODE
 70
     0
  9
$REGENMODE
 70
     1
  9
$FILLMODE
 70
     1
  9
$QTEXTMODE
 70
     0
  9
$MIRRTEXT
 70
     1
  9
$LTSCALE
 40
1.0
  9
$ATTMODE
 70
     1
  9
$TEXTSIZE
 40
2.5
  9
$TRACEWID
 40
1.0
  9
$TEXTSTYLE
  7
Standard
  9
$CLAYER
  8
0
  9
$CELTYPE
  6
ByLayer
  9
$CECOLOR
 62
   256
  9
$CELTSCALE
 40
1.0
  9
$DISPSILH
 70
     0
  9
$DIMSCALE
 40
1.0
  9
$DIMASZ
 40
2.5
  9
$DIMEXO
 40
0.625
  9
$DIMDLI
 40
3.75
  9
$DIMRND
 40
0.0
  9
$DIMDLE
 40
0.0
  9
$DIMEXE
 40
1.25
  9
$DIMTP
 40
0.0
  9
$DIMTM
 40
0.0
  9
$DIMTXT
 40
2.5
  9
$DIMCEN
 40
2.5
  9
$DIMTSZ
 40
0.0
  9
$DIMTOL
 70
     0
  9
$DIMLIM
 70
     0
  9
$DIMTIH
 70
     0
  9
$DIMTOH
 70
     0
  9
$DIMSE1
 70
     0
  9
$DIMSE2
 70
     0
  9
$DIMTAD
 70
     1
  9
$DIMZIN
 70
     8
  9
$DIMBLK
  1

  9
$DIMASO
 70
     1
  9
$DIMSHO
 70
     1
  9
$DIMPOST
  1

  9
$DIMAPOST
  1

  9
$DIMALT
 70
     0
  9
$DIMALTD
 70
     3
  9
$DIMALTF
 40
0.03937
  9
$DIMLFAC
 40
1.0
  9
$DIMTOFL
 70
     1
  9
$DIMTVP
 40
0.0
  9
$DIMTIX
 70
     0
  9
$DIMSOXD
 70
     0
  9
$DIMSAH
 70
     0
  9
$DIMBLK1
  1

  9
$DIMBLK2
  1

  9
$DIMSTYLE
  2
Standard
  9
$DIMCLRD
 70
     0
  9
$DIMCLRE
 70
     0
  9
$DIMCLRT
 70
     0
  9
$DIMTFAC
 40
1.0
  9
$DIMGAP
 40
0.625
  9
$DIMJUST
 70
     0
  9
$DIMSD1
 70
     0
  9
$DIMSD2
 70
     0
  9
$DIMTOLJ
 70
     0
  9
$DIMTZIN
 70
     8
  9
$DIMALTZ
 70
     0
  9
$DIMALTTZ
 70
     0
  9
$DIMUPT
 70
     0
  9
$DIMDEC
 70
     2
  9
$DIMTDEC
 70
     2
  9
$DIMALTU
 70
     2
  9
$DIMALTTD
 70
     3
  9
$DIMTXSTY
  7
Standard
  9
$DIMAUNIT
 70
     0
  9
$DIMADEC
 70
     0
  9
$DIMALTRND
 40
0.0
  9
$DIMAZIN
 70
     0
  9
$DIMDSEP
 70
    44
  9
$DIMATFIT
 70
     0
  9
$DIMFRAC
 70
     0
  9
$DIMLDRBLK
  1

  9
$DIMLUNIT
 70
     2
  9
$DIMLWD
 70
    -2
  9
$DIMLWE
 70
    -2
  9
$DIMTMOVE
 70
     0
  9
$DIMFXL
 40
1.0
  9
$DIMFXLON
 70
     0
  9
$DIMJOGANG
 40
0.785398
  9
$DIMTFILL
 70
     0
  9
$DIMTFILLCLR
 70
     0
  9
$DIMARCSYM
 70
     0
  9
$DIMLTYPE
  6

  9
$DIMLTEX1
  6

  9
$DIMLTEX2
  6

  9
$DIMTXTDIRECTION
 70
     0
  9
$LUNITS
 70
     2
  9
$LUPREC
 70
     4
  9
$SKETCHINC
 40
1.0
  9
$FILLETRAD
 40
2.5
  9
$AUNITS
 70
     0
  9
$AUPREC
 70
     0
  9
$MENU
  1
.
  9
$ELEVATION
 40
0.0
  9
$PELEVATION
 40
0.0
  9
$THICKNESS
 40
0.0
  9
$LIMCHECK
 70
     0
  9
$CHAMFERA
 40
2.5
  9
$CHAMFERB
 40
2.5
  9
$CHAMFERC
 40
0.0
  9
$CHAMFERD
 40
0.0
  9
$SKPOLY
 70
     0
  9
$TDCREATE
 40
2447893.083333333
  9
$TDUCREATE
 40
0.0
  9
$TDUPDATE
 40
2458650.412071956
  9
$TDUUPDATE
 40
2458650.328738623
  9
$TDINDWG
 40
0.0
  9
$TDUSRTIMER
 40
0.0
  9
$USRTIMER
 70
     1
  9
$ANGBASE
 50
0.0
  9
$ANGDIR
 70
     0
  9
$PDMODE
 70
     0
  9
$PDSIZE
 40
0.0
  9
$PLINEWID
 40
0.0
  9
$SPLFRAME
 70
     0
  9
$SPLINETYPE
 70
     6
  9
$SPLINESEGS
 70
     8
  9
$HANDSEED
  5
1CC
  9
$SURFTAB1
 70
     6
  9
$SURFTAB2
 70
     6
  9
$SURFTYPE
 70
     6
  9
$SURFU
 70
     6
  9
$SURFV
 70
     6
  9
$UCSBASE
  2

  9
$UCSNAME
  2

  9
$UCSORG
 10
0.0
 20
0.0
 30
0.0
  9
$UCSXDIR
 10
1.0
 20
0.0
 30
0.0
  9
$UCSYDIR
 10
0.0
 20
1.0
 30
0.0
  9
$UCSORTHOREF
  2

  9
$UCSORTHOVIEW
 70
     1
  9
$UCSORGTOP
 10
0.0
 20
0.0
 30
0.0
  9
$UCSORGBOTTOM
 10
0.0
 20
0.0
 30
0.0
  9
$UCSORGLEFT
 10
0.0
 20
0.0
 30
0.0
  9
$UCSORGRIGHT
 10
0.0
 20
0.0
 30
0.0
  9
$UCSORGFRONT
 10
0.0
 20
0.0
 30
0.0
  9
$UCSORGBACK
 10
0.0
 20
0.0
 30
0.0
  9
$PUCSBASE
  2

  9
$PUCSNAME
  2

  9
$PUCSORG
 10
0.0
 20
0.0
 30
0.0
  9
$PUCSXDIR
 10
1.0
 20
0.0
 30
0.0
  9
$PUCSYDIR
 10
0.0
 20
1.0
 30
0.0
  9
$PUCSORTHOREF
  2

  9
$PUCSORTHOVIEW
 70
     0
  9
$PUCSORGTOP
 10
0.0
 20
0.0
 30
0.0
  9
$PUCSORGBOTTOM
 10
0.0
 20
0.0
 30
0.0
  9
$PUCSORGLEFT
 10
0.0
 20
0.0
 30
0.0
  9
$PUCSORGRIGHT
 10
0.0
 20
0.0
 30
0.0
  9
$PUCSORGFRONT
 10
0.0
 20
0.0
 30
0.0
  9
$PUCSORGBACK
 10
0.0
 20
0.0
 30
0.0
  9
$USERI1
 70
     0
  9
$USERI2
 70
     0
  9
$USERI3
 70
     0
  9
$USERI4
 70
     0
  9
$USERI5
 70
     0
  9
$USERR1
 40
0.0
  9
$USERR2
 40
0.0
  9
$USERR3
 40
0.0
  9
$USERR4
 40
0.0
  9
$USERR5
 40
0.0
  9
$WORLDVIEW
 70
     1
  9
$SHADEDGE
 70
     3
  9
$SHADEDIF
 70
    70
  9
$TILEMODE
 70
     1
  9
$MAXACTVP
 70
    64
  9
$PINSBASE
 10
0.0
 20
0.0
 30
0.0
  9
$PLIMCHECK
 70
     0
  9
$PEXTMIN
 10
0.0
 20
0.0
 30
0.0
  9
$PEXTMAX
 10
237.5
 20
237.5
 30
2.0
  9
$PLIMMIN
 10
0.0
 20
0.0
  9
$PLIMMAX
 10
420.0
 20
297.0
  9
$UNITMODE
 70
     0
  9
$VISRETAIN
 70
     0
  9
$PLINEGEN
 70
     0
  9
$PSLTSCALE
 70
     1
  9
$TREEDEPTH
 70
  3020
  9
$CMLSTYLE
  2
Standard
  9
$CMLJUST
 70
     0
  9
$CMLSCALE
 40
20.0
  9
$PROXYGRAPHICS
 70
     1
  9
$MEASUREMENT
 70
     1
  9
$CELWEIGHT
370
    -1
  9
$ENDCAPS
280
     0
  9
$JOINSTYLE
280
     0
  9
$LWDISPLAY
290
     0
  9
$INSUNITS
 70
     0
  9
$HYPERLINKBASE
  1

  9
$STYLESHEET
  1

  9
$XEDIT
290
     1
  9
$CEPSNTYPE
380
     0
  9
$PSTYLEMODE
290
     0
  9
$FINGERPRINTGUID
  2
{C6C5FF09-37E3-4DD9-9715-16B643614A46}
  9
$VERSIONGUID
  2
{FAEB1C32-E019-11D5-929B-00C0DF256EC4}
  9
$EXTNAMES
290
     1
  9
$PSVPSCALE
 40
0.0
  9
$OLESTARTUP
290
     0
  9
$SORTENTS
280
     0
  9
$INDEXCTL
280
     0
  9
$HIDETEXT
280
     0
  9
$XCLIPFRAME
280
     0
  9
$HALOGAP
280
     0
  9
$OBSCOLOR
 70
     0
  9
$OBSLTYPE
280
     0
  9
$INTERSECTIONDISPLAY
280
     0
  9
$INTERSECTIONCOLOR
 70
     0
  9
$DIMASSOC
280
     0
  9
$PROJECTNAME
  1

  9
$CAMERADISPLAY
290
     0
  9
$LENSLENGTH
 40
50.0
  9
$CAMERAHEIGHT
 40
0.0
  9
$STEPSPERSEC
 40
2.0
  9
$STEPSIZE
 40
6.0
  9
$3DDWFPREC
 40
2.0
  9
$PSOLWIDTH
 40
0.25
  9
$PSOLHEIGHT
 40
4.0
  9
$LOFTANG1
 40
1.570796
  9
$LOFTANG2
 40
1.570796
  9
$LOFTMAG1
 40
0.0
  9
$LOFTMAG2
 40
0.0
  9
$LOFTPARAM
 70
     7
  9
$LOFTNORMALS
280
     1
  9
$LATITUDE
 40
37.795
  9
$LONGITUDE
 40
-122.394
  9
$NORTHDIRECTION
 40
0.0
  9
$TIMEZONE
 70
 -8000
  9
$LIGHTGLYPHDISPLAY
280
     1
  9
$TILEMODELIGHTSYNCH
280
     1
  9
$CMATERIAL
347
44
  9
$SOLIDHIST
280
     0
  9
$SHOWHIST
280
     1
  9
$DWFFRAME
280
     2
  9
$DGNFRAME
280
     2
  9
$REALWORLDSCALE
290
     1
  9
$INTERFERECOLOR
 62
   256
  9
$CSHADOW
280
     0
  9
$SHADOWPLANELOCATION
 40
0.0
  0
ENDSEC
  0
SECTION
  2
CLASSES
  0
CLASS
  1
ACDBDICTIONARYWDFLT
  2
AcDbDictionaryWithDefault
  3
ObjectDBX Classes
 90
        0
 91
        4
280
     0
281
     0
  0
CLASS
  1
VISUALSTYLE
  2
AcDbVisualStyle
  3
ObjectDBX Classes
 90
     4095
 91
        4
280
     0
281
     0
  0
CLASS
  1
MATERIAL
  2
AcDbMaterial
  3
ObjectDBX Classes
 90
     1153
 91
        4
280
     0
281
     0
  0
CLASS
  1
SCALE
  2
AcDbScale
  3
ObjectDBX Classes
 90
     1153
 91
        4
280
     0
281
     0
  0
CLASS
  1
TABLESTYLE
  2
AcDbTableStyle
  3
ObjectDBX Classes
 90
     4095
 91
        4
280
     0
281
     0
  0
CLASS
  1
MLEADERSTYLE
  2
AcDbMLeaderStyle
  3
ACDB_MLEADERSTYLE_CLASS
 90
     4095
 91
        4
280
     0
281
     0
  0
CLASS
  1
SUN
  2
AcDbSun
  3
SCENEOE
 90
     1153
 91
        4
280
     0
281
     0
  0
CLASS
  1
DICTIONARYVAR
  2
AcDbDictionaryVar
  3
ObjectDBX Classes
 90
        0
 91
        4
280
     0
281
     0
  0
CLASS
  1
CELLSTYLEMAP
  2
AcDbCellStyleMap
  3
ObjectDBX Classes
 90
     1152
 91
        4
280
     0
281
     0
  0
ENDSEC
  0
SECTION
  2
TABLES
  0
TABLE
  2
VPORT
  5
8
330
0
100
AcDbSymbolTable
 70
     1
  0
VPORT
  5
29
330
8
100
AcDbSymbolTableRecord
100
AcDbViewportTableRecord
  2
*Active
 70
     0
 10
0.0
 20
0.0
 11
1.0
 21
1.0
 12
10.429907
 22
4.5
 13
0.0
 23
0.0
 14
0.5
 24
0.5
 15
0.5
 25
0.5
 16
0.0
 26
0.0
 36
1.0
 17
0.0
 27
0.0
 37
0.0
 40
9.0
 41
1.972973
 42
50.0
 43
0.0
 44
0.0
 50
0.0
 51
0.0
 71
     0
 72
   100
 73
     1
 74
     3
 75
     0
 76
     0
 77
     0
 78
     0
281
     0
 65
     1
110
0.0
120
0.0
130
0.0
111
1.0
121
0.0
131
0.0
112
0.0
122
1.0
132
0.0
 79
     0
146
0.0
348
2F
 60
     3
 61
     5
292
     1
282
     1
141
0.0
142
0.0
 63
   250
361
6D
  0
ENDTAB
  0
TABLE
  2
LTYPE
  5
5
330
0
100
AcDbSymbolTable
 70
     1
  0
LTYPE
  5
14
330
5
100
AcDbSymbolTableRecord
100
AcDbLinetypeTableRecord
  2
ByBlock
 70
     0
  3

 72
    65
 73
     0
 40
0.0
  0
LTYPE
  5
15
330
5
100
AcDbSymbolTableRecord
100
AcDbLinetypeTableRecord
  2
ByLayer
 70
     0
  3

 72
    65
 73
     0
 40
0.0
  0
LTYPE
  5
16
330
5
100
AcDbSymbolTableRecord
100
AcDbLinetypeTableRecord
  2
Continuous
 70
     0
  3
Solid line
 72
    65
 73
     0
 40
0.0
  0
ENDTAB
  0
TABLE
  2
LAYER
  5
2
330
0
100
AcDbSymbolTable
 70
     1
  0
LAYER
  5
10
330
2
100
AcDbSymbolTableRecord
100
AcDbLayerTableRecord
  2
0
 70
     0
 62
     7
  6
Continuous
370
    -3
390
F
347
46
  0
ENDTAB
  0
TABLE
  2
STYLE
  5
3
330
0
100
AcDbSymbolTable
 70
     1
  0
STYLE
  5
11
330
3
100
AcDbSymbolTableRecord
100
AcDbTextStyleTableRecord
  2
Standard
 70
     0
 40
0.0
 41
1.0
 50
0.0
 71
     0
 42
2.5
  3
txt
  4

  0
ENDTAB
  0
TABLE
  2
VIEW
  5
6
330
0
100
AcDbSymbolTable
 70
     0
  0
ENDTAB
  0
TABLE
  2
UCS
  5
7
330
0
100
AcDbSymbolTable
 70
     0
  0
ENDTAB
  0
TABLE
  2
APPID
  5
9
330
0
100
AcDbSymbolTable
 70
     1
  0
APPID
  5
12
330
9
100
AcDbSymbolTableRecord
100
AcDbRegAppTableRecord
  2
ACAD
 70
     0
  0
ENDTAB
  0
TABLE
  2
DIMSTYLE
  5
A
330
0
100
AcDbSymbolTable
 70
     1
100
AcDbDimStyleTable
  0
DIMSTYLE
105
27
330
A
100
AcDbSymbolTableRecord
100
AcDbDimStyleTableRecord
  2
Standard
 70
     0
178
     0
340
11
  0
ENDTAB
  0
TABLE
  2
BLOCK_RECORD
  5
1
330
0
100
AcDbSymbolTable
 70
     1
  0
BLOCK_RECORD
  5
1F
330
1
100
AcDbSymbolTableRecord
100
AcDbBlockTableRecord
  2
*Model_Space
340
22
 70
     0
280
     1
281
     0
  0
BLOCK_RECORD
  5
1B
330
1
100
AcDbSymbolTableRecord
100
AcDbBlockTableRecord
  2
*Paper_Space
340
1E
 70
     0
280
     1
281
     0
  0
BLOCK_RECORD
  5
23
330
1
100
AcDbSymbolTableRecord
100
AcDbBlockTableRecord
  2
*Paper_Space0
340
26
 70
     0
280
     1
281
     0
  0
ENDTAB
  0
ENDSEC
  0
SECTION
  2
BLOCKS
  0
BLOCK
  5
20
330
1F
100
AcDbEntity
  8
0
100
AcDbBlockBegin
  2
*Model_Space
 70
     0
 10
0.0
 20
0.0
 30
0.0
  3
*Model_Space
  1

  0
ENDBLK
  5
21
330
1F
100
AcDbEntity
  8
0
100
AcDbBlockEnd
  0
BLOCK
  5
1C
330
1B
100
AcDbEntity
 67
     1
  8
0
100
AcDbBlockBegin
  2
*Paper_Space
 70
     0
 10
0.0
 20
0.0
 30
0.0
  3
*Paper_Space
  1

  0
ENDBLK
  5
1D
330
1B
100
AcDbEntity
 67
     1
  8
0
100
AcDbBlockEnd
  0
BLOCK
  5
24
330
23
100
AcDbEntity
  8
0
100
AcDbBlockBegin
  2
*Paper_Space0
 70
     0
 10
0.0
 20
0.0
 30
0.0
  3
*Paper_Space0
  1

  0
ENDBLK
  5
25
330
23
100
AcDbEntity
  8
0
100
AcDbBlockEnd
  0
ENDSEC
  0
SECTION
  2
ENTITIES
  0
LINE
  5
6E
330
1F
100
AcDbEntity
  8
0
 62
     1
370
    13
100
AcDbLine
 10
116.0
 20
163.964233
 30
0.0
 11
116.0
 21
164.966629
 31
0.0
  0
LINE
  5
6F
330
1F
100
AcDbEntity
  8
0
 62
     1
370
    13
100
AcDbLine
 10
114.0
 20
164.966629
 30
0.0
 11
114.0
 21
163.964233
 31
0.0
  0
LINE
  5
70
330
1F
100
AcDbEntity
  8
0
 62
     1
370
    13
100
AcDbLine
 10
114.0
 20
136.035767
 30
0.0
 11
114.0
 21
135.033371
 31
0.0
  0
LINE
  5
71
330
1F
100
AcDbEntity
  8
0
 62
     1
370
    13
100
AcDbLine
 10
116.0
 20
135.033371
 30
0.0
 11
116.0
 21
136.035767
 31
0.0
  0
LINE
  5
72
330
1F
100
AcDbEntity
  8
0
 62
     1
370
    13
100
AcDbLine
 10
168.5
 20
133.653351
 30
0.0
 11
168.5
 21
134.655746
 31
0.0
  0
LINE
  5
73
330
1F
100
AcDbEntity
  8
0
 62
     1
370
    13
100
AcDbLine
 10
166.5
 20
134.655746
 30
0.0
 11
166.5
 21
133.653351
 31
0.0
  0
LINE
  5
74
330
1F
100
AcDbEntity
  8
0
 62
     1
370
    13
100
AcDbLine
 10
166.5
 20
105.724869
 30
0.0
 11
166.5
 21
104.722481
 31
0.0
  0
LINE
  5
75
330
1F
100
AcDbEntity
  8
0
 62
     1
370
    13
100
AcDbLine
 10
168.5
 20
104.722481
 30
0.0
 11
168.5
 21
105.724869
 31
0.0
  0
LINE
  5
76
330
1F
100
AcDbEntity
  8
0
 62
     1
370
    13
100
AcDbLine
 10
168.5
 20
194.275131
 30
0.0
 11
168.5
 21
195.277527
 31
0.0
  0
LINE
  5
77
330
1F
100
AcDbEntity
  8
0
 62
     1
370
    13
100
AcDbLine
 10
166.5
 20
195.277527
 30
0.0
 11
166.5
 21
194.275131
 31
0.0
  0
LINE
  5
78
330
1F
100
AcDbEntity
  8
0
 62
     1
370
    13
100
AcDbLine
 10
166.5
 20
166.346649
 30
0.0
 11
166.5
 21
165.344254
 31
0.0
  0
LINE
  5
79
330
1F
100
AcDbEntity
  8
0
 62
     1
370
    13
100
AcDbLine
 10
168.5
 20
165.344254
 30
0.0
 11
168.5
 21
166.346649
 31
0.0
  0
LINE
  5
7A
330
1F
100
AcDbEntity
  8
0
 62
     1
370
    13
100
AcDbLine
 10
149.0
 20
136.035767
 30
0.0
 11
149.0
 21
135.033371
 31
0.0
  0
LINE
  5
7B
330
1F
100
AcDbEntity
  8
0
 62
     1
370
    13
100
AcDbLine
 10
151.0
 20
135.033371
 30
0.0
 11
151.0
 21
136.035767
 31
0.0
  0
LINE
  5
7C
330
1F
100
AcDbEntity
  8
0
 62
     1
370
    13
100
AcDbLine
 10
186.0
 20
163.964233
 30
0.0
 11
186.0
 21
164.966629
 31
0.0
  0
LINE
  5
7D
330
1F
100
AcDbEntity
  8
0
 62
     1
370
    13
100
AcDbLine
 10
184.0
 20
164.966629
 30
0.0
 11
184.0
 21
163.964233
 31
0.0
  0
LINE
  5
7E
330
1F
100
AcDbEntity
  8
0
 62
     1
370
    13
100
AcDbLine
 10
184.0
 20
136.035767
 30
0.0
 11
184.0
 21
135.033371
 31
0.0
  0
LINE
  5
7F
330
1F
100
AcDbEntity
  8
0
 62
     1
370
    13
100
AcDbLine
 10
186.0
 20
135.033371
 30
0.0
 11
186.0
 21
136.035767
 31
0.0
  0
LINE
  5
80
330
1F
100
AcDbEntity
  8
0
 62
     1
370
    13
100
AcDbLine
 10
133.5
 20
133.653351
 30
0.0
 11
133.5
 21
134.655746
 31
0.0
  0
LINE
  5
81
330
1F
100
AcDbEntity
  8
0
 62
     1
370
    13
100
AcDbLine
 10
131.5
 20
134.655746
 30
0.0
 11
131.5
 21
133.653351
 31
0.0
  0
LINE
  5
82
330
1F
100
AcDbEntity
  8
0
 62
     1
370
    13
100
AcDbLine
 10
131.5
 20
105.724869
 30
0.0
 11
131.5
 21
104.722481
 31
0.0
  0
LINE
  5
83
330
1F
100
AcDbEntity
  8
0
 62
     1
370
    13
100
AcDbLine
 10
133.5
 20
104.722481
 30
0.0
 11
133.5
 21
105.724869
 31
0.0
  0
LINE
  5
84
330
1F
100
AcDbEntity
  8
0
 62
     1
370
    13
100
AcDbLine
 10
133.5
 20
194.275131
 30
0.0
 11
133.5
 21
195.277527
 31
0.0
  0
LINE
  5
85
330
1F
100
AcDbEntity
  8
0
 62
     1
370
    13
100
AcDbLine
 10
131.5
 20
195.277527
 30
0.0
 11
131.5
 21
194.275131
 31
0.0
  0
LINE
  5
86
330
1F
100
AcDbEntity
  8
0
 62
     1
370
    13
100
AcDbLine
 10
131.5
 20
166.346649
 30
0.0
 11
131.5
 21
165.344254
 31
0.0
  0
LINE
  5
87
330
1F
100
AcDbEntity
  8
0
 62
     1
370
    13
100
AcDbLine
 10
133.5
 20
165.344254
 30
0.0
 11
133.5
 21
166.346649
 31
0.0
  0
LINE
  5
88
330
1F
100
AcDbEntity
  8
0
 62
     1
370
    13
100
AcDbLine
 10
182.442612
 20
179.0
 30
0.0
 11
181.438492
 21
179.0
 31
0.0
  0
ARC
  5
89
330
1F
100
AcDbEntity
  8
0
 62
     1
370
    13
100
AcDbCircle
 10
167.5
 20
180.310883
 30
0.0
 40
14.0
100
AcDbArc
 50
274.096041
 51
354.627243
  0
ARC
  5
8A
330
1F
100
AcDbEntity
  8
0
 62
     1
370
    13
100
AcDbCircle
 10
167.5
 20
180.310883
 30
0.0
 40
15.0
100
AcDbArc
 50
273.822554
 51
354.986376
  0
CIRCLE
  5
8B
330
1F
100
AcDbEntity
  8
0
 62
     1
370
    13
100
AcDbCircle
 10
150.0
 20
150.0
 30
0.0
 40
87.5
  0
ARC
  5
8C
330
1F
100
AcDbEntity
  8
0
 62
     1
370
    13
100
AcDbCircle
 10
167.5
 20
119.68911
 30
0.0
 40
9.0
100
AcDbArc
 50
276.379374
 51
355.608686
  0
LINE
  5
8D
330
1F
100
AcDbEntity
  8
0
 62
     1
370
    13
100
AcDbLine
 10
177.476227
 20
119.0
 30
0.0
 11
176.473572
 21
119.0
 31
0.0
  0
ARC
  5
8E
330
1F
100
AcDbEntity
  8
0
 62
     1
370
    13
100
AcDbCircle
 10
167.5
 20
119.68911
 30
0.0
 40
10.0
100
AcDbArc
 50
275.739173
 51
356.048554
  0
ARC
  5
8F
330
1F
100
AcDbEntity
  8
0
 62
     1
370
    13
100
AcDbCircle
 10
167.5
 20
119.68911
 30
0.0
 40
14.0
100
AcDbArc
 50
274.096041
 51
357.178635
  0
LINE
  5
90
330
1F
100
AcDbEntity
  8
0
 62
     1
370
    13
100
AcDbLine
 10
182.484161
 20
119.0
 30
0.0
 11
181.483032
 21
119.0
 31
0.0
  0
ARC
  5
91
330
1F
100
AcDbEntity
  8
0
 62
     1
370
    13
100
AcDbCircle
 10
167.5
 20
119.68911
 30
0.0
 40
15.0
100
AcDbArc
 50
273.822554
 51
357.366864
  0
ARC
  5
92
330
1F
100
AcDbEntity
  8
0
 62
     1
370
    13
100
AcDbCircle
 10
167.5
 20
119.68911
 30
0.0
 40
15.0
100
AcDbArc
 50
182.633142
 51
266.177448
  0
LINE
  5
93
330
1F
100
AcDbEntity
  8
0
 62
     1
370
    13
100
AcDbLine
 10
153.516968
 20
119.0
 30
0.0
 11
152.515839
 21
119.0
 31
0.0
  0
ARC
  5
94
330
1F
100
AcDbEntity
  8
0
 62
     1
370
    13
100
AcDbCircle
 10
167.5
 20
119.68911
 30
0.0
 40
14.0
100
AcDbArc
 50
182.821369
 51
265.903954
  0
ARC
  5
95
330
1F
100
AcDbEntity
  8
0
 62
     1
370
    13
100
AcDbCircle
 10
167.5
 20
119.68911
 30
0.0
 40
10.0
100
AcDbArc
 50
183.951451
 51
264.260829
  0
LINE
  5
96
330
1F
100
AcDbEntity
  8
0
 62
     1
370
    13
100
AcDbLine
 10
158.526428
 20
119.0
 30
0.0
 11
157.523773
 21
119.0
 31
0.0
  0
ARC
  5
97
330
1F
100
AcDbEntity
  8
0
 62
     1
370
    13
100
AcDbCircle
 10
167.5
 20
119.68911
 30
0.0
 40
9.0
100
AcDbArc
 50
184.391315
 51
263.620628
  0
ARC
  5
98
330
1F
100
AcDbEntity
  8
0
 62
     1
370
    13
100
AcDbCircle
 10
167.5
 20
119.68911
 30
0.0
 40
5.0
100
AcDbArc
 50
187.92184
 51
258.463043
  0
LINE
  5
99
330
1F
100
AcDbEntity
  8
0
 62
     1
370
    13
100
AcDbLine
 10
163.559799
 20
119.0
 30
0.0
 11
162.547714
 21
119.0
 31
0.0
  0
ARC
  5
9A
330
1F
100
AcDbEntity
  8
0
 62
     1
370
    13
100
AcDbCircle
 10
167.5
 20
119.68911
 30
0.0
 40
4.0
100
AcDbArc
 50
189.920271
 51
255.522489
  0
ARC
  5
9B
330
1F
100
AcDbEntity
  8
0
 62
     1
370
    13
100
AcDbCircle
 10
167.5
 20
119.68911
 30
0.0
 40
4.0
100
AcDbArc
 50
104.477511
 51
160.86941
  0
LINE
  5
9C
330
1F
100
AcDbEntity
  8
0
 62
     1
370
    13
100
AcDbLine
 10
162.674896
 20
121.0
 30
0.0
 11
163.720901
 21
121.0
 31
0.0
  0
ARC
  5
9D
330
1F
100
AcDbEntity
  8
0
 62
     1
370
    13
100
AcDbCircle
 10
167.5
 20
119.68911
 30
0.0
 40
5.0
100
AcDbArc
 50
101.536957
 51
164.800676
  0
ARC
  5
9E
330
1F
100
AcDbEntity
  8
0
 62
     1
370
    13
100
AcDbCircle
 10
167.5
 20
119.68911
 30
0.0
 40
9.0
100
AcDbArc
 50
96.379372
 51
171.624827
  0
LINE
  5
9F
330
1F
100
AcDbEntity
  8
0
 62
     1
370
    13
100
AcDbLine
 10
157.586288
 20
121.0
 30
0.0
 11
158.595978
 21
121.0
 31
0.0
  0
ARC
  5
A0
330
1F
100
AcDbEntity
  8
0
 62
     1
370
    13
100
AcDbCircle
 10
167.5
 20
119.68911
 30
0.0
 40
10.0
100
AcDbArc
 50
95.739171
 51
172.467481
  0
ARC
  5
A1
330
1F
100
AcDbEntity
  8
0
 62
     1
370
    13
100
AcDbCircle
 10
167.5
 20
119.68911
 30
0.0
 40
14.0
100
AcDbArc
 50
94.096046
 51
174.627242
  0
LINE
  5
A2
330
1F
100
AcDbEntity
  8
0
 62
     1
370
    13
100
AcDbLine
 10
152.557388
 20
121.0
 30
0.0
 11
153.561508
 21
121.0
 31
0.0
  0
ARC
  5
A3
330
1F
100
AcDbEntity
  8
0
 62
     1
370
    13
100
AcDbCircle
 10
167.5
 20
119.68911
 30
0.0
 40
15.0
100
AcDbArc
 50
93.822552
 51
174.986373
  0
ARC
  5
A4
330
1F
100
AcDbEntity
  8
0
 62
     1
370
    13
100
AcDbCircle
 10
167.5
 20
119.68911
 30
0.0
 40
15.0
100
AcDbArc
 50
5.013624
 51
86.177446
  0
LINE
  5
A5
330
1F
100
AcDbEntity
  8
0
 62
     1
370
    13
100
AcDbLine
 10
181.438492
 20
121.0
 30
0.0
 11
182.442612
 21
121.0
 31
0.0
  0
ARC
  5
A6
330
1F
100
AcDbEntity
  8
0
 62
     1
370
    13
100
AcDbCircle
 10
167.5
 20
119.68911
 30
0.0
 40
14.0
100
AcDbArc
 50
5.372757
 51
85.903959
  0
ARC
  5
A7
330
1F
100
AcDbEntity
  8
0
 62
     1
370
    13
100
AcDbCircle
 10
167.5
 20
119.68911
 30
0.0
 40
10.0
100
AcDbArc
 50
7.532521
 51
84.260827
  0
LINE
  5
A8
330
1F
100
AcDbEntity
  8
0
 62
     1
370
    13
100
AcDbLine
 10
176.404022
 20
121.0
 30
0.0
 11
177.413712
 21
121.0
 31
0.0
  0
ARC
  5
A9
330
1F
100
AcDbEntity
  8
0
 62
     1
370
    13
100
AcDbCircle
 10
167.5
 20
119.68911
 30
0.0
 40
9.0
100
AcDbArc
 50
8.375173
 51
83.620626
  0
ARC
  5
AA
330
1F
100
AcDbEntity
  8
0
 62
     1
370
    13
100
AcDbCircle
 10
167.5
 20
119.68911
 30
0.0
 40
5.0
100
AcDbArc
 50
15.199326
 51
78.463041
  0
LINE
  5
AB
330
1F
100
AcDbEntity
  8
0
 62
     1
370
    13
100
AcDbLine
 10
171.279099
 20
121.0
 30
0.0
 11
172.325104
 21
121.0
 31
0.0
  0
ARC
  5
AC
330
1F
100
AcDbEntity
  8
0
 62
     1
370
    13
100
AcDbCircle
 10
167.5
 20
119.68911
 30
0.0
 40
4.0
100
AcDbArc
 50
19.130586
 51
75.522488
  0
ARC
  5
AD
330
1F
100
AcDbEntity
  8
0
 62
     1
370
    13
100
AcDbCircle
 10
167.5
 20
119.68911
 30
0.0
 40
4.0
100
AcDbArc
 50
284.477512
 51
350.079723
  0
LINE
  5
AE
330
1F
100
AcDbEntity
  8
0
 62
     1
370
    13
100
AcDbLine
 10
172.452286
 20
119.0
 30
0.0
 11
171.440186
 21
119.0
 31
0.0
  0
ARC
  5
AF
330
1F
100
AcDbEntity
  8
0
 62
     1
370
    13
100
AcDbCircle
 10
167.5
 20
119.68911
 30
0.0
 40
5.0
100
AcDbArc
 50
281.536959
 51
352.078156
  0
ARC
  5
B0
330
1F
100
AcDbEntity
  8
0
 62
     1
370
    13
100
AcDbCircle
 10
167.5
 20
180.310883
 30
0.0
 40
9.0
100
AcDbArc
 50
276.379374
 51
351.624827
  0
LINE
  5
B1
330
1F
100
AcDbEntity
  8
0
 62
     1
370
    13
100
AcDbLine
 10
177.413712
 20
179.0
 30
0.0
 11
176.404022
 21
179.0
 31
0.0
  0
ARC
  5
B2
330
1F
100
AcDbEntity
  8
0
 62
     1
370
    13
100
AcDbCircle
 10
167.5
 20
180.310883
 30
0.0
 40
10.0
100
AcDbArc
 50
275.739173
 51
352.467479
  0
ARC
  5
B3
330
1F
100
AcDbEntity
  8
0
 62
     1
370
    13
100
AcDbCircle
 10
167.5
 20
180.310883
 30
0.0
 40
15.0
100
AcDbArc
 50
185.013627
 51
266.177448
  0
LINE
  5
B4
330
1F
100
AcDbEntity
  8
0
 62
     1
370
    13
100
AcDbLine
 10
153.561508
 20
179.0
 30
0.0
 11
152.557388
 21
179.0
 31
0.0
  0
ARC
  5
B5
330
1F
100
AcDbEntity
  8
0
 62
     1
370
    13
100
AcDbCircle
 10
167.5
 20
180.310883
 30
0.0
 40
14.0
100
AcDbArc
 50
185.372758
 51
265.903954
  0
ARC
  5
B6
330
1F
100
AcDbEntity
  8
0
 62
     1
370
    13
100
AcDbCircle
 10
167.5
 20
180.310883
 30
0.0
 40
10.0
100
AcDbArc
 50
187.532519
 51
264.260829
  0
LINE
  5
B7
330
1F
100
AcDbEntity
  8
0
 62
     1
370
    13
100
AcDbLine
 10
158.595978
 20
179.0
 30
0.0
 11
157.586288
 21
179.0
 31
0.0
  0
ARC
  5
B8
330
1F
100
AcDbEntity
  8
0
 62
     1
370
    13
100
AcDbCircle
 10
167.5
 20
180.310883
 30
0.0
 40
9.0
100
AcDbArc
 50
188.375173
 51
263.620628
  0
ARC
  5
B9
330
1F
100
AcDbEntity
  8
0
 62
     1
370
    13
100
AcDbCircle
 10
167.5
 20
180.310883
 30
0.0
 40
5.0
100
AcDbArc
 50
195.199324
 51
258.463043
  0
LINE
  5
BA
330
1F
100
AcDbEntity
  8
0
 62
     1
370
    13
100
AcDbLine
 10
163.720901
 20
179.0
 30
0.0
 11
162.674896
 21
179.0
 31
0.0
  0
ARC
  5
BB
330
1F
100
AcDbEntity
  8
0
 62
     1
370
    13
100
AcDbCircle
 10
167.5
 20
180.310883
 30
0.0
 40
4.0
100
AcDbArc
 50
199.13059
 51
255.522489
  0
ARC
  5
BC
330
1F
100
AcDbEntity
  8
0
 62
     1
370
    13
100
AcDbCircle
 10
167.5
 20
180.310883
 30
0.0
 40
4.0
100
AcDbArc
 50
104.477511
 51
170.079729
  0
LINE
  5
BD
330
1F
100
AcDbEntity
  8
0
 62
     1
370
    13
100
AcDbLine
 10
162.547714
 20
181.0
 30
0.0
 11
163.559799
 21
181.0
 31
0.0
  0
ARC
  5
BE
330
1F
100
AcDbEntity
  8
0
 62
     1
370
    13
100
AcDbCircle
 10
167.5
 20
180.310883
 30
0.0
 40
5.0
100
AcDbArc
 50
101.536957
 51
172.07816
  0
ARC
  5
BF
330
1F
100
AcDbEntity
  8
0
 62
     1
370
    13
100
AcDbCircle
 10
167.5
 20
180.310883
 30
0.0
 40
9.0
100
AcDbArc
 50
96.379372
 51
175.608685
  0
LINE
  5
C0
330
1F
100
AcDbEntity
  8
0
 62
     1
370
    13
100
AcDbLine
 10
157.523773
 20
181.0
 30
0.0
 11
158.526428
 21
181.0
 31
0.0
  0
ARC
  5
C1
330
1F
100
AcDbEntity
  8
0
 62
     1
370
    13
100
AcDbCircle
 10
167.5
 20
180.310883
 30
0.0
 40
10.0
100
AcDbArc
 50
95.739171
 51
176.048549
  0
ARC
  5
C2
330
1F
100
AcDbEntity
  8
0
 62
     1
370
    13
100
AcDbCircle
 10
167.5
 20
180.310883
 30
0.0
 40
14.0
100
AcDbArc
 50
94.096046
 51
177.178631
  0
LINE
  5
C3
330
1F
100
AcDbEntity
  8
0
 62
     1
370
    13
100
AcDbLine
 10
152.515839
 20
181.0
 30
0.0
 11
153.516968
 21
181.0
 31
0.0
  0
ARC
  5
C4
330
1F
100
AcDbEntity
  8
0
 62
     1
370
    13
100
AcDbCircle
 10
167.5
 20
180.310883
 30
0.0
 40
15.0
100
AcDbArc
 50
93.822552
 51
177.366858
  0
ARC
  5
C5
330
1F
100
AcDbEntity
  8
0
 62
     1
370
    13
100
AcDbCircle
 10
167.5
 20
180.310883
 30
0.0
 40
15.0
100
AcDbArc
 50
2.633136
 51
86.177446
  0
LINE
  5
C6
330
1F
100
AcDbEntity
  8
0
 62
     1
370
    13
100
AcDbLine
 10
181.483032
 20
181.0
 30
0.0
 11
182.484161
 21
181.0
 31
0.0
  0
ARC
  5
C7
330
1F
100
AcDbEntity
  8
0
 62
     1
370
    13
100
AcDbCircle
 10
167.5
 20
180.310883
 30
0.0
 40
14.0
100
AcDbArc
 50
2.821365
 51
85.903959
  0
ARC
  5
C8
330
1F
100
AcDbEntity
  8
0
 62
     1
370
    13
100
AcDbCircle
 10
167.5
 20
180.310883
 30
0.0
 40
10.0
100
AcDbArc
 50
3.951446
 51
84.260827
  0
LINE
  5
C9
330
1F
100
AcDbEntity
  8
0
 62
     1
370
    13
100
AcDbLine
 10
176.473572
 20
181.0
 30
0.0
 11
177.476227
 21
181.0
 31
0.0
  0
ARC
  5
CA
330
1F
100
AcDbEntity
  8
0
 62
     1
370
    13
100
AcDbCircle
 10
167.5
 20
180.310883
 30
0.0
 40
9.0
100
AcDbArc
 50
4.391314
 51
83.620626
  0
ARC
  5
CB
330
1F
100
AcDbEntity
  8
0
 62
     1
370
    13
100
AcDbCircle
 10
167.5
 20
180.310883
 30
0.0
 40
5.0
100
AcDbArc
 50
7.921844
 51
78.463041
  0
LINE
  5
CC
330
1F
100
AcDbEntity
  8
0
 62
     1
370
    13
100
AcDbLine
 10
171.440186
 20
181.0
 30
0.0
 11
172.452286
 21
181.0
 31
0.0
  0
ARC
  5
CD
330
1F
100
AcDbEntity
  8
0
 62
     1
370
    13
100
AcDbCircle
 10
167.5
 20
180.310883
 30
0.0
 40
4.0
100
AcDbArc
 50
9.920277
 51
75.522488
  0
ARC
  5
CE
330
1F
100
AcDbEntity
  8
0
 62
     1
370
    13
100
AcDbCircle
 10
167.5
 20
180.310883
 30
0.0
 40
4.0
100
AcDbArc
 50
284.477512
 51
340.869414
  0
LINE
  5
CF
330
1F
100
AcDbEntity
  8
0
 62
     1
370
    13
100
AcDbLine
 10
172.325104
 20
179.0
 30
0.0
 11
171.279099
 21
179.0
 31
0.0
  0
ARC
  5
D0
330
1F
100
AcDbEntity
  8
0
 62
     1
370
    13
100
AcDbCircle
 10
167.5
 20
180.310883
 30
0.0
 40
5.0
100
AcDbArc
 50
281.536959
 51
344.800674
  0
ARC
  5
D1
330
1F
100
AcDbEntity
  8
0
 62
     1
370
    13
100
AcDbCircle
 10
150.0
 20
150.0
 30
0.0
 40
9.0
100
AcDbArc
 50
96.379372
 51
173.620636
  0
LINE
  5
D2
330
1F
100
AcDbEntity
  8
0
 62
     1
370
    13
100
AcDbLine
 10
140.050125
 20
151.0
 30
0.0
 11
141.055725
 21
151.0
 31
0.0
  0
ARC
  5
D3
330
1F
100
AcDbEntity
  8
0
 62
     1
370
    13
100
AcDbCircle
 10
150.0
 20
150.0
 30
0.0
 40
10.0
100
AcDbArc
 50
95.739171
 51
174.260829
  0
ARC
  5
D4
330
1F
100
AcDbEntity
  8
0
 62
     1
370
    13
100
AcDbCircle
 10
150.0
 20
150.0
 30
0.0
 40
14.0
100
AcDbArc
 50
94.096046
 51
175.903954
  0
LINE
  5
D5
330
1F
100
AcDbEntity
  8
0
 62
     1
370
    13
100
AcDbLine
 10
135.033371
 20
151.0
 30
0.0
 11
136.035767
 21
151.0
 31
0.0
  0
ARC
  5
D6
330
1F
100
AcDbEntity
  8
0
 62
     1
370
    13
100
AcDbCircle
 10
150.0
 20
150.0
 30
0.0
 40
15.0
100
AcDbArc
 50
93.822552
 51
176.177449
  0
ARC
  5
D7
330
1F
100
AcDbEntity
  8
0
 62
     1
370
    13
100
AcDbCircle
 10
150.0
 20
150.0
 30
0.0
 40
15.0
100
AcDbArc
 50
3.822554
 51
86.177446
  0
LINE
  5
D8
330
1F
100
AcDbEntity
  8
0
 62
     1
370
    13
100
AcDbLine
 10
163.964233
 20
151.0
 30
0.0
 11
164.966629
 21
151.0
 31
0.0
  0
ARC
  5
D9
330
1F
100
AcDbEntity
  8
0
 62
     1
370
    13
100
AcDbCircle
 10
150.0
 20
150.0
 30
0.0
 40
14.0
100
AcDbArc
 50
4.096044
 51
85.903959
  0
ARC
  5
DA
330
1F
100
AcDbEntity
  8
0
 62
     1
370
    13
100
AcDbCircle
 10
150.0
 20
150.0
 30
0.0
 40
10.0
100
AcDbArc
 50
5.739171
 51
84.260827
  0
LINE
  5
DB
330
1F
100
AcDbEntity
  8
0
 62
     1
370
    13
100
AcDbLine
 10
158.944275
 20
151.0
 30
0.0
 11
159.949875
 21
151.0
 31
0.0
  0
ARC
  5
DC
330
1F
100
AcDbEntity
  8
0
 62
     1
370
    13
100
AcDbCircle
 10
150.0
 20
150.0
 30
0.0
 40
9.0
100
AcDbArc
 50
6.37937
 51
83.620626
  0
ARC
  5
DD
330
1F
100
AcDbEntity
  8
0
 62
     1
370
    13
100
AcDbCircle
 10
150.0
 20
150.0
 30
0.0
 40
5.0
100
AcDbArc
 50
11.53696
 51
78.463041
  0
LINE
  5
DE
330
1F
100
AcDbEntity
  8
0
 62
     1
370
    13
100
AcDbLine
 10
153.872986
 20
151.0
 30
0.0
 11
154.898987
 21
151.0
 31
0.0
  0
ARC
  5
DF
330
1F
100
AcDbEntity
  8
0
 62
     1
370
    13
100
AcDbCircle
 10
150.0
 20
150.0
 30
0.0
 40
4.0
100
AcDbArc
 50
14.477511
 51
75.522488
  0
ARC
  5
E0
330
1F
100
AcDbEntity
  8
0
 62
     1
370
    13
100
AcDbCircle
 10
150.0
 20
150.0
 30
0.0
 40
4.0
100
AcDbArc
 50
284.477512
 51
345.522489
  0
LINE
  5
E1
330
1F
100
AcDbEntity
  8
0
 62
     1
370
    13
100
AcDbLine
 10
154.898987
 20
149.0
 30
0.0
 11
153.872986
 21
149.0
 31
0.0
  0
ARC
  5
E2
330
1F
100
AcDbEntity
  8
0
 62
     1
370
    13
100
AcDbCircle
 10
150.0
 20
150.0
 30
0.0
 40
5.0
100
AcDbArc
 50
281.536959
 51
348.46304
  0
ARC
  5
E3
330
1F
100
AcDbEntity
  8
0
 62
     1
370
    13
100
AcDbCircle
 10
150.0
 20
150.0
 30
0.0
 40
9.0
100
AcDbArc
 50
276.379374
 51
353.62063
  0
LINE
  5
E4
330
1F
100
AcDbEntity
  8
0
 62
     1
370
    13
100
AcDbLine
 10
159.949875
 20
149.0
 30
0.0
 11
158.944275
 21
149.0
 31
0.0
  0
ARC
  5
E5
330
1F
100
AcDbEntity
  8
0
 62
     1
370
    13
100
AcDbCircle
 10
150.0
 20
150.0
 30
0.0
 40
10.0
100
AcDbArc
 50
275.739173
 51
354.260829
  0
ARC
  5
E6
330
1F
100
AcDbEntity
  8
0
 62
     1
370
    13
100
AcDbCircle
 10
150.0
 20
150.0
 30
0.0
 40
14.0
100
AcDbArc
 50
274.096041
 51
355.903956
  0
LINE
  5
E7
330
1F
100
AcDbEntity
  8
0
 62
     1
370
    13
100
AcDbLine
 10
164.966629
 20
149.0
 30
0.0
 11
163.964233
 21
149.0
 31
0.0
  0
ARC
  5
E8
330
1F
100
AcDbEntity
  8
0
 62
     1
370
    13
100
AcDbCircle
 10
150.0
 20
150.0
 30
0.0
 40
15.0
100
AcDbArc
 50
273.822554
 51
356.177446
  0
ARC
  5
E9
330
1F
100
AcDbEntity
  8
0
 62
     1
370
    13
100
AcDbCircle
 10
150.0
 20
150.0
 30
0.0
 40
15.0
100
AcDbArc
 50
183.822551
 51
266.177448
  0
LINE
  5
EA
330
1F
100
AcDbEntity
  8
0
 62
     1
370
    13
100
AcDbLine
 10
136.035767
 20
149.0
 30
0.0
 11
135.033371
 21
149.0
 31
0.0
  0
ARC
  5
EB
330
1F
100
AcDbEntity
  8
0
 62
     1
370
    13
100
AcDbCircle
 10
150.0
 20
150.0
 30
0.0
 40
14.0
100
AcDbArc
 50
184.096046
 51
265.903954
  0
ARC
  5
EC
330
1F
100
AcDbEntity
  8
0
 62
     1
370
    13
100
AcDbCircle
 10
150.0
 20
150.0
 30
0.0
 40
10.0
100
AcDbArc
 50
185.739171
 51
264.260829
  0
LINE
  5
ED
330
1F
100
AcDbEntity
  8
0
 62
     1
370
    13
100
AcDbLine
 10
141.055725
 20
149.0
 30
0.0
 11
140.050125
 21
149.0
 31
0.0
  0
ARC
  5
EE
330
1F
100
AcDbEntity
  8
0
 62
     1
370
    13
100
AcDbCircle
 10
150.0
 20
150.0
 30
0.0
 40
9.0
100
AcDbArc
 50
186.379364
 51
263.620628
  0
ARC
  5
EF
330
1F
100
AcDbEntity
  8
0
 62
     1
370
    13
100
AcDbCircle
 10
150.0
 20
150.0
 30
0.0
 40
5.0
100
AcDbArc
 50
191.536963
 51
258.463043
  0
LINE
  5
F0
330
1F
100
AcDbEntity
  8
0
 62
     1
370
    13
100
AcDbLine
 10
146.127014
 20
149.0
 30
0.0
 11
145.101013
 21
149.0
 31
0.0
  0
ARC
  5
F1
330
1F
100
AcDbEntity
  8
0
 62
     1
370
    13
100
AcDbCircle
 10
150.0
 20
150.0
 30
0.0
 40
4.0
100
AcDbArc
 50
194.47751
 51
255.522489
  0
ARC
  5
F2
330
1F
100
AcDbEntity
  8
0
 62
     1
370
    13
100
AcDbCircle
 10
150.0
 20
150.0
 30
0.0
 40
4.0
100
AcDbArc
 50
104.477511
 51
165.52249
  0
LINE
  5
F3
330
1F
100
AcDbEntity
  8
0
 62
     1
370
    13
100
AcDbLine
 10
145.101013
 20
151.0
 30
0.0
 11
146.127014
 21
151.0
 31
0.0
  0
ARC
  5
F4
330
1F
100
AcDbEntity
  8
0
 62
     1
370
    13
100
AcDbCircle
 10
150.0
 20
150.0
 30
0.0
 40
5.0
100
AcDbArc
 50
101.536957
 51
168.463037
  0
ARC
  5
F5
330
1F
100
AcDbEntity
  8
0
 62
     1
370
    13
100
AcDbCircle
 10
185.0
 20
150.0
 30
0.0
 40
9.0
100
AcDbArc
 50
276.379374
 51
353.62063
  0
LINE
  5
F6
330
1F
100
AcDbEntity
  8
0
 62
     1
370
    13
100
AcDbLine
 10
194.949875
 20
149.0
 30
0.0
 11
193.944275
 21
149.0
 31
0.0
  0
ARC
  5
F7
330
1F
100
AcDbEntity
  8
0
 62
     1
370
    13
100
AcDbCircle
 10
185.0
 20
150.0
 30
0.0
 40
10.0
100
AcDbArc
 50
275.739173
 51
354.260829
  0
ARC
  5
F8
330
1F
100
AcDbEntity
  8
0
 62
     1
370
    13
100
AcDbCircle
 10
185.0
 20
150.0
 30
0.0
 40
14.0
100
AcDbArc
 50
274.096041
 51
355.903956
  0
LINE
  5
F9
330
1F
100
AcDbEntity
  8
0
 62
     1
370
    13
100
AcDbLine
 10
199.966629
 20
149.0
 30
0.0
 11
198.964233
 21
149.0
 31
0.0
  0
ARC
  5
FA
330
1F
100
AcDbEntity
  8
0
 62
     1
370
    13
100
AcDbCircle
 10
185.0
 20
150.0
 30
0.0
 40
15.0
100
AcDbArc
 50
273.822554
 51
356.177446
  0
ARC
  5
FB
330
1F
100
AcDbEntity
  8
0
 62
     1
370
    13
100
AcDbCircle
 10
185.0
 20
150.0
 30
0.0
 40
15.0
100
AcDbArc
 50
183.822551
 51
266.177448
  0
LINE
  5
FC
330
1F
100
AcDbEntity
  8
0
 62
     1
370
    13
100
AcDbLine
 10
171.035767
 20
149.0
 30
0.0
 11
170.033371
 21
149.0
 31
0.0
  0
ARC
  5
FD
330
1F
100
AcDbEntity
  8
0
 62
     1
370
    13
100
AcDbCircle
 10
185.0
 20
150.0
 30
0.0
 40
14.0
100
AcDbArc
 50
184.096046
 51
265.903954
  0
ARC
  5
FE
330
1F
100
AcDbEntity
  8
0
 62
     1
370
    13
100
AcDbCircle
 10
185.0
 20
150.0
 30
0.0
 40
10.0
100
AcDbArc
 50
185.739171
 51
264.260829
  0
LINE
  5
FF
330
1F
100
AcDbEntity
  8
0
 62
     1
370
    13
100
AcDbLine
 10
176.055725
 20
149.0
 30
0.0
 11
175.050125
 21
149.0
 31
0.0
  0
ARC
  5
100
330
1F
100
AcDbEntity
  8
0
 62
     1
370
    13
100
AcDbCircle
 10
185.0
 20
150.0
 30
0.0
 40
9.0
100
AcDbArc
 50
186.379364
 51
263.620628
  0
ARC
  5
101
330
1F
100
AcDbEntity
  8
0
 62
     1
370
    13
100
AcDbCircle
 10
185.0
 20
150.0
 30
0.0
 40
5.0
100
AcDbArc
 50
191.536963
 51
258.463043
  0
LINE
  5
102
330
1F
100
AcDbEntity
  8
0
 62
     1
370
    13
100
AcDbLine
 10
181.127014
 20
149.0
 30
0.0
 11
180.101013
 21
149.0
 31
0.0
  0
ARC
  5
103
330
1F
100
AcDbEntity
  8
0
 62
     1
370
    13
100
AcDbCircle
 10
185.0
 20
150.0
 30
0.0
 40
4.0
100
AcDbArc
 50
194.47751
 51
255.522489
  0
ARC
  5
104
330
1F
100
AcDbEntity
  8
0
 62
     1
370
    13
100
AcDbCircle
 10
185.0
 20
150.0
 30
0.0
 40
4.0
100
AcDbArc
 50
104.477511
 51
165.52249
  0
LINE
  5
105
330
1F
100
AcDbEntity
  8
0
 62
     1
370
    13
100
AcDbLine
 10
180.101013
 20
151.0
 30
0.0
 11
181.127014
 21
151.0
 31
0.0
  0
ARC
  5
106
330
1F
100
AcDbEntity
  8
0
 62
     1
370
    13
100
AcDbCircle
 10
185.0
 20
150.0
 30
0.0
 40
5.0
100
AcDbArc
 50
101.536957
 51
168.463037
  0
ARC
  5
107
330
1F
100
AcDbEntity
  8
0
 62
     1
370
    13
100
AcDbCircle
 10
185.0
 20
150.0
 30
0.0
 40
9.0
100
AcDbArc
 50
96.379372
 51
173.620636
  0
LINE
  5
108
330
1F
100
AcDbEntity
  8
0
 62
     1
370
    13
100
AcDbLine
 10
175.050125
 20
151.0
 30
0.0
 11
176.055725
 21
151.0
 31
0.0
  0
ARC
  5
109
330
1F
100
AcDbEntity
  8
0
 62
     1
370
    13
100
AcDbCircle
 10
185.0
 20
150.0
 30
0.0
 40
10.0
100
AcDbArc
 50
95.739171
 51
174.260829
  0
ARC
  5
10A
330
1F
100
AcDbEntity
  8
0
 62
     1
370
    13
100
AcDbCircle
 10
185.0
 20
150.0
 30
0.0
 40
14.0
100
AcDbArc
 50
94.096046
 51
175.903954
  0
LINE
  5
10B
330
1F
100
AcDbEntity
  8
0
 62
     1
370
    13
100
AcDbLine
 10
170.033371
 20
151.0
 30
0.0
 11
171.035767
 21
151.0
 31
0.0
  0
ARC
  5
10C
330
1F
100
AcDbEntity
  8
0
 62
     1
370
    13
100
AcDbCircle
 10
185.0
 20
150.0
 30
0.0
 40
15.0
100
AcDbArc
 50
93.822552
 51
176.177449
  0
ARC
  5
10D
330
1F
100
AcDbEntity
  8
0
 62
     1
370
    13
100
AcDbCircle
 10
185.0
 20
150.0
 30
0.0
 40
15.0
100
AcDbArc
 50
3.822554
 51
86.177446
  0
LINE
  5
10E
330
1F
100
AcDbEntity
  8
0
 62
     1
370
    13
100
AcDbLine
 10
198.964233
 20
151.0
 30
0.0
 11
199.966629
 21
151.0
 31
0.0
  0
ARC
  5
10F
330
1F
100
AcDbEntity
  8
0
 62
     1
370
    13
100
AcDbCircle
 10
185.0
 20
150.0
 30
0.0
 40
14.0
100
AcDbArc
 50
4.096044
 51
85.903959
  0
ARC
  5
110
330
1F
100
AcDbEntity
  8
0
 62
     1
370
    13
100
AcDbCircle
 10
185.0
 20
150.0
 30
0.0
 40
10.0
100
AcDbArc
 50
5.739171
 51
84.260827
  0
LINE
  5
111
330
1F
100
AcDbEntity
  8
0
 62
     1
370
    13
100
AcDbLine
 10
193.944275
 20
151.0
 30
0.0
 11
194.949875
 21
151.0
 31
0.0
  0
ARC
  5
112
330
1F
100
AcDbEntity
  8
0
 62
     1
370
    13
100
AcDbCircle
 10
185.0
 20
150.0
 30
0.0
 40
9.0
100
AcDbArc
 50
6.37937
 51
83.620626
  0
ARC
  5
113
330
1F
100
AcDbEntity
  8
0
 62
     1
370
    13
100
AcDbCircle
 10
185.0
 20
150.0
 30
0.0
 40
5.0
100
AcDbArc
 50
11.53696
 51
78.463041
  0
LINE
  5
114
330
1F
100
AcDbEntity
  8
0
 62
     1
370
    13
100
AcDbLine
 10
188.872986
 20
151.0
 30
0.0
 11
189.898987
 21
151.0
 31
0.0
  0
ARC
  5
115
330
1F
100
AcDbEntity
  8
0
 62
     1
370
    13
100
AcDbCircle
 10
185.0
 20
150.0
 30
0.0
 40
4.0
100
AcDbArc
 50
14.477511
 51
75.522488
  0
ARC
  5
116
330
1F
100
AcDbEntity
  8
0
 62
     1
370
    13
100
AcDbCircle
 10
185.0
 20
150.0
 30
0.0
 40
4.0
100
AcDbArc
 50
284.477512
 51
345.522489
  0
LINE
  5
117
330
1F
100
AcDbEntity
  8
0
 62
     1
370
    13
100
AcDbLine
 10
189.898987
 20
149.0
 30
0.0
 11
188.872986
 21
149.0
 31
0.0
  0
ARC
  5
118
330
1F
100
AcDbEntity
  8
0
 62
     1
370
    13
100
AcDbCircle
 10
185.0
 20
150.0
 30
0.0
 40
5.0
100
AcDbArc
 50
281.536959
 51
348.46304
  0
ARC
  5
119
330
1F
100
AcDbEntity
  8
0
 62
     1
370
    13
100
AcDbCircle
 10
132.5
 20
119.68911
 30
0.0
 40
9.0
100
AcDbArc
 50
276.379374
 51
355.608686
  0
LINE
  5
11A
330
1F
100
AcDbEntity
  8
0
 62
     1
370
    13
100
AcDbLine
 10
142.476227
 20
119.0
 30
0.0
 11
141.473572
 21
119.0
 31
0.0
  0
ARC
  5
11B
330
1F
100
AcDbEntity
  8
0
 62
     1
370
    13
100
AcDbCircle
 10
132.5
 20
119.68911
 30
0.0
 40
10.0
100
AcDbArc
 50
275.739173
 51
356.048554
  0
ARC
  5
11C
330
1F
100
AcDbEntity
  8
0
 62
     1
370
    13
100
AcDbCircle
 10
132.5
 20
119.68911
 30
0.0
 40
14.0
100
AcDbArc
 50
274.096041
 51
357.178635
  0
LINE
  5
11D
330
1F
100
AcDbEntity
  8
0
 62
     1
370
    13
100
AcDbLine
 10
147.484161
 20
119.0
 30
0.0
 11
146.483032
 21
119.0
 31
0.0
  0
ARC
  5
11E
330
1F
100
AcDbEntity
  8
0
 62
     1
370
    13
100
AcDbCircle
 10
132.5
 20
119.68911
 30
0.0
 40
15.0
100
AcDbArc
 50
273.822554
 51
357.366864
  0
ARC
  5
11F
330
1F
100
AcDbEntity
  8
0
 62
     1
370
    13
100
AcDbCircle
 10
132.5
 20
119.68911
 30
0.0
 40
15.0
100
AcDbArc
 50
182.633142
 51
266.177448
  0
LINE
  5
120
330
1F
100
AcDbEntity
  8
0
 62
     1
370
    13
100
AcDbLine
 10
118.516968
 20
119.0
 30
0.0
 11
117.515839
 21
119.0
 31
0.0
  0
ARC
  5
121
330
1F
100
AcDbEntity
  8
0
 62
     1
370
    13
100
AcDbCircle
 10
132.5
 20
119.68911
 30
0.0
 40
14.0
100
AcDbArc
 50
182.821369
 51
265.903954
  0
ARC
  5
122
330
1F
100
AcDbEntity
  8
0
 62
     1
370
    13
100
AcDbCircle
 10
132.5
 20
119.68911
 30
0.0
 40
10.0
100
AcDbArc
 50
183.951451
 51
264.260829
  0
LINE
  5
123
330
1F
100
AcDbEntity
  8
0
 62
     1
370
    13
100
AcDbLine
 10
123.526421
 20
119.0
 30
0.0
 11
122.523773
 21
119.0
 31
0.0
  0
ARC
  5
124
330
1F
100
AcDbEntity
  8
0
 62
     1
370
    13
100
AcDbCircle
 10
132.5
 20
119.68911
 30
0.0
 40
9.0
100
AcDbArc
 50
184.391315
 51
263.620628
  0
ARC
  5
125
330
1F
100
AcDbEntity
  8
0
 62
     1
370
    13
100
AcDbCircle
 10
132.5
 20
119.68911
 30
0.0
 40
5.0
100
AcDbArc
 50
187.92184
 51
258.463043
  0
LINE
  5
126
330
1F
100
AcDbEntity
  8
0
 62
     1
370
    13
100
AcDbLine
 10
128.559814
 20
119.0
 30
0.0
 11
127.547714
 21
119.0
 31
0.0
  0
ARC
  5
127
330
1F
100
AcDbEntity
  8
0
 62
     1
370
    13
100
AcDbCircle
 10
132.5
 20
119.68911
 30
0.0
 40
4.0
100
AcDbArc
 50
189.920271
 51
255.522489
  0
ARC
  5
128
330
1F
100
AcDbEntity
  8
0
 62
     1
370
    13
100
AcDbCircle
 10
132.5
 20
119.68911
 30
0.0
 40
4.0
100
AcDbArc
 50
104.477511
 51
160.86941
  0
LINE
  5
129
330
1F
100
AcDbEntity
  8
0
 62
     1
370
    13
100
AcDbLine
 10
127.674904
 20
121.0
 30
0.0
 11
128.720901
 21
121.0
 31
0.0
  0
ARC
  5
12A
330
1F
100
AcDbEntity
  8
0
 62
     1
370
    13
100
AcDbCircle
 10
132.5
 20
119.68911
 30
0.0
 40
5.0
100
AcDbArc
 50
101.536957
 51
164.800676
  0
ARC
  5
12B
330
1F
100
AcDbEntity
  8
0
 62
     1
370
    13
100
AcDbCircle
 10
132.5
 20
119.68911
 30
0.0
 40
9.0
100
AcDbArc
 50
96.379372
 51
171.624827
  0
LINE
  5
12C
330
1F
100
AcDbEntity
  8
0
 62
     1
370
    13
100
AcDbLine
 10
122.586296
 20
121.0
 30
0.0
 11
123.595978
 21
121.0
 31
0.0
  0
ARC
  5
12D
330
1F
100
AcDbEntity
  8
0
 62
     1
370
    13
100
AcDbCircle
 10
132.5
 20
119.68911
 30
0.0
 40
10.0
100
AcDbArc
 50
95.739171
 51
172.467481
  0
ARC
  5
12E
330
1F
100
AcDbEntity
  8
0
 62
     1
370
    13
100
AcDbCircle
 10
132.5
 20
119.68911
 30
0.0
 40
14.0
100
AcDbArc
 50
94.096046
 51
174.627242
  0
LINE
  5
12F
330
1F
100
AcDbEntity
  8
0
 62
     1
370
    13
100
AcDbLine
 10
117.557388
 20
121.0
 30
0.0
 11
118.561508
 21
121.0
 31
0.0
  0
ARC
  5
130
330
1F
100
AcDbEntity
  8
0
 62
     1
370
    13
100
AcDbCircle
 10
132.5
 20
119.68911
 30
0.0
 40
15.0
100
AcDbArc
 50
93.822552
 51
174.986373
  0
ARC
  5
131
330
1F
100
AcDbEntity
  8
0
 62
     1
370
    13
100
AcDbCircle
 10
132.5
 20
119.68911
 30
0.0
 40
15.0
100
AcDbArc
 50
5.013624
 51
86.177446
  0
LINE
  5
132
330
1F
100
AcDbEntity
  8
0
 62
     1
370
    13
100
AcDbLine
 10
146.438492
 20
121.0
 30
0.0
 11
147.442612
 21
121.0
 31
0.0
  0
ARC
  5
133
330
1F
100
AcDbEntity
  8
0
 62
     1
370
    13
100
AcDbCircle
 10
132.5
 20
119.68911
 30
0.0
 40
14.0
100
AcDbArc
 50
5.372757
 51
85.903959
  0
ARC
  5
134
330
1F
100
AcDbEntity
  8
0
 62
     1
370
    13
100
AcDbCircle
 10
132.5
 20
119.68911
 30
0.0
 40
10.0
100
AcDbArc
 50
7.532521
 51
84.260827
  0
LINE
  5
135
330
1F
100
AcDbEntity
  8
0
 62
     1
370
    13
100
AcDbLine
 10
141.404022
 20
121.0
 30
0.0
 11
142.413712
 21
121.0
 31
0.0
  0
ARC
  5
136
330
1F
100
AcDbEntity
  8
0
 62
     1
370
    13
100
AcDbCircle
 10
132.5
 20
119.68911
 30
0.0
 40
9.0
100
AcDbArc
 50
8.375173
 51
83.620626
  0
ARC
  5
137
330
1F
100
AcDbEntity
  8
0
 62
     1
370
    13
100
AcDbCircle
 10
132.5
 20
119.68911
 30
0.0
 40
5.0
100
AcDbArc
 50
15.199326
 51
78.463041
  0
LINE
  5
138
330
1F
100
AcDbEntity
  8
0
 62
     1
370
    13
100
AcDbLine
 10
136.279099
 20
121.0
 30
0.0
 11
137.325104
 21
121.0
 31
0.0
  0
ARC
  5
139
330
1F
100
AcDbEntity
  8
0
 62
     1
370
    13
100
AcDbCircle
 10
132.5
 20
119.68911
 30
0.0
 40
4.0
100
AcDbArc
 50
19.130586
 51
75.522488
  0
ARC
  5
13A
330
1F
100
AcDbEntity
  8
0
 62
     1
370
    13
100
AcDbCircle
 10
132.5
 20
119.68911
 30
0.0
 40
4.0
100
AcDbArc
 50
284.477512
 51
350.079723
  0
LINE
  5
13B
330
1F
100
AcDbEntity
  8
0
 62
     1
370
    13
100
AcDbLine
 10
137.452286
 20
119.0
 30
0.0
 11
136.440201
 21
119.0
 31
0.0
  0
ARC
  5
13C
330
1F
100
AcDbEntity
  8
0
 62
     1
370
    13
100
AcDbCircle
 10
132.5
 20
119.68911
 30
0.0
 40
5.0
100
AcDbArc
 50
281.536959
 51
352.078156
  0
ARC
  5
13D
330
1F
100
AcDbEntity
  8
0
 62
     1
370
    13
100
AcDbCircle
 10
132.5
 20
180.310883
 30
0.0
 40
9.0
100
AcDbArc
 50
276.379374
 51
351.624827
  0
LINE
  5
13E
330
1F
100
AcDbEntity
  8
0
 62
     1
370
    13
100
AcDbLine
 10
142.413712
 20
179.0
 30
0.0
 11
141.404022
 21
179.0
 31
0.0
  0
ARC
  5
13F
330
1F
100
AcDbEntity
  8
0
 62
     1
370
    13
100
AcDbCircle
 10
132.5
 20
180.310883
 30
0.0
 40
10.0
100
AcDbArc
 50
275.739173
 51
352.467479
  0
ARC
  5
140
330
1F
100
AcDbEntity
  8
0
 62
     1
370
    13
100
AcDbCircle
 10
132.5
 20
180.310883
 30
0.0
 40
14.0
100
AcDbArc
 50
274.096041
 51
354.627243
  0
LINE
  5
141
330
1F
100
AcDbEntity
  8
0
 62
     1
370
    13
100
AcDbLine
 10
147.442612
 20
179.0
 30
0.0
 11
146.438492
 21
179.0
 31
0.0
  0
ARC
  5
142
330
1F
100
AcDbEntity
  8
0
 62
     1
370
    13
100
AcDbCircle
 10
132.5
 20
180.310883
 30
0.0
 40
15.0
100
AcDbArc
 50
273.822554
 51
354.986376
  0
ARC
  5
143
330
1F
100
AcDbEntity
  8
0
 62
     1
370
    13
100
AcDbCircle
 10
132.5
 20
180.310883
 30
0.0
 40
15.0
100
AcDbArc
 50
185.013627
 51
266.177448
  0
LINE
  5
144
330
1F
100
AcDbEntity
  8
0
 62
     1
370
    13
100
AcDbLine
 10
118.561508
 20
179.0
 30
0.0
 11
117.557388
 21
179.0
 31
0.0
  0
ARC
  5
145
330
1F
100
AcDbEntity
  8
0
 62
     1
370
    13
100
AcDbCircle
 10
132.5
 20
180.310883
 30
0.0
 40
14.0
100
AcDbArc
 50
185.372758
 51
265.903954
  0
ARC
  5
146
330
1F
100
AcDbEntity
  8
0
 62
     1
370
    13
100
AcDbCircle
 10
132.5
 20
180.310883
 30
0.0
 40
10.0
100
AcDbArc
 50
187.532519
 51
264.260829
  0
LINE
  5
147
330
1F
100
AcDbEntity
  8
0
 62
     1
370
    13
100
AcDbLine
 10
123.595978
 20
179.0
 30
0.0
 11
122.586296
 21
179.0
 31
0.0
  0
ARC
  5
148
330
1F
100
AcDbEntity
  8
0
 62
     1
370
    13
100
AcDbCircle
 10
132.5
 20
180.310883
 30
0.0
 40
9.0
100
AcDbArc
 50
188.375173
 51
263.620628
  0
ARC
  5
149
330
1F
100
AcDbEntity
  8
0
 62
     1
370
    13
100
AcDbCircle
 10
132.5
 20
180.310883
 30
0.0
 40
5.0
100
AcDbArc
 50
195.199324
 51
258.463043
  0
LINE
  5
14A
330
1F
100
AcDbEntity
  8
0
 62
     1
370
    13
100
AcDbLine
 10
128.720901
 20
179.0
 30
0.0
 11
127.674904
 21
179.0
 31
0.0
  0
ARC
  5
14B
330
1F
100
AcDbEntity
  8
0
 62
     1
370
    13
100
AcDbCircle
 10
132.5
 20
180.310883
 30
0.0
 40
4.0
100
AcDbArc
 50
199.13059
 51
255.522489
  0
ARC
  5
14C
330
1F
100
AcDbEntity
  8
0
 62
     1
370
    13
100
AcDbCircle
 10
132.5
 20
180.310883
 30
0.0
 40
4.0
100
AcDbArc
 50
104.477511
 51
170.079729
  0
LINE
  5
14D
330
1F
100
AcDbEntity
  8
0
 62
     1
370
    13
100
AcDbLine
 10
127.547714
 20
181.0
 30
0.0
 11
128.559814
 21
181.0
 31
0.0
  0
ARC
  5
14E
330
1F
100
AcDbEntity
  8
0
 62
     1
370
    13
100
AcDbCircle
 10
132.5
 20
180.310883
 30
0.0
 40
5.0
100
AcDbArc
 50
101.536957
 51
172.07816
  0
ARC
  5
14F
330
1F
100
AcDbEntity
  8
0
 62
     1
370
    13
100
AcDbCircle
 10
132.5
 20
180.310883
 30
0.0
 40
9.0
100
AcDbArc
 50
96.379372
 51
175.608685
  0
LINE
  5
150
330
1F
100
AcDbEntity
  8
0
 62
     1
370
    13
100
AcDbLine
 10
122.523773
 20
181.0
 30
0.0
 11
123.526421
 21
181.0
 31
0.0
  0
ARC
  5
151
330
1F
100
AcDbEntity
  8
0
 62
     1
370
    13
100
AcDbCircle
 10
132.5
 20
180.310883
 30
0.0
 40
10.0
100
AcDbArc
 50
95.739171
 51
176.048549
  0
ARC
  5
152
330
1F
100
AcDbEntity
  8
0
 62
     1
370
    13
100
AcDbCircle
 10
132.5
 20
180.310883
 30
0.0
 40
14.0
100
AcDbArc
 50
94.096046
 51
177.178631
  0
LINE
  5
153
330
1F
100
AcDbEntity
  8
0
 62
     1
370
    13
100
AcDbLine
 10
117.515839
 20
181.0
 30
0.0
 11
118.516968
 21
181.0
 31
0.0
  0
ARC
  5
154
330
1F
100
AcDbEntity
  8
0
 62
     1
370
    13
100
AcDbCircle
 10
132.5
 20
180.310883
 30
0.0
 40
15.0
100
AcDbArc
 50
93.822552
 51
177.366858
  0
ARC
  5
155
330
1F
100
AcDbEntity
  8
0
 62
     1
370
    13
100
AcDbCircle
 10
132.5
 20
180.310883
 30
0.0
 40
15.0
100
AcDbArc
 50
2.633136
 51
86.177446
  0
LINE
  5
156
330
1F
100
AcDbEntity
  8
0
 62
     1
370
    13
100
AcDbLine
 10
146.483032
 20
181.0
 30
0.0
 11
147.484161
 21
181.0
 31
0.0
  0
ARC
  5
157
330
1F
100
AcDbEntity
  8
0
 62
     1
370
    13
100
AcDbCircle
 10
132.5
 20
180.310883
 30
0.0
 40
14.0
100
AcDbArc
 50
2.821365
 51
85.903959
  0
ARC
  5
158
330
1F
100
AcDbEntity
  8
0
 62
     1
370
    13
100
AcDbCircle
 10
132.5
 20
180.310883
 30
0.0
 40
10.0
100
AcDbArc
 50
3.951446
 51
84.260827
  0
LINE
  5
159
330
1F
100
AcDbEntity
  8
0
 62
     1
370
    13
100
AcDbLine
 10
141.473572
 20
181.0
 30
0.0
 11
142.476227
 21
181.0
 31
0.0
  0
ARC
  5
15A
330
1F
100
AcDbEntity
  8
0
 62
     1
370
    13
100
AcDbCircle
 10
132.5
 20
180.310883
 30
0.0
 40
9.0
100
AcDbArc
 50
4.391314
 51
83.620626
  0
ARC
  5
15B
330
1F
100
AcDbEntity
  8
0
 62
     1
370
    13
100
AcDbCircle
 10
132.5
 20
180.310883
 30
0.0
 40
5.0
100
AcDbArc
 50
7.921844
 51
78.463041
  0
LINE
  5
15C
330
1F
100
AcDbEntity
  8
0
 62
     1
370
    13
100
AcDbLine
 10
136.440201
 20
181.0
 30
0.0
 11
137.452286
 21
181.0
 31
0.0
  0
ARC
  5
15D
330
1F
100
AcDbEntity
  8
0
 62
     1
370
    13
100
AcDbCircle
 10
132.5
 20
180.310883
 30
0.0
 40
4.0
100
AcDbArc
 50
9.920277
 51
75.522488
  0
ARC
  5
15E
330
1F
100
AcDbEntity
  8
0
 62
     1
370
    13
100
AcDbCircle
 10
132.5
 20
180.310883
 30
0.0
 40
4.0
100
AcDbArc
 50
284.477512
 51
340.869414
  0
LINE
  5
15F
330
1F
100
AcDbEntity
  8
0
 62
     1
370
    13
100
AcDbLine
 10
137.325104
 20
179.0
 30
0.0
 11
136.279099
 21
179.0
 31
0.0
  0
ARC
  5
160
330
1F
100
AcDbEntity
  8
0
 62
     1
370
    13
100
AcDbCircle
 10
132.5
 20
180.310883
 30
0.0
 40
5.0
100
AcDbArc
 50
281.536959
 51
344.800674
  0
CIRCLE
  5
161
330
1F
100
AcDbEntity
  8
0
 62
     1
370
    13
100
AcDbCircle
 10
112.5
 20
85.048096
 30
0.0
 40
5.5
  0
CIRCLE
  5
162
330
1F
100
AcDbEntity
  8
0
 62
     1
370
    13
100
AcDbCircle
 10
112.5
 20
214.951904
 30
0.0
 40
5.5
  0
ARC
  5
163
330
1F
100
AcDbEntity
  8
0
 62
     1
370
    13
100
AcDbCircle
 10
115.0
 20
150.0
 30
0.0
 40
10.0
100
AcDbArc
 50
5.739171
 51
84.260827
  0
LINE
  5
164
330
1F
100
AcDbEntity
  8
0
 62
     1
370
    13
100
AcDbLine
 10
123.944275
 20
151.0
 30
0.0
 11
124.949875
 21
151.0
 31
0.0
  0
ARC
  5
165
330
1F
100
AcDbEntity
  8
0
 62
     1
370
    13
100
AcDbCircle
 10
115.0
 20
150.0
 30
0.0
 40
9.0
100
AcDbArc
 50
6.37937
 51
83.620626
  0
ARC
  5
166
330
1F
100
AcDbEntity
  8
0
 62
     1
370
    13
100
AcDbCircle
 10
115.0
 20
150.0
 30
0.0
 40
5.0
100
AcDbArc
 50
11.53696
 51
78.463041
  0
LINE
  5
167
330
1F
100
AcDbEntity
  8
0
 62
     1
370
    13
100
AcDbLine
 10
118.872986
 20
151.0
 30
0.0
 11
119.898979
 21
151.0
 31
0.0
  0
ARC
  5
168
330
1F
100
AcDbEntity
  8
0
 62
     1
370
    13
100
AcDbCircle
 10
115.0
 20
150.0
 30
0.0
 40
4.0
100
AcDbArc
 50
14.477511
 51
75.522488
  0
ARC
  5
169
330
1F
100
AcDbEntity
  8
0
 62
     1
370
    13
100
AcDbCircle
 10
115.0
 20
150.0
 30
0.0
 40
4.0
100
AcDbArc
 50
284.477512
 51
345.522489
  0
LINE
  5
16A
330
1F
100
AcDbEntity
  8
0
 62
     1
370
    13
100
AcDbLine
 10
119.898979
 20
149.0
 30
0.0
 11
118.872986
 21
149.0
 31
0.0
  0
ARC
  5
16B
330
1F
100
AcDbEntity
  8
0
 62
     1
370
    13
100
AcDbCircle
 10
115.0
 20
150.0
 30
0.0
 40
5.0
100
AcDbArc
 50
281.536959
 51
348.46304
  0
ARC
  5
16C
330
1F
100
AcDbEntity
  8
0
 62
     1
370
    13
100
AcDbCircle
 10
115.0
 20
150.0
 30
0.0
 40
9.0
100
AcDbArc
 50
276.379374
 51
353.62063
  0
LINE
  5
16D
330
1F
100
AcDbEntity
  8
0
 62
     1
370
    13
100
AcDbLine
 10
124.949875
 20
149.0
 30
0.0
 11
123.944275
 21
149.0
 31
0.0
  0
ARC
  5
16E
330
1F
100
AcDbEntity
  8
0
 62
     1
370
    13
100
AcDbCircle
 10
115.0
 20
150.0
 30
0.0
 40
10.0
100
AcDbArc
 50
275.739173
 51
354.260829
  0
ARC
  5
16F
330
1F
100
AcDbEntity
  8
0
 62
     1
370
    13
100
AcDbCircle
 10
115.0
 20
150.0
 30
0.0
 40
14.0
100
AcDbArc
 50
274.096041
 51
355.903956
  0
LINE
  5
170
330
1F
100
AcDbEntity
  8
0
 62
     1
370
    13
100
AcDbLine
 10
129.966629
 20
149.0
 30
0.0
 11
128.964233
 21
149.0
 31
0.0
  0
ARC
  5
171
330
1F
100
AcDbEntity
  8
0
 62
     1
370
    13
100
AcDbCircle
 10
115.0
 20
150.0
 30
0.0
 40
15.0
100
AcDbArc
 50
273.822554
 51
356.177446
  0
ARC
  5
172
330
1F
100
AcDbEntity
  8
0
 62
     1
370
    13
100
AcDbCircle
 10
115.0
 20
150.0
 30
0.0
 40
15.0
100
AcDbArc
 50
183.822551
 51
266.177448
  0
LINE
  5
173
330
1F
100
AcDbEntity
  8
0
 62
     1
370
    13
100
AcDbLine
 10
101.035759
 20
149.0
 30
0.0
 11
100.033371
 21
149.0
 31
0.0
  0
ARC
  5
174
330
1F
100
AcDbEntity
  8
0
 62
     1
370
    13
100
AcDbCircle
 10
115.0
 20
150.0
 30
0.0
 40
14.0
100
AcDbArc
 50
184.096046
 51
265.903954
  0
ARC
  5
175
330
1F
100
AcDbEntity
  8
0
 62
     1
370
    13
100
AcDbCircle
 10
115.0
 20
150.0
 30
0.0
 40
10.0
100
AcDbArc
 50
185.739171
 51
264.260829
  0
LINE
  5
176
330
1F
100
AcDbEntity
  8
0
 62
     1
370
    13
100
AcDbLine
 10
106.055725
 20
149.0
 30
0.0
 11
105.050125
 21
149.0
 31
0.0
  0
ARC
  5
177
330
1F
100
AcDbEntity
  8
0
 62
     1
370
    13
100
AcDbCircle
 10
115.0
 20
150.0
 30
0.0
 40
9.0
100
AcDbArc
 50
186.379364
 51
263.620628
  0
ARC
  5
178
330
1F
100
AcDbEntity
  8
0
 62
     1
370
    13
100
AcDbCircle
 10
115.0
 20
150.0
 30
0.0
 40
5.0
100
AcDbArc
 50
191.536963
 51
258.463043
  0
LINE
  5
179
330
1F
100
AcDbEntity
  8
0
 62
     1
370
    13
100
AcDbLine
 10
111.127014
 20
149.0
 30
0.0
 11
110.101021
 21
149.0
 31
0.0
  0
ARC
  5
17A
330
1F
100
AcDbEntity
  8
0
 62
     1
370
    13
100
AcDbCircle
 10
115.0
 20
150.0
 30
0.0
 40
4.0
100
AcDbArc
 50
194.47751
 51
255.522489
  0
ARC
  5
17B
330
1F
100
AcDbEntity
  8
0
 62
     1
370
    13
100
AcDbCircle
 10
115.0
 20
150.0
 30
0.0
 40
4.0
100
AcDbArc
 50
104.477511
 51
165.52249
  0
LINE
  5
17C
330
1F
100
AcDbEntity
  8
0
 62
     1
370
    13
100
AcDbLine
 10
110.101021
 20
151.0
 30
0.0
 11
111.127014
 21
151.0
 31
0.0
  0
ARC
  5
17D
330
1F
100
AcDbEntity
  8
0
 62
     1
370
    13
100
AcDbCircle
 10
115.0
 20
150.0
 30
0.0
 40
5.0
100
AcDbArc
 50
101.536957
 51
168.463037
  0
ARC
  5
17E
330
1F
100
AcDbEntity
  8
0
 62
     1
370
    13
100
AcDbCircle
 10
115.0
 20
150.0
 30
0.0
 40
9.0
100
AcDbArc
 50
96.379372
 51
173.620636
  0
LINE
  5
17F
330
1F
100
AcDbEntity
  8
0
 62
     1
370
    13
100
AcDbLine
 10
105.050125
 20
151.0
 30
0.0
 11
106.055725
 21
151.0
 31
0.0
  0
ARC
  5
180
330
1F
100
AcDbEntity
  8
0
 62
     1
370
    13
100
AcDbCircle
 10
115.0
 20
150.0
 30
0.0
 40
10.0
100
AcDbArc
 50
95.739171
 51
174.260829
  0
ARC
  5
181
330
1F
100
AcDbEntity
  8
0
 62
     1
370
    13
100
AcDbCircle
 10
115.0
 20
150.0
 30
0.0
 40
14.0
100
AcDbArc
 50
94.096046
 51
175.903954
  0
LINE
  5
182
330
1F
100
AcDbEntity
  8
0
 62
     1
370
    13
100
AcDbLine
 10
100.033371
 20
151.0
 30
0.0
 11
101.035759
 21
151.0
 31
0.0
  0
ARC
  5
183
330
1F
100
AcDbEntity
  8
0
 62
     1
370
    13
100
AcDbCircle
 10
115.0
 20
150.0
 30
0.0
 40
15.0
100
AcDbArc
 50
93.822552
 51
176.177449
  0
ARC
  5
184
330
1F
100
AcDbEntity
  8
0
 62
     1
370
    13
100
AcDbCircle
 10
115.0
 20
150.0
 30
0.0
 40
15.0
100
AcDbArc
 50
3.822554
 51
86.177446
  0
LINE
  5
185
330
1F
100
AcDbEntity
  8
0
 62
     1
370
    13
100
AcDbLine
 10
128.964233
 20
151.0
 30
0.0
 11
129.966629
 21
151.0
 31
0.0
  0
ARC
  5
186
330
1F
100
AcDbEntity
  8
0
 62
     1
370
    13
100
AcDbCircle
 10
115.0
 20
150.0
 30
0.0
 40
14.0
100
AcDbArc
 50
4.096044
 51
85.903959
  0
CIRCLE
  5
187
330
1F
100
AcDbEntity
  8
0
 62
     1
370
    13
100
AcDbCircle
 10
225.0
 20
150.0
 30
0.0
 40
5.5
  0
LINE
  5
188
330
1F
100
AcDbEntity
  8
0
 62
     1
370
    13
100
AcDbLine
 10
133.5
 20
189.255157
 30
0.0
 11
133.5
 21
190.260773
 31
0.0
  0
LINE
  5
189
330
1F
100
AcDbEntity
  8
0
 62
     1
370
    13
100
AcDbLine
 10
131.5
 20
190.260773
 30
0.0
 11
131.5
 21
189.255157
 31
0.0
  0
LINE
  5
18A
330
1F
100
AcDbEntity
  8
0
 62
     1
370
    13
100
AcDbLine
 10
133.5
 20
184.183868
 30
0.0
 11
133.5
 21
185.209869
 31
0.0
  0
LINE
  5
18B
330
1F
100
AcDbEntity
  8
0
 62
     1
370
    13
100
AcDbLine
 10
131.5
 20
185.209869
 30
0.0
 11
131.5
 21
184.183868
 31
0.0
  0
LINE
  5
18C
330
1F
100
AcDbEntity
  8
0
 62
     1
370
    13
100
AcDbLine
 10
131.5
 20
176.437912
 30
0.0
 11
131.5
 21
175.411911
 31
0.0
  0
LINE
  5
18D
330
1F
100
AcDbEntity
  8
0
 62
     1
370
    13
100
AcDbLine
 10
133.5
 20
175.411911
 30
0.0
 11
133.5
 21
176.437912
 31
0.0
  0
LINE
  5
18E
330
1F
100
AcDbEntity
  8
0
 62
     1
370
    13
100
AcDbLine
 10
133.5
 20
170.361023
 30
0.0
 11
133.5
 21
171.366623
 31
0.0
  0
LINE
  5
18F
330
1F
100
AcDbEntity
  8
0
 62
     1
370
    13
100
AcDbLine
 10
131.5
 20
171.366623
 30
0.0
 11
131.5
 21
170.361023
 31
0.0
  0
LINE
  5
190
330
1F
100
AcDbEntity
  8
0
 62
     1
370
    13
100
AcDbLine
 10
133.5
 20
128.633377
 30
0.0
 11
133.5
 21
129.638977
 31
0.0
  0
LINE
  5
191
330
1F
100
AcDbEntity
  8
0
 62
     1
370
    13
100
AcDbLine
 10
131.5
 20
129.638977
 30
0.0
 11
131.5
 21
128.633377
 31
0.0
  0
LINE
  5
192
330
1F
100
AcDbEntity
  8
0
 62
     1
370
    13
100
AcDbLine
 10
133.5
 20
123.562096
 30
0.0
 11
133.5
 21
124.588089
 31
0.0
  0
LINE
  5
193
330
1F
100
AcDbEntity
  8
0
 62
     1
370
    13
100
AcDbLine
 10
131.5
 20
124.588089
 30
0.0
 11
131.5
 21
123.562096
 31
0.0
  0
LINE
  5
194
330
1F
100
AcDbEntity
  8
0
 62
     1
370
    13
100
AcDbLine
 10
131.5
 20
115.816132
 30
0.0
 11
131.5
 21
114.790131
 31
0.0
  0
LINE
  5
195
330
1F
100
AcDbEntity
  8
0
 62
     1
370
    13
100
AcDbLine
 10
133.5
 20
114.790131
 30
0.0
 11
133.5
 21
115.816132
 31
0.0
  0
LINE
  5
196
330
1F
100
AcDbEntity
  8
0
 62
     1
370
    13
100
AcDbLine
 10
133.5
 20
109.739235
 30
0.0
 11
133.5
 21
110.744843
 31
0.0
  0
LINE
  5
197
330
1F
100
AcDbEntity
  8
0
 62
     1
370
    13
100
AcDbLine
 10
131.5
 20
110.744843
 30
0.0
 11
131.5
 21
109.739235
 31
0.0
  0
LINE
  5
198
330
1F
100
AcDbEntity
  8
0
 62
     1
370
    13
100
AcDbLine
 10
186.0
 20
158.944275
 30
0.0
 11
186.0
 21
159.949875
 31
0.0
  0
LINE
  5
199
330
1F
100
AcDbEntity
  8
0
 62
     1
370
    13
100
AcDbLine
 10
184.0
 20
159.949875
 30
0.0
 11
184.0
 21
158.944275
 31
0.0
  0
LINE
  5
19A
330
1F
100
AcDbEntity
  8
0
 62
     1
370
    13
100
AcDbLine
 10
186.0
 20
153.872986
 30
0.0
 11
186.0
 21
154.898987
 31
0.0
  0
LINE
  5
19B
330
1F
100
AcDbEntity
  8
0
 62
     1
370
    13
100
AcDbLine
 10
184.0
 20
154.898987
 30
0.0
 11
184.0
 21
153.872986
 31
0.0
  0
LINE
  5
19C
330
1F
100
AcDbEntity
  8
0
 62
     1
370
    13
100
AcDbLine
 10
184.0
 20
146.127014
 30
0.0
 11
184.0
 21
145.101013
 31
0.0
  0
LINE
  5
19D
330
1F
100
AcDbEntity
  8
0
 62
     1
370
    13
100
AcDbLine
 10
186.0
 20
145.101013
 30
0.0
 11
186.0
 21
146.127014
 31
0.0
  0
LINE
  5
19E
330
1F
100
AcDbEntity
  8
0
 62
     1
370
    13
100
AcDbLine
 10
186.0
 20
140.050125
 30
0.0
 11
186.0
 21
141.055725
 31
0.0
  0
LINE
  5
19F
330
1F
100
AcDbEntity
  8
0
 62
     1
370
    13
100
AcDbLine
 10
184.0
 20
141.055725
 30
0.0
 11
184.0
 21
140.050125
 31
0.0
  0
LINE
  5
1A0
330
1F
100
AcDbEntity
  8
0
 62
     1
370
    13
100
AcDbLine
 10
151.0
 20
140.050125
 30
0.0
 11
151.0
 21
141.055725
 31
0.0
  0
LINE
  5
1A1
330
1F
100
AcDbEntity
  8
0
 62
     1
370
    13
100
AcDbLine
 10
149.0
 20
141.055725
 30
0.0
 11
149.0
 21
140.050125
 31
0.0
  0
LINE
  5
1A2
330
1F
100
AcDbEntity
  8
0
 62
     1
370
    13
100
AcDbLine
 10
149.0
 20
146.127014
 30
0.0
 11
149.0
 21
145.101013
 31
0.0
  0
LINE
  5
1A3
330
1F
100
AcDbEntity
  8
0
 62
     1
370
    13
100
AcDbLine
 10
151.0
 20
145.101013
 30
0.0
 11
151.0
 21
146.127014
 31
0.0
  0
LINE
  5
1A4
330
1F
100
AcDbEntity
  8
0
 62
     1
370
    13
100
AcDbLine
 10
168.5
 20
189.255157
 30
0.0
 11
168.5
 21
190.260773
 31
0.0
  0
LINE
  5
1A5
330
1F
100
AcDbEntity
  8
0
 62
     1
370
    13
100
AcDbLine
 10
166.5
 20
190.260773
 30
0.0
 11
166.5
 21
189.255157
 31
0.0
  0
LINE
  5
1A6
330
1F
100
AcDbEntity
  8
0
 62
     1
370
    13
100
AcDbLine
 10
168.5
 20
184.183868
 30
0.0
 11
168.5
 21
185.209869
 31
0.0
  0
LINE
  5
1A7
330
1F
100
AcDbEntity
  8
0
 62
     1
370
    13
100
AcDbLine
 10
166.5
 20
185.209869
 30
0.0
 11
166.5
 21
184.183868
 31
0.0
  0
LINE
  5
1A8
330
1F
100
AcDbEntity
  8
0
 62
     1
370
    13
100
AcDbLine
 10
166.5
 20
176.437912
 30
0.0
 11
166.5
 21
175.411911
 31
0.0
  0
LINE
  5
1A9
330
1F
100
AcDbEntity
  8
0
 62
     1
370
    13
100
AcDbLine
 10
168.5
 20
175.411911
 30
0.0
 11
168.5
 21
176.437912
 31
0.0
  0
LINE
  5
1AA
330
1F
100
AcDbEntity
  8
0
 62
     1
370
    13
100
AcDbLine
 10
168.5
 20
170.361023
 30
0.0
 11
168.5
 21
171.366623
 31
0.0
  0
LINE
  5
1AB
330
1F
100
AcDbEntity
  8
0
 62
     1
370
    13
100
AcDbLine
 10
166.5
 20
171.366623
 30
0.0
 11
166.5
 21
170.361023
 31
0.0
  0
LINE
  5
1AC
330
1F
100
AcDbEntity
  8
0
 62
     1
370
    13
100
AcDbLine
 10
168.5
 20
128.633377
 30
0.0
 11
168.5
 21
129.638977
 31
0.0
  0
LINE
  5
1AD
330
1F
100
AcDbEntity
  8
0
 62
     1
370
    13
100
AcDbLine
 10
166.5
 20
129.638977
 30
0.0
 11
166.5
 21
128.633377
 31
0.0
  0
LINE
  5
1AE
330
1F
100
AcDbEntity
  8
0
 62
     1
370
    13
100
AcDbLine
 10
168.5
 20
123.562096
 30
0.0
 11
168.5
 21
124.588089
 31
0.0
  0
LINE
  5
1AF
330
1F
100
AcDbEntity
  8
0
 62
     1
370
    13
100
AcDbLine
 10
166.5
 20
124.588089
 30
0.0
 11
166.5
 21
123.562096
 31
0.0
  0
LINE
  5
1B0
330
1F
100
AcDbEntity
  8
0
 62
     1
370
    13
100
AcDbLine
 10
166.5
 20
115.816132
 30
0.0
 11
166.5
 21
114.790131
 31
0.0
  0
LINE
  5
1B1
330
1F
100
AcDbEntity
  8
0
 62
     1
370
    13
100
AcDbLine
 10
168.5
 20
114.790131
 30
0.0
 11
168.5
 21
115.816132
 31
0.0
  0
LINE
  5
1B2
330
1F
100
AcDbEntity
  8
0
 62
     1
370
    13
100
AcDbLine
 10
168.5
 20
109.739235
 30
0.0
 11
168.5
 21
110.744843
 31
0.0
  0
LINE
  5
1B3
330
1F
100
AcDbEntity
  8
0
 62
     1
370
    13
100
AcDbLine
 10
166.5
 20
110.744843
 30
0.0
 11
166.5
 21
109.739235
 31
0.0
  0
LINE
  5
1B4
330
1F
100
AcDbEntity
  8
0
 62
     1
370
    13
100
AcDbLine
 10
116.0
 20
140.050125
 30
0.0
 11
116.0
 21
141.055725
 31
0.0
  0
LINE
  5
1B5
330
1F
100
AcDbEntity
  8
0
 62
     1
370
    13
100
AcDbLine
 10
114.0
 20
141.055725
 30
0.0
 11
114.0
 21
140.050125
 31
0.0
  0
LINE
  5
1B6
330
1F
100
AcDbEntity
  8
0
 62
     1
370
    13
100
AcDbLine
 10
116.0
 20
158.944275
 30
0.0
 11
116.0
 21
159.949875
 31
0.0
  0
LINE
  5
1B7
330
1F
100
AcDbEntity
  8
0
 62
     1
370
    13
100
AcDbLine
 10
114.0
 20
159.949875
 30
0.0
 11
114.0
 21
158.944275
 31
0.0
  0
LINE
  5
1B8
330
1F
100
AcDbEntity
  8
0
 62
     1
370
    13
100
AcDbLine
 10
116.0
 20
153.872986
 30
0.0
 11
116.0
 21
154.898987
 31
0.0
  0
LINE
  5
1B9
330
1F
100
AcDbEntity
  8
0
 62
     1
370
    13
100
AcDbLine
 10
114.0
 20
154.898987
 30
0.0
 11
114.0
 21
153.872986
 31
0.0
  0
LINE
  5
1BA
330
1F
100
AcDbEntity
  8
0
 62
     1
370
    13
100
AcDbLine
 10
114.0
 20
146.127014
 30
0.0
 11
114.0
 21
145.101013
 31
0.0
  0
LINE
  5
1BB
330
1F
100
AcDbEntity
  8
0
 62
     1
370
    13
100
AcDbLine
 10
116.0
 20
145.101013
 30
0.0
 11
116.0
 21
146.127014
 31
0.0
  0
LINE
  5
1BC
330
1F
100
AcDbEntity
  8
0
 62
     1
370
    13
100
AcDbLine
 10
151.0
 20
153.872986
 30
0.0
 11
151.0
 21
154.898987
 31
0.0
  0
LINE
  5
1BD
330
1F
100
AcDbEntity
  8
0
 62
     1
370
    13
100
AcDbLine
 10
149.0
 20
154.898987
 30
0.0
 11
149.0
 21
153.872986
 31
0.0
  0
LINE
  5
1BE
330
1F
100
AcDbEntity
  8
0
 62
     1
370
    13
100
AcDbLine
 10
151.0
 20
158.944275
 30
0.0
 11
151.0
 21
159.949875
 31
0.0
  0
LINE
  5
1BF
330
1F
100
AcDbEntity
  8
0
 62
     1
370
    13
100
AcDbLine
 10
149.0
 20
159.949875
 30
0.0
 11
149.0
 21
158.944275
 31
0.0
  0
LINE
  5
1C0
330
1F
100
AcDbEntity
  8
0
 62
     1
370
    13
100
AcDbLine
 10
151.0
 20
163.964233
 30
0.0
 11
151.0
 21
164.966629
 31
0.0
  0
LINE
  5
1C1
330
1F
100
AcDbEntity
  8
0
 62
     1
370
    13
100
AcDbLine
 10
149.0
 20
164.966629
 30
0.0
 11
149.0
 21
163.964233
 31
0.0
  0
ENDSEC
  0
SECTION
  2
OBJECTS
  0
DICTIONARY
  5
C
330
0
100
AcDbDictionary
281
     1
  3
ACAD_DETAILVIEWSTYLE
350
1CA
  3
ACAD_GROUP
350
D
  3
ACAD_LAYOUT
350
1A
  3
ACAD_MATERIAL
350
43
  3
ACAD_MLEADERSTYLE
350
6B
  3
ACAD_MLINESTYLE
350
17
  3
ACAD_PLOTSETTINGS
350
19
  3
ACAD_PLOTSTYLENAME
350
E
  3
ACAD_SCALELIST
350
47
  3
ACAD_SECTIONVIEWSTYLE
350
1CB
  3
ACAD_TABLESTYLE
350
69
  3
ACAD_VISUALSTYLE
350
2A
  3
ACDB_RECOMPOSE_DATA
350
1C6
  3
AcDbVariableDictionary
350
1C2
  0
SUN
  5
6D
330
29
100
AcDbSun
 90
        1
290
     0
 63
     7
421
 16777215
 40
1.0
291
     1
 91
  2455826
 92
 54000000
292
     0
 70
     2
 71
   256
280
     1
  0
DICTIONARY
  5
1CA
102
{ACAD_REACTORS
330
C
102
}
330
C
100
AcDbDictionary
281
     1
  0
DICTIONARY
  5
D
102
{ACAD_REACTORS
330
C
102
}
330
C
100
AcDbDictionary
281
     1
  0
DICTIONARY
  5
1A
102
{ACAD_REACTORS
330
C
102
}
330
C
100
AcDbDictionary
281
     1
  3
Layout1
350
1E
  3
Layout2
350
26
  3
Model
350
22
  0
DICTIONARY
  5
43
102
{ACAD_REACTORS
330
C
102
}
330
C
100
AcDbDictionary
281
     1
  3
ByBlock
350
45
  3
ByLayer
350
44
  3
Global
350
46
  0
DICTIONARY
  5
6B
102
{ACAD_REACTORS
330
C
102
}
330
C
100
AcDbDictionary
281
     1
  3
Standard
350
6C
  0
DICTIONARY
  5
17
102
{ACAD_REACTORS
330
C
102
}
330
C
100
AcDbDictionary
281
     1
  3
Standard
350
18
  0
DICTIONARY
  5
19
102
{ACAD_REACTORS
330
C
102
}
330
C
100
AcDbDictionary
281
     1
  0
ACDBDICTIONARYWDFLT
  5
E
102
{ACAD_REACTORS
330
C
102
}
330
C
100
AcDbDictionary
281
     1
  3
Normal
350
F
100
AcDbDictionaryWithDefault
340
F
  0
DICTIONARY
  5
47
102
{ACAD_REACTORS
330
C
102
}
330
C
100
AcDbDictionary
281
     1
  3
A0
350
48
  3
A1
350
49
  3
A2
350
4A
  3
A3
350
4B
  3
A4
350
4C
  3
A5
350
4D
  3
A6
350
4E
  3
A7
350
4F
  3
A8
350
50
  3
A9
350
51
  3
B0
350
52
  3
B1
350
53
  3
B2
350
54
  3
B3
350
55
  3
B4
350
56
  3
B5
350
57
  3
B6
350
58
  3
B7
350
59
  3
B8
350
5A
  3
B9
350
5B
  3
C0
350
5C
  3
C1
350
5D
  3
C2
350
5E
  3
C3
350
5F
  3
C4
350
60
  3
C5
350
61
  3
C6
350
62
  3
C7
350
63
  3
C8
350
64
  3
C9
350
65
  3
D0
350
66
  3
D1
350
67
  3
D2
350
68
  0
DICTIONARY
  5
1CB
102
{ACAD_REACTORS
330
C
102
}
330
C
100
AcDbDictionary
281
     1
  0
DICTIONARY
  5
69
102
{ACAD_REACTORS
330
C
102
}
330
C
100
AcDbDictionary
281
     1
  3
Standard
350
6A
  0
DICTIONARY
  5
2A
102
{ACAD_REACTORS
330
C
102
}
330
C
100
AcDbDictionary
281
     1
  3
2dWireframe
350
2F
  3
Basic
350
32
  3
Brighten
350
36
  3
ColorChange
350
3A
  3
Conceptual
350
34
  3
Dim
350
35
  3
EdgeColorOff
350
3D
  3
Facepattern
350
39
  3
Flat
350
2B
  3
FlatWithEdges
350
2C
  3
Gouraud
350
2D
  3
GouraudWithEdges
350
2E
  3
Hidden
350
31
  3
JitterOff
350
3B
  3
Linepattern
350
38
  3
OverhangOff
350
3C
  3
Realistic
350
33
  3
Shaded
350
42
  3
Shaded with edges
350
41
  3
Shades of Gray
350
3E
  3
Sketchy
350
3F
  3
Thicken
350
37
  3
Wireframe
350
30
  3
X-Ray
350
40
  0
XRECORD
  5
1C6
102
{ACAD_REACTORS
330
C
102
}
330
C
100
AcDbXrecord
280
     1
 90
        1
330
6A
  0
DICTIONARY
  5
1C2
102
{ACAD_REACTORS
330
C
102
}
330
C
100
AcDbDictionary
281
     1
  3
CANNOSCALE
350
1C3
  3
CMLEADERSTYLE
350
1C8
  3
CTABLESTYLE
350
1C7
  3
XCLIPFRAME
350
1C9
  0
LAYOUT
  5
1E
102
{ACAD_REACTORS
330
1A
102
}
330
1A
100
AcDbPlotSettings
  1

  2
none_device
  4

  6

 40
0.0
 41
0.0
 42
0.0
 43
0.0
 44
0.0
 45
0.0
 46
0.0
 47
0.0
 48
0.0
 49
0.0
140
0.0
141
0.0
142
1.0
143
1.0
 70
  4784
 72
     0
 73
     0
 74
     5
  7

 75
    16
 76
     0
 77
     2
 78
   300
147
1.0
148
0.0
149
0.0
100
AcDbLayout
  1
Layout1
 70
     1
 71
     1
 10
0.0
 20
0.0
 11
420.0
 21
297.0
 12
0.0
 22
0.0
 32
0.0
 14
0.0
 24
0.0
 34
0.0
 15
237.5
 25
237.5
 35
2.0
146
0.0
 13
0.0
 23
0.0
 33
0.0
 16
1.0
 26
0.0
 36
0.0
 17
0.0
 27
1.0
 37
0.0
 76
     0
330
1B
  0
LAYOUT
  5
26
102
{ACAD_REACTORS
330
1A
102
}
330
1A
100
AcDbPlotSettings
  1

  2
none_device
  4

  6

 40
0.0
 41
0.0
 42
0.0
 43
0.0
 44
0.0
 45
0.0
 46
0.0
 47
0.0
 48
0.0
 49
0.0
140
0.0
141
0.0
142
1.0
143
1.0
 70
  4784
 72
     0
 73
     0
 74
     5
  7

 75
    16
 76
     0
 77
     2
 78
   300
147
1.0
148
0.0
149
0.0
100
AcDbLayout
  1
Layout2
 70
     1
 71
     2
 10
0.0
 20
0.0
 11
0.0
 21
0.0
 12
0.0
 22
0.0
 32
0.0
 14
0.0
 24
0.0
 34
0.0
 15
0.0
 25
0.0
 35
0.0
146
0.0
 13
0.0
 23
0.0
 33
0.0
 16
1.0
 26
0.0
 36
0.0
 17
0.0
 27
1.0
 37
0.0
 76
     0
330
23
  0
LAYOUT
  5
22
102
{ACAD_REACTORS
330
1A
102
}
330
1A
100
AcDbPlotSettings
  1

  2
none_device
  4
Letter_(8.50_x_11.00_Inches)
  6

 40
6.35
 41
6.35
 42
6.350005
 43
6.350005
 44
215.9
 45
279.4
 46
0.0
 47
0.0
 48
0.0
 49
0.0
140
0.0
141
0.0
142
1.0
143
1.0
 70
  5808
 72
     0
 73
     0
 74
     0
  7

 75
     0
 76
     0
 77
     2
 78
   300
147
1.0
148
0.0
149
0.0
100
AcDbLayout
  1
Model
 70
     1
 71
     0
 10
0.0
 20
0.0
 11
420.0
 21
297.0
 12
0.0
 22
0.0
 32
0.0
 14
0.0
 24
0.0
 34
0.0
 15
237.5
 25
237.5
 35
2.0
146
0.0
 13
0.0
 23
0.0
 33
0.0
 16
1.0
 26
0.0
 36
0.0
 17
0.0
 27
1.0
 37
0.0
 76
     0
330
1F
331
29
  0
MATERIAL
  5
45
102
{ACAD_REACTORS
330
43
102
}
330
43
100
AcDbMaterial
  1
ByBlock
 72
     1
 94
      127
  0
MATERIAL
  5
44
102
{ACAD_REACTORS
330
43
102
}
330
43
100
AcDbMaterial
  1
ByLayer
 72
     1
 94
      127
  0
MATERIAL
  5
46
102
{ACAD_REACTORS
330
43
102
}
330
43
100
AcDbMaterial
  1
Global
 72
     1
 94
      127
  0
MLEADERSTYLE
  5
6C
102
{ACAD_REACTORS
330
6B
102
}
330
6B
100
AcDbMLeaderStyle
179
     2
170
     2
171
     1
172
     0
 90
        2
 40
0.0
 41
0.0
173
     1
 91
-1056964608
340
14
 92
       -2
290
     1
 42
0.09
291
     1
 43
0.36
  3
Standard
341
0
 44
0.18
300

342
11
174
     1
178
     6
175
     1
176
     0
 93
-1056964608
 45
0.18
292
     0
297
     0
 46
0.18
343
0
 94
-1056964608
 47
1.0
 49
1.0
140
1.0
293
     1
141
0.0
294
     1
177
     0
142
1.0
295
     0
296
     0
143
0.125
271
     0
272
     9
273
     9
  0
MLINESTYLE
  5
18
102
{ACAD_REACTORS
330
17
102
}
330
17
100
AcDbMlineStyle
  2
Standard
 70
     0
  3

 62
   256
 51
90.0
 52
90.0
 71
     2
 49
0.5
 62
   256
  6
BYLAYER
 49
-0.5
 62
   256
  6
BYLAYER
  0
ACDBPLACEHOLDER
  5
F
102
{ACAD_REACTORS
330
E
102
}
330
E
  0
SCALE
  5
48
102
{ACAD_REACTORS
330
47
102
}
330
47
100
AcDbScale
 70
     0
300
1:1
140
1.0
141
1.0
290
     1
  0
SCALE
  5
49
102
{ACAD_REACTORS
330
47
102
}
330
47
100
AcDbScale
 70
     0
300
1:2
140
1.0
141
2.0
290
     0
  0
SCALE
  5
4A
102
{ACAD_REACTORS
330
47
102
}
330
47
100
AcDbScale
 70
     0
300
1:4
140
1.0
141
4.0
290
     0
  0
SCALE
  5
4B
102
{ACAD_REACTORS
330
47
102
}
330
47
100
AcDbScale
 70
     0
300
1:5
140
1.0
141
5.0
290
     0
  0
SCALE
  5
4C
102
{ACAD_REACTORS
330
47
102
}
330
47
100
AcDbScale
 70
     0
300
1:8
140
1.0
141
8.0
290
     0
  0
SCALE
  5
4D
102
{ACAD_REACTORS
330
47
102
}
330
47
100
AcDbScale
 70
     0
300
1:10
140
1.0
141
10.0
290
     0
  0
SCALE
  5
4E
102
{ACAD_REACTORS
330
47
102
}
330
47
100
AcDbScale
 70
     0
300
1:16
140
1.0
141
16.0
290
     0
  0
SCALE
  5
4F
102
{ACAD_REACTORS
330
47
102
}
330
47
100
AcDbScale
 70
     0
300
1:20
140
1.0
141
20.0
290
     0
  0
SCALE
  5
50
102
{ACAD_REACTORS
330
47
102
}
330
47
100
AcDbScale
 70
     0
300
1:30
140
1.0
141
30.0
290
     0
  0
SCALE
  5
51
102
{ACAD_REACTORS
330
47
102
}
330
47
100
AcDbScale
 70
     0
300
1:40
140
1.0
141
40.0
290
     0
  0
SCALE
  5
52
102
{ACAD_REACTORS
330
47
102
}
330
47
100
AcDbScale
 70
     0
300
1:50
140
1.0
141
50.0
290
     0
  0
SCALE
  5
53
102
{ACAD_REACTORS
330
47
102
}
330
47
100
AcDbScale
 70
     0
300
1:100
140
1.0
141
100.0
290
     0
  0
SCALE
  5
54
102
{ACAD_REACTORS
330
47
102
}
330
47
100
AcDbScale
 70
     0
300
2:1
140
2.0
141
1.0
290
     0
  0
SCALE
  5
55
102
{ACAD_REACTORS
330
47
102
}
330
47
100
AcDbScale
 70
     0
300
4:1
140
4.0
141
1.0
290
     0
  0
SCALE
  5
56
102
{ACAD_REACTORS
330
47
102
}
330
47
100
AcDbScale
 70
     0
300
8:1
140
8.0
141
1.0
290
     0
  0
SCALE
  5
57
102
{ACAD_REACTORS
330
47
102
}
330
47
100
AcDbScale
 70
     0
300
10:1
140
10.0
141
1.0
290
     0
  0
SCALE
  5
58
102
{ACAD_REACTORS
330
47
102
}
330
47
100
AcDbScale
 70
     0
300
100:1
140
100.0
141
1.0
290
     0
  0
SCALE
  5
59
102
{ACAD_REACTORS
330
47
102
}
330
47
100
AcDbScale
 70
     0
300
1/128" = 1'-0"
140
0.007812
141
12.0
290
     0
  0
SCALE
  5
5A
102
{ACAD_REACTORS
330
47
102
}
330
47
100
AcDbScale
 70
     0
300
1/64" = 1'-0"
140
0.015625
141
12.0
290
     0
  0
SCALE
  5
5B
102
{ACAD_REACTORS
330
47
102
}
330
47
100
AcDbScale
 70
     0
300
1/32" = 1'-0"
140
0.03125
141
12.0
290
     0
  0
SCALE
  5
5C
102
{ACAD_REACTORS
330
47
102
}
330
47
100
AcDbScale
 70
     0
300
1/16" = 1'-0"
140
0.0625
141
12.0
290
     0
  0
SCALE
  5
5D
102
{ACAD_REACTORS
330
47
102
}
330
47
100
AcDbScale
 70
     0
300
3/32" = 1'-0"
140
0.09375
141
12.0
290
     0
  0
SCALE
  5
5E
102
{ACAD_REACTORS
330
47
102
}
330
47
100
AcDbScale
 70
     0
300
1/8" = 1'-0"
140
0.125
141
12.0
290
     0
  0
SCALE
  5
5F
102
{ACAD_REACTORS
330
47
102
}
330
47
100
AcDbScale
 70
     0
300
3/16" = 1'-0"
140
0.1875
141
12.0
290
     0
  0
SCALE
  5
60
102
{ACAD_REACTORS
330
47
102
}
330
47
100
AcDbScale
 70
     0
300
1/4" = 1'-0"
140
0.25
141
12.0
290
     0
  0
SCALE
  5
61
102
{ACAD_REACTORS
330
47
102
}
330
47
100
AcDbScale
 70
     0
300
3/8" = 1'-0"
140
0.375
141
12.0
290
     0
  0
SCALE
  5
62
102
{ACAD_REACTORS
330
47
102
}
330
47
100
AcDbScale
 70
     0
300
1/2" = 1'-0"
140
0.5
141
12.0
290
     0
  0
SCALE
  5
63
102
{ACAD_REACTORS
330
47
102
}
330
47
100
AcDbScale
 70
     0
300
3/4" = 1'-0"
140
0.75
141
12.0
290
     0
  0
SCALE
  5
64
102
{ACAD_REACTORS
330
47
102
}
330
47
100
AcDbScale
 70
     0
300
1" = 1'-0"
140
1.0
141
12.0
290
     0
  0
SCALE
  5
65
102
{ACAD_REACTORS
330
47
102
}
330
47
100
AcDbScale
 70
     0
300
1-1/2" = 1'-0"
140
1.5
141
12.0
290
     0
  0
SCALE
  5
66
102
{ACAD_REACTORS
330
47
102
}
330
47
100
AcDbScale
 70
     0
300
3" = 1'-0"
140
3.0
141
12.0
290
     0
  0
SCALE
  5
67
102
{ACAD_REACTORS
330
47
102
}
330
47
100
AcDbScale
 70
     0
300
6" = 1'-0"
140
6.0
141
12.0
290
     0
  0
SCALE
  5
68
102
{ACAD_REACTORS
330
47
102
}
330
47
100
AcDbScale
 70
     0
300
1'-0" = 1'-0"
140
12.0
141
12.0
290
     0
  0
TABLESTYLE
  5
6A
102
{ACAD_REACTORS
330
69
102
}
102
{ACAD_XDICTIONARY
360
1C4
102
}
330
69
100
AcDbTableStyle
  3
Standard
 70
     0
 71
     0
 40
0.06
 41
0.06
280
     0
281
     0
  7
Standard
140
0.18
170
     2
 62
     0
 63
   257
283
     0
 90
        4
 91
        0
  1

274
    -2
284
     1
 64
     0
275
    -2
285
     1
 65
     0
276
    -2
286
     1
 66
     0
277
    -2
287
     1
 67
     0
278
    -2
288
     1
 68
     0
279
    -2
289
     1
 69
     0
  7
Standard
140
0.25
170
     5
 62
     0
 63
   257
283
     0
 90
        4
 91
        0
  1

274
    -2
284
     1
 64
     0
275
    -2
285
     1
 65
     0
276
    -2
286
     1
 66
     0
277
    -2
287
     1
 67
     0
278
    -2
288
     1
 68
     0
279
    -2
289
     1
 69
     0
  7
Standard
140
0.18
170
     5
 62
     0
 63
   257
283
     0
 90
        4
 91
        0
  1

274
    -2
284
     1
 64
     0
275
    -2
285
     1
 65
     0
276
    -2
286
     1
 66
     0
277
    -2
287
     1
 67
     0
278
    -2
288
     1
 68
     0
279
    -2
289
     1
 69
     0
  0
VISUALSTYLE
  5
2F
102
{ACAD_REACTORS
330
2A
102
}
330
2A
100
AcDbVisualStyle
  2
2dWireframe
 70
     4
177
     2
291
     0
 71
     0
176
     1
 72
     2
176
     1
 73
     0
176
     1
 90
        0
176
     1
 40
0.6
176
     1
 41
30.0
176
     1
 62
     5
 63
     7
421
 16777215
176
     1
 74
     1
176
     1
 91
        4
176
     1
 64
     7
176
     1
 65
   257
176
     1
 75
     1
176
     1
175
     1
176
     1
 42
1.0
176
     1
 92
        0
176
     1
 66
   257
176
     1
 43
1.0
176
     1
 76
     1
176
     1
 77
     6
176
     1
 78
     2
176
     1
 67
     7
176
     1
 79
     5
176
     1
170
     0
176
     1
171
     0
176
     1
290
     0
176
     1
 93
        1
176
     1
 44
0.0
176
     1
173
     0
176
     1
  0
VISUALSTYLE
  5
32
102
{ACAD_REACTORS
330
2A
102
}
330
2A
100
AcDbVisualStyle
  2
Basic
 70
     7
177
     2
291
     1
 71
     1
176
     1
 72
     0
176
     1
 73
     1
176
     1
 90
        0
176
     1
 40
0.6
176
     1
 41
30.0
176
     1
 62
     5
 63
     7
421
 16777215
176
     1
 74
     0
176
     1
 91
        4
176
     1
 64
     7
176
     1
 65
   257
176
     1
 75
     1
176
     1
175
     1
176
     1
 42
1.0
176
     1
 92
        8
176
     1
 66
     7
176
     1
 43
1.0
176
     1
 76
     1
176
     1
 77
     6
176
     1
 78
     2
176
     1
 67
     7
176
     1
 79
     5
176
     1
170
     0
176
     1
171
     0
176
     1
290
     0
176
     1
 93
        1
176
     1
 44
0.0
176
     1
173
     0
176
     1
  0
VISUALSTYLE
  5
36
102
{ACAD_REACTORS
330
2A
102
}
330
2A
100
AcDbVisualStyle
  2
Brighten
 70
    12
177
     2
291
     1
 71
     2
176
     1
 72
     2
176
     1
 73
     0
176
     1
 90
        0
176
     1
 40
0.6
176
     1
 41
30.0
176
     1
 62
     5
 63
     7
421
 16777215
176
     1
 74
     1
176
     1
 91
        4
176
     1
 64
     7
176
     1
 65
   257
176
     1
 75
     1
176
     1
175
     1
176
     1
 42
1.0
176
     1
 92
        8
176
     1
 66
     7
176
     1
 43
1.0
176
     1
 76
     1
176
     1
 77
     6
176
     1
 78
     2
176
     1
 67
     7
176
     1
 79
     5
176
     1
170
     0
176
     1
171
     0
176
     1
290
     0
176
     1
 93
        1
176
     1
 44
50.0
176
     1
173
     0
176
     1
  0
VISUALSTYLE
  5
3A
102
{ACAD_REACTORS
330
2A
102
}
330
2A
100
AcDbVisualStyle
  2
ColorChange
 70
    16
177
     2
291
     1
 71
     2
176
     1
 72
     2
176
     1
 73
     3
176
     1
 90
        0
176
     1
 40
0.6
176
     1
 41
30.0
176
     1
 62
     5
 63
     8
421
  8421504
176
     1
 74
     1
176
     1
 91
        4
176
     1
 64
     7
176
     1
 65
   257
176
     1
 75
     1
176
     1
175
     1
176
     1
 42
1.0
176
     1
 92
        8
176
     1
 66
     8
424
  8421504
176
     1
 43
1.0
176
     1
 76
     1
176
     1
 77
     6
176
     1
 78
     2
176
     1
 67
     7
176
     1
 79
     5
176
     1
170
     0
176
     1
171
     0
176
     1
290
     0
176
     1
 93
        1
176
     1
 44
0.0
176
     1
173
     0
176
     1
  0
VISUALSTYLE
  5
34
102
{ACAD_REACTORS
330
2A
102
}
330
2A
100
AcDbVisualStyle
  2
Conceptual
 70
     9
177
     2
291
     0
 71
     3
176
     1
 72
     2
176
     1
 73
     0
176
     1
 90
        0
176
     1
 40
0.6
176
     1
 41
30.0
176
     1
 62
     5
 63
     7
421
 16777215
176
     1
 74
     2
176
     1
 91
        2
176
     1
 64
     7
176
     1
 65
   257
176
     1
 75
     1
176
     1
175
     1
176
     1
 42
179.0
176
     1
 92
        8
176
     1
 66
     7
176
     1
 43
1.0
176
     1
 76
     1
176
     1
 77
     6
176
     1
 78
     2
176
     1
 67
     7
176
     1
 79
     3
176
     1
170
     0
176
     1
171
     0
176
     1
290
     0
176
     1
 93
        1
176
     1
 44
0.0
176
     1
173
     0
176
     1
  0
VISUALSTYLE
  5
35
102
{ACAD_REACTORS
330
2A
102
}
330
2A
100
AcDbVisualStyle
  2
Dim
 70
    11
177
     2
291
     1
 71
     2
176
     1
 72
     2
176
     1
 73
     0
176
     1
 90
        0
176
     1
 40
0.6
176
     1
 41
30.0
176
     1
 62
     5
 63
     7
421
 16777215
176
     1
 74
     1
176
     1
 91
        4
176
     1
 64
     7
176
     1
 65
   257
176
     1
 75
     1
176
     1
175
     1
176
     1
 42
1.0
176
     1
 92
        8
176
     1
 66
     7
176
     1
 43
1.0
176
     1
 76
     1
176
     1
 77
     6
176
     1
 78
     2
176
     1
 67
     7
176
     1
 79
     5
176
     1
170
     0
176
     1
171
     0
176
     1
290
     0
176
     1
 93
        1
176
     1
 44
-50.0
176
     1
173
     0
176
     1
  0
VISUALSTYLE
  5
3D
102
{ACAD_REACTORS
330
2A
102
}
330
2A
100
AcDbVisualStyle
  2
EdgeColorOff
 70
    22
177
     2
291
     1
 71
     2
176
     0
 72
     2
176
     0
 73
     0
176
     0
 90
        0
176
     0
 40
0.6
176
     0
 41
30.0
176
     0
 62
     5
 63
     7
421
 16777215
176
     0
 74
     1
176
     0
 91
        4
176
     0
 64
     7
176
     0
 65
   257
176
     0
 75
     1
176
     0
175
     1
176
     0
 42
1.0
176
     0
 92
        8
176
     2
 66
     7
176
     0
 43
1.0
176
     0
 76
     1
176
     0
 77
     6
176
     0
 78
     2
176
     0
 67
     7
176
     0
 79
     5
176
     0
170
     0
176
     0
171
     0
176
     0
290
     0
176
     0
 93
        1
176
     0
 44
0.0
176
     0
173
     0
176
     0
  0
VISUALSTYLE
  5
39
102
{ACAD_REACTORS
330
2A
102
}
330
2A
100
AcDbVisualStyle
  2
Facepattern
 70
    15
177
     2
291
     1
 71
     2
176
     1
 72
     2
176
     1
 73
     0
176
     1
 90
        0
176
     1
 40
0.6
176
     1
 41
30.0
176
     1
 62
     5
 63
     7
421
 16777215
176
     1
 74
     1
176
     1
 91
        4
176
     1
 64
     7
176
     1
 65
   257
176
     1
 75
     1
176
     1
175
     1
176
     1
 42
1.0
176
     1
 92
        8
176
     1
 66
     7
176
     1
 43
1.0
176
     1
 76
     1
176
     1
 77
     6
176
     1
 78
     2
176
     1
 67
     7
176
     1
 79
     5
176
     1
170
     0
176
     1
171
     0
176
     1
290
     0
176
     1
 93
        1
176
     1
 44
0.0
176
     1
173
     0
176
     1
  0
VISUALSTYLE
  5
2B
102
{ACAD_REACTORS
330
2A
102
}
330
2A
100
AcDbVisualStyle
  2
Flat
 70
     0
177
     2
291
     1
 71
     2
176
     1
 72
     1
176
     1
 73
     1
176
     1
 90
        2
176
     1
 40
0.6
176
     1
 41
30.0
176
     1
 62
     5
 63
     7
421
 16777215
176
     1
 74
     0
176
     1
 91
        0
176
     1
 64
     7
176
     1
 65
   257
176
     1
 75
     1
176
     1
175
     1
176
     1
 42
1.0
176
     1
 92
        8
176
     1
 66
     7
176
     1
 43
1.0
176
     1
 76
     1
176
     1
 77
     6
176
     1
 78
     2
176
     1
 67
     7
176
     1
 79
     5
176
     1
170
     0
176
     1
171
     0
176
     1
290
     0
176
     1
 93
       13
176
     1
 44
0.0
176
     1
173
     0
176
     1
  0
VISUALSTYLE
  5
2C
102
{ACAD_REACTORS
330
2A
102
}
330
2A
100
AcDbVisualStyle
  2
FlatWithEdges
 70
     1
177
     2
291
     1
 71
     2
176
     1
 72
     1
176
     1
 73
     1
176
     1
 90
        2
176
     1
 40
0.6
176
     1
 41
30.0
176
     1
 62
     5
 63
     7
421
 16777215
176
     1
 74
     1
176
     1
 91
        0
176
     1
 64
     7
176
     1
 65
   257
176
     1
 75
     1
176
     1
175
     1
176
     1
 42
1.0
176
     1
 92
        0
176
     1
 66
   257
176
     1
 43
1.0
176
     1
 76
     1
176
     1
 77
     6
176
     1
 78
     2
176
     1
 67
     7
176
     1
 79
     5
176
     1
170
     0
176
     1
171
     0
176
     1
290
     0
176
     1
 93
       13
176
     1
 44
0.0
176
     1
173
     0
176
     1
  0
VISUALSTYLE
  5
2D
102
{ACAD_REACTORS
330
2A
102
}
330
2A
100
AcDbVisualStyle
  2
Gouraud
 70
     2
177
     2
291
     1
 71
     2
176
     1
 72
     2
176
     1
 73
     1
176
     1
 90
        2
176
     1
 40
0.6
176
     1
 41
30.0
176
     1
 62
     5
 63
     7
421
 16777215
176
     1
 74
     0
176
     1
 91
        0
176
     1
 64
     7
176
     1
 65
   257
176
     1
 75
     1
176
     1
175
     1
176
     1
 42
1.0
176
     1
 92
        0
176
     1
 66
     7
176
     1
 43
1.0
176
     1
 76
     1
176
     1
 77
     6
176
     1
 78
     2
176
     1
 67
     7
176
     1
 79
     5
176
     1
170
     0
176
     1
171
     0
176
     1
290
     0
176
     1
 93
       13
176
     1
 44
0.0
176
     1
173
     0
176
     1
  0
VISUALSTYLE
  5
2E
102
{ACAD_REACTORS
330
2A
102
}
330
2A
100
AcDbVisualStyle
  2
GouraudWithEdges
 70
     3
177
     2
291
     1
 71
     2
176
     1
 72
     2
176
     1
 73
     1
176
     1
 90
        2
176
     1
 40
0.6
176
     1
 41
30.0
176
     1
 62
     5
 63
     7
421
 16777215
176
     1
 74
     1
176
     1
 91
        0
176
     1
 64
     7
176
     1
 65
   257
176
     1
 75
     1
176
     1
175
     1
176
     1
 42
1.0
176
     1
 92
        0
176
     1
 66
   257
176
     1
 43
1.0
176
     1
 76
     1
176
     1
 77
     6
176
     1
 78
     2
176
     1
 67
     7
176
     1
 79
     5
176
     1
170
     0
176
     1
171
     0
176
     1
290
     0
176
     1
 93
       13
176
     1
 44
0.0
176
     1
173
     0
176
     1
  0
VISUALSTYLE
  5
31
102
{ACAD_REACTORS
330
2A
102
}
330
2A
100
AcDbVisualStyle
  2
Hidden
 70
     6
177
     2
291
     0
 71
     1
176
     1
 72
     2
176
     1
 73
     2
176
     1
 90
        0
176
     1
 40
0.6
176
     1
 41
30.0
176
     1
 62
     5
 63
     7
421
 16777215
176
     1
 74
     2
176
     1
 91
        2
176
     1
 64
     7
176
     1
 65
   257
176
     1
 75
     2
176
     1
175
     1
176
     1
 42
40.0
176
     1
 92
        0
176
     1
 66
   257
176
     1
 43
1.0
176
     1
 76
     1
176
     1
 77
     6
176
     1
 78
     2
176
     1
 67
     7
176
     1
 79
     3
176
     1
170
     0
176
     1
171
     0
176
     1
290
     0
176
     1
 93
        1
176
     1
 44
0.0
176
     1
173
     0
176
     1
  0
VISUALSTYLE
  5
3B
102
{ACAD_REACTORS
330
2A
102
}
330
2A
100
AcDbVisualStyle
  2
JitterOff
 70
    20
177
     2
291
     1
 71
     2
176
     0
 72
     2
176
     0
 73
     0
176
     0
 90
        0
176
     0
 40
0.6
176
     0
 41
30.0
176
     0
 62
     5
 63
     7
421
 16777215
176
     0
 74
     1
176
     0
 91
        4
176
     0
 64
     7
176
     0
 65
   257
176
     0
 75
     1
176
     0
175
     1
176
     0
 42
1.0
176
     0
 92
       10
176
     2
 66
     7
176
     0
 43
1.0
176
     0
 76
     1
176
     0
 77
     6
176
     0
 78
     2
176
     0
 67
     7
176
     0
 79
     5
176
     0
170
     0
176
     0
171
     0
176
     0
290
     0
176
     0
 93
        1
176
     0
 44
0.0
176
     0
173
     0
176
     0
  0
VISUALSTYLE
  5
38
102
{ACAD_REACTORS
330
2A
102
}
330
2A
100
AcDbVisualStyle
  2
Linepattern
 70
    14
177
     2
291
     1
 71
     2
176
     1
 72
     2
176
     1
 73
     0
176
     1
 90
        0
176
     1
 40
0.6
176
     1
 41
30.0
176
     1
 62
     5
 63
     7
421
 16777215
176
     1
 74
     1
176
     1
 91
        4
176
     1
 64
     7
176
     1
 65
   257
176
     1
 75
     7
176
     1
175
     7
176
     1
 42
1.0
176
     1
 92
        8
176
     1
 66
     7
176
     1
 43
1.0
176
     1
 76
     1
176
     1
 77
     6
176
     1
 78
     2
176
     1
 67
     7
176
     1
 79
     5
176
     1
170
     0
176
     1
171
     0
176
     1
290
     0
176
     1
 93
        1
176
     1
 44
0.0
176
     1
173
     0
176
     1
  0
VISUALSTYLE
  5
3C
102
{ACAD_REACTORS
330
2A
102
}
330
2A
100
AcDbVisualStyle
  2
OverhangOff
 70
    21
177
     2
291
     1
 71
     2
176
     0
 72
     2
176
     0
 73
     0
176
     0
 90
        0
176
     0
 40
0.6
176
     0
 41
30.0
176
     0
 62
     5
 63
     7
421
 16777215
176
     0
 74
     1
176
     0
 91
        4
176
     0
 64
     7
176
     0
 65
   257
176
     0
 75
     1
176
     0
175
     1
176
     0
 42
1.0
176
     0
 92
        9
176
     2
 66
     7
176
     0
 43
1.0
176
     0
 76
     1
176
     0
 77
     6
176
     0
 78
     2
176
     0
 67
     7
176
     0
 79
     5
176
     0
170
     0
176
     0
171
     0
176
     0
290
     0
176
     0
 93
        1
176
     0
 44
0.0
176
     0
173
     0
176
     0
  0
VISUALSTYLE
  5
33
102
{ACAD_REACTORS
330
2A
102
}
330
2A
100
AcDbVisualStyle
  2
Realistic
 70
     8
177
     2
291
     0
 71
     2
176
     1
 72
     3
176
     1
 73
     0
176
     1
 90
        2
176
     1
 40
0.6
176
     1
 41
30.0
176
     1
 62
     5
 63
     7
421
 16777215
176
     1
 74
     0
176
     1
 91
        0
176
     1
 64
     7
176
     1
 65
   257
176
     1
 75
     1
176
     1
175
     1
176
     1
 42
1.0
176
     1
 92
        8
176
     1
 66
   257
176
     1
 43
1.0
176
     1
 76
     1
176
     1
 77
     6
176
     1
 78
     2
176
     1
 67
     7
176
     1
 79
     3
176
     1
170
     0
176
     1
171
     0
176
     1
290
     0
176
     1
 93
       13
176
     1
 44
0.0
176
     1
173
     0
176
     1
  0
VISUALSTYLE
  5
42
102
{ACAD_REACTORS
330
2A
102
}
330
2A
100
AcDbVisualStyle
  2
Shaded
 70
    27
177
     2
291
     0
 71
     2
176
     1
 72
     2
176
     1
 73
     1
176
     1
 90
        2
176
     1
 40
0.6
176
     1
 41
30.0
176
     1
 62
     5
 63
     7
421
 16777215
176
     1
 74
     0
176
     1
 91
        4
176
     1
 64
     7
176
     1
 65
   257
176
     1
 75
     1
176
     1
175
     1
176
     1
 42
1.0
176
     1
 92
        8
176
     1
 66
   257
176
     1
 43
1.0
176
     1
 76
     1
176
     1
 77
     6
176
     1
 78
     2
176
     1
 67
     8
425
  7895160
176
     1
 79
     3
176
     1
170
     0
176
     1
171
     0
176
     1
290
     0
176
     1
 93
        5
176
     1
 44
0.0
176
     1
173
     0
176
     1
  0
VISUALSTYLE
  5
41
102
{ACAD_REACTORS
330
2A
102
}
330
2A
100
AcDbVisualStyle
  2
Shaded with edges
 70
    26
177
     2
291
     0
 71
     2
176
     1
 72
     2
176
     1
 73
     1
176
     1
 90
        2
176
     1
 40
0.6
176
     1
 41
30.0
176
     1
 62
     5
 63
     7
421
 16777215
176
     1
 74
     1
176
     1
 91
       10
176
     1
 64
     7
176
     1
 65
   257
176
     1
 75
     2
176
     1
175
     1
176
     1
 42
1.0
176
     1
 92
        8
176
     1
 66
   257
176
     1
 43
1.0
176
     1
 76
     1
176
     1
 77
     6
176
     1
 78
     2
176
     1
 67
     7
176
     1
 79
     3
176
     1
170
     0
176
     1
171
     0
176
     1
290
     0
176
     1
 93
        5
176
     1
 44
0.0
176
     1
173
     0
176
     1
  0
VISUALSTYLE
  5
3E
102
{ACAD_REACTORS
330
2A
102
}
330
2A
100
AcDbVisualStyle
  2
Shades of Gray
 70
    23
177
     2
291
     0
 71
     2
176
     1
 72
     2
176
     1
 73
     3
176
     1
 90
        0
176
     1
 40
0.6
176
     1
 41
30.0
176
     1
 62
     5
 63
     7
421
 16777215
176
     1
 74
     2
176
     1
 91
        2
176
     1
 64
     7
176
     1
 65
     7
176
     1
 75
     1
176
     1
175
     1
176
     1
 42
40.0
176
     1
 92
        8
176
     1
 66
     7
176
     1
 43
1.0
176
     1
 76
     1
176
     1
 77
     6
176
     1
 78
     2
176
     1
 67
     7
176
     1
 79
     3
176
     1
170
     0
176
     1
171
     0
176
     1
290
     0
176
     1
 93
        1
176
     1
 44
0.0
176
     1
173
     0
176
     1
  0
VISUALSTYLE
  5
3F
102
{ACAD_REACTORS
330
2A
102
}
330
2A
100
AcDbVisualStyle
  2
Sketchy
 70
    24
177
     2
291
     0
 71
     1
176
     1
 72
     2
176
     1
 73
     2
176
     1
 90
        0
176
     1
 40
0.6
176
     1
 41
30.0
176
     1
 62
     5
 63
     7
421
 16777215
176
     1
 74
     2
176
     1
 91
        2
176
     1
 64
     7
176
     1
 65
     7
176
     1
 75
     1
176
     1
175
     1
176
     1
 42
40.0
176
     1
 92
       11
176
     1
 66
     7
176
     1
 43
1.0
176
     1
 76
     1
176
     1
 77
     6
176
     1
 78
     2
176
     1
 67
     7
176
     1
 79
     6
176
     1
170
     0
176
     1
171
     0
176
     1
290
     0
176
     1
 93
        1
176
     1
 44
0.0
176
     1
173
     0
176
     1
  0
VISUALSTYLE
  5
37
102
{ACAD_REACTORS
330
2A
102
}
330
2A
100
AcDbVisualStyle
  2
Thicken
 70
    13
177
     2
291
     1
 71
     2
176
     1
 72
     2
176
     1
 73
     0
176
     1
 90
        0
176
     1
 40
0.6
176
     1
 41
30.0
176
     1
 62
     5
 63
     7
421
 16777215
176
     1
 74
     1
176
     1
 91
        4
176
     1
 64
     7
176
     1
 65
   257
176
     1
 75
     1
176
     1
175
     1
176
     1
 42
1.0
176
     1
 92
       12
176
     1
 66
     7
176
     1
 43
1.0
176
     1
 76
     1
176
     1
 77
     6
176
     1
 78
     2
176
     1
 67
     7
176
     1
 79
     5
176
     1
170
     0
176
     1
171
     0
176
     1
290
     0
176
     1
 93
        1
176
     1
 44
0.0
176
     1
173
     0
176
     1
  0
VISUALSTYLE
  5
30
102
{ACAD_REACTORS
330
2A
102
}
330
2A
100
AcDbVisualStyle
  2
Wireframe
 70
     5
177
     2
291
     0
 71
     0
176
     1
 72
     2
176
     1
 73
     0
176
     1
 90
        0
176
     1
 40
0.6
176
     1
 41
30.0
176
     1
 62
     5
 63
     7
421
 16777215
176
     1
 74
     1
176
     1
 91
        4
176
     1
 64
     7
176
     1
 65
   257
176
     1
 75
     1
176
     1
175
     1
176
     1
 42
1.0
176
     1
 92
        0
176
     1
 66
   257
176
     1
 43
1.0
176
     1
 76
     1
176
     1
 77
     6
176
     1
 78
     2
176
     1
 67
     7
176
     1
 79
     3
176
     1
170
     0
176
     1
171
     0
176
     1
290
     0
176
     1
 93
        1
176
     1
 44
0.0
176
     1
173
     0
176
     1
  0
VISUALSTYLE
  5
40
102
{ACAD_REACTORS
330
2A
102
}
330
2A
100
AcDbVisualStyle
  2
X-Ray
 70
    25
177
     2
291
     0
 71
     2
176
     1
 72
     2
176
     1
 73
     1
176
     1
 90
        1
176
     1
 40
0.5
176
     1
 41
30.0
176
     1
 62
     5
 63
     7
421
 16777215
176
     1
 74
     1
176
     1
 91
        0
176
     1
 64
     7
176
     1
 65
   257
176
     1
 75
     1
176
     1
175
     1
176
     1
 42
1.0
176
     1
 92
        8
176
     1
 66
     7
176
     1
 43
1.0
176
     1
 76
     1
176
     1
 77
     6
176
     1
 78
     2
176
     1
 67
     7
176
     1
 79
     3
176
     1
170
     0
176
     1
171
     0
176
     1
290
     0
176
     1
 93
       13
176
     1
 44
0.0
176
     1
173
     0
176
     1
  0
DICTIONARYVAR
  5
1C3
102
{ACAD_REACTORS
330
1C2
102
}
330
1C2
100
DictionaryVariables
280
     0
  1
1:1
  0
DICTIONARYVAR
  5
1C8
102
{ACAD_REACTORS
330
1C2
102
}
330
1C2
100
DictionaryVariables
280
     0
  1
Standard
  0
DICTIONARYVAR
  5
1C7
102
{ACAD_REACTORS
330
1C2
102
}
330
1C2
100
DictionaryVariables
280
     0
  1
Standard
  0
DICTIONARYVAR
  5
1C9
102
{ACAD_REACTORS
330
1C2
102
}
330
1C2
100
DictionaryVariables
280
     0
  1
0
  0
DICTIONARY
  5
1C4
330
6A
100
AcDbDictionary
280
     1
281
     1
  3
ACAD_ROUNDTRIP_2008_TABLESTYLE_CELLSTYLEMAP
360
1C5
  0
CELLSTYLEMAP
  5
1C5
102
{ACAD_REACTORS
330
1C4
102
}
330
1C4
100
AcDbCellStyleMap
 90
        3
300
CELLSTYLE
  1
TABLEFORMAT_BEGIN
 90
        5
170
     1
 91
        0
 92
    32768
 62
   257
 93
        1
300
CONTENTFORMAT
  1
CONTENTFORMAT_BEGIN
 90
        0
 91
        0
 92
        4
 93
        0
300

 40
0.0
140
1.0
 94
        5
 62
     0
340
11
144
0.25
309
CONTENTFORMAT_END
171
     1
301
MARGIN
  1
CELLMARGIN_BEGIN
 40
0.06
 40
0.06
 40
0.06
 40
0.06
 40
0.06
 40
0.06
309
CELLMARGIN_END
 94
        6
 95
        1
302
GRIDFORMAT
  1
GRIDFORMAT_BEGIN
 90
        0
 91
        1
 62
     0
 92
       -2
340
14
 93
        0
 40
0.045
309
GRIDFORMAT_END
 95
        2
302
GRIDFORMAT
  1
GRIDFORMAT_BEGIN
 90
        0
 91
        1
 62
     0
 92
       -2
340
14
 93
        0
 40
0.045
309
GRIDFORMAT_END
 95
        4
302
GRIDFORMAT
  1
GRIDFORMAT_BEGIN
 90
        0
 91
        1
 62
     0
 92
       -2
340
14
 93
        0
 40
0.045
309
GRIDFORMAT_END
 95
        8
302
GRIDFORMAT
  1
GRIDFORMAT_BEGIN
 90
        0
 91
        1
 62
     0
 92
       -2
340
14
 93
        0
 40
0.045
309
GRIDFORMAT_END
 95
       16
302
GRIDFORMAT
  1
GRIDFORMAT_BEGIN
 90
        0
 91
        1
 62
     0
 92
       -2
340
14
 93
        0
 40
0.045
309
GRIDFORMAT_END
 95
       32
302
GRIDFORMAT
  1
GRIDFORMAT_BEGIN
 90
        0
 91
        1
 62
     0
 92
       -2
340
14
 93
        0
 40
0.045
309
GRIDFORMAT_END
309
TABLEFORMAT_END
  1
CELLSTYLE_BEGIN
 90
        1
 91
        1
300
_TITLE
309
CELLSTYLE_END
300
CELLSTYLE
  1
TABLEFORMAT_BEGIN
 90
        5
170
     1
 91
        0
 92
        0
 62
   257
 93
        1
300
CONTENTFORMAT
  1
CONTENTFORMAT_BEGIN
 90
        0
 91
        0
 92
        4
 93
        0
300

 40
0.0
140
1.0
 94
        5
 62
     0
340
11
144
0.18
309
CONTENTFORMAT_END
171
     1
301
MARGIN
  1
CELLMARGIN_BEGIN
 40
0.06
 40
0.06
 40
0.06
 40
0.06
 40
0.06
 40
0.06
309
CELLMARGIN_END
 94
        6
 95
        1
302
GRIDFORMAT
  1
GRIDFORMAT_BEGIN
 90
        0
 91
        1
 62
     0
 92
       -2
340
14
 93
        0
 40
0.045
309
GRIDFORMAT_END
 95
        2
302
GRIDFORMAT
  1
GRIDFORMAT_BEGIN
 90
        0
 91
        1
 62
     0
 92
       -2
340
14
 93
        0
 40
0.045
309
GRIDFORMAT_END
 95
        4
302
GRIDFORMAT
  1
GRIDFORMAT_BEGIN
 90
        0
 91
        1
 62
     0
 92
       -2
340
14
 93
        0
 40
0.045
309
GRIDFORMAT_END
 95
        8
302
GRIDFORMAT
  1
GRIDFORMAT_BEGIN
 90
        0
 91
        1
 62
     0
 92
       -2
340
14
 93
        0
 40
0.045
309
GRIDFORMAT_END
 95
       16
302
GRIDFORMAT
  1
GRIDFORMAT_BEGIN
 90
        0
 91
        1
 62
     0
 92
       -2
340
14
 93
        0
 40
0.045
309
GRIDFORMAT_END
 95
       32
302
GRIDFORMAT
  1
GRIDFORMAT_BEGIN
 90
        0
 91
        1
 62
     0
 92
       -2
340
14
 93
        0
 40
0.045
309
GRIDFORMAT_END
309
TABLEFORMAT_END
  1
CELLSTYLE_BEGIN
 90
        2
 91
        1
300
_HEADER
309
CELLSTYLE_END
300
CELLSTYLE
  1
TABLEFORMAT_BEGIN
 90
        5
170
     1
 91
        0
 92
        0
 62
   257
 93
        1
300
CONTENTFORMAT
  1
CONTENTFORMAT_BEGIN
 90
        0
 91
        0
 92
        4
 93
        0
300

 40
0.0
140
1.0
 94
        2
 62
     0
340
11
144
0.18
309
CONTENTFORMAT_END
171
     1
301
MARGIN
  1
CELLMARGIN_BEGIN
 40
0.06
 40
0.06
 40
0.06
 40
0.06
 40
0.06
 40
0.06
309
CELLMARGIN_END
 94
        6
 95
        1
302
GRIDFORMAT
  1
GRIDFORMAT_BEGIN
 90
        0
 91
        1
 62
     0
 92
       -2
340
14
 93
        0
 40
0.045
309
GRIDFORMAT_END
 95
        2
302
GRIDFORMAT
  1
GRIDFORMAT_BEGIN
 90
        0
 91
        1
 62
     0
 92
       -2
340
14
 93
        0
 40
0.045
309
GRIDFORMAT_END
 95
        4
302
GRIDFORMAT
  1
GRIDFORMAT_BEGIN
 90
        0
 91
        1
 62
     0
 92
       -2
340
14
 93
        0
 40
0.045
309
GRIDFORMAT_END
 95
        8
302
GRIDFORMAT
  1
GRIDFORMAT_BEGIN
 90
        0
 91
        1
 62
     0
 92
       -2
340
14
 93
        0
 40
0.045
309
GRIDFORMAT_END
 95
       16
302
GRIDFORMAT
  1
GRIDFORMAT_BEGIN
 90
        0
 91
        1
 62
     0
 92
       -2
340
14
 93
        0
 40
0.045
309
GRIDFORMAT_END
 95
       32
302
GRIDFORMAT
  1
GRIDFORMAT_BEGIN
 90
        0
 91
        1
 62
     0
 92
       -2
340
14
 93
        0
 40
0.045
309
GRIDFORMAT_END
309
TABLEFORMAT_END
  1
CELLSTYLE_BEGIN
 90
        3
 91
        2
300
_DATA
309
CELLSTYLE_END
  0
ENDSEC
  0
EOF
